# Blender 4.5.3 LTS
# www.blender.org
o w9a02_s00_floor_000.001
v 2.873797 -2.500000 -5.969165
v -11.999992 -2.500000 -9.498394
v -11.999992 -2.500000 -5.969165
v -11.999992 -2.500000 -9.498394
v 2.873797 -2.500000 -5.969165
v 2.873724 -2.500000 -9.498394
v 2.941357 -2.528754 -5.969165
v 2.873724 -2.500000 -9.498394
v 2.873797 -2.500000 -5.969165
v 2.873724 -2.500000 -9.498394
v 2.941357 -2.528754 -5.969165
v 2.941283 -2.528754 -9.498394
v 2.873995 -2.499999 18.058611
v -11.999992 -2.500000 -4.860406
v -11.999992 -2.499999 18.214567
v -11.999992 -2.500000 -4.860406
v 2.873995 -2.499999 18.058611
v 2.873821 -2.500000 -4.860406
v 2.941551 -2.528754 18.057543
v 2.873821 -2.500000 -4.860406
v 2.873995 -2.499999 18.058611
v 2.873821 -2.500000 -4.860406
v 2.941551 -2.528754 18.057543
v 2.941380 -2.528754 -4.841384
v 2.873821 -2.500000 -4.860406
v -11.999992 -2.516781 -4.902437
v -11.999992 -2.500000 -4.860406
v -11.999992 -2.516781 -4.902437
v 2.873821 -2.500000 -4.860406
v 2.873820 -2.516781 -4.902437
v 2.941380 -2.528754 -4.841384
v 2.873820 -2.516781 -4.902437
v 2.873821 -2.500000 -4.860406
v 2.873820 -2.516781 -4.902437
v 2.941380 -2.528754 -4.841384
v 2.941379 -2.528754 -4.902438
v 2.873808 -2.500000 -5.497931
v -11.999992 -2.500000 -5.622974
v -11.999992 -2.500000 -5.497931
v -11.999992 -2.500000 -5.622974
v 2.873808 -2.500000 -5.497931
v 2.873804 -2.500000 -5.622974
v 2.941366 -2.528754 -5.502939
v 2.873804 -2.500000 -5.622974
v 2.873808 -2.500000 -5.497931
v 2.873804 -2.500000 -5.622974
v 2.941366 -2.528754 -5.502939
v 2.941364 -2.528754 -5.622974
v 2.873798 -2.514700 -5.936107
v -11.999992 -2.500000 -5.969165
v -11.999992 -2.514700 -5.936107
v -11.999992 -2.500000 -5.969165
v 2.873798 -2.514700 -5.936107
v 2.873797 -2.500000 -5.969165
v 2.941357 -2.528754 -5.936107
v 2.873797 -2.500000 -5.969165
v 2.873798 -2.514700 -5.936107
v 2.873797 -2.500000 -5.969165
v 2.941357 -2.528754 -5.936107
v 2.941357 -2.528754 -5.969165
v 2.873809 -2.538558 -5.451868
v -11.999992 -2.500000 -5.497931
v -11.999992 -2.538558 -5.451868
v -11.999992 -2.500000 -5.497931
v 2.873809 -2.538558 -5.451868
v 2.873808 -2.500000 -5.497931
v 2.941368 -2.528754 -5.451868
v 2.873808 -2.500000 -5.497931
v 2.873809 -2.538558 -5.451868
v 2.873808 -2.500000 -5.497931
v 2.941368 -2.528754 -5.451868
v 2.941366 -2.528754 -5.502939
v 2.873804 -2.500000 -5.622974
v -11.999992 -2.514700 -5.664474
v -11.999992 -2.500000 -5.622974
v -11.999992 -2.514700 -5.664474
v 2.873804 -2.500000 -5.622974
v 2.873804 -2.514700 -5.664474
v 2.941364 -2.528754 -5.622974
v 2.873804 -2.514700 -5.664474
v 2.873804 -2.500000 -5.622974
v 2.873804 -2.514700 -5.664474
v 2.941364 -2.528754 -5.622974
v 2.941363 -2.528754 -5.664473
v 8.460560 -2.500000 6.376641
v 3.809900 -2.500000 -9.498394
v 3.810025 -2.500000 6.426253
v 3.809900 -2.500000 -9.498394
v 8.460560 -2.500000 6.376641
v 8.460560 -2.500000 -9.498394
v 3.810025 -2.500000 6.426253
v 3.782405 -2.520443 -9.498394
v 3.782530 -2.520443 6.426547
v 3.782405 -2.520443 -9.498394
v 3.810025 -2.500000 6.426253
v 3.809900 -2.500000 -9.498394
vn -0.0000 1.0000 -0.0000
vn 0.3916 0.9201 -0.0000
vn -0.0000 0.9289 -0.3703
vn -0.0000 0.9289 -0.3702
vn 0.3037 0.9404 -0.1529
vn 0.3037 0.9404 -0.1528
vn 0.3037 0.9405 -0.1528
vn 0.3036 0.9405 -0.1528
vn -0.0000 0.9140 0.4058
vn -0.0000 0.9139 0.4060
vn -0.0000 0.9137 0.4063
vn 0.2941 0.9333 0.2059
vn 0.2941 0.9333 0.2060
vn 0.2942 0.9333 0.2058
vn 0.2941 0.9333 0.2058
vn -0.0000 0.7671 0.6415
vn -0.0000 0.7672 0.6414
vn -0.0000 0.7670 0.6416
vn 0.1410 0.9205 0.3643
vn -0.0000 0.9429 -0.3331
vn -0.0000 0.9429 -0.3332
vn 0.2977 0.9400 -0.1665
vn 0.2976 0.9401 -0.1664
vn -0.5956 0.8033 -0.0000
vn -0.5955 0.8033 -0.0000
vn -0.5955 0.8034 -0.0000
vt -0.372559 1.681641
vt 2.070312 2.267578
vt 2.070312 1.681641
vt -0.372559 2.267578
vt -0.384521 1.681641
vt -0.384521 2.267578
vt -0.372559 -1.999023
vt 2.070312 1.494141
vt 2.070312 -2.003906
vt -0.372559 1.494141
vt -0.384521 -1.998047
vt -0.384521 1.494141
vt 2.070312 1.503906
vt -0.372559 1.503906
vt -0.384521 1.503906
vt -0.372559 1.603516
vt 2.070312 1.624023
vt 2.070312 1.603516
vt -0.372559 1.624023
vt -0.384521 1.603516
vt -0.384521 1.624023
vt -0.372559 1.675781
vt 2.070312 1.675781
vt -0.384521 1.675781
vt -0.372559 1.595703
vt 2.070312 1.595703
vt -0.384521 1.595703
vt 2.070312 1.630859
vt -0.372559 1.630859
vt -0.384521 1.630859
vt -1.290039 -0.187134
vt -0.526367 2.267578
vt -0.526367 -0.191284
vt -1.290039 2.267578
vt -0.521973 2.267578
vt -0.521973 -0.191284
s 1
f 1/1/1 2/2/1 3/3/1
f 4/2/1 5/1/1 6/4/1
f 7/5/2 8/4/2 9/1/2
f 10/4/2 11/5/2 12/6/2
f 13/7/1 14/8/1 15/9/1
f 16/8/1 17/7/1 18/10/1
f 19/11/2 20/10/2 21/7/2
f 22/10/2 23/11/2 24/12/2
f 25/10/3 26/13/3 27/8/3
f 28/13/4 29/10/4 30/14/4
f 31/12/5 32/14/6 33/10/5
f 34/14/7 35/12/6 36/15/8
f 37/16/1 38/17/1 39/18/1
f 40/17/1 41/16/1 42/19/1
f 43/20/2 44/19/2 45/16/2
f 46/19/2 47/20/2 48/21/2
f 49/22/9 50/3/10 51/23/11
f 52/3/10 53/22/9 54/1/10
f 55/24/12 56/1/12 57/22/13
f 58/1/12 59/24/14 60/5/15
f 61/25/16 62/18/17 63/26/17
f 64/18/16 65/25/18 66/16/16
f 67/27/19 68/16/19 69/25/19
f 70/16/19 71/27/19 72/20/19
f 73/19/20 74/28/20 75/17/20
f 76/28/21 77/19/21 78/29/21
f 79/21/22 80/29/22 81/19/22
f 82/29/22 83/21/23 84/30/23
f 85/31/1 86/32/1 87/33/1
f 88/32/1 89/31/1 90/34/1
f 91/33/24 92/35/25 93/36/24
f 94/35/26 95/33/24 96/32/24
