# Blender 5.1.1
# www.blender.org
o ev_obj_w9_hideconsole_monitor721
v -1.392704 0.629232 0.607898
v -1.392704 0.975441 0.446062
v -0.641114 0.629232 0.607898
v -0.641114 0.975441 0.446062
v -1.392704 0.629232 0.607898
v -0.641114 0.629232 0.607898
v -1.392704 0.975441 0.446062
v -0.641114 0.975441 0.446062
vn -0.0000 0.4235 0.9059
vn -0.0000 0.4232 0.9061
vn -0.0000 -0.4232 -0.9061
vn -0.0000 -0.4235 -0.9059
vt -2.375000 1.410400
vt -2.664062 1.654785
vt -2.664062 1.410400
vt -2.375000 1.654785
s 1
f 3/1/1 2/2/2 1/3/1
f 2/2/2 3/1/1 4/4/1
f 7/2/3 6/1/4 5/3/4
f 6/1/4 7/2/3 8/4/4
