# Blender 5.1.1
# www.blender.org
o ev_obj_w9_hideconsole_glass740
v -0.572344 3.086324 5.129883
v -0.573368 3.088827 5.125068
v -0.573368 3.081457 5.127481
v -0.574332 3.083816 5.122946
v -0.576284 3.077234 5.125634
v -0.577078 3.079180 5.121894
v -0.576284 3.077234 5.125634
v -0.577078 3.079180 5.121894
v -0.580648 3.074296 5.124621
v -0.581188 3.075624 5.122072
v -0.585977 3.073649 5.123528
v -0.585992 2.882649 5.490231
v -0.580651 2.883912 5.490144
v -0.576285 2.886432 5.491960
v -0.576285 2.886432 5.491960
v -0.573368 2.890377 5.494344
v -0.572344 2.895146 5.496935
v -0.581196 2.882586 5.492690
v -0.577082 2.884487 5.495697
v -0.577082 2.884487 5.495697
v -0.574333 2.888019 5.498878
v -0.573368 2.892643 5.501749
v -0.583886 3.076940 5.119542
v -0.586615 3.077205 5.119034
v -0.586186 3.082052 5.116371
v -0.582185 3.081665 5.117115
v -0.586186 3.082052 5.116371
v -0.582185 3.081665 5.117115
v -0.585899 3.087549 5.115762
v -0.581049 3.087080 5.116665
v -0.585798 3.092861 5.117301
v -0.580650 3.092364 5.118259
v -1.448020 3.092861 5.117301
v -1.447919 3.087549 5.115762
v -1.447633 3.082052 5.116371
v -1.447633 3.082052 5.116371
v -1.447203 3.077205 5.119034
v -1.447841 3.073649 5.123528
v -1.453169 3.092364 5.118259
v -1.452770 3.087080 5.116665
v -1.451633 3.081665 5.117115
v -1.451633 3.081665 5.117115
v -1.449932 3.076940 5.119542
v -0.585798 2.888608 5.509516
v -0.580650 2.889106 5.508558
v -0.585899 2.884287 5.506060
v -0.581050 2.884756 5.505158
v -0.586187 2.881620 5.501211
v -0.582189 2.882006 5.500468
v -0.586187 2.881620 5.501211
v -0.582189 2.882006 5.500468
v -0.586618 2.881014 5.495711
v -0.583894 2.881277 5.495205
v -1.447826 2.882649 5.490231
v -1.447201 2.881014 5.495711
v -1.447631 2.881620 5.501211
v -1.447631 2.881620 5.501211
v -1.447919 2.884287 5.506060
v -1.448020 2.888608 5.509516
v -1.449924 2.881277 5.495205
v -1.451629 2.882006 5.500468
v -1.451629 2.882006 5.500468
v -1.452769 2.884756 5.505158
v -1.453169 2.889106 5.508558
v -1.452631 3.075624 5.122072
v -1.453170 3.074296 5.124621
v -1.457535 3.077234 5.125634
v -1.456741 3.079180 5.121894
v -1.457535 3.077234 5.125634
v -1.456741 3.079180 5.121894
v -1.460451 3.081457 5.127481
v -1.459486 3.083816 5.122946
v -1.461475 3.086324 5.129883
v -1.460451 3.088827 5.125068
v -1.461475 2.895146 5.496935
v -1.460450 2.890377 5.494344
v -1.457533 2.886432 5.491960
v -1.457533 2.886432 5.491960
v -1.453168 2.883912 5.490144
v -1.460451 2.892643 5.501749
v -1.459485 2.888019 5.498878
v -1.456736 2.884487 5.495697
v -1.456736 2.884487 5.495697
v -1.452623 2.882586 5.492690
v -0.582267 3.076412 5.120556
v -0.579123 3.080669 5.119030
v -0.579123 3.080669 5.119030
v -0.577022 3.085773 5.119181
v -0.576285 3.090947 5.120986
v -0.579123 3.080669 5.119030
v -0.577022 3.085773 5.119181
v -0.576285 3.090947 5.120986
v -1.451551 3.076412 5.120556
v -1.454696 3.080669 5.119030
v -1.454696 3.080669 5.119030
v -1.456797 3.085773 5.119181
v -1.457534 3.090947 5.120986
v -1.454696 3.080669 5.119030
v -1.456797 3.085773 5.119181
v -1.457534 3.090947 5.120986
v -0.582278 2.881801 5.494199
v -0.579129 2.883000 5.498558
v -0.579129 2.883000 5.498558
v -0.577024 2.886063 5.502643
v -0.576285 2.890523 5.505831
v -0.579129 2.883000 5.498558
v -0.577024 2.886063 5.502643
v -0.576285 2.890523 5.505831
v -1.451540 2.881801 5.494199
v -1.454690 2.883000 5.498558
v -1.454690 2.883000 5.498558
v -1.456795 2.886063 5.502643
v -1.457534 2.890523 5.505831
v -1.454690 2.883000 5.498558
v -1.456795 2.886063 5.502643
v -1.457534 2.890523 5.505831
v -1.448020 3.098750 5.120352
v -0.585798 3.098750 5.120352
v -1.448020 2.894488 5.512562
v -0.585798 2.894488 5.512562
v -0.572344 3.092200 5.132927
v -0.572344 2.901037 5.499987
v -1.461475 3.092200 5.132927
v -1.461475 2.901037 5.499987
v -0.580650 3.098251 5.121308
v -0.576285 3.096831 5.124035
v -0.576285 3.096831 5.124035
v -0.573368 3.094707 5.128115
v -1.460451 3.094707 5.128115
v -1.457534 3.096831 5.124035
v -1.457534 3.096831 5.124035
v -1.453169 3.098251 5.121308
v -0.573368 2.898530 5.504799
v -0.576285 2.896406 5.508879
v -0.576285 2.896406 5.508879
v -0.580650 2.894986 5.511605
v -1.453169 2.894986 5.511605
v -1.457534 2.896406 5.508879
v -1.457534 2.896406 5.508879
v -1.460451 2.898530 5.504799
v -1.460451 2.898530 5.504799
v -1.392704 2.908355 5.485934
v -1.457534 2.896406 5.508879
v -1.457534 2.896406 5.508879
v -1.392704 2.908355 5.485934
v -1.453169 2.894986 5.511605
v -1.453169 2.894986 5.511605
v -1.392704 2.908355 5.485934
v -1.448020 2.894488 5.512562
v -1.448020 2.894488 5.512562
v -1.392704 2.908355 5.485934
v -0.585798 2.894488 5.512562
v -0.641114 2.908355 5.485934
v -0.585798 2.894488 5.512562
v -0.641114 2.908355 5.485934
v -0.580650 2.894986 5.511605
v -0.580650 2.894986 5.511605
v -0.641114 2.908355 5.485934
v -0.576285 2.896406 5.508879
v -0.576285 2.896406 5.508879
v -0.641114 2.908355 5.485934
v -0.573368 2.898530 5.504799
v -0.573368 2.898530 5.504799
v -0.641114 2.908355 5.485934
v -0.572344 2.901037 5.499987
v -0.572344 2.901037 5.499987
v -0.641114 2.908355 5.485934
v -0.572344 3.092200 5.132927
v -0.641114 3.084882 5.146980
v -0.572344 3.092200 5.132927
v -0.641114 3.084882 5.146980
v -0.573368 3.094707 5.128115
v -0.573368 3.094707 5.128115
v -0.641114 3.084882 5.146980
v -0.576285 3.096831 5.124035
v -0.576285 3.096831 5.124035
v -0.641114 3.084882 5.146980
v -0.580650 3.098251 5.121308
v -0.580650 3.098251 5.121308
v -0.641114 3.084882 5.146980
v -0.585798 3.098750 5.120352
v -0.585798 3.098750 5.120352
v -0.641114 3.084882 5.146980
v -1.448020 3.098750 5.120352
v -1.392704 3.084882 5.146980
v -1.448020 3.098750 5.120352
v -1.392704 3.084882 5.146980
v -1.453169 3.098251 5.121308
v -1.453169 3.098251 5.121308
v -1.392704 3.084882 5.146980
v -1.457534 3.096831 5.124035
v -1.457534 3.096831 5.124035
v -1.392704 3.084882 5.146980
v -1.460451 3.094707 5.128115
v -1.460451 3.094707 5.128115
v -1.392704 3.084882 5.146980
v -1.461475 3.092200 5.132927
v -1.461475 3.092200 5.132927
v -1.392704 3.084882 5.146980
v -1.461475 2.901037 5.499987
v -1.392704 2.908355 5.485934
v -1.461475 2.901037 5.499987
v -1.392704 2.908355 5.485934
v -1.460451 2.898530 5.504799
v -0.572344 2.807421 5.090117
v -0.573368 2.806280 5.084813
v -0.573368 2.802140 5.091370
v -0.574332 2.801066 5.086372
v -0.576284 2.797709 5.092639
v -0.577078 2.796824 5.088518
v -0.576284 2.797709 5.092639
v -0.577078 2.796824 5.088518
v -0.580648 2.794801 5.093732
v -0.581188 2.794198 5.090922
v -0.585977 2.793605 5.093303
v -0.585977 2.793605 5.093303
v -0.585992 2.880245 5.497586
v -0.580648 2.794801 5.093732
v -0.580651 2.881162 5.496714
v -0.580651 2.881162 5.496714
v -0.576284 2.797709 5.092639
v -0.576285 2.884261 5.496506
v -0.576284 2.797709 5.092639
v -0.576285 2.884261 5.496506
v -0.573368 2.802140 5.091370
v -0.573368 2.888821 5.495829
v -0.572344 2.807421 5.090117
v -0.572344 2.894146 5.494784
v -0.585992 2.880245 5.497586
v -0.581196 2.881764 5.499521
v -0.577082 2.885146 5.500626
v -0.577082 2.885146 5.500626
v -0.574333 2.889895 5.500825
v -0.573368 2.895287 5.500089
v -0.583886 2.793599 5.088133
v -0.586615 2.793479 5.087573
v -0.586186 2.795516 5.082432
v -0.582185 2.795692 5.083251
v -0.586186 2.795516 5.082432
v -0.582185 2.795692 5.083251
v -0.585899 2.799363 5.078458
v -0.581049 2.799577 5.079452
v -0.585798 2.804436 5.076256
v -0.580650 2.804664 5.077312
v -1.448020 2.804436 5.076256
v -1.447919 2.799363 5.078458
v -1.447633 2.795516 5.082432
v -1.447633 2.795516 5.082432
v -1.447203 2.793479 5.087573
v -1.447841 2.793605 5.093303
v -1.448020 2.804436 5.076256
v -1.453169 2.804664 5.077312
v -1.447919 2.799363 5.078458
v -1.452770 2.799577 5.079452
v -1.447633 2.795516 5.082432
v -1.451633 2.795692 5.083251
v -1.451633 2.795692 5.083251
v -1.449932 2.793599 5.088133
v -0.585798 2.897131 5.508645
v -0.580650 2.896903 5.507590
v -0.585899 2.891598 5.508737
v -0.581050 2.891384 5.507743
v -0.586187 2.886452 5.506701
v -0.582189 2.886276 5.505883
v -0.586187 2.886452 5.506701
v -0.582189 2.886276 5.505883
v -0.586618 2.882479 5.502851
v -0.583894 2.882359 5.502294
v -1.447826 2.880245 5.497586
v -1.447201 2.882479 5.502851
v -1.447201 2.882479 5.502851
v -1.447631 2.886452 5.506701
v -1.447631 2.886452 5.506701
v -1.447919 2.891598 5.508737
v -1.448020 2.897131 5.508645
v -1.447826 2.880245 5.497586
v -1.449924 2.882359 5.502294
v -1.447201 2.882479 5.502851
v -1.447631 2.886452 5.506701
v -1.451629 2.886276 5.505883
v -1.447631 2.886452 5.506701
v -1.451629 2.886276 5.505883
v -1.447919 2.891598 5.508737
v -1.452769 2.891384 5.507743
v -1.448020 2.897131 5.508645
v -1.453169 2.896903 5.507590
v -1.452631 2.794198 5.090922
v -1.453170 2.794801 5.093732
v -1.453170 2.794801 5.093732
v -1.452631 2.794198 5.090922
v -1.457535 2.797709 5.092639
v -1.456741 2.796824 5.088518
v -1.457535 2.797709 5.092639
v -1.456741 2.796824 5.088518
v -1.460451 2.802140 5.091370
v -1.459486 2.801066 5.086372
v -1.461475 2.807421 5.090117
v -1.460451 2.806280 5.084813
v -1.461475 2.894146 5.494784
v -1.460450 2.888821 5.495829
v -1.457533 2.884261 5.496506
v -1.457533 2.884261 5.496506
v -1.453168 2.881162 5.496714
v -1.453168 2.881162 5.496714
v -1.461475 2.894146 5.494784
v -1.460451 2.895287 5.500089
v -1.460450 2.888821 5.495829
v -1.459485 2.889895 5.500825
v -1.457533 2.884261 5.496506
v -1.456736 2.885146 5.500626
v -1.457533 2.884261 5.496506
v -1.456736 2.885146 5.500626
v -1.452623 2.881764 5.499521
v -0.582267 2.793839 5.089251
v -0.579123 2.796145 5.085361
v -0.579123 2.796145 5.085361
v -0.577022 2.800173 5.082224
v -0.576285 2.805311 5.080316
v -0.579123 2.796145 5.085361
v -0.577022 2.800173 5.082224
v -0.576285 2.805311 5.080316
v -1.451551 2.793839 5.089251
v -1.451551 2.793839 5.089251
v -1.454696 2.796145 5.085361
v -1.454696 2.796145 5.085361
v -1.456797 2.800173 5.082224
v -1.457534 2.805311 5.080316
v -1.454696 2.796145 5.085361
v -1.454696 2.796145 5.085361
v -1.456797 2.800173 5.082224
v -1.457534 2.805311 5.080316
v -0.582278 2.882121 5.501184
v -0.579129 2.885823 5.503778
v -0.579129 2.885823 5.503778
v -0.577024 2.890788 5.504972
v -0.576285 2.896256 5.504585
v -0.579129 2.885823 5.503778
v -0.577024 2.890788 5.504972
v -0.576285 2.896256 5.504585
v -1.451540 2.882121 5.501184
v -1.454690 2.885823 5.503778
v -1.454690 2.885823 5.503778
v -1.456795 2.890788 5.504972
v -1.457534 2.896256 5.504585
v -1.454690 2.885823 5.503778
v -1.456795 2.890788 5.504972
v -1.457534 2.896256 5.504585
v -1.448020 2.810918 5.074853
v -0.585798 2.810918 5.074853
v -1.448020 2.903602 5.507243
v -0.585798 2.903602 5.507243
v -0.572344 2.813889 5.088717
v -0.572344 2.900630 5.493380
v -1.461475 2.813889 5.088717
v -1.461475 2.900630 5.493380
v -0.580650 2.811144 5.075908
v -0.576285 2.811788 5.078913
v -0.576285 2.811788 5.078913
v -0.573368 2.812752 5.083411
v -0.572344 2.813889 5.088717
v -1.460451 2.812752 5.083411
v -1.457534 2.811788 5.078913
v -1.457534 2.811788 5.078913
v -1.453169 2.811144 5.075908
v -1.448020 2.810918 5.074853
v -0.573368 2.901768 5.498685
v -0.576285 2.902732 5.503183
v -0.576285 2.902732 5.503183
v -0.580650 2.903376 5.506188
v -1.448020 2.903602 5.507243
v -1.453169 2.903376 5.506188
v -1.457534 2.902732 5.503183
v -1.457534 2.902732 5.503183
v -1.460451 2.901768 5.498685
v -1.461475 2.900630 5.493380
v -1.447841 2.793605 5.093303
v -0.585977 2.793605 5.093303
v -1.460451 2.901768 5.498685
v -1.392704 2.897310 5.477887
v -1.457534 2.902732 5.503183
v -1.457534 2.902732 5.503183
v -1.392704 2.897310 5.477887
v -1.453169 2.903376 5.506188
v -1.453169 2.903376 5.506188
v -1.392704 2.897310 5.477887
v -1.448020 2.903602 5.507243
v -1.448020 2.903602 5.507243
v -1.392704 2.897310 5.477887
v -0.585798 2.903602 5.507243
v -0.641114 2.897310 5.477887
v -0.585798 2.903602 5.507243
v -0.641114 2.897310 5.477887
v -0.580650 2.903376 5.506188
v -0.580650 2.903376 5.506188
v -0.641114 2.897310 5.477887
v -0.576285 2.902732 5.503183
v -0.576285 2.902732 5.503183
v -0.641114 2.897310 5.477887
v -0.573368 2.901768 5.498685
v -0.573368 2.901768 5.498685
v -0.641114 2.897310 5.477887
v -0.572344 2.900630 5.493380
v -0.572344 2.900630 5.493380
v -0.641114 2.897310 5.477887
v -0.572344 2.813889 5.088717
v -0.641114 2.817210 5.104209
v -0.572344 2.813889 5.088717
v -0.641114 2.817210 5.104209
v -0.573368 2.812752 5.083411
v -0.573368 2.812752 5.083411
v -0.641114 2.817210 5.104209
v -0.576285 2.811788 5.078913
v -0.576285 2.811788 5.078913
v -0.641114 2.817210 5.104209
v -0.580650 2.811144 5.075908
v -0.580650 2.811144 5.075908
v -0.641114 2.817210 5.104209
v -0.585798 2.810918 5.074853
v -0.585798 2.810918 5.074853
v -0.641114 2.817210 5.104209
v -1.448020 2.810918 5.074853
v -1.392704 2.817210 5.104209
v -1.448020 2.810918 5.074853
v -1.392704 2.817210 5.104209
v -1.453169 2.811144 5.075908
v -1.453169 2.811144 5.075908
v -1.392704 2.817210 5.104209
v -1.457534 2.811788 5.078913
v -1.457534 2.811788 5.078913
v -1.392704 2.817210 5.104209
v -1.460451 2.812752 5.083411
v -1.460451 2.812752 5.083411
v -1.392704 2.817210 5.104209
v -1.461475 2.813889 5.088717
v -1.461475 2.813889 5.088717
v -1.392704 2.817210 5.104209
v -1.461475 2.900630 5.493380
v -1.392704 2.897310 5.477887
v -1.461475 2.900630 5.493380
v -1.392704 2.897310 5.477887
v -1.460451 2.901768 5.498685
v -0.572344 0.986979 0.433363
v -0.573368 0.991893 0.431062
v -0.573368 0.984575 0.428498
v -0.574332 0.989204 0.426331
v -0.576284 0.982344 0.424464
v -0.577078 0.986162 0.422677
v -0.576284 0.982344 0.424464
v -0.577078 0.986162 0.422677
v -0.580648 0.980627 0.421874
v -0.581188 0.983230 0.420657
v -0.585977 0.980777 0.420613
v -0.585977 0.980777 0.420613
v -0.585992 0.606209 0.595683
v -0.580648 0.980627 0.421874
v -0.580651 0.607264 0.596382
v -0.580651 0.607264 0.596382
v -0.576284 0.982344 0.424464
v -0.576285 0.608161 0.599356
v -0.576284 0.982344 0.424464
v -0.576285 0.608161 0.599356
v -0.573368 0.984575 0.428498
v -0.573368 0.609844 0.603647
v -0.572344 0.986979 0.433363
v -0.572344 0.612056 0.608603
v -0.585992 0.606209 0.595683
v -0.581196 0.604663 0.597598
v -0.577082 0.604345 0.601141
v -0.577082 0.604345 0.601141
v -0.574333 0.605215 0.605814
v -0.573368 0.607142 0.610904
v -0.583886 0.985814 0.419448
v -0.586615 0.986333 0.419206
v -0.586186 0.991800 0.420038
v -0.582185 0.991040 0.420393
v -0.586186 0.991800 0.420038
v -0.582185 0.991040 0.420393
v -0.585899 0.996535 0.422896
v -0.581049 0.995615 0.423327
v -0.585798 0.999818 0.427347
v -0.580650 0.998841 0.427805
v -1.448020 0.999818 0.427347
v -1.447919 0.996535 0.422896
v -1.447633 0.991800 0.420038
v -1.447633 0.991800 0.420038
v -1.447203 0.986333 0.419206
v -1.447841 0.980777 0.420613
v -1.448020 0.999818 0.427347
v -1.453169 0.998841 0.427805
v -1.447919 0.996535 0.422896
v -1.452770 0.995615 0.423327
v -1.447633 0.991800 0.420038
v -1.451633 0.991040 0.420393
v -1.451633 0.991040 0.420393
v -1.449932 0.985814 0.419448
v -0.585798 0.599217 0.614619
v -0.580650 0.600194 0.614161
v -0.585899 0.597887 0.609248
v -0.581050 0.598807 0.608816
v -0.586187 0.598716 0.603776
v -0.582189 0.599475 0.603421
v -0.586187 0.598716 0.603776
v -0.582189 0.599475 0.603421
v -0.586618 0.601579 0.599041
v -0.583894 0.602095 0.598799
v -1.447826 0.606209 0.595683
v -1.447201 0.601579 0.599041
v -1.447201 0.601579 0.599041
v -1.447631 0.598716 0.603776
v -1.447631 0.598716 0.603776
v -1.447919 0.597887 0.609248
v -1.448020 0.599217 0.614619
v -1.447826 0.606209 0.595683
v -1.449924 0.602095 0.598799
v -1.447201 0.601579 0.599041
v -1.447631 0.598716 0.603776
v -1.451629 0.599475 0.603421
v -1.447631 0.598716 0.603776
v -1.451629 0.599475 0.603421
v -1.447919 0.597887 0.609248
v -1.452769 0.598807 0.608816
v -1.448020 0.599217 0.614619
v -1.453169 0.600194 0.614161
v -1.452631 0.983230 0.420657
v -1.453170 0.980627 0.421874
v -1.453170 0.980627 0.421874
v -1.452631 0.983230 0.420657
v -1.457535 0.982344 0.424464
v -1.456741 0.986162 0.422677
v -1.457535 0.982344 0.424464
v -1.456741 0.986162 0.422677
v -1.460451 0.984575 0.428498
v -1.459486 0.989204 0.426331
v -1.461475 0.986979 0.433363
v -1.460451 0.991893 0.431062
v -1.461475 0.612056 0.608603
v -1.460450 0.609844 0.603647
v -1.457533 0.608161 0.599356
v -1.457533 0.608161 0.599356
v -1.453168 0.607264 0.596382
v -1.453168 0.607264 0.596382
v -1.461475 0.612056 0.608603
v -1.460451 0.607142 0.610904
v -1.460450 0.609844 0.603647
v -1.459485 0.605215 0.605814
v -1.457533 0.608161 0.599356
v -1.456736 0.604345 0.601141
v -1.457533 0.608161 0.599356
v -1.456736 0.604345 0.601141
v -1.452623 0.604663 0.597598
v -0.582267 0.984778 0.419933
v -0.579123 0.989086 0.421308
v -0.579123 0.989086 0.421308
v -0.577022 0.993047 0.424530
v -0.576285 0.996058 0.429110
v -0.579123 0.989086 0.421308
v -0.577022 0.993047 0.424530
v -0.576285 0.996058 0.429110
v -1.451551 0.984778 0.419933
v -1.451551 0.984778 0.419933
v -1.454696 0.989086 0.421308
v -1.454696 0.989086 0.421308
v -1.456797 0.993047 0.424530
v -1.457534 0.996058 0.429110
v -1.454696 0.989086 0.421308
v -1.454696 0.989086 0.421308
v -1.456797 0.993047 0.424530
v -1.457534 0.996058 0.429110
v -0.582278 0.603123 0.598318
v -0.579129 0.601425 0.602508
v -0.579129 0.601425 0.602508
v -0.577024 0.601374 0.607614
v -0.576285 0.602977 0.612856
v -0.579129 0.601425 0.602508
v -0.577024 0.601374 0.607614
v -0.576285 0.602977 0.612856
v -1.451540 0.603123 0.598318
v -1.454690 0.601425 0.602508
v -1.454690 0.601425 0.602508
v -1.456795 0.601374 0.607614
v -1.457534 0.602977 0.612856
v -1.454690 0.601425 0.602508
v -1.456795 0.601374 0.607614
v -1.457534 0.602977 0.612856
v -1.448020 1.002639 0.433349
v -0.585798 1.002639 0.433349
v -1.448020 0.602034 0.620611
v -0.585798 0.602034 0.620611
v -0.572344 0.989794 0.439353
v -0.572344 0.614878 0.614607
v -1.461475 0.989794 0.439353
v -1.461475 0.614878 0.614607
v -0.580650 1.001661 0.433806
v -0.576285 0.998877 0.435107
v -0.576285 0.998877 0.435107
v -0.573368 0.994710 0.437055
v -0.572344 0.989794 0.439353
v -1.460451 0.994710 0.437055
v -1.457534 0.998877 0.435107
v -1.457534 0.998877 0.435107
v -1.453169 1.001661 0.433806
v -1.448020 1.002639 0.433349
v -0.573368 0.609963 0.616905
v -0.576285 0.605796 0.618853
v -0.576285 0.605796 0.618853
v -0.580650 0.603011 0.620154
v -1.448020 0.602034 0.620611
v -1.453169 0.603011 0.620154
v -1.457534 0.605796 0.618853
v -1.457534 0.605796 0.618853
v -1.460451 0.609963 0.616905
v -1.461475 0.614878 0.614607
v -1.447841 0.980777 0.420613
v -0.585977 0.980777 0.420613
v -1.460451 0.609963 0.616905
v -1.392704 0.629232 0.607898
v -1.457534 0.605796 0.618853
v -1.457534 0.605796 0.618853
v -1.392704 0.629232 0.607898
v -1.453169 0.603011 0.620154
v -1.453169 0.603011 0.620154
v -1.392704 0.629232 0.607898
v -1.448020 0.602034 0.620611
v -1.448020 0.602034 0.620611
v -1.392704 0.629232 0.607898
v -0.585798 0.602034 0.620611
v -0.641114 0.629232 0.607898
v -0.585798 0.602034 0.620611
v -0.641114 0.629232 0.607898
v -0.580650 0.603011 0.620154
v -0.580650 0.603011 0.620154
v -0.641114 0.629232 0.607898
v -0.576285 0.605796 0.618853
v -0.576285 0.605796 0.618853
v -0.641114 0.629232 0.607898
v -0.573368 0.609963 0.616905
v -0.573368 0.609963 0.616905
v -0.641114 0.629232 0.607898
v -0.572344 0.614878 0.614607
v -0.572344 0.614878 0.614607
v -0.641114 0.629232 0.607898
v -0.572344 0.989794 0.439353
v -0.641114 0.975441 0.446062
v -0.572344 0.989794 0.439353
v -0.641114 0.975441 0.446062
v -0.573368 0.994710 0.437055
v -0.573368 0.994710 0.437055
v -0.641114 0.975441 0.446062
v -0.576285 0.998877 0.435107
v -0.576285 0.998877 0.435107
v -0.641114 0.975441 0.446062
v -0.580650 1.001661 0.433806
v -0.580650 1.001661 0.433806
v -0.641114 0.975441 0.446062
v -0.585798 1.002639 0.433349
v -0.585798 1.002639 0.433349
v -0.641114 0.975441 0.446062
v -1.448020 1.002639 0.433349
v -1.392704 0.975441 0.446062
v -1.448020 1.002639 0.433349
v -1.392704 0.975441 0.446062
v -1.453169 1.001661 0.433806
v -1.453169 1.001661 0.433806
v -1.392704 0.975441 0.446062
v -1.457534 0.998877 0.435107
v -1.457534 0.998877 0.435107
v -1.392704 0.975441 0.446062
v -1.460451 0.994710 0.437055
v -1.460451 0.994710 0.437055
v -1.392704 0.975441 0.446062
v -1.461475 0.989794 0.439353
v -1.461475 0.989794 0.439353
v -1.392704 0.975441 0.446062
v -1.461475 0.614878 0.614607
v -1.392704 0.629232 0.607898
v -1.461475 0.614878 0.614607
v -1.392704 0.629232 0.607898
v -1.460451 0.609963 0.616905
vn -0.0000 0.8870 0.4618
vn -0.0000 0.8869 0.4619
vn 0.0001 0.8869 0.4619
vn -0.0001 0.8869 0.4619
vn -0.0000 0.8868 0.4621
vn -0.0000 0.8869 0.4620
vn -0.0000 0.8869 0.4621
vn -0.0000 0.8866 0.4625
vn -0.0000 0.9778 -0.2096
vn -0.0000 0.9778 -0.2095
vn -0.0000 0.9778 -0.2097
vn -0.0000 0.9779 -0.2093
vn -0.0000 0.4235 0.9059
vn -0.0000 0.4234 0.9059
vn -0.0000 0.4231 0.9061
vn -0.0000 0.4232 0.9060
vn 0.6777 -0.0185 -0.7351
vn 0.7015 -0.4628 -0.5420
vn 0.5431 -0.3501 -0.7632
vn 0.8720 -0.1564 -0.4638
vn 0.7313 -0.6051 -0.3147
vn 0.9329 -0.3184 -0.1681
vn 0.7317 -0.6056 -0.3128
vn 0.9327 -0.3210 -0.1645
vn 0.7012 -0.7097 -0.0685
vn 0.8722 -0.4688 0.1396
vn 0.5434 -0.8256 0.1519
vn 0.6783 -0.6119 0.4068
vn 0.9279 -0.2417 0.2838
vn 0.7231 -0.3917 0.5690
vn 0.7258 -0.3158 0.6111
vn 0.9309 -0.1673 0.3247
vn 0.9965 -0.0753 -0.0352
vn 1.0000 -0.0003 0.0020
vn 1.0000 0.0007 -0.0018
vn 0.9966 -0.0723 -0.0407
vn 0.9276 0.0923 -0.3620
vn 0.9310 0.1672 -0.3246
vn 0.7232 0.2386 -0.6481
vn 0.7258 0.3159 -0.6111
vn -0.6775 -0.0184 -0.7353
vn -0.2879 -0.2849 -0.9143
vn -0.5432 -0.3501 -0.7631
vn -0.3685 0.0713 -0.9269
vn -0.0000 -0.2937 -0.9559
vn -0.0001 0.0915 -0.9958
vn -0.0000 0.0916 -0.9958
vn 0.2881 -0.2849 -0.9142
vn 0.3685 0.0713 -0.9269
vn 0.5431 -0.3500 -0.7633
vn 0.6774 -0.0184 -0.7354
vn 0.3980 0.3425 -0.8511
vn 0.7230 0.2387 -0.6483
vn 0.7257 0.3159 -0.6112
vn 0.3994 0.4213 -0.8142
vn 0.0001 0.3794 -0.9252
vn 0.0001 0.4588 -0.8885
vn -0.0001 0.4600 -0.8879
vn -0.0002 0.3794 -0.9252
vn -0.3980 0.3425 -0.8511
vn -0.3994 0.4213 -0.8143
vn -0.7230 0.2387 -0.6483
vn -0.7257 0.3159 -0.6112
vn 0.6781 -0.6120 0.4070
vn 0.2882 -0.9120 0.2918
vn 0.5434 -0.8256 0.1520
vn 0.3688 -0.7169 0.5917
vn -0.0000 -0.9511 0.3090
vn -0.0000 -0.7624 0.6471
vn 0.0001 -0.7624 0.6472
vn -0.2882 -0.9120 0.2919
vn -0.3688 -0.7168 0.5918
vn -0.5433 -0.8257 0.1521
vn -0.6782 -0.6119 0.4069
vn -0.3977 -0.4972 0.7711
vn -0.7228 -0.3918 0.5693
vn -0.7256 -0.3160 0.6113
vn -0.3993 -0.4214 0.8142
vn -0.0001 -0.5362 0.8441
vn -0.0000 -0.4588 0.8885
vn 0.0001 -0.4600 0.8879
vn 0.0001 -0.5362 0.8441
vn 0.3977 -0.4972 0.7711
vn 0.3991 -0.4216 0.8142
vn 0.7228 -0.3918 0.5692
vn 0.7256 -0.3159 0.6113
vn -0.6784 -0.6119 0.4067
vn -0.7011 -0.7097 -0.0684
vn -0.5433 -0.8257 0.1519
vn -0.8722 -0.4687 0.1396
vn -0.7317 -0.6057 -0.3128
vn -0.9327 -0.3210 -0.1645
vn -0.7313 -0.6051 -0.3147
vn -0.9329 -0.3185 -0.1681
vn -0.7015 -0.4627 -0.5421
vn -0.8721 -0.1564 -0.4637
vn -0.5431 -0.3501 -0.7632
vn -0.6776 -0.0185 -0.7352
vn -0.9276 0.0923 -0.3620
vn -0.7232 0.2387 -0.6481
vn -0.7258 0.3158 -0.6111
vn -0.9309 0.1672 -0.3246
vn -0.9966 -0.0723 -0.0407
vn -1.0000 0.0004 -0.0020
vn -1.0000 -0.0007 0.0018
vn -0.9965 -0.0752 -0.0352
vn -0.9279 -0.2417 0.2838
vn -0.9310 -0.1672 0.3246
vn -0.7231 -0.3917 0.5690
vn -0.7258 -0.3158 0.6111
vn -0.0000 0.8867 0.4623
vn 0.3918 -0.8998 0.1922
vn 0.7013 -0.7022 -0.1225
vn 0.7312 -0.6669 0.1434
vn 0.4587 -0.8884 0.0187
vn 0.5430 -0.7564 -0.3647
vn 0.3548 -0.9239 -0.1436
vn 0.2879 -0.8026 -0.5224
vn 0.1802 -0.9530 -0.2437
vn -0.0000 -0.8358 -0.5490
vn 0.0001 -0.9851 -0.1721
vn -0.0000 -0.9851 -0.1721
vn -0.2879 -0.8026 -0.5224
vn -0.1802 -0.9530 -0.2437
vn -0.5430 -0.7564 -0.3646
vn -0.3547 -0.9239 -0.1435
vn -0.0001 -0.9783 0.2074
vn -0.4586 -0.8884 0.0188
vn -0.3917 -0.8998 0.1921
vn -0.3920 -0.8993 0.1940
vn -0.0002 -0.9770 0.2130
vn -0.4583 -0.8169 0.3501
vn -0.7010 -0.5906 0.3997
vn -0.7314 -0.6663 0.1452
vn -0.5431 -0.5394 0.6434
vn -0.3549 -0.7840 0.5093
vn -0.2881 -0.5167 0.8062
vn -0.1803 -0.7690 0.6133
vn -0.0000 -0.5359 0.8443
vn -0.0000 -0.8277 0.5611
vn -0.0000 -0.9783 0.2074
vn 0.3917 -0.8998 0.1922
vn 0.0001 -0.9771 0.2130
vn 0.0001 -0.9782 0.2075
vn 0.3919 -0.8993 0.1940
vn 0.7312 -0.6670 0.1434
vn 0.3921 -0.8992 0.1940
vn 0.3919 -0.8997 0.1921
vn 0.7314 -0.6663 0.1451
vn 0.9329 -0.3525 0.0735
vn 0.7317 -0.6660 0.1451
vn 0.7314 -0.6668 0.1433
vn 0.9327 -0.3522 0.0779
vn 0.7012 -0.5905 0.3997
vn 0.8722 -0.2722 0.4064
vn 0.5434 -0.5393 0.6434
vn 0.6783 -0.2121 0.7035
vn 0.9279 -0.0053 0.3728
vn 0.7231 0.0610 0.6880
vn 0.7258 0.1463 0.6722
vn 0.9309 0.0781 0.3567
vn 0.9965 -0.0805 0.0208
vn 1.0000 0.0010 0.0018
vn 1.0000 -0.0010 -0.0017
vn 0.9965 -0.0817 0.0148
vn -0.0000 -0.5644 -0.8255
vn -0.0000 -0.8357 -0.5492
vn -0.0000 -0.5643 -0.8256
vn 0.2880 -0.8024 -0.5227
vn 0.3685 -0.5360 -0.7596
vn 0.5431 -0.7563 -0.3649
vn 0.6776 -0.4829 -0.5547
vn 0.3980 -0.2787 -0.8740
vn 0.7231 -0.2294 -0.6515
vn 0.7257 -0.1464 -0.6723
vn 0.3991 -0.1944 -0.8961
vn 0.0001 -0.2976 -0.9547
vn 0.0001 -0.2111 -0.9775
vn -0.0000 -0.2113 -0.9774
vn -0.0000 -0.2976 -0.9547
vn -0.0000 -0.9770 0.2130
vn -0.0000 -0.8277 0.5612
vn -0.0000 -0.8278 0.5610
vn 0.0001 -0.9770 0.2131
vn 0.1802 -0.7691 0.6133
vn 0.2882 -0.5167 0.8062
vn -0.0000 -0.5360 0.8442
vn 0.5432 -0.5394 0.6435
vn 0.3549 -0.7840 0.5092
vn 0.7009 -0.5906 0.3998
vn 0.4584 -0.8169 0.3501
vn 0.7314 -0.6663 0.1453
vn 0.3920 -0.8993 0.1940
vn -0.0002 -0.1747 0.9846
vn -0.2881 -0.5166 0.8063
vn -0.0000 -0.5358 0.8443
vn -0.3688 -0.1751 0.9129
vn -0.5430 -0.5393 0.6437
vn -0.6782 -0.2121 0.7036
vn -0.3976 0.1085 0.9111
vn -0.7228 0.0610 0.6883
vn -0.7255 0.1464 0.6724
vn -0.3992 0.1944 0.8960
vn -0.0002 0.1250 0.9922
vn -0.0001 0.2130 0.9771
vn -0.9327 -0.3521 0.0778
vn -0.7313 -0.6668 0.1433
vn -0.7317 -0.6660 0.1450
vn -0.9329 -0.3526 0.0735
vn -0.7015 -0.7020 -0.1227
vn -0.8721 -0.4161 -0.2576
vn -0.5431 -0.7563 -0.3648
vn -0.6777 -0.4829 -0.5546
vn -0.9276 -0.1597 -0.3377
vn -0.7232 -0.2294 -0.6515
vn -0.7258 -0.1463 -0.6721
vn -0.9309 -0.0781 -0.3568
vn -0.9965 -0.0817 0.0147
vn -1.0000 -0.0010 -0.0017
vn -1.0000 0.0010 0.0017
vn -0.9965 -0.0804 0.0208
vn -0.7314 -0.6663 0.1451
vn -0.3919 -0.8997 0.1921
vn -0.3921 -0.8993 0.1939
vn -0.7312 -0.6670 0.1434
vn -0.4587 -0.8884 0.0188
vn -0.7013 -0.7022 -0.1225
vn -0.3549 -0.9238 -0.1435
vn -0.5430 -0.7564 -0.3647
vn 0.6776 -0.4829 -0.5546
vn 0.7015 -0.7021 -0.1226
vn 0.5431 -0.7563 -0.3648
vn 0.8721 -0.4161 -0.2576
vn 0.7313 -0.6668 0.1432
vn 0.9329 -0.3526 0.0734
vn 0.9276 -0.1597 -0.3377
vn 0.9966 -0.0817 0.0146
vn 1.0000 -0.0010 -0.0018
vn 0.9310 -0.0782 -0.3566
vn 0.7232 -0.2294 -0.6514
vn 0.7258 -0.1463 -0.6722
vn -0.6776 -0.4829 -0.5547
vn -0.2880 -0.8024 -0.5228
vn -0.3685 -0.5360 -0.7596
vn -0.0000 -0.8356 -0.5493
vn -0.0002 -0.5643 -0.8256
vn -0.3979 -0.2787 -0.8741
vn -0.0001 -0.2112 -0.9775
vn -0.3994 -0.1945 -0.8959
vn -0.7230 -0.2294 -0.6516
vn -0.7257 -0.1463 -0.6722
vn 0.6782 -0.2121 0.7036
vn 0.2881 -0.5166 0.8063
vn 0.5431 -0.5392 0.6436
vn 0.3688 -0.1751 0.9129
vn -0.0000 -0.1748 0.9846
vn -0.0000 -0.1746 0.9846
vn 0.0001 0.1250 0.9922
vn -0.0000 0.1250 0.9922
vn 0.0002 0.2117 0.9773
vn -0.0000 0.2128 0.9771
vn 0.3977 0.1085 0.9111
vn 0.3993 0.1944 0.8960
vn 0.7228 0.0610 0.6883
vn 0.7255 0.1464 0.6725
vn -0.6783 -0.2121 0.7035
vn -0.7011 -0.5905 0.3997
vn -0.5435 -0.5392 0.6433
vn -0.8722 -0.2722 0.4064
vn -0.7317 -0.6660 0.1452
vn -0.9327 -0.3522 0.0780
vn -0.9279 -0.0053 0.3727
vn -0.9965 -0.0805 0.0209
vn -1.0000 0.0010 0.0018
vn -0.9309 0.0781 0.3568
vn -0.7231 0.0610 0.6881
vn -0.7258 0.1463 0.6722
vn -0.0000 -0.9782 0.2076
vn -0.0000 0.9779 -0.2092
vn 0.3918 -0.3890 -0.8338
vn 0.7014 -0.0381 -0.7118
vn 0.7312 -0.2892 -0.6179
vn 0.4587 -0.2174 -0.8616
vn 0.5430 0.1858 -0.8189
vn 0.3548 -0.0672 -0.9325
vn 0.2879 0.3292 -0.8993
vn 0.1802 0.0238 -0.9833
vn -0.0000 0.3477 -0.9376
vn -0.0000 -0.0532 -0.9986
vn -0.2879 0.3292 -0.8993
vn -0.1802 0.0238 -0.9833
vn -0.5430 0.1858 -0.8189
vn -0.3547 -0.0672 -0.9326
vn -0.0001 -0.4214 -0.9069
vn -0.4587 -0.2175 -0.8616
vn -0.3917 -0.3890 -0.8338
vn -0.3920 -0.3906 -0.8329
vn -0.0001 -0.4267 -0.9044
vn -0.4583 -0.5243 -0.7177
vn -0.7010 -0.5220 -0.4860
vn -0.7315 -0.2908 -0.6167
vn -0.5432 -0.7480 -0.3815
vn -0.3549 -0.6722 -0.6498
vn -0.2881 -0.9015 -0.3229
vn -0.1802 -0.7701 -0.6119
vn -0.0000 -0.9429 -0.3331
vn -0.0000 -0.7324 -0.6809
vn -0.0000 -0.4214 -0.9069
vn 0.3917 -0.3890 -0.8338
vn 0.0001 -0.4266 -0.9044
vn 0.0002 -0.4215 -0.9068
vn 0.3919 -0.3907 -0.8330
vn 0.7312 -0.2892 -0.6178
vn 0.3921 -0.3906 -0.8329
vn 0.3919 -0.3889 -0.8337
vn 0.7315 -0.2908 -0.6168
vn 0.9329 -0.1507 -0.3271
vn 0.7317 -0.2908 -0.6165
vn 0.7314 -0.2892 -0.6176
vn 0.9327 -0.1549 -0.3258
vn 0.7011 -0.5219 -0.4858
vn 0.8722 -0.4571 -0.1741
vn 0.5433 -0.7479 -0.3813
vn 0.6783 -0.7331 -0.0490
vn 0.9279 -0.3645 0.0784
vn 0.7230 -0.6569 0.2137
vn 0.7258 -0.6223 0.2932
vn 0.9309 -0.3301 0.1561
vn 0.9965 -0.0383 -0.0737
vn 1.0000 -0.0015 0.0013
vn 1.0000 0.0014 -0.0013
vn 0.9965 -0.0327 -0.0763
vn -0.0000 0.6781 -0.7350
vn -0.0000 0.3479 -0.9375
vn 0.2880 0.3295 -0.8992
vn 0.3685 0.6200 -0.6927
vn 0.5430 0.1861 -0.8189
vn 0.6775 0.4324 -0.5951
vn 0.3980 0.7893 -0.4676
vn 0.7230 0.5836 -0.3697
vn 0.7256 0.6225 -0.2934
vn 0.3993 0.8295 -0.3904
vn 0.0001 0.8637 -0.5040
vn 0.0001 0.9052 -0.4249
vn -0.0000 0.9051 -0.4251
vn -0.0000 0.8637 -0.5040
vn -0.0000 -0.4266 -0.9044
vn -0.0000 -0.7323 -0.6810
vn 0.0001 -0.4267 -0.9044
vn 0.1802 -0.7701 -0.6119
vn 0.2881 -0.9015 -0.3229
vn -0.0000 -0.7325 -0.6808
vn 0.5431 -0.7480 -0.3814
vn 0.3548 -0.6721 -0.6499
vn 0.7010 -0.5220 -0.4860
vn 0.4583 -0.5243 -0.7177
vn 0.7315 -0.2909 -0.6167
vn 0.3920 -0.3906 -0.8329
vn -0.0001 -0.9987 0.0504
vn -0.2882 -0.9016 -0.3226
vn -0.0001 -0.9430 -0.3328
vn -0.3688 -0.9289 0.0341
vn -0.5431 -0.7481 -0.3812
vn -0.6782 -0.7333 -0.0489
vn -0.3977 -0.8636 0.3100
vn -0.7229 -0.6571 0.2138
vn -0.7256 -0.6224 0.2933
vn -0.3995 -0.8294 0.3904
vn -0.0002 -0.9389 0.3442
vn -0.0001 -0.9044 0.4266
vn -0.9327 -0.1548 -0.3259
vn -0.7313 -0.2892 -0.6177
vn -0.7317 -0.2907 -0.6166
vn -0.9329 -0.1507 -0.3271
vn -0.7015 -0.0380 -0.7116
vn -0.8721 0.1577 -0.4633
vn -0.5432 0.1858 -0.8188
vn -0.6776 0.4322 -0.5950
vn -0.9276 0.2933 -0.2314
vn -0.7232 0.5834 -0.3696
vn -0.7258 0.6223 -0.2933
vn -0.9309 0.3302 -0.1561
vn -0.9965 -0.0326 -0.0763
vn -1.0000 0.0015 -0.0014
vn -1.0000 -0.0014 0.0014
vn -0.9965 -0.0383 -0.0737
vn -0.7315 -0.2908 -0.6168
vn -0.3919 -0.3889 -0.8338
vn -0.3921 -0.3906 -0.8329
vn -0.7312 -0.2892 -0.6178
vn -0.4588 -0.2174 -0.8615
vn -0.7013 -0.0381 -0.7118
vn -0.3550 -0.0672 -0.9325
vn 0.6776 0.4322 -0.5950
vn 0.7015 -0.0380 -0.7117
vn 0.5432 0.1859 -0.8188
vn 0.8721 0.1577 -0.4633
vn 0.7314 -0.2891 -0.6177
vn 0.9329 -0.1505 -0.3271
vn 0.9276 0.2933 -0.2314
vn 0.9966 -0.0326 -0.0763
vn 1.0000 0.0016 -0.0014
vn 0.9309 0.3301 -0.1561
vn 0.7232 0.5835 -0.3696
vn 0.7258 0.6222 -0.2933
vn -0.6775 0.4324 -0.5951
vn -0.2880 0.3295 -0.8992
vn -0.5430 0.1860 -0.8189
vn -0.3685 0.6200 -0.6927
vn -0.0001 0.3479 -0.9375
vn -0.0002 0.6780 -0.7350
vn -0.3980 0.7893 -0.4676
vn -0.0001 0.8637 -0.5041
vn -0.0002 0.9052 -0.4249
vn -0.3994 0.8295 -0.3904
vn -0.7230 0.5836 -0.3697
vn -0.7256 0.6225 -0.2934
vn 0.6781 -0.7333 -0.0489
vn 0.2882 -0.9016 -0.3226
vn 0.5432 -0.7481 -0.3812
vn 0.3688 -0.9289 0.0341
vn 0.0001 -0.9430 -0.3328
vn -0.0000 -0.9987 0.0504
vn -0.0000 -0.9430 -0.3328
vn -0.0000 -0.9987 0.0506
vn 0.0001 -0.9389 0.3442
vn -0.0000 -0.9389 0.3443
vn 0.0001 -0.9050 0.4254
vn -0.0000 -0.9044 0.4267
vn 0.3977 -0.8636 0.3100
vn 0.3994 -0.8295 0.3904
vn 0.7228 -0.6571 0.2138
vn 0.7256 -0.6224 0.2934
vn -0.6783 -0.7331 -0.0490
vn -0.7011 -0.5219 -0.4858
vn -0.5434 -0.7479 -0.3813
vn -0.8722 -0.4571 -0.1741
vn -0.7316 -0.2908 -0.6165
vn -0.9327 -0.1550 -0.3257
vn -0.9279 -0.3645 0.0784
vn -0.9965 -0.0385 -0.0737
vn -1.0000 -0.0016 0.0014
vn -0.9310 -0.3301 0.1561
vn -0.7231 -0.6569 0.2137
vn -0.7258 -0.6223 0.2933
vn -0.0000 -0.4215 -0.9068
vn -0.0000 0.4232 0.9061
vn -0.0000 0.4229 0.9062
vn 0.3918 -0.8157 -0.4257
vn 0.7013 -0.4629 -0.5421
vn 0.7312 -0.6051 -0.3148
vn 0.4587 -0.6963 -0.5520
vn 0.5430 -0.3503 -0.7632
vn 0.3549 -0.6202 -0.6995
vn 0.2879 -0.2853 -0.9142
vn 0.1802 -0.5788 -0.7953
vn -0.0000 -0.2939 -0.9558
vn -0.0000 -0.6492 -0.7606
vn -0.0001 -0.2939 -0.9559
vn 0.0001 -0.6493 -0.7606
vn -0.2880 -0.2852 -0.9142
vn -0.1802 -0.5789 -0.7953
vn -0.5431 -0.3502 -0.7632
vn -0.3547 -0.6202 -0.6996
vn -0.7014 -0.4628 -0.5420
vn -0.4586 -0.6964 -0.5520
vn -0.7312 -0.6052 -0.3148
vn -0.3918 -0.8157 -0.4256
vn -0.7314 -0.6059 -0.3130
vn -0.3920 -0.8165 -0.4239
vn -0.7009 -0.7099 -0.0687
vn -0.4583 -0.8526 -0.2511
vn -0.5431 -0.8258 0.1518
vn -0.3549 -0.9287 -0.1074
vn -0.2881 -0.9121 0.2916
vn -0.1802 -0.9835 -0.0178
vn -0.0000 -0.9512 0.3087
vn -0.0000 -0.9954 -0.0955
vn 0.2881 -0.9121 0.2915
vn 0.1802 -0.9835 -0.0178
vn 0.5432 -0.8258 0.1518
vn 0.3549 -0.9287 -0.1074
vn 0.7010 -0.7099 -0.0685
vn 0.4583 -0.8526 -0.2511
vn 0.7315 -0.6058 -0.3129
vn 0.3920 -0.8164 -0.4239
vn 0.0001 -0.8886 -0.4587
vn 0.0001 -0.8859 -0.4639
vn -0.0001 -0.8859 -0.4639
vn -0.0001 -0.8886 -0.4588
vt 0.006252 0.958862
vt 0.032776 0.923096
vt 0.010971 0.962006
vt 0.003099 0.954132
vt 0.001991 0.948578
vt 0.003099 0.010742
vt 0.032776 0.041992
vt 0.001991 0.016602
vt 0.006252 0.006348
vt 0.010971 0.002930
vt 0.016541 0.001953
vt 0.446777 0.002930
vt 0.424805 0.041992
vt 0.441162 0.001953
vt 0.451416 0.006348
vt 0.454590 0.010742
vt 0.455566 0.016602
vt 0.454590 0.954132
vt 0.424805 0.923096
vt 0.455566 0.948578
vt 0.451416 0.958862
vt 0.446777 0.962006
vt 0.441162 0.963104
vt 0.016541 0.963104
vt -0.000236 1.366455
vt 0.048859 1.300293
vt 0.008492 1.372070
vt -0.006069 1.357666
vt -0.008118 1.347412
vt -0.006069 -0.386719
vt 0.048859 -0.329102
vt -0.008118 -0.376953
vt -0.000236 -0.395508
vt 0.008492 -0.401367
vt 0.018784 -0.403320
vt 0.814453 -0.401367
vt 0.773926 -0.329102
vt 0.804199 -0.403320
vt 0.823242 -0.395508
vt 0.829102 -0.386719
vt 0.831055 -0.376953
vt 1.874023 -0.357422
vt 2.054688 -0.310547
vt 1.871094 -0.357422
vt 1.876953 -0.359375
vt 1.878906 -0.362305
vt 1.879883 -0.366211
vt 0.018784 1.374268
vt 0.970703 0.449219
vt 0.975098 0.443359
vt 0.975098 0.446777
vt 0.970703 0.444824
vt 0.975098 0.438965
vt 0.970703 0.439453
vt 0.975098 0.015625
vt 0.970215 0.015137
vt 0.975098 0.011230
vt 0.970215 0.009766
vt 0.975098 0.007812
vt 0.970215 0.005371
vt 0.964844 0.009277
vt 0.964844 0.004883
vt 0.958008 0.004883
vt 0.958008 0.009277
vt 0.964844 0.015137
vt 0.958008 0.015137
vt 0.958008 0.439453
vt 0.964844 0.439453
vt 0.964844 0.445312
vt 0.958008 0.445312
vt 0.964844 0.449707
vt 0.958008 0.449707
vt 0.924805 0.955414
vt 0.929688 0.949829
vt 0.929688 0.953156
vt 0.924805 0.951080
vt 0.929688 0.945526
vt 0.924805 0.945831
vt 0.929688 0.014160
vt 0.924805 0.014160
vt 0.929688 0.009766
vt 0.924805 0.008789
vt 0.929688 0.006836
vt 0.924805 0.004395
vt 0.919434 0.008301
vt 0.919434 0.003418
vt 0.912598 0.003418
vt 0.912598 0.008301
vt 0.919434 0.013672
vt 0.912598 0.013672
vt 0.912598 0.945923
vt 0.919434 0.945923
vt 0.919434 0.951508
vt 0.912598 0.951508
vt 0.919434 0.956207
vt 0.912598 0.956207
vt 0.939941 0.003906
vt 0.935059 0.009277
vt 0.935059 0.005859
vt 0.939941 0.007812
vt 0.935059 0.013672
vt 0.939941 0.013184
vt 0.935059 0.944855
vt 0.939941 0.945190
vt 0.935059 0.949188
vt 0.939941 0.950409
vt 0.935059 0.952484
vt 0.939941 0.954773
vt 0.945312 0.950867
vt 0.945312 0.955566
vt 0.952148 0.955566
vt 0.952148 0.950867
vt 0.945312 0.945282
vt 0.952148 0.945282
vt 0.952148 0.013184
vt 0.945312 0.013184
vt 0.945312 0.007812
vt 0.952148 0.007812
vt 0.945312 0.002930
vt 0.952148 0.002930
vt 0.993164 0.447266
vt 0.997559 0.441406
vt 0.997559 0.444824
vt 0.993164 0.442871
vt 0.997559 0.437012
vt 0.993164 0.437500
vt 0.998047 0.013672
vt 0.993164 0.013184
vt 0.998047 0.009277
vt 0.993164 0.007812
vt 0.998047 0.005859
vt 0.993164 0.003418
vt 0.987793 0.007324
vt 0.987793 0.002930
vt 0.980957 0.002930
vt 0.980957 0.007324
vt 0.987793 0.013184
vt 0.980957 0.013184
vt 0.980469 0.437500
vt 0.987305 0.437500
vt 0.987305 0.442871
vt 0.980469 0.442871
vt 0.987305 0.447754
vt 0.980469 0.447754
vt 0.863281 -0.393555
vt 0.854492 -0.400391
vt 0.862793 -0.402344
vt 0.857910 -0.392578
vt 0.848633 -0.396484
vt 0.854980 -0.389648
vt 0.844238 -0.390625
vt 0.852539 -0.386719
vt 0.842773 -0.381836
vt 0.851562 -0.381836
vt 0.842773 1.340088
vt 0.851562 1.339355
vt 0.844238 1.348145
vt 0.852539 1.344727
vt 0.848633 1.354248
vt 0.854980 1.347900
vt 0.862305 1.340576
vt 0.857910 1.350098
vt 0.863281 1.351318
vt 1.645508 1.351318
vt 1.646484 1.340576
vt 1.651367 1.350098
vt 1.654297 1.358398
vt 1.646484 1.359863
vt 1.660156 1.354248
vt 1.654297 1.347900
vt 1.664062 1.348145
vt 1.656250 1.344727
vt 1.666016 1.340088
vt 1.657227 1.339355
vt 0.862305 -0.382812
vt 1.122070 -0.906250
vt 1.097656 -0.339844
vt 1.097656 -0.714844
vt 1.091797 -0.340820
vt 1.087891 -0.339844
vt 0.916504 0.402344
vt 0.908203 -0.381836
vt 0.907715 0.401855
vt 0.916992 -0.382812
vt 0.908203 -0.389648
vt 0.916992 -0.392578
vt 0.908203 -0.396484
vt 0.916992 -0.400391
vt 0.927246 -0.392578
vt 0.927246 -0.401367
vt 0.939941 -0.401367
vt 0.939941 -0.392578
vt 0.927246 -0.382812
vt 0.939941 -0.382812
vt 0.939453 0.402832
vt 0.926758 0.402832
vt 1.934570 -0.293945
vt 1.112305 -0.289062
vt 1.934570 -0.289062
vt 1.112305 -0.293945
vt 1.108398 -0.289062
vt 1.107422 -0.293945
vt 1.105469 -0.289062
vt 1.103516 -0.293945
vt 1.107422 -0.298828
vt 1.103516 -0.298828
vt 1.103516 -0.304688
vt 1.107422 -0.304688
vt 1.112305 -0.298828
vt 1.112305 -0.304688
vt 1.935547 -0.304688
vt 1.935547 -0.298828
vt 1.991211 -0.346680
vt 1.097656 -0.334961
vt 1.991211 -0.351562
vt 1.094727 -0.334961
vt 1.093750 -0.331055
vt 1.097656 -0.331055
vt 1.991211 -0.355469
vt 1.090820 -0.333008
vt 1.093750 -0.335938
vt 1.088867 -0.335938
vt 1.092773 -0.337891
vt 1.732422 1.341309
vt 1.724609 1.348633
vt 1.724609 1.340576
vt 1.732422 1.350830
vt 1.724609 1.354736
vt 1.732422 1.358887
vt 1.743164 1.351807
vt 1.743164 1.360352
vt 1.755859 1.360352
vt 1.755859 1.351807
vt 1.743164 1.341309
vt 1.755859 1.341309
vt 0.871582 0.398438
vt 0.862305 -0.385742
vt 0.862793 0.397949
vt 0.871094 -0.385742
vt 0.862305 -0.393555
vt 0.871094 -0.395508
vt 0.862305 -0.399414
vt 0.871094 -0.404297
vt 0.881348 -0.396484
vt 0.881348 -0.405273
vt 0.894043 -0.405273
vt 0.894043 -0.396484
vt 0.881348 -0.386719
vt 0.894043 -0.386719
vt 0.894043 0.398926
vt 0.881836 0.398926
vt 2.048828 -0.043945
vt 2.052734 -0.299805
vt 2.052734 -0.043945
vt 2.048828 -0.299805
vt 2.052734 -0.301758
vt 2.050781 -0.302734
vt 2.052734 -0.302734
vt 2.050781 -0.304688
vt 1.792969 0.419922
vt 1.801758 0.409668
vt 1.801758 0.416016
vt 1.792969 0.412109
vt 1.801758 0.401855
vt 1.792969 0.402344
vt 1.783203 0.413086
vt 1.783203 0.402832
vt 1.770508 0.402832
vt 1.770508 0.413086
vt 1.783203 0.421387
vt 1.770508 0.421875
vt 1.701172 1.356934
vt 1.709961 1.346680
vt 1.709961 1.352783
vt 1.701172 1.348877
vt 1.709961 1.338623
vt 1.701172 1.339355
vt 1.691406 1.349854
vt 1.691406 1.339355
vt 1.678711 1.339355
vt 1.678711 1.349854
vt 1.691406 1.358398
vt 1.678711 1.358398
vt 0.976562 -0.400391
vt 0.985352 -0.389648
vt 0.985352 -0.395508
vt 0.976562 -0.391602
vt 0.985352 -0.381836
vt 0.976562 -0.382812
vt 0.985352 1.340576
vt 0.976562 1.341309
vt 0.966309 -0.382812
vt 0.966309 1.341309
vt 0.953613 -0.382812
vt 0.953613 1.341309
vt 0.966309 -0.392578
vt 0.953613 -0.392578
vt 0.966309 -0.401367
vt 0.953613 -0.401367
vt 1.837891 0.416504
vt 1.846680 0.406250
vt 1.846680 0.412109
vt 1.837891 0.408203
vt 1.846680 0.397949
vt 1.837891 0.398438
vt 1.828125 0.409180
vt 1.828125 0.398926
vt 1.815430 0.398926
vt 1.815430 0.409180
vt 1.828125 0.417969
vt 1.815430 0.417969
vt 1.919922 -0.713867
vt 0.831055 1.347412
vt 0.773926 1.300293
vt 2.031250 -0.064453
vt 2.054688 -0.074219
vt 0.472412 0.007812
vt 0.467773 0.003906
vt 0.472168 0.002930
vt 0.469482 0.008301
vt 0.464355 0.006348
vt 0.467773 0.009766
vt 0.462158 0.009277
vt 0.466553 0.011230
vt 0.461426 0.013672
vt 0.466064 0.014160
vt 0.461426 0.945038
vt 0.466064 0.944580
vt 0.462158 0.949371
vt 0.466553 0.947510
vt 0.464355 0.952667
vt 0.467773 0.949280
vt 0.467773 0.954895
vt 0.469482 0.950439
vt 0.472168 0.955750
vt 0.472412 0.951019
vt 0.895996 0.955750
vt 0.895508 0.951019
vt 0.899902 0.954865
vt 0.898438 0.950439
vt 0.903320 0.952667
vt 0.899902 0.949249
vt 0.905762 0.949341
vt 0.901367 0.947510
vt 0.906250 0.945038
vt 0.901855 0.944580
vt 0.906250 0.013672
vt 0.901855 0.014160
vt 0.905762 0.009277
vt 0.901367 0.011230
vt 0.903320 0.006348
vt 0.899902 0.009766
vt 0.899902 0.003906
vt 0.898438 0.008301
vt 0.895996 0.002930
vt 0.895508 0.007812
vt 0.895996 0.013672
vt 0.471924 0.013672
vt 0.471924 0.945251
vt 0.895996 0.945251
s 1
f 143/1/1 142/2/1 141/3/1
f 146/4/2 145/2/2 144/1/2
f 149/5/3 148/2/3 147/4/3
f 156/6/4 155/7/4 154/8/4
f 159/9/2 158/7/2 157/6/2
f 162/10/5 161/7/5 160/9/5
f 165/11/2 164/7/2 163/10/2
f 172/12/6 171/13/6 170/14/6
f 175/15/2 174/13/2 173/12/2
f 178/16/2 177/13/2 176/15/2
f 181/17/7 180/13/7 179/16/7
f 188/18/8 187/19/8 186/20/8
f 191/21/2 190/19/2 189/18/2
f 194/22/2 193/19/2 192/21/2
f 197/23/6 196/19/6 195/22/6
f 204/3/2 203/2/2 202/24/2
f 380/25/9 379/26/9 378/27/9
f 383/28/10 382/26/10 381/25/10
f 386/29/9 385/26/9 384/28/9
f 393/30/10 392/31/10 391/32/10
f 396/33/9 395/31/9 394/30/9
f 399/34/9 398/31/9 397/33/9
f 402/35/11 401/31/11 400/34/11
f 409/36/9 408/37/9 407/38/9
f 412/39/9 411/37/9 410/36/9
f 415/40/11 414/37/11 413/39/11
f 418/41/10 417/37/10 416/40/10
f 425/42/9 424/43/9 423/44/9
f 428/45/9 427/43/9 426/42/9
f 431/46/12 430/43/12 429/45/12
f 434/47/10 433/43/10 432/46/10
f 441/27/11 440/26/11 439/48/11
f 617/25/13 616/26/13 615/27/13
f 620/28/13 619/26/13 618/25/13
f 623/29/14 622/26/14 621/28/14
f 630/30/14 629/31/14 628/32/14
f 633/33/13 632/31/13 631/30/13
f 636/34/13 635/31/13 634/33/13
f 639/35/14 638/31/15 637/34/14
f 646/36/13 645/37/13 644/38/13
f 649/39/13 648/37/13 647/36/13
f 652/40/14 651/37/14 650/39/14
f 655/41/13 654/37/13 653/40/13
f 662/42/13 661/43/13 660/44/13
f 665/45/14 664/43/14 663/42/14
f 668/46/16 667/43/16 666/45/16
f 671/47/13 670/43/13 669/46/13
f 678/27/14 677/26/14 676/48/14
f 91/49/17 6/50/18 90/51/19
f 4/52/20 6/50/18 91/49/17
f 6/50/18 4/52/20 5/53/21
f 3/54/22 5/53/21 4/52/20
f 5/53/21 3/54/22 15/55/23
f 16/56/24 15/55/23 3/54/22
f 15/55/23 16/56/24 20/57/25
f 21/58/26 20/57/25 16/56/24
f 20/57/25 21/58/26 103/59/27
f 103/59/27 21/58/26 104/60/28
f 22/61/29 104/60/28 21/58/26
f 104/60/28 22/61/29 105/62/30
f 105/62/30 22/61/29 134/63/31
f 134/63/31 22/61/29 133/64/32
f 17/65/33 133/64/32 22/61/29
f 133/64/32 17/65/33 122/66/34
f 122/66/34 17/65/33 121/67/35
f 1/68/36 121/67/35 17/65/33
f 2/69/37 121/67/35 1/68/36
f 121/67/35 2/69/37 128/70/38
f 92/71/39 128/70/38 2/69/37
f 128/70/38 92/71/39 127/72/40
f 4/52/20 92/71/39 2/69/37
f 92/71/39 4/52/20 91/49/17
f 2/69/37 3/54/22 4/52/20
f 1/68/36 3/54/22 2/69/37
f 3/54/22 1/68/36 16/56/24
f 17/65/33 16/56/24 1/68/36
f 16/56/24 17/65/33 21/58/26
f 22/61/29 21/58/26 17/65/33
f 99/73/41 41/74/42 98/75/43
f 40/76/44 41/74/42 99/73/41
f 41/74/42 40/76/44 35/77/45
f 34/78/46 35/77/45 40/76/44
f 35/77/45 34/78/46 27/79/45
f 29/80/47 27/79/45 34/78/46
f 27/79/45 29/80/47 28/81/48
f 30/82/49 28/81/48 29/80/47
f 28/81/48 30/82/49 87/83/50
f 87/83/50 30/82/49 88/84/51
f 32/85/52 88/84/51 30/82/49
f 88/84/51 32/85/52 89/86/53
f 89/86/53 32/85/52 126/87/54
f 126/87/54 32/85/52 125/88/55
f 31/89/56 125/88/55 32/85/52
f 125/88/55 31/89/56 118/90/57
f 118/90/57 31/89/56 117/91/58
f 33/92/59 117/91/58 31/89/56
f 39/93/60 117/91/58 33/92/59
f 117/91/58 39/93/60 132/94/61
f 100/95/62 132/94/61 39/93/60
f 132/94/61 100/95/62 131/96/63
f 40/76/44 100/95/62 39/93/60
f 100/95/62 40/76/44 99/73/41
f 39/93/60 34/78/46 40/76/44
f 33/92/59 34/78/46 39/93/60
f 34/78/46 33/92/59 29/80/47
f 31/89/56 29/80/47 33/92/59
f 29/80/47 31/89/56 30/82/49
f 32/85/52 30/82/49 31/89/56
f 107/97/64 49/98/65 106/99/66
f 47/100/67 49/98/65 107/97/64
f 49/98/65 47/100/67 48/101/68
f 46/102/69 48/101/68 47/100/67
f 48/101/68 46/102/69 57/103/68
f 58/104/70 57/103/68 46/102/69
f 57/103/68 58/104/70 62/105/71
f 63/106/72 62/105/71 58/104/70
f 62/105/71 63/106/72 111/107/73
f 111/107/73 63/106/72 112/108/74
f 64/109/75 112/108/74 63/106/72
f 112/108/74 64/109/75 113/110/76
f 113/110/76 64/109/75 138/111/77
f 138/111/77 64/109/75 137/112/78
f 59/113/79 137/112/78 64/109/75
f 137/112/78 59/113/79 119/114/80
f 119/114/80 59/113/79 120/115/81
f 44/116/82 120/115/81 59/113/79
f 45/117/83 120/115/81 44/116/82
f 120/115/81 45/117/83 136/118/84
f 108/119/85 136/118/84 45/117/83
f 136/118/84 108/119/85 135/120/86
f 47/100/67 108/119/85 45/117/83
f 108/119/85 47/100/67 107/97/64
f 45/117/83 46/102/69 47/100/67
f 44/116/82 46/102/69 45/117/83
f 46/102/69 44/116/82 58/104/70
f 59/113/79 58/104/70 44/116/82
f 58/104/70 59/113/79 63/106/72
f 64/109/75 63/106/72 59/113/79
f 115/121/87 82/122/88 114/123/89
f 81/124/90 82/122/88 115/121/87
f 82/122/88 81/124/90 77/125/91
f 76/126/92 77/125/91 81/124/90
f 77/125/91 76/126/92 69/127/93
f 71/128/94 69/127/93 76/126/92
f 69/127/93 71/128/94 70/129/95
f 72/130/96 70/129/95 71/128/94
f 70/129/95 72/130/96 95/131/97
f 95/131/97 72/130/96 96/132/98
f 74/133/99 96/132/98 72/130/96
f 96/132/98 74/133/99 97/134/100
f 97/134/100 74/133/99 130/135/101
f 130/135/101 74/133/99 129/136/102
f 73/137/103 129/136/102 74/133/99
f 129/136/102 73/137/103 123/138/104
f 123/138/104 73/137/103 124/139/105
f 75/140/106 124/139/105 73/137/103
f 80/141/107 124/139/105 75/140/106
f 124/139/105 80/141/107 140/142/108
f 116/143/109 140/142/108 80/141/107
f 140/142/108 116/143/109 139/144/110
f 81/124/90 116/143/109 80/141/107
f 116/143/109 81/124/90 115/121/87
f 80/141/107 76/126/92 81/124/90
f 75/140/106 76/126/92 80/141/107
f 76/126/92 75/140/106 71/128/94
f 73/137/103 71/128/94 75/140/106
f 71/128/94 73/137/103 72/130/96
f 74/133/99 72/130/96 73/137/103
f 152/8/2 151/2/2 150/5/2
f 151/2/2 152/8/2 153/7/2
f 168/14/2 167/7/111 166/11/2
f 167/7/111 168/14/2 169/13/2
f 184/20/2 183/13/2 182/17/2
f 183/13/2 184/20/2 185/19/2
f 200/24/2 199/19/2 198/23/2
f 199/19/2 200/24/2 201/2/2
f 213/145/112 212/146/113 211/147/114
f 214/148/115 212/146/113 213/145/112
f 212/146/113 214/148/115 315/149/116
f 314/150/117 315/149/116 214/148/115
f 315/149/116 314/150/117 238/151/118
f 235/152/119 238/151/118 314/150/117
f 238/151/118 235/152/119 237/153/120
f 236/154/121 237/153/120 235/152/119
f 237/153/120 236/154/121 248/155/120
f 249/156/122 248/155/120 236/154/121
f 248/155/120 249/156/122 257/157/123
f 258/158/124 257/157/123 249/156/122
f 257/157/123 258/158/124 328/159/125
f 328/159/125 258/158/124 322/160/126
f 250/161/127 322/160/126 258/158/124
f 322/160/126 250/161/127 287/162/128
f 287/162/128 250/161/127 288/163/129
f 288/163/129 250/161/127 304/164/130
f 276/165/131 304/164/130 250/161/127
f 313/166/132 304/164/130 276/165/131
f 312/167/133 304/164/130 313/166/132
f 304/164/130 312/167/133 311/168/134
f 313/166/132 341/169/135 312/167/133
f 340/170/136 341/169/135 313/166/132
f 341/169/135 340/170/136 280/171/137
f 277/172/138 280/171/137 340/170/136
f 280/171/137 277/172/138 279/173/139
f 279/173/139 277/172/138 278/174/140
f 278/174/140 277/172/138 276/165/131
f 340/170/136 276/165/131 277/172/138
f 276/165/131 340/170/136 313/166/132
f 215/175/141 214/148/115 213/145/112
f 214/148/115 215/175/141 314/150/117
f 314/150/117 215/175/141 235/152/119
f 235/152/119 215/175/141 236/154/121
f 236/154/121 215/175/141 249/156/122
f 250/161/127 249/156/122 215/175/141
f 249/156/122 250/161/127 258/158/124
f 218/176/142 217/177/143 216/178/144
f 217/177/143 218/176/142 219/179/145
f 221/176/146 220/179/147 218/176/148
f 220/179/147 221/176/146 222/180/149
f 225/181/150 224/182/151 223/183/152
f 226/184/153 224/182/151 225/181/150
f 224/182/151 226/184/153 232/185/154
f 233/186/155 232/185/154 226/184/153
f 232/185/154 233/186/155 334/187/156
f 334/187/156 233/186/155 335/188/157
f 234/189/158 335/188/157 233/186/155
f 335/188/157 234/189/158 336/190/159
f 336/190/159 234/189/158 367/191/160
f 367/191/160 234/189/158 366/192/161
f 228/193/162 366/192/161 234/189/158
f 366/192/161 228/193/162 353/194/163
f 353/194/163 228/193/162 352/195/164
f 352/195/164 228/193/162 227/196/165
f 226/184/153 227/196/165 228/193/162
f 227/196/165 226/184/153 225/181/150
f 228/193/162 233/186/155 226/184/153
f 233/186/155 228/193/162 234/189/158
f 246/197/166 239/198/167 247/199/167
f 241/200/168 239/198/167 246/197/166
f 239/198/167 241/200/168 240/201/169
f 242/202/170 240/201/169 241/200/168
f 240/201/169 242/202/170 316/203/171
f 316/203/171 242/202/170 317/204/172
f 244/205/173 317/204/172 242/202/170
f 317/204/172 244/205/173 318/206/174
f 318/206/174 244/205/173 357/207/175
f 357/207/175 244/205/173 356/208/176
f 243/209/177 356/208/176 244/205/173
f 356/208/176 243/209/177 349/210/178
f 349/210/178 243/209/177 348/211/179
f 348/211/179 243/209/177 245/212/180
f 241/200/168 245/212/180 243/209/177
f 245/212/180 241/200/168 246/197/166
f 243/209/177 242/202/170 241/200/168
f 242/202/170 243/209/177 244/205/173
f 269/213/181 267/214/182 270/215/183
f 229/177/184 267/214/182 269/213/181
f 268/216/185 267/214/182 229/177/184
f 266/217/186 267/214/182 268/216/185
f 265/218/139 267/214/182 266/217/186
f 267/214/182 265/218/139 271/215/182
f 272/219/187 271/215/182 265/218/139
f 268/216/185 333/220/188 266/217/186
f 332/221/189 333/220/188 268/216/185
f 333/220/188 332/221/189 231/222/190
f 230/223/191 231/222/190 332/221/189
f 231/222/190 230/223/191 222/180/192
f 222/180/192 230/223/191 219/179/193
f 219/179/193 230/223/191 229/177/184
f 332/221/189 229/177/184 230/223/191
f 229/177/184 332/221/189 268/216/185
f 283/224/194 282/225/195 281/226/196
f 284/227/197 282/225/195 283/224/194
f 282/225/195 284/227/197 342/228/198
f 342/228/198 284/227/197 343/229/199
f 286/230/200 343/229/199 284/227/197
f 343/229/199 286/230/200 344/231/201
f 344/231/201 286/230/200 372/232/202
f 372/232/202 286/230/200 371/233/203
f 285/234/204 371/233/203 286/230/200
f 371/233/203 285/234/204 370/235/205
f 284/227/197 285/234/204 286/230/200
f 285/234/204 284/227/197 283/224/194
f 300/236/206 293/237/207 301/238/208
f 295/239/209 293/237/207 300/236/206
f 293/237/207 295/239/209 294/240/210
f 296/241/211 294/240/210 295/239/209
f 294/240/210 296/241/211 325/242/212
f 325/242/212 296/241/211 326/243/213
f 298/244/214 326/243/213 296/241/211
f 326/243/213 298/244/214 327/245/215
f 327/245/215 298/244/214 362/246/216
f 362/246/216 298/244/214 361/247/217
f 297/248/218 361/247/217 298/244/214
f 361/247/217 297/248/218 354/249/219
f 354/249/219 297/248/218 355/250/220
f 355/250/220 297/248/218 299/251/221
f 295/239/209 299/251/221 297/248/218
f 299/251/221 295/239/209 300/236/206
f 297/248/218 296/241/211 295/239/209
f 296/241/211 297/248/218 298/244/214
f 302/252/222 289/253/223 303/254/224
f 291/255/225 289/253/223 302/252/222
f 289/253/223 291/255/225 290/256/226
f 292/257/227 290/256/226 291/255/225
f 290/256/226 292/257/227 323/258/228
f 324/259/229 323/258/228 292/257/227
f 320/260/230 210/261/231 319/262/232
f 208/263/233 210/261/231 320/260/230
f 210/261/231 208/263/233 209/264/234
f 209/264/234 208/263/233 207/265/235
f 206/266/236 207/265/235 208/263/233
f 207/265/235 206/266/236 205/267/237
f 205/267/237 206/266/236 360/268/238
f 360/268/238 206/266/236 359/269/239
f 321/270/240 359/269/239 206/266/236
f 359/269/239 321/270/240 358/271/241
f 208/263/233 321/270/240 206/266/236
f 321/270/240 208/263/233 320/260/230
f 330/272/242 256/273/243 329/274/212
f 254/275/244 256/273/243 330/272/242
f 256/273/243 254/275/244 255/276/245
f 255/276/245 254/275/244 253/277/246
f 252/278/247 253/277/246 254/275/244
f 253/277/246 252/278/247 251/279/180
f 251/279/180 252/278/247 365/280/248
f 365/280/248 252/278/247 364/281/249
f 331/282/250 364/281/249 252/278/247
f 364/281/249 331/282/250 363/283/251
f 254/275/244 331/282/250 252/278/247
f 331/282/250 254/275/244 330/272/242
f 338/284/252 264/285/253 337/286/254
f 262/287/255 264/285/253 338/284/252
f 264/285/253 262/287/255 263/288/196
f 261/289/256 263/288/196 262/287/255
f 263/288/196 261/289/256 273/290/196
f 273/290/196 261/289/256 274/291/257
f 259/292/258 274/291/257 261/289/256
f 274/291/257 259/292/258 275/293/259
f 351/294/260 275/293/259 259/292/258
f 275/293/259 351/294/260 350/295/261
f 260/296/262 351/294/260 259/292/258
f 351/294/260 260/296/262 369/297/263
f 339/298/264 369/297/263 260/296/262
f 369/297/263 339/298/264 368/299/265
f 262/287/255 339/298/264 260/296/262
f 339/298/264 262/287/255 338/284/252
f 260/296/262 261/289/256 262/287/255
f 261/289/256 260/296/262 259/292/258
f 346/300/266 310/301/267 345/302/268
f 308/303/269 310/301/267 346/300/266
f 310/301/267 308/303/269 309/304/270
f 309/304/270 308/303/269 307/305/271
f 306/306/272 307/305/271 308/303/269
f 307/305/271 306/306/272 305/307/273
f 305/307/273 306/306/272 375/308/274
f 375/308/274 306/306/272 374/309/275
f 347/310/276 374/309/275 306/306/272
f 374/309/275 347/310/276 373/311/277
f 308/303/269 347/310/276 306/306/272
f 347/310/276 308/303/269 346/300/266
f 376/312/278 229/177/184 269/213/181
f 229/177/184 376/312/278 377/178/278
f 389/32/12 388/26/9 387/29/9
f 388/26/9 389/32/12 390/31/9
f 405/38/9 404/31/9 403/35/9
f 404/31/9 405/38/9 406/37/9
f 421/313/9 420/37/9 419/41/279
f 420/37/9 421/313/9 422/314/9
f 437/315/12 436/43/9 435/47/9
f 436/43/9 437/315/12 438/316/12
f 450/145/280 449/146/281 448/147/282
f 451/148/283 449/146/281 450/145/280
f 449/146/281 451/148/283 552/149/284
f 551/150/285 552/149/284 451/148/283
f 552/149/284 551/150/285 475/151/286
f 472/152/287 475/151/286 551/150/285
f 475/151/286 472/152/287 474/153/288
f 473/154/289 474/153/288 472/152/287
f 474/153/288 473/154/289 485/155/288
f 486/156/289 485/155/288 473/154/289
f 485/155/288 486/156/289 494/157/290
f 495/158/291 494/157/290 486/156/289
f 494/157/290 495/158/291 565/159/292
f 565/159/292 495/158/291 559/160/293
f 487/161/294 559/160/293 495/158/291
f 559/160/293 487/161/294 524/162/295
f 524/162/295 487/161/294 525/163/296
f 525/163/296 487/161/294 541/164/297
f 513/165/298 541/164/297 487/161/294
f 550/166/299 541/164/297 513/165/298
f 549/167/300 541/164/297 550/166/299
f 541/164/297 549/167/300 548/168/301
f 550/166/299 578/169/302 549/167/300
f 577/170/303 578/169/302 550/166/299
f 578/169/302 577/170/303 517/171/304
f 514/172/305 517/171/304 577/170/303
f 517/171/304 514/172/305 516/173/306
f 516/173/306 514/172/305 515/174/307
f 515/174/307 514/172/305 513/165/298
f 577/170/303 513/165/298 514/172/305
f 513/165/298 577/170/303 550/166/299
f 452/175/308 451/148/283 450/145/280
f 451/148/283 452/175/308 551/150/285
f 551/150/285 452/175/308 472/152/287
f 472/152/287 452/175/308 473/154/289
f 473/154/289 452/175/308 486/156/289
f 487/161/294 486/156/289 452/175/308
f 486/156/289 487/161/294 495/158/291
f 455/176/309 454/177/310 453/178/311
f 454/177/310 455/176/309 456/179/312
f 458/176/313 457/179/314 455/176/315
f 457/179/314 458/176/313 459/180/316
f 462/181/317 461/182/318 460/183/319
f 463/184/320 461/182/318 462/181/317
f 461/182/318 463/184/320 469/185/321
f 470/186/322 469/185/321 463/184/320
f 469/185/321 470/186/322 571/187/323
f 571/187/323 470/186/322 572/188/324
f 471/189/325 572/188/324 470/186/322
f 572/188/324 471/189/325 573/190/326
f 573/190/326 471/189/325 604/191/327
f 604/191/327 471/189/325 603/192/328
f 465/193/329 603/192/328 471/189/325
f 603/192/328 465/193/329 590/194/330
f 590/194/330 465/193/329 589/195/331
f 589/195/331 465/193/329 464/196/332
f 463/184/320 464/196/332 465/193/329
f 464/196/332 463/184/320 462/181/317
f 465/193/329 470/186/322 463/184/320
f 470/186/322 465/193/329 471/189/325
f 483/197/333 476/198/334 484/199/334
f 478/200/333 476/198/334 483/197/333
f 476/198/334 478/200/333 477/201/335
f 479/202/336 477/201/335 478/200/333
f 477/201/335 479/202/336 553/203/337
f 553/203/337 479/202/336 554/204/338
f 481/205/339 554/204/338 479/202/336
f 554/204/338 481/205/339 555/206/340
f 555/206/340 481/205/339 594/207/341
f 594/207/341 481/205/339 593/208/342
f 480/209/343 593/208/342 481/205/339
f 593/208/342 480/209/343 586/210/344
f 586/210/344 480/209/343 585/211/345
f 585/211/345 480/209/343 482/212/346
f 478/200/333 482/212/346 480/209/343
f 482/212/346 478/200/333 483/197/333
f 480/209/343 479/202/336 478/200/333
f 479/202/336 480/209/343 481/205/339
f 506/213/347 504/214/307 507/215/348
f 466/177/349 504/214/307 506/213/347
f 505/216/350 504/214/307 466/177/349
f 503/217/351 504/214/307 505/216/350
f 502/218/306 504/214/307 503/217/351
f 504/214/307 502/218/306 508/215/352
f 509/219/306 508/215/352 502/218/306
f 505/216/350 570/220/353 503/217/351
f 569/221/354 570/220/353 505/216/350
f 570/220/353 569/221/354 468/222/355
f 467/223/356 468/222/355 569/221/354
f 468/222/355 467/223/356 459/180/357
f 459/180/357 467/223/356 456/179/358
f 456/179/358 467/223/356 466/177/349
f 569/221/354 466/177/349 467/223/356
f 466/177/349 569/221/354 505/216/350
f 520/224/359 519/225/360 518/226/361
f 521/227/362 519/225/360 520/224/359
f 519/225/360 521/227/362 579/228/363
f 579/228/363 521/227/362 580/229/364
f 523/230/365 580/229/364 521/227/362
f 580/229/364 523/230/365 581/231/366
f 581/231/366 523/230/365 609/232/367
f 609/232/367 523/230/365 608/233/368
f 522/234/369 608/233/368 523/230/365
f 608/233/368 522/234/369 607/235/370
f 521/227/362 522/234/369 523/230/365
f 522/234/369 521/227/362 520/224/359
f 537/236/371 530/237/372 538/238/373
f 532/239/374 530/237/372 537/236/371
f 530/237/372 532/239/374 531/240/375
f 533/241/376 531/240/375 532/239/374
f 531/240/375 533/241/376 562/242/377
f 562/242/377 533/241/376 563/243/378
f 535/244/379 563/243/378 533/241/376
f 563/243/378 535/244/379 564/245/380
f 564/245/380 535/244/379 599/246/381
f 599/246/381 535/244/379 598/247/382
f 534/248/383 598/247/382 535/244/379
f 598/247/382 534/248/383 591/249/384
f 591/249/384 534/248/383 592/250/385
f 592/250/385 534/248/383 536/251/386
f 532/239/374 536/251/386 534/248/383
f 536/251/386 532/239/374 537/236/371
f 534/248/383 533/241/376 532/239/374
f 533/241/376 534/248/383 535/244/379
f 539/252/387 526/253/388 540/254/389
f 528/255/390 526/253/388 539/252/387
f 526/253/388 528/255/390 527/256/391
f 529/257/392 527/256/391 528/255/390
f 527/256/391 529/257/392 560/258/393
f 561/259/292 560/258/393 529/257/392
f 557/260/394 447/261/395 556/262/396
f 445/263/397 447/261/395 557/260/394
f 447/261/395 445/263/397 446/264/398
f 446/264/398 445/263/397 444/265/399
f 443/266/400 444/265/399 445/263/397
f 444/265/399 443/266/400 442/267/401
f 442/267/401 443/266/400 597/268/402
f 597/268/402 443/266/400 596/269/403
f 558/270/404 596/269/403 443/266/400
f 596/269/403 558/270/404 595/271/405
f 445/263/397 558/270/404 443/266/400
f 558/270/404 445/263/397 557/260/394
f 567/272/406 493/273/407 566/274/408
f 491/275/409 493/273/407 567/272/406
f 493/273/407 491/275/409 492/276/410
f 492/276/410 491/275/409 490/277/411
f 489/278/412 490/277/411 491/275/409
f 490/277/411 489/278/412 488/279/413
f 488/279/413 489/278/412 602/280/414
f 602/280/414 489/278/412 601/281/415
f 568/282/416 601/281/415 489/278/412
f 601/281/415 568/282/416 600/283/417
f 491/275/409 568/282/416 489/278/412
f 568/282/416 491/275/409 567/272/406
f 575/284/418 501/285/419 574/286/420
f 499/287/421 501/285/419 575/284/418
f 501/285/419 499/287/421 500/288/422
f 498/289/423 500/288/422 499/287/421
f 500/288/422 498/289/423 510/290/424
f 510/290/424 498/289/423 511/291/425
f 496/292/426 511/291/425 498/289/423
f 511/291/425 496/292/426 512/293/427
f 588/294/428 512/293/427 496/292/426
f 512/293/427 588/294/428 587/295/429
f 497/296/430 588/294/428 496/292/426
f 588/294/428 497/296/430 606/297/431
f 576/298/432 606/297/431 497/296/430
f 606/297/431 576/298/432 605/299/433
f 499/287/421 576/298/432 497/296/430
f 576/298/432 499/287/421 575/284/418
f 497/296/430 498/289/423 499/287/421
f 498/289/423 497/296/430 496/292/426
f 583/300/434 547/301/435 582/302/436
f 545/303/437 547/301/435 583/300/434
f 547/301/435 545/303/437 546/304/438
f 546/304/438 545/303/437 544/305/439
f 543/306/440 544/305/439 545/303/437
f 544/305/439 543/306/440 542/307/441
f 542/307/441 543/306/440 612/308/442
f 612/308/442 543/306/440 611/309/443
f 584/310/444 611/309/443 543/306/440
f 611/309/443 584/310/444 610/311/445
f 545/303/437 584/310/444 543/306/440
f 584/310/444 545/303/437 583/300/434
f 613/312/446 466/177/349 506/213/347
f 466/177/349 613/312/446 614/178/446
f 626/32/447 625/26/13 624/29/13
f 625/26/13 626/32/447 627/31/13
f 642/38/13 641/31/13 640/35/13
f 641/31/13 642/38/13 643/37/13
f 658/313/13 657/37/13 656/41/13
f 657/37/13 658/313/13 659/314/13
f 674/315/13 673/43/13 672/47/13
f 673/43/13 674/315/13 675/316/448
f 9/317/449 8/318/450 7/319/451
f 10/320/452 8/318/450 9/317/449
f 8/318/450 10/320/452 86/321/453
f 85/322/454 86/321/453 10/320/452
f 86/321/453 85/322/454 26/323/455
f 23/324/456 26/323/455 85/322/454
f 26/323/455 23/324/456 25/325/457
f 24/326/458 25/325/457 23/324/456
f 25/325/457 24/326/458 36/327/459
f 37/328/460 36/327/459 24/326/458
f 36/327/459 37/328/460 42/329/461
f 43/330/462 42/329/461 37/328/460
f 42/329/461 43/330/462 94/331/463
f 93/332/464 94/331/463 43/330/462
f 94/331/463 93/332/464 68/333/465
f 65/334/466 68/333/465 93/332/464
f 68/333/465 65/334/466 67/335/467
f 66/336/468 67/335/467 65/334/466
f 67/335/467 66/336/468 78/337/469
f 79/338/470 78/337/469 66/336/468
f 78/337/469 79/338/470 83/339/471
f 84/340/472 83/339/471 79/338/470
f 83/339/471 84/340/472 110/341/473
f 109/342/474 110/341/473 84/340/472
f 110/341/473 109/342/474 61/343/475
f 60/344/476 61/343/475 109/342/474
f 61/343/475 60/344/476 56/345/477
f 55/346/478 56/345/477 60/344/476
f 56/345/477 55/346/478 50/347/477
f 52/348/478 50/347/477 55/346/478
f 50/347/477 52/348/478 51/349/479
f 53/350/480 51/349/479 52/348/478
f 51/349/479 53/350/480 102/351/481
f 101/352/482 102/351/481 53/350/480
f 102/351/481 101/352/482 19/353/483
f 18/354/484 19/353/483 101/352/482
f 19/353/483 18/354/484 14/355/485
f 13/356/486 14/355/485 18/354/484
f 14/355/485 13/356/486 7/319/451
f 7/319/451 13/356/486 9/317/449
f 12/357/487 9/317/449 13/356/486
f 11/358/488 9/317/449 12/357/487
f 9/317/449 11/358/488 10/320/452
f 10/320/452 11/358/488 85/322/454
f 85/322/454 11/358/488 23/324/456
f 23/324/456 11/358/488 24/326/458
f 24/326/458 11/358/488 37/328/460
f 38/359/489 37/328/460 11/358/488
f 37/328/460 38/359/489 43/330/462
f 43/330/462 38/359/489 93/332/464
f 93/332/464 38/359/489 65/334/466
f 65/334/466 38/359/489 66/336/468
f 66/336/468 38/359/489 79/338/470
f 54/360/490 79/338/470 38/359/489
f 79/338/470 54/360/490 84/340/472
f 84/340/472 54/360/490 109/342/474
f 109/342/474 54/360/490 60/344/476
f 60/344/476 54/360/490 55/346/478
f 55/346/478 54/360/490 52/348/478
f 12/357/487 52/348/478 54/360/490
f 52/348/478 12/357/487 53/350/480
f 53/350/480 12/357/487 101/352/482
f 101/352/482 12/357/487 18/354/484
f 13/356/486 18/354/484 12/357/487
f 38/359/489 12/357/487 54/360/490
f 12/357/487 38/359/489 11/358/488
