# Blender 4.5.3 LTS
# www.blender.org
o ev_obj_w9_hideconsole_003.001
v -0.572344 3.086324 5.129883
v -0.573368 3.088827 5.125068
v -0.573368 3.081457 5.127481
v -0.574332 3.083817 5.122946
v -0.576284 3.077235 5.125634
v -0.577078 3.079180 5.121894
v -0.576284 3.077235 5.125634
v -0.577078 3.079180 5.121894
v -0.580648 3.074296 5.124621
v -0.581188 3.075624 5.122072
v -0.585977 3.073649 5.123528
v -0.585992 2.882649 5.490231
v -0.580651 2.883913 5.490144
v -0.576285 2.886432 5.491960
v -0.576285 2.886432 5.491960
v -0.573368 2.890378 5.494344
v -0.572344 2.895146 5.496935
v -0.581196 2.882586 5.492690
v -0.577082 2.884487 5.495697
v -0.577082 2.884487 5.495697
v -0.574333 2.888020 5.498878
v -0.573368 2.892643 5.501749
v -0.583886 3.076941 5.119542
v -0.586615 3.077205 5.119034
v -0.586186 3.082052 5.116371
v -0.582185 3.081666 5.117115
v -0.586186 3.082052 5.116371
v -0.582185 3.081666 5.117115
v -0.585899 3.087549 5.115762
v -0.581049 3.087080 5.116665
v -0.585798 3.092861 5.117301
v -0.580650 3.092365 5.118259
v -1.448020 3.092861 5.117301
v -1.447919 3.087549 5.115762
v -1.447633 3.082052 5.116371
v -1.447633 3.082052 5.116371
v -1.447203 3.077205 5.119034
v -1.447841 3.073649 5.123528
v -1.453169 3.092365 5.118259
v -1.452770 3.087080 5.116665
v -1.451633 3.081666 5.117115
v -1.451633 3.081666 5.117115
v -1.449932 3.076941 5.119542
v -0.585798 2.888608 5.509516
v -0.580650 2.889107 5.508558
v -0.585899 2.884288 5.506060
v -0.581050 2.884757 5.505158
v -0.586187 2.881620 5.501211
v -0.582189 2.882006 5.500468
v -0.586187 2.881620 5.501211
v -0.582189 2.882006 5.500468
v -0.586618 2.881015 5.495711
v -0.583894 2.881278 5.495205
v -1.447826 2.882649 5.490231
v -1.447201 2.881015 5.495711
v -1.447631 2.881620 5.501211
v -1.447631 2.881620 5.501211
v -1.447919 2.884288 5.506060
v -1.448020 2.888608 5.509516
v -1.449924 2.881278 5.495205
v -1.451629 2.882006 5.500468
v -1.451629 2.882006 5.500468
v -1.452769 2.884757 5.505158
v -1.453169 2.889107 5.508558
v -1.452631 3.075624 5.122072
v -1.453170 3.074296 5.124621
v -1.457535 3.077235 5.125634
v -1.456741 3.079180 5.121894
v -1.457535 3.077235 5.125634
v -1.456741 3.079180 5.121894
v -1.460451 3.081457 5.127481
v -1.459486 3.083817 5.122946
v -1.461475 3.086324 5.129883
v -1.460451 3.088827 5.125068
v -1.461475 2.895146 5.496935
v -1.460450 2.890378 5.494344
v -1.457533 2.886432 5.491960
v -1.457533 2.886432 5.491960
v -1.453168 2.883913 5.490144
v -1.460451 2.892643 5.501749
v -1.459485 2.888020 5.498878
v -1.456736 2.884487 5.495697
v -1.456736 2.884487 5.495697
v -1.452623 2.882586 5.492690
v -0.582267 3.076412 5.120556
v -0.579123 3.080669 5.119030
v -0.579123 3.080669 5.119030
v -0.577022 3.085773 5.119181
v -0.576285 3.090947 5.120986
v -0.579123 3.080669 5.119030
v -0.577022 3.085773 5.119181
v -0.576285 3.090947 5.120986
v -1.451551 3.076412 5.120556
v -1.454696 3.080669 5.119030
v -1.454696 3.080669 5.119030
v -1.456797 3.085773 5.119181
v -1.457534 3.090947 5.120986
v -1.454696 3.080669 5.119030
v -1.456797 3.085773 5.119181
v -1.457534 3.090947 5.120986
v -0.582278 2.881801 5.494199
v -0.579129 2.883000 5.498558
v -0.579129 2.883000 5.498558
v -0.577024 2.886064 5.502643
v -0.576285 2.890523 5.505831
v -0.579129 2.883000 5.498558
v -0.577024 2.886064 5.502643
v -0.576285 2.890523 5.505831
v -1.451540 2.881801 5.494199
v -1.454690 2.883000 5.498558
v -1.454690 2.883000 5.498558
v -1.456795 2.886064 5.502643
v -1.457534 2.890523 5.505831
v -1.454690 2.883000 5.498558
v -1.456795 2.886064 5.502643
v -1.457534 2.890523 5.505831
v -1.448020 3.098751 5.120352
v -0.585798 3.098751 5.120352
v -1.448020 2.894489 5.512562
v -0.585798 2.894489 5.512562
v -0.572344 3.092201 5.132927
v -0.572344 2.901037 5.499987
v -1.461475 3.092201 5.132927
v -1.461475 2.901037 5.499987
v -0.580650 3.098252 5.121308
v -0.576285 3.096832 5.124035
v -0.576285 3.096832 5.124035
v -0.573368 3.094707 5.128115
v -1.460451 3.094707 5.128115
v -1.457534 3.096832 5.124035
v -1.457534 3.096832 5.124035
v -1.453169 3.098252 5.121308
v -0.573368 2.898530 5.504799
v -0.576285 2.896406 5.508879
v -0.576285 2.896406 5.508879
v -0.580650 2.894986 5.511605
v -1.453169 2.894986 5.511605
v -1.457534 2.896406 5.508879
v -1.457534 2.896406 5.508879
v -1.460451 2.898530 5.504799
v -1.460451 2.898530 5.504799
v -1.392704 2.908355 5.485934
v -1.457534 2.896406 5.508879
v -1.457534 2.896406 5.508879
v -1.392704 2.908355 5.485934
v -1.453169 2.894986 5.511605
v -1.453169 2.894986 5.511605
v -1.392704 2.908355 5.485934
v -1.448020 2.894489 5.512562
v -1.448020 2.894489 5.512562
v -1.392704 2.908355 5.485934
v -0.585798 2.894489 5.512562
v -0.641114 2.908355 5.485934
v -0.585798 2.894489 5.512562
v -0.641114 2.908355 5.485934
v -0.580650 2.894986 5.511605
v -0.580650 2.894986 5.511605
v -0.641114 2.908355 5.485934
v -0.576285 2.896406 5.508879
v -0.576285 2.896406 5.508879
v -0.641114 2.908355 5.485934
v -0.573368 2.898530 5.504799
v -0.573368 2.898530 5.504799
v -0.641114 2.908355 5.485934
v -0.572344 2.901037 5.499987
v -0.572344 2.901037 5.499987
v -0.641114 2.908355 5.485934
v -0.572344 3.092201 5.132927
v -0.641114 3.084882 5.146980
v -0.572344 3.092201 5.132927
v -0.641114 3.084882 5.146980
v -0.573368 3.094707 5.128115
v -0.573368 3.094707 5.128115
v -0.641114 3.084882 5.146980
v -0.576285 3.096832 5.124035
v -0.576285 3.096832 5.124035
v -0.641114 3.084882 5.146980
v -0.580650 3.098252 5.121308
v -0.580650 3.098252 5.121308
v -0.641114 3.084882 5.146980
v -0.585798 3.098751 5.120352
v -0.585798 3.098751 5.120352
v -0.641114 3.084882 5.146980
v -1.448020 3.098751 5.120352
v -1.392704 3.084882 5.146980
v -1.448020 3.098751 5.120352
v -1.392704 3.084882 5.146980
v -1.453169 3.098252 5.121308
v -1.453169 3.098252 5.121308
v -1.392704 3.084882 5.146980
v -1.457534 3.096832 5.124035
v -1.457534 3.096832 5.124035
v -1.392704 3.084882 5.146980
v -1.460451 3.094707 5.128115
v -1.460451 3.094707 5.128115
v -1.392704 3.084882 5.146980
v -1.461475 3.092201 5.132927
v -1.461475 3.092201 5.132927
v -1.392704 3.084882 5.146980
v -1.461475 2.901037 5.499987
v -1.392704 2.908355 5.485934
v -1.461475 2.901037 5.499987
v -1.392704 2.908355 5.485934
v -1.460451 2.898530 5.504799
v -0.572344 2.807421 5.090117
v -0.573368 2.806280 5.084813
v -0.573368 2.802140 5.091370
v -0.574332 2.801066 5.086372
v -0.576284 2.797709 5.092639
v -0.577078 2.796824 5.088518
v -0.576284 2.797709 5.092639
v -0.577078 2.796824 5.088518
v -0.580648 2.794801 5.093732
v -0.581188 2.794199 5.090922
v -0.585977 2.793606 5.093303
v -0.585977 2.793606 5.093303
v -0.585992 2.880245 5.497586
v -0.580648 2.794801 5.093732
v -0.580651 2.881162 5.496714
v -0.580651 2.881162 5.496714
v -0.576284 2.797709 5.092639
v -0.576285 2.884261 5.496506
v -0.576284 2.797709 5.092639
v -0.576285 2.884261 5.496506
v -0.573368 2.802140 5.091370
v -0.573368 2.888821 5.495829
v -0.572344 2.807421 5.090117
v -0.572344 2.894146 5.494784
v -0.585992 2.880245 5.497586
v -0.581196 2.881764 5.499521
v -0.577082 2.885146 5.500626
v -0.577082 2.885146 5.500626
v -0.574333 2.889895 5.500825
v -0.573368 2.895288 5.500089
v -0.583886 2.793599 5.088133
v -0.586615 2.793479 5.087573
v -0.586186 2.795516 5.082432
v -0.582185 2.795692 5.083251
v -0.586186 2.795516 5.082432
v -0.582185 2.795692 5.083251
v -0.585899 2.799363 5.078458
v -0.581049 2.799577 5.079452
v -0.585798 2.804436 5.076256
v -0.580650 2.804664 5.077312
v -1.448020 2.804436 5.076256
v -1.447919 2.799363 5.078458
v -1.447633 2.795516 5.082432
v -1.447633 2.795516 5.082432
v -1.447203 2.793479 5.087573
v -1.447841 2.793606 5.093303
v -1.448020 2.804436 5.076256
v -1.453169 2.804664 5.077312
v -1.447919 2.799363 5.078458
v -1.452770 2.799577 5.079452
v -1.447633 2.795516 5.082432
v -1.451633 2.795692 5.083251
v -1.451633 2.795692 5.083251
v -1.449932 2.793599 5.088133
v -0.585798 2.897131 5.508645
v -0.580650 2.896904 5.507590
v -0.585899 2.891598 5.508737
v -0.581050 2.891384 5.507743
v -0.586187 2.886452 5.506701
v -0.582189 2.886276 5.505883
v -0.586187 2.886452 5.506701
v -0.582189 2.886276 5.505883
v -0.586618 2.882479 5.502851
v -0.583894 2.882360 5.502294
v -1.447826 2.880245 5.497586
v -1.447201 2.882479 5.502851
v -1.447201 2.882479 5.502851
v -1.447631 2.886452 5.506701
v -1.447631 2.886452 5.506701
v -1.447919 2.891598 5.508737
v -1.448020 2.897131 5.508645
v -1.447826 2.880245 5.497586
v -1.449924 2.882360 5.502294
v -1.447201 2.882479 5.502851
v -1.447631 2.886452 5.506701
v -1.451629 2.886276 5.505883
v -1.447631 2.886452 5.506701
v -1.451629 2.886276 5.505883
v -1.447919 2.891598 5.508737
v -1.452769 2.891384 5.507743
v -1.448020 2.897131 5.508645
v -1.453169 2.896904 5.507590
v -1.452631 2.794199 5.090922
v -1.453170 2.794801 5.093732
v -1.453170 2.794801 5.093732
v -1.452631 2.794199 5.090922
v -1.457535 2.797709 5.092639
v -1.456741 2.796824 5.088518
v -1.457535 2.797709 5.092639
v -1.456741 2.796824 5.088518
v -1.460451 2.802140 5.091370
v -1.459486 2.801066 5.086372
v -1.461475 2.807421 5.090117
v -1.460451 2.806280 5.084813
v -1.461475 2.894146 5.494784
v -1.460450 2.888821 5.495829
v -1.457533 2.884261 5.496506
v -1.457533 2.884261 5.496506
v -1.453168 2.881162 5.496714
v -1.453168 2.881162 5.496714
v -1.461475 2.894146 5.494784
v -1.460451 2.895288 5.500089
v -1.460450 2.888821 5.495829
v -1.459485 2.889895 5.500825
v -1.457533 2.884261 5.496506
v -1.456736 2.885146 5.500626
v -1.457533 2.884261 5.496506
v -1.456736 2.885146 5.500626
v -1.452623 2.881764 5.499521
v -0.582267 2.793839 5.089251
v -0.579123 2.796145 5.085361
v -0.579123 2.796145 5.085361
v -0.577022 2.800174 5.082224
v -0.576285 2.805311 5.080316
v -0.579123 2.796145 5.085361
v -0.577022 2.800174 5.082224
v -0.576285 2.805311 5.080316
v -1.451551 2.793839 5.089251
v -1.451551 2.793839 5.089251
v -1.454696 2.796145 5.085361
v -1.454696 2.796145 5.085361
v -1.456797 2.800174 5.082224
v -1.457534 2.805311 5.080316
v -1.454696 2.796145 5.085361
v -1.454696 2.796145 5.085361
v -1.456797 2.800174 5.082224
v -1.457534 2.805311 5.080316
v -0.582278 2.882122 5.501184
v -0.579129 2.885823 5.503778
v -0.579129 2.885823 5.503778
v -0.577024 2.890789 5.504972
v -0.576285 2.896256 5.504585
v -0.579129 2.885823 5.503778
v -0.577024 2.890789 5.504972
v -0.576285 2.896256 5.504585
v -1.451540 2.882122 5.501184
v -1.454690 2.885823 5.503778
v -1.454690 2.885823 5.503778
v -1.456795 2.890789 5.504972
v -1.457534 2.896256 5.504585
v -1.454690 2.885823 5.503778
v -1.456795 2.890789 5.504972
v -1.457534 2.896256 5.504585
v -1.448020 2.810919 5.074853
v -0.585798 2.810919 5.074853
v -1.448020 2.903602 5.507243
v -0.585798 2.903602 5.507243
v -0.572344 2.813890 5.088717
v -0.572344 2.900630 5.493380
v -1.461475 2.813890 5.088717
v -1.461475 2.900630 5.493380
v -0.580650 2.811145 5.075908
v -0.576285 2.811789 5.078913
v -0.576285 2.811789 5.078913
v -0.573368 2.812752 5.083411
v -0.572344 2.813890 5.088717
v -1.460451 2.812752 5.083411
v -1.457534 2.811789 5.078913
v -1.457534 2.811789 5.078913
v -1.453169 2.811145 5.075908
v -1.448020 2.810919 5.074853
v -0.573368 2.901768 5.498685
v -0.576285 2.902732 5.503183
v -0.576285 2.902732 5.503183
v -0.580650 2.903377 5.506188
v -1.448020 2.903602 5.507243
v -1.453169 2.903377 5.506188
v -1.457534 2.902732 5.503183
v -1.457534 2.902732 5.503183
v -1.460451 2.901768 5.498685
v -1.461475 2.900630 5.493380
v -1.447841 2.793606 5.093303
v -0.585977 2.793606 5.093303
v -1.460451 2.901768 5.498685
v -1.392704 2.897310 5.477887
v -1.457534 2.902732 5.503183
v -1.457534 2.902732 5.503183
v -1.392704 2.897310 5.477887
v -1.453169 2.903377 5.506188
v -1.453169 2.903377 5.506188
v -1.392704 2.897310 5.477887
v -1.448020 2.903602 5.507243
v -1.448020 2.903602 5.507243
v -1.392704 2.897310 5.477887
v -0.585798 2.903602 5.507243
v -0.641114 2.897310 5.477887
v -0.585798 2.903602 5.507243
v -0.641114 2.897310 5.477887
v -0.580650 2.903377 5.506188
v -0.580650 2.903377 5.506188
v -0.641114 2.897310 5.477887
v -0.576285 2.902732 5.503183
v -0.576285 2.902732 5.503183
v -0.641114 2.897310 5.477887
v -0.573368 2.901768 5.498685
v -0.573368 2.901768 5.498685
v -0.641114 2.897310 5.477887
v -0.572344 2.900630 5.493380
v -0.572344 2.900630 5.493380
v -0.641114 2.897310 5.477887
v -0.572344 2.813890 5.088717
v -0.641114 2.817210 5.104209
v -0.572344 2.813890 5.088717
v -0.641114 2.817210 5.104209
v -0.573368 2.812752 5.083411
v -0.573368 2.812752 5.083411
v -0.641114 2.817210 5.104209
v -0.576285 2.811789 5.078913
v -0.576285 2.811789 5.078913
v -0.641114 2.817210 5.104209
v -0.580650 2.811145 5.075908
v -0.580650 2.811145 5.075908
v -0.641114 2.817210 5.104209
v -0.585798 2.810919 5.074853
v -0.585798 2.810919 5.074853
v -0.641114 2.817210 5.104209
v -1.448020 2.810919 5.074853
v -1.392704 2.817210 5.104209
v -1.448020 2.810919 5.074853
v -1.392704 2.817210 5.104209
v -1.453169 2.811145 5.075908
v -1.453169 2.811145 5.075908
v -1.392704 2.817210 5.104209
v -1.457534 2.811789 5.078913
v -1.457534 2.811789 5.078913
v -1.392704 2.817210 5.104209
v -1.460451 2.812752 5.083411
v -1.460451 2.812752 5.083411
v -1.392704 2.817210 5.104209
v -1.461475 2.813890 5.088717
v -1.461475 2.813890 5.088717
v -1.392704 2.817210 5.104209
v -1.461475 2.900630 5.493380
v -1.392704 2.897310 5.477887
v -1.461475 2.900630 5.493380
v -1.392704 2.897310 5.477887
v -1.460451 2.901768 5.498685
v -0.572344 0.986979 0.433363
v -0.573368 0.991893 0.431062
v -0.573368 0.984575 0.428498
v -0.574332 0.989204 0.426331
v -0.576284 0.982344 0.424464
v -0.577078 0.986162 0.422677
v -0.576284 0.982344 0.424464
v -0.577078 0.986162 0.422677
v -0.580648 0.980627 0.421874
v -0.581188 0.983230 0.420657
v -0.585977 0.980777 0.420613
v -0.585977 0.980777 0.420613
v -0.585992 0.606209 0.595683
v -0.580648 0.980627 0.421874
v -0.580651 0.607264 0.596382
v -0.580651 0.607264 0.596382
v -0.576284 0.982344 0.424464
v -0.576285 0.608161 0.599356
v -0.576284 0.982344 0.424464
v -0.576285 0.608161 0.599356
v -0.573368 0.984575 0.428498
v -0.573368 0.609844 0.603647
v -0.572344 0.986979 0.433363
v -0.572344 0.612056 0.608603
v -0.585992 0.606209 0.595683
v -0.581196 0.604663 0.597598
v -0.577082 0.604345 0.601141
v -0.577082 0.604345 0.601141
v -0.574333 0.605215 0.605814
v -0.573368 0.607142 0.610904
v -0.583886 0.985814 0.419448
v -0.586615 0.986333 0.419206
v -0.586186 0.991800 0.420038
v -0.582185 0.991040 0.420393
v -0.586186 0.991800 0.420038
v -0.582185 0.991040 0.420393
v -0.585899 0.996535 0.422896
v -0.581049 0.995615 0.423327
v -0.585798 0.999818 0.427347
v -0.580650 0.998841 0.427805
v -1.448020 0.999818 0.427347
v -1.447919 0.996535 0.422896
v -1.447633 0.991800 0.420038
v -1.447633 0.991800 0.420038
v -1.447203 0.986333 0.419206
v -1.447841 0.980777 0.420613
v -1.448020 0.999818 0.427347
v -1.453169 0.998841 0.427805
v -1.447919 0.996535 0.422896
v -1.452770 0.995615 0.423327
v -1.447633 0.991800 0.420038
v -1.451633 0.991040 0.420393
v -1.451633 0.991040 0.420393
v -1.449932 0.985814 0.419448
v -0.585798 0.599217 0.614619
v -0.580650 0.600194 0.614161
v -0.585899 0.597887 0.609248
v -0.581050 0.598807 0.608816
v -0.586187 0.598716 0.603776
v -0.582189 0.599475 0.603421
v -0.586187 0.598716 0.603776
v -0.582189 0.599475 0.603421
v -0.586618 0.601579 0.599041
v -0.583894 0.602095 0.598799
v -1.447826 0.606209 0.595683
v -1.447201 0.601579 0.599041
v -1.447201 0.601579 0.599041
v -1.447631 0.598716 0.603776
v -1.447631 0.598716 0.603776
v -1.447919 0.597887 0.609248
v -1.448020 0.599217 0.614619
v -1.447826 0.606209 0.595683
v -1.449924 0.602095 0.598799
v -1.447201 0.601579 0.599041
v -1.447631 0.598716 0.603776
v -1.451629 0.599475 0.603421
v -1.447631 0.598716 0.603776
v -1.451629 0.599475 0.603421
v -1.447919 0.597887 0.609248
v -1.452769 0.598807 0.608816
v -1.448020 0.599217 0.614619
v -1.453169 0.600194 0.614161
v -1.452631 0.983230 0.420657
v -1.453170 0.980627 0.421874
v -1.453170 0.980627 0.421874
v -1.452631 0.983230 0.420657
v -1.457535 0.982344 0.424464
v -1.456741 0.986162 0.422677
v -1.457535 0.982344 0.424464
v -1.456741 0.986162 0.422677
v -1.460451 0.984575 0.428498
v -1.459486 0.989204 0.426331
v -1.461475 0.986979 0.433363
v -1.460451 0.991893 0.431062
v -1.461475 0.612056 0.608603
v -1.460450 0.609844 0.603647
v -1.457533 0.608161 0.599356
v -1.457533 0.608161 0.599356
v -1.453168 0.607264 0.596382
v -1.453168 0.607264 0.596382
v -1.461475 0.612056 0.608603
v -1.460451 0.607142 0.610904
v -1.460450 0.609844 0.603647
v -1.459485 0.605215 0.605814
v -1.457533 0.608161 0.599356
v -1.456736 0.604345 0.601141
v -1.457533 0.608161 0.599356
v -1.456736 0.604345 0.601141
v -1.452623 0.604663 0.597598
v -0.582267 0.984778 0.419933
v -0.579123 0.989086 0.421308
v -0.579123 0.989086 0.421308
v -0.577022 0.993047 0.424530
v -0.576285 0.996058 0.429110
v -0.579123 0.989086 0.421308
v -0.577022 0.993047 0.424530
v -0.576285 0.996058 0.429110
v -1.451551 0.984778 0.419933
v -1.451551 0.984778 0.419933
v -1.454696 0.989086 0.421308
v -1.454696 0.989086 0.421308
v -1.456797 0.993047 0.424530
v -1.457534 0.996058 0.429110
v -1.454696 0.989086 0.421308
v -1.454696 0.989086 0.421308
v -1.456797 0.993047 0.424530
v -1.457534 0.996058 0.429110
v -0.582278 0.603123 0.598318
v -0.579129 0.601425 0.602508
v -0.579129 0.601425 0.602508
v -0.577024 0.601374 0.607614
v -0.576285 0.602977 0.612856
v -0.579129 0.601425 0.602508
v -0.577024 0.601374 0.607614
v -0.576285 0.602977 0.612856
v -1.451540 0.603123 0.598318
v -1.454690 0.601425 0.602508
v -1.454690 0.601425 0.602508
v -1.456795 0.601374 0.607614
v -1.457534 0.602977 0.612856
v -1.454690 0.601425 0.602508
v -1.456795 0.601374 0.607614
v -1.457534 0.602977 0.612856
v -1.448020 1.002639 0.433349
v -0.585798 1.002639 0.433349
v -1.448020 0.602034 0.620611
v -0.585798 0.602034 0.620611
v -0.572344 0.989794 0.439353
v -0.572344 0.614878 0.614607
v -1.461475 0.989794 0.439353
v -1.461475 0.614878 0.614607
v -0.580650 1.001661 0.433806
v -0.576285 0.998877 0.435107
v -0.576285 0.998877 0.435107
v -0.573368 0.994710 0.437055
v -0.572344 0.989794 0.439353
v -1.460451 0.994710 0.437055
v -1.457534 0.998877 0.435107
v -1.457534 0.998877 0.435107
v -1.453169 1.001661 0.433806
v -1.448020 1.002639 0.433349
v -0.573368 0.609963 0.616905
v -0.576285 0.605796 0.618853
v -0.576285 0.605796 0.618853
v -0.580650 0.603011 0.620154
v -1.448020 0.602034 0.620611
v -1.453169 0.603011 0.620154
v -1.457534 0.605796 0.618853
v -1.457534 0.605796 0.618853
v -1.460451 0.609963 0.616905
v -1.461475 0.614878 0.614607
v -1.447841 0.980777 0.420613
v -0.585977 0.980777 0.420613
v -1.460451 0.609963 0.616905
v -1.392704 0.629232 0.607898
v -1.457534 0.605796 0.618853
v -1.457534 0.605796 0.618853
v -1.392704 0.629232 0.607898
v -1.453169 0.603011 0.620154
v -1.453169 0.603011 0.620154
v -1.392704 0.629232 0.607898
v -1.448020 0.602034 0.620611
v -1.448020 0.602034 0.620611
v -1.392704 0.629232 0.607898
v -0.585798 0.602034 0.620611
v -0.641114 0.629232 0.607898
v -0.585798 0.602034 0.620611
v -0.641114 0.629232 0.607898
v -0.580650 0.603011 0.620154
v -0.580650 0.603011 0.620154
v -0.641114 0.629232 0.607898
v -0.576285 0.605796 0.618853
v -0.576285 0.605796 0.618853
v -0.641114 0.629232 0.607898
v -0.573368 0.609963 0.616905
v -0.573368 0.609963 0.616905
v -0.641114 0.629232 0.607898
v -0.572344 0.614878 0.614607
v -0.572344 0.614878 0.614607
v -0.641114 0.629232 0.607898
v -0.572344 0.989794 0.439353
v -0.641114 0.975441 0.446062
v -0.572344 0.989794 0.439353
v -0.641114 0.975441 0.446062
v -0.573368 0.994710 0.437055
v -0.573368 0.994710 0.437055
v -0.641114 0.975441 0.446062
v -0.576285 0.998877 0.435107
v -0.576285 0.998877 0.435107
v -0.641114 0.975441 0.446062
v -0.580650 1.001661 0.433806
v -0.580650 1.001661 0.433806
v -0.641114 0.975441 0.446062
v -0.585798 1.002639 0.433349
v -0.585798 1.002639 0.433349
v -0.641114 0.975441 0.446062
v -1.448020 1.002639 0.433349
v -1.392704 0.975441 0.446062
v -1.448020 1.002639 0.433349
v -1.392704 0.975441 0.446062
v -1.453169 1.001661 0.433806
v -1.453169 1.001661 0.433806
v -1.392704 0.975441 0.446062
v -1.457534 0.998877 0.435107
v -1.457534 0.998877 0.435107
v -1.392704 0.975441 0.446062
v -1.460451 0.994710 0.437055
v -1.460451 0.994710 0.437055
v -1.392704 0.975441 0.446062
v -1.461475 0.989794 0.439353
v -1.461475 0.989794 0.439353
v -1.392704 0.975441 0.446062
v -1.461475 0.614878 0.614607
v -1.392704 0.629232 0.607898
v -1.461475 0.614878 0.614607
v -1.392704 0.629232 0.607898
v -1.460451 0.609963 0.616905
v -1.392704 2.897310 5.477887
v -1.392704 2.817210 5.104209
v -0.641114 2.897310 5.477887
v -0.641114 2.817210 5.104209
v -1.392704 2.897310 5.477887
v -0.641114 2.897310 5.477887
v -1.392704 2.817210 5.104209
v -0.641114 2.817210 5.104209
vn -0.0000 0.8868 0.4622
vn -0.0000 0.8869 0.4620
vn -0.0001 0.8870 0.4618
vn -0.0000 0.8867 0.4623
vn -0.0000 0.8868 0.4621
vn -0.0000 0.8866 0.4624
vn -0.0000 0.8870 0.4618
vn 0.0001 0.8869 0.4621
vn -0.0000 0.8867 0.4624
vn -0.0000 0.8870 0.4619
vn -0.0000 0.9778 -0.2095
vn -0.0000 0.9778 -0.2096
vn 0.0001 0.9778 -0.2098
vn -0.0000 0.9778 -0.2094
vn -0.0000 0.9777 -0.2098
vn -0.0001 0.9778 -0.2097
vn -0.0000 0.4235 0.9059
vn 0.0001 0.4233 0.9060
vn -0.0001 0.4233 0.9060
vn -0.0000 0.4231 0.9061
vn -0.0000 0.4234 0.9059
vn 0.6776 -0.0184 -0.7352
vn 0.7015 -0.4627 -0.5420
vn 0.5430 -0.3501 -0.7633
vn 0.8721 -0.1564 -0.4637
vn 0.7313 -0.6051 -0.3147
vn 0.9329 -0.3185 -0.1681
vn 0.7316 -0.6057 -0.3129
vn 0.9327 -0.3210 -0.1645
vn 0.7011 -0.7098 -0.0686
vn 0.8722 -0.4688 0.1396
vn 0.5433 -0.8257 0.1519
vn 0.6783 -0.6119 0.4068
vn 0.9279 -0.2418 0.2838
vn 0.7230 -0.3918 0.5690
vn 0.7258 -0.3158 0.6111
vn 0.9310 -0.1672 0.3246
vn 0.9965 -0.0753 -0.0352
vn 1.0000 -0.0003 0.0019
vn 1.0000 0.0007 -0.0018
vn 0.9966 -0.0723 -0.0407
vn 0.9276 0.0923 -0.3620
vn 0.9310 0.1672 -0.3246
vn 0.7231 0.2387 -0.6482
vn 0.7258 0.3158 -0.6111
vn -0.6775 -0.0184 -0.7353
vn -0.2879 -0.2850 -0.9143
vn -0.5432 -0.3502 -0.7631
vn -0.3685 0.0713 -0.9269
vn -0.0000 -0.2936 -0.9559
vn -0.0001 0.0916 -0.9958
vn -0.0000 -0.2938 -0.9559
vn -0.0000 0.0915 -0.9958
vn 0.2880 -0.2851 -0.9142
vn 0.3685 0.0713 -0.9269
vn 0.5431 -0.3501 -0.7632
vn 0.6775 -0.0184 -0.7353
vn 0.3980 0.3425 -0.8511
vn 0.7230 0.2387 -0.6482
vn 0.7257 0.3159 -0.6112
vn 0.3995 0.4213 -0.8142
vn -0.0000 0.3794 -0.9252
vn -0.0000 0.4588 -0.8885
vn -0.0000 0.4599 -0.8880
vn -0.3980 0.3424 -0.8511
vn -0.3995 0.4212 -0.8142
vn -0.7231 0.2386 -0.6482
vn -0.7257 0.3159 -0.6112
vn 0.6782 -0.6119 0.4069
vn 0.2882 -0.9120 0.2919
vn 0.5432 -0.8257 0.1520
vn 0.3687 -0.7169 0.5917
vn -0.0000 -0.9511 0.3089
vn -0.0000 -0.7623 0.6472
vn -0.0000 -0.9511 0.3088
vn -0.0000 -0.7624 0.6471
vn -0.2882 -0.9120 0.2918
vn -0.3688 -0.7168 0.5918
vn -0.5432 -0.8257 0.1519
vn -0.6782 -0.6119 0.4069
vn -0.3977 -0.4972 0.7711
vn -0.7229 -0.3918 0.5691
vn -0.7257 -0.3159 0.6112
vn -0.3995 -0.4212 0.8142
vn -0.0001 -0.5362 0.8441
vn -0.0000 -0.4588 0.8886
vn -0.0000 -0.4600 0.8879
vn -0.0000 -0.5362 0.8441
vn 0.3977 -0.4972 0.7711
vn 0.3995 -0.4213 0.8142
vn 0.7229 -0.3917 0.5692
vn 0.7256 -0.3160 0.6113
vn -0.6783 -0.6119 0.4068
vn -0.7011 -0.7098 -0.0685
vn -0.5434 -0.8256 0.1519
vn -0.8722 -0.4688 0.1396
vn -0.7316 -0.6057 -0.3129
vn -0.9327 -0.3210 -0.1645
vn -0.7313 -0.6051 -0.3147
vn -0.9329 -0.3185 -0.1681
vn -0.7015 -0.4627 -0.5420
vn -0.8721 -0.1564 -0.4637
vn -0.5431 -0.3502 -0.7632
vn -0.6776 -0.0185 -0.7352
vn -0.9276 0.0923 -0.3620
vn -0.7231 0.2387 -0.6482
vn -0.9310 0.1672 -0.3246
vn -0.9966 -0.0723 -0.0407
vn -1.0000 0.0004 -0.0020
vn -1.0000 -0.0007 0.0018
vn -0.9965 -0.0752 -0.0352
vn -0.9279 -0.2417 0.2838
vn -0.9310 -0.1672 0.3246
vn -0.7230 -0.3917 0.5691
vn -0.7258 -0.3159 0.6111
vn -0.0000 0.8869 0.4619
vn 0.3919 -0.8997 0.1922
vn 0.7015 -0.7021 -0.1225
vn 0.7313 -0.6669 0.1433
vn 0.4587 -0.8884 0.0187
vn 0.5430 -0.7564 -0.3647
vn 0.3547 -0.9239 -0.1436
vn 0.2878 -0.8026 -0.5225
vn 0.1803 -0.9530 -0.2437
vn -0.0001 -0.8358 -0.5490
vn 0.0001 -0.9851 -0.1721
vn 0.0001 -0.8358 -0.5491
vn -0.0000 -0.9851 -0.1721
vn -0.2879 -0.8026 -0.5225
vn -0.1801 -0.9530 -0.2437
vn -0.5430 -0.7564 -0.3647
vn -0.3545 -0.9239 -0.1437
vn -0.0000 -0.9782 0.2075
vn -0.4587 -0.8884 0.0188
vn -0.3918 -0.8998 0.1922
vn -0.3920 -0.8993 0.1939
vn -0.0001 -0.9771 0.2130
vn -0.4583 -0.8170 0.3501
vn -0.7009 -0.5907 0.3997
vn -0.7315 -0.6662 0.1451
vn -0.5432 -0.5394 0.6434
vn -0.3549 -0.7840 0.5093
vn -0.2881 -0.5166 0.8063
vn -0.1802 -0.7690 0.6133
vn 0.0001 -0.5359 0.8443
vn -0.0000 -0.8277 0.5611
vn 0.3917 -0.8998 0.1921
vn -0.0000 -0.9771 0.2130
vn 0.0001 -0.9782 0.2075
vn 0.3920 -0.8993 0.1940
vn 0.3919 -0.8997 0.1921
vn 0.7315 -0.6662 0.1451
vn 0.9329 -0.3526 0.0735
vn 0.7316 -0.6661 0.1451
vn 0.7313 -0.6668 0.1433
vn 0.9327 -0.3522 0.0779
vn 0.7010 -0.5906 0.3997
vn 0.8722 -0.2722 0.4064
vn 0.5433 -0.5394 0.6434
vn 0.6783 -0.2121 0.7035
vn 0.9279 -0.0053 0.3728
vn 0.7230 0.0610 0.6881
vn 0.7257 0.1463 0.6722
vn 0.9309 0.0781 0.3567
vn 0.9965 -0.0805 0.0208
vn 1.0000 0.0010 0.0018
vn 1.0000 -0.0010 -0.0017
vn 0.9965 -0.0817 0.0148
vn -0.0000 -0.5643 -0.8255
vn -0.0001 -0.8357 -0.5492
vn -0.0000 -0.8357 -0.5491
vn 0.2880 -0.8025 -0.5226
vn 0.3685 -0.5360 -0.7595
vn 0.5430 -0.7563 -0.3649
vn 0.6775 -0.4830 -0.5547
vn 0.3980 -0.2787 -0.8740
vn 0.7230 -0.2295 -0.6516
vn 0.7256 -0.1464 -0.6724
vn 0.3994 -0.1945 -0.8959
vn -0.0000 -0.2976 -0.9547
vn -0.0000 -0.2112 -0.9774
vn -0.0000 -0.2115 -0.9774
vn -0.0000 -0.2975 -0.9547
vn -0.0000 -0.9770 0.2130
vn -0.0000 -0.8278 0.5610
vn 0.1801 -0.7690 0.6134
vn 0.2881 -0.5166 0.8063
vn -0.0000 -0.5358 0.8443
vn -0.0000 -0.5359 0.8443
vn 0.5432 -0.5393 0.6435
vn 0.3549 -0.7840 0.5093
vn 0.7011 -0.5905 0.3997
vn 0.4583 -0.8170 0.3500
vn 0.3920 -0.8993 0.1939
vn -0.0001 -0.1748 0.9846
vn -0.2881 -0.5167 0.8062
vn 0.0001 -0.5358 0.8444
vn -0.3688 -0.1751 0.9129
vn -0.5432 -0.5393 0.6435
vn -0.6782 -0.2121 0.7036
vn -0.3976 0.1086 0.9111
vn -0.7229 0.0610 0.6883
vn -0.7257 0.1463 0.6723
vn -0.3995 0.1946 0.8958
vn -0.0000 0.1250 0.9922
vn -0.0001 0.2130 0.9771
vn -0.9327 -0.3522 0.0778
vn -0.7313 -0.6668 0.1434
vn -0.7316 -0.6661 0.1451
vn -0.9329 -0.3526 0.0735
vn -0.7016 -0.7020 -0.1225
vn -0.8721 -0.4161 -0.2576
vn -0.5432 -0.7563 -0.3647
vn -0.6776 -0.4829 -0.5547
vn -0.9276 -0.1597 -0.3377
vn -0.7232 -0.2294 -0.6514
vn -0.7258 -0.1463 -0.6721
vn -0.9309 -0.0782 -0.3567
vn -0.9965 -0.0817 0.0147
vn -1.0000 -0.0010 -0.0017
vn -1.0000 0.0010 0.0017
vn -0.9965 -0.0804 0.0208
vn -0.3920 -0.8997 0.1921
vn -0.3920 -0.8993 0.1940
vn -0.7312 -0.6669 0.1434
vn -0.4589 -0.8883 0.0187
vn -0.7014 -0.7022 -0.1225
vn -0.3549 -0.9238 -0.1436
vn -0.5429 -0.7565 -0.3647
vn 0.6776 -0.4829 -0.5546
vn 0.7015 -0.7020 -0.1225
vn 0.5433 -0.7562 -0.3647
vn 0.8720 -0.4162 -0.2576
vn 0.9329 -0.3525 0.0735
vn 0.9276 -0.1597 -0.3377
vn 0.9966 -0.0816 0.0147
vn 1.0000 -0.0010 -0.0018
vn 0.9310 -0.0782 -0.3566
vn 0.7232 -0.2294 -0.6514
vn 0.7258 -0.1464 -0.6721
vn -0.6775 -0.4830 -0.5547
vn -0.2879 -0.8024 -0.5227
vn -0.5430 -0.7564 -0.3648
vn -0.3684 -0.5360 -0.7596
vn 0.0001 -0.8357 -0.5492
vn -0.3980 -0.2787 -0.8740
vn -0.0001 -0.2977 -0.9547
vn -0.3993 -0.1945 -0.8959
vn -0.7230 -0.2294 -0.6517
vn -0.7255 -0.1463 -0.6724
vn 0.6782 -0.2121 0.7036
vn 0.5433 -0.5391 0.6436
vn 0.3688 -0.1751 0.9129
vn -0.0000 -0.1748 0.9846
vn -0.0000 -0.1747 0.9846
vn -0.0000 0.1249 0.9922
vn -0.0000 0.1251 0.9921
vn -0.0000 0.2117 0.9773
vn -0.0000 0.2131 0.9770
vn 0.3977 0.1085 0.9111
vn 0.3994 0.1944 0.8959
vn 0.7229 0.0611 0.6882
vn 0.7257 0.1463 0.6723
vn -0.7010 -0.5906 0.3997
vn -0.8722 -0.2721 0.4064
vn -0.7316 -0.6661 0.1452
vn -0.9327 -0.3522 0.0779
vn -0.9279 -0.0053 0.3727
vn -0.9965 -0.0805 0.0210
vn -1.0000 0.0010 0.0019
vn -0.9310 0.0781 0.3567
vn -0.7230 0.0610 0.6882
vn -0.0000 -0.9782 0.2076
vn -0.0000 0.9779 -0.2092
vn -0.0000 0.9779 -0.2093
vn 0.3918 -0.3890 -0.8338
vn 0.7014 -0.0380 -0.7117
vn 0.7312 -0.2892 -0.6178
vn 0.4587 -0.2174 -0.8616
vn 0.5430 0.1858 -0.8189
vn 0.3548 -0.0672 -0.9325
vn 0.2880 0.3293 -0.8992
vn 0.1802 0.0238 -0.9833
vn -0.0000 0.3477 -0.9376
vn -0.0000 -0.0532 -0.9986
vn -0.2879 0.3293 -0.8993
vn -0.1802 0.0238 -0.9833
vn -0.5429 0.1859 -0.8189
vn -0.3548 -0.0672 -0.9325
vn -0.0000 -0.4215 -0.9068
vn -0.4586 -0.2174 -0.8616
vn -0.3918 -0.3890 -0.8338
vn -0.3920 -0.3906 -0.8329
vn -0.0001 -0.4266 -0.9044
vn -0.4583 -0.5243 -0.7177
vn -0.7010 -0.5219 -0.4861
vn -0.7315 -0.2908 -0.6167
vn -0.5432 -0.7480 -0.3814
vn -0.3548 -0.6721 -0.6499
vn -0.2882 -0.9016 -0.3227
vn -0.1802 -0.7701 -0.6120
vn -0.0000 -0.9429 -0.3329
vn -0.0000 -0.7324 -0.6809
vn 0.3917 -0.3890 -0.8338
vn -0.0000 -0.4266 -0.9044
vn 0.3920 -0.3906 -0.8329
vn 0.3921 -0.3906 -0.8329
vn 0.7315 -0.2908 -0.6167
vn 0.9329 -0.1507 -0.3271
vn 0.7317 -0.2907 -0.6166
vn 0.7313 -0.2892 -0.6177
vn 0.9327 -0.1549 -0.3258
vn 0.7011 -0.5219 -0.4859
vn 0.8722 -0.4571 -0.1741
vn 0.5432 -0.7480 -0.3813
vn 0.6783 -0.7332 -0.0489
vn 0.9279 -0.3645 0.0784
vn 0.7230 -0.6570 0.2137
vn 0.7257 -0.6223 0.2933
vn 0.9309 -0.3301 0.1561
vn 0.9965 -0.0383 -0.0737
vn 1.0000 -0.0015 0.0013
vn 1.0000 0.0014 -0.0013
vn 0.9965 -0.0327 -0.0763
vn -0.0000 0.6781 -0.7350
vn -0.0000 0.3479 -0.9375
vn -0.0000 0.3478 -0.9376
vn 0.2880 0.3294 -0.8992
vn 0.3685 0.6200 -0.6927
vn 0.5430 0.1860 -0.8189
vn 0.6775 0.4323 -0.5950
vn 0.3980 0.7893 -0.4676
vn 0.7230 0.5836 -0.3696
vn 0.7256 0.6224 -0.2933
vn 0.3993 0.8295 -0.3904
vn -0.0000 0.8637 -0.5040
vn -0.0000 0.9052 -0.4249
vn -0.0000 0.9050 -0.4254
vn -0.0000 -0.4267 -0.9044
vn 0.1802 -0.7701 -0.6119
vn 0.2881 -0.9016 -0.3228
vn -0.0000 -0.9429 -0.3331
vn 0.3548 -0.6721 -0.6499
vn 0.7010 -0.5220 -0.4859
vn 0.4583 -0.5243 -0.7177
vn -0.0000 -0.9987 0.0504
vn -0.2881 -0.9016 -0.3227
vn -0.0000 -0.9430 -0.3328
vn -0.3688 -0.9289 0.0341
vn -0.5431 -0.7481 -0.3812
vn -0.6782 -0.7332 -0.0489
vn -0.3977 -0.8636 0.3100
vn -0.7229 -0.6571 0.2138
vn -0.7256 -0.6224 0.2933
vn -0.3995 -0.8294 0.3904
vn -0.0002 -0.9389 0.3443
vn -0.0000 -0.9044 0.4266
vn -0.9327 -0.1548 -0.3258
vn -0.7313 -0.2892 -0.6177
vn -0.7316 -0.2907 -0.6166
vn -0.9329 -0.1507 -0.3271
vn -0.7015 -0.0380 -0.7116
vn -0.8721 0.1577 -0.4633
vn -0.5431 0.1859 -0.8188
vn -0.6776 0.4323 -0.5950
vn -0.9276 0.2933 -0.2314
vn -0.7231 0.5835 -0.3696
vn -0.7258 0.6223 -0.2933
vn -0.9309 0.3302 -0.1561
vn -0.9966 -0.0326 -0.0763
vn -1.0000 0.0015 -0.0014
vn -1.0000 -0.0014 0.0014
vn -0.9965 -0.0383 -0.0737
vn -0.7312 -0.2892 -0.6178
vn -0.4588 -0.2174 -0.8615
vn -0.7014 -0.0380 -0.7117
vn -0.3549 -0.0672 -0.9325
vn -0.5430 0.1858 -0.8189
vn 0.6776 0.4322 -0.5950
vn 0.7015 -0.0380 -0.7117
vn 0.5432 0.1859 -0.8188
vn 0.8721 0.1577 -0.4633
vn 0.7313 -0.2891 -0.6177
vn 0.9329 -0.1506 -0.3271
vn 0.9276 0.2933 -0.2314
vn 1.0000 0.0015 -0.0013
vn 0.9310 0.3300 -0.1561
vn 0.7232 0.5835 -0.3696
vn 0.7258 0.6223 -0.2933
vn -0.6775 0.4323 -0.5951
vn -0.2880 0.3294 -0.8992
vn -0.5430 0.1860 -0.8189
vn -0.3685 0.6200 -0.6927
vn -0.0001 0.6780 -0.7350
vn -0.3980 0.7893 -0.4676
vn -0.0001 0.8637 -0.5041
vn -0.0002 0.9052 -0.4249
vn -0.3994 0.8295 -0.3904
vn -0.7230 0.5836 -0.3696
vn -0.7256 0.6224 -0.2934
vn 0.6782 -0.7333 -0.0489
vn 0.2882 -0.9016 -0.3226
vn 0.3688 -0.9289 0.0341
vn -0.0000 -0.9987 0.0507
vn -0.0000 -0.9389 0.3442
vn -0.0000 -0.9389 0.3443
vn -0.0000 -0.9050 0.4254
vn 0.3977 -0.8636 0.3100
vn 0.3995 -0.8294 0.3904
vn 0.7229 -0.6571 0.2138
vn 0.7257 -0.6224 0.2933
vn -0.6783 -0.7332 -0.0489
vn -0.7011 -0.5219 -0.4859
vn -0.5433 -0.7480 -0.3813
vn -0.8722 -0.4571 -0.1741
vn -0.7316 -0.2908 -0.6165
vn -0.9327 -0.1549 -0.3258
vn -0.9279 -0.3645 0.0784
vn -0.9965 -0.0384 -0.0737
vn -1.0000 -0.0016 0.0014
vn -0.9310 -0.3300 0.1561
vn -0.7230 -0.6569 0.2138
vn -0.7258 -0.6223 0.2933
vn -0.0000 0.4230 0.9061
vn 0.3918 -0.8157 -0.4257
vn 0.7013 -0.4630 -0.5421
vn 0.7312 -0.6052 -0.3148
vn 0.4587 -0.6964 -0.5520
vn 0.5430 -0.3501 -0.7632
vn 0.3549 -0.6203 -0.6995
vn 0.2879 -0.2852 -0.9142
vn 0.1803 -0.5789 -0.7952
vn -0.0001 -0.2938 -0.9559
vn -0.0000 -0.6492 -0.7606
vn -0.0000 -0.2937 -0.9559
vn -0.2880 -0.2852 -0.9142
vn -0.1803 -0.5788 -0.7953
vn -0.5430 -0.3502 -0.7632
vn -0.3548 -0.6202 -0.6996
vn -0.7014 -0.4628 -0.5420
vn -0.4587 -0.6964 -0.5520
vn -0.7312 -0.6052 -0.3148
vn -0.3917 -0.8157 -0.4256
vn -0.7315 -0.6058 -0.3129
vn -0.3921 -0.8164 -0.4239
vn -0.7010 -0.7099 -0.0686
vn -0.4584 -0.8525 -0.2512
vn -0.5432 -0.8258 0.1519
vn -0.3548 -0.9288 -0.1074
vn -0.2882 -0.9121 0.2916
vn -0.1801 -0.9835 -0.0178
vn 0.0001 -0.9511 0.3088
vn -0.0000 -0.9954 -0.0955
vn -0.0001 -0.9511 0.3088
vn 0.2881 -0.9121 0.2917
vn 0.1802 -0.9835 -0.0178
vn 0.3549 -0.9287 -0.1074
vn 0.7010 -0.7099 -0.0686
vn 0.4583 -0.8526 -0.2511
vn 0.7315 -0.6058 -0.3129
vn 0.3920 -0.8165 -0.4239
vn -0.0000 -0.8885 -0.4588
vn -0.0000 -0.8859 -0.4638
vn -0.0001 -0.8885 -0.4588
vn -0.0000 -0.9778 0.2096
vt 0.006252 0.958862
vt 0.032776 0.923096
vt 0.010971 0.962006
vt 0.003099 0.954132
vt 0.001991 0.948578
vt 0.003099 0.010742
vt 0.032776 0.041992
vt 0.001991 0.016602
vt 0.006252 0.006348
vt 0.010971 0.002930
vt 0.016541 0.001953
vt 0.446777 0.002930
vt 0.424805 0.041992
vt 0.441162 0.001953
vt 0.451416 0.006348
vt 0.454590 0.010742
vt 0.455566 0.016602
vt 0.454590 0.954132
vt 0.424805 0.923096
vt 0.455566 0.948578
vt 0.451416 0.958862
vt 0.446777 0.962006
vt 0.441162 0.963104
vt 0.016541 0.963104
vt -0.000236 1.366455
vt 0.048859 1.300293
vt 0.008492 1.372070
vt -0.006069 1.357666
vt -0.008118 1.347412
vt -0.006069 -0.386719
vt 0.048859 -0.329102
vt -0.008118 -0.376953
vt -0.000236 -0.395508
vt 0.008492 -0.401367
vt 0.018784 -0.403320
vt 0.814453 -0.401367
vt 0.773926 -0.329102
vt 0.804199 -0.403320
vt 0.823242 -0.395508
vt 0.829102 -0.386719
vt 0.831055 -0.376953
vt 1.874023 -0.357422
vt 2.054688 -0.310547
vt 1.871094 -0.357422
vt 1.876953 -0.359375
vt 1.878906 -0.362305
vt 1.879883 -0.366211
vt 0.018784 1.374268
vt 0.970703 0.449219
vt 0.975098 0.443359
vt 0.975098 0.446777
vt 0.970703 0.444824
vt 0.975098 0.438965
vt 0.970703 0.439453
vt 0.975098 0.015625
vt 0.970215 0.015137
vt 0.975098 0.011230
vt 0.970215 0.009766
vt 0.975098 0.007812
vt 0.970215 0.005371
vt 0.964844 0.009277
vt 0.964844 0.004883
vt 0.958008 0.004883
vt 0.958008 0.009277
vt 0.964844 0.015137
vt 0.958008 0.015137
vt 0.958008 0.439453
vt 0.964844 0.439453
vt 0.964844 0.445312
vt 0.958008 0.445312
vt 0.964844 0.449707
vt 0.958008 0.449707
vt 0.924805 0.955414
vt 0.929688 0.949829
vt 0.929688 0.953156
vt 0.924805 0.951080
vt 0.929688 0.945526
vt 0.924805 0.945831
vt 0.929688 0.014160
vt 0.924805 0.014160
vt 0.929688 0.009766
vt 0.924805 0.008789
vt 0.929688 0.006836
vt 0.924805 0.004395
vt 0.919434 0.008301
vt 0.919434 0.003418
vt 0.912598 0.003418
vt 0.912598 0.008301
vt 0.919434 0.013672
vt 0.912598 0.013672
vt 0.912598 0.945923
vt 0.919434 0.945923
vt 0.919434 0.951508
vt 0.912598 0.951508
vt 0.919434 0.956207
vt 0.912598 0.956207
vt 0.939941 0.003906
vt 0.935059 0.009277
vt 0.935059 0.005859
vt 0.939941 0.007812
vt 0.935059 0.013672
vt 0.939941 0.013184
vt 0.935059 0.944855
vt 0.939941 0.945190
vt 0.935059 0.949188
vt 0.939941 0.950409
vt 0.935059 0.952484
vt 0.939941 0.954773
vt 0.945312 0.950867
vt 0.945312 0.955566
vt 0.952148 0.955566
vt 0.952148 0.950867
vt 0.945312 0.945282
vt 0.952148 0.945282
vt 0.952148 0.013184
vt 0.945312 0.013184
vt 0.945312 0.007812
vt 0.952148 0.007812
vt 0.945312 0.002930
vt 0.952148 0.002930
vt 0.993164 0.447266
vt 0.997559 0.441406
vt 0.997559 0.444824
vt 0.993164 0.442871
vt 0.997559 0.437012
vt 0.993164 0.437500
vt 0.998047 0.013672
vt 0.993164 0.013184
vt 0.998047 0.009277
vt 0.993164 0.007812
vt 0.998047 0.005859
vt 0.993164 0.003418
vt 0.987793 0.007324
vt 0.987793 0.002930
vt 0.980957 0.002930
vt 0.980957 0.007324
vt 0.987793 0.013184
vt 0.980957 0.013184
vt 0.980469 0.437500
vt 0.987305 0.437500
vt 0.987305 0.442871
vt 0.980469 0.442871
vt 0.987305 0.447754
vt 0.980469 0.447754
vt 0.863281 -0.393555
vt 0.854492 -0.400391
vt 0.862793 -0.402344
vt 0.857910 -0.392578
vt 0.848633 -0.396484
vt 0.854980 -0.389648
vt 0.844238 -0.390625
vt 0.852539 -0.386719
vt 0.842773 -0.381836
vt 0.851562 -0.381836
vt 0.842773 1.340088
vt 0.851562 1.339355
vt 0.844238 1.348145
vt 0.852539 1.344727
vt 0.848633 1.354248
vt 0.854980 1.347900
vt 0.862305 1.340576
vt 0.857910 1.350098
vt 0.863281 1.351318
vt 1.645508 1.351318
vt 1.646484 1.340576
vt 1.651367 1.350098
vt 1.654297 1.358398
vt 1.646484 1.359863
vt 1.660156 1.354248
vt 1.654297 1.347900
vt 1.664062 1.348145
vt 1.656250 1.344727
vt 1.666016 1.340088
vt 1.657227 1.339355
vt 0.862305 -0.382812
vt 1.122070 -0.906250
vt 1.097656 -0.339844
vt 1.097656 -0.714844
vt 1.091797 -0.340820
vt 1.087891 -0.339844
vt 0.916504 0.402344
vt 0.908203 -0.381836
vt 0.907715 0.401855
vt 0.916992 -0.382812
vt 0.908203 -0.389648
vt 0.916992 -0.392578
vt 0.908203 -0.396484
vt 0.916992 -0.400391
vt 0.927246 -0.392578
vt 0.927246 -0.401367
vt 0.939941 -0.401367
vt 0.939941 -0.392578
vt 0.927246 -0.382812
vt 0.939941 -0.382812
vt 0.939453 0.402832
vt 0.926758 0.402832
vt 1.934570 -0.293945
vt 1.112305 -0.289062
vt 1.934570 -0.289062
vt 1.112305 -0.293945
vt 1.108398 -0.289062
vt 1.107422 -0.293945
vt 1.105469 -0.289062
vt 1.103516 -0.293945
vt 1.107422 -0.298828
vt 1.103516 -0.298828
vt 1.103516 -0.304688
vt 1.107422 -0.304688
vt 1.112305 -0.298828
vt 1.112305 -0.304688
vt 1.935547 -0.304688
vt 1.935547 -0.298828
vt 1.991211 -0.346680
vt 1.097656 -0.334961
vt 1.991211 -0.351562
vt 1.094727 -0.334961
vt 1.093750 -0.331055
vt 1.097656 -0.331055
vt 1.991211 -0.355469
vt 1.090820 -0.333008
vt 1.093750 -0.335938
vt 1.088867 -0.335938
vt 1.092773 -0.337891
vt 1.732422 1.341309
vt 1.724609 1.348633
vt 1.724609 1.340576
vt 1.732422 1.350830
vt 1.724609 1.354736
vt 1.732422 1.358887
vt 1.743164 1.351807
vt 1.743164 1.360352
vt 1.755859 1.360352
vt 1.755859 1.351807
vt 1.743164 1.341309
vt 1.755859 1.341309
vt 0.871582 0.398438
vt 0.862305 -0.385742
vt 0.862793 0.397949
vt 0.871094 -0.385742
vt 0.862305 -0.393555
vt 0.871094 -0.395508
vt 0.862305 -0.399414
vt 0.871094 -0.404297
vt 0.881348 -0.396484
vt 0.881348 -0.405273
vt 0.894043 -0.405273
vt 0.894043 -0.396484
vt 0.881348 -0.386719
vt 0.894043 -0.386719
vt 0.894043 0.398926
vt 0.881836 0.398926
vt 2.048828 -0.043945
vt 2.052734 -0.299805
vt 2.052734 -0.043945
vt 2.048828 -0.299805
vt 2.052734 -0.301758
vt 2.050781 -0.302734
vt 2.052734 -0.302734
vt 2.050781 -0.304688
vt 1.792969 0.419922
vt 1.801758 0.409668
vt 1.801758 0.416016
vt 1.792969 0.412109
vt 1.801758 0.401855
vt 1.792969 0.402344
vt 1.783203 0.413086
vt 1.783203 0.402832
vt 1.770508 0.402832
vt 1.770508 0.413086
vt 1.783203 0.421387
vt 1.770508 0.421875
vt 1.701172 1.356934
vt 1.709961 1.346680
vt 1.709961 1.352783
vt 1.701172 1.348877
vt 1.709961 1.338623
vt 1.701172 1.339355
vt 1.691406 1.349854
vt 1.691406 1.339355
vt 1.678711 1.339355
vt 1.678711 1.349854
vt 1.691406 1.358398
vt 1.678711 1.358398
vt 0.976562 -0.400391
vt 0.985352 -0.389648
vt 0.985352 -0.395508
vt 0.976562 -0.391602
vt 0.985352 -0.381836
vt 0.976562 -0.382812
vt 0.985352 1.340576
vt 0.976562 1.341309
vt 0.966309 -0.382812
vt 0.966309 1.341309
vt 0.953613 -0.382812
vt 0.953613 1.341309
vt 0.966309 -0.392578
vt 0.953613 -0.392578
vt 0.966309 -0.401367
vt 0.953613 -0.401367
vt 1.837891 0.416504
vt 1.846680 0.406250
vt 1.846680 0.412109
vt 1.837891 0.408203
vt 1.846680 0.397949
vt 1.837891 0.398438
vt 1.828125 0.409180
vt 1.828125 0.398926
vt 1.815430 0.398926
vt 1.815430 0.409180
vt 1.828125 0.417969
vt 1.815430 0.417969
vt 1.919922 -0.713867
vt 0.831055 1.347412
vt 0.773926 1.300293
vt 2.031250 -0.064453
vt 2.054688 -0.074219
vt 0.472412 0.007812
vt 0.467773 0.003906
vt 0.472168 0.002930
vt 0.469482 0.008301
vt 0.464355 0.006348
vt 0.467773 0.009766
vt 0.462158 0.009277
vt 0.466553 0.011230
vt 0.461426 0.013672
vt 0.466064 0.014160
vt 0.461426 0.945038
vt 0.466064 0.944580
vt 0.462158 0.949371
vt 0.466553 0.947510
vt 0.464355 0.952667
vt 0.467773 0.949280
vt 0.467773 0.954895
vt 0.469482 0.950439
vt 0.472168 0.955750
vt 0.472412 0.951019
vt 0.895996 0.955750
vt 0.895508 0.951019
vt 0.899902 0.954865
vt 0.898438 0.950439
vt 0.903320 0.952667
vt 0.899902 0.949249
vt 0.905762 0.949341
vt 0.901367 0.947510
vt 0.906250 0.945038
vt 0.901855 0.944580
vt 0.906250 0.013672
vt 0.901855 0.014160
vt 0.905762 0.009277
vt 0.901367 0.011230
vt 0.903320 0.006348
vt 0.899902 0.009766
vt 0.899902 0.003906
vt 0.898438 0.008301
vt 0.895996 0.002930
vt 0.895508 0.007812
vt 0.895996 0.013672
vt 0.471924 0.013672
vt 0.471924 0.945251
vt 0.895996 0.945251
vt -2.375000 1.410400
vt -2.664062 1.654785
vt -2.664062 1.410400
vt -2.375000 1.654785
s 1
f 143/1/1 142/2/1 141/3/1
f 146/4/2 145/2/2 144/1/2
f 149/5/3 148/2/3 147/4/3
f 156/6/4 155/7/4 154/8/4
f 159/9/2 158/7/2 157/6/2
f 162/10/1 161/7/1 160/9/1
f 165/11/5 164/7/5 163/10/5
f 172/12/6 171/13/6 170/14/6
f 175/15/7 174/13/7 173/12/7
f 178/16/4 177/13/4 176/15/4
f 181/17/8 180/13/8 179/16/8
f 188/18/9 187/19/9 186/20/9
f 191/21/10 190/19/10 189/18/10
f 194/22/7 193/19/7 192/21/7
f 197/23/2 196/19/2 195/22/2
f 204/3/5 203/2/5 202/24/5
f 380/25/11 379/26/11 378/27/11
f 383/28/12 382/26/12 381/25/12
f 386/29/11 385/26/11 384/28/11
f 393/30/13 392/31/13 391/32/13
f 396/33/11 395/31/11 394/30/11
f 399/34/12 398/31/12 397/33/12
f 402/35/14 401/31/14 400/34/14
f 409/36/11 408/37/11 407/38/11
f 412/39/12 411/37/12 410/36/12
f 415/40/12 414/37/12 413/39/12
f 418/41/15 417/37/15 416/40/15
f 425/42/11 424/43/11 423/44/11
f 428/45/12 427/43/12 426/42/12
f 431/46/12 430/43/12 429/45/12
f 434/47/12 433/43/12 432/46/12
f 441/27/16 440/26/16 439/48/16
f 617/25/17 616/26/17 615/27/17
f 620/28/18 619/26/18 618/25/18
f 623/29/17 622/26/17 621/28/17
f 630/30/17 629/31/17 628/32/17
f 633/33/19 632/31/19 631/30/19
f 636/34/17 635/31/17 634/33/17
f 639/35/20 638/31/20 637/34/20
f 646/36/17 645/37/17 644/38/17
f 649/39/17 648/37/17 647/36/17
f 652/40/20 651/37/20 650/39/20
f 655/41/21 654/37/21 653/40/21
f 662/42/21 661/43/21 660/44/21
f 665/45/21 664/43/21 663/42/21
f 668/46/20 667/43/20 666/45/20
f 671/47/17 670/43/17 669/46/17
f 678/27/20 677/26/20 676/48/20
f 91/49/22 6/50/23 90/51/24
f 4/52/25 6/50/23 91/49/22
f 6/50/23 4/52/25 5/53/26
f 3/54/27 5/53/26 4/52/25
f 5/53/26 3/54/27 15/55/28
f 16/56/29 15/55/28 3/54/27
f 15/55/28 16/56/29 20/57/30
f 21/58/31 20/57/30 16/56/29
f 20/57/30 21/58/31 103/59/32
f 103/59/32 21/58/31 104/60/33
f 22/61/34 104/60/33 21/58/31
f 104/60/33 22/61/34 105/62/35
f 105/62/35 22/61/34 134/63/36
f 134/63/36 22/61/34 133/64/37
f 17/65/38 133/64/37 22/61/34
f 133/64/37 17/65/38 122/66/39
f 122/66/39 17/65/38 121/67/40
f 1/68/41 121/67/40 17/65/38
f 2/69/42 121/67/40 1/68/41
f 121/67/40 2/69/42 128/70/43
f 92/71/44 128/70/43 2/69/42
f 128/70/43 92/71/44 127/72/45
f 4/52/25 92/71/44 2/69/42
f 92/71/44 4/52/25 91/49/22
f 2/69/42 3/54/27 4/52/25
f 1/68/41 3/54/27 2/69/42
f 3/54/27 1/68/41 16/56/29
f 17/65/38 16/56/29 1/68/41
f 16/56/29 17/65/38 21/58/31
f 22/61/34 21/58/31 17/65/38
f 99/73/46 41/74/47 98/75/48
f 40/76/49 41/74/47 99/73/46
f 41/74/47 40/76/49 35/77/50
f 34/78/51 35/77/50 40/76/49
f 35/77/50 34/78/51 27/79/52
f 29/80/53 27/79/52 34/78/51
f 27/79/52 29/80/53 28/81/54
f 30/82/55 28/81/54 29/80/53
f 28/81/54 30/82/55 87/83/56
f 87/83/56 30/82/55 88/84/57
f 32/85/58 88/84/57 30/82/55
f 88/84/57 32/85/58 89/86/59
f 89/86/59 32/85/58 126/87/60
f 126/87/60 32/85/58 125/88/61
f 31/89/62 125/88/61 32/85/58
f 125/88/61 31/89/62 118/90/63
f 118/90/63 31/89/62 117/91/64
f 33/92/62 117/91/64 31/89/62
f 39/93/65 117/91/64 33/92/62
f 117/91/64 39/93/65 132/94/66
f 100/95/67 132/94/66 39/93/65
f 132/94/66 100/95/67 131/96/68
f 40/76/49 100/95/67 39/93/65
f 100/95/67 40/76/49 99/73/46
f 39/93/65 34/78/51 40/76/49
f 33/92/62 34/78/51 39/93/65
f 34/78/51 33/92/62 29/80/53
f 31/89/62 29/80/53 33/92/62
f 29/80/53 31/89/62 30/82/55
f 32/85/58 30/82/55 31/89/62
f 107/97/69 49/98/70 106/99/71
f 47/100/72 49/98/70 107/97/69
f 49/98/70 47/100/72 48/101/73
f 46/102/74 48/101/73 47/100/72
f 48/101/73 46/102/74 57/103/75
f 58/104/76 57/103/75 46/102/74
f 57/103/75 58/104/76 62/105/77
f 63/106/78 62/105/77 58/104/76
f 62/105/77 63/106/78 111/107/79
f 111/107/79 63/106/78 112/108/80
f 64/109/81 112/108/80 63/106/78
f 112/108/80 64/109/81 113/110/82
f 113/110/82 64/109/81 138/111/83
f 138/111/83 64/109/81 137/112/84
f 59/113/85 137/112/84 64/109/81
f 137/112/84 59/113/85 119/114/86
f 119/114/86 59/113/85 120/115/87
f 44/116/88 120/115/87 59/113/85
f 45/117/89 120/115/87 44/116/88
f 120/115/87 45/117/89 136/118/90
f 108/119/91 136/118/90 45/117/89
f 136/118/90 108/119/91 135/120/92
f 47/100/72 108/119/91 45/117/89
f 108/119/91 47/100/72 107/97/69
f 45/117/89 46/102/74 47/100/72
f 44/116/88 46/102/74 45/117/89
f 46/102/74 44/116/88 58/104/76
f 59/113/85 58/104/76 44/116/88
f 58/104/76 59/113/85 63/106/78
f 64/109/81 63/106/78 59/113/85
f 115/121/93 82/122/94 114/123/95
f 81/124/96 82/122/94 115/121/93
f 82/122/94 81/124/96 77/125/97
f 76/126/98 77/125/97 81/124/96
f 77/125/97 76/126/98 69/127/99
f 71/128/100 69/127/99 76/126/98
f 69/127/99 71/128/100 70/129/101
f 72/130/102 70/129/101 71/128/100
f 70/129/101 72/130/102 95/131/103
f 95/131/103 72/130/102 96/132/104
f 74/133/105 96/132/104 72/130/102
f 96/132/104 74/133/105 97/134/106
f 97/134/106 74/133/105 130/135/68
f 130/135/68 74/133/105 129/136/107
f 73/137/108 129/136/107 74/133/105
f 129/136/107 73/137/108 123/138/109
f 123/138/109 73/137/108 124/139/110
f 75/140/111 124/139/110 73/137/108
f 80/141/112 124/139/110 75/140/111
f 124/139/110 80/141/112 140/142/113
f 116/143/114 140/142/113 80/141/112
f 140/142/113 116/143/114 139/144/115
f 81/124/96 116/143/114 80/141/112
f 116/143/114 81/124/96 115/121/93
f 80/141/112 76/126/98 81/124/96
f 75/140/111 76/126/98 80/141/112
f 76/126/98 75/140/111 71/128/100
f 73/137/108 71/128/100 75/140/111
f 71/128/100 73/137/108 72/130/102
f 74/133/105 72/130/102 73/137/108
f 152/8/116 151/2/116 150/5/116
f 151/2/116 152/8/116 153/7/116
f 168/14/4 167/7/4 166/11/1
f 167/7/4 168/14/4 169/13/1
f 184/20/1 183/13/116 182/17/116
f 183/13/116 184/20/1 185/19/116
f 200/24/4 199/19/116 198/23/116
f 199/19/116 200/24/4 201/2/116
f 213/145/117 212/146/118 211/147/119
f 214/148/120 212/146/118 213/145/117
f 212/146/118 214/148/120 315/149/121
f 314/150/122 315/149/121 214/148/120
f 315/149/121 314/150/122 238/151/123
f 235/152/124 238/151/123 314/150/122
f 238/151/123 235/152/124 237/153/125
f 236/154/126 237/153/125 235/152/124
f 237/153/125 236/154/126 248/155/127
f 249/156/128 248/155/127 236/154/126
f 248/155/127 249/156/128 257/157/129
f 258/158/130 257/157/129 249/156/128
f 257/157/129 258/158/130 328/159/131
f 328/159/131 258/158/130 322/160/132
f 250/161/133 322/160/132 258/158/130
f 322/160/132 250/161/133 287/162/134
f 287/162/134 250/161/133 288/163/135
f 288/163/135 250/161/133 304/164/136
f 276/165/137 304/164/136 250/161/133
f 313/166/138 304/164/136 276/165/137
f 312/167/139 304/164/136 313/166/138
f 304/164/136 312/167/139 311/168/140
f 313/166/138 341/169/141 312/167/139
f 340/170/142 341/169/141 313/166/138
f 341/169/141 340/170/142 280/171/143
f 277/172/144 280/171/143 340/170/142
f 280/171/143 277/172/144 279/173/145
f 279/173/145 277/172/144 278/174/146
f 278/174/146 277/172/144 276/165/137
f 340/170/142 276/165/137 277/172/144
f 276/165/137 340/170/142 313/166/138
f 215/175/133 214/148/120 213/145/117
f 214/148/120 215/175/133 314/150/122
f 314/150/122 215/175/133 235/152/124
f 235/152/124 215/175/133 236/154/126
f 236/154/126 215/175/133 249/156/128
f 250/161/133 249/156/128 215/175/133
f 249/156/128 250/161/133 258/158/130
f 218/176/147 217/177/148 216/178/149
f 217/177/148 218/176/147 219/179/150
f 221/176/119 220/179/150 218/176/151
f 220/179/150 221/176/119 222/180/152
f 225/181/153 224/182/154 223/183/155
f 226/184/156 224/182/154 225/181/153
f 224/182/154 226/184/156 232/185/157
f 233/186/158 232/185/157 226/184/156
f 232/185/157 233/186/158 334/187/159
f 334/187/159 233/186/158 335/188/160
f 234/189/161 335/188/160 233/186/158
f 335/188/160 234/189/161 336/190/162
f 336/190/162 234/189/161 367/191/163
f 367/191/163 234/189/161 366/192/164
f 228/193/165 366/192/164 234/189/161
f 366/192/164 228/193/165 353/194/166
f 353/194/166 228/193/165 352/195/167
f 352/195/167 228/193/165 227/196/168
f 226/184/156 227/196/168 228/193/165
f 227/196/168 226/184/156 225/181/153
f 228/193/165 233/186/158 226/184/156
f 233/186/158 228/193/165 234/189/161
f 246/197/169 239/198/170 247/199/171
f 241/200/169 239/198/170 246/197/169
f 239/198/170 241/200/169 240/201/172
f 242/202/173 240/201/172 241/200/169
f 240/201/172 242/202/173 316/203/174
f 316/203/174 242/202/173 317/204/175
f 244/205/176 317/204/175 242/202/173
f 317/204/175 244/205/176 318/206/177
f 318/206/177 244/205/176 357/207/178
f 357/207/178 244/205/176 356/208/179
f 243/209/180 356/208/179 244/205/176
f 356/208/179 243/209/180 349/210/181
f 349/210/181 243/209/180 348/211/182
f 348/211/182 243/209/180 245/212/183
f 241/200/169 245/212/183 243/209/180
f 245/212/183 241/200/169 246/197/169
f 243/209/180 242/202/173 241/200/169
f 242/202/173 243/209/180 244/205/176
f 269/213/184 267/214/146 270/215/185
f 229/177/184 267/214/146 269/213/184
f 268/216/186 267/214/146 229/177/184
f 266/217/187 267/214/146 268/216/186
f 265/218/188 267/214/146 266/217/187
f 267/214/146 265/218/188 271/215/146
f 272/219/189 271/215/146 265/218/188
f 268/216/186 333/220/190 266/217/187
f 332/221/191 333/220/190 268/216/186
f 333/220/190 332/221/191 231/222/192
f 230/223/193 231/222/192 332/221/191
f 231/222/192 230/223/193 222/180/152
f 222/180/152 230/223/193 219/179/194
f 219/179/194 230/223/193 229/177/184
f 332/221/191 229/177/184 230/223/193
f 229/177/184 332/221/191 268/216/186
f 283/224/195 282/225/196 281/226/197
f 284/227/198 282/225/196 283/224/195
f 282/225/196 284/227/198 342/228/199
f 342/228/199 284/227/198 343/229/200
f 286/230/201 343/229/200 284/227/198
f 343/229/200 286/230/201 344/231/202
f 344/231/202 286/230/201 372/232/203
f 372/232/203 286/230/201 371/233/204
f 285/234/205 371/233/204 286/230/201
f 371/233/204 285/234/205 370/235/206
f 284/227/198 285/234/205 286/230/201
f 285/234/205 284/227/198 283/224/195
f 300/236/207 293/237/208 301/238/209
f 295/239/210 293/237/208 300/236/207
f 293/237/208 295/239/210 294/240/211
f 296/241/212 294/240/211 295/239/210
f 294/240/211 296/241/212 325/242/213
f 325/242/213 296/241/212 326/243/214
f 298/244/215 326/243/214 296/241/212
f 326/243/214 298/244/215 327/245/216
f 327/245/216 298/244/215 362/246/217
f 362/246/217 298/244/215 361/247/218
f 297/248/219 361/247/218 298/244/215
f 361/247/218 297/248/219 354/249/220
f 354/249/220 297/248/219 355/250/221
f 355/250/221 297/248/219 299/251/222
f 295/239/210 299/251/222 297/248/219
f 299/251/222 295/239/210 300/236/207
f 297/248/219 296/241/212 295/239/210
f 296/241/212 297/248/219 298/244/215
f 302/252/140 289/253/223 303/254/224
f 291/255/225 289/253/223 302/252/140
f 289/253/223 291/255/225 290/256/226
f 292/257/227 290/256/226 291/255/225
f 290/256/226 292/257/227 323/258/228
f 324/259/229 323/258/228 292/257/227
f 320/260/230 210/261/231 319/262/232
f 208/263/233 210/261/231 320/260/230
f 210/261/231 208/263/233 209/264/155
f 209/264/155 208/263/233 207/265/234
f 206/266/235 207/265/234 208/263/233
f 207/265/234 206/266/235 205/267/236
f 205/267/236 206/266/235 360/268/237
f 360/268/237 206/266/235 359/269/238
f 321/270/239 359/269/238 206/266/235
f 359/269/238 321/270/239 358/271/240
f 208/263/233 321/270/239 206/266/235
f 321/270/239 208/263/233 320/260/230
f 330/272/241 256/273/242 329/274/243
f 254/275/244 256/273/242 330/272/241
f 256/273/242 254/275/244 255/276/245
f 255/276/245 254/275/244 253/277/169
f 252/278/246 253/277/169 254/275/244
f 253/277/169 252/278/246 251/279/247
f 251/279/247 252/278/246 365/280/181
f 365/280/181 252/278/246 364/281/248
f 331/282/249 364/281/248 252/278/246
f 364/281/248 331/282/249 363/283/250
f 254/275/244 331/282/249 252/278/246
f 331/282/249 254/275/244 330/272/241
f 338/284/251 264/285/187 337/286/252
f 262/287/253 264/285/187 338/284/251
f 264/285/187 262/287/253 263/288/189
f 261/289/254 263/288/189 262/287/253
f 263/288/189 261/289/254 273/290/189
f 273/290/189 261/289/254 274/291/255
f 259/292/256 274/291/255 261/289/254
f 274/291/255 259/292/256 275/293/257
f 351/294/258 275/293/257 259/292/256
f 275/293/257 351/294/258 350/295/259
f 260/296/260 351/294/258 259/292/256
f 351/294/258 260/296/260 369/297/261
f 339/298/262 369/297/261 260/296/260
f 369/297/261 339/298/262 368/299/263
f 262/287/253 339/298/262 260/296/260
f 339/298/262 262/287/253 338/284/251
f 260/296/260 261/289/254 262/287/253
f 261/289/254 260/296/260 259/292/256
f 346/300/200 310/301/264 345/302/199
f 308/303/265 310/301/264 346/300/200
f 310/301/264 308/303/265 309/304/266
f 309/304/266 308/303/265 307/305/267
f 306/306/268 307/305/267 308/303/265
f 307/305/267 306/306/268 305/307/269
f 305/307/269 306/306/268 375/308/270
f 375/308/270 306/306/268 374/309/271
f 347/310/272 374/309/271 306/306/268
f 374/309/271 347/310/272 373/311/203
f 308/303/265 347/310/272 306/306/268
f 347/310/272 308/303/265 346/300/200
f 376/312/133 229/177/184 269/213/184
f 229/177/184 376/312/133 377/178/273
f 389/32/12 388/26/12 387/29/12
f 388/26/12 389/32/12 390/31/12
f 405/38/12 404/31/12 403/35/12
f 404/31/12 405/38/12 406/37/12
f 421/313/12 420/37/12 419/41/12
f 420/37/12 421/313/12 422/314/274
f 437/315/12 436/43/12 435/47/12
f 436/43/12 437/315/12 438/316/275
f 450/145/276 449/146/277 448/147/278
f 451/148/279 449/146/277 450/145/276
f 449/146/277 451/148/279 552/149/280
f 551/150/281 552/149/280 451/148/279
f 552/149/280 551/150/281 475/151/282
f 472/152/283 475/151/282 551/150/281
f 475/151/282 472/152/283 474/153/284
f 473/154/285 474/153/284 472/152/283
f 474/153/284 473/154/285 485/155/284
f 486/156/285 485/155/284 473/154/285
f 485/155/284 486/156/285 494/157/286
f 495/158/287 494/157/286 486/156/285
f 494/157/286 495/158/287 565/159/288
f 565/159/288 495/158/287 559/160/289
f 487/161/290 559/160/289 495/158/287
f 559/160/289 487/161/290 524/162/291
f 524/162/291 487/161/290 525/163/292
f 525/163/292 487/161/290 541/164/293
f 513/165/294 541/164/293 487/161/290
f 550/166/295 541/164/293 513/165/294
f 549/167/296 541/164/293 550/166/295
f 541/164/293 549/167/296 548/168/297
f 550/166/295 578/169/298 549/167/296
f 577/170/299 578/169/298 550/166/295
f 578/169/298 577/170/299 517/171/300
f 514/172/301 517/171/300 577/170/299
f 517/171/300 514/172/301 516/173/302
f 516/173/302 514/172/301 515/174/303
f 515/174/303 514/172/301 513/165/294
f 577/170/299 513/165/294 514/172/301
f 513/165/294 577/170/299 550/166/295
f 452/175/290 451/148/279 450/145/276
f 451/148/279 452/175/290 551/150/281
f 551/150/281 452/175/290 472/152/283
f 472/152/283 452/175/290 473/154/285
f 473/154/285 452/175/290 486/156/285
f 487/161/290 486/156/285 452/175/290
f 486/156/285 487/161/290 495/158/287
f 455/176/304 454/177/305 453/178/290
f 454/177/305 455/176/304 456/179/306
f 458/176/278 457/179/307 455/176/276
f 457/179/307 458/176/278 459/180/308
f 462/181/309 461/182/310 460/183/311
f 463/184/312 461/182/310 462/181/309
f 461/182/310 463/184/312 469/185/313
f 470/186/314 469/185/313 463/184/312
f 469/185/313 470/186/314 571/187/315
f 571/187/315 470/186/314 572/188/316
f 471/189/317 572/188/316 470/186/314
f 572/188/316 471/189/317 573/190/318
f 573/190/318 471/189/317 604/191/319
f 604/191/319 471/189/317 603/192/320
f 465/193/321 603/192/320 471/189/317
f 603/192/320 465/193/321 590/194/322
f 590/194/322 465/193/321 589/195/323
f 589/195/323 465/193/321 464/196/324
f 463/184/312 464/196/324 465/193/321
f 464/196/324 463/184/312 462/181/309
f 465/193/321 470/186/314 463/184/312
f 470/186/314 465/193/321 471/189/317
f 483/197/325 476/198/326 484/199/327
f 478/200/325 476/198/326 483/197/325
f 476/198/326 478/200/325 477/201/328
f 479/202/329 477/201/328 478/200/325
f 477/201/328 479/202/329 553/203/330
f 553/203/330 479/202/329 554/204/331
f 481/205/332 554/204/331 479/202/329
f 554/204/331 481/205/332 555/206/333
f 555/206/333 481/205/332 594/207/334
f 594/207/334 481/205/332 593/208/335
f 480/209/336 593/208/335 481/205/332
f 593/208/335 480/209/336 586/210/337
f 586/210/337 480/209/336 585/211/338
f 585/211/338 480/209/336 482/212/336
f 478/200/325 482/212/336 480/209/336
f 482/212/336 478/200/325 483/197/325
f 480/209/336 479/202/329 478/200/325
f 479/202/329 480/209/336 481/205/332
f 506/213/339 504/214/303 507/215/303
f 466/177/339 504/214/303 506/213/339
f 505/216/340 504/214/303 466/177/339
f 503/217/341 504/214/303 505/216/340
f 502/218/342 504/214/303 503/217/341
f 504/214/303 502/218/342 508/215/303
f 509/219/342 508/215/303 502/218/342
f 505/216/340 570/220/315 503/217/341
f 569/221/343 570/220/315 505/216/340
f 570/220/315 569/221/343 468/222/344
f 467/223/345 468/222/344 569/221/343
f 468/222/344 467/223/345 459/180/308
f 459/180/308 467/223/345 456/179/306
f 456/179/306 467/223/345 466/177/339
f 569/221/343 466/177/339 467/223/345
f 466/177/339 569/221/343 505/216/340
f 520/224/346 519/225/347 518/226/348
f 521/227/349 519/225/347 520/224/346
f 519/225/347 521/227/349 579/228/350
f 579/228/350 521/227/349 580/229/351
f 523/230/352 580/229/351 521/227/349
f 580/229/351 523/230/352 581/231/353
f 581/231/353 523/230/352 609/232/354
f 609/232/354 523/230/352 608/233/355
f 522/234/356 608/233/355 523/230/352
f 608/233/355 522/234/356 607/235/357
f 521/227/349 522/234/356 523/230/352
f 522/234/356 521/227/349 520/224/346
f 537/236/358 530/237/359 538/238/360
f 532/239/361 530/237/359 537/236/358
f 530/237/359 532/239/361 531/240/362
f 533/241/363 531/240/362 532/239/361
f 531/240/362 533/241/363 562/242/364
f 562/242/364 533/241/363 563/243/365
f 535/244/366 563/243/365 533/241/363
f 563/243/365 535/244/366 564/245/367
f 564/245/367 535/244/366 599/246/368
f 599/246/368 535/244/366 598/247/369
f 534/248/370 598/247/369 535/244/366
f 598/247/369 534/248/370 591/249/371
f 591/249/371 534/248/370 592/250/372
f 592/250/372 534/248/370 536/251/373
f 532/239/361 536/251/373 534/248/370
f 536/251/373 532/239/361 537/236/358
f 534/248/370 533/241/363 532/239/361
f 533/241/363 534/248/370 535/244/366
f 539/252/297 526/253/292 540/254/293
f 528/255/374 526/253/292 539/252/297
f 526/253/292 528/255/374 527/256/375
f 529/257/376 527/256/375 528/255/374
f 527/256/375 529/257/376 560/258/377
f 561/259/378 560/258/377 529/257/376
f 557/260/379 447/261/380 556/262/381
f 445/263/382 447/261/380 557/260/379
f 447/261/380 445/263/382 446/264/383
f 446/264/383 445/263/382 444/265/384
f 443/266/385 444/265/384 445/263/382
f 444/265/384 443/266/385 442/267/324
f 442/267/324 443/266/385 597/268/386
f 597/268/386 443/266/385 596/269/387
f 558/270/388 596/269/387 443/266/385
f 596/269/387 558/270/388 595/271/389
f 445/263/382 558/270/388 443/266/385
f 558/270/388 445/263/382 557/260/379
f 567/272/390 493/273/391 566/274/392
f 491/275/393 493/273/391 567/272/390
f 493/273/391 491/275/393 492/276/327
f 492/276/327 491/275/393 490/277/394
f 489/278/395 490/277/394 491/275/393
f 490/277/394 489/278/395 488/279/396
f 488/279/396 489/278/395 602/280/397
f 602/280/397 489/278/395 601/281/398
f 568/282/399 601/281/398 489/278/395
f 601/281/398 568/282/399 600/283/400
f 491/275/393 568/282/399 489/278/395
f 568/282/399 491/275/393 567/272/390
f 575/284/401 501/285/402 574/286/315
f 499/287/403 501/285/402 575/284/401
f 501/285/402 499/287/403 500/288/348
f 498/289/346 500/288/348 499/287/403
f 500/288/348 498/289/346 510/290/348
f 510/290/348 498/289/346 511/291/404
f 496/292/405 511/291/404 498/289/346
f 511/291/404 496/292/405 512/293/406
f 588/294/407 512/293/406 496/292/405
f 512/293/406 588/294/407 587/295/357
f 497/296/408 588/294/407 496/292/405
f 588/294/407 497/296/408 606/297/409
f 576/298/410 606/297/409 497/296/408
f 606/297/409 576/298/410 605/299/411
f 499/287/403 576/298/410 497/296/408
f 576/298/410 499/287/403 575/284/401
f 497/296/408 498/289/346 499/287/403
f 498/289/346 497/296/408 496/292/405
f 583/300/412 547/301/413 582/302/414
f 545/303/415 547/301/413 583/300/412
f 547/301/413 545/303/415 546/304/416
f 546/304/416 545/303/415 544/305/417
f 543/306/418 544/305/417 545/303/415
f 544/305/417 543/306/418 542/307/419
f 542/307/419 543/306/418 612/308/420
f 612/308/420 543/306/418 611/309/421
f 584/310/422 611/309/421 543/306/418
f 611/309/421 584/310/422 610/311/423
f 545/303/415 584/310/422 543/306/418
f 584/310/422 545/303/415 583/300/412
f 613/312/290 466/177/339 506/213/339
f 466/177/339 613/312/290 614/178/290
f 626/32/21 625/26/21 624/29/21
f 625/26/21 626/32/21 627/31/21
f 642/38/17 641/31/17 640/35/17
f 641/31/17 642/38/17 643/37/17
f 658/313/21 657/37/21 656/41/21
f 657/37/21 658/313/21 659/314/21
f 674/315/17 673/43/17 672/47/424
f 673/43/17 674/315/17 675/316/17
f 9/317/425 8/318/426 7/319/427
f 10/320/428 8/318/426 9/317/425
f 8/318/426 10/320/428 86/321/429
f 85/322/430 86/321/429 10/320/428
f 86/321/429 85/322/430 26/323/431
f 23/324/432 26/323/431 85/322/430
f 26/323/431 23/324/432 25/325/433
f 24/326/434 25/325/433 23/324/432
f 25/325/433 24/326/434 36/327/435
f 37/328/434 36/327/435 24/326/434
f 36/327/435 37/328/434 42/329/436
f 43/330/437 42/329/436 37/328/434
f 42/329/436 43/330/437 94/331/438
f 93/332/439 94/331/438 43/330/437
f 94/331/438 93/332/439 68/333/440
f 65/334/441 68/333/440 93/332/439
f 68/333/440 65/334/441 67/335/442
f 66/336/443 67/335/442 65/334/441
f 67/335/442 66/336/443 78/337/444
f 79/338/445 78/337/444 66/336/443
f 78/337/444 79/338/445 83/339/446
f 84/340/447 83/339/446 79/338/445
f 83/339/446 84/340/447 110/341/448
f 109/342/449 110/341/448 84/340/447
f 110/341/448 109/342/449 61/343/450
f 60/344/451 61/343/450 109/342/449
f 61/343/450 60/344/451 56/345/452
f 55/346/453 56/345/452 60/344/451
f 56/345/452 55/346/453 50/347/454
f 52/348/453 50/347/454 55/346/453
f 50/347/454 52/348/453 51/349/455
f 53/350/456 51/349/455 52/348/453
f 51/349/455 53/350/456 102/351/32
f 101/352/457 102/351/32 53/350/456
f 102/351/32 101/352/457 19/353/458
f 18/354/459 19/353/458 101/352/457
f 19/353/458 18/354/459 14/355/460
f 13/356/461 14/355/460 18/354/459
f 14/355/460 13/356/461 7/319/427
f 7/319/427 13/356/461 9/317/425
f 12/357/462 9/317/425 13/356/461
f 11/358/463 9/317/425 12/357/462
f 9/317/425 11/358/463 10/320/428
f 10/320/428 11/358/463 85/322/430
f 85/322/430 11/358/463 23/324/432
f 23/324/432 11/358/463 24/326/434
f 24/326/434 11/358/463 37/328/434
f 38/359/463 37/328/434 11/358/463
f 37/328/434 38/359/463 43/330/437
f 43/330/437 38/359/463 93/332/439
f 93/332/439 38/359/463 65/334/441
f 65/334/441 38/359/463 66/336/443
f 66/336/443 38/359/463 79/338/445
f 54/360/464 79/338/445 38/359/463
f 79/338/445 54/360/464 84/340/447
f 84/340/447 54/360/464 109/342/449
f 109/342/449 54/360/464 60/344/451
f 60/344/451 54/360/464 55/346/453
f 55/346/453 54/360/464 52/348/453
f 12/357/462 52/348/453 54/360/464
f 52/348/453 12/357/462 53/350/456
f 53/350/456 12/357/462 101/352/457
f 101/352/457 12/357/462 18/354/459
f 13/356/461 18/354/459 12/357/462
f 38/359/463 12/357/462 54/360/464
f 12/357/462 38/359/463 11/358/463
f 681/361/12 680/362/12 679/363/12
f 680/362/12 681/361/12 682/364/275
f 685/362/465 684/361/465 683/363/465
f 684/361/465 685/362/465 686/364/465
