# Blender 4.5.3 LTS
# www.blender.org
o w9a02_metal709
v -5.276262 0.550758 -1.347739
v -5.276262 0.535034 -1.351952
v -5.276262 0.246981 -1.347739
v -5.276262 0.262704 -1.351952
v -5.283998 0.317969 0.684816
v -5.283998 0.317969 1.369418
v -5.283998 0.320719 0.674555
v -5.283998 0.328230 0.667043
v -5.283998 0.320719 1.379679
v -5.283998 0.338491 0.664293
v -5.283998 0.328230 1.387191
v -5.283998 0.535053 0.664293
v -5.283998 0.338491 1.389940
v -5.283998 0.545314 0.667043
v -5.283998 0.535053 1.389940
v -5.283998 0.552826 0.674555
v -5.283998 0.545314 1.387191
v -5.283998 0.555575 0.684816
v -5.283998 0.552826 1.379679
v -5.283998 0.555575 1.369418
v -5.234996 0.338033 1.393419
v -5.234996 0.535511 1.393419
v -5.243395 0.338491 1.389940
v -5.243395 0.535053 1.389940
v -5.243395 0.338491 1.389940
v -5.243395 0.328230 1.387191
v -5.234996 0.338033 1.393419
v -5.234996 0.326429 1.390310
v -5.234996 0.535511 1.393419
v -5.234996 0.547115 1.390310
v -5.243395 0.535053 1.389940
v -5.243395 0.545314 1.387191
v -5.234996 0.547115 1.390310
v -5.234996 0.555945 1.381480
v -5.243395 0.545314 1.387191
v -5.243395 0.552826 1.379679
v -5.234996 0.555945 1.381480
v -5.234996 0.559054 1.369876
v -5.243395 0.552826 1.379679
v -5.243395 0.555575 1.369418
v -5.234996 0.559054 1.369876
v -5.234996 0.559054 0.684358
v -5.243395 0.555575 1.369418
v -5.243395 0.555575 0.684816
v -5.234996 0.559054 0.684358
v -5.234996 0.555945 0.672754
v -5.243395 0.555575 0.684816
v -5.243395 0.552826 0.674555
v -5.234996 0.555945 0.672754
v -5.234996 0.547115 0.663924
v -5.243395 0.552826 0.674555
v -5.243395 0.545314 0.667043
v -5.234996 0.547115 0.663924
v -5.234996 0.535511 0.660814
v -5.243395 0.545314 0.667043
v -5.243395 0.535053 0.664293
v -5.234996 0.535511 0.660814
v -5.234996 0.338033 0.660814
v -5.243395 0.535053 0.664293
v -5.243395 0.338491 0.664293
v -5.234996 0.338033 0.660814
v -5.234996 0.326429 0.663924
v -5.243395 0.338491 0.664293
v -5.243395 0.328230 0.667043
v -5.234996 0.326429 0.663924
v -5.234996 0.317599 0.672754
v -5.243395 0.328230 0.667043
v -5.243395 0.320719 0.674555
v -5.234996 0.317599 0.672754
v -5.234996 0.314490 0.684358
v -5.243395 0.320719 0.674555
v -5.243395 0.317969 0.684816
v -5.234996 0.314490 0.684358
v -5.234996 0.314490 1.369876
v -5.243395 0.317969 0.684816
v -5.243395 0.317969 1.369418
v -5.234996 0.314490 1.369876
v -5.234996 0.317599 1.381480
v -5.243395 0.317969 1.369418
v -5.243395 0.320719 1.379679
v -5.234996 0.317599 1.381480
v -5.234996 0.326429 1.390310
v -5.243395 0.320719 1.379679
v -5.243395 0.328230 1.387191
v -5.283998 0.535053 1.389940
v -5.283998 0.338491 1.389940
v -5.283998 0.545314 1.387191
v -5.283998 0.535053 1.389940
v -5.283998 0.338491 1.389940
v -5.283998 0.328230 1.387191
v -5.283998 0.552826 1.379679
v -5.283998 0.545314 1.387191
v -5.283998 0.317969 0.684816
v -5.283998 0.320719 0.674555
v -5.283998 0.317969 1.369418
v -5.283998 0.317969 0.684816
v -5.283998 0.320719 1.379679
v -5.283998 0.317969 1.369418
v -5.283998 0.328230 1.387191
v -5.283998 0.320719 1.379679
v -5.283998 0.555575 1.369418
v -5.283998 0.552826 1.379679
v -5.283998 0.555575 0.684816
v -5.283998 0.555575 1.369418
v -5.283998 0.552826 0.674555
v -5.283998 0.555575 0.684816
v -5.283998 0.545314 0.667043
v -5.283998 0.552826 0.674555
v -5.283998 0.535053 0.664293
v -5.283998 0.545314 0.667043
v -5.283998 0.338491 0.664293
v -5.283998 0.535053 0.664293
v -5.283998 0.328230 0.667043
v -5.283998 0.338491 0.664293
v -5.283998 0.320719 0.674555
v -5.283998 0.328230 0.667043
v -5.243395 0.535034 -0.240029
v -5.243395 0.262704 -0.240029
v -5.234996 0.535492 -0.236550
v -5.234996 0.262246 -0.236550
v -5.234996 0.535492 -0.236550
v -5.234996 0.552559 -0.241123
v -5.243395 0.535034 -0.240029
v -5.243395 0.550758 -0.244242
v -5.234996 0.552559 -0.241123
v -5.234996 0.565387 -0.253952
v -5.243395 0.550758 -0.244242
v -5.243395 0.562268 -0.255752
v -5.234996 0.565387 -0.253952
v -5.234996 0.569960 -0.271018
v -5.243395 0.562268 -0.255752
v -5.243395 0.566481 -0.271476
v -5.234996 0.569960 -0.271018
v -5.234996 0.569960 -1.320963
v -5.243395 0.566481 -0.271476
v -5.243395 0.566481 -1.320505
v -5.234996 0.569960 -1.320963
v -5.234996 0.565387 -1.338029
v -5.243395 0.566481 -1.320505
v -5.243395 0.562268 -1.336228
v -5.234996 0.565387 -1.338029
v -5.234996 0.552558 -1.350858
v -5.243395 0.562268 -1.336228
v -5.243395 0.550758 -1.347739
v -5.234996 0.552558 -1.350858
v -5.234996 0.535492 -1.355431
v -5.243395 0.550758 -1.347739
v -5.243395 0.535034 -1.351952
v -5.234996 0.535492 -1.355431
v -5.234996 0.262246 -1.355431
v -5.243395 0.535034 -1.351952
v -5.243395 0.262704 -1.351952
v -5.234996 0.262246 -1.355431
v -5.234996 0.245180 -1.350858
v -5.243395 0.262704 -1.351952
v -5.243395 0.246981 -1.347739
v -5.243395 0.262704 -0.240029
v -5.243395 0.246981 -0.244242
v -5.234996 0.262246 -0.236550
v -5.234996 0.245180 -0.241123
v -5.234996 0.245180 -1.350858
v -5.234996 0.232351 -1.338029
v -5.243395 0.246981 -1.347739
v -5.243395 0.235471 -1.336228
v -5.234996 0.232351 -1.338029
v -5.234996 0.227779 -1.320963
v -5.243395 0.235471 -1.336228
v -5.243395 0.231258 -1.320505
v -5.234996 0.227779 -1.320963
v -5.234996 0.227779 -0.271018
v -5.243395 0.231258 -1.320505
v -5.243395 0.231258 -0.271476
v -5.234996 0.227779 -0.271018
v -5.234996 0.232352 -0.253952
v -5.243395 0.231258 -0.271476
v -5.243395 0.235471 -0.255752
v -5.234996 0.232352 -0.253952
v -5.234996 0.245180 -0.241123
v -5.243395 0.235471 -0.255752
v -5.243395 0.246981 -0.244242
v -5.276262 0.550758 -0.244242
v -5.276262 0.535034 -0.240029
v -5.243395 0.562268 -0.255752
v -5.276262 0.562268 -0.255752
v -5.243395 0.550758 -0.244242
v -5.276262 0.550758 -0.244242
v -5.276262 0.566481 -0.271476
v -5.276262 0.562268 -0.255752
v -5.276262 0.566481 -1.320505
v -5.276262 0.566481 -0.271476
v -5.276262 0.562268 -1.336228
v -5.276262 0.566481 -1.320505
v -5.276262 0.550758 -1.347739
v -5.276262 0.562268 -1.336228
v -5.276262 0.535034 -1.351952
v -5.276262 0.550758 -1.347739
v -5.276262 0.262704 -1.351952
v -5.276262 0.535034 -1.351952
v -5.276262 0.246981 -1.347739
v -5.276262 0.262704 -1.351952
v -5.276262 0.235471 -1.336228
v -5.276262 0.246981 -1.347739
v -5.276262 0.231258 -1.320505
v -5.276262 0.235471 -1.336228
v -5.276262 0.231258 -0.271476
v -5.276262 0.231258 -1.320505
v -5.276262 0.235471 -0.255752
v -5.276262 0.231258 -0.271476
v -5.243395 0.246981 -0.244242
v -5.276262 0.246981 -0.244242
v -5.243395 0.235471 -0.255752
v -5.276262 0.235471 -0.255752
v -5.276262 0.262704 -0.240029
v -5.276262 0.246981 -0.244242
v -5.276262 0.535034 -0.240029
v -5.276262 0.262704 -0.240029
v -5.276262 0.231258 -0.271476
v -5.276262 0.235471 -0.255752
v -5.276262 0.566481 -0.271476
v -5.276262 0.562268 -0.255752
v -5.276262 0.235471 -0.255752
v -5.276262 0.246981 -0.244242
v -5.276262 0.562268 -0.255752
v -5.276262 0.550758 -0.244242
v -5.276262 0.246981 -0.244242
v -5.276262 0.262704 -0.240029
v -5.276262 0.550758 -0.244242
v -5.276262 0.535034 -0.240029
v -5.276262 0.231258 -1.320505
v -5.276262 0.231258 -0.271476
v -5.276262 0.566481 -1.320505
v -5.276262 0.566481 -0.271476
v -5.276262 0.231258 -1.320505
v -5.276262 0.566481 -1.320505
v -5.276262 0.235471 -1.336228
v -5.276262 0.562268 -1.336228
v -5.276262 0.562268 -1.336228
v -5.276262 0.550758 -1.347739
v -5.276262 0.235471 -1.336228
v -5.276262 0.246981 -1.347739
vn -1.0000 -0.0000 -0.0000
vn -1.0000 0.0001 -0.0000
vn -1.0000 -0.0003 -0.0000
vn -0.0726 -0.0000 0.9974
vn -0.7235 -0.0000 0.6903
vn -0.0000 -0.0000 1.0000
vn -0.0784 -0.2580 0.9630
vn -0.7625 -0.1666 0.6252
vn -0.7485 -0.1705 0.6408
vn -0.0764 -0.2565 0.9635
vn -0.0000 -0.2588 0.9659
vn -0.0764 0.2581 0.9631
vn -0.7486 0.1705 0.6408
vn -0.7624 0.1666 0.6252
vn -0.0784 0.2565 0.9634
vn -0.0000 0.2588 0.9659
vn -0.0000 0.2584 0.9661
vn -0.0784 0.7049 0.7049
vn -0.7704 0.4509 0.4508
vn -0.7704 0.4508 0.4509
vn -0.0000 0.7071 0.7071
vn -0.0784 0.9630 0.2580
vn -0.7624 0.6252 0.1666
vn -0.7486 0.6408 0.1705
vn -0.0764 0.9635 0.2565
vn -0.0000 0.9659 0.2588
vn -0.0000 0.9661 0.2582
vn -0.0726 0.9974 -0.0000
vn -0.7225 0.6913 -0.0000
vn -0.0000 1.0000 -0.0000
vn -0.0764 0.9631 -0.2581
vn -0.7485 0.6408 -0.1705
vn -0.7624 0.6253 -0.1666
vn -0.0784 0.9634 -0.2565
vn -0.0000 0.9660 -0.2584
vn -0.0000 0.9659 -0.2588
vn -0.0784 0.7049 -0.7049
vn -0.7704 0.4508 -0.4509
vn -0.0000 0.7071 -0.7071
vn -0.0784 0.2580 -0.9630
vn -0.7625 0.1666 -0.6252
vn -0.7485 0.1705 -0.6408
vn -0.0765 0.2565 -0.9635
vn -0.0000 0.2588 -0.9659
vn -0.0726 -0.0000 -0.9974
vn -0.7235 -0.0000 -0.6903
vn -0.0000 -0.0000 -1.0000
vn -0.0764 -0.2581 -0.9631
vn -0.7485 -0.1705 -0.6408
vn -0.7625 -0.1666 -0.6252
vn -0.0784 -0.2565 -0.9634
vn -0.0000 -0.2584 -0.9660
vn -0.0000 -0.2582 -0.9661
vn -0.0784 -0.7049 -0.7049
vn -0.7704 -0.4509 -0.4508
vn -0.7704 -0.4508 -0.4509
vn -0.0784 -0.7050 -0.7049
vn -0.0000 -0.7071 -0.7071
vn -0.0784 -0.9630 -0.2580
vn -0.7625 -0.6252 -0.1666
vn -0.7486 -0.6407 -0.1705
vn -0.0765 -0.9635 -0.2565
vn -0.0000 -0.9660 -0.2584
vn -0.0000 -0.9661 -0.2582
vn -0.0726 -0.9974 -0.0000
vn -0.7225 -0.6913 -0.0000
vn -0.0000 -1.0000 -0.0000
vn -0.0764 -0.9631 0.2581
vn -0.7486 -0.6408 0.1705
vn -0.7625 -0.6252 0.1666
vn -0.0784 -0.9634 0.2565
vn -0.0000 -0.9660 0.2584
vn -0.0000 -0.9659 0.2588
vn -0.0784 -0.7049 0.7049
vn -0.7703 -0.4508 0.4509
vn -0.7704 -0.4509 0.4508
vn -0.0000 -0.7071 0.7071
vn -0.0862 -0.0000 0.9963
vn -0.0883 0.2578 0.9622
vn -0.7411 0.1725 0.6489
vn -0.7551 0.1687 0.6335
vn -0.0902 0.2567 0.9623
vn -0.0000 0.2584 0.9660
vn -0.0923 0.7041 0.7041
vn -0.7608 0.4589 0.4589
vn -0.7608 0.4589 0.4588
vn -0.0902 0.9620 0.2578
vn -0.7551 0.6335 0.1687
vn -0.7410 0.6489 0.1726
vn -0.0883 0.9624 0.2568
vn -0.0862 0.9963 -0.0000
vn -0.0883 0.9622 -0.2578
vn -0.7411 0.6489 -0.1725
vn -0.7551 0.6335 -0.1687
vn -0.0903 0.9623 -0.2567
vn -0.0923 0.7041 -0.7041
vn -0.7608 0.4588 -0.4589
vn -0.7608 0.4589 -0.4589
vn -0.0902 0.2578 -0.9620
vn -0.7551 0.1687 -0.6335
vn -0.7411 0.1725 -0.6489
vn -0.0883 0.2568 -0.9624
vn -0.0000 0.2585 -0.9660
vn -0.0862 -0.0000 -0.9963
vn -0.0883 -0.2578 -0.9622
vn -0.7411 -0.1725 -0.6489
vn -0.7551 -0.1687 -0.6335
vn -0.0902 -0.2567 -0.9623
vn -0.0000 -0.2588 -0.9659
vn -0.0902 -0.2578 0.9620
vn -0.7551 -0.1687 0.6335
vn -0.7411 -0.1725 0.6489
vn -0.0883 -0.2568 0.9624
vn -0.0000 -0.2584 0.9660
vn -0.0923 -0.7041 -0.7041
vn -0.7608 -0.4589 -0.4589
vn -0.0902 -0.9620 -0.2578
vn -0.7551 -0.6335 -0.1686
vn -0.7411 -0.6489 -0.1725
vn -0.0883 -0.9624 -0.2568
vn -0.0000 -0.9659 -0.2588
vn -0.0862 -0.9963 -0.0000
vn -0.0883 -0.9622 0.2578
vn -0.7410 -0.6489 0.1725
vn -0.7551 -0.6335 0.1687
vn -0.0902 -0.9623 0.2567
vn -0.0923 -0.7041 0.7041
vn -0.7609 -0.4588 0.4589
vn -0.7608 -0.4589 0.4589
vn -0.0921 0.7041 0.7041
vn -0.0922 0.7041 0.7041
vn -0.0922 -0.7041 0.7041
vt 0.966309 -0.064453
vt 0.966309 0.065918
vt 0.967773 0.060059
vt 0.967773 -0.058594
vt 0.576172 0.056641
vt 0.581055 0.058105
vt 0.921875 0.058105
vt 0.572266 0.053223
vt 0.927246 0.056641
vt 0.571289 0.047852
vt 0.930664 0.053223
vt 0.571289 -0.049805
vt 0.932129 0.047852
vt 0.572266 -0.054688
vt 0.932129 -0.049805
vt 0.576172 -0.058594
vt 0.930664 -0.054688
vt 0.581055 -0.059570
vt 0.927246 -0.058594
vt 0.921875 -0.059570
vt 0.957520 0.047852
vt 0.961914 0.048340
vt 0.961914 -0.049805
vt 0.957520 -0.049805
vt 0.957520 0.053223
vt 0.961914 0.054199
vt 0.932129 0.053223
vt 0.961914 -0.055664
vt 0.957520 -0.054688
vt 0.932129 -0.054688
vt 0.961914 -0.060547
vt 0.957520 -0.058594
vt 0.932129 -0.058594
vt 0.927246 -0.085938
vt 0.928223 -0.089844
vt 0.922363 -0.089844
vt 0.921875 -0.085938
vt 0.927246 -0.059570
vt 0.581055 -0.089844
vt 0.581055 -0.085938
vt 0.575195 -0.089844
vt 0.576172 -0.085938
vt 0.576172 -0.059570
vt 0.545410 -0.058594
vt 0.541504 -0.060547
vt 0.541504 -0.055664
vt 0.545410 -0.054688
vt 0.571289 -0.054688
vt 0.571289 -0.058594
vt 0.541504 -0.049805
vt 0.545410 -0.049805
vt 0.541504 0.048340
vt 0.545410 0.047852
vt 0.541504 0.054199
vt 0.545410 0.053223
vt 0.571289 0.053223
vt 0.541504 0.058594
vt 0.545410 0.056641
vt 0.571289 0.056641
vt 0.576172 0.083496
vt 0.575195 0.087891
vt 0.581055 0.087891
vt 0.581055 0.083496
vt 0.576172 0.058105
vt 0.922363 0.087891
vt 0.921875 0.083496
vt 0.928223 0.087891
vt 0.927246 0.083496
vt 0.927246 0.058105
vt 0.957520 0.056641
vt 0.961914 0.058594
vt 0.932129 0.056641
vt 0.499512 -0.058594
vt 0.496094 -0.058594
vt 0.496094 0.060059
vt 0.499512 0.060059
vt 0.531738 0.060059
vt 0.531738 -0.058594
vt 0.496094 0.066895
vt 0.499512 0.065918
vt 0.531738 0.065918
vt 0.496094 0.071777
vt 0.499512 0.070312
vt 0.538086 0.104492
vt 0.537109 0.107910
vt 0.543945 0.107910
vt 0.543945 0.104492
vt 0.543945 0.072266
vt 0.538086 0.072266
vt 0.955566 0.107910
vt 0.955566 0.104492
vt 0.955566 0.072266
vt 0.962402 0.107910
vt 0.961914 0.104492
vt 0.961914 0.072266
vt 0.967285 0.107910
vt 0.966309 0.104492
vt 0.966309 0.072266
vt 1.000000 0.065918
vt 1.003906 0.066895
vt 1.003906 0.060059
vt 1.000000 0.060059
vt 0.967773 0.065918
vt 1.003906 -0.058594
vt 1.000000 -0.058594
vt 1.003906 -0.065430
vt 1.000000 -0.064453
vt 0.967773 -0.064453
vt 0.499512 -0.064453
vt 0.496094 -0.065430
vt 0.531738 -0.064453
vt 0.966309 -0.102539
vt 0.967285 -0.106445
vt 0.962402 -0.106445
vt 0.961914 -0.102539
vt 0.961914 -0.070312
vt 0.966309 -0.070312
vt 0.955566 -0.106445
vt 0.955566 -0.102539
vt 0.955566 -0.070312
vt 0.543945 -0.106445
vt 0.543945 -0.102539
vt 0.543945 -0.070312
vt 0.537109 -0.106445
vt 0.538086 -0.102539
vt 0.538086 -0.070312
vt 0.499512 -0.069336
vt 0.496094 -0.070312
vt 0.533203 0.104492
vt 0.533203 0.072266
vt 0.533203 -0.102539
vt 0.533203 -0.070312
vt 0.538086 -0.069336
vt 0.538086 0.070312
vt 0.533203 -0.064453
vt 0.533203 0.065918
vt 0.961914 -0.069336
vt 0.961914 0.070312
s 1
f 3/1/1 1/2/1 2/3/1
f 2/3/1 4/4/1 3/1/1
f 7/5/1 5/6/1 6/7/1
f 8/8/1 7/5/1 6/7/1
f 6/7/1 9/9/1 8/8/1
f 10/10/1 8/8/1 9/9/1
f 9/9/1 11/11/1 10/10/1
f 12/12/1 10/10/1 11/11/1
f 11/11/1 13/13/1 12/12/1
f 14/14/1 12/12/1 13/13/1
f 13/13/1 15/15/1 14/14/1
f 16/16/1 14/14/1 15/15/1
f 15/15/1 17/17/1 16/16/1
f 18/18/1 16/16/1 17/17/1
f 17/17/1 19/19/2 18/18/1
f 20/20/3 18/18/1 19/19/2
f 23/21/4 21/22/5 22/23/5
f 22/23/5 24/24/4 23/21/4
f 24/24/4 85/15/6 23/21/4
f 86/13/6 23/21/4 85/15/6
f 26/25/7 28/26/8 27/22/9
f 27/22/9 25/21/10 26/25/7
f 25/21/10 89/13/11 26/25/7
f 90/27/11 26/25/7 89/13/11
f 31/24/12 29/23/13 30/28/14
f 30/28/14 32/29/15 31/24/12
f 32/29/15 87/30/16 31/24/12
f 88/15/17 31/24/12 87/30/16
f 35/29/18 33/28/19 34/31/20
f 34/31/20 36/32/18 35/29/18
f 36/32/18 91/33/21 35/29/18
f 92/30/21 35/29/18 91/33/21
f 39/34/22 37/35/23 38/36/24
f 38/36/24 40/37/25 39/34/22
f 40/37/25 101/20/26 39/34/22
f 102/38/27 39/34/22 101/20/26
f 43/37/28 41/36/29 42/39/29
f 42/39/29 44/40/28 43/37/28
f 44/40/28 103/18/30 43/37/28
f 104/20/30 43/37/28 103/18/30
f 47/40/31 45/39/32 46/41/33
f 46/41/33 48/42/34 47/40/31
f 48/42/34 105/43/35 47/40/31
f 106/18/36 47/40/31 105/43/35
f 51/44/37 49/45/38 50/46/38
f 50/46/38 52/47/37 51/44/37
f 52/47/37 107/48/39 51/44/37
f 108/49/39 51/44/37 107/48/39
f 55/47/40 53/46/41 54/50/42
f 54/50/42 56/51/43 55/47/40
f 56/51/43 109/12/44 55/47/40
f 110/48/44 55/47/40 109/12/44
f 59/51/45 57/50/46 58/52/46
f 58/52/46 60/53/45 59/51/45
f 60/53/45 111/10/47 59/51/45
f 112/12/47 59/51/45 111/10/47
f 63/53/48 61/52/49 62/54/50
f 62/54/50 64/55/51 63/53/48
f 64/55/51 113/56/52 63/53/48
f 114/10/53 63/53/48 113/56/52
f 67/55/54 65/54/55 66/57/56
f 66/57/56 68/58/57 67/55/54
f 68/58/57 115/59/58 67/55/54
f 116/56/58 67/55/54 115/59/58
f 71/60/59 69/61/60 70/62/61
f 70/62/61 72/63/62 71/60/59
f 72/63/62 93/6/63 71/60/59
f 94/64/64 71/60/59 93/6/63
f 75/63/65 73/62/66 74/65/66
f 74/65/66 76/66/65 75/63/65
f 76/66/65 95/7/67 75/63/65
f 96/6/67 75/63/65 95/7/67
f 79/66/68 77/65/69 78/67/70
f 78/67/70 80/68/71 79/66/68
f 80/68/71 97/69/72 79/66/68
f 98/7/73 79/66/68 97/69/72
f 83/70/74 81/71/75 82/26/76
f 82/26/76 84/25/74 83/70/74
f 84/25/74 99/27/77 83/70/74
f 100/72/77 83/70/74 99/27/77
f 118/73/78 120/74/5 119/75/5
f 119/75/5 117/76/78 118/73/78
f 117/76/78 215/77/6 118/73/78
f 216/78/6 118/73/78 215/77/6
f 123/76/79 121/75/80 122/79/81
f 122/79/81 124/80/82 123/76/79
f 124/80/82 181/81/83 123/76/79
f 182/77/16 123/76/79 181/81/83
f 127/80/84 125/79/85 126/82/86
f 126/82/86 128/83/84 127/80/84
f 131/84/87 129/85/88 130/86/89
f 130/86/89 132/87/90 131/84/87
f 132/87/90 187/88/26 131/84/87
f 188/89/26 131/84/87 187/88/26
f 135/87/91 133/86/29 134/90/29
f 134/90/29 136/91/91 135/87/91
f 136/91/91 189/92/30 135/87/91
f 190/88/30 135/87/91 189/92/30
f 139/91/92 137/90/93 138/93/94
f 138/93/94 140/94/95 139/91/92
f 140/94/95 191/95/35 139/91/92
f 192/92/36 139/91/92 191/95/35
f 143/94/96 141/93/97 142/96/98
f 142/96/98 144/97/96 143/94/96
f 144/97/96 193/98/39 143/94/96
f 194/95/39 143/94/96 193/98/39
f 147/99/99 145/100/100 146/101/101
f 146/101/101 148/102/102 147/99/99
f 148/102/102 195/3/103 147/99/99
f 196/103/44 147/99/99 195/3/103
f 151/102/104 149/101/46 150/104/46
f 150/104/46 152/105/104 151/102/104
f 152/105/104 197/4/47 151/102/104
f 198/3/47 151/102/104 197/4/47
f 155/105/105 153/104/106 154/106/107
f 154/106/107 156/107/108 155/105/105
f 156/107/108 199/108/109 155/105/105
f 200/4/109 155/105/105 199/108/109
f 158/109/110 160/110/111 159/74/112
f 159/74/112 157/73/113 158/109/110
f 157/73/113 213/78/114 158/109/110
f 214/111/11 158/109/110 213/78/114
f 163/112/115 161/113/116 162/114/116
f 162/114/116 164/115/115 163/112/115
f 164/115/115 201/116/58 163/112/115
f 202/117/58 163/112/115 201/116/58
f 167/115/117 165/114/118 166/118/119
f 166/118/119 168/119/120 167/115/117
f 168/119/120 203/120/121 167/115/117
f 204/116/63 167/115/117 203/120/121
f 171/119/122 169/118/66 170/121/66
f 170/121/66 172/122/122 171/119/122
f 172/122/122 205/123/67 171/119/122
f 206/120/67 171/119/122 205/123/67
f 175/122/123 173/121/124 174/124/125
f 174/124/125 176/125/126 175/122/123
f 176/125/126 207/126/73 175/122/123
f 208/123/73 175/122/123 207/126/73
f 179/127/127 177/128/128 178/110/129
f 178/110/129 180/109/127 179/127/127
f 185/129/130 183/84/131 184/89/21
f 184/89/21 186/130/21 185/129/130
f 211/125/132 209/131/132 210/132/77
f 210/132/77 212/126/77 211/125/132
f 219/88/1 217/123/1 218/133/1
f 218/133/1 220/134/1 219/88/1
f 223/134/1 221/133/1 222/135/1
f 222/135/1 224/136/1 223/134/1
f 227/136/1 225/135/1 226/78/1
f 226/78/1 228/77/1 227/136/1
f 231/92/1 229/120/1 230/123/1
f 230/123/1 232/88/1 231/92/1
f 235/137/1 233/120/1 234/92/1
f 234/92/1 236/138/1 235/137/1
f 239/137/1 237/138/1 238/2/1
f 238/2/1 240/1/1 239/137/1
