# Blender 5.1.1
# www.blender.org
o w9a02_km1_wall01
v -7.925339 8.500001 18.873255
v 12.460571 8.500001 18.873255
v -7.891785 8.499999 -9.753529
v 12.460571 8.499999 -9.753529
v 12.460571 8.500001 18.873255
v -7.891785 8.499999 -9.753529
v -7.925339 8.500001 18.873255
v 12.460571 8.499999 -9.753529
v 12.452833 0.113013 -9.471560
v 12.452832 -0.000001 -9.471560
v -7.410347 0.113013 -9.471560
v -7.410347 -0.000001 -9.471560
v 12.452833 0.113015 5.668920
v 12.452832 0.000000 5.668920
v 12.452833 0.113013 -9.471560
v 12.452832 -0.000001 -9.471560
v 7.500000 0.113015 5.668920
v 7.500000 0.000000 5.668920
v 12.452833 0.113015 5.668920
v 12.452832 0.000000 5.668920
v -7.410347 0.113013 -9.471560
v -7.410347 -0.000001 -9.471560
v -7.416656 0.113014 -5.700000
v -7.416657 -0.000000 -5.700000
v 7.500000 0.143168 5.700000
v 7.500000 0.113015 5.668920
v 12.460571 0.143168 5.700000
v 12.452833 0.113015 5.668920
v 12.460571 0.143168 5.700000
v 12.452833 0.113015 5.668920
v 12.460571 0.143167 -9.498403
v 12.452833 0.113013 -9.471560
v 12.460571 0.143167 -9.498403
v 12.452833 0.113013 -9.471560
v -7.452432 0.143167 -9.498403
v -7.410347 0.113013 -9.471560
v -7.452432 0.143167 -9.498403
v -7.410347 0.113013 -9.471560
v -7.458742 0.143168 -5.700000
v -7.416656 0.113014 -5.700000
v -7.416656 0.113014 -5.700000
v -7.416657 -0.000000 -5.700000
v 12.452833 0.113013 -9.471560
v 12.452832 -0.000001 -9.471560
v -7.410347 0.113013 -9.471560
v 12.452833 0.113015 5.668920
v 12.452832 0.000000 5.668920
v 12.452833 0.113013 -9.471560
v 7.500000 0.113015 5.668920
v 7.500000 0.000000 5.668920
v 12.452833 0.113015 5.668920
v 12.452832 0.000000 5.668920
v 12.452832 -0.000001 -9.471560
v -7.410347 0.113013 -9.471560
v -7.410347 -0.000001 -9.471560
v 7.500000 0.143168 5.700000
v 7.500000 0.113015 5.668920
v 12.460571 0.143168 5.700000
v 12.452833 0.113015 5.668920
v 12.460571 0.143168 5.700000
v 12.452833 0.113015 5.668920
v 12.460571 0.143167 -9.498403
v 12.452833 0.113013 -9.471560
v 12.460571 0.143167 -9.498403
v 12.452833 0.113013 -9.471560
v -7.452432 0.143167 -9.498403
v -7.410347 0.113013 -9.471560
v -7.452432 0.143167 -9.498403
v -7.410347 0.113013 -9.471560
v -7.458742 0.143168 -5.700000
v -7.416656 0.113014 -5.700000
v -7.410347 -0.000001 -9.471560
v -7.471022 0.113741 -5.661963
v -7.471022 0.113743 17.606146
v -7.500000 0.143167 -5.700000
v -7.500000 0.143169 17.641838
v 7.500000 0.143167 -5.700000
v 7.469646 0.113741 -5.661963
v -2.436929 0.143167 -5.700000
v -2.436929 0.113741 -5.661963
v 7.500000 0.143169 17.641838
v 7.469646 0.113743 17.606146
v 7.500000 0.143168 1.451321
v 7.469646 0.113742 1.451321
v -7.471022 0.000001 17.606146
v -7.471022 0.113743 17.606146
v -7.471022 -0.000000 -5.661963
v -7.471022 0.113741 -5.661963
v 7.469646 0.113741 -5.661963
v 7.469646 -0.000000 -5.661963
v -2.436929 0.113741 -5.661963
v -2.436929 -0.000000 -5.661963
v 7.469646 0.113743 17.606146
v 7.469646 0.000001 17.606146
v 7.469646 0.113742 1.451321
v 7.469646 0.000000 1.451321
v -5.057443 0.113741 -5.661963
v -7.471022 0.113741 -5.661963
v -5.057444 0.143167 -5.700000
v -7.500000 0.143167 -5.700000
v -5.057444 -0.000000 -5.661963
v -7.471022 -0.000000 -5.661963
v -5.057443 0.113741 -5.661963
v -7.471022 0.113741 -5.661963
v 7.469646 0.113742 -1.215315
v 7.469646 0.113741 -5.661963
v 7.500000 0.143168 -1.215315
v 7.500000 0.143167 -5.700000
v 7.469646 -0.000000 -1.215314
v 7.469646 -0.000000 -5.661963
v 7.469646 0.113742 -1.215315
v 7.469646 0.113741 -5.661963
v -7.471022 0.113743 17.606146
v 7.469646 0.113743 17.606146
v -7.500000 0.143169 17.641838
v 7.500000 0.143169 17.641838
v 7.469646 0.000001 17.606146
v 7.469646 0.113743 17.606146
v -7.471022 0.000001 17.606146
v -7.471022 0.113743 17.606146
v 7.469646 0.113743 17.606146
v -7.500000 0.143169 17.641838
v -7.471022 0.113741 -5.661963
v -7.471022 0.113743 17.606146
v -7.500000 0.143167 -5.700000
v -7.500000 0.143169 17.641838
v 7.500000 0.143167 -5.700000
v 7.469646 0.113741 -5.661963
v -2.436929 0.143167 -5.700000
v -2.436929 0.113741 -5.661963
v 7.500000 0.143169 17.641838
v 7.500000 0.143168 1.451321
v 7.469646 0.113743 17.606146
v 7.469646 0.113742 1.451321
v -7.471022 0.000001 17.606146
v -7.471022 0.113743 17.606146
v -7.471022 -0.000000 -5.661963
v -7.471022 0.113741 -5.661963
v 7.469646 0.113741 -5.661963
v 7.469646 -0.000000 -5.661963
v -2.436929 0.113741 -5.661963
v -2.436929 -0.000000 -5.661963
v 7.469646 0.113743 17.606146
v 7.469646 0.000001 17.606146
v 7.469646 0.113742 1.451321
v 7.469646 0.000000 1.451321
v -5.057443 0.113741 -5.661963
v -7.471022 0.113741 -5.661963
v -5.057444 0.143167 -5.700000
v -7.500000 0.143167 -5.700000
v -5.057444 -0.000000 -5.661963
v -7.471022 -0.000000 -5.661963
v -5.057443 0.113741 -5.661963
v 7.469646 0.000001 17.606146
v 7.469646 0.113743 17.606146
v 7.469646 0.113742 -1.215315
v 7.469646 0.113741 -5.661963
v 7.500000 0.143168 -1.215315
v 7.500000 0.143167 -5.700000
v 7.500000 0.143169 17.641838
v 7.469646 -0.000000 -1.215314
v 7.469646 -0.000000 -5.661963
v 7.469646 0.113742 -1.215315
v 7.469646 0.113741 -5.661963
v -7.471022 0.113743 17.606146
v -7.471022 0.000001 17.606146
v -7.471022 0.113743 17.606146
v -7.471022 0.113741 -5.661963
v 2.009121 3.584958 17.347387
v 2.009121 3.584958 17.222183
v 1.780491 3.596278 17.222183
v 2.449940 3.495474 17.347387
v 2.233596 3.551143 17.222183
v 2.449940 3.495474 17.222183
v 2.845544 3.322625 17.347387
v 2.655254 3.418870 17.222183
v 2.845544 3.322625 17.222183
v 3.168307 3.078160 17.347387
v 3.018021 3.208411 17.222183
v 3.168307 3.078160 17.222183
v 3.397230 2.778824 17.347387
v 3.295795 2.934152 17.222183
v 3.397230 2.778824 17.222183
v 3.397230 2.778824 17.347387
v 3.470496 2.614780 17.347387
v 3.397230 2.778824 17.222183
v 3.470496 2.614780 17.222183
v 3.530018 2.272026 17.347387
v 3.515328 2.444874 17.222183
v 3.530018 2.272026 17.222183
v 0.030042 2.272015 17.347387
v 0.045339 2.444863 17.347387
v 0.030042 2.272015 17.222183
v 0.045339 2.444863 17.222183
v 0.090171 2.614780 17.347387
v 0.090171 2.614780 17.222183
v 0.163438 2.778824 17.347387
v 0.163438 2.778824 17.222183
v 0.392046 3.078160 17.347387
v 0.264581 2.934152 17.222183
v 0.392046 3.078160 17.222183
v 0.715101 3.322648 17.347387
v 0.542983 3.208411 17.222183
v 0.715101 3.322648 17.222183
v 1.110706 3.495474 17.347387
v 0.905727 3.418859 17.222183
v 1.110706 3.495474 17.222183
v 1.551861 3.584958 17.347387
v 1.327679 3.551143 17.222183
v 1.551861 3.584958 17.222183
v 3.530018 2.161047 17.222183
v 3.530018 2.161047 17.347387
v 0.029391 0.544365 17.346376
v 0.029391 0.544365 17.222183
v 3.530962 0.544365 17.222183
v 3.530962 0.544365 17.346376
v 3.530962 0.544365 17.222183
v 3.530962 0.544365 17.346376
v 0.029391 0.544365 17.222183
v 0.029391 0.544365 17.346376
v 1.780491 3.596278 17.222183
v 2.009121 3.584958 17.222183
v 1.781591 4.508002 17.222183
v 2.233596 3.551143 17.222183
v 2.449940 3.495474 17.222183
v 4.081570 4.508002 17.222183
v 2.655254 3.418870 17.222183
v 2.845544 3.322625 17.222183
v 3.018021 3.208411 17.222183
v 3.168307 3.078160 17.222183
v 3.295795 2.934152 17.222183
v 4.081570 2.578910 17.222183
v 3.397230 2.778824 17.222183
v 3.470496 2.614780 17.222183
v 3.515328 2.444874 17.222183
v 3.530018 2.272026 17.222183
v 0.030042 2.272015 17.222183
v 0.045339 2.444863 17.222183
v -0.518431 4.508002 17.222183
v 0.090171 2.614780 17.222183
v 0.163438 2.778824 17.222183
v 0.264581 2.934152 17.222183
v 0.392046 3.078160 17.222183
v 0.542983 3.208411 17.222183
v 0.715101 3.322648 17.222183
v 0.905727 3.418859 17.222183
v 1.110706 3.495474 17.222183
v 1.327679 3.551143 17.222183
v 1.551861 3.584958 17.222183
v 3.530018 2.161047 17.222183
v 3.530962 0.544365 17.222183
v 4.081614 0.413361 17.222183
v 0.029391 0.544365 17.222183
v -0.518408 0.413361 17.222183
v 4.081614 0.413361 17.222183
v -0.518408 0.413361 17.222183
v 4.081614 0.413361 17.308748
v -0.518408 0.413361 17.308748
v 2.009121 3.584956 -5.554743
v 1.780491 3.596277 -5.429539
v 2.009121 3.584956 -5.429539
v 2.449940 3.495472 -5.554743
v 2.233596 3.551141 -5.429539
v 2.449940 3.495472 -5.429539
v 2.845544 3.322624 -5.554743
v 2.655254 3.418869 -5.429539
v 2.845544 3.322624 -5.429539
v 3.168307 3.078159 -5.554743
v 3.018021 3.208410 -5.429539
v 3.168307 3.078159 -5.429539
v 3.397230 2.778822 -5.554743
v 3.295795 2.934150 -5.429539
v 3.397230 2.778822 -5.429539
v 3.470496 2.614779 -5.554743
v 3.397230 2.778822 -5.554743
v 3.470496 2.614779 -5.429539
v 3.397230 2.778822 -5.429539
v 3.530018 2.272024 -5.554743
v 3.515328 2.444873 -5.429539
v 3.530018 2.272024 -5.429539
v 0.045339 2.444861 -5.554743
v 0.030042 2.272013 -5.554743
v 0.045339 2.444861 -5.429539
v 0.030042 2.272013 -5.429539
v 0.090171 2.614779 -5.554743
v 0.090171 2.614779 -5.429539
v 0.163438 2.778822 -5.554743
v 0.163438 2.778822 -5.429539
v 0.392046 3.078159 -5.554743
v 0.264581 2.934150 -5.429539
v 0.392046 3.078159 -5.429539
v 0.715101 3.322646 -5.554743
v 0.542983 3.208410 -5.429539
v 0.715101 3.322646 -5.429539
v 1.110706 3.495472 -5.554743
v 0.905727 3.418858 -5.429539
v 1.110706 3.495472 -5.429539
v 1.551861 3.584956 -5.554743
v 1.327679 3.551141 -5.429539
v 1.551861 3.584956 -5.429539
v 3.530018 2.161045 -5.554743
v 3.530018 2.161045 -5.429539
v 0.029391 0.544363 -5.553732
v 3.530962 0.544363 -5.429539
v 3.530962 0.544363 -5.553732
v 0.029391 0.544363 -5.429539
v 3.530962 0.544363 -5.429539
v 0.029391 0.544363 -5.429539
v 3.530962 0.544363 -5.553732
v 0.029391 0.544363 -5.553732
v 1.780491 3.596277 -5.429539
v 1.781591 4.508000 -5.429539
v 2.009121 3.584956 -5.429539
v 2.233596 3.551141 -5.429539
v 2.449940 3.495472 -5.429539
v 4.081570 4.508000 -5.429539
v 2.655254 3.418869 -5.429539
v 2.845544 3.322624 -5.429539
v 3.018021 3.208410 -5.429539
v 3.168307 3.078159 -5.429539
v 3.295795 2.934150 -5.429539
v 4.081570 2.578908 -5.429539
v 3.397230 2.778822 -5.429539
v 3.470496 2.614779 -5.429539
v 3.515328 2.444873 -5.429539
v 3.530018 2.272024 -5.429539
v 0.030042 2.272013 -5.429539
v -0.518431 4.508000 -5.429539
v 0.045339 2.444861 -5.429539
v 0.090171 2.614779 -5.429539
v 0.163438 2.778822 -5.429539
v 0.264581 2.934150 -5.429539
v 0.392046 3.078159 -5.429539
v 0.542983 3.208410 -5.429539
v 0.715101 3.322646 -5.429539
v 0.905727 3.418858 -5.429539
v 1.110706 3.495472 -5.429539
v 1.327679 3.551141 -5.429539
v 1.551861 3.584956 -5.429539
v 3.530018 2.161045 -5.429539
v 3.530962 0.544363 -5.429539
v 4.081614 0.413359 -5.429539
v 0.029391 0.544363 -5.429539
v -0.518408 0.413359 -5.429539
v 4.081614 0.413359 -5.429539
v 4.081614 0.413359 -5.516103
v -0.518408 0.413359 -5.429539
v -0.518408 0.413359 -5.516103
v -3.821313 8.500000 -4.028172
v 0.249158 8.500000 1.697185
v 4.319629 8.500001 7.422542
v 8.390100 8.500001 13.147897
v 8.383389 8.500001 18.873255
v 4.306207 8.500001 18.873255
v 0.229025 8.500001 18.873255
v -3.848157 8.500001 18.873255
v -7.918628 8.500001 13.147897
v -7.911917 8.500001 7.422541
v -7.905206 8.500000 1.697184
v -7.898496 8.500000 -4.028172
v -3.821313 8.499999 -9.753529
v 0.249158 8.499999 -9.753529
v 4.319629 8.499999 -9.753529
v 8.390100 8.499999 -9.753529
v 12.460571 8.500000 -4.028172
v 12.460571 8.500000 1.697185
v 12.460571 8.500001 7.422542
v 12.460571 8.500001 13.147897
v 0.249158 8.500000 -4.028172
v 4.319629 8.500000 1.697185
v 4.319629 8.500000 -4.028172
v 8.390100 8.500001 7.422541
v 8.390100 8.500000 1.697184
v 8.390100 8.500000 -4.028172
v 4.312918 8.500001 13.147897
v 0.242447 8.500001 7.422542
v 0.235736 8.500001 13.147897
v -3.828024 8.500000 1.697185
v -3.834735 8.500001 7.422542
v -3.841446 8.500001 13.147897
vn -0.0000 -0.4476 0.8942
vn -0.0000 -0.4472 0.8944
vn -0.0000 -0.4469 0.8946
vn -0.0000 0.4475 0.8943
vn -0.0000 0.5418 0.8405
vn -0.0000 1.0000 -0.0000
vn -0.0000 0.4472 0.8944
vn -0.0000 0.7071 0.7071
vn -0.0000 0.7070 0.7072
vn -0.0000 0.7071 -0.7071
vn -0.0000 0.4469 0.8946
vn -0.0000 -0.0000 1.0000
vn -0.4472 -0.0000 0.8944
vn 0.4449 0.0001 0.8956
vn 0.4480 -0.0000 0.8940
vn 0.4469 0.0010 0.8946
vn 0.4469 -0.0021 0.8946
vn -0.0000 0.4186 0.9082
vn -0.0000 0.4822 0.8760
vn -0.0000 0.4823 0.8760
vn -0.0000 0.5460 0.8378
vn -0.2555 0.0656 0.9646
vn -0.5813 0.1486 0.8000
vn -0.2344 0.0608 0.9702
vn -0.5690 0.1465 0.8092
vn -0.0000 0.1357 0.9908
vn -0.0000 0.2540 0.9672
vn -0.0000 0.2149 0.9766
vn -0.0000 0.3060 0.9520
vn 0.2594 0.3621 0.8953
vn 0.3179 0.4444 0.8375
vn 0.1911 0.2677 0.9444
vn 0.2593 0.3631 0.8950
vn 0.4472 -0.0000 0.8944
vn -0.4452 0.0001 0.8954
vn -0.4487 -0.0000 0.8937
vn -0.4475 -0.0011 0.8943
vn -0.4457 -0.0000 0.8952
vn -0.0000 -0.2364 0.9717
vn -0.0000 -0.2572 0.9664
vn -0.0000 -0.2572 0.9663
vn -0.0000 -0.2766 0.9610
vn 0.2555 -0.0656 0.9646
vn 0.2347 -0.0599 0.9702
vn 0.5802 -0.1492 0.8007
vn 0.5691 -0.1456 0.8092
vn -0.0000 -0.1940 0.9810
vn -0.0000 -0.3992 0.9169
vn -0.0000 -0.5394 0.8420
vn -0.0000 -0.7565 0.6540
vn -0.2596 -0.3622 0.8952
vn -0.1918 -0.2677 0.9442
vn -0.3174 -0.4444 0.8377
vn -0.2600 -0.3652 0.8939
vn 0.1813 0.1785 0.9671
vn 0.4184 0.4120 0.8095
vn 0.4229 0.4168 0.8046
vn 0.1877 0.1849 0.9647
vn -0.0008 0.2898 0.9571
vn -0.0002 0.3537 0.9354
vn 0.0003 0.2080 0.9781
vn -0.0000 0.2893 0.9572
vn -0.3113 0.3211 0.8944
vn -0.4079 0.4207 0.8103
vn -0.1852 0.1916 0.9638
vn -0.0000 0.2903 0.9569
vn -0.0000 0.3523 0.9359
vn 0.0011 0.2898 0.9571
vn -0.0006 0.2108 0.9775
vn -0.3107 0.3217 0.8944
vn -0.4118 0.4248 0.8062
vn -0.1794 0.1851 0.9662
vn -0.0000 0.2981 0.9545
vn -0.0000 0.6835 0.7300
vn -0.0002 0.6773 0.7357
vn -0.0000 0.2909 0.9567
vn -0.1813 -0.1785 0.9671
vn -0.4222 -0.4163 0.8052
vn -0.4185 -0.4121 0.8093
vn -0.1877 -0.1849 0.9647
vn -0.0007 -0.4951 0.8688
vn -0.0000 -0.3006 0.9538
vn 0.0011 -0.6764 0.7366
vn 0.0010 -0.4951 0.8689
vn 0.3113 -0.3211 0.8944
vn 0.1857 -0.1915 0.9638
vn 0.4079 -0.4207 0.8103
vn -0.0005 -0.4951 0.8689
vn -0.0000 -0.4941 0.8694
vn -0.0000 -0.6712 0.7413
vn -0.0004 -0.3087 0.9512
vn 0.3108 -0.3205 0.8948
vn 0.4118 -0.4248 0.8062
vn 0.1796 -0.1851 0.9662
vn -0.0000 -0.2019 0.9794
vn -0.0000 -0.3433 0.9392
vn 0.0004 -0.3454 0.9385
vn -0.0000 -0.1985 0.9801
vn 0.8758 0.4821 0.0255
vn 0.8896 0.4567 -0.0000
vn 0.7915 0.6054 0.0842
vn 0.7020 0.7099 0.0569
vn 0.7034 0.7108 -0.0000
vn 0.6021 0.7943 0.0804
vn 0.5014 0.8637 0.0509
vn 0.5011 0.8654 -0.0000
vn 0.3999 0.9134 0.0765
vn 0.2982 0.9534 0.0451
vn 0.2980 0.9546 -0.0000
vn 0.1979 0.9775 0.0725
vn 0.0981 0.9942 0.0431
vn 0.0978 0.9952 -0.0000
vn -0.0000 0.9974 0.0725
vn -0.0981 0.9942 0.0431
vn -0.0980 0.9952 -0.0000
vn -0.1979 0.9775 0.0724
vn -0.2976 0.9536 0.0450
vn -0.2980 0.9546 -0.0000
vn -0.3999 0.9135 0.0745
vn -0.5014 0.8638 0.0490
vn -0.5013 0.8653 -0.0000
vn -0.6013 0.7952 0.0783
vn -0.7011 0.7108 0.0568
vn -0.7012 0.7130 -0.0000
vn -0.7924 0.6041 0.0844
vn -0.8758 0.4820 0.0255
vn -0.8897 0.4566 -0.0000
vn -0.9427 0.3335 -0.0000
vn -0.9428 0.3335 -0.0000
vn -0.9851 0.1723 -0.0000
vn -1.0000 0.0079 -0.0000
vn -1.0000 0.0078 -0.0000
vn -1.0000 0.0004 -0.0000
vn -1.0000 -0.0000 -0.0000
vn 0.8897 0.4566 -0.0000
vn 0.8758 0.4820 0.0255
vn 0.9445 0.3273 0.0274
vn 0.9334 0.3588 -0.0000
vn 0.9812 0.1704 0.0901
vn 0.9970 0.0686 0.0353
vn 0.9994 0.0353 -0.0000
vn 1.0000 -0.0002 -0.0000
vn 1.0000 0.0003 -0.0000
vn 1.0000 -0.0003 -0.0000
vn 1.0000 0.0001 -0.0000
vn -0.0000 -1.0000 -0.0000
vn 0.7915 0.6054 -0.0843
vn 0.8774 0.4798 -0.0000
vn 0.8585 0.5116 -0.0353
vn 0.7020 0.7099 -0.0569
vn 0.6021 0.7943 -0.0804
vn 0.5014 0.8637 -0.0509
vn 0.3999 0.9134 -0.0765
vn 0.2982 0.9534 -0.0451
vn 0.1979 0.9775 -0.0725
vn 0.0981 0.9942 -0.0431
vn 0.0980 0.9952 -0.0000
vn -0.0000 0.9974 -0.0725
vn -0.0981 0.9942 -0.0432
vn -0.1979 0.9775 -0.0724
vn -0.2976 0.9536 -0.0450
vn -0.3999 0.9135 -0.0745
vn -0.5014 0.8638 -0.0490
vn -0.6013 0.7952 -0.0783
vn -0.7011 0.7108 -0.0568
vn -0.7924 0.6041 -0.0844
vn -0.8585 0.5116 -0.0353
vn -0.8782 0.4782 -0.0000
vn -0.9428 0.3333 -0.0000
vn 0.8586 0.5115 -0.0353
vn 0.9428 0.3333 -0.0000
vn 0.9551 0.2936 -0.0391
vn 0.9812 0.1704 -0.0901
vn 0.9946 0.0920 -0.0470
vn 0.9987 0.0509 -0.0000
vn 1.0000 -0.0000 -0.0000
vn -0.0000 -0.0000 -1.0000
vn -0.0000 0.7072 0.7071
vt -0.263916 -0.469727
vt 1.263672 1.469727
vt -0.263916 1.471191
vt 1.261719 -0.471680
vt -0.263916 -0.081543
vt 0.041602 -0.081836
vt 1.263281 1.081445
vt 0.958154 1.081836
vt -0.263916 0.694824
vt 1.262109 -0.083398
vt 0.958154 1.470020
vt 0.347119 1.470605
vt 0.041211 -0.470117
vt 0.651465 -0.470898
vt 1.412109 0.913208
vt 2.542969 0.904968
vt 2.542969 0.913208
vt 1.412109 0.904968
vt 0.058258 0.913147
vt 0.851562 0.904968
vt 0.851562 0.913147
vt 0.058258 0.904968
vt 1.133789 0.904968
vt 1.133789 0.913147
vt 1.211914 0.913208
vt 1.211914 0.904968
vt 0.851562 0.915344
vt 1.133789 0.915344
vt 0.058258 0.915344
vt 1.412109 0.915405
vt 2.542969 0.915405
vt 1.211914 0.915405
vt 2.914062 -1.062500
vt -1.741211 -1.072266
vt 2.914062 -1.072266
vt -1.741211 -1.062500
vt 4.468750 -1.062500
vt 7.582031 -1.072266
vt 7.582031 -1.062500
vt 4.468750 -1.072266
vt -1.619141 -1.062500
vt 1.217773 -1.072266
vt 1.217773 -1.062500
vt -1.619141 -1.072266
vt 2.914062 -1.105469
vt -1.741211 -1.105469
vt 7.582031 -1.105469
vt 4.468750 -1.105469
vt 1.217773 -1.105469
vt -1.619141 -1.105469
vt 3.646484 -1.062500
vt 2.894531 -1.072266
vt 3.646484 -1.072266
vt 2.894531 -1.062500
vt 2.894531 -1.105469
vt 3.646484 -1.105469
vt -2.388672 -1.062500
vt -3.681641 -1.072266
vt -2.388672 -1.072266
vt -3.681641 -1.062500
vt -3.681641 -1.105469
vt -2.388672 -1.105469
vt -0.394287 -1.062500
vt -5.085938 -1.072266
vt -0.394287 -1.072266
vt -5.085938 -1.062500
vt -0.394287 -1.105469
vt -5.085938 -1.105469
vt 1.434570 -0.334961
vt 1.444336 -0.331055
vt 1.437500 -0.321289
vt 1.419922 -0.317383
vt 1.428711 -0.311523
vt 1.417969 -0.303711
vt 1.399414 -0.302734
vt 1.406250 -0.295898
vt 1.392578 -0.290039
vt 1.374023 -0.292969
vt 1.377930 -0.284180
vt 1.362305 -0.281250
vt 1.345703 -0.288086
vt 1.346680 -0.279297
vt 1.331055 -0.278320
vt 1.316406 -0.288086
vt 1.314453 -0.279297
vt 1.298828 -0.281250
vt 1.288086 -0.292969
vt 1.283203 -0.284180
vt 1.268555 -0.290039
vt 1.262695 -0.302734
vt 1.255859 -0.295898
vt 1.243164 -0.303711
vt 1.241211 -0.317383
vt 1.232422 -0.311523
vt 1.223633 -0.321289
vt 1.226562 -0.334961
vt 1.216797 -0.331055
vt 1.211914 -0.341797
vt 1.222656 -0.344727
vt 1.208008 -0.352539
vt 1.219727 -0.355469
vt 1.207031 -0.364258
vt 1.218750 -0.365234
vt 1.207031 -0.476562
vt 1.218750 -0.467773
vt 1.439453 -0.344727
vt 1.450195 -0.341797
vt 1.453125 -0.352539
vt 1.443359 -0.365234
vt 1.454102 -0.364258
vt 1.454102 -0.371094
vt 1.443359 -0.372070
vt 1.443359 -0.467773
vt 1.454102 -0.476562
vt 1.493164 -0.494141
vt 1.493164 -0.485352
vt 1.168945 -0.485352
vt 1.168945 -0.494141
vt 1.331055 -0.218750
vt 1.493164 -0.218750
vt 1.493164 -0.343750
vt 1.168945 -0.218750
vt 1.474609 -0.308594
vt 1.484375 -0.322266
vt 1.470703 -0.328125
vt 1.451172 -0.304688
vt 1.462891 -0.295898
vt 1.448242 -0.285156
vt 1.422852 -0.285156
vt 1.431641 -0.274414
vt 1.414062 -0.266602
vt 1.388672 -0.270508
vt 1.394531 -0.259766
vt 1.374023 -0.254883
vt 1.350586 -0.263672
vt 1.352539 -0.251953
vt 1.331055 -0.250977
vt 1.310547 -0.263672
vt 1.308594 -0.251953
vt 1.288086 -0.254883
vt 1.272461 -0.270508
vt 1.266602 -0.259766
vt 1.247070 -0.266602
vt 1.238281 -0.285156
vt 1.229492 -0.274414
vt 1.212891 -0.285156
vt 1.210938 -0.304688
vt 1.198242 -0.295898
vt 1.186523 -0.308594
vt 1.190430 -0.328125
vt 1.176758 -0.322266
vt 1.184570 -0.340820
vt 1.169922 -0.336914
vt 1.180664 -0.354492
vt 1.166016 -0.351562
vt 1.179688 -0.368164
vt 1.164062 -0.367188
vt 1.179688 -0.505859
vt 1.164062 -0.518555
vt 1.491211 -0.336914
vt 1.476562 -0.340820
vt 1.495117 -0.351562
vt 1.482422 -0.368164
vt 1.497070 -0.367188
vt 1.482422 -0.376953
vt 1.497070 -0.376953
vt 1.497070 -0.518555
vt 1.482422 -0.505859
vt 1.112305 -0.529297
vt 1.549805 -0.529297
vt 1.549805 -0.541016
vt 1.112305 -0.541016
vt 1.331055 -0.170898
vt 1.112305 -0.170898
vt 1.549805 -0.339844
vt 1.549805 -0.170898
vt 0.347119 0.306055
vt 0.346729 -0.082227
vt 0.652637 0.693945
vt 0.652246 0.305664
vt 0.957764 0.693555
vt 0.346338 -0.470508
vt 0.651855 -0.082617
vt 0.957373 0.305273
vt 0.956982 -0.083008
vt 0.956592 -0.471289
vt 1.262891 0.693164
vt 1.262500 0.304883
vt 0.652637 1.082129
vt 0.347119 0.694238
vt 0.041602 0.306348
vt 0.652637 1.470313
vt 0.347119 1.082422
vt 0.041602 0.694531
vt 0.041602 1.082715
vt 0.041602 1.470898
vt -0.263916 0.306641
vt -0.263916 1.083008
s 1
f 3/1/1 2/2/2 1/3/3
f 2/2/2 3/1/1 4/4/2
f 6/1/4 360/5/5 349/6/6
f 5/2/7 368/7/8 352/8/6
f 1/3/3 358/9/9 3/1/1
f 8/4/7 365/10/6 368/7/8
f 353/11/10 355/12/8 7/3/11
f 361/13/10 363/14/8 8/4/7
f 11/15/12 10/16/12 9/17/12
f 10/16/12 11/15/12 12/18/12
f 15/19/13 14/20/13 13/21/13
f 14/20/13 15/19/13 16/22/13
f 19/21/12 18/23/12 17/24/12
f 18/23/12 19/21/12 20/20/12
f 23/25/14 22/18/15 21/15/16
f 22/18/15 23/25/14 24/26/17
f 27/27/18 26/24/19 25/28/20
f 26/24/19 27/27/18 28/21/21
f 31/29/22 30/21/23 29/27/24
f 30/21/23 31/29/22 32/19/25
f 35/30/26 34/17/27 33/31/28
f 34/17/27 35/30/26 36/15/29
f 39/32/30 38/15/31 37/30/32
f 38/15/31 39/32/30 40/25/33
f 45/15/12 43/17/12 44/16/12
f 44/16/12 72/18/12 45/15/12
f 48/19/34 46/21/34 47/20/34
f 47/20/34 53/22/34 48/19/34
f 51/21/12 49/24/12 50/23/12
f 50/23/12 52/20/12 51/21/12
f 41/25/35 54/15/36 55/18/37
f 55/18/37 42/26/38 41/25/35
f 58/27/39 56/28/40 57/24/41
f 57/24/41 59/21/42 58/27/39
f 62/29/43 60/27/44 61/21/45
f 61/21/45 63/19/46 62/29/43
f 66/30/47 64/31/48 65/17/49
f 65/17/49 67/15/50 66/30/47
f 70/32/51 68/30/52 69/15/53
f 69/15/53 71/25/54 70/32/51
f 33/31/28 66/30/47 35/30/26
f 16/22/13 47/20/34 14/20/13
f 19/21/12 52/20/12 20/20/12
f 23/25/14 42/26/38 24/26/17
f 36/15/29 65/17/49 34/17/27
f 22/18/15 54/15/36 21/15/16
f 38/15/31 68/30/52 37/30/32
f 21/15/16 41/25/35 23/25/14
f 39/32/30 71/25/54 40/25/33
f 37/30/32 70/32/51 39/32/30
f 24/26/17 55/18/37 22/18/15
f 12/18/12 44/16/12 10/16/12
f 10/16/12 43/17/12 9/17/12
f 26/24/19 56/28/40 25/28/20
f 11/15/12 72/18/12 12/18/12
f 9/17/12 45/15/12 11/15/12
f 35/30/26 67/15/50 36/15/29
f 25/28/20 58/27/39 27/27/18
f 28/21/21 57/24/41 26/24/19
f 31/29/22 63/19/46 32/19/25
f 14/20/13 46/21/34 13/21/13
f 27/27/18 59/21/42 28/21/21
f 15/19/13 53/22/34 16/22/13
f 13/21/13 48/19/34 15/19/13
f 30/21/23 60/27/44 29/27/24
f 29/27/24 62/29/43 31/29/22
f 18/23/12 49/24/12 17/24/12
f 32/19/25 61/21/45 30/21/23
f 17/24/12 51/21/12 19/21/12
f 34/17/27 64/31/48 33/31/28
f 20/20/12 50/23/12 18/23/12
f 40/25/33 69/15/53 38/15/31
f 75/33/55 74/34/56 73/35/57
f 74/34/56 75/33/55 76/36/58
f 79/37/59 78/38/60 77/39/61
f 78/38/60 79/37/59 80/40/62
f 83/41/63 82/42/64 81/43/65
f 82/42/64 83/41/63 84/44/63
f 87/45/34 86/34/34 85/46/34
f 86/34/34 87/45/34 88/35/34
f 91/40/12 90/47/12 89/38/12
f 90/47/12 91/40/12 92/48/12
f 95/44/13 94/49/13 93/42/13
f 94/49/13 95/44/13 96/50/13
f 99/51/66 98/52/67 97/53/68
f 98/52/67 99/51/66 100/54/69
f 103/53/12 102/55/12 101/56/12
f 102/55/12 103/53/12 104/52/12
f 107/57/70 106/58/71 105/59/63
f 106/58/71 107/57/70 108/60/72
f 111/59/13 110/61/13 109/62/13
f 110/61/13 111/59/13 112/58/13
f 115/63/73 114/64/74 113/65/75
f 114/64/74 115/63/73 116/66/76
f 119/67/12 118/64/12 117/68/12
f 118/64/12 119/67/12 120/65/12
f 125/33/77 123/35/78 124/34/79
f 124/34/79 126/36/80 125/33/77
f 129/37/81 127/39/82 128/38/83
f 128/38/83 130/40/84 129/37/81
f 132/41/85 131/43/86 133/42/87
f 133/42/87 134/44/85 132/41/85
f 137/45/13 135/46/13 136/34/13
f 136/34/13 138/35/13 137/45/13
f 141/40/12 139/38/12 140/47/12
f 140/47/12 142/48/12 141/40/12
f 145/44/34 143/42/34 144/49/34
f 144/49/34 146/50/34 145/44/34
f 149/51/88 147/53/89 148/52/90
f 148/52/90 150/54/91 149/51/88
f 153/53/12 151/56/12 152/55/12
f 152/55/12 168/52/12 153/53/12
f 158/57/92 156/59/85 157/58/93
f 157/58/93 159/60/94 158/57/92
f 163/59/34 161/62/34 162/61/34
f 162/61/34 164/58/34 163/59/34
f 122/63/95 165/65/96 121/64/97
f 121/64/97 160/66/98 122/63/95
f 166/67/12 154/68/12 155/64/12
f 155/64/12 167/65/12 166/67/12
f 92/48/12 140/47/12 90/47/12
f 87/45/34 138/35/13 88/35/34
f 94/49/13 143/42/34 93/42/13
f 79/37/59 130/40/84 80/40/62
f 93/42/13 145/44/34 95/44/13
f 99/51/66 150/54/91 100/54/69
f 96/50/13 144/49/34 94/49/13
f 107/57/70 159/60/94 108/60/72
f 98/52/67 147/53/89 97/53/68
f 119/67/12 167/65/12 120/65/12
f 97/53/68 149/51/88 99/51/66
f 100/54/69 148/52/90 98/52/67
f 82/42/64 131/43/86 81/43/65
f 102/55/12 151/56/12 101/56/12
f 75/33/55 126/36/80 76/36/58
f 101/56/12 153/53/12 103/53/12
f 118/64/12 154/68/12 117/68/12
f 106/58/71 156/59/85 105/59/63
f 105/59/63 158/57/92 107/57/70
f 74/34/56 123/35/78 73/35/57
f 95/44/13 146/50/34 96/50/13
f 108/60/72 157/58/93 106/58/71
f 73/35/57 125/33/77 75/33/55
f 104/52/12 152/55/12 102/55/12
f 115/63/73 160/66/98 116/66/76
f 76/36/58 124/34/79 74/34/56
f 91/40/12 142/48/12 92/48/12
f 83/41/63 134/44/85 84/44/63
f 110/61/13 161/62/34 109/62/13
f 78/38/60 127/39/82 77/39/61
f 111/59/13 164/58/34 112/58/13
f 109/62/13 163/59/34 111/59/13
f 77/39/61 129/37/81 79/37/59
f 112/58/13 162/61/34 110/61/13
f 80/40/62 128/38/83 78/38/60
f 103/53/12 168/52/12 104/52/12
f 114/64/74 165/65/96 113/65/75
f 81/43/65 132/41/85 83/41/63
f 113/65/75 122/63/95 115/63/73
f 84/44/63 133/42/87 82/42/64
f 116/66/76 121/64/97 114/64/74
f 86/34/34 135/46/13 85/46/34
f 85/46/34 137/45/13 87/45/34
f 88/35/34 136/34/13 86/34/34
f 117/68/12 166/67/12 119/67/12
f 90/47/12 139/38/12 89/38/12
f 120/65/12 155/64/12 118/64/12
f 89/38/12 141/40/12 91/40/12
f 181/69/99 183/70/100 182/71/101
f 178/72/102 181/69/99 182/71/101
f 182/71/101 180/73/103 178/72/102
f 180/73/103 179/74/104 178/72/102
f 175/75/105 178/72/102 179/74/104
f 179/74/104 177/76/106 175/75/105
f 177/76/106 176/77/107 175/75/105
f 172/78/108 175/75/105 176/77/107
f 176/77/107 174/79/109 172/78/108
f 174/79/109 173/80/110 172/78/108
f 169/81/111 172/78/108 173/80/110
f 173/80/110 170/82/112 169/81/111
f 170/82/112 171/83/113 169/81/111
f 208/84/114 169/81/111 171/83/113
f 171/83/113 210/85/115 208/84/114
f 210/85/115 209/86/116 208/84/114
f 205/87/117 208/84/114 209/86/116
f 209/86/116 207/88/118 205/87/117
f 207/88/118 206/89/119 205/87/117
f 202/90/120 205/87/117 206/89/119
f 206/89/119 204/91/121 202/90/120
f 204/91/121 203/92/122 202/90/120
f 199/93/123 202/90/120 203/92/122
f 203/92/122 201/94/124 199/93/123
f 201/94/124 200/95/125 199/93/123
f 197/96/126 199/93/123 200/95/125
f 200/95/125 198/97/127 197/96/126
f 198/97/127 196/98/128 197/96/126
f 195/99/129 197/96/126 196/98/128
f 196/98/128 194/100/130 195/99/129
f 192/101/130 195/99/129 194/100/130
f 194/100/130 193/102/131 192/101/130
f 191/103/132 192/101/130 193/102/131
f 193/102/131 214/104/133 191/103/132
f 213/105/134 191/103/132 214/104/133
f 186/70/135 184/69/136 185/106/137
f 187/107/138 186/70/135 185/106/137
f 189/108/139 187/107/138 185/106/137
f 185/106/137 188/109/140 189/108/139
f 190/110/141 189/108/139 188/109/140
f 211/111/142 190/110/141 188/109/140
f 188/109/140 212/112/143 211/111/142
f 212/112/143 216/113/144 211/111/142
f 215/114/145 211/111/142 216/113/144
f 219/104/146 217/114/146 218/113/146
f 218/113/146 220/105/146 219/104/146
f 257/115/6 255/116/6 256/117/6
f 256/117/6 258/118/6 257/115/6
f 223/119/12 221/83/12 222/82/12
f 222/82/12 224/80/12 223/119/12
f 224/80/12 225/79/12 223/119/12
f 225/79/12 227/77/12 223/119/12
f 226/120/12 223/119/12 227/77/12
f 227/77/12 228/76/12 226/120/12
f 228/76/12 229/74/12 226/120/12
f 229/74/12 230/73/12 226/120/12
f 230/73/12 231/71/12 226/120/12
f 232/121/12 226/120/12 231/71/12
f 231/71/12 233/70/12 232/121/12
f 233/70/12 234/107/12 232/121/12
f 234/107/12 235/108/12 232/121/12
f 235/108/12 236/110/12 232/121/12
f 236/110/12 250/111/12 232/121/12
f 252/116/12 232/121/12 250/111/12
f 250/111/12 251/114/12 252/116/12
f 254/117/12 252/116/12 251/114/12
f 251/114/12 253/104/12 254/117/12
f 253/104/12 237/102/12 254/117/12
f 239/122/12 254/117/12 237/102/12
f 237/102/12 238/100/12 239/122/12
f 238/100/12 240/98/12 239/122/12
f 240/98/12 241/97/12 239/122/12
f 241/97/12 242/95/12 239/122/12
f 242/95/12 243/94/12 239/122/12
f 243/94/12 244/92/12 239/122/12
f 244/92/12 245/91/12 239/122/12
f 245/91/12 246/89/12 239/122/12
f 246/89/12 247/88/12 239/122/12
f 223/119/12 239/122/12 247/88/12
f 247/88/12 248/86/12 223/119/12
f 248/86/12 249/85/12 223/119/12
f 221/83/12 223/119/12 249/85/12
f 272/123/147 273/124/148 271/125/149
f 271/125/149 268/126/150 272/123/147
f 270/127/103 272/123/147 268/126/150
f 269/128/151 270/127/103 268/126/150
f 268/126/150 265/129/152 269/128/151
f 267/130/106 269/128/151 265/129/152
f 266/131/153 267/130/106 265/129/152
f 265/129/152 262/132/154 266/131/153
f 264/133/109 266/131/153 262/132/154
f 263/134/155 264/133/109 262/132/154
f 262/132/154 259/135/156 263/134/155
f 261/136/157 263/134/155 259/135/156
f 260/137/158 261/136/157 259/135/156
f 259/135/156 298/138/159 260/137/158
f 300/139/115 260/137/158 298/138/159
f 299/140/160 300/139/115 298/138/159
f 298/138/159 295/141/161 299/140/160
f 297/142/118 299/140/160 295/141/161
f 296/143/162 297/142/118 295/141/161
f 295/141/161 292/144/163 296/143/162
f 294/145/121 296/143/162 292/144/163
f 293/146/164 294/145/121 292/144/163
f 292/144/163 289/147/165 293/146/164
f 291/148/124 293/146/164 289/147/165
f 290/149/166 291/148/124 289/147/165
f 289/147/165 287/150/167 290/149/166
f 288/151/168 290/149/166 287/150/167
f 287/150/167 285/152/169 288/151/168
f 286/153/169 288/151/168 285/152/169
f 285/152/169 281/154/130 286/153/169
f 283/155/130 286/153/169 281/154/130
f 281/154/130 282/156/131 283/155/130
f 284/157/131 283/155/130 282/156/131
f 282/156/131 303/158/134 284/157/131
f 306/159/134 284/157/131 303/158/134
f 275/125/170 277/124/148 276/160/171
f 274/161/172 275/125/170 276/160/171
f 276/160/171 279/162/173 274/161/172
f 278/163/174 274/161/172 279/162/173
f 279/162/173 280/164/175 278/163/174
f 301/165/176 278/163/174 280/164/175
f 280/164/175 302/166/143 301/165/176
f 302/166/143 304/167/144 301/165/176
f 305/168/145 301/165/176 304/167/144
f 309/168/146 307/167/146 308/159/146
f 308/159/146 310/158/146 309/168/146
f 347/169/6 345/170/6 346/171/6
f 346/171/6 348/172/6 347/169/6
f 312/173/177 313/136/177 311/137/177
f 311/137/177 339/139/177 312/173/177
f 339/139/177 338/140/177 312/173/177
f 338/140/177 337/142/177 312/173/177
f 328/174/177 312/173/177 337/142/177
f 337/142/177 336/143/177 328/174/177
f 336/143/177 335/145/177 328/174/177
f 335/145/177 334/146/177 328/174/177
f 334/146/177 333/148/177 328/174/177
f 333/148/177 332/149/177 328/174/177
f 332/149/177 331/151/177 328/174/177
f 331/151/177 330/153/177 328/174/177
f 330/153/177 329/155/177 328/174/177
f 329/155/177 327/157/177 328/174/177
f 344/169/177 328/174/177 327/157/177
f 327/157/177 343/159/177 344/169/177
f 343/159/177 341/167/177 344/169/177
f 342/170/177 344/169/177 341/167/177
f 341/167/177 340/166/177 342/170/177
f 322/175/177 342/170/177 340/166/177
f 340/166/177 326/164/177 322/175/177
f 326/164/177 325/162/177 322/175/177
f 325/162/177 324/160/177 322/175/177
f 324/160/177 323/124/177 322/175/177
f 323/124/177 321/123/177 322/175/177
f 316/176/177 322/175/177 321/123/177
f 321/123/177 320/127/177 316/176/177
f 320/127/177 319/128/177 316/176/177
f 319/128/177 318/130/177 316/176/177
f 318/130/177 317/131/177 316/176/177
f 312/173/177 316/176/177 317/131/177
f 317/131/177 315/133/177 312/173/177
f 315/133/177 314/134/177 312/173/177
f 313/136/177 312/173/177 314/134/177
f 349/6/6 361/13/10 6/1/4
f 350/177/6 369/178/6 349/6/6
f 351/179/6 370/180/6 350/177/6
f 352/8/6 372/181/6 351/179/6
f 349/6/6 369/178/6 361/13/10
f 369/178/6 362/182/8 361/13/10
f 350/177/6 370/180/6 369/178/6
f 370/180/6 371/183/6 369/178/6
f 369/178/6 371/183/6 362/182/8
f 371/183/6 363/14/8 362/182/8
f 351/179/6 372/181/6 370/180/6
f 372/181/6 373/184/6 370/180/6
f 370/180/6 373/184/6 371/183/6
f 373/184/6 374/185/6 371/183/6
f 371/183/6 374/185/6 363/14/8
f 374/185/6 364/186/10 363/14/8
f 352/8/6 368/7/8 372/181/6
f 368/7/8 367/187/8 372/181/6
f 372/181/6 367/187/8 373/184/6
f 367/187/8 366/188/8 373/184/6
f 373/184/6 366/188/8 374/185/6
f 366/188/8 365/10/6 374/185/6
f 374/185/6 365/10/6 364/186/10
f 365/10/6 8/4/7 364/186/10
f 352/8/6 353/11/10 5/2/7
f 351/179/6 375/189/6 352/8/6
f 350/177/6 376/190/6 351/179/6
f 349/6/6 378/191/6 350/177/6
f 352/8/6 375/189/6 353/11/10
f 375/189/6 354/192/8 353/11/10
f 351/179/6 376/190/6 375/189/6
f 376/190/6 377/193/6 375/189/6
f 375/189/6 377/193/6 354/192/8
f 377/193/6 355/12/8 354/192/8
f 350/177/6 378/191/6 376/190/6
f 378/191/6 379/194/6 376/190/6
f 376/190/6 379/194/6 377/193/6
f 379/194/6 380/195/6 377/193/6
f 377/193/6 380/195/6 355/12/8
f 380/195/6 356/196/8 355/12/8
f 349/6/6 360/5/5 378/191/6
f 360/5/5 359/197/178 378/191/6
f 378/191/6 359/197/178 379/194/6
f 359/197/178 358/9/9 379/194/6
f 379/194/6 358/9/9 380/195/6
f 358/9/9 357/198/8 380/195/6
f 380/195/6 357/198/8 356/196/8
f 357/198/8 7/3/11 356/196/8
f 7/3/11 357/198/8 358/9/9
f 1/3/3 7/3/11 358/9/9
f 360/5/5 6/1/4 3/1/1
f 359/197/178 360/5/5 3/1/1
f 358/9/9 359/197/178 3/1/1
f 2/2/2 4/4/2 8/4/7
f 365/10/6 366/188/8 367/187/8
f 5/2/7 2/2/2 8/4/7
f 365/10/6 367/187/8 368/7/8
f 368/7/8 5/2/7 8/4/7
f 1/3/3 2/2/2 5/2/7
f 353/11/10 354/192/8 355/12/8
f 7/3/11 1/3/3 5/2/7
f 355/12/8 356/196/8 7/3/11
f 7/3/11 5/2/7 353/11/10
f 4/4/2 3/1/1 6/1/4
f 361/13/10 362/182/8 363/14/8
f 8/4/7 4/4/2 6/1/4
f 363/14/8 364/186/10 8/4/7
f 8/4/7 6/1/4 361/13/10
f 33/31/28 64/31/48 66/30/47
f 16/22/13 53/22/34 47/20/34
f 19/21/12 51/21/12 52/20/12
f 23/25/14 41/25/35 42/26/38
f 36/15/29 67/15/50 65/17/49
f 22/18/15 55/18/37 54/15/36
f 38/15/31 69/15/53 68/30/52
f 21/15/16 54/15/36 41/25/35
f 39/32/30 70/32/51 71/25/54
f 37/30/32 68/30/52 70/32/51
f 24/26/17 42/26/38 55/18/37
f 12/18/12 72/18/12 44/16/12
f 10/16/12 44/16/12 43/17/12
f 26/24/19 57/24/41 56/28/40
f 11/15/12 45/15/12 72/18/12
f 9/17/12 43/17/12 45/15/12
f 35/30/26 66/30/47 67/15/50
f 25/28/20 56/28/40 58/27/39
f 28/21/21 59/21/42 57/24/41
f 31/29/22 62/29/43 63/19/46
f 14/20/13 47/20/34 46/21/34
f 27/27/18 58/27/39 59/21/42
f 15/19/13 48/19/34 53/22/34
f 13/21/13 46/21/34 48/19/34
f 30/21/23 61/21/45 60/27/44
f 29/27/24 60/27/44 62/29/43
f 18/23/12 50/23/12 49/24/12
f 32/19/25 63/19/46 61/21/45
f 17/24/12 49/24/12 51/21/12
f 34/17/27 65/17/49 64/31/48
f 20/20/12 52/20/12 50/23/12
f 40/25/33 71/25/54 69/15/53
f 92/48/12 142/48/12 140/47/12
f 87/45/34 137/45/13 138/35/13
f 94/49/13 144/49/34 143/42/34
f 79/37/59 129/37/81 130/40/84
f 93/42/13 143/42/34 145/44/34
f 99/51/66 149/51/88 150/54/91
f 96/50/13 146/50/34 144/49/34
f 107/57/70 158/57/92 159/60/94
f 98/52/67 148/52/90 147/53/89
f 119/67/12 166/67/12 167/65/12
f 97/53/68 147/53/89 149/51/88
f 100/54/69 150/54/91 148/52/90
f 82/42/64 133/42/87 131/43/86
f 102/55/12 152/55/12 151/56/12
f 75/33/55 125/33/77 126/36/80
f 101/56/12 151/56/12 153/53/12
f 118/64/12 155/64/12 154/68/12
f 106/58/71 157/58/93 156/59/85
f 105/59/63 156/59/85 158/57/92
f 74/34/56 124/34/79 123/35/78
f 95/44/13 145/44/34 146/50/34
f 108/60/72 159/60/94 157/58/93
f 73/35/57 123/35/78 125/33/77
f 104/52/12 168/52/12 152/55/12
f 115/63/73 122/63/95 160/66/98
f 76/36/58 126/36/80 124/34/79
f 91/40/12 141/40/12 142/48/12
f 83/41/63 132/41/85 134/44/85
f 110/61/13 162/61/34 161/62/34
f 78/38/60 128/38/83 127/39/82
f 111/59/13 163/59/34 164/58/34
f 109/62/13 161/62/34 163/59/34
f 77/39/61 127/39/82 129/37/81
f 112/58/13 164/58/34 162/61/34
f 80/40/62 130/40/84 128/38/83
f 103/53/12 153/53/12 168/52/12
f 114/64/74 121/64/97 165/65/96
f 81/43/65 131/43/86 132/41/85
f 113/65/75 165/65/96 122/63/95
f 84/44/63 134/44/85 133/42/87
f 116/66/76 160/66/98 121/64/97
f 86/34/34 136/34/13 135/46/13
f 85/46/34 135/46/13 137/45/13
f 88/35/34 138/35/13 136/34/13
f 117/68/12 154/68/12 166/67/12
f 90/47/12 140/47/12 139/38/12
f 120/65/12 167/65/12 155/64/12
f 89/38/12 139/38/12 141/40/12
