# Blender 4.5.3 LTS
# www.blender.org
o w9a02_wood03
v 5.691181 0.334997 13.187210
v 5.715942 0.186982 10.431970
v 5.710852 0.255377 13.191663
v 5.715942 0.186982 10.431970
v 5.735614 0.107361 10.436423
v 5.710852 0.255377 13.191663
v 5.291899 0.082338 10.433524
v 5.267563 0.227789 13.141021
v 5.311560 0.002722 10.437984
v 5.267563 0.227789 13.141021
v 5.287223 0.148173 13.145474
v 5.311560 0.002722 10.437984
v 5.335332 -0.002682 10.168192
v 5.399860 0.116486 10.567299
v 5.291899 0.082338 10.433524
v 5.369986 0.172008 13.206192
v 5.418405 0.036595 10.571762
v 5.287223 0.148173 13.145474
v 5.418405 0.036595 10.571762
v 5.311560 0.002722 10.437984
v 5.287223 0.148173 13.145474
v 5.291899 0.082338 10.433524
v 5.311560 0.002722 10.437984
v 5.335332 -0.002682 10.168192
v 5.685998 0.153879 9.972471
v 5.735614 0.107361 10.436423
v 5.715942 0.186982 10.431970
v 5.564516 0.070625 10.388991
v 5.591565 0.075729 10.506838
v 5.582638 0.155419 10.456304
v 5.735614 0.107361 10.436423
v 5.685998 0.153879 9.972471
v 5.591565 0.075729 10.506838
v 5.399860 0.116486 10.567299
v 5.484488 0.133798 10.503080
v 5.408520 0.265329 13.189689
v 5.335332 -0.002682 10.168192
v 5.418405 0.036595 10.571762
v 5.399860 0.116486 10.567299
v 5.304752 0.268889 13.711497
v 5.287223 0.148173 13.145474
v 5.304752 0.268889 13.711497
v 5.369986 0.172008 13.206192
v 5.369986 0.172008 13.206192
v 5.304752 0.268889 13.711497
v 5.351440 0.251899 13.201734
v 5.351440 0.251899 13.201734
v 5.304752 0.268889 13.711497
v 5.267563 0.227789 13.141021
v 5.599314 0.317275 13.276016
v 5.643559 0.335207 13.835823
v 5.617859 0.237383 13.280475
v 5.617859 0.237383 13.280475
v 5.643559 0.335207 13.835823
v 5.710852 0.255377 13.191663
v 5.643559 0.335207 13.835823
v 5.691181 0.334997 13.187210
v 5.643559 0.335207 13.835823
v 5.599314 0.317275 13.276016
v 5.474623 0.286366 13.274004
v 5.545049 0.269623 13.511393
v 5.493169 0.206475 13.278468
v 5.493169 0.206475 13.278468
v 5.545049 0.269623 13.511393
v 5.617859 0.237383 13.280475
v 5.617859 0.237383 13.280475
v 5.545049 0.269623 13.511393
v 5.599314 0.317275 13.276016
v 5.599314 0.317275 13.276016
v 5.545049 0.269623 13.511393
v 5.474623 0.286366 13.274004
v 5.408520 0.265329 13.189689
v 5.446804 0.257560 13.615880
v 5.427078 0.185433 13.194145
v 5.427078 0.185433 13.194145
v 5.446804 0.257560 13.615880
v 5.493169 0.206475 13.278468
v 5.493169 0.206475 13.278468
v 5.446804 0.257560 13.615880
v 5.474623 0.286366 13.274004
v 5.474623 0.286366 13.274004
v 5.446804 0.257560 13.615880
v 5.408520 0.265329 13.189689
v 5.351440 0.251899 13.201734
v 5.381500 0.254929 13.451861
v 5.369986 0.172008 13.206192
v 5.369986 0.172008 13.206192
v 5.381500 0.254929 13.451861
v 5.427078 0.185433 13.194145
v 5.427078 0.185433 13.194145
v 5.381500 0.254929 13.451861
v 5.408520 0.265329 13.189689
v 5.408520 0.265329 13.189689
v 5.381500 0.254929 13.451861
v 5.351440 0.251899 13.201734
v 5.418405 0.036595 10.571762
v 5.455702 0.077171 10.266370
v 5.399860 0.116486 10.567299
v 5.399860 0.116486 10.567299
v 5.455702 0.077171 10.266370
v 5.484488 0.133798 10.503080
v 5.564516 0.070625 10.388991
v 5.484488 0.133798 10.503080
v 5.496678 0.050467 10.474152
v 5.399860 0.116486 10.567299
v 5.408520 0.265329 13.189689
v 5.351440 0.251899 13.201734
v 5.418405 0.036595 10.571762
v 5.335332 -0.002682 10.168192
v 5.311560 0.002722 10.437984
v 5.591565 0.075729 10.506838
v 5.685998 0.153879 9.972471
v 5.582638 0.155419 10.456304
v 5.564516 0.070625 10.388991
v 5.496678 0.050467 10.474152
v 5.591565 0.075729 10.506838
v 5.484488 0.133798 10.503080
v 5.455702 0.077171 10.266370
v 5.496678 0.050467 10.474152
v 5.496678 0.050467 10.474152
v 5.418405 0.036595 10.571762
v 5.493169 0.206475 13.278468
v 5.418405 0.036595 10.571762
v 5.427078 0.185433 13.194145
v 5.493169 0.206475 13.278468
v 5.484488 0.133798 10.503080
v 5.474623 0.286366 13.274004
v 5.408520 0.265329 13.189689
v 5.599314 0.317275 13.276016
v 5.582638 0.155419 10.456304
v 5.691181 0.334997 13.187210
v 5.582638 0.155419 10.456304
v 5.715942 0.186982 10.431970
v 5.691181 0.334997 13.187210
v 5.496678 0.050467 10.474152
v 5.493169 0.206475 13.278468
v 5.591565 0.075729 10.506838
v 5.493169 0.206475 13.278468
v 5.617859 0.237383 13.280475
v 5.591565 0.075729 10.506838
v 5.496678 0.050467 10.474152
v 5.455702 0.077171 10.266370
v 5.418405 0.036595 10.571762
v 5.735614 0.107361 10.436423
v 5.591565 0.075729 10.506838
v 5.710852 0.255377 13.191663
v 5.591565 0.075729 10.506838
v 5.617859 0.237383 13.280475
v 5.710852 0.255377 13.191663
v 5.685998 0.153879 9.972471
v 5.715942 0.186982 10.431970
v 5.582638 0.155419 10.456304
v 5.484488 0.133798 10.503080
v 5.564516 0.070625 10.388991
v 5.582638 0.155419 10.456304
v 5.484488 0.133798 10.503080
v 5.582638 0.155419 10.456304
v 5.474623 0.286366 13.274004
v 5.582638 0.155419 10.456304
v 5.599314 0.317275 13.276016
v 5.474623 0.286366 13.274004
v 5.369986 0.172008 13.206192
v 5.427078 0.185433 13.194145
v 5.418405 0.036595 10.571762
v 5.399860 0.116486 10.567299
v 5.351440 0.251899 13.201734
v 5.291899 0.082338 10.433524
v 5.351440 0.251899 13.201734
v 5.267563 0.227789 13.141021
v 5.291899 0.082338 10.433524
v 0.243259 0.156276 12.703540
v 0.359319 0.097974 12.760440
v 0.502355 0.163675 12.702361
v 0.146419 0.129707 12.663161
v 0.148631 0.058790 12.704532
v 0.243259 0.156276 12.703540
v 0.146419 0.129707 12.663161
v -0.013160 0.056629 12.546412
v 0.148631 0.058790 12.704532
v 0.444667 0.048593 12.671213
v 1.207766 0.611186 13.594940
v 0.502355 0.163675 12.702361
v 1.207766 0.611186 13.594940
v 1.205553 0.682104 13.553569
v 0.502355 0.163675 12.702361
v 0.780266 0.632073 13.490549
v 0.965048 0.792795 13.791620
v 0.723427 0.658279 13.538513
v 0.782475 0.561153 13.531916
v 0.965048 0.792795 13.791620
v 0.780266 0.632073 13.490549
v 0.725635 0.587359 13.579880
v 0.965048 0.792795 13.791620
v 0.782475 0.561153 13.531916
v 0.723427 0.658279 13.538513
v 0.965048 0.792795 13.791620
v 0.725635 0.587359 13.579880
v 1.013703 0.716499 13.622813
v 1.320696 0.955835 14.095763
v 0.780266 0.632073 13.490549
v 1.015915 0.645581 13.664184
v 1.320696 0.955835 14.095763
v 1.013703 0.716499 13.622813
v 0.782475 0.561153 13.531916
v 1.320696 0.955835 14.095763
v 1.015915 0.645581 13.664184
v 0.780266 0.632073 13.490549
v 1.320696 0.955835 14.095763
v 0.782475 0.561153 13.531916
v 1.150484 0.729322 13.637469
v 1.252223 0.826281 13.889521
v 1.013703 0.716499 13.622813
v 1.152693 0.658402 13.678836
v 1.252223 0.826281 13.889521
v 1.150484 0.729322 13.637469
v 1.015915 0.645581 13.664184
v 1.252223 0.826281 13.889521
v 1.152693 0.658402 13.678836
v 1.013703 0.716499 13.622813
v 1.252223 0.826281 13.889521
v 1.015915 0.645581 13.664184
v 1.205553 0.682104 13.553569
v 1.368991 0.828042 13.841838
v 1.150484 0.729322 13.637469
v 1.207766 0.611186 13.594940
v 1.368991 0.828042 13.841838
v 1.205553 0.682104 13.553569
v 1.152693 0.658402 13.678836
v 1.368991 0.828042 13.841838
v 1.207766 0.611186 13.594940
v 1.150484 0.729322 13.637469
v 1.368991 0.828042 13.841838
v 1.152693 0.658402 13.678836
v 0.723427 0.658279 13.538513
v 0.781599 0.741666 13.678375
v 0.545244 0.608671 13.463004
v 0.725635 0.587359 13.579880
v 0.781599 0.741666 13.678375
v 0.723427 0.658279 13.538513
v 0.547457 0.537753 13.504374
v 0.781599 0.741666 13.678375
v 0.725635 0.587359 13.579880
v 0.545244 0.608671 13.463004
v 0.781599 0.741666 13.678375
v 0.547457 0.537753 13.504374
v -0.087910 0.141871 12.696551
v 0.545244 0.608671 13.463004
v -0.085703 0.070953 12.737918
v 0.545244 0.608671 13.463004
v 0.547457 0.537753 13.504374
v -0.085703 0.070953 12.737918
v 0.502355 0.163675 12.702361
v 1.205553 0.682104 13.553569
v 1.150484 0.729322 13.637469
v 0.547457 0.537753 13.504374
v 0.725635 0.587359 13.579880
v 0.148631 0.058790 12.704532
v 0.782475 0.561153 13.531916
v 0.444667 0.048593 12.671213
v 0.359319 0.097974 12.760440
v 0.780266 0.632073 13.490549
v 0.243259 0.156276 12.703540
v 0.502355 0.163675 12.702361
v 0.782475 0.561153 13.531916
v 1.015915 0.645581 13.664184
v 0.444667 0.048593 12.671213
v 0.502355 0.163675 12.702361
v 1.013703 0.716499 13.622813
v 0.780266 0.632073 13.490549
v 1.015915 0.645581 13.664184
v 1.152693 0.658402 13.678836
v 0.444667 0.048593 12.671213
v 0.502355 0.163675 12.702361
v 1.150484 0.729322 13.637469
v 1.013703 0.716499 13.622813
v 1.152693 0.658402 13.678836
v 1.207766 0.611186 13.594940
v 0.444667 0.048593 12.671213
v -0.087910 0.141871 12.696551
v 0.035657 0.162233 12.724851
v 0.545244 0.608671 13.463004
v 0.148631 0.058790 12.704532
v -0.010931 -0.014286 12.587764
v 0.058183 0.084564 12.753545
v 0.782475 0.561153 13.531916
v 0.359319 0.097974 12.760440
v 0.178339 0.035861 12.663629
v 0.780266 0.632073 13.490549
v 0.146419 0.129707 12.663161
v 0.243259 0.156276 12.703540
v 0.780266 0.632073 13.490549
v 0.723427 0.658279 13.538513
v 0.146419 0.129707 12.663161
v 0.725635 0.587359 13.579880
v 0.782475 0.561153 13.531916
v 0.148631 0.058790 12.704532
v 0.782475 0.561153 13.531916
v 0.178339 0.035861 12.663629
v 0.148631 0.058790 12.704532
v 0.723427 0.658279 13.538513
v 0.545244 0.608671 13.463004
v 0.146419 0.129707 12.663161
v 0.502355 0.163675 12.702361
v 0.359319 0.097974 12.760440
v 0.444667 0.048593 12.671213
v 0.243259 0.156276 12.703540
v 0.178339 0.035861 12.663629
v 0.359319 0.097974 12.760440
v 0.148631 0.058790 12.704532
v 0.178339 0.035861 12.663629
v 0.243259 0.156276 12.703540
v -0.013160 0.056629 12.546412
v -0.010931 -0.014286 12.587764
v 0.148631 0.058790 12.704532
v 0.035657 0.162233 12.724851
v 0.146419 0.129707 12.663161
v 0.545244 0.608671 13.463004
v 0.035657 0.162233 12.724851
v -0.013160 0.056629 12.546412
v 0.146419 0.129707 12.663161
v 0.547457 0.537753 13.504374
v 0.148631 0.058790 12.704532
v 0.058183 0.084564 12.753545
v -0.085703 0.070953 12.737918
v 0.547457 0.537753 13.504374
v 0.058183 0.084564 12.753545
v -0.010931 -0.014286 12.587764
v -0.013160 0.056629 12.546412
v 0.058183 0.084564 12.753545
v -0.013160 0.056629 12.546412
v 0.035657 0.162233 12.724851
v 0.058183 0.084564 12.753545
v 0.058183 0.084564 12.753545
v 0.035657 0.162233 12.724851
v -0.085703 0.070953 12.737918
v 0.035657 0.162233 12.724851
v -0.087910 0.141871 12.696551
v -0.085703 0.070953 12.737918
v -2.730247 -0.003167 6.383121
v -2.779443 -0.004513 6.506773
v -2.730847 0.078955 6.383772
v -2.604713 0.078067 6.610214
v -2.779443 -0.004513 6.506773
v -2.515473 -0.003919 6.671650
v -2.212304 0.080525 6.656333
v -2.120918 -0.000379 6.584163
v -2.037122 0.083315 6.465300
v -2.521868 0.077772 6.721693
v -2.312344 -0.002645 6.695522
v -2.212304 0.080525 6.656333
v -2.521868 0.077772 6.721693
v -2.604713 0.078067 6.610214
v -2.515473 -0.003919 6.671650
v -2.139732 0.000537 6.452519
v -0.825137 0.008788 6.607014
v -2.037122 0.083315 6.465300
v -0.825137 0.008788 6.607014
v -0.825737 0.090911 6.607665
v -2.037122 0.083315 6.465300
v -3.676118 0.070933 6.534639
v -4.377033 -0.007104 6.380237
v -3.897213 0.070721 6.360944
v -4.131169 0.069858 6.257497
v -3.930489 0.071419 6.242795
v -3.897213 0.070721 6.360944
v -3.676118 0.070933 6.534639
v -4.023760 0.033261 6.535062
v -3.675518 -0.011188 6.533988
v -3.896613 -0.011401 6.360293
v -4.131169 0.069858 6.257497
v -3.897213 0.070721 6.360944
v -4.377033 -0.007104 6.380237
v -3.676118 0.070933 6.534639
v -3.675518 -0.011188 6.533988
v -3.762914 0.069474 6.639534
v -4.023760 0.033261 6.535062
v -3.676118 0.070933 6.534639
v -3.762315 -0.012647 6.638883
v -4.023760 0.033261 6.535062
v -3.762914 0.069474 6.639534
v -1.169206 0.086348 6.870990
v -0.792163 0.070509 6.961522
v -1.166553 0.085732 6.949810
v -1.168628 0.004214 6.870340
v -0.792163 0.070509 6.961522
v -1.169206 0.086348 6.870990
v -1.166553 0.085732 6.949810
v -0.792163 0.070509 6.961522
v -1.168628 0.004214 6.870340
v -0.896536 0.088862 6.801987
v -0.298103 0.052374 6.927478
v -1.169206 0.086348 6.870990
v -0.895957 0.006728 6.801337
v -0.298103 0.052374 6.927478
v -0.896536 0.088862 6.801987
v -1.169206 0.086348 6.870990
v -0.298103 0.052374 6.927478
v -1.168628 0.004214 6.870340
v -0.790904 0.090331 6.712968
v -0.525073 0.045456 6.815901
v -0.896536 0.088862 6.801987
v -0.790305 0.008210 6.712318
v -0.525073 0.045456 6.815901
v -0.790904 0.090331 6.712968
v -0.896536 0.088862 6.801987
v -0.525073 0.045456 6.815901
v -0.895957 0.006728 6.801337
v -0.825737 0.090911 6.607665
v -0.476768 0.069117 6.701782
v -0.790904 0.090331 6.712968
v -0.825137 0.008788 6.607014
v -0.476768 0.069117 6.701782
v -0.825737 0.090911 6.607665
v -0.790904 0.090331 6.712968
v -0.476768 0.069117 6.701782
v -0.790305 0.008210 6.712318
v -1.166553 0.085732 6.949810
v -1.006522 0.086365 7.015283
v -1.352762 0.083813 7.022142
v -1.168628 0.004214 6.870340
v -1.006522 0.086365 7.015283
v -1.166553 0.085732 6.949810
v -1.352762 0.083813 7.022142
v -1.006522 0.086365 7.015283
v -1.352161 0.001690 7.021486
v -4.190834 -0.012226 6.662940
v -3.762315 -0.012647 6.638883
v -3.762914 0.069474 6.639534
v -4.377033 -0.007104 6.380237
v -3.896613 -0.011401 6.360293
v -3.897213 0.070721 6.360944
v -4.131169 0.069858 6.257497
v -3.929889 -0.010705 6.242139
v -3.930489 0.071419 6.242795
v -3.754313 0.068744 6.739910
v -3.753712 -0.013379 6.739252
v -4.190834 -0.012226 6.662940
v -4.190834 -0.012226 6.662940
v -3.762914 0.069474 6.639534
v -3.754313 0.068744 6.739910
v -2.443523 0.076966 6.893951
v -1.352762 0.083813 7.022142
v -2.442923 -0.005157 6.893300
v -1.352762 0.083813 7.022142
v -1.352161 0.001690 7.021486
v -2.442923 -0.005157 6.893300
v -2.730847 0.078955 6.383772
v -3.930489 0.071419 6.242795
v -2.730247 -0.003167 6.383121
v -3.930489 0.071419 6.242795
v -3.929889 -0.010705 6.242139
v -2.730247 -0.003167 6.383121
v -2.037122 0.083315 6.465300
v -0.825737 0.090911 6.607665
v -0.790904 0.090331 6.712968
v -3.754313 0.068744 6.739910
v -2.443523 0.076966 6.893951
v -3.753712 -0.013379 6.739252
v -2.443523 0.076966 6.893951
v -2.442923 -0.005157 6.893300
v -3.753712 -0.013379 6.739252
v -1.169206 0.086348 6.870990
v -2.212304 0.080525 6.656333
v -2.037122 0.083315 6.465300
v -2.037122 0.083315 6.465300
v -0.896536 0.088862 6.801987
v -1.169206 0.086348 6.870990
v -2.037122 0.083315 6.465300
v -0.790904 0.090331 6.712968
v -0.896536 0.088862 6.801987
v -2.521868 0.077772 6.721693
v -1.352762 0.083813 7.022142
v -2.443523 0.076966 6.893951
v -2.521868 0.077772 6.721693
v -2.443523 0.076966 6.893951
v -3.754313 0.068744 6.739910
v -2.521868 0.077772 6.721693
v -3.754313 0.068744 6.739910
v -3.762914 0.069474 6.639534
v -2.604713 0.078067 6.610214
v -2.521868 0.077772 6.721693
v -3.762914 0.069474 6.639534
v -2.604713 0.078067 6.610214
v -3.762914 0.069474 6.639534
v -3.676118 0.070933 6.534639
v -2.588199 0.078816 6.529966
v -2.604713 0.078067 6.610214
v -3.676118 0.070933 6.534639
v -2.730847 0.078955 6.383772
v -2.588199 0.078816 6.529966
v -3.676118 0.070933 6.534639
v -3.897213 0.070721 6.360944
v -3.930489 0.071419 6.242795
v -2.730847 0.078955 6.383772
v -3.897213 0.070721 6.360944
v -2.730847 0.078955 6.383772
v -3.676118 0.070933 6.534639
v -1.169206 0.086348 6.870990
v -2.521868 0.077772 6.721693
v -2.212304 0.080525 6.656333
v -1.169206 0.086348 6.870990
v -1.166553 0.085732 6.949810
v -2.521868 0.077772 6.721693
v -1.166553 0.085732 6.949810
v -1.352762 0.083813 7.022142
v -2.521868 0.077772 6.721693
v -2.779443 -0.004513 6.506773
v -2.588199 0.078816 6.529966
v -2.730847 0.078955 6.383772
v -2.604713 0.078067 6.610214
v -2.588199 0.078816 6.529966
v -2.779443 -0.004513 6.506773
v -2.037122 0.083315 6.465300
v -2.120918 -0.000379 6.584163
v -2.139732 0.000537 6.452519
v -2.212304 0.080525 6.656333
v -2.327361 -0.002320 6.642089
v -2.120918 -0.000379 6.584163
v -2.312344 -0.002645 6.695522
v -2.327361 -0.002320 6.642089
v -2.212304 0.080525 6.656333
v -2.521868 0.077772 6.721693
v -2.515473 -0.003919 6.671650
v -2.312344 -0.002645 6.695522
v -5.987963 0.158121 -8.079671
v -5.991468 0.176413 -8.214457
v -5.885701 0.271802 -8.168815
v -5.991468 0.176413 -8.214457
v -6.220014 0.239444 -8.254125
v -6.033939 0.308591 -8.162854
v -6.220014 0.239444 -8.254125
v -6.742637 0.373701 -8.268396
v -6.705997 0.488645 -8.238528
v -5.987963 0.158121 -8.079671
v -5.882389 0.262352 -8.102213
v -5.367686 0.041055 -8.390299
v -5.882389 0.262352 -8.102213
v -5.337670 0.159546 -8.375003
v -5.367686 0.041055 -8.390299
v -5.549366 0.113894 -8.597930
v -4.958718 0.129247 -8.979683
v -5.600777 0.144591 -8.734761
v -5.255368 0.090585 -8.994292
v -5.588605 0.159643 -8.875290
v -5.600777 0.144591 -8.734761
v -5.519328 0.232395 -8.582633
v -4.759862 0.007405 -8.897824
v -5.333700 0.172764 -8.485064
v -5.549366 0.113894 -8.597930
v -4.759862 0.007405 -8.897824
v -5.519328 0.232395 -8.582633
v -4.958718 0.129247 -8.979683
v -5.519328 0.232395 -8.582633
v -5.570765 0.263090 -8.719457
v -5.570765 0.263090 -8.719457
v -5.255368 0.090585 -8.994292
v -5.600777 0.144591 -8.734761
v -5.333700 0.172764 -8.485064
v -5.150265 0.122618 -8.501445
v -5.337670 0.159546 -8.375003
v -4.958718 0.129247 -8.979683
v -5.549366 0.113894 -8.597930
v -5.519328 0.232395 -8.582633
v -5.364318 0.054568 -8.501645
v -4.759862 0.007405 -8.897824
v -5.549366 0.113894 -8.597930
v -5.333700 0.172764 -8.485064
v -4.759862 0.007405 -8.897824
v -5.364318 0.054568 -8.501645
v -5.150265 0.122618 -8.501445
v -5.333700 0.172764 -8.485064
v -5.364318 0.054568 -8.501645
v -5.558593 0.278141 -8.859985
v -5.255368 0.090585 -8.994292
v -5.570765 0.263090 -8.719457
v -4.958718 0.129247 -8.979683
v -5.570765 0.263090 -8.719457
v -5.600777 0.144591 -8.734761
v -5.255368 0.090585 -8.994292
v -5.558593 0.278141 -8.859985
v -5.588605 0.159643 -8.875290
v -5.367686 0.041055 -8.390299
v -5.337670 0.159546 -8.375003
v -5.150265 0.122618 -8.501445
v -5.150265 0.122618 -8.501445
v -5.364318 0.054568 -8.501645
v -5.367686 0.041055 -8.390299
v -5.588605 0.159643 -8.875290
v -5.558593 0.278141 -8.859985
v -6.510284 0.457757 -8.383387
v -5.364318 0.054568 -8.501645
v -5.987963 0.158121 -8.079671
v -5.367686 0.041055 -8.390299
v -6.510284 0.457757 -8.383387
v -5.558593 0.278141 -8.859985
v -5.570765 0.263090 -8.719457
v -6.341870 0.404197 -8.299083
v -6.510284 0.457757 -8.383387
v -5.570765 0.263090 -8.719457
v -5.588605 0.159643 -8.875290
v -6.742637 0.373701 -8.268396
v -6.220014 0.239444 -8.254125
v -5.600777 0.144591 -8.734761
v -5.588605 0.159643 -8.875290
v -6.220014 0.239444 -8.254125
v -6.245440 0.368397 -8.211066
v -6.341870 0.404197 -8.299083
v -5.570765 0.263090 -8.719457
v -5.549366 0.113894 -8.597930
v -6.220014 0.239444 -8.254125
v -5.991468 0.176413 -8.214457
v -5.333700 0.172764 -8.485064
v -6.033939 0.308591 -8.162854
v -5.519328 0.232395 -8.582633
v -5.337670 0.159546 -8.375003
v -5.882389 0.262352 -8.102213
v -5.885701 0.271802 -8.168815
v -5.364318 0.054568 -8.501645
v -5.549366 0.113894 -8.597930
v -5.991468 0.176413 -8.214457
v -5.364318 0.054568 -8.501645
v -5.991468 0.176413 -8.214457
v -5.987963 0.158121 -8.079671
v -6.510284 0.457757 -8.383387
v -6.341870 0.404197 -8.299083
v -6.705997 0.488645 -8.238528
v -5.519328 0.232395 -8.582633
v -6.077414 0.327795 -8.226318
v -5.570765 0.263090 -8.719457
v -6.077414 0.327795 -8.226318
v -6.245440 0.368397 -8.211066
v -5.570765 0.263090 -8.719457
v -6.077414 0.327795 -8.226318
v -5.519328 0.232395 -8.582633
v -6.033939 0.308591 -8.162854
v -5.549366 0.113894 -8.597930
v -5.600777 0.144591 -8.734761
v -6.220014 0.239444 -8.254125
v -5.333700 0.172764 -8.485064
v -5.885701 0.271802 -8.168815
v -6.033939 0.308591 -8.162854
v -5.333700 0.172764 -8.485064
v -5.337670 0.159546 -8.375003
v -5.885701 0.271802 -8.168815
v -5.987963 0.158121 -8.079671
v -5.885701 0.271802 -8.168815
v -5.882389 0.262352 -8.102213
v -5.991468 0.176413 -8.214457
v -6.033939 0.308591 -8.162854
v -5.885701 0.271802 -8.168815
v -6.220014 0.239444 -8.254125
v -6.705997 0.488645 -8.238528
v -6.341870 0.404197 -8.299083
v -6.220014 0.239444 -8.254125
v -6.077414 0.327795 -8.226318
v -6.033939 0.308591 -8.162854
v -6.220014 0.239444 -8.254125
v -6.245440 0.368397 -8.211066
v -6.077414 0.327795 -8.226318
v -6.341870 0.404197 -8.299083
v -6.245440 0.368397 -8.211066
v -6.220014 0.239444 -8.254125
v -6.705997 0.488645 -8.238528
v -6.742637 0.373701 -8.268396
v -6.510284 0.457757 -8.383387
v -6.742637 0.373701 -8.268396
v -5.588605 0.159643 -8.875290
v -6.510284 0.457757 -8.383387
vn -0.9710 -0.2388 -0.0078
vn -0.9709 -0.2396 0.0041
vn 0.9710 0.2391 -0.0040
vn 0.9709 0.2388 -0.0157
vn 0.1529 -0.9802 0.1256
vn -0.0626 -0.9538 0.2937
vn 0.2351 -0.9702 0.0589
vn -0.2310 0.9708 -0.0646
vn -0.2216 0.9708 -0.0922
vn -0.2371 0.9701 -0.0509
vn -0.2432 0.9687 -0.0490
vn 0.9666 0.2432 0.0803
vn -0.9693 -0.2330 0.0783
vn 0.9238 0.2727 0.2687
vn -0.9747 0.0313 0.2215
vn 0.8824 0.3177 0.3471
vn -0.2349 0.9710 -0.0449
vn -0.2212 0.9751 -0.0136
vn -0.1586 0.9808 0.1136
vn 0.2409 -0.9693 0.0490
vn 0.2352 -0.9702 0.0588
vn 0.2470 -0.9666 0.0686
vn -0.9542 -0.2077 0.2155
vn -0.2309 0.9708 -0.0647
vn -0.1295 0.9708 -0.2021
vn -0.9700 -0.2293 -0.0804
vn -0.9700 -0.2293 -0.0805
vn 0.2390 -0.9696 0.0530
vn 0.2390 -0.9697 0.0510
vn 0.2390 -0.9696 0.0531
vn 0.9721 0.2195 -0.0823
vn -0.2450 0.9677 -0.0588
vn -0.2507 0.9653 -0.0725
vn -0.3233 0.9345 -0.1489
vn 0.2350 -0.9712 0.0392
vn 0.2371 -0.9701 0.0509
vn 0.2036 -0.9790 0.0137
vn 0.9424 0.2039 -0.2652
vn -0.2506 0.9654 -0.0726
vn -0.2272 0.9713 -0.0706
vn -0.2313 0.9509 -0.2058
vn -0.9367 -0.2315 -0.2627
vn -0.9367 -0.2314 -0.2627
vn 0.2488 -0.9679 0.0352
vn 0.2350 -0.9712 0.0391
vn 0.2393 -0.9609 -0.1392
vn -0.2271 0.9713 -0.0706
vn -0.2369 0.9695 -0.0627
vn -0.1037 0.9812 -0.1625
vn -0.9684 -0.2293 -0.0980
vn 0.2409 -0.9693 0.0489
vn 0.2489 -0.9679 0.0352
vn 0.3584 -0.9323 -0.0490
vn 0.9689 0.2177 -0.1178
vn 0.9689 0.2178 -0.1178
vn -0.2370 0.9695 -0.0628
vn -0.2216 0.9708 -0.0923
vn -0.2762 0.9145 -0.2957
vn -0.9674 -0.2293 -0.1078
vn -0.9674 -0.2292 -0.1078
vn 0.2254 -0.9742 -0.0138
vn 0.9618 0.2311 0.1468
vn 0.2471 -0.9666 0.0687
vn 0.2353 -0.9701 0.0589
vn 0.3275 -0.9275 0.1804
vn -0.7191 -0.3194 0.6172
vn 0.7900 -0.0941 0.6058
vn -0.8097 -0.2940 0.5079
vn 0.2408 -0.9693 0.0490
vn -0.2372 0.9701 -0.0510
vn -0.2528 0.9666 -0.0411
vn 0.9238 0.2726 0.2687
vn 0.8825 0.3176 0.3470
vn 0.9511 0.2335 0.2020
vn -0.2349 0.9710 -0.0450
vn -0.2628 0.9647 0.0177
vn -0.2216 0.9744 -0.0373
vn -0.8098 -0.2941 0.5077
vn -0.9663 -0.1978 0.1646
vn -0.2272 0.9713 -0.0705
vn -0.2215 0.9744 -0.0372
vn -0.2371 0.9701 -0.0510
vn -0.2370 0.9695 -0.0627
vn 0.2488 -0.9679 0.0353
vn 0.2430 -0.9679 0.0647
vn 0.2389 -0.9696 0.0527
vn -0.2506 0.9654 -0.0724
vn -0.2371 0.9702 -0.0509
vn -0.2215 0.9745 -0.0372
vn -0.0117 0.9915 0.1293
vn -0.2449 0.9678 -0.0588
vn -0.2213 0.9751 -0.0137
vn -0.2506 0.9654 -0.0725
vn 0.2390 -0.9696 0.0528
vn 0.2390 -0.9696 0.0529
vn 0.2429 -0.9679 0.0646
vn 0.2469 -0.9666 0.0685
vn 0.4450 -0.6133 0.6525
vn 0.1530 -0.9802 0.1254
vn 0.4466 -0.2017 0.8717
vn -0.3878 0.0489 0.9204
vn 0.0235 0.0763 0.9968
vn -0.3878 0.0491 0.9204
vn -0.5862 0.3945 0.7076
vn -0.4255 0.2151 0.8790
vn -0.4234 0.2156 0.8799
vn -0.5862 0.3941 0.7078
vn -0.6530 0.3667 0.6627
vn -0.8169 0.2705 0.5094
vn -0.8170 0.2704 0.5094
vn -0.8340 0.2584 0.4875
vn -0.8352 0.2568 0.4862
vn 0.0216 -0.8668 0.4981
vn 0.0275 -0.8667 0.4981
vn -0.0060 -0.8804 0.4741
vn -0.8796 0.2175 0.4231
vn -0.0294 0.8578 -0.5132
vn 0.0097 0.7897 -0.6134
vn -0.1433 0.7868 -0.6004
vn 0.7648 -0.3062 -0.5668
vn 0.7648 -0.3063 -0.5668
vn 0.0275 -0.8667 0.4980
vn 0.0549 -0.8859 0.4606
vn 0.1076 -0.9136 0.3921
vn -0.8655 0.2312 0.4444
vn -0.0000 0.8395 -0.5434
vn -0.0293 0.8578 -0.5132
vn 0.0588 0.7903 -0.6099
vn 0.7860 -0.2920 -0.5449
vn 0.7860 -0.2921 -0.5449
vn 0.0549 -0.8859 0.4605
vn 0.0196 -0.8835 0.4681
vn 0.0511 -0.9392 0.3394
vn -0.9355 0.1548 0.3177
vn -0.9355 0.1549 0.3177
vn -0.0489 0.8423 -0.5368
vn -0.0061 0.7837 -0.6211
vn 0.7689 -0.3041 -0.5624
vn 0.0196 -0.8834 0.4682
vn 0.0176 -0.8660 0.4997
vn -0.0392 -0.8825 0.4687
vn -0.8353 0.2568 0.4862
vn -0.8341 0.2584 0.4874
vn -0.8922 0.2059 0.4020
vn -0.0451 0.8581 -0.5114
vn -0.0491 0.8423 -0.5368
vn -0.1921 0.7958 -0.5743
vn 0.7193 -0.3332 -0.6096
vn 0.7194 -0.3332 -0.6095
vn 0.0254 -0.8637 0.5033
vn -0.9415 0.1469 0.3034
vn -0.9414 0.1470 0.3034
vn -0.9415 0.1468 0.3034
vn 0.0098 0.7897 -0.6134
vn -0.0176 0.8544 -0.5193
vn 0.2332 0.4605 -0.8565
vn 0.7999 -0.2824 -0.5295
vn 0.7980 -0.2849 -0.5311
vn 0.7304 -0.3270 -0.5996
vn 0.8170 -0.2704 -0.5094
vn 0.7980 -0.2843 -0.5314
vn 0.8170 -0.2703 -0.5094
vn 0.7980 -0.2843 -0.5313
vn 0.8000 -0.2823 -0.5294
vn 0.0255 -0.8637 0.5033
vn 0.0176 -0.8661 0.4996
vn -0.0255 0.8637 -0.5033
vn 0.0098 0.7898 -0.6133
vn -0.0294 0.8578 -0.5131
vn -0.0254 0.8637 -0.5033
vn 0.0255 -0.8637 0.5034
vn -0.0000 0.8395 -0.5433
vn 0.0253 -0.8637 0.5033
vn -0.0490 0.8423 -0.5368
vn 0.0196 -0.8834 0.4681
vn -0.0255 0.8637 -0.5034
vn -0.0490 0.8423 -0.5367
vn -0.0451 0.8582 -0.5114
vn -0.0256 0.8637 -0.5034
vn 0.5054 -0.4526 0.7347
vn 0.4466 -0.2019 0.8717
vn 0.0234 0.0764 0.9968
vn 0.0235 0.0764 0.9968
vn -0.3879 0.0489 0.9204
vn -0.0764 -0.2763 0.9580
vn -0.3877 0.0489 0.9205
vn -0.4233 0.2156 0.8800
vn -0.0765 -0.2762 0.9580
vn -0.6529 0.3661 0.6631
vn 0.9394 0.0803 -0.3334
vn 0.9413 -0.1471 -0.3040
vn 0.9463 -0.0705 -0.3154
vn 0.9394 0.0804 -0.3334
vn 0.9463 -0.0704 -0.3155
vn 0.9297 0.1433 -0.3394
vn -0.2157 0.4137 0.8845
vn -0.1310 0.3092 0.9419
vn -0.1724 0.3604 0.9167
vn -0.2158 0.4139 0.8844
vn -0.1724 0.3605 0.9167
vn -0.2706 0.4785 0.8354
vn -0.6211 0.7405 0.2566
vn -0.9295 -0.0021 -0.3687
vn -0.5315 0.8000 0.2784
vn -0.3506 -0.3427 0.8716
vn -0.5276 0.5570 0.6414
vn -0.5314 0.8000 0.2784
vn 0.7761 -0.6213 0.1079
vn 0.3465 -0.4133 0.8421
vn 0.6820 -0.4351 0.5879
vn 0.3466 -0.4133 0.8420
vn -0.3077 -0.4427 0.8422
vn 0.2977 -0.3566 0.8856
vn -0.3506 -0.3428 0.8716
vn -0.3075 -0.4427 0.8423
vn -0.5276 0.5571 0.6413
vn -0.1156 -0.0078 0.9933
vn -0.1469 -0.0078 0.9891
vn -0.1155 -0.0078 0.9933
vn -0.1488 -0.0078 0.9888
vn 0.0569 -0.9959 -0.0707
vn 0.0177 -0.9997 -0.0138
vn 0.1490 -0.9707 -0.1883
vn 0.0569 -0.9959 -0.0706
vn 0.0060 -1.0000 -0.0078
vn 0.3745 0.0098 -0.9272
vn 0.3995 0.0098 -0.9167
vn 0.0021 -0.0079 1.0000
vn 0.5194 -0.0031 0.8545
vn 0.3349 -0.0039 0.9422
vn 0.4034 0.0097 -0.9150
vn 0.3743 0.0098 -0.9272
vn 0.2134 0.0079 -0.9769
vn 0.0177 -0.9998 -0.0137
vn 0.0529 -0.9986 0.0019
vn 0.1059 -0.9916 0.0745
vn 0.3706 0.0101 -0.9287
vn -0.0000 -1.0000 -0.0059
vn 0.0019 -0.9999 -0.0118
vn -0.0393 -0.9992 -0.0059
vn -0.2334 -0.0080 0.9724
vn -0.2334 -0.0081 0.9724
vn -0.0176 0.9998 0.0021
vn -0.1861 0.6879 -0.7016
vn 0.0491 0.6964 -0.7160
vn -0.0078 -0.9981 -0.0607
vn -0.0274 -0.9885 -0.1488
vn -0.2055 -0.0077 0.9786
vn 0.0648 0.0080 -0.9979
vn -0.0079 -0.9981 -0.0607
vn -0.0255 -0.9992 -0.0294
vn -0.1078 -0.9835 -0.1450
vn -0.3622 -0.0097 0.9321
vn 0.0370 0.0078 -0.9993
vn -0.0000 -1.0000 -0.0039
vn -0.0667 -0.9976 0.0160
vn -0.1489 -0.0078 0.9888
vn -0.1470 -0.0078 0.9891
vn -0.2605 -0.0079 0.9654
vn -0.0334 0.0060 -0.9994
vn 0.0059 -1.0000 -0.0078
vn -0.1862 0.6878 -0.7016
vn -0.0176 0.9998 0.0019
vn -0.3546 0.9266 -0.1254
vn 0.0860 0.0078 -0.9963
vn 0.0822 0.0086 -0.9966
vn -0.0196 0.0059 -0.9998
vn 0.0548 -0.0059 0.9985
vn 0.5194 -0.0020 0.8545
vn 0.0411 -0.0059 0.9991
vn 0.0725 -0.0059 0.9974
vn 0.1706 0.0080 -0.9853
vn 0.1705 0.0079 -0.9853
vn 0.0432 -0.9990 -0.0098
vn 0.1863 -0.9823 -0.0215
vn 0.0530 -0.9986 0.0019
vn 0.1155 0.0078 -0.9933
vn 0.0822 0.0078 -0.9966
vn 0.1156 0.0078 -0.9933
vn 0.0861 0.0078 -0.9963
vn -0.1154 -0.0077 0.9933
vn 0.0060 -1.0000 -0.0079
vn 0.0020 -0.9999 -0.0118
vn 0.0057 -1.0000 -0.0078
vn -0.0078 -0.9981 -0.0606
vn 0.0063 -0.9999 -0.0079
vn 0.0058 -1.0000 -0.0078
vn 0.0431 -0.9990 -0.0098
vn 0.0529 -0.9986 0.0020
vn 0.0061 -1.0000 -0.0079
vn 0.0177 -0.9997 -0.0137
vn 0.0176 -0.9998 -0.0137
vn 0.0568 -0.9959 -0.0706
vn -0.6210 0.7406 0.2567
vn -0.5313 0.8001 0.2785
vn -0.4094 0.8991 0.1549
vn -0.5314 0.8001 0.2783
vn -0.4094 0.8991 0.1547
vn 0.6332 -0.7683 -0.0940
vn 0.7761 -0.6213 0.1077
vn 0.6819 -0.4350 0.5880
vn 0.6820 -0.4350 0.5879
vn 0.4531 -0.7199 0.5257
vn 0.3466 -0.4134 0.8420
vn 0.2978 -0.3566 0.8855
vn 0.4531 -0.7199 0.5258
vn -0.3505 -0.3428 0.8716
vn 0.6187 -0.3622 -0.6972
vn 0.6903 -0.7139 -0.1177
vn 0.4510 -0.0334 -0.8919
vn 0.2077 0.2410 -0.9480
vn 0.4509 -0.0333 -0.8920
vn 0.1608 0.0335 -0.9864
vn 0.0177 0.0823 -0.9964
vn 0.1608 0.0334 -0.9864
vn 0.1137 0.2155 -0.9699
vn -0.4251 0.2214 -0.8776
vn -0.4035 0.2154 -0.8893
vn -0.4035 0.2155 -0.8892
vn -0.4330 0.2214 -0.8738
vn 0.2058 0.9686 0.1393
vn 0.2055 0.9673 0.1488
vn 0.0921 0.9785 0.1843
vn 0.2059 0.9686 0.1392
vn 0.2431 0.9621 0.1236
vn -0.2784 -0.9589 -0.0549
vn -0.2545 -0.9613 -0.1057
vn -0.2937 -0.9556 -0.0234
vn 0.3233 -0.1999 0.9249
vn -0.2706 -0.9547 -0.1235
vn -0.2587 -0.9588 -0.1177
vn -0.5582 0.2430 -0.7933
vn -0.5583 0.2429 -0.7933
vn -0.2471 -0.9611 -0.1236
vn -0.2527 -0.9597 -0.1234
vn -0.2705 -0.9548 -0.1235
vn -0.5310 0.2391 -0.8130
vn -0.5309 0.2390 -0.8130
vn 0.2056 0.9673 0.1488
vn 0.1802 0.9698 0.1646
vn 0.2037 0.9588 0.1981
vn -0.5173 0.2489 -0.8188
vn 0.0470 -0.1489 0.9877
vn -0.2706 -0.9547 -0.1236
vn -0.3805 -0.9157 -0.1294
vn -0.5640 -0.8146 -0.1351
vn 0.3445 -0.2056 0.9160
vn 0.3764 -0.2118 0.9019
vn 0.2937 -0.1940 0.9360
vn 0.3804 -0.2118 0.9002
vn -0.5112 0.2352 -0.8266
vn -0.4252 0.2214 -0.8776
vn -0.4333 0.2203 -0.8739
vn 0.1606 0.9793 0.1234
vn -0.2998 0.9481 0.1058
vn 0.1802 0.9698 0.1645
vn 0.4230 -0.2271 0.8772
vn 0.3764 -0.2117 0.9019
vn 0.3805 -0.2118 0.9002
vn 0.2430 0.9621 0.1235
vn -0.2431 -0.9621 -0.1235
vn -0.3803 -0.9157 -0.1294
vn -0.2431 -0.9621 -0.1236
vn 0.2429 0.9622 0.1234
vn 0.2430 0.9621 0.1234
vn 0.2431 0.9621 0.1235
vn -0.2429 -0.9622 -0.1234
vn 0.2429 0.9622 0.1233
vn 0.2430 0.9622 0.1234
vn -0.2430 -0.9621 -0.1234
vn -0.2430 -0.9621 -0.1235
vn -0.2429 -0.9622 -0.1233
vn -0.2428 -0.9622 -0.1233
vn -0.2785 -0.9589 -0.0549
vn -0.2432 -0.9621 -0.1237
vn -0.2526 -0.9597 -0.1234
vn 0.6817 -0.7190 -0.1352
vn 0.6188 -0.3622 -0.6971
vn 0.2076 0.2410 -0.9481
vn -0.0687 -0.2217 -0.9727
vn 0.1609 0.0334 -0.9864
vn 0.0176 0.0822 -0.9965
vn 0.2077 0.2408 -0.9481
vn 0.1607 0.0333 -0.9864
vn 0.3704 -0.1469 -0.9172
vn 0.3704 -0.1471 -0.9172
vn 0.4250 0.3604 -0.8304
vn 0.1608 0.0332 -0.9864
vn -0.0686 -0.2216 -0.9727
vn 0.4250 0.3604 -0.8303
vn 0.4230 -0.2272 0.8772
vn 0.5160 -0.3649 0.7750
vn 0.5118 -0.3275 0.7942
vn 0.5118 -0.3274 0.7943
vn 0.3765 -0.2117 0.9019
vn -0.9710 -0.2388 -0.0098
vn -0.9710 -0.2391 0.0040
vn -0.9710 -0.2388 -0.0079
vn -0.9674 -0.2430 -0.0710
vn 0.9709 0.2389 -0.0157
vn 0.9693 0.2331 -0.0784
vt 1.538086 -2.417969
vt 1.582031 -3.996094
vt 1.538086 -3.996094
vt 1.332031 -3.996094
vt 1.288086 -3.996094
vt 1.288086 -2.445312
vt 1.788086 -3.996094
vt 1.779297 -4.152344
vt 1.736328 -3.917969
vt 1.332031 -2.445312
vt 1.373047 -2.410156
vt 1.383789 -3.917969
vt 1.305664 -4.152344
vt 1.579102 -4.261719
vt 1.563477 -1.273438
vt 1.542969 -1.373047
vt 1.529297 -1.298828
vt 1.468750 -3.957031
vt 1.521484 -4.261719
vt 1.719727 -2.417969
vt 1.692383 -3.957031
vt 1.572266 -0.996094
vt 1.554688 -1.226562
vt 1.529297 -0.996094
vt 1.352539 -2.119141
vt 1.572266 -1.287109
vt 1.529297 -1.287109
vt 1.788086 -2.445312
vt 1.748047 -2.410156
vt 1.768555 -2.119141
vt 1.561523 -1.316406
vt 1.495117 -2.367188
vt 1.516602 -2.046875
vt 1.625977 -2.367188
vt 1.582031 -2.417969
vt 1.603516 -2.046875
vt 1.547852 -1.130859
vt 1.433594 -2.369141
vt 1.463867 -2.234375
vt 1.572266 -1.128906
vt 1.529297 -1.128906
vt 1.547852 -0.996094
vt 1.686523 -2.369141
vt 1.656250 -2.234375
vt 1.550781 -1.238281
vt 1.400391 -2.417969
vt 1.416992 -2.173828
vt 1.572266 -1.189453
vt 1.529297 -1.189453
vt 1.550781 -0.996094
vt 1.703125 -2.173828
vt 1.563477 -1.138672
vt 1.386719 -2.267578
vt 1.572266 -1.144531
vt 1.529297 -1.144531
vt 1.563477 -0.996094
vt 1.733398 -2.267578
vt 1.572266 -1.169922
vt 1.529297 -1.169922
vt 1.532227 -0.996094
vt 1.714844 -4.093750
vt 1.529297 -1.089844
vt 1.549805 -0.996094
vt 1.556641 -1.070312
vt 1.340820 -4.152344
vt 1.561523 -0.996094
vt 1.455078 -4.066406
vt 1.423828 -3.976562
vt 1.531250 -1.207031
vt 1.647461 -3.984375
vt 1.405273 -4.093750
vt 1.598633 -4.261719
vt 1.665039 -4.066406
vt 0.763184 0.569824
vt 0.689453 0.608643
vt 0.741211 0.622070
vt 0.648438 0.623535
vt 0.650391 0.659424
vt 0.553223 0.622803
vt 1.288086 -2.529297
vt 1.332031 -2.580078
vt 1.332031 -1.824219
vt 1.288086 -1.824219
vt 1.536133 -1.992188
vt 1.494141 -2.000000
vt 1.519531 -1.779297
vt 1.577148 -1.210938
vt 1.534180 -1.210938
vt 1.567383 -0.994141
vt 1.534180 -0.994141
vt 1.577148 -0.994141
vt 1.567383 -1.205078
vt 1.440430 -1.849609
vt 1.469727 -1.501953
vt 1.577148 -1.337891
vt 1.534180 -1.337891
vt 1.555664 -0.994141
vt 1.536133 -0.984375
vt 1.580078 -0.984375
vt 1.556641 -1.480469
vt 1.385742 -1.794922
vt 1.424805 -1.636719
vt 1.577148 -1.146484
vt 1.534180 -1.146484
vt 1.552734 -0.994141
vt 1.550781 -1.199219
vt 1.332031 -1.822266
vt 1.360352 -1.617188
vt 1.300781 -1.646484
vt 1.505859 -1.373047
vt 1.549805 -1.373047
vt 1.538086 -1.552734
vt 1.586914 -2.093750
vt 1.561523 -1.898438
vt 1.549805 -1.552734
vt 1.505859 -1.552734
vt 1.549805 -1.455078
vt 1.586914 -2.095703
vt 1.629883 -2.095703
vt 1.629883 -1.896484
vt 1.586914 -2.724609
vt 1.629883 -2.724609
vt 1.332031 -2.519531
vt 1.472656 -2.662109
vt 1.401367 -2.560547
vt 1.445312 -2.607422
vt 1.586914 -2.722656
vt 1.542969 -2.666016
vt 1.530273 -2.666016
vt 1.497070 -2.779297
vt 1.445312 -2.673828
vt 0.782227 0.610107
vt 0.661133 0.661865
vt 0.553223 0.660400
vt 0.463379 0.634277
vt 0.463379 0.596680
vt 0.417969 0.634277
vt 0.417969 0.596680
vt 0.398193 0.586914
vt 0.374756 0.617188
vt 0.413574 0.628906
vt 0.555664 0.652588
vt 0.506836 0.610107
vt 0.744141 0.538330
vt 0.685059 0.613525
vt 0.751953 0.609863
vt 0.558594 0.619873
vt 0.655762 0.658447
vt 1.570312 -3.378906
vt 1.526367 -3.429688
vt 1.526367 -2.671875
vt 1.570312 -2.671875
vt 1.465820 -4.433594
vt 1.386719 -4.296875
vt 1.424805 -4.703125
vt 1.506836 -4.574219
vt 1.527344 -4.460938
vt 1.529297 -1.250000
vt 1.572266 -1.248047
vt 1.554688 -1.462891
vt 1.590820 -1.158203
vt 1.531250 -1.193359
vt 1.558594 -0.961914
vt 1.548828 -0.971680
vt 1.325195 -4.335938
vt 1.364258 -4.492188
vt 1.583984 -1.228516
vt 1.540039 -1.228516
vt 1.545898 -1.072266
vt 1.322266 -2.841797
vt 1.364258 -2.847656
vt 1.339844 -2.628906
vt 1.574219 -1.011719
vt 1.540039 -1.017578
vt 1.583984 -1.017578
vt 1.574219 -1.228516
vt 1.417969 -2.697266
vt 1.388672 -2.349609
vt 1.572266 -1.375000
vt 1.529297 -1.375000
vt 1.550781 -1.031250
vt 1.529297 -0.986328
vt 1.573242 -0.986328
vt 1.549805 -1.482422
vt 1.472656 -2.644531
vt 1.434570 -2.486328
vt 1.559570 -1.074219
vt 1.540039 -1.021484
vt 1.583984 -1.023438
vt 1.557617 -1.228516
vt 1.527344 -2.669922
vt 1.498047 -2.466797
vt 1.557617 -2.494141
vt 1.522461 -1.058594
vt 1.566406 -1.058594
vt 1.554688 -1.236328
vt 1.271484 -2.943359
vt 1.296875 -2.746094
vt 1.549805 -1.525391
vt 1.505859 -1.525391
vt 1.548828 -1.427734
vt 1.272461 -2.943359
vt 1.228516 -2.943359
vt 1.228516 -2.746094
vt 1.574219 -1.109375
vt 1.558594 -1.347656
vt 1.531250 -1.109375
vt 1.559570 -1.421875
vt 1.570312 -4.460938
vt 1.570312 -4.558594
vt 1.526367 -4.460938
vt 1.231445 -4.582031
vt 1.228516 -4.328125
vt 1.272461 -4.328125
vt 1.271484 -4.328125
vt 1.285156 -4.578125
vt 1.272461 -3.574219
vt 1.228516 -3.574219
vt 1.526367 -3.773438
vt 1.570312 -3.773438
vt 1.527344 -3.367188
vt 1.414062 -3.457031
vt 1.271484 -3.570312
vt 1.359375 -3.628906
vt 1.414062 -3.679688
vt 1.458008 -3.675781
vt 1.527344 -3.769531
vt 0.489746 0.584961
vt 0.781738 0.563232
vt 0.694824 0.652100
vt 0.746582 0.633301
vt 0.767090 0.605713
vt 0.713379 0.609131
vt 0.687500 0.649170
vt 0.618652 0.632812
vt 0.404297 0.622314
vt 0.404297 0.596191
vt 1.314453 -3.738281
vt 1.314453 -3.472656
vt 1.358398 -3.472656
vt 1.358398 -3.738281
vt 1.551758 -3.710938
vt 1.483398 -3.710938
vt 1.531250 -3.968750
vt 1.588867 -3.875000
vt 1.608398 -3.738281
vt 1.403320 -3.757812
vt 1.449219 -4.031250
vt 1.554688 -1.126953
vt 1.589844 -1.125000
vt 1.571289 -1.328125
vt 1.570312 -1.261719
vt 1.527344 -1.265625
vt 1.555664 -0.996094
vt 1.357422 -3.738281
vt 1.371094 -3.824219
vt 1.577148 -0.968750
vt 1.404297 -3.757812
vt 1.578125 -1.222656
vt 1.546875 -1.222656
vt 1.540039 -1.019531
vt 1.565430 -1.257812
vt 1.541016 -1.308594
vt 1.534180 -1.257812
vt 1.540039 -1.558594
vt 1.653320 -3.738281
vt 1.653320 -3.875000
vt 1.609375 -3.738281
vt 1.342773 -3.824219
vt 1.610352 -3.328125
vt 1.357422 -3.472656
vt 1.608398 -3.328125
vt 1.538086 -3.375000
vt 1.480469 -3.417969
vt 1.596680 -3.238281
vt 1.480469 -3.394531
vt 1.415039 -3.492188
vt 1.415039 -3.460938
vt 1.386719 -3.515625
vt 1.357422 -3.503906
vt 1.588867 -3.238281
vt 1.451172 -3.457031
vt 0.773438 0.631592
vt 0.557129 0.652832
vt 0.653809 0.658691
vt 0.613281 0.659668
vt 1.610352 -3.238281
vt 1.653320 -3.238281
vt 1.570312 -2.046875
vt 1.289062 -2.119141
s 1
f 6/1/1 4/2/2 5/3/2
f 9/4/3 7/5/3 8/6/4
f 15/7/5 13/8/6 14/9/7
f 18/10/8 16/11/9 17/12/10
f 21/10/8 19/12/10 20/4/11
f 24/13/12 22/5/12 23/4/12
f 27/2/13 25/14/13 26/3/13
f 30/15/14 28/16/15 29/17/16
f 33/18/17 31/3/18 32/19/19
f 36/20/20 34/9/21 35/21/22
f 39/22/23 37/23/23 38/24/23
f 43/11/9 41/10/24 42/25/25
f 46/26/26 44/27/27 45/22/26
f 49/28/28 47/29/29 48/30/30
f 52/24/31 50/22/31 51/31/31
f 55/1/32 53/32/33 54/33/34
f 59/34/35 57/35/36 58/36/37
f 62/24/38 60/22/38 61/37/38
f 65/32/39 63/38/40 64/39/41
f 68/40/42 66/41/43 67/42/42
f 71/43/44 69/34/45 70/44/46
f 74/24/31 72/22/31 73/45/31
f 77/38/47 75/46/48 76/47/49
f 80/48/50 78/49/50 79/50/50
f 83/20/51 81/43/52 82/51/53
f 86/24/54 84/22/54 85/52/55
f 89/46/56 87/11/57 88/53/58
f 92/54/59 90/55/60 91/56/60
f 95/29/29 93/20/20 94/57/61
f 98/58/62 96/59/62 97/60/62
f 101/21/63 99/9/64 100/61/65
f 104/62/66 102/63/67 103/64/68
f 107/29/29 105/9/21 106/20/69
f 110/4/11 108/12/70 109/65/71
f 113/15/72 111/17/73 112/66/74
f 116/18/75 114/67/76 115/68/77
f 119/62/66 117/64/78 118/69/79
f 122/38/80 120/68/81 121/12/10
f 125/38/80 123/12/82 124/46/83
f 128/20/20 126/21/22 127/43/84
f 131/35/36 129/34/35 130/70/85
f 134/35/36 132/70/85 133/2/86
f 137/18/75 135/68/81 136/38/80
f 140/18/75 138/38/80 139/32/87
f 143/12/88 141/68/89 142/71/90
f 146/1/91 144/3/92 145/18/75
f 149/1/91 147/18/75 148/32/93
f 152/70/94 150/72/94 151/2/95
f 155/70/96 153/21/97 154/73/98
f 158/43/84 156/21/22 157/70/85
f 161/43/84 159/70/85 160/34/35
f 164/12/70 162/11/9 163/46/83
f 167/7/99 165/9/21 166/29/29
f 170/7/99 168/29/29 169/28/95
f 173/74/100 171/75/101 172/76/102
f 176/75/103 174/77/104 175/78/105
f 179/78/106 177/77/107 178/79/108
f 182/80/109 180/81/110 181/82/111
f 185/80/110 183/82/111 184/83/112
f 188/84/113 186/85/114 187/86/115
f 191/87/116 189/88/116 190/89/116
f 194/85/117 192/84/118 193/86/119
f 197/90/120 195/91/121 196/92/121
f 200/85/122 198/93/123 199/94/124
f 203/95/125 201/96/125 202/97/125
f 206/93/126 204/85/127 205/94/128
f 209/98/129 207/99/130 208/100/130
f 212/93/131 210/101/132 211/102/133
f 215/103/134 213/104/134 214/105/135
f 218/101/136 216/93/126 217/102/137
f 221/90/138 219/91/138 220/106/138
f 224/101/139 222/107/140 223/108/141
f 227/83/142 225/82/143 226/109/144
f 230/107/145 228/101/146 229/108/147
f 233/110/148 231/111/149 232/112/149
f 236/113/150 234/84/113 235/114/150
f 239/115/151 237/116/152 238/117/153
f 242/84/154 240/113/155 241/114/156
f 245/118/157 243/119/158 244/120/159
f 248/121/160 246/122/160 247/119/161
f 251/121/162 249/119/163 250/118/164
f 254/101/139 252/123/165 253/107/166
f 257/124/167 255/113/155 256/84/168
f 260/125/167 258/85/169 259/81/170
f 263/123/171 261/85/114 262/126/171
f 266/81/170 264/85/169 265/93/172
f 269/85/114 267/123/173 268/93/123
f 272/81/170 270/93/172 271/101/174
f 275/93/123 273/123/150 274/101/175
f 278/81/176 276/101/177 277/107/178
f 281/113/171 279/127/171 280/128/165
f 284/129/167 282/124/176 283/130/176
f 287/131/176 285/85/169 286/125/176
f 290/126/150 288/85/114 289/124/150
f 293/124/165 291/85/122 292/84/113
f 296/124/179 294/84/168 295/85/169
f 299/124/176 297/85/169 298/131/176
f 302/124/165 300/84/113 301/113/165
f 305/132/180 303/74/181 304/76/182
f 308/76/183 306/75/184 307/133/185
f 311/75/186 309/78/187 310/133/188
f 314/78/106 312/79/189 313/134/189
f 317/113/165 315/128/150 316/124/150
f 320/124/173 318/128/173 319/130/173
f 323/129/176 321/113/155 322/124/167
f 326/129/167 324/127/167 325/113/167
f 329/135/190 327/134/191 328/79/192
f 332/135/193 330/79/194 331/136/195
f 335/137/196 333/135/197 334/136/198
f 338/137/199 336/136/200 337/138/201
f 341/139/202 339/140/203 340/141/204
f 344/142/205 342/143/206 343/141/207
f 347/144/208 345/145/209 346/146/210
f 350/145/211 348/147/212 349/148/213
f 353/142/214 351/147/215 352/143/216
f 356/149/217 354/150/217 355/151/218
f 359/149/219 357/151/218 358/152/220
f 362/153/221 360/154/222 361/155/223
f 365/153/224 363/156/225 364/157/225
f 368/158/226 366/159/227 367/160/228
f 371/161/229 369/162/230 370/163/231
f 374/158/232 372/164/233 373/159/227
f 377/154/234 375/165/235 376/166/236
f 380/167/237 378/168/237 379/169/237
f 383/170/238 381/171/239 382/172/240
f 386/167/241 384/168/241 385/173/242
f 389/174/243 387/175/244 388/176/245
f 392/171/239 390/177/246 391/178/247
f 395/179/248 393/180/248 394/181/248
f 398/182/249 396/183/249 397/184/249
f 401/177/250 399/185/251 400/186/252
f 404/167/253 402/168/253 403/187/253
f 407/188/254 405/189/254 406/190/254
f 410/185/251 408/191/255 409/192/256
f 413/152/257 411/151/258 412/193/259
f 416/194/260 414/195/260 415/196/260
f 419/197/261 417/170/238 418/198/261
f 422/199/262 420/200/263 421/201/264
f 425/202/265 423/203/266 424/204/267
f 428/205/268 426/206/268 427/207/268
f 431/161/269 429/208/270 430/162/230
f 434/209/271 432/210/271 433/211/271
f 437/212/272 435/213/272 436/214/273
f 440/215/274 438/216/275 439/165/276
f 443/217/277 441/218/277 442/203/278
f 446/217/279 444/203/278 445/202/280
f 449/219/219 447/220/219 448/209/219
f 452/219/281 450/209/281 451/211/281
f 455/185/251 453/221/225 454/191/255
f 458/214/279 456/213/277 457/218/277
f 461/214/277 459/218/279 460/217/279
f 464/221/282 462/171/283 463/222/282
f 467/171/239 465/221/284 466/177/246
f 470/177/285 468/221/286 469/185/251
f 473/223/287 471/224/287 472/197/287
f 476/215/288 474/224/284 475/223/284
f 479/165/289 477/224/261 478/215/288
f 482/165/289 480/225/287 481/224/287
f 485/154/234 483/225/290 484/165/289
f 488/154/291 486/226/287 487/225/287
f 491/154/292 489/227/282 490/226/282
f 494/227/261 492/153/224 493/157/261
f 497/154/292 495/153/293 496/227/290
f 500/222/287 498/171/239 499/224/287
f 503/224/261 501/171/283 502/170/238
f 506/224/290 504/170/238 505/197/282
f 509/139/294 507/141/295 508/228/296
f 512/141/297 510/143/206 511/228/298
f 515/229/299 513/144/300 514/146/301
f 518/146/302 516/145/209 517/230/303
f 521/145/304 519/148/305 520/230/306
f 524/148/305 522/147/215 523/142/307
f 527/231/308 525/232/309 526/233/310
f 530/234/311 528/233/312 529/235/313
f 533/236/314 531/235/315 532/237/316
f 536/238/317 534/239/318 535/240/318
f 539/238/317 537/240/319 538/241/320
f 542/242/321 540/243/322 541/244/323
f 545/242/324 543/245/325 544/246/325
f 548/247/326 546/243/327 547/248/328
f 551/249/329 549/250/329 550/251/329
f 554/242/330 552/244/331 553/243/327
f 557/252/332 555/253/333 556/254/332
f 560/255/334 558/247/335 559/256/336
f 563/249/337 561/257/338 562/250/338
f 566/243/339 564/258/340 565/248/341
f 569/259/342 567/260/342 568/261/342
f 572/262/343 570/263/343 571/264/343
f 575/242/344 573/246/345 574/245/346
f 578/252/347 576/265/347 577/253/347
f 581/266/348 579/267/349 580/268/350
f 584/269/351 582/238/352 583/241/353
f 587/255/354 585/256/355 586/258/356
f 590/270/357 588/266/358 589/268/359
f 593/255/354 591/258/340 592/271/360
f 596/242/330 594/272/361 595/246/362
f 599/242/336 597/273/363 598/272/361
f 602/274/360 600/246/364 601/275/365
f 605/274/360 603/242/324 604/246/360
f 608/242/336 606/276/363 607/273/363
f 611/277/366 609/243/339 610/274/360
f 614/243/327 612/247/326 613/278/367
f 617/279/363 615/255/361 616/280/363
f 620/277/368 618/258/340 619/243/339
f 623/271/369 621/258/340 622/277/369
f 626/281/370 624/272/371 625/273/371
f 629/242/330 627/243/327 628/282/372
f 632/242/330 630/282/371 631/276/361
f 635/278/367 633/282/367 634/243/327
f 638/274/368 636/243/339 637/242/324
f 641/278/373 639/247/374 640/279/367
f 644/279/375 642/247/376 643/255/334
f 647/283/377 645/232/309 646/231/308
f 650/231/378 648/233/312 649/234/379
f 653/284/380 651/235/381 652/236/382
f 656/234/383 654/235/384 655/285/385
f 659/285/386 657/235/315 658/286/387
f 662/235/388 660/284/389 661/286/390
f 665/270/391 663/287/392 664/288/393
f 668/270/357 666/288/394 667/266/395
f 1/35/396 2/2/397 3/1/398
f 3/1/398 56/289/399 1/35/396
f 11/10/4 12/4/3 10/6/400
f 10/6/400 40/290/401 11/10/4
