# Blender 4.5.3 LTS
# www.blender.org
o w9a02_neon747
v -5.992066 1.114752 -0.177133
v -5.993520 1.115265 -0.169280
v -6.002082 1.108914 -0.180172
v -6.004000 1.109631 -0.169283
v -5.987890 1.113156 -0.183792
v -5.996210 1.106718 -0.189332
v -5.981643 1.110858 -0.188265
v -5.987635 1.103512 -0.195612
v -5.974289 1.108076 -0.189809
v -5.977421 1.099693 -0.197663
v -5.966916 1.105352 -0.188264
v -5.967210 1.095876 -0.195613
v -5.958639 1.092671 -0.189332
v -5.960696 1.102990 -0.183792
v -5.952768 1.090476 -0.180171
v -5.956498 1.101453 -0.177133
v -5.950850 1.089759 -0.169283
v -5.955063 1.100887 -0.169280
v -5.952766 1.090475 -0.158417
v -5.956493 1.101451 -0.161440
v -5.958648 1.092675 -0.149336
v -5.960680 1.102963 -0.154810
v -5.967228 1.095883 -0.143153
v -5.966906 1.105298 -0.150339
v -5.977422 1.099694 -0.141142
v -5.974308 1.108022 -0.148788
v -5.981684 1.110823 -0.150338
v -5.987615 1.103505 -0.143153
v -5.987915 1.113143 -0.154805
v -5.996186 1.106709 -0.149337
v -5.992072 1.114751 -0.161440
v -6.002079 1.108912 -0.158418
v -6.009790 1.098386 -0.181617
v -6.002082 1.108914 -0.180172
v -6.011965 1.099200 -0.169267
v -6.004000 1.109631 -0.169283
v -6.003130 1.095896 -0.192007
v -5.996210 1.106718 -0.189332
v -5.993403 1.092259 -0.199130
v -5.987635 1.103512 -0.195612
v -5.981820 1.087929 -0.201457
v -5.977421 1.099693 -0.197663
v -5.970238 1.083598 -0.199131
v -5.967210 1.095876 -0.195613
v -5.960516 1.079963 -0.192008
v -5.958639 1.092671 -0.189332
v -5.953863 1.077476 -0.181617
v -5.952768 1.090476 -0.180171
v -5.951684 1.076661 -0.169267
v -5.950850 1.089759 -0.169283
v -5.953855 1.077473 -0.156943
v -5.951684 1.076661 -0.169267
v -5.960527 1.079968 -0.146642
v -5.970258 1.083606 -0.139629
v -5.981821 1.087929 -0.137348
v -5.993381 1.092251 -0.139630
v -6.003112 1.095889 -0.146644
v -6.009787 1.098385 -0.156943
v -6.011965 1.099200 -0.169267
v -5.972522 1.112811 -0.169283
vn 0.6176 -0.7077 0.3431
vn 0.6822 -0.7311 0.0001
vn 0.7948 -0.6069 0.0001
vn 0.7261 -0.5819 0.3663
vn 0.4371 -0.6389 0.6331
vn 0.5331 -0.5081 0.6764
vn 0.1647 -0.5371 0.8273
vn 0.2413 -0.4000 0.8842
vn -0.1548 -0.4173 0.8955
vn -0.0999 -0.2703 0.9576
vn -0.4779 -0.2976 0.8265
vn -0.4450 -0.1431 0.8840
vn -0.7491 -0.1941 0.6334
vn -0.7363 -0.0333 0.6758
vn -0.9307 -0.1273 0.3429
vn -0.9299 0.0369 0.3660
vn -0.9946 -0.1037 0.0001
vn -0.9980 0.0627 0.0001
vn 0.7249 -0.5820 -0.3685
vn 0.7948 -0.6069 -0.0001
vn 0.6821 -0.7312 -0.0000
vn 0.6171 -0.7073 -0.3448
vn 0.2175 -0.9502 -0.2233
vn 0.2605 -0.9655 -0.0000
vn 0.6175 -0.7078 0.3431
vn 0.2176 -0.9506 0.2215
vn 0.4370 -0.6390 0.6330
vn 0.1021 -0.9057 0.4114
vn 0.1646 -0.5372 0.8272
vn -0.0744 -0.8404 0.5368
vn -0.1548 -0.4174 0.8954
vn -0.2838 -0.7605 0.5840
vn -0.4779 -0.2978 0.8264
vn -0.4936 -0.6840 0.5371
vn -0.6722 -0.6154 0.4115
vn -0.7491 -0.1942 0.6334
vn -0.7889 -0.5731 0.2218
vn -0.9307 -0.1275 0.3429
vn -0.8308 -0.5565 -0.0000
vn -0.9946 -0.1038 -0.0000
vn -0.7886 -0.5728 -0.2236
vn -0.9307 -0.1274 -0.3429
vn -0.9980 0.0627 -0.0001
vn -0.9290 0.0354 -0.3685
vn -0.7464 -0.1940 -0.6367
vn -0.7326 -0.0353 -0.6798
vn -0.4720 -0.2957 -0.8305
vn -0.4410 -0.1451 -0.8857
vn -0.1548 -0.4134 -0.8973
vn -0.1000 -0.2703 -0.9576
vn 0.1626 -0.5328 -0.8305
vn 0.2373 -0.3981 -0.8861
vn 0.4349 -0.6367 -0.6367
vn 0.5289 -0.5076 -0.6802
vn 0.1000 -0.9040 -0.4157
vn -0.3491 -0.9371 -0.0001
vn -0.6696 -0.6154 -0.4158
vn -0.4920 -0.6821 -0.5410
vn -0.2821 -0.7582 -0.5878
vn -0.0745 -0.8375 -0.5413
vt 0.572754 0.328125
vt 0.557129 0.253906
vt 0.572754 0.327637
vt 0.616699 0.389160
vt 0.680176 0.430664
vt 0.680176 0.430176
vt 0.754883 0.442871
vt 0.754883 0.442383
vt 0.828613 0.427246
vt 0.828613 0.426758
vt 0.889648 0.382812
vt 0.889648 0.382324
vt 0.930664 0.319336
vt 0.930664 0.318848
vt 0.942871 0.244629
vt 0.942871 0.244141
vt 0.569336 0.179199
vt 0.569336 0.179688
vt 0.644531 0.208496
vt 0.637207 0.251953
vt 0.646484 0.295410
vt 0.672363 0.331055
vt 0.709473 0.354980
vt 0.752930 0.362305
vt 0.795898 0.353027
vt 0.831543 0.327637
vt 0.855469 0.290039
vt 0.862793 0.246582
vt 0.853516 0.203613
vt 0.927246 0.170898
vt 0.927246 0.170410
vt 0.882812 0.109863
vt 0.819824 0.069336
vt 0.819824 0.068848
vt 0.745605 0.057617
vt 0.745605 0.057129
vt 0.671875 0.072754
vt 0.610352 0.116699
vt 0.610352 0.116211
vt 0.667969 0.171387
vt 0.750000 0.249512
vt 0.828125 0.167480
vt 0.791016 0.144043
vt 0.747070 0.136230
vt 0.704102 0.145996
s 1
f 34/1/1 36/2/2 35/2/3
f 35/2/3 33/3/4 34/1/1
f 38/4/5 34/1/1 33/3/4
f 33/3/4 37/4/6 38/4/5
f 40/5/7 38/4/5 37/4/6
f 37/4/6 39/6/8 40/5/7
f 42/7/9 40/5/7 39/6/8
f 39/6/8 41/8/10 42/7/9
f 44/9/11 42/7/9 41/8/10
f 41/8/10 43/10/12 44/9/11
f 46/11/13 44/9/11 43/10/12
f 43/10/12 45/12/14 46/11/13
f 48/13/15 46/11/13 45/12/14
f 45/12/14 47/14/16 48/13/15
f 50/15/17 48/13/15 47/14/16
f 47/14/16 49/16/18 50/15/17
f 58/17/19 59/2/20 4/2/21
f 32/18/22 58/17/19 4/2/21
f 31/19/23 32/18/22 4/2/21
f 2/20/24 31/19/23 4/2/21
f 4/2/21 3/1/25 2/20/24
f 1/21/26 2/20/24 3/1/25
f 3/1/25 6/4/27 1/21/26
f 5/22/28 1/21/26 6/4/27
f 6/4/27 8/5/29 5/22/28
f 7/23/30 5/22/28 8/5/29
f 8/5/29 10/7/31 7/23/30
f 9/24/32 7/23/30 10/7/31
f 10/7/31 12/9/33 9/24/32
f 11/25/34 9/24/32 12/9/33
f 14/26/35 11/25/34 12/9/33
f 12/9/33 13/11/36 14/26/35
f 16/27/37 14/26/35 13/11/36
f 13/11/36 15/13/38 16/27/37
f 18/28/39 16/27/37 15/13/38
f 15/13/38 17/15/40 18/28/39
f 20/29/41 18/28/39 17/15/40
f 19/30/42 20/29/41 17/15/40
f 17/15/40 52/16/43 19/30/42
f 52/16/43 51/31/44 19/30/42
f 21/32/45 19/30/42 51/31/44
f 51/31/44 53/32/46 21/32/45
f 23/33/47 21/32/45 53/32/46
f 53/32/46 54/34/48 23/33/47
f 25/35/49 23/33/47 54/34/48
f 54/34/48 55/36/50 25/35/49
f 28/37/51 25/35/49 55/36/50
f 55/36/50 56/37/52 28/37/51
f 30/38/53 28/37/51 56/37/52
f 56/37/52 57/39/54 30/38/53
f 32/18/22 30/38/53 57/39/54
f 57/39/54 58/17/19 32/18/22
f 29/40/55 30/38/53 32/18/22
f 32/18/22 31/19/23 29/40/55
f 60/41/56 29/40/55 31/19/23
f 31/19/23 2/20/24 60/41/56
f 2/20/24 1/21/26 60/41/56
f 1/21/26 5/22/28 60/41/56
f 5/22/28 7/23/30 60/41/56
f 7/23/30 9/24/32 60/41/56
f 9/24/32 11/25/34 60/41/56
f 11/25/34 14/26/35 60/41/56
f 14/26/35 16/27/37 60/41/56
f 16/27/37 18/28/39 60/41/56
f 18/28/39 20/29/41 60/41/56
f 22/42/57 60/41/56 20/29/41
f 20/29/41 19/30/42 22/42/57
f 19/30/42 21/32/45 22/42/57
f 24/43/58 22/42/57 21/32/45
f 21/32/45 23/33/47 24/43/58
f 26/44/59 24/43/58 23/33/47
f 23/33/47 25/35/49 26/44/59
f 27/45/60 26/44/59 25/35/49
f 25/35/49 28/37/51 27/45/60
f 28/37/51 30/38/53 27/45/60
f 30/38/53 29/40/55 27/45/60
f 29/40/55 60/41/56 27/45/60
f 26/44/59 27/45/60 60/41/56
f 24/43/58 26/44/59 60/41/56
f 60/41/56 22/42/57 24/43/58
