# Blender 4.5.3 LTS
# www.blender.org
o w9a02_km1_concrete01
v 3.301994 0.787372 5.307098
v 3.202084 0.837371 5.407098
v 3.127176 0.635501 5.384140
v 2.727081 0.787372 5.307098
v 2.152169 0.787372 5.307098
v 3.302163 -0.012629 5.307098
v 2.152000 -0.012629 5.307098
v 3.327082 -0.012628 6.107099
v 3.327082 0.787372 6.107099
v 3.327082 -0.012629 5.332017
v 3.327082 0.787372 5.332186
v 3.202084 0.837371 5.407098
v 2.252078 0.837371 5.407098
v 2.727081 0.787372 5.307098
v 3.327082 0.787372 6.107099
v 3.227082 0.837372 6.107099
v 3.327082 0.787372 5.332186
v 3.227082 0.837371 5.432096
v 3.301994 0.787372 5.307098
v 3.327082 0.787372 5.332186
v 3.202084 0.837371 5.407098
v 3.227082 0.837371 5.432096
v 3.302163 -0.012629 5.307098
v 3.327082 -0.012629 5.332017
v 3.301994 0.787372 5.307098
v 3.327082 0.787372 5.332186
v -3.008418 0.787372 5.307098
v -3.108328 0.837371 5.407098
v -3.164445 0.686818 5.353049
v -3.583330 0.787372 5.307098
v -4.158241 0.787372 5.307098
v -3.008248 -0.012629 5.307098
v -4.158412 -0.012629 5.307098
v 2.127081 0.787372 6.107099
v 2.127081 -0.012628 6.107099
v 2.127081 0.787372 5.332186
v 2.127081 -0.012629 5.332017
v -2.983330 -0.012628 6.107099
v -2.983330 0.787372 6.107099
v -2.983330 -0.012629 5.332017
v -2.983330 0.787372 5.332186
v 2.152169 0.787372 5.307098
v 2.727081 0.787372 5.307098
v 2.252078 0.837371 5.407098
v 2.127081 0.787372 6.107099
v 2.127081 0.787372 5.332186
v 2.227081 0.837372 6.107099
v 2.227081 0.837371 5.432096
v -2.983330 0.787372 6.107099
v -3.083330 0.837372 6.107099
v -2.983330 0.787372 5.332186
v -3.083330 0.837371 5.432096
v -3.008418 0.787372 5.307098
v -2.983330 0.787372 5.332186
v -3.108328 0.837371 5.407098
v -3.083330 0.837371 5.432096
v -3.008248 -0.012629 5.307098
v -2.983330 -0.012629 5.332017
v -3.008418 0.787372 5.307098
v -2.983330 0.787372 5.332186
v 2.127081 0.787372 5.332186
v 2.152169 0.787372 5.307098
v 2.227081 0.837371 5.432096
v 2.252078 0.837371 5.407098
v 2.127081 -0.012629 5.332017
v 2.152000 -0.012629 5.307098
v 2.127081 0.787372 5.332186
v 2.152169 0.787372 5.307098
v -4.183330 0.787372 6.107099
v -4.183330 -0.012628 6.107099
v -4.183330 0.787372 5.332186
v -4.183330 -0.012629 5.332017
v -3.583330 0.787372 5.307098
v -3.108328 0.837371 5.407098
v -4.158241 0.787372 5.307098
v -4.058333 0.837371 5.407098
v -4.183330 0.787372 6.107099
v -4.183330 0.787372 5.332186
v -4.083330 0.837372 6.107099
v -4.083330 0.837371 5.432096
v -4.183330 0.787372 5.332186
v -4.158241 0.787372 5.307098
v -4.083330 0.837371 5.432096
v -4.058333 0.837371 5.407098
v -4.183330 -0.012629 5.332017
v -4.158412 -0.012629 5.307098
v -4.183330 0.787372 5.332186
v -4.158241 0.787372 5.307098
v -3.164445 0.686818 5.353049
v -3.583330 0.787372 5.307098
v -3.008248 -0.012629 5.307098
v -3.008418 0.787372 5.307098
v -3.164445 0.686818 5.353049
v -3.008248 -0.012629 5.307098
v -3.108328 0.837371 5.407098
v -3.583330 0.787372 5.307098
v -3.164445 0.686818 5.353049
v 2.727081 0.787372 5.307098
v 3.302163 -0.012629 5.307098
v 0.335983 0.182362 17.248846
v 0.769321 0.182373 17.248846
v 0.335983 0.422188 17.248846
v 0.769321 0.422188 17.248846
v -0.145535 0.182362 17.248846
v 0.287827 0.182362 17.248846
v -0.145535 0.422188 17.248846
v 0.287827 0.422188 17.248846
v -0.627029 0.182362 17.248846
v -0.193668 0.182362 17.248846
v -0.627029 0.422188 17.248846
v -0.193668 0.422188 17.248846
v 0.817478 0.182373 17.295092
v 0.817478 0.422188 17.295092
v 0.769321 0.182373 17.295092
v 0.769321 0.422188 17.295092
v 0.335983 0.182362 17.295092
v 0.335983 0.422188 17.295092
v 0.287827 0.182362 17.295092
v 0.287827 0.422188 17.295092
v -0.145535 0.182362 17.295092
v -0.145535 0.422188 17.295092
v -0.193668 0.182362 17.295092
v -0.193668 0.422188 17.295092
v 0.769321 0.182373 17.248846
v 0.769321 0.182373 17.295092
v 0.769321 0.422188 17.248846
v 0.769321 0.422188 17.295092
v 0.335983 0.422188 17.248846
v 0.335983 0.422188 17.295092
v 0.335983 0.182362 17.248846
v 0.335983 0.182362 17.295092
v 0.287827 0.182362 17.248846
v 0.287827 0.182362 17.295092
v 0.287827 0.422188 17.248846
v 0.287827 0.422188 17.295092
v -0.145535 0.422188 17.248846
v -0.145535 0.422188 17.295092
v -0.145535 0.182362 17.248846
v -0.145535 0.182362 17.295092
v -0.193668 0.182362 17.248846
v -0.193668 0.182362 17.295092
v -0.193668 0.422188 17.248846
v -0.193668 0.422188 17.295092
v 4.187945 0.182384 17.248846
v 4.187945 0.422211 17.248846
v 3.730528 0.182384 17.248846
v 3.730528 0.422211 17.248846
v 3.249032 0.182384 17.248846
v 3.682371 0.182384 17.248846
v 3.249032 0.422200 17.248846
v 3.682371 0.422200 17.248846
v 2.767538 0.182373 17.248846
v 3.200875 0.182384 17.248846
v 2.767538 0.422200 17.248846
v 3.200875 0.422200 17.248846
v 2.286042 0.182373 17.248846
v 2.719381 0.182373 17.248846
v 2.286042 0.422200 17.248846
v 2.719381 0.422200 17.248846
v 1.804546 0.182373 17.248846
v 2.237885 0.182373 17.248846
v 1.804546 0.422200 17.248846
v 2.237885 0.422200 17.248846
v 1.323052 0.182373 17.248846
v 1.756391 0.182373 17.248846
v 1.323029 0.422188 17.248846
v 1.756391 0.422200 17.248846
v 0.817478 0.182373 17.248846
v 1.274896 0.182373 17.248846
v 0.817478 0.422188 17.248846
v 1.274896 0.422188 17.248846
v 3.730528 0.182384 17.295092
v 3.730528 0.422211 17.295092
v 3.682371 0.182384 17.295092
v 3.682371 0.422200 17.295092
v 3.249032 0.182384 17.295092
v 3.249032 0.422200 17.295092
v 3.200875 0.182384 17.295092
v 3.200875 0.422200 17.295092
v 2.767538 0.182373 17.295092
v 2.767538 0.422200 17.295092
v 2.719381 0.182373 17.295092
v 2.719381 0.422200 17.295092
v 2.286042 0.182373 17.295092
v 2.286042 0.422200 17.295092
v 2.237885 0.182373 17.295092
v 2.237885 0.422200 17.295092
v 1.804546 0.182373 17.295092
v 1.804546 0.422200 17.295092
v 1.756391 0.182373 17.295092
v 1.756391 0.422200 17.295092
v 1.323052 0.182373 17.295092
v 1.323029 0.422188 17.295092
v 1.274896 0.182373 17.295092
v 1.274896 0.422188 17.295092
v 3.730528 0.422211 17.248846
v 3.730528 0.422211 17.295092
v 3.730528 0.182384 17.248846
v 3.730528 0.182384 17.295092
v 3.682371 0.182384 17.248846
v 3.682371 0.182384 17.295092
v 3.682371 0.422200 17.248846
v 3.682371 0.422200 17.295092
v 3.249032 0.422200 17.248846
v 3.249032 0.422200 17.295092
v 3.249032 0.182384 17.248846
v 3.249032 0.182384 17.295092
v 3.200875 0.182384 17.248846
v 3.200875 0.182384 17.295092
v 3.200875 0.422200 17.248846
v 3.200875 0.422200 17.295092
v 2.767538 0.422200 17.248846
v 2.767538 0.422200 17.295092
v 2.767538 0.182373 17.248846
v 2.767538 0.182373 17.295092
v 2.719381 0.182373 17.248846
v 2.719381 0.182373 17.295092
v 2.719381 0.422200 17.248846
v 2.719381 0.422200 17.295092
v 2.286042 0.422200 17.248846
v 2.286042 0.422200 17.295092
v 2.286042 0.182373 17.248846
v 2.286042 0.182373 17.295092
v 2.237885 0.182373 17.248846
v 2.237885 0.182373 17.295092
v 2.237885 0.422200 17.248846
v 2.237885 0.422200 17.295092
v 1.804546 0.422200 17.248846
v 1.804546 0.422200 17.295092
v 1.804546 0.182373 17.248846
v 1.804546 0.182373 17.295092
v 1.756391 0.182373 17.248846
v 1.756391 0.182373 17.295092
v 1.756391 0.422200 17.248846
v 1.756391 0.422200 17.295092
v 1.323029 0.422188 17.248846
v 1.323029 0.422188 17.295092
v 1.323052 0.182373 17.248846
v 1.323052 0.182373 17.295092
v 1.274896 0.182373 17.248846
v 1.274896 0.182373 17.295092
v 1.274896 0.422188 17.248846
v 1.274896 0.422188 17.295092
v 0.817478 0.422188 17.248846
v 0.817478 0.422188 17.295092
v 0.817478 0.182373 17.248846
v 0.817478 0.182373 17.295092
v 4.113845 0.203879 17.142942
v 4.113845 0.203879 17.298326
v -0.471465 0.204317 17.142694
v -0.471465 0.204317 17.298820
v 4.113845 -0.048716 17.087845
v 4.113845 0.155240 17.087620
v -0.471465 -0.049155 17.087374
v -0.471465 0.155240 17.087238
v 4.113845 0.155240 17.087620
v 4.113845 0.203879 17.142942
v -0.471465 0.155240 17.087238
v -0.471465 0.204317 17.142694
v 8.000001 0.690001 16.976112
v 8.000001 0.736001 17.068113
v 4.035412 0.690001 16.976112
v 4.127479 0.735979 17.068113
v 4.035412 0.690001 16.976112
v 4.035412 -0.045999 16.976112
v 8.000001 0.690001 16.976112
v 8.000001 -0.045999 16.976112
v -0.426476 0.690001 17.029638
v -0.426476 -0.045999 17.029638
v -0.426476 0.690001 17.712112
v -0.426476 -0.045999 17.712112
v 4.035412 -0.045999 16.976112
v 4.035412 0.690001 16.976112
v 3.989524 -0.045999 17.027075
v 3.989524 0.690001 17.027075
v -1.484588 0.690001 16.976112
v -0.471330 0.690001 16.976112
v -1.392521 0.735979 17.068113
v -0.563915 0.735979 17.068113
v -0.518476 0.736001 17.712112
v -0.518476 0.736001 17.114538
v -0.426476 0.690001 17.712112
v -0.426476 0.690001 17.029638
v 4.081524 0.736001 17.113417
v 3.989524 0.690001 17.027075
v -0.426476 0.690001 17.029638
v -0.471330 0.690001 16.976112
v -0.426476 -0.045999 17.029638
v -0.471330 -0.045999 16.976112
v 4.081524 0.736001 17.712112
v 3.989524 0.690001 17.712112
v 3.989524 -0.045999 17.027075
v 3.989524 0.690001 17.027075
v 3.989524 -0.045999 17.712112
v 3.989524 0.690001 17.712112
v -0.471330 -0.045999 16.976112
v -0.471330 0.690001 16.976112
v -1.484588 -0.045999 16.976112
v -1.484588 0.690001 16.976112
v -5.946476 0.690001 17.029638
v -5.946476 -0.045999 17.029638
v -5.946476 0.690001 17.712112
v -5.946476 -0.045999 17.712112
v -1.530476 -0.045999 17.027075
v -1.484588 -0.045999 16.976112
v -1.530476 0.690001 17.027075
v -1.484588 0.690001 16.976112
v -8.000000 0.690001 16.976112
v -5.991331 0.690001 16.976112
v -8.000000 0.736001 17.068113
v -6.083914 0.735979 17.068113
v -6.038476 0.736001 17.712112
v -6.038476 0.736001 17.114538
v -5.946476 0.690001 17.712112
v -5.946476 0.690001 17.029638
v -1.438476 0.736001 17.113417
v -1.530476 0.690001 17.027075
v -5.991331 0.690001 16.976112
v -5.991331 -0.045999 16.976112
v -5.946476 0.690001 17.029638
v -5.946476 -0.045999 17.029638
v -1.438476 0.736001 17.712112
v -1.530476 0.690001 17.712112
v -1.530476 -0.045999 17.712112
v -1.530476 -0.045999 17.027075
v -1.530476 0.690001 17.712112
v -1.530476 0.690001 17.027075
v -5.991331 -0.045999 16.976112
v -5.991331 0.690001 16.976112
v -8.000000 -0.045999 16.976112
v -8.000000 0.690001 16.976112
v 0.335983 0.182360 -5.456200
v 0.335983 0.422187 -5.456200
v 0.769321 0.182371 -5.456200
v 0.769321 0.422187 -5.456200
v -0.145535 0.182360 -5.456200
v -0.145535 0.422187 -5.456200
v 0.287827 0.182360 -5.456200
v 0.287827 0.422187 -5.456200
v -0.627029 0.182360 -5.456200
v -0.627029 0.422187 -5.456200
v -0.193668 0.182360 -5.456200
v -0.193668 0.422187 -5.456200
v 0.817478 0.182371 -5.502447
v 0.769321 0.182371 -5.502447
v 0.817478 0.422187 -5.502447
v 0.769321 0.422187 -5.502447
v 0.335983 0.182360 -5.502447
v 0.287827 0.182360 -5.502447
v 0.335983 0.422187 -5.502447
v 0.287827 0.422187 -5.502447
v -0.145535 0.182360 -5.502447
v -0.193668 0.182360 -5.502447
v -0.145535 0.422187 -5.502447
v -0.193668 0.422187 -5.502447
v 0.769321 0.182371 -5.456200
v 0.769321 0.422187 -5.456200
v 0.769321 0.182371 -5.502447
v 0.769321 0.422187 -5.502447
v 0.335983 0.422187 -5.456200
v 0.335983 0.182360 -5.456200
v 0.335983 0.422187 -5.502447
v 0.335983 0.182360 -5.502447
v 0.287827 0.182360 -5.456200
v 0.287827 0.422187 -5.456200
v 0.287827 0.182360 -5.502447
v 0.287827 0.422187 -5.502447
v -0.145535 0.422187 -5.456200
v -0.145535 0.182360 -5.456200
v -0.145535 0.422187 -5.502447
v -0.145535 0.182360 -5.502447
v -0.193668 0.182360 -5.456200
v -0.193668 0.422187 -5.456200
v -0.193668 0.182360 -5.502447
v -0.193668 0.422187 -5.502447
v 4.187945 0.182382 -5.456200
v 3.730528 0.182382 -5.456200
v 4.187945 0.422209 -5.456200
v 3.730528 0.422209 -5.456200
v 3.249032 0.182382 -5.456200
v 3.249032 0.422198 -5.456200
v 3.682371 0.182382 -5.456200
v 3.682371 0.422198 -5.456200
v 2.767538 0.182371 -5.456200
v 2.767538 0.422198 -5.456200
v 3.200875 0.182382 -5.456200
v 3.200875 0.422198 -5.456200
v 2.286042 0.182371 -5.456200
v 2.286042 0.422198 -5.456200
v 2.719381 0.182371 -5.456200
v 2.719381 0.422198 -5.456200
v 1.804546 0.182371 -5.456200
v 1.804546 0.422198 -5.456200
v 2.237885 0.182371 -5.456200
v 2.237885 0.422198 -5.456200
v 1.323052 0.182371 -5.456200
v 1.323029 0.422187 -5.456200
v 1.756391 0.182371 -5.456200
v 1.756391 0.422198 -5.456200
v 0.817478 0.182371 -5.456200
v 0.817478 0.422187 -5.456200
v 1.274896 0.182371 -5.456200
v 1.274896 0.422187 -5.456200
v 3.730528 0.182382 -5.502447
v 3.682371 0.182382 -5.502447
v 3.730528 0.422209 -5.502447
v 3.682371 0.422198 -5.502447
v 3.249032 0.182382 -5.502447
v 3.200875 0.182382 -5.502447
v 3.249032 0.422198 -5.502447
v 3.200875 0.422198 -5.502447
v 2.767538 0.182371 -5.502447
v 2.719381 0.182371 -5.502447
v 2.767538 0.422198 -5.502447
v 2.719381 0.422198 -5.502447
v 2.286042 0.182371 -5.502447
v 2.237885 0.182371 -5.502447
v 2.286042 0.422198 -5.502447
v 2.237885 0.422198 -5.502447
v 1.804546 0.182371 -5.502447
v 1.756391 0.182371 -5.502447
v 1.804546 0.422198 -5.502447
v 1.756391 0.422198 -5.502447
v 1.323052 0.182371 -5.502447
v 1.274896 0.182371 -5.502447
v 1.323029 0.422187 -5.502447
v 1.274896 0.422187 -5.502447
v 3.730528 0.422209 -5.456200
v 3.730528 0.182382 -5.456200
v 3.730528 0.422209 -5.502447
v 3.730528 0.182382 -5.502447
v 3.682371 0.182382 -5.456200
v 3.682371 0.422198 -5.456200
v 3.682371 0.182382 -5.502447
v 3.682371 0.422198 -5.502447
v 3.249032 0.422198 -5.456200
v 3.249032 0.182382 -5.456200
v 3.249032 0.422198 -5.502447
v 3.249032 0.182382 -5.502447
v 3.200875 0.182382 -5.456200
v 3.200875 0.422198 -5.456200
v 3.200875 0.182382 -5.502447
v 3.200875 0.422198 -5.502447
v 2.767538 0.422198 -5.456200
v 2.767538 0.182371 -5.456200
v 2.767538 0.422198 -5.502447
v 2.767538 0.182371 -5.502447
v 2.719381 0.182371 -5.456200
v 2.719381 0.422198 -5.456200
v 2.719381 0.182371 -5.502447
v 2.719381 0.422198 -5.502447
v 2.286042 0.422198 -5.456200
v 2.286042 0.182371 -5.456200
v 2.286042 0.422198 -5.502447
v 2.286042 0.182371 -5.502447
v 2.237885 0.182371 -5.456200
v 2.237885 0.422198 -5.456200
v 2.237885 0.182371 -5.502447
v 2.237885 0.422198 -5.502447
v 1.804546 0.422198 -5.456200
v 1.804546 0.182371 -5.456200
v 1.804546 0.422198 -5.502447
v 1.804546 0.182371 -5.502447
v 1.756391 0.182371 -5.456200
v 1.756391 0.422198 -5.456200
v 1.756391 0.182371 -5.502447
v 1.756391 0.422198 -5.502447
v 1.323029 0.422187 -5.456200
v 1.323052 0.182371 -5.456200
v 1.323029 0.422187 -5.502447
v 1.323052 0.182371 -5.502447
v 1.274896 0.182371 -5.456200
v 1.274896 0.422187 -5.456200
v 1.274896 0.182371 -5.502447
v 1.274896 0.422187 -5.502447
v 0.817478 0.422187 -5.456200
v 0.817478 0.182371 -5.456200
v 0.817478 0.422187 -5.502447
v 0.817478 0.182371 -5.502447
v 4.113845 0.203878 -5.350297
v -0.471465 0.204316 -5.350049
v 4.113845 0.203878 -5.505682
v -0.471465 0.204316 -5.506176
v 4.113845 -0.048718 -5.295200
v -0.471465 -0.049156 -5.294729
v 4.113845 0.155238 -5.294975
v -0.471465 0.155238 -5.294593
v 4.113845 0.155238 -5.294975
v -0.471465 0.155238 -5.294593
v 4.113845 0.203878 -5.350297
v -0.471465 0.204316 -5.350049
v 8.000001 0.690000 -5.183468
v 4.035412 0.690000 -5.183468
v 8.000001 0.736000 -5.275468
v 4.127479 0.735977 -5.275468
v 4.035412 0.690000 -5.183468
v 8.000001 0.690000 -5.183468
v 4.035412 -0.046000 -5.183468
v 8.000001 -0.046000 -5.183468
v -0.426476 0.690000 -5.919467
v -0.426476 -0.046000 -5.919467
v -0.426476 0.690000 -5.236992
v -0.426476 -0.046000 -5.236992
v 4.035412 -0.046000 -5.183468
v 3.989524 -0.046000 -5.234432
v 4.035412 0.690000 -5.183468
v 3.989524 0.690000 -5.234432
v -1.484588 0.690000 -5.183468
v -1.392521 0.735977 -5.275468
v -0.471330 0.690000 -5.183468
v -0.563915 0.735977 -5.275468
v -0.426476 0.690000 -5.919467
v -0.426476 0.690000 -5.236992
v -0.518476 0.736000 -5.919467
v -0.518476 0.736000 -5.321895
v 4.081524 0.736000 -5.320772
v 3.989524 0.690000 -5.234432
v -0.426476 0.690000 -5.236992
v -0.426476 -0.046000 -5.236992
v -0.471330 0.690000 -5.183468
v -0.471330 -0.046000 -5.183468
v 4.081524 0.736000 -5.919467
v 3.989524 0.690000 -5.919467
v 3.989524 -0.046000 -5.234432
v 3.989524 -0.046000 -5.919467
v 3.989524 0.690000 -5.234432
v 3.989524 0.690000 -5.919467
v -0.471330 -0.046000 -5.183468
v -1.484588 -0.046000 -5.183468
v -0.471330 0.690000 -5.183468
v -1.484588 0.690000 -5.183468
v -5.946476 0.690000 -5.919467
v -5.946476 -0.046000 -5.919467
v -5.946476 0.690000 -5.236992
v -5.946476 -0.046000 -5.236992
v -1.530476 -0.046000 -5.234432
v -1.530476 0.690000 -5.234432
v -1.484588 -0.046000 -5.183468
v -1.484588 0.690000 -5.183468
v -8.000000 0.690000 -5.183468
v -8.000000 0.736000 -5.275468
v -5.991331 0.690000 -5.183468
v -6.083914 0.735977 -5.275468
v -5.946476 0.690000 -5.919467
v -5.946476 0.690000 -5.236992
v -6.038476 0.736000 -5.919467
v -6.038476 0.736000 -5.321895
v -1.438476 0.736000 -5.320772
v -1.530476 0.690000 -5.234432
v -5.946476 0.690000 -5.236992
v -5.946476 -0.046000 -5.236992
v -5.991331 0.690000 -5.183468
v -5.991331 -0.046000 -5.183468
v -1.438476 0.736000 -5.919467
v -1.530476 0.690000 -5.919467
v -1.530476 -0.046000 -5.919467
v -1.530476 0.690000 -5.919467
v -1.530476 -0.046000 -5.234432
v -1.530476 0.690000 -5.234432
v -5.991331 -0.046000 -5.183468
v -8.000000 -0.046000 -5.183468
v -5.991331 0.690000 -5.183468
v -8.000000 0.690000 -5.183468
vn -0.0000 -0.8948 0.4465
vn 0.5075 -0.4524 0.7333
vn -0.0000 -0.8948 0.4464
vn -0.1290 -0.0940 0.9872
vn -0.1291 -0.0940 0.9872
vn 0.2825 0.0001 0.9593
vn -0.1687 -0.2762 0.9462
vn -0.1686 -0.2762 0.9462
vn -0.0000 -0.0000 1.0000
vn -1.0000 -0.0000 -0.0000
vn -0.4464 -0.8949 -0.0000
vn -0.4465 -0.8948 -0.0000
vn -0.4472 -0.8944 -0.0000
vn -0.2351 -0.9431 0.2351
vn -0.2358 -0.9428 0.2358
vn -0.7071 -0.0001 0.7071
vn 1.0000 -0.0000 -0.0000
vn 0.4464 -0.8948 -0.0000
vn 0.4465 -0.8948 -0.0000
vn 0.4464 -0.8949 -0.0000
vn 0.4472 -0.8944 -0.0000
vn -0.4466 -0.8947 -0.0000
vn -0.2354 -0.9430 0.2354
vn -0.7071 -0.0002 0.7071
vn 0.6548 -0.1999 0.7289
vn 0.2351 -0.9431 0.2351
vn 0.2352 -0.9430 0.2352
vn 0.6545 -0.2018 0.7287
vn 0.7071 -0.0001 0.7071
vn -0.0000 -0.8950 0.4461
vn -0.0000 -0.8944 0.4472
vn 0.4460 -0.8950 -0.0000
vn 0.2352 -0.9431 0.2352
vn 0.7071 -0.0002 0.7071
vn -0.0313 -0.1136 0.9930
vn 0.4465 -0.0608 0.8927
vn 0.0433 -0.1293 0.9907
vn -0.2408 -0.1468 0.9594
vn -0.0410 -0.1292 0.9908
vn 1.0000 0.0001 -0.0000
vn -0.0001 -1.0000 -0.0000
vn -0.0000 0.0005 1.0000
vn -0.0000 -0.0004 1.0000
vn 0.0001 -0.0006 1.0000
vn -0.0000 -0.7499 0.6616
vn -0.0000 -0.7498 0.6617
vn -0.0000 -0.7495 0.6620
vn 0.0041 -0.8968 0.4424
vn -0.0000 -0.8947 0.4466
vn -0.0000 -0.8949 0.4464
vn 0.0001 -0.8956 0.4448
vn 0.4111 -0.9106 0.0432
vn 0.4313 -0.9020 0.0197
vn 0.7438 -0.0000 0.6684
vn 0.7432 -0.0000 0.6691
vn 0.7435 -0.0000 0.6688
vn -0.4189 -0.9073 0.0350
vn -0.3878 -0.9189 0.0726
vn -0.0354 -0.9079 0.4176
vn -0.0138 -0.9006 0.4345
vn 0.0136 -0.9003 0.4351
vn 0.0354 -0.9080 0.4176
vn 0.4085 -0.9116 0.0463
vn 0.4461 -0.8950 -0.0000
vn -0.7662 -0.0000 0.6426
vn -0.7658 -0.0000 0.6431
vn -0.7661 -0.0000 0.6427
vn -0.7657 -0.0000 0.6431
vn 0.7437 -0.0000 0.6685
vn -0.0000 -0.8949 0.4462
vn -0.0099 -0.8987 0.4384
vn -0.0021 -0.8956 0.4448
vn -0.4111 -0.9106 0.0432
vn -0.4329 -0.9012 0.0197
vn -0.4461 -0.8950 -0.0000
vn -0.4468 -0.8946 -0.0000
vn -0.7659 -0.0000 0.6430
vn -0.7657 -0.0000 0.6432
vn -0.0000 -0.0000 -1.0000
vn -0.0000 -0.0002 -1.0000
vn -0.0000 0.0003 -1.0000
vn 0.0001 -0.0006 -1.0000
vn -0.0000 -0.7498 -0.6616
vn -0.0000 -0.7498 -0.6617
vn -0.0000 -0.7497 -0.6617
vn -0.0000 -0.7495 -0.6620
vn -0.0000 -0.8948 -0.4465
vn -0.0000 -0.8949 -0.4464
vn 0.0041 -0.8968 -0.4424
vn 0.0001 -0.8956 -0.4448
vn 0.4111 -0.9106 -0.0432
vn 0.4313 -0.9020 -0.0197
vn 0.7431 -0.0000 -0.6691
vn 0.7432 -0.0000 -0.6691
vn 0.7435 -0.0000 -0.6688
vn -0.4464 -0.8948 -0.0000
vn -0.4095 -0.9112 -0.0452
vn -0.4313 -0.9020 -0.0197
vn -0.0354 -0.9079 -0.4176
vn -0.0138 -0.9006 -0.4345
vn 0.0138 -0.9002 -0.4353
vn 0.0355 -0.9079 -0.4176
vn 0.4176 -0.9079 -0.0354
vn 0.3861 -0.9194 -0.0746
vn -0.7662 -0.0000 -0.6426
vn -0.7661 -0.0000 -0.6427
vn -0.7664 -0.0000 -0.6423
vn 0.7437 -0.0000 -0.6685
vn -0.0178 -0.9020 -0.4313
vn -0.0000 -0.8944 -0.4472
vn -0.0059 -0.8976 -0.4409
vn -0.4313 -0.9020 -0.0196
vn -0.7659 -0.0000 -0.6430
vn -0.7665 -0.0000 -0.6423
vn -0.7658 -0.0000 -0.6430
vt 0.284424 -1.033203
vt 0.209839 -1.019531
vt 0.336182 -1.019531
vt 0.866699 -0.755859
vt 0.847656 -0.752930
vt 0.847656 -0.738281
vt 0.336182 -1.033203
vt 0.847656 -0.835938
vt 0.920410 -0.752930
vt 0.209839 -1.111328
vt 0.336182 -1.111328
vt 0.205322 -1.111328
vt 0.152466 -1.111328
vt 0.152466 -1.033203
vt 0.205322 -1.033203
vt 0.152466 -1.019531
vt 0.205322 -1.019531
vt 0.209839 -1.033203
vt 0.974121 -0.752930
vt 0.974121 -0.835938
vt 0.341064 -1.033203
vt 0.393555 -1.033203
vt 0.393555 -1.111328
vt 0.341064 -1.111328
vt 0.842773 -0.835938
vt 0.788574 -0.835938
vt 0.788574 -0.752930
vt 0.842773 -0.752930
vt 0.393555 -1.019531
vt 0.341064 -1.019531
vt 0.788574 -0.738281
vt 0.842773 -0.738281
vt 0.979004 -0.752930
vt 1.033203 -0.752930
vt 1.033203 -0.835938
vt 0.979004 -0.835938
vt 0.974121 -0.738281
vt 1.033203 -0.738281
vt 0.979004 -0.738281
vt 0.234619 -1.041016
vt 1.206055 -0.495117
vt 1.206055 -0.510742
vt 1.234375 -0.510742
vt 1.234375 -0.495117
vt 1.166992 -0.495117
vt 1.166992 -0.510742
vt 1.196289 -0.510742
vt 1.196289 -0.495117
vt 1.127930 -0.495117
vt 1.127930 -0.510742
vt 1.157227 -0.510742
vt 1.157227 -0.495117
vt 1.238281 -0.510742
vt 1.241211 -0.510742
vt 1.241211 -0.495117
vt 1.238281 -0.495117
vt 1.199219 -0.510742
vt 1.202148 -0.510742
vt 1.202148 -0.495117
vt 1.199219 -0.495117
vt 1.160156 -0.510742
vt 1.164062 -0.510742
vt 1.164062 -0.495117
vt 1.160156 -0.495117
vt 1.478516 -0.510742
vt 1.509766 -0.510742
vt 1.509766 -0.495117
vt 1.478516 -0.495117
vt 1.439453 -0.495117
vt 1.439453 -0.510742
vt 1.468750 -0.510742
vt 1.468750 -0.495117
vt 1.401367 -0.495117
vt 1.401367 -0.510742
vt 1.430664 -0.510742
vt 1.430664 -0.495117
vt 1.362305 -0.495117
vt 1.362305 -0.510742
vt 1.391602 -0.510742
vt 1.391602 -0.495117
vt 1.323242 -0.495117
vt 1.323242 -0.510742
vt 1.352539 -0.510742
vt 1.352539 -0.495117
vt 1.285156 -0.495117
vt 1.285156 -0.510742
vt 1.314453 -0.510742
vt 1.314453 -0.495117
vt 1.244141 -0.495117
vt 1.244141 -0.510742
vt 1.275391 -0.510742
vt 1.275391 -0.495117
vt 1.471680 -0.510742
vt 1.475586 -0.510742
vt 1.475586 -0.495117
vt 1.471680 -0.495117
vt 1.433594 -0.510742
vt 1.436523 -0.510742
vt 1.436523 -0.495117
vt 1.433594 -0.495117
vt 1.394531 -0.510742
vt 1.397461 -0.510742
vt 1.397461 -0.495117
vt 1.394531 -0.495117
vt 1.355469 -0.510742
vt 1.359375 -0.510742
vt 1.359375 -0.495117
vt 1.355469 -0.495117
vt 1.317383 -0.510742
vt 1.320312 -0.510742
vt 1.320312 -0.495117
vt 1.317383 -0.495117
vt 1.278320 -0.510742
vt 1.281250 -0.510742
vt 1.281250 -0.495117
vt 1.278320 -0.495117
vt 1.156250 -0.512695
vt 1.510742 -0.512695
vt 1.510742 -0.499023
vt 1.156250 -0.498047
vt 1.156250 -0.542969
vt 1.510742 -0.542969
vt 1.510742 -0.520508
vt 1.156250 -0.520508
vt 1.570312 -0.936523
vt 1.873047 -0.936523
vt 1.873047 -0.923828
vt 1.570312 -0.923828
vt 1.564453 -0.936523
vt 1.564453 -0.923828
vt 1.539062 -0.936523
vt 1.539062 -0.923828
vt 1.570312 -0.992188
vt 1.873047 -0.992188
vt 1.142578 -0.515625
vt 1.121094 -0.515625
vt 1.121094 -0.566406
vt 1.142578 -0.566406
vt 1.564453 -0.992188
vt 1.142578 -0.503906
vt 1.121094 -0.503906
vt 1.115234 -0.515625
vt 1.115234 -0.503906
vt 1.060547 -0.503906
vt 1.060547 -0.515625
vt 1.058594 -0.503906
vt 1.058594 -0.515625
vt 1.032227 -0.503906
vt 1.032227 -0.515625
vt 1.115234 -0.566406
vt 1.539062 -0.992188
vt 1.060547 -0.566406
vt 0.685059 -0.515625
vt 0.660156 -0.515625
vt 0.660156 -0.566406
vt 0.685059 -0.566406
vt 1.058594 -0.566406
vt 0.486084 -0.503906
vt 0.486084 -0.515625
vt 0.657715 -0.515625
vt 0.657715 -0.503906
vt 0.660156 -0.503906
vt 0.685059 -0.503906
vt 0.657715 -0.566406
vt 1.032227 -0.566406
vt 0.486084 -0.566406
vt 0.665527 -0.515625
vt 0.709961 -0.515625
vt 0.709961 -0.566406
vt 0.665527 -0.566406
vt 0.665527 -0.503906
vt 0.709961 -0.503906
s 1
f 14/1/1 12/2/1 13/3/1
f 29/4/2 27/5/2 28/6/2
f 44/3/3 42/7/3 43/1/3
f 91/8/4 89/4/4 90/9/5
f 94/8/6 92/5/6 93/4/6
f 97/4/7 95/6/8 96/9/8
f 6/10/9 4/1/9 5/7/9
f 5/7/9 7/11/9 6/10/9
f 10/12/10 8/13/10 9/14/10
f 9/14/10 11/15/10 10/12/10
f 17/15/11 15/14/12 16/16/12
f 16/16/12 18/17/13 17/15/11
f 21/2/14 19/18/15 20/15/14
f 20/15/14 22/17/14 21/2/14
f 25/18/16 23/10/16 24/12/16
f 24/12/16 26/15/16 25/18/16
f 32/8/9 30/9/9 31/19/9
f 31/19/9 33/20/9 32/8/9
f 36/21/17 34/22/17 35/23/17
f 35/23/17 37/24/17 36/21/17
f 40/25/10 38/26/10 39/27/10
f 39/27/10 41/28/10 40/25/10
f 47/29/18 45/22/19 46/21/20
f 46/21/20 48/30/21 47/29/18
f 51/28/22 49/27/11 50/31/13
f 50/31/13 52/32/13 51/28/22
f 55/6/15 53/5/23 54/28/14
f 54/28/14 56/32/14 55/6/15
f 59/5/16 57/8/24 58/25/24
f 58/25/24 60/28/16 59/5/16
f 63/30/25 61/21/26 62/7/27
f 62/7/27 64/3/28 63/30/25
f 67/21/29 65/24/29 66/11/29
f 66/11/29 68/7/29 67/21/29
f 71/33/17 69/34/17 70/35/17
f 70/35/17 72/36/17 71/33/17
f 75/19/3 73/9/3 74/6/30
f 74/6/30 76/37/31 75/19/3
f 79/38/19 77/34/32 78/33/18
f 78/33/18 80/39/21 79/38/19
f 83/39/33 81/33/33 82/19/26
f 82/19/26 84/37/33 83/39/33
f 87/33/34 85/36/29 86/20/29
f 86/20/29 88/19/34 87/33/34
f 3/40/35 1/18/36 2/2/37
f 2/2/37 98/1/38 3/40/35
f 98/1/38 99/10/39 3/40/35
f 1/18/36 3/40/35 99/10/39
f 102/41/9 100/42/9 101/43/9
f 101/43/9 103/44/9 102/41/9
f 106/45/9 104/46/9 105/47/9
f 105/47/9 107/48/9 106/45/9
f 110/49/9 108/50/9 109/51/9
f 109/51/9 111/52/9 110/49/9
f 114/53/9 112/54/9 113/55/9
f 113/55/9 115/56/9 114/53/9
f 118/57/9 116/58/9 117/59/9
f 117/59/9 119/60/9 118/57/9
f 122/61/9 120/62/9 121/63/9
f 121/63/9 123/64/9 122/61/9
f 126/44/10 124/43/10 125/53/10
f 125/53/10 127/56/10 126/44/10
f 130/42/17 128/41/17 129/59/17
f 129/59/17 131/58/17 130/42/17
f 134/48/10 132/47/10 133/57/10
f 133/57/10 135/60/10 134/48/10
f 138/46/17 136/45/17 137/63/17
f 137/63/17 139/62/17 138/46/17
f 142/52/10 140/51/10 141/61/10
f 141/61/10 143/64/10 142/52/10
f 146/65/9 144/66/9 145/67/9
f 145/67/9 147/68/9 146/65/9
f 150/69/9 148/70/9 149/71/9
f 149/71/9 151/72/9 150/69/9
f 154/73/9 152/74/9 153/75/9
f 153/75/9 155/76/9 154/73/9
f 158/77/9 156/78/9 157/79/9
f 157/79/9 159/80/9 158/77/9
f 162/81/9 160/82/9 161/83/9
f 161/83/9 163/84/9 162/81/9
f 166/85/9 164/86/9 165/87/9
f 165/87/9 167/88/9 166/85/9
f 170/89/9 168/90/9 169/91/9
f 169/91/9 171/92/9 170/89/9
f 174/93/9 172/94/9 173/95/9
f 173/95/9 175/96/9 174/93/9
f 178/97/9 176/98/9 177/99/9
f 177/99/9 179/100/9 178/97/9
f 182/101/9 180/102/9 181/103/9
f 181/103/9 183/104/9 182/101/9
f 186/105/9 184/106/9 185/107/9
f 185/107/9 187/108/9 186/105/9
f 190/109/9 188/110/9 189/111/9
f 189/111/9 191/112/9 190/109/9
f 194/113/9 192/114/9 193/115/9
f 193/115/9 195/116/9 194/113/9
f 198/65/17 196/68/17 197/95/17
f 197/95/17 199/94/17 198/65/17
f 202/72/10 200/71/10 201/93/10
f 201/93/10 203/96/10 202/72/10
f 206/70/17 204/69/17 205/99/17
f 205/99/17 207/98/17 206/70/17
f 210/76/10 208/75/10 209/97/10
f 209/97/10 211/100/10 210/76/10
f 214/74/17 212/73/17 213/103/17
f 213/103/17 215/102/17 214/74/17
f 218/80/10 216/79/10 217/101/10
f 217/101/10 219/104/10 218/80/10
f 222/78/17 220/77/17 221/107/17
f 221/107/17 223/106/17 222/78/17
f 226/84/10 224/83/10 225/105/10
f 225/105/10 227/108/10 226/84/10
f 230/82/17 228/81/17 229/111/17
f 229/111/17 231/110/17 230/82/17
f 234/88/10 232/87/10 233/109/10
f 233/109/10 235/112/10 234/88/10
f 238/86/40 236/85/40 237/115/40
f 237/115/40 239/114/40 238/86/40
f 242/92/10 240/91/10 241/113/10
f 241/113/10 243/116/10 242/92/10
f 246/90/17 244/89/17 245/55/17
f 245/55/17 247/54/17 246/90/17
f 250/117/41 248/118/41 249/119/41
f 249/119/41 251/120/41 250/117/41
f 254/121/9 252/122/42 253/123/43
f 253/123/43 255/124/44 254/121/9
f 258/124/45 256/123/46 257/118/46
f 257/118/46 259/117/47 258/124/45
f 262/125/48 260/126/49 261/127/50
f 261/127/50 263/128/51 262/125/48
f 285/129/52 262/125/48 263/128/51
f 263/128/51 284/130/53 285/129/52
f 291/131/18 285/129/52 284/130/53
f 284/130/53 290/132/19 291/131/18
f 266/126/9 264/125/9 265/133/9
f 265/133/9 267/134/9 266/126/9
f 270/135/10 268/136/10 269/137/10
f 269/137/10 271/138/10 270/135/10
f 274/139/54 272/133/55 273/125/54
f 273/125/54 275/129/56 274/139/54
f 282/135/13 280/140/12 281/141/57
f 283/136/58 282/135/13 281/141/57
f 277/142/59 283/136/58 281/141/57
f 281/141/57 279/143/60 277/142/59
f 279/143/60 278/144/61 277/142/59
f 276/145/62 277/142/59 278/144/61
f 278/144/61 316/146/53 276/145/62
f 317/147/63 276/145/62 316/146/53
f 316/146/53 322/148/64 317/147/63
f 323/149/64 317/147/63 322/148/64
f 288/137/65 286/136/66 287/142/67
f 287/142/67 289/150/68 288/137/65
f 294/151/17 292/139/17 293/129/17
f 293/129/17 295/131/17 294/151/17
f 298/152/9 296/150/9 297/142/9
f 297/142/9 299/145/9 298/152/9
f 302/153/10 300/154/10 301/155/10
f 301/155/10 303/156/10 302/153/10
f 306/147/54 304/157/69 305/152/54
f 305/152/54 307/145/55 306/147/54
f 310/158/31 308/159/70 309/160/71
f 311/161/72 310/158/31 309/160/71
f 309/160/71 315/154/73 311/161/72
f 313/162/74 311/161/72 315/154/73
f 315/154/73 314/153/75 313/162/74
f 312/163/76 313/162/74 314/153/75
f 320/154/77 318/160/78 319/164/77
f 319/164/77 321/155/78 320/154/77
f 326/149/17 324/165/17 325/157/17
f 325/157/17 327/147/17 326/149/17
f 330/166/9 328/164/9 329/160/9
f 329/160/9 331/159/9 330/166/9
f 334/43/79 332/42/79 333/41/79
f 333/41/79 335/44/79 334/43/79
f 338/47/79 336/46/79 337/45/79
f 337/45/79 339/48/79 338/47/79
f 342/51/79 340/50/79 341/49/79
f 341/49/79 343/52/79 342/51/79
f 346/55/79 344/54/79 345/53/79
f 345/53/79 347/56/79 346/55/79
f 350/59/79 348/58/79 349/57/79
f 349/57/79 351/60/79 350/59/79
f 354/63/79 352/62/79 353/61/79
f 353/61/79 355/64/79 354/63/79
f 358/53/10 356/43/10 357/44/10
f 357/44/10 359/56/10 358/53/10
f 362/59/17 360/41/17 361/42/17
f 361/42/17 363/58/17 362/59/17
f 366/57/10 364/47/10 365/48/10
f 365/48/10 367/60/10 366/57/10
f 370/63/17 368/45/17 369/46/17
f 369/46/17 371/62/17 370/63/17
f 374/61/10 372/51/10 373/52/10
f 373/52/10 375/64/10 374/61/10
f 378/67/79 376/66/79 377/65/79
f 377/65/79 379/68/79 378/67/79
f 382/71/79 380/70/79 381/69/79
f 381/69/79 383/72/79 382/71/79
f 386/75/79 384/74/79 385/73/79
f 385/73/79 387/76/79 386/75/79
f 390/79/79 388/78/79 389/77/79
f 389/77/79 391/80/79 390/79/79
f 394/83/79 392/82/79 393/81/79
f 393/81/79 395/84/79 394/83/79
f 398/87/79 396/86/79 397/85/79
f 397/85/79 399/88/79 398/87/79
f 402/91/79 400/90/79 401/89/79
f 401/89/79 403/92/79 402/91/79
f 406/95/79 404/94/79 405/93/79
f 405/93/79 407/96/79 406/95/79
f 410/99/79 408/98/79 409/97/79
f 409/97/79 411/100/79 410/99/79
f 414/103/79 412/102/79 413/101/79
f 413/101/79 415/104/79 414/103/79
f 418/107/79 416/106/79 417/105/79
f 417/105/79 419/108/79 418/107/79
f 422/111/79 420/110/79 421/109/79
f 421/109/79 423/112/79 422/111/79
f 426/115/79 424/114/79 425/113/79
f 425/113/79 427/116/79 426/115/79
f 430/95/17 428/68/17 429/65/17
f 429/65/17 431/94/17 430/95/17
f 434/93/10 432/71/10 433/72/10
f 433/72/10 435/96/10 434/93/10
f 438/99/17 436/69/17 437/70/17
f 437/70/17 439/98/17 438/99/17
f 442/97/10 440/75/10 441/76/10
f 441/76/10 443/100/10 442/97/10
f 446/103/17 444/73/17 445/74/17
f 445/74/17 447/102/17 446/103/17
f 450/101/10 448/79/10 449/80/10
f 449/80/10 451/104/10 450/101/10
f 454/107/17 452/77/17 453/78/17
f 453/78/17 455/106/17 454/107/17
f 458/105/10 456/83/10 457/84/10
f 457/84/10 459/108/10 458/105/10
f 462/111/17 460/81/17 461/82/17
f 461/82/17 463/110/17 462/111/17
f 466/109/10 464/87/10 465/88/10
f 465/88/10 467/112/10 466/109/10
f 470/115/40 468/85/40 469/86/40
f 469/86/40 471/114/40 470/115/40
f 474/113/10 472/91/10 473/92/10
f 473/92/10 475/116/10 474/113/10
f 478/55/17 476/89/17 477/90/17
f 477/90/17 479/54/17 478/55/17
f 482/119/41 480/118/41 481/117/41
f 481/117/41 483/120/41 482/119/41
f 486/123/80 484/122/81 485/121/79
f 485/121/79 487/124/82 486/123/80
f 490/118/83 488/123/84 489/124/85
f 489/124/85 491/117/86 490/118/83
f 494/127/87 492/126/88 493/125/89
f 495/128/90 494/127/87 493/125/89
f 493/125/89 517/129/91 495/128/90
f 516/130/92 495/128/90 517/129/91
f 517/129/91 523/131/18 516/130/92
f 522/132/20 516/130/92 523/131/18
f 498/133/79 496/125/79 497/126/79
f 497/126/79 499/134/79 498/133/79
f 502/136/10 500/135/10 501/138/10
f 501/138/10 503/137/10 502/136/10
f 506/125/93 504/133/94 505/139/94
f 505/139/94 507/129/95 506/125/93
f 514/140/11 512/135/96 513/136/97
f 515/141/98 514/140/11 513/136/97
f 513/136/97 510/142/99 515/141/98
f 511/143/100 515/141/98 510/142/99
f 509/144/101 511/143/100 510/142/99
f 510/142/99 508/145/102 509/144/101
f 548/146/103 509/144/101 508/145/102
f 508/145/102 549/147/104 548/146/103
f 549/147/104 555/149/20 548/146/103
f 554/148/20 548/146/103 555/149/20
f 520/142/105 518/136/105 519/137/106
f 519/137/106 521/150/107 520/142/105
f 526/129/17 524/139/17 525/151/17
f 525/151/17 527/131/17 526/129/17
f 530/142/79 528/150/79 529/152/79
f 529/152/79 531/145/79 530/142/79
f 534/167/10 532/168/10 533/169/10
f 533/169/10 535/170/10 534/167/10
f 538/152/93 536/157/108 537/147/94
f 537/147/94 539/145/94 538/152/93
f 542/160/109 540/159/110 541/158/87
f 541/158/87 543/161/111 542/160/109
f 543/161/111 547/171/112 542/160/109
f 545/167/97 542/160/109 547/171/112
f 547/171/112 546/172/11 545/167/97
f 544/168/76 545/167/97 546/172/11
f 552/160/113 550/167/114 551/170/115
f 551/170/115 553/164/107 552/160/113
f 558/157/17 556/165/17 557/149/17
f 557/149/17 559/147/17 558/157/17
f 562/160/79 560/164/79 561/166/79
f 561/166/79 563/159/79 562/160/79
