# Blender 4.5.3 LTS
# www.blender.org
o w9a02_debris02
v -3.884902 0.010239 9.346466
v -3.893204 0.010055 8.900962
v -3.012768 -0.002056 9.644210
v -3.027447 -0.002056 8.878379
v -4.043083 0.009780 9.747661
v -3.278144 -0.002056 10.348603
v -5.638219 0.008819 12.632340
v -5.173697 -0.002056 13.737062
v -6.095743 0.009528 12.768312
v -5.661413 -0.002056 13.920258
v -5.347088 0.009843 12.242253
v -5.841775 0.087550 12.096710
v -7.718657 -0.136015 7.556684
v -6.853136 -0.280086 7.656611
v -7.858388 0.302602 8.683832
v -6.824642 0.322340 8.443793
v -5.903788 0.271530 9.328193
v -5.231028 0.169724 8.857863
v -5.269402 0.167859 9.951305
v -4.838697 0.116604 9.473181
v -6.804084 0.380787 9.318954
v -6.078265 0.217224 8.379331
v -5.460810 0.138262 8.241832
v -7.728327 0.343377 9.504013
v -7.736505 0.587216 10.205144
v -6.941452 0.464823 10.153705
v -6.914083 0.351817 11.043629
v -7.531107 0.447658 11.122026
v -6.225053 0.320473 10.278923
v -6.298854 0.253123 11.110240
v -5.616281 0.174856 10.619985
v -5.767253 0.141843 11.326542
v -5.088947 0.008819 11.019988
v -5.241444 0.008819 11.660976
v -4.781766 0.008819 10.474640
v -4.400894 0.008819 10.049758
v -3.871390 -0.002056 11.017402
v -4.138565 -0.002056 11.561902
v -3.502329 -0.002056 10.653531
v -4.239949 -0.002056 12.274376
v -4.475793 -0.002056 13.142763
v -4.316873 0.046745 9.194325
v -4.655827 0.095710 8.599798
v -4.084223 0.008819 8.376619
v -4.864998 0.030831 8.026950
v -4.286244 -0.018907 7.782238
v -5.003216 -0.100512 7.441768
v -4.420648 -0.056545 7.134866
v -5.611742 -0.151846 7.585745
v -6.207027 -0.174151 7.637451
v -3.566883 -0.028628 6.994568
v -3.501109 -0.028628 7.639175
v -3.275977 -0.002056 8.228965
v -6.390978 0.157333 11.899899
v -6.932693 0.213887 11.918256
v -6.544727 0.008819 12.750567
v -7.050748 0.008819 12.831992
v -7.564331 0.008819 13.070864
v -7.498474 0.270800 12.084394
v -6.773811 -0.002056 13.956421
v -7.182754 -0.002056 14.193674
v -6.367031 -0.002056 13.968036
v 3.842209 0.010239 14.776877
v 3.834980 0.010056 15.222400
v 2.980983 -0.002056 14.448918
v 2.968962 -0.002056 15.214795
v 4.014278 0.009780 14.381439
v 3.270749 -0.002056 13.754203
v 5.708987 0.008819 11.554110
v 5.283250 -0.002056 10.433867
v 6.170972 0.009528 11.434168
v 5.777055 -0.002056 10.267784
v 5.404437 0.009843 11.933812
v 5.893751 0.087550 12.096509
v 7.611257 -0.136015 16.699194
v 6.749744 -0.280085 16.569159
v 7.790187 0.302602 15.577599
v 6.748704 0.322341 15.781464
v 5.859233 0.271531 14.865506
v 5.170490 0.169725 15.312100
v 5.246950 0.167859 14.220660
v 4.799844 0.116605 14.683484
v 6.758659 0.380787 14.906116
v 6.000533 0.217225 15.819873
v 5.378660 0.138263 15.935767
v 7.688792 0.343377 14.753383
v 7.721401 0.587216 14.052963
v 6.925038 0.464823 14.076660
v 6.928703 0.351817 13.186324
v 7.548085 0.447658 13.129480
v 6.213439 0.320473 13.926549
v 6.316170 0.253123 13.098310
v 5.616924 0.174856 13.564478
v 5.792430 0.141844 12.863611
v 5.103852 0.008819 13.146338
v 5.278596 0.008819 12.511054
v 4.777851 0.008819 13.680649
v 4.382401 0.008819 14.091997
v 3.886945 -0.002056 13.106488
v 4.172936 -0.002056 12.571629
v 3.505425 -0.002056 13.457274
v 4.299089 -0.002056 11.863121
v 4.565057 -0.002056 11.003482
v 4.268617 0.046746 14.943982
v 4.586643 0.095710 15.549962
v 4.007608 0.008819 15.753082
v 4.775723 0.030832 16.129751
v 4.188791 -0.018907 16.354143
v 4.893459 -0.100511 16.719397
v 4.300549 -0.056544 17.005806
v 5.506635 -0.151846 16.596716
v 6.103361 -0.174150 16.565788
v 3.442414 -0.028628 17.116262
v 3.399145 -0.028628 16.469755
v 3.194707 -0.002056 15.872477
v 6.435760 0.157333 12.312342
v 6.977787 0.213887 12.312877
v 6.619064 0.008819 11.467549
v 7.127615 0.008819 11.403811
v 7.649213 0.008819 11.182983
v 7.549012 0.270800 12.166559
v 6.890038 -0.002056 10.270411
v 7.307001 -0.002056 10.047557
v 6.483908 -0.002056 10.244627
v 10.368096 0.010238 -3.919664
v 10.381467 0.010054 -4.222835
v 10.948192 -0.002057 -3.680061
v 10.970900 -0.002057 -4.201234
v 10.243457 0.009779 -3.653716
v 10.737748 -0.002057 -3.212600
v 9.036101 0.008818 -1.761036
v 9.304696 -0.002057 -0.990314
v 8.719313 0.009527 -1.688141
v 8.965369 -0.002057 -0.886610
v 9.250636 0.009842 -2.013759
v 8.920602 0.087549 -2.133799
v 7.838622 -0.136016 -5.299827
v 8.422665 -0.280087 -5.194965
v 7.695540 0.302601 -4.539651
v 8.408435 0.322339 -4.658690
v 8.996609 0.271529 -4.018249
v 9.473968 0.169723 -4.309226
v 9.401217 0.167858 -3.567635
v 9.714378 0.116603 -3.874240
v 8.385058 0.380785 -4.062952
v 8.918511 0.217223 -4.670650
v 9.344073 0.138261 -4.737760
v 7.748938 0.343376 -3.976610
v 7.713457 0.587215 -3.500391
v 8.256062 0.464822 -3.501422
v 8.236684 0.351816 -2.895359
v 7.813937 0.447657 -2.868405
v 8.737665 0.320472 -3.385734
v 8.652020 0.253122 -2.823825
v 9.136900 0.174855 -3.127928
v 9.004127 0.141842 -2.654113
v 9.478264 0.008818 -2.833533
v 9.347254 0.008818 -2.404353
v 9.710334 0.008818 -3.191104
v 9.987353 0.008818 -3.463648
v 10.305965 -0.002057 -2.783327
v 10.101124 -0.002057 -2.424625
v 10.572353 -0.002057 -3.014905
v 10.001804 -0.002057 -1.944672
v 9.804435 -0.002057 -1.364482
v 10.080973 0.046744 -4.041512
v 9.875954 0.095709 -4.460088
v 10.274008 0.008818 -4.587390
v 9.758225 0.030830 -4.858388
v 10.162058 -0.018908 -5.000021
v 9.689254 -0.100513 -5.262043
v 10.098331 -0.056546 -5.445786
v 9.269483 -0.151847 -5.190151
v 8.862651 -0.174152 -5.180412
v 10.684635 -0.028629 -5.504712
v 10.701831 -0.028629 -5.063755
v 10.829685 -0.002057 -4.653258
v 8.555701 0.157332 -2.291014
v 8.186706 0.213886 -2.301657
v 8.414889 0.008818 -1.719364
v 8.067464 0.008818 -1.685616
v 7.708179 0.008818 -1.545171
v 7.795045 0.270799 -2.212878
v 8.207713 -0.002057 -0.909503
v 7.919622 -0.002057 -0.765694
v 8.483711 -0.002057 -0.884248
v -4.937904 0.010237 -8.320589
v -4.924534 0.010054 -8.623761
v -4.357809 -0.002058 -8.080988
v -4.335102 -0.002058 -8.602160
v -5.062543 0.009778 -8.054644
v -4.568252 -0.002058 -7.613527
v -6.269899 0.008817 -6.161963
v -6.001305 -0.002057 -5.391241
v -6.586687 0.009527 -6.089067
v -6.340631 -0.002057 -5.287536
v -6.055364 0.009842 -6.414685
v -6.385398 0.087549 -6.534726
v -7.467378 -0.136017 -9.700754
v -6.883335 -0.280087 -9.595891
v -7.610461 0.302600 -8.940577
v -6.897565 0.322339 -9.059616
v -6.309392 0.271529 -8.419176
v -5.832034 0.169723 -8.710152
v -5.904784 0.167858 -7.968563
v -5.591622 0.116603 -8.275168
v -6.920941 0.380785 -8.463880
v -6.387489 0.217223 -9.071578
v -5.961926 0.138261 -9.138686
v -7.557062 0.343376 -8.377538
v -7.592544 0.587214 -7.901317
v -7.049938 0.464821 -7.902349
v -7.069317 0.351815 -7.296286
v -7.492063 0.447656 -7.269331
v -6.568336 0.320471 -7.786659
v -6.653980 0.253122 -7.224751
v -6.169101 0.174855 -7.528854
v -6.301875 0.141842 -7.055040
v -5.827736 0.008817 -7.234460
v -5.958746 0.008817 -6.805278
v -5.595665 0.008817 -7.592031
v -5.318646 0.008817 -7.864572
v -5.000033 -0.002057 -7.184253
v -5.204877 -0.002057 -6.825551
v -4.733647 -0.002057 -7.415831
v -5.304195 -0.002057 -6.345598
v -5.501565 -0.002057 -5.765409
v -5.225028 0.046744 -8.442438
v -5.430047 0.095708 -8.861014
v -5.031993 0.008817 -8.988317
v -5.547775 0.030830 -9.259315
v -5.143942 -0.018909 -9.400948
v -5.616747 -0.100513 -9.662971
v -5.207669 -0.056547 -9.846713
v -6.036517 -0.151847 -9.591079
v -6.443348 -0.174152 -9.581339
v -4.621365 -0.028630 -9.905637
v -4.604169 -0.028630 -9.464681
v -4.476315 -0.002058 -9.054184
v -6.750300 0.157332 -6.691940
v -7.119296 0.213886 -6.702583
v -6.891112 0.008817 -6.120291
v -7.238536 0.008817 -6.086542
v -7.597821 0.008817 -5.946096
v -7.510954 0.270798 -6.613805
v -7.098288 -0.002057 -5.310430
v -7.386379 -0.002057 -5.166621
v -6.822289 -0.002057 -5.285175
v -6.069211 1.585333 -3.952796
v -6.607111 1.740905 -3.729991
v -6.195419 1.585333 -4.141681
v -6.384305 1.585333 -4.267890
v -6.607111 1.585333 -4.312210
v -6.829916 1.585333 -4.267890
v -7.018802 1.585333 -4.141682
v -7.145010 1.585333 -3.952796
v -7.189330 1.585333 -3.729991
v -7.145010 1.585333 -3.507185
v -7.018802 1.585333 -3.318300
v -6.829916 1.585333 -3.192091
v -6.607111 1.585333 -3.147772
v -6.384305 1.585333 -3.192091
v -6.195420 1.585333 -3.318299
v -6.069211 1.585333 -3.507185
v -6.024892 1.585333 -3.729991
v -2.270450 1.589283 14.587501
v -2.808351 1.744855 14.810306
v -2.396660 1.589283 14.398615
v -2.585545 1.589283 14.272407
v -2.808350 1.589283 14.228087
v -3.031156 1.589283 14.272407
v -3.220042 1.589283 14.398615
v -3.346251 1.589283 14.587501
v -3.390569 1.589283 14.810306
v -3.346251 1.589284 15.033112
v -3.220042 1.589284 15.221997
v -3.031156 1.589284 15.348206
v -2.808351 1.589284 15.392525
v -2.585545 1.589284 15.348206
v -2.396660 1.589284 15.221997
v -2.270450 1.589284 15.033112
v -2.226132 1.589283 14.810306
v 5.385864 1.589283 9.583959
v 5.260837 1.744855 9.015323
v 5.593955 1.589283 9.492827
v 5.751331 1.589283 9.329001
v 5.834033 1.589283 9.117419
v 5.829473 1.589283 8.890295
v 5.738342 1.589283 8.682204
v 5.574514 1.589283 8.524829
v 5.362934 1.589283 8.442126
v 5.135808 1.589283 8.446688
v 4.927718 1.589283 8.537818
v 4.770342 1.589283 8.701645
v 4.687639 1.589283 8.913226
v 4.692201 1.589283 9.140351
v 4.783331 1.589283 9.348441
v 4.947159 1.589283 9.505817
v 5.158740 1.589283 9.588520
vn 0.0098 -0.9648 0.2628
vn -0.0216 -0.8793 0.4758
vn -0.0020 -0.8653 0.5012
vn -0.0235 -0.9530 0.3020
vn -0.0529 -0.9619 0.2684
vn 0.0295 -0.8645 0.5018
vn -0.0392 -0.9725 0.2294
vn 0.0353 -0.9243 0.3799
vn 0.0510 -0.9756 0.2136
vn -0.0176 -0.9849 0.1723
vn -0.0000 -0.9975 0.0706
vn 0.0294 -0.9976 0.0627
vn 0.0157 -0.9996 0.0255
vn 0.0039 -0.9994 0.0353
vn -0.0078 -0.9997 0.0235
vn -0.0431 -0.9981 0.0431
vn -0.0118 -0.9999 0.0020
vn -0.0431 -0.9991 0.0039
vn -0.0118 -0.9999 -0.0020
vn -0.0274 -0.9996 -0.0039
vn -0.0392 -0.9991 -0.0176
vn -0.0079 -1.0000 -0.0059
vn -0.0705 -0.9967 -0.0392
vn -0.0058 -1.0000 -0.0079
vn -0.0081 -0.9999 -0.0060
vn -0.0940 -0.9944 -0.0490
vn -0.1000 -0.9942 -0.0392
vn -0.0078 -1.0000 -0.0019
vn -0.0098 -1.0000 -0.0001
vn -0.0744 -0.9969 -0.0235
vn -0.0078 -1.0000 -0.0040
vn -0.0372 -0.9991 -0.0196
vn -0.0041 -1.0000 -0.0079
vn -0.0177 -0.9995 -0.0275
vn -0.0137 -0.9986 -0.0509
vn 0.0001 -1.0000 -0.0078
vn -0.0255 -0.9958 -0.0882
vn -0.0000 -1.0000 -0.0078
vn -0.0019 -1.0000 -0.0076
vn -0.0607 -0.9905 -0.1233
vn -0.0549 -0.9940 -0.0941
vn -0.1255 -0.9745 -0.1863
vn -0.1508 -0.9657 -0.2116
vn -0.1606 -0.9774 -0.1371
vn -0.1548 -0.9795 -0.1293
vn -0.0901 -0.9947 0.0490
vn -0.1214 -0.9924 0.0195
vn -0.0646 -0.9948 0.0783
vn 0.0118 -0.9918 0.1274
vn -0.1392 -0.9898 0.0294
vn -0.1196 -0.9918 0.0451
vn -0.1077 -0.9926 0.0568
vn -0.1136 -0.9934 -0.0137
vn -0.1411 -0.9895 -0.0314
vn -0.1686 -0.9843 -0.0529
vn -0.1900 -0.9790 -0.0744
vn -0.1743 -0.9809 -0.0861
vn -0.1057 -0.9883 -0.1096
vn -0.0941 -0.9841 -0.1510
vn -0.1510 -0.9822 -0.1117
vn -0.1646 -0.9857 -0.0372
vn -0.0000 -0.9644 -0.2646
vn 0.0373 -0.8789 -0.4756
vn 0.0196 -0.8660 -0.4996
vn 0.0333 -0.9528 -0.3019
vn 0.0607 -0.9619 -0.2664
vn -0.0118 -0.8648 -0.5020
vn 0.0471 -0.9726 -0.2275
vn -0.0215 -0.9240 -0.3818
vn -0.0430 -0.9756 -0.2154
vn 0.0235 -0.9851 -0.1704
vn -0.0001 -0.9975 -0.0705
vn -0.0274 -0.9975 -0.0647
vn -0.0137 -0.9996 -0.0254
vn -0.0039 -0.9994 -0.0353
vn 0.0097 -0.9997 -0.0232
vn 0.0450 -0.9981 -0.0411
vn 0.0137 -0.9999 -0.0022
vn 0.0431 -0.9991 -0.0020
vn 0.0118 -0.9999 0.0020
vn 0.0274 -0.9996 0.0039
vn 0.0392 -0.9990 0.0196
vn 0.0079 -1.0000 0.0059
vn 0.0685 -0.9967 0.0431
vn 0.0058 -1.0000 0.0079
vn 0.0079 -0.9999 0.0062
vn 0.0920 -0.9944 0.0528
vn 0.0981 -0.9942 0.0432
vn 0.0078 -1.0000 0.0020
vn 0.0096 -1.0000 0.0026
vn 0.0725 -0.9970 0.0255
vn 0.0059 -1.0000 0.0040
vn 0.0372 -0.9991 0.0216
vn 0.0040 -1.0000 0.0079
vn 0.0177 -0.9995 0.0275
vn 0.0117 -0.9986 0.0509
vn -0.0001 -1.0000 0.0078
vn 0.0216 -0.9957 0.0902
vn -0.0000 -1.0000 0.0079
vn 0.0019 -1.0000 0.0077
vn 0.0568 -0.9905 0.1253
vn 0.0510 -0.9941 0.0961
vn 0.1196 -0.9741 0.1921
vn 0.1430 -0.9656 0.2174
vn 0.1547 -0.9776 0.1430
vn 0.1489 -0.9796 0.1352
vn 0.0920 -0.9946 -0.0470
vn 0.1214 -0.9925 -0.0157
vn 0.0666 -0.9949 -0.0764
vn -0.0059 -0.9918 -0.1275
vn 0.1411 -0.9897 -0.0255
vn 0.1215 -0.9917 -0.0412
vn 0.1096 -0.9925 -0.0548
vn 0.1137 -0.9934 0.0176
vn 0.1391 -0.9896 0.0372
vn 0.1666 -0.9843 0.0588
vn 0.1879 -0.9789 0.0803
vn 0.1704 -0.9811 0.0920
vn 0.1018 -0.9885 0.1116
vn 0.0882 -0.9843 0.1529
vn 0.1470 -0.9823 0.1157
vn 0.1627 -0.9857 0.0431
vn -0.0039 -0.9832 0.1822
vn -0.0373 -0.9380 0.3447
vn -0.0235 -0.9302 0.3663
vn -0.0293 -0.9773 0.2097
vn -0.0471 -0.9817 0.1843
vn -0.0000 -0.9305 0.3664
vn -0.0372 -0.9869 0.1567
vn 0.0079 -0.9626 0.2706
vn 0.0255 -0.9885 0.1489
vn -0.0196 -0.9931 0.1157
vn -0.0000 -0.9989 0.0470
vn 0.0176 -0.9989 0.0431
vn 0.0078 -0.9998 0.0176
vn 0.0019 -0.9997 0.0235
vn -0.0059 -0.9999 0.0157
vn -0.0314 -0.9992 0.0255
vn -0.0078 -1.0000 -0.0000
vn -0.0294 -0.9996 -0.0000
vn -0.0078 -1.0000 -0.0020
vn -0.0177 -0.9998 -0.0039
vn -0.0255 -0.9996 -0.0137
vn -0.0059 -1.0000 -0.0039
vn -0.0470 -0.9985 -0.0294
vn -0.0039 -1.0000 -0.0039
vn -0.0608 -0.9975 -0.0373
vn -0.0667 -0.9973 -0.0314
vn -0.0059 -1.0000 -0.0020
vn -0.0059 -1.0000 -0.0000
vn -0.0490 -0.9986 -0.0196
vn -0.0039 -1.0000 -0.0019
vn -0.0235 -0.9996 -0.0157
vn -0.0020 -1.0000 -0.0039
vn -0.0118 -0.9997 -0.0196
vn -0.0078 -0.9993 -0.0353
vn -0.0000 -1.0000 -0.0059
vn -0.0137 -0.9980 -0.0609
vn -0.0000 -1.0000 -0.0058
vn -0.0373 -0.9956 -0.0863
vn -0.0333 -0.9972 -0.0666
vn -0.0020 -1.0000 -0.0059
vn -0.0785 -0.9880 -0.1334
vn -0.0941 -0.9837 -0.1530
vn -0.1039 -0.9894 -0.1019
vn -0.0998 -0.9904 -0.0960
vn -0.0628 -0.9976 0.0294
vn -0.0823 -0.9966 0.0078
vn -0.0470 -0.9976 0.0510
vn 0.0020 -0.9963 0.0862
vn -0.0960 -0.9953 0.0137
vn -0.0823 -0.9963 0.0255
vn -0.0763 -0.9965 0.0352
vn -0.0764 -0.9970 -0.0137
vn -0.0941 -0.9952 -0.0274
vn -0.1137 -0.9926 -0.0431
vn -0.1276 -0.9901 -0.0589
vn -0.1157 -0.9911 -0.0666
vn -0.0666 -0.9947 -0.0784
vn -0.0588 -0.9924 -0.1077
vn -0.0981 -0.9918 -0.0824
vn -0.1118 -0.9932 -0.0333
vn -0.0294 -0.9773 0.2097
vn -0.0059 -1.0000 -0.0019
vn -0.0137 -0.9981 -0.0608
vn -0.1117 -0.9932 -0.0333
vn -0.0000 -1.0000 -0.0000
vn -0.1823 -0.9662 0.1823
vn -0.2374 -0.9665 0.0981
vn -0.2568 -0.9665 -0.0000
vn -0.2372 -0.9665 -0.0980
vn -0.1821 -0.9663 -0.1821
vn -0.0981 -0.9665 -0.2373
vn -0.0000 -0.9664 -0.2569
vn 0.0980 -0.9665 -0.2373
vn 0.1825 -0.9661 -0.1825
vn 0.2374 -0.9665 -0.0981
vn 0.2569 -0.9664 -0.0000
vn 0.2372 -0.9665 0.0980
vn 0.1825 -0.9661 0.1825
vn 0.0980 -0.9665 0.2371
vn -0.0000 -0.9665 0.2568
vn -0.0980 -0.9665 0.2372
vn -0.1825 -0.9661 0.1825
vn -0.2372 -0.9665 0.0980
vn -0.2373 -0.9665 -0.0981
vn -0.1823 -0.9662 -0.1823
vn 0.0981 -0.9665 -0.2373
vn 0.2372 -0.9665 -0.0980
vn 0.2371 -0.9665 0.0980
vn 0.0980 -0.9665 0.2373
vn -0.0000 -0.9664 0.2569
vn -0.0981 -0.9665 0.2373
vn -0.1469 -0.9662 -0.2117
vn -0.0549 -0.9664 -0.2510
vn 0.0451 -0.9664 -0.2530
vn 0.1391 -0.9661 -0.2175
vn 0.2117 -0.9662 -0.1470
vn 0.2509 -0.9664 -0.0549
vn 0.2529 -0.9664 0.0451
vn 0.2175 -0.9661 0.1391
vn 0.1469 -0.9662 0.2117
vn 0.0549 -0.9664 0.2510
vn -0.0451 -0.9664 0.2529
vn -0.1391 -0.9661 0.2175
vn -0.2117 -0.9662 0.1469
vn -0.2510 -0.9664 0.0549
vn -0.2529 -0.9664 -0.0451
vn -0.2175 -0.9661 -0.1391
vt 0.371582 0.494629
vt 0.388184 0.424316
vt 0.319580 0.431152
vt 0.313965 0.489258
vt 0.257812 0.486816
vt 0.268311 0.429688
vt 0.208984 0.475586
vt 0.221313 0.425293
vt 0.173096 0.413574
vt 0.161865 0.458984
vt 0.116150 0.439453
vt 0.127197 0.389648
vt 0.045319 0.371582
vt 0.039764 0.421387
vt 0.021591 0.466309
vt 0.099792 0.485352
vt 0.001536 0.516357
vt 0.084351 0.525635
vt -0.000035 0.575439
vt 0.083496 0.560059
vt 0.095825 0.590820
vt 0.020645 0.629883
vt 0.124023 0.614502
vt 0.052460 0.660400
vt 0.081543 0.688721
vt 0.154053 0.647461
vt 0.178101 0.689453
vt 0.102417 0.730713
vt 0.122009 0.783936
vt 0.201782 0.737061
vt 0.152588 0.848999
vt 0.222168 0.780029
vt 0.207642 0.895203
vt 0.250244 0.809448
vt 0.286377 0.820190
vt 0.251465 0.908752
vt 0.322021 0.819092
vt 0.307373 0.912781
vt 0.339600 0.912109
vt 0.362061 0.825562
vt 0.402832 0.844238
vt 0.371826 0.930603
vt 0.353271 0.755127
vt 0.397949 0.768311
vt 0.388428 0.696045
vt 0.339844 0.689697
vt 0.378418 0.626709
vt 0.323242 0.623779
vt 0.312256 0.556885
vt 0.370117 0.559326
vt 0.243530 0.559570
vt 0.190430 0.522949
vt 0.145020 0.502686
vt 0.117798 0.548340
vt 0.159058 0.570312
vt 0.192871 0.607422
vt 0.220093 0.658936
vt 0.243530 0.711670
vt 0.266602 0.768311
vt 0.310303 0.753418
vt 0.291016 0.694580
vt 0.268555 0.633057
vt 0.500000 0.497559
vt 0.610352 0.614502
vt 0.644531 0.563721
vt 0.656250 0.503906
vt 0.644531 0.444336
vt 0.610352 0.393555
vt 0.559570 0.359863
vt 0.500000 0.347656
vt 0.440186 0.359863
vt 0.389404 0.393555
vt 0.355713 0.444336
vt 0.343750 0.503906
vt 0.355713 0.563721
vt 0.389404 0.614502
vt 0.440186 0.648438
vt 0.500000 0.660156
vt 0.559570 0.648438
s 1
f 15/1/1 13/2/2 14/3/3
f 16/4/4 15/1/1 14/3/3
f 22/5/5 16/4/4 14/3/3
f 14/3/3 50/6/6 22/5/5
f 23/7/7 22/5/5 50/6/6
f 50/6/6 49/8/8 23/7/7
f 49/8/8 47/9/9 23/7/7
f 45/10/10 23/7/7 47/9/9
f 46/11/11 45/10/10 47/9/9
f 47/9/9 48/12/12 46/11/11
f 48/12/12 51/13/13 46/11/11
f 51/13/13 52/14/14 46/11/11
f 52/14/14 53/15/15 46/11/11
f 44/16/16 46/11/11 53/15/15
f 53/15/15 4/17/17 44/16/16
f 2/18/18 44/16/16 4/17/17
f 4/17/17 3/19/19 2/18/18
f 1/20/20 2/18/18 3/19/19
f 5/21/21 1/20/20 3/19/19
f 3/19/19 6/22/22 5/21/21
f 36/23/23 5/21/21 6/22/22
f 6/22/22 39/24/24 36/23/23
f 39/24/24 37/25/25 36/23/23
f 35/26/26 36/23/23 37/25/25
f 33/27/27 35/26/26 37/25/25
f 37/25/25 38/28/28 33/27/27
f 38/28/28 40/29/29 33/27/27
f 34/30/30 33/27/27 40/29/29
f 40/29/29 41/31/31 34/30/30
f 11/32/32 34/30/30 41/31/31
f 41/31/31 8/33/33 11/32/32
f 7/34/34 11/32/32 8/33/33
f 9/35/35 7/34/34 8/33/33
f 8/33/33 10/36/36 9/35/35
f 56/37/37 9/35/35 10/36/36
f 10/36/36 62/38/38 56/37/37
f 62/38/38 60/39/39 56/37/37
f 57/40/40 56/37/37 60/39/39
f 58/41/41 57/40/40 60/39/39
f 60/39/39 61/42/33 58/41/41
f 55/43/42 57/40/40 58/41/41
f 58/41/41 59/44/43 55/43/42
f 59/44/43 28/45/44 55/43/42
f 27/46/45 55/43/42 28/45/44
f 28/45/44 25/47/46 27/46/45
f 26/48/47 27/46/45 25/47/46
f 21/49/48 26/48/47 25/47/46
f 25/47/46 24/50/49 21/49/48
f 24/50/49 15/1/1 21/49/48
f 15/1/1 16/4/4 21/49/48
f 16/4/4 22/5/5 21/49/48
f 17/51/50 21/49/48 22/5/5
f 18/52/51 17/51/50 22/5/5
f 22/5/5 23/7/7 18/52/51
f 23/7/7 45/10/10 18/52/51
f 43/53/52 18/52/51 45/10/10
f 44/16/16 43/53/52 45/10/10
f 45/10/10 46/11/11 44/16/16
f 43/53/52 44/16/16 2/18/18
f 42/54/53 43/53/52 2/18/18
f 5/21/21 42/54/53 2/18/18
f 2/18/18 1/20/20 5/21/21
f 20/55/54 42/54/53 5/21/21
f 5/21/21 36/23/23 20/55/54
f 19/56/55 20/55/54 36/23/23
f 36/23/23 35/26/26 19/56/55
f 35/26/26 33/27/27 19/56/55
f 31/57/56 19/56/55 33/27/27
f 32/58/57 31/57/56 33/27/27
f 33/27/27 34/30/30 32/58/57
f 34/30/30 11/32/32 32/58/57
f 12/59/58 32/58/57 11/32/32
f 9/35/35 12/59/58 11/32/32
f 11/32/32 7/34/34 9/35/35
f 12/59/58 9/35/35 56/37/37
f 54/60/59 12/59/58 56/37/37
f 55/43/42 54/60/59 56/37/37
f 56/37/37 57/40/40 55/43/42
f 30/61/60 54/60/59 55/43/42
f 55/43/42 27/46/45 30/61/60
f 29/62/61 30/61/60 27/46/45
f 27/46/45 26/48/47 29/62/61
f 26/48/47 21/49/48 29/62/61
f 21/49/48 17/51/50 29/62/61
f 31/57/56 29/62/61 17/51/50
f 19/56/55 31/57/56 17/51/50
f 17/51/50 18/52/51 19/56/55
f 20/55/54 19/56/55 18/52/51
f 18/52/51 43/53/52 20/55/54
f 42/54/53 20/55/54 43/53/52
f 30/61/60 29/62/61 31/57/56
f 31/57/56 32/58/57 30/61/60
f 32/58/57 12/59/58 30/61/60
f 54/60/59 30/61/60 12/59/58
f 77/1/62 75/2/63 76/3/64
f 78/4/65 77/1/62 76/3/64
f 84/5/66 78/4/65 76/3/64
f 76/3/64 112/6/67 84/5/66
f 85/7/68 84/5/66 112/6/67
f 112/6/67 111/8/69 85/7/68
f 111/8/69 109/9/70 85/7/68
f 107/10/71 85/7/68 109/9/70
f 108/11/72 107/10/71 109/9/70
f 109/9/70 110/12/73 108/11/72
f 110/12/73 113/13/74 108/11/72
f 113/13/74 114/14/75 108/11/72
f 114/14/75 115/15/76 108/11/72
f 106/16/77 108/11/72 115/15/76
f 115/15/76 66/17/78 106/16/77
f 64/18/79 106/16/77 66/17/78
f 66/17/78 65/19/80 64/18/79
f 63/20/81 64/18/79 65/19/80
f 67/21/82 63/20/81 65/19/80
f 65/19/80 68/22/83 67/21/82
f 98/23/84 67/21/82 68/22/83
f 68/22/83 101/24/85 98/23/84
f 101/24/85 99/25/86 98/23/84
f 97/26/87 98/23/84 99/25/86
f 95/27/88 97/26/87 99/25/86
f 99/25/86 100/28/89 95/27/88
f 100/28/89 102/29/90 95/27/88
f 96/30/91 95/27/88 102/29/90
f 102/29/90 103/31/92 96/30/91
f 73/32/93 96/30/91 103/31/92
f 103/31/92 70/33/94 73/32/93
f 69/34/95 73/32/93 70/33/94
f 71/35/96 69/34/95 70/33/94
f 70/33/94 72/36/97 71/35/96
f 118/37/98 71/35/96 72/36/97
f 72/36/97 124/38/99 118/37/98
f 124/38/99 122/39/100 118/37/98
f 119/40/101 118/37/98 122/39/100
f 120/41/102 119/40/101 122/39/100
f 122/39/100 123/42/94 120/41/102
f 117/43/103 119/40/101 120/41/102
f 120/41/102 121/44/104 117/43/103
f 121/44/104 90/45/105 117/43/103
f 89/46/106 117/43/103 90/45/105
f 90/45/105 87/47/107 89/46/106
f 88/48/108 89/46/106 87/47/107
f 83/49/109 88/48/108 87/47/107
f 87/47/107 86/50/110 83/49/109
f 86/50/110 77/1/62 83/49/109
f 77/1/62 78/4/65 83/49/109
f 78/4/65 84/5/66 83/49/109
f 79/51/111 83/49/109 84/5/66
f 80/52/112 79/51/111 84/5/66
f 84/5/66 85/7/68 80/52/112
f 85/7/68 107/10/71 80/52/112
f 105/53/113 80/52/112 107/10/71
f 106/16/77 105/53/113 107/10/71
f 107/10/71 108/11/72 106/16/77
f 105/53/113 106/16/77 64/18/79
f 104/54/114 105/53/113 64/18/79
f 67/21/82 104/54/114 64/18/79
f 64/18/79 63/20/81 67/21/82
f 82/55/115 104/54/114 67/21/82
f 67/21/82 98/23/84 82/55/115
f 81/56/116 82/55/115 98/23/84
f 98/23/84 97/26/87 81/56/116
f 97/26/87 95/27/88 81/56/116
f 93/57/117 81/56/116 95/27/88
f 94/58/118 93/57/117 95/27/88
f 95/27/88 96/30/91 94/58/118
f 96/30/91 73/32/93 94/58/118
f 74/59/119 94/58/118 73/32/93
f 71/35/96 74/59/119 73/32/93
f 73/32/93 69/34/95 71/35/96
f 74/59/119 71/35/96 118/37/98
f 116/60/120 74/59/119 118/37/98
f 117/43/103 116/60/120 118/37/98
f 118/37/98 119/40/101 117/43/103
f 92/61/121 116/60/120 117/43/103
f 117/43/103 89/46/106 92/61/121
f 91/62/122 92/61/121 89/46/106
f 89/46/106 88/48/108 91/62/122
f 88/48/108 83/49/109 91/62/122
f 83/49/109 79/51/111 91/62/122
f 93/57/117 91/62/122 79/51/111
f 81/56/116 93/57/117 79/51/111
f 79/51/111 80/52/112 81/56/116
f 82/55/115 81/56/116 80/52/112
f 80/52/112 105/53/113 82/55/115
f 104/54/114 82/55/115 105/53/113
f 92/61/121 91/62/122 93/57/117
f 93/57/117 94/58/118 92/61/121
f 94/58/118 74/59/119 92/61/121
f 116/60/120 92/61/121 74/59/119
f 139/1/123 137/2/124 138/3/125
f 140/4/126 139/1/123 138/3/125
f 146/5/127 140/4/126 138/3/125
f 138/3/125 174/6/128 146/5/127
f 147/7/129 146/5/127 174/6/128
f 174/6/128 173/8/130 147/7/129
f 173/8/130 171/9/131 147/7/129
f 169/10/132 147/7/129 171/9/131
f 170/11/133 169/10/132 171/9/131
f 171/9/131 172/12/134 170/11/133
f 172/12/134 175/13/135 170/11/133
f 175/13/135 176/14/136 170/11/133
f 176/14/136 177/15/137 170/11/133
f 168/16/138 170/11/133 177/15/137
f 177/15/137 128/17/139 168/16/138
f 126/18/140 168/16/138 128/17/139
f 128/17/139 127/19/141 126/18/140
f 125/20/142 126/18/140 127/19/141
f 129/21/143 125/20/142 127/19/141
f 127/19/141 130/22/144 129/21/143
f 160/23/145 129/21/143 130/22/144
f 130/22/144 163/24/146 160/23/145
f 163/24/146 161/25/146 160/23/145
f 159/26/147 160/23/145 161/25/146
f 157/27/148 159/26/147 161/25/146
f 161/25/146 162/28/149 157/27/148
f 162/28/149 164/29/150 157/27/148
f 158/30/151 157/27/148 164/29/150
f 164/29/150 165/31/152 158/30/151
f 135/32/153 158/30/151 165/31/152
f 165/31/152 132/33/154 135/32/153
f 131/34/155 135/32/153 132/33/154
f 133/35/156 131/34/155 132/33/154
f 132/33/154 134/36/157 133/35/156
f 180/37/158 133/35/156 134/36/157
f 134/36/157 186/38/157 180/37/158
f 186/38/157 184/39/159 180/37/158
f 181/40/160 180/37/158 184/39/159
f 182/41/161 181/40/160 184/39/159
f 184/39/159 185/42/162 182/41/161
f 179/43/163 181/40/160 182/41/161
f 182/41/161 183/44/164 179/43/163
f 183/44/164 152/45/165 179/43/163
f 151/46/166 179/43/163 152/45/165
f 152/45/165 149/47/167 151/46/166
f 150/48/168 151/46/166 149/47/167
f 145/49/169 150/48/168 149/47/167
f 149/47/167 148/50/170 145/49/169
f 148/50/170 139/1/123 145/49/169
f 139/1/123 140/4/126 145/49/169
f 140/4/126 146/5/127 145/49/169
f 141/51/171 145/49/169 146/5/127
f 142/52/172 141/51/171 146/5/127
f 146/5/127 147/7/129 142/52/172
f 147/7/129 169/10/132 142/52/172
f 167/53/173 142/52/172 169/10/132
f 168/16/138 167/53/173 169/10/132
f 169/10/132 170/11/133 168/16/138
f 167/53/173 168/16/138 126/18/140
f 166/54/174 167/53/173 126/18/140
f 129/21/143 166/54/174 126/18/140
f 126/18/140 125/20/142 129/21/143
f 144/55/175 166/54/174 129/21/143
f 129/21/143 160/23/145 144/55/175
f 143/56/176 144/55/175 160/23/145
f 160/23/145 159/26/147 143/56/176
f 159/26/147 157/27/148 143/56/176
f 155/57/177 143/56/176 157/27/148
f 156/58/178 155/57/177 157/27/148
f 157/27/148 158/30/151 156/58/178
f 158/30/151 135/32/153 156/58/178
f 136/59/179 156/58/178 135/32/153
f 133/35/156 136/59/179 135/32/153
f 135/32/153 131/34/155 133/35/156
f 136/59/179 133/35/156 180/37/158
f 178/60/180 136/59/179 180/37/158
f 179/43/163 178/60/180 180/37/158
f 180/37/158 181/40/160 179/43/163
f 154/61/181 178/60/180 179/43/163
f 179/43/163 151/46/166 154/61/181
f 153/62/182 154/61/181 151/46/166
f 151/46/166 150/48/168 153/62/182
f 150/48/168 145/49/169 153/62/182
f 145/49/169 141/51/171 153/62/182
f 155/57/177 153/62/182 141/51/171
f 143/56/176 155/57/177 141/51/171
f 141/51/171 142/52/172 143/56/176
f 144/55/175 143/56/176 142/52/172
f 142/52/172 167/53/173 144/55/175
f 166/54/174 144/55/175 167/53/173
f 154/61/181 153/62/182 155/57/177
f 155/57/177 156/58/178 154/61/181
f 156/58/178 136/59/179 154/61/181
f 178/60/180 154/61/181 136/59/179
f 201/1/123 199/2/124 200/3/125
f 202/4/183 201/1/123 200/3/125
f 208/5/127 202/4/183 200/3/125
f 200/3/125 236/6/128 208/5/127
f 209/7/129 208/5/127 236/6/128
f 236/6/128 235/8/130 209/7/129
f 235/8/130 233/9/131 209/7/129
f 231/10/132 209/7/129 233/9/131
f 232/11/133 231/10/132 233/9/131
f 233/9/131 234/12/134 232/11/133
f 234/12/134 237/13/135 232/11/133
f 237/13/135 238/14/136 232/11/133
f 238/14/136 239/15/137 232/11/133
f 230/16/138 232/11/133 239/15/137
f 239/15/137 190/17/139 230/16/138
f 188/18/140 230/16/138 190/17/139
f 190/17/139 189/19/141 188/18/140
f 187/20/142 188/18/140 189/19/141
f 191/21/143 187/20/142 189/19/141
f 189/19/141 192/22/144 191/21/143
f 222/23/145 191/21/143 192/22/144
f 192/22/144 225/24/146 222/23/145
f 225/24/146 223/25/146 222/23/145
f 221/26/147 222/23/145 223/25/146
f 219/27/148 221/26/147 223/25/146
f 223/25/146 224/28/184 219/27/148
f 224/28/184 226/29/150 219/27/148
f 220/30/151 219/27/148 226/29/150
f 226/29/150 227/31/152 220/30/151
f 197/32/153 220/30/151 227/31/152
f 227/31/152 194/33/154 197/32/153
f 193/34/155 197/32/153 194/33/154
f 195/35/156 193/34/155 194/33/154
f 194/33/154 196/36/157 195/35/156
f 242/37/185 195/35/156 196/36/157
f 196/36/157 248/38/157 242/37/185
f 248/38/157 246/39/157 242/37/185
f 243/40/160 242/37/185 246/39/157
f 244/41/161 243/40/160 246/39/157
f 246/39/157 247/42/162 244/41/161
f 241/43/163 243/40/160 244/41/161
f 244/41/161 245/44/164 241/43/163
f 245/44/164 214/45/165 241/43/163
f 213/46/166 241/43/163 214/45/165
f 214/45/165 211/47/167 213/46/166
f 212/48/168 213/46/166 211/47/167
f 207/49/169 212/48/168 211/47/167
f 211/47/167 210/50/170 207/49/169
f 210/50/170 201/1/123 207/49/169
f 201/1/123 202/4/183 207/49/169
f 202/4/183 208/5/127 207/49/169
f 203/51/171 207/49/169 208/5/127
f 204/52/172 203/51/171 208/5/127
f 208/5/127 209/7/129 204/52/172
f 209/7/129 231/10/132 204/52/172
f 229/53/173 204/52/172 231/10/132
f 230/16/138 229/53/173 231/10/132
f 231/10/132 232/11/133 230/16/138
f 229/53/173 230/16/138 188/18/140
f 228/54/174 229/53/173 188/18/140
f 191/21/143 228/54/174 188/18/140
f 188/18/140 187/20/142 191/21/143
f 206/55/175 228/54/174 191/21/143
f 191/21/143 222/23/145 206/55/175
f 205/56/176 206/55/175 222/23/145
f 222/23/145 221/26/147 205/56/176
f 221/26/147 219/27/148 205/56/176
f 217/57/177 205/56/176 219/27/148
f 218/58/178 217/57/177 219/27/148
f 219/27/148 220/30/151 218/58/178
f 220/30/151 197/32/153 218/58/178
f 198/59/179 218/58/178 197/32/153
f 195/35/156 198/59/179 197/32/153
f 197/32/153 193/34/155 195/35/156
f 198/59/179 195/35/156 242/37/185
f 240/60/180 198/59/179 242/37/185
f 241/43/163 240/60/180 242/37/185
f 242/37/185 243/40/160 241/43/163
f 216/61/181 240/60/180 241/43/163
f 241/43/163 213/46/166 216/61/181
f 215/62/186 216/61/181 213/46/166
f 213/46/166 212/48/168 215/62/186
f 212/48/168 207/49/169 215/62/186
f 207/49/169 203/51/171 215/62/186
f 217/57/177 215/62/186 203/51/171
f 205/56/176 217/57/177 203/51/171
f 203/51/171 204/52/172 205/56/176
f 206/55/175 205/56/176 204/52/172
f 204/52/172 229/53/173 206/55/175
f 228/54/174 206/55/175 229/53/173
f 216/61/181 215/62/186 217/57/177
f 217/57/177 218/58/178 216/61/181
f 218/58/178 198/59/179 216/61/181
f 240/60/180 216/61/181 198/59/179
f 250/63/187 251/64/188 249/65/189
f 249/65/189 265/66/190 250/63/187
f 265/66/190 264/67/191 250/63/187
f 264/67/191 263/68/192 250/63/187
f 263/68/192 262/69/193 250/63/187
f 262/69/193 261/70/194 250/63/187
f 261/70/194 260/71/195 250/63/187
f 260/71/195 259/72/196 250/63/187
f 259/72/196 258/73/197 250/63/187
f 258/73/197 257/74/198 250/63/187
f 257/74/198 256/75/199 250/63/187
f 256/75/199 255/76/200 250/63/187
f 255/76/200 254/77/201 250/63/187
f 254/77/201 253/78/202 250/63/187
f 253/78/202 252/79/203 250/63/187
f 251/64/188 250/63/187 252/79/203
f 267/63/187 268/64/204 266/65/205
f 266/65/205 282/66/190 267/63/187
f 282/66/190 281/67/206 267/63/187
f 281/67/206 280/68/207 267/63/187
f 280/68/207 279/69/193 267/63/187
f 279/69/193 278/70/194 267/63/187
f 278/70/194 277/71/208 267/63/187
f 277/71/208 276/72/196 267/63/187
f 276/72/196 275/73/209 267/63/187
f 275/73/209 274/74/198 267/63/187
f 274/74/198 273/75/210 267/63/187
f 273/75/210 272/76/200 267/63/187
f 272/76/200 271/77/211 267/63/187
f 271/77/211 270/78/212 267/63/187
f 270/78/212 269/79/213 267/63/187
f 268/64/204 267/63/187 269/79/213
f 284/63/187 285/64/214 283/65/215
f 283/65/215 299/66/216 284/63/187
f 299/66/216 298/67/217 284/63/187
f 298/67/217 297/68/218 284/63/187
f 297/68/218 296/69/219 284/63/187
f 296/69/219 295/70/220 284/63/187
f 295/70/220 294/71/221 284/63/187
f 294/71/221 293/72/222 284/63/187
f 293/72/222 292/73/223 284/63/187
f 292/73/223 291/74/224 284/63/187
f 291/74/224 290/75/225 284/63/187
f 290/75/225 289/76/226 284/63/187
f 289/76/226 288/77/227 284/63/187
f 288/77/227 287/78/228 284/63/187
f 287/78/228 286/79/229 284/63/187
f 285/64/214 284/63/187 286/79/229
