# Blender 4.5.3 LTS
# www.blender.org
mtllib w9a02_metal159.mtl
o w9a02_metal159
v -4.488329 0.681774 3.295557
v -4.469954 0.681774 3.251207
v -4.488541 0.076205 3.295645
v -4.470041 0.076205 3.250995
v -5.242524 0.681775 3.607870
v -4.488329 0.681774 3.295557
v -5.515648 0.076205 3.720971
v -4.488541 0.076205 3.295645
v -5.181177 0.681774 1.533697
v -5.225527 0.681774 1.515321
v -5.181089 0.076205 1.533909
v -5.225739 0.076205 1.515409
v -5.515867 0.855242 3.721061
v -5.378534 0.855242 3.664191
v -5.515648 0.076205 3.720971
v -5.242524 0.681775 3.607870
v -5.515867 0.855242 3.721061
v -5.515648 0.076205 3.720971
v -5.560207 0.855242 3.702690
v -5.560297 0.076205 3.702471
v -5.979722 0.681774 1.827634
v -6.252845 0.076204 1.940735
v -5.225527 0.681774 1.515321
v -5.225739 0.076205 1.515409
v -6.271345 0.076204 1.985385
v -6.271436 0.855242 1.985166
v -5.560297 0.076205 3.702471
v -5.560207 0.855242 3.702690
v -6.271345 0.076204 1.985385
v -6.252845 0.076204 1.940735
v -6.271436 0.855242 1.985166
v -6.253065 0.855242 1.940826
v -5.979722 0.681774 1.827634
v -6.115732 0.855242 1.883956
v -6.252845 0.076204 1.940735
v -6.253065 0.855242 1.940826
v -4.488319 0.698745 3.251212
v -5.194170 0.698745 1.546677
v -4.469954 0.681774 3.251207
v -5.181177 0.681774 1.533697
v -4.501309 0.698745 3.282564
v -4.488319 0.698745 3.251212
v -4.488329 0.681774 3.295557
v -4.469954 0.681774 3.251207
v -5.239443 0.698745 3.588226
v -4.501309 0.698745 3.282564
v -5.242524 0.681775 3.607870
v -4.488329 0.681774 3.295557
v -5.225522 0.698745 1.533687
v -5.194170 0.698745 1.546677
v -4.501309 0.698745 3.282564
v -4.488319 0.698745 3.251212
v -5.225527 0.681774 1.515321
v -5.181177 0.681774 1.533697
v -5.225522 0.698745 1.533687
v -5.194170 0.698745 1.546677
v -5.239443 0.698745 3.588226
v -5.963655 0.698745 1.839349
v -4.501309 0.698745 3.282564
v -5.378534 0.855242 3.664191
v -5.377851 0.872211 3.645542
v -5.242524 0.681775 3.607870
v -5.239443 0.698745 3.588226
v -5.378534 0.855242 3.664191
v -5.515867 0.855242 3.721061
v -5.377851 0.872211 3.645542
v -5.515865 0.872211 3.702694
v -5.515867 0.855242 3.721061
v -5.560207 0.855242 3.702690
v -5.515865 0.872211 3.702694
v -5.547218 0.872211 3.689704
v -5.979722 0.681774 1.827634
v -5.225527 0.681774 1.515321
v -5.963655 0.698745 1.839349
v -5.225522 0.698745 1.533687
v -5.239443 0.698745 3.588226
v -5.377851 0.872211 3.645542
v -5.963655 0.698745 1.839349
v -6.102064 0.872211 1.896662
v -6.240078 0.872211 1.953814
v -6.102064 0.872211 1.896662
v -5.515865 0.872211 3.702694
v -5.377851 0.872211 3.645542
v -5.547218 0.872211 3.689704
v -6.253069 0.872211 1.985168
v -5.515865 0.872211 3.702694
v -6.240078 0.872211 1.953814
v -5.560207 0.855242 3.702690
v -6.271436 0.855242 1.985166
v -5.547218 0.872211 3.689704
v -6.253069 0.872211 1.985168
v -6.271436 0.855242 1.985166
v -6.253065 0.855242 1.940826
v -6.253069 0.872211 1.985168
v -6.240078 0.872211 1.953814
v -5.963655 0.698745 1.839349
v -6.102064 0.872211 1.896662
v -5.979722 0.681774 1.827634
v -6.115732 0.855242 1.883956
v -6.102064 0.872211 1.896662
v -6.240078 0.872211 1.953814
v -6.115732 0.855242 1.883956
v -6.253065 0.855242 1.940826
v -4.850158 0.129080 2.467776
v -4.564261 0.129080 3.158178
v -4.850158 0.493169 2.467776
v -4.564261 0.493169 3.158178
v -4.564261 0.129080 3.158178
v -4.558246 0.133293 3.172705
v -4.564261 0.493169 3.158178
v -4.558246 0.488956 3.172705
v -4.558246 0.133293 3.172705
v -4.553842 0.144803 3.183340
v -4.558246 0.488956 3.172705
v -4.553842 0.477445 3.183340
v -4.553842 0.144803 3.183340
v -4.552230 0.160527 3.187233
v -4.553842 0.477445 3.183340
v -4.552230 0.461722 3.187233
v -4.850158 0.129080 2.467776
v -4.850158 0.493169 2.467776
v -4.856174 0.133293 2.453249
v -4.856174 0.488956 2.453249
v -4.856174 0.488956 2.453249
v -4.860577 0.477445 2.442615
v -4.856174 0.133293 2.453249
v -4.860577 0.144803 2.442615
v -4.860577 0.477445 2.442615
v -4.862189 0.461722 2.438722
v -4.860577 0.144803 2.442615
v -4.862189 0.160527 2.438722
v -4.500066 0.463286 3.178488
v -4.502149 0.483594 3.173460
v -4.506494 0.462180 3.172059
v -4.508244 0.479246 3.167834
v -4.506494 0.462180 3.172059
v -4.508244 0.479246 3.167834
v -4.515585 0.461722 3.172058
v -4.517198 0.477445 3.168165
v -4.515585 0.160527 3.172058
v -4.506494 0.160069 3.172059
v -4.506494 0.160069 3.172059
v -4.500066 0.158963 3.178488
v -4.508274 0.499605 3.158667
v -4.513152 0.492075 3.155981
v -4.513152 0.492075 3.155981
v -4.521601 0.488956 3.157531
v -4.516044 0.505047 3.139904
v -4.519681 0.496648 3.140213
v -4.519681 0.496648 3.140213
v -4.527617 0.493169 3.143004
v -4.803137 0.505047 2.446613
v -4.805929 0.496648 2.448965
v -4.805929 0.496648 2.448965
v -4.813513 0.493169 2.452602
v -4.810907 0.499605 2.427849
v -4.812458 0.492075 2.433197
v -4.812458 0.492075 2.433197
v -4.819529 0.488956 2.438075
v -4.817033 0.483594 2.413056
v -4.817366 0.479246 2.421345
v -4.817366 0.479246 2.421345
v -4.823933 0.477445 2.427440
v -4.819115 0.463286 2.408028
v -4.819116 0.462180 2.417120
v -4.819116 0.462180 2.417120
v -4.825544 0.461722 2.423548
v -4.819115 0.158963 2.408028
v -4.819116 0.160069 2.417120
v -4.819116 0.160069 2.417120
v -4.825544 0.160527 2.423548
v -4.817033 0.138655 2.413056
v -4.817366 0.143003 2.421345
v -4.817366 0.143003 2.421345
v -4.823933 0.144803 2.427440
v -4.810907 0.122643 2.427849
v -4.812458 0.130174 2.433197
v -4.812458 0.130174 2.433197
v -4.819529 0.133293 2.438075
v -4.803137 0.117202 2.446613
v -4.805929 0.125601 2.448965
v -4.805929 0.125601 2.448965
v -4.813513 0.129080 2.452602
v -4.516044 0.117202 3.139904
v -4.519681 0.125601 3.140213
v -4.519681 0.125601 3.140213
v -4.527617 0.129080 3.143004
v -4.508274 0.122643 3.158667
v -4.513152 0.130174 3.155981
v -4.513152 0.130174 3.155981
v -4.521601 0.133293 3.157531
v -4.502149 0.138655 3.173460
v -4.508244 0.143003 3.167834
v -4.513152 0.130174 3.155981
v -4.508244 0.143003 3.167834
v -4.521601 0.133293 3.157531
v -4.517198 0.144803 3.168165
v -4.500066 0.463286 3.178488
v -4.469954 0.681774 3.251207
v -4.502149 0.483594 3.173460
v -4.470041 0.076205 3.250995
v -4.469954 0.681774 3.251207
v -4.500066 0.158963 3.178488
v -4.500066 0.463286 3.178488
v -4.552230 0.461722 3.187233
v -4.552230 0.160527 3.187233
v -4.553842 0.477445 3.183340
v -4.553842 0.144803 3.183340
v -4.558246 0.488956 3.172705
v -4.850158 0.129080 2.467776
v -4.856174 0.133293 2.453249
v -4.564261 0.129080 3.158178
v -4.558246 0.133293 3.172705
v -4.558246 0.133293 3.172705
v -4.564261 0.493169 3.158178
v -4.850158 0.493169 2.467776
v -4.856174 0.488956 2.453249
v -4.860577 0.477445 2.442615
v -4.862189 0.461722 2.438722
v -4.862189 0.160527 2.438722
v -4.860577 0.144803 2.442615
v -5.181177 0.681774 1.533697
v -4.819115 0.463286 2.408028
v -4.817033 0.483594 2.413056
v -5.181177 0.681774 1.533697
v -5.181089 0.076205 1.533909
v -4.819115 0.463286 2.408028
v -4.819115 0.158963 2.408028
v -5.181177 0.681774 1.533697
v -4.810907 0.499605 2.427849
v -4.803137 0.505047 2.446613
v -5.181177 0.681774 1.533697
v -4.817033 0.483594 2.413056
v -4.810907 0.499605 2.427849
v -4.817033 0.138655 2.413056
v -4.819115 0.158963 2.408028
v -5.181089 0.076205 1.533909
v -4.810907 0.122643 2.427849
v -4.817033 0.138655 2.413056
v -5.181089 0.076205 1.533909
v -4.803137 0.117202 2.446613
v -4.810907 0.122643 2.427849
v -5.181089 0.076205 1.533909
v -4.470041 0.076205 3.250995
v -4.500066 0.158963 3.178488
v -4.502149 0.138655 3.173460
v -4.470041 0.076205 3.250995
v -4.516044 0.117202 3.139904
v -5.181089 0.076205 1.533909
v -4.803137 0.117202 2.446613
v -4.470041 0.076205 3.250995
v -4.508274 0.122643 3.158667
v -4.516044 0.117202 3.139904
v -4.470041 0.076205 3.250995
v -4.502149 0.138655 3.173460
v -4.508274 0.122643 3.158667
v -4.469954 0.681774 3.251207
v -5.181177 0.681774 1.533697
v -4.516044 0.505047 3.139904
v -4.803137 0.505047 2.446613
v -4.469954 0.681774 3.251207
v -4.508274 0.499605 3.158667
v -4.502149 0.483594 3.173460
v -4.469954 0.681774 3.251207
v -4.516044 0.505047 3.139904
v -4.508274 0.499605 3.158667
v -5.278406 0.715283 2.735801
v -5.473841 0.715304 2.816733
v -5.278410 0.681211 2.735803
v -5.473845 0.681233 2.816735
v -5.251542 0.715304 3.353557
v -5.056107 0.715284 3.272624
v -5.251546 0.681233 3.353558
v -5.056111 0.681211 3.272626
v -5.486774 0.715306 2.847949
v -5.282757 0.715306 3.340624
v -5.486778 0.681235 2.847950
v -5.282761 0.681235 3.340625
v -5.043174 0.715281 3.241409
v -5.247191 0.715281 2.748734
v -5.043178 0.681209 3.241410
v -5.247195 0.681209 2.748736
v -5.056107 0.715284 3.272624
v -5.251542 0.715304 3.353557
v -5.043174 0.715281 3.241409
v -5.282757 0.715306 3.340624
v -5.247195 0.681209 2.748736
v -5.247191 0.715281 2.748734
v -5.278410 0.681211 2.735803
v -5.278406 0.715283 2.735801
v -5.056111 0.681211 3.272626
v -5.056107 0.715284 3.272624
v -5.043178 0.681209 3.241410
v -5.043174 0.715281 3.241409
v -5.473845 0.681233 2.816735
v -5.473841 0.715304 2.816733
v -5.486778 0.681235 2.847950
v -5.486774 0.715306 2.847949
v -5.282761 0.681235 3.340625
v -5.282757 0.715306 3.340624
v -5.251546 0.681233 3.353558
v -5.251542 0.715304 3.353557
v -5.282757 0.715306 3.340624
v -5.486774 0.715306 2.847949
v -5.043174 0.715281 3.241409
v -5.247191 0.715281 2.748734
v -5.486774 0.715306 2.847949
v -5.473841 0.715304 2.816733
v -5.247191 0.715281 2.748734
v -5.278406 0.715283 2.735801
v -4.811380 0.272993 2.473385
v -4.811360 0.423228 2.473378
v -4.842859 0.272996 2.486420
v -4.842839 0.423231 2.486413
v -4.653477 0.423228 2.854646
v -4.653496 0.272993 2.854652
v -4.684956 0.423231 2.867682
v -4.684976 0.272996 2.867688
v -4.804866 0.440197 2.489055
v -4.659967 0.440197 2.838967
v -4.836345 0.440200 2.502090
v -4.691446 0.440200 2.852003
v -4.659991 0.256024 2.838975
v -4.804890 0.256024 2.489063
v -4.691471 0.256027 2.852011
v -4.836370 0.256027 2.502099
v -4.653496 0.272993 2.854652
v -4.653477 0.423228 2.854646
v -4.659991 0.256024 2.838975
v -4.659967 0.440197 2.838967
v -4.836370 0.256027 2.502099
v -4.804890 0.256024 2.489063
v -4.842859 0.272996 2.486420
v -4.811380 0.272993 2.473385
v -4.684976 0.272996 2.867688
v -4.653496 0.272993 2.854652
v -4.691471 0.256027 2.852011
v -4.659991 0.256024 2.838975
v -4.842839 0.423231 2.486413
v -4.811360 0.423228 2.473378
v -4.836345 0.440200 2.502090
v -4.804866 0.440197 2.489055
v -4.691446 0.440200 2.852003
v -4.659967 0.440197 2.838967
v -4.684956 0.423231 2.867682
v -4.653477 0.423228 2.854646
v -4.659967 0.440197 2.838967
v -4.804866 0.440197 2.489055
v -4.659991 0.256024 2.838975
v -4.804890 0.256024 2.489063
v -4.804866 0.440197 2.489055
v -4.811360 0.423228 2.473378
v -4.804890 0.256024 2.489063
v -4.811380 0.272993 2.473385
v -6.321345 1.198977 1.346501
v -6.321345 1.198977 -1.346501
v -5.321728 0.835146 1.346501
v -5.321728 0.835146 -1.346501
v -6.321345 1.198977 1.346501
v -5.321728 0.835146 1.346501
v -6.287407 1.186625 1.380439
v -5.355666 0.847498 1.380439
v -6.321345 1.198977 -1.346501
v -6.287407 1.186624 -1.380439
v -5.321728 0.835146 -1.346501
v -5.355666 0.847498 -1.380439
v -5.260358 0.270738 -0.523100
v -5.260338 0.420973 -0.523099
v -5.294431 0.270741 -0.523100
v -5.294409 0.420976 -0.523099
v -5.260338 0.420972 -0.262890
v -5.260358 0.270738 -0.262892
v -5.294409 0.420975 -0.262890
v -5.294431 0.270741 -0.262892
v -5.260335 0.437941 -0.506130
v -5.260335 0.437941 -0.279859
v -5.294407 0.437944 -0.506130
v -5.294407 0.437944 -0.279859
v -5.260361 0.253769 -0.279861
v -5.260361 0.253769 -0.506131
v -5.294433 0.253772 -0.279861
v -5.294433 0.253772 -0.506131
v -5.260358 0.270738 -0.262892
v -5.260338 0.420972 -0.262890
v -5.260361 0.253769 -0.279861
v -5.260335 0.437941 -0.279859
v -5.294433 0.253772 -0.506131
v -5.260361 0.253769 -0.506131
v -5.294431 0.270741 -0.523100
v -5.260358 0.270738 -0.523100
v -5.294431 0.270741 -0.262892
v -5.260358 0.270738 -0.262892
v -5.294433 0.253772 -0.279861
v -5.260361 0.253769 -0.279861
v -5.294409 0.420976 -0.523099
v -5.260338 0.420973 -0.523099
v -5.294407 0.437944 -0.506130
v -5.260335 0.437941 -0.506130
v -5.294407 0.437944 -0.279859
v -5.260335 0.437941 -0.279859
v -5.294409 0.420975 -0.262890
v -5.260338 0.420972 -0.262890
v -5.260335 0.437941 -0.279859
v -5.260335 0.437941 -0.506130
v -5.260361 0.253769 -0.279861
v -5.260361 0.253769 -0.506131
v -5.260335 0.437941 -0.506130
v -5.260338 0.420973 -0.523099
v -5.260361 0.253769 -0.506131
v -5.260358 0.270738 -0.523100
v -5.260358 0.362707 0.702258
v -5.260338 0.512942 0.702259
v -5.294431 0.362710 0.702258
v -5.294409 0.512945 0.702259
v -5.260338 0.512942 1.114924
v -5.260358 0.362707 1.114922
v -5.294409 0.512945 1.114924
v -5.294431 0.362710 1.114922
v -5.260335 0.529911 0.719228
v -5.260335 0.529911 1.097955
v -5.294407 0.529914 0.719228
v -5.294407 0.529914 1.097955
v -5.260361 0.345738 1.097953
v -5.260361 0.345738 0.719226
v -5.294433 0.345741 1.097953
v -5.294433 0.345741 0.719226
v -5.260358 0.362707 1.114922
v -5.260338 0.512942 1.114924
v -5.260361 0.345738 1.097953
v -5.260335 0.529911 1.097955
v -5.294433 0.345741 0.719226
v -5.260361 0.345738 0.719226
v -5.294431 0.362710 0.702258
v -5.260358 0.362707 0.702258
v -5.294431 0.362710 1.114922
v -5.260358 0.362707 1.114922
v -5.294433 0.345741 1.097953
v -5.260361 0.345738 1.097953
v -5.294409 0.512945 0.702259
v -5.260338 0.512942 0.702259
v -5.294407 0.529914 0.719228
v -5.260335 0.529911 0.719228
v -5.294407 0.529914 1.097955
v -5.260335 0.529911 1.097955
v -5.294409 0.512945 1.114924
v -5.260338 0.512942 1.114924
v -5.260335 0.529911 1.097955
v -5.260335 0.529911 0.719228
v -5.260361 0.345738 1.097953
v -5.260361 0.345738 0.719226
v -5.260335 0.529911 0.719228
v -5.260338 0.512942 0.702259
v -5.260361 0.345738 0.719226
v -5.260358 0.362707 0.702258
v -5.267699 0.564226 -1.626774
v -5.263295 0.575737 -1.637409
v -5.184801 0.564226 -1.826961
v -5.189205 0.575737 -1.816326
v -5.162708 0.215861 -1.788336
v -5.156693 0.220074 -1.802863
v -5.154773 0.212382 -1.785546
v -5.148244 0.216955 -1.801314
v -5.154773 0.212382 -1.785546
v -5.148244 0.216955 -1.801314
v -5.151136 0.203983 -1.785236
v -5.143366 0.209424 -1.804000
v -5.214391 0.203983 -1.632483
v -5.217182 0.212382 -1.634836
v -5.217182 0.212382 -1.634836
v -5.224767 0.215861 -1.638472
v -5.222161 0.209424 -1.613720
v -5.223712 0.216955 -1.619068
v -5.223712 0.216955 -1.619068
v -5.230783 0.220074 -1.623945
v -5.228287 0.225436 -1.598927
v -5.228620 0.229784 -1.607216
v -5.223712 0.216955 -1.619068
v -5.228620 0.229784 -1.607216
v -5.230783 0.220074 -1.623945
v -5.235187 0.231584 -1.613311
v -5.230369 0.245744 -1.593899
v -5.230370 0.246850 -1.602991
v -5.230370 0.246850 -1.602991
v -5.236799 0.247308 -1.609418
v -5.230369 0.550067 -1.593899
v -5.230370 0.548961 -1.602991
v -5.230370 0.548961 -1.602991
v -5.236799 0.548503 -1.609418
v -5.228287 0.570375 -1.598927
v -5.228620 0.566027 -1.607216
v -5.228620 0.566027 -1.607216
v -5.235187 0.564226 -1.613311
v -5.222161 0.586386 -1.613720
v -5.223712 0.578856 -1.619068
v -5.223712 0.578856 -1.619068
v -5.230783 0.575737 -1.623945
v -5.214391 0.591828 -1.632483
v -5.217182 0.583429 -1.634836
v -5.217182 0.583429 -1.634836
v -5.224767 0.579950 -1.638472
v -5.151136 0.591828 -1.785236
v -5.154773 0.583429 -1.785546
v -5.154773 0.583429 -1.785546
v -5.162708 0.579950 -1.788336
v -5.143366 0.586386 -1.804000
v -5.148244 0.578856 -1.801314
v -5.148244 0.578856 -1.801314
v -5.156693 0.575737 -1.802863
v -5.137240 0.570375 -1.818793
v -5.143335 0.566027 -1.813166
v -5.143335 0.566027 -1.813166
v -5.152289 0.564226 -1.813498
v -5.135158 0.550067 -1.823820
v -5.141586 0.548961 -1.817391
v -5.141586 0.548961 -1.817391
v -5.150677 0.548503 -1.817390
v -5.135158 0.245744 -1.823820
v -5.141586 0.246850 -1.817391
v -5.141586 0.246850 -1.817391
v -5.150677 0.247308 -1.817390
v -5.137240 0.225436 -1.818793
v -5.143335 0.229784 -1.813166
v -5.143335 0.229784 -1.813166
v -5.152289 0.231584 -1.813498
v -5.257883 0.149792 -1.527457
v -5.257923 0.643628 -1.527359
v -5.269311 0.548503 -1.622882
v -5.269311 0.247308 -1.622882
v -5.267699 0.564226 -1.626774
v -5.267699 0.231584 -1.626774
v -5.263295 0.575737 -1.637409
v -5.195220 0.215861 -1.801799
v -5.189205 0.220074 -1.816326
v -5.257279 0.215861 -1.651936
v -5.263295 0.220074 -1.637409
v -5.263295 0.220074 -1.637409
v -5.257279 0.579950 -1.651936
v -5.195220 0.579950 -1.801799
v -5.189205 0.575737 -1.816326
v -5.184801 0.564226 -1.826961
v -5.183189 0.548503 -1.830853
v -5.183189 0.247308 -1.830853
v -5.184801 0.231584 -1.826961
v -4.431613 0.643628 -3.522788
v -4.431654 0.149792 -3.522690
v -5.302268 0.643628 -1.508986
v -5.257923 0.643628 -1.527359
v -5.302366 0.149792 -1.509026
v -5.257883 0.149792 -1.527457
v -5.880871 0.643628 -1.748586
v -5.302268 0.643628 -1.508986
v -5.302366 0.149792 -1.509026
v -6.329708 0.149792 -1.934450
v -5.906449 0.651674 -1.759178
v -5.302366 0.149792 -1.509026
v -5.880871 0.643628 -1.748586
v -4.431613 0.643628 -3.522788
v -4.449987 0.643628 -3.567133
v -4.431654 0.149792 -3.522690
v -4.450085 0.149792 -3.567173
v -6.329708 0.149792 -1.934450
v -6.329807 0.929331 -1.934491
v -5.906449 0.651674 -1.759178
v -6.310526 0.929332 -1.926507
v -6.348180 0.929331 -1.978834
v -6.329807 0.929331 -1.934491
v -6.348138 0.149792 -1.978934
v -6.329708 0.149792 -1.934450
v -4.450085 0.149792 -3.567173
v -5.028590 0.643628 -3.806733
v -5.477427 0.149792 -3.992597
v -5.054168 0.651674 -3.817325
v -5.521911 0.149792 -3.974166
v -5.521869 0.929331 -3.974266
v -6.348138 0.149792 -1.978934
v -6.348180 0.929331 -1.978834
v -5.477526 0.929331 -3.992638
v -5.521869 0.929331 -3.974266
v -5.477427 0.149792 -3.992597
v -5.521911 0.149792 -3.974166
v -4.450085 0.149792 -3.567173
v -4.449987 0.643628 -3.567133
v -5.028590 0.643628 -3.806733
v -5.054168 0.651674 -3.817325
v -5.458245 0.929332 -3.984653
v -5.477427 0.149792 -3.992597
v -5.477526 0.929331 -3.992638
v -5.269311 0.247308 -1.622882
v -5.269311 0.548503 -1.622882
v -5.183189 0.247308 -1.830853
v -5.183189 0.548503 -1.830853
v -5.269311 0.548503 -1.622882
v -5.267699 0.564226 -1.626774
v -5.183189 0.548503 -1.830853
v -5.184801 0.564226 -1.826961
v -5.263295 0.575737 -1.637409
v -5.257279 0.579950 -1.651936
v -5.189205 0.575737 -1.816326
v -5.195220 0.579950 -1.801799
v -5.195220 0.215861 -1.801799
v -5.257279 0.215861 -1.651936
v -5.189205 0.220074 -1.816326
v -5.263295 0.220074 -1.637409
v -5.267699 0.231584 -1.626774
v -5.269311 0.247308 -1.622882
v -5.184801 0.231584 -1.826961
v -5.183189 0.247308 -1.830853
v -5.263295 0.220074 -1.637409
v -5.267699 0.231584 -1.626774
v -5.189205 0.220074 -1.816326
v -5.184801 0.231584 -1.826961
v -4.463994 0.200431 -3.408242
v -4.463975 0.593297 -3.408232
v -4.483611 0.200434 -3.416365
v -4.483591 0.593300 -3.416355
v -4.621860 0.593297 -3.026965
v -4.621877 0.200430 -3.026974
v -4.641475 0.593300 -3.035088
v -4.641494 0.200434 -3.035097
v -4.470466 0.610266 -3.392554
v -4.615366 0.610266 -3.042641
v -4.490082 0.610269 -3.400676
v -4.634981 0.610269 -3.050764
v -4.615387 0.183462 -3.042653
v -4.470489 0.183462 -3.392565
v -4.635004 0.183465 -3.050776
v -4.490105 0.183465 -3.400688
v -4.621877 0.200430 -3.026974
v -4.621860 0.593297 -3.026965
v -4.615387 0.183462 -3.042653
v -4.615366 0.610266 -3.042641
v -4.490105 0.183465 -3.400688
v -4.470489 0.183462 -3.392565
v -4.483611 0.200434 -3.416365
v -4.463994 0.200431 -3.408242
v -4.641494 0.200434 -3.035097
v -4.621877 0.200430 -3.026974
v -4.635004 0.183465 -3.050776
v -4.615387 0.183462 -3.042653
v -4.483591 0.593300 -3.416355
v -4.463975 0.593297 -3.408232
v -4.490082 0.610269 -3.400676
v -4.470466 0.610266 -3.392554
v -4.634981 0.610269 -3.050764
v -4.615366 0.610266 -3.042641
v -4.641475 0.593300 -3.035088
v -4.621860 0.593297 -3.026965
v -4.615366 0.610266 -3.042641
v -4.470466 0.610266 -3.392554
v -4.615387 0.183462 -3.042653
v -4.470489 0.183462 -3.392565
v -4.470466 0.610266 -3.392554
v -4.463975 0.593297 -3.408232
v -4.470489 0.183462 -3.392565
v -4.463994 0.200431 -3.408242
v -4.857717 0.205639 -2.436929
v -4.857699 0.386052 -2.436920
v -4.889197 0.205642 -2.449965
v -4.889178 0.386055 -2.449956
v -5.032234 0.386052 -2.015439
v -5.032253 0.205639 -2.015449
v -5.063713 0.386055 -2.028475
v -5.063733 0.205642 -2.028484
v -4.864189 0.403021 -2.421242
v -5.025739 0.403021 -2.031116
v -4.895667 0.403024 -2.434277
v -5.057219 0.403024 -2.044151
v -5.025763 0.188670 -2.031127
v -4.864211 0.188670 -2.421252
v -5.057242 0.188673 -2.044163
v -4.895691 0.188673 -2.434289
v -5.032253 0.205639 -2.015449
v -5.032234 0.386052 -2.015439
v -5.025763 0.188670 -2.031127
v -5.025739 0.403021 -2.031116
v -4.895691 0.188673 -2.434289
v -4.864211 0.188670 -2.421252
v -4.889197 0.205642 -2.449965
v -4.857717 0.205639 -2.436929
v -5.063733 0.205642 -2.028484
v -5.032253 0.205639 -2.015449
v -5.057242 0.188673 -2.044163
v -5.025763 0.188670 -2.031127
v -4.889178 0.386055 -2.449956
v -4.857699 0.386052 -2.436920
v -4.895667 0.403024 -2.434277
v -4.864189 0.403021 -2.421242
v -5.057219 0.403024 -2.044151
v -5.025739 0.403021 -2.031116
v -5.063713 0.386055 -2.028475
v -5.032234 0.386052 -2.015439
v -5.025739 0.403021 -2.031116
v -4.864189 0.403021 -2.421242
v -5.025763 0.188670 -2.031127
v -4.864211 0.188670 -2.421252
v -4.864189 0.403021 -2.421242
v -4.857699 0.386052 -2.436920
v -4.864211 0.188670 -2.421252
v -4.857717 0.205639 -2.436929
v -5.715183 1.005558 0.260047
v -6.213619 1.187982 0.260048
v -5.726896 0.973562 0.260047
v -6.225332 1.155987 0.260048
v -6.213618 1.187981 1.293532
v -5.715183 1.005558 1.293529
v -6.225333 1.155987 1.293532
v -5.726896 0.973562 1.293529
v -6.237125 1.196587 0.285080
v -6.237125 1.196587 1.268500
v -6.248840 1.164592 0.285080
v -6.248840 1.164592 1.268500
v -5.691677 0.996953 1.268497
v -5.691677 0.996953 0.285078
v -5.703390 0.964958 1.268497
v -5.703390 0.964958 0.285078
v -5.703390 0.964958 0.285078
v -5.691677 0.996953 0.285078
v -5.726896 0.973562 0.260047
v -5.715183 1.005558 0.260047
v -5.726896 0.973562 1.293529
v -5.715183 1.005558 1.293529
v -5.703390 0.964958 1.268497
v -5.691677 0.996953 1.268497
v -6.225332 1.155987 0.260048
v -6.213619 1.187982 0.260048
v -6.248840 1.164592 0.285080
v -6.237125 1.196587 0.285080
v -6.248840 1.164592 1.268500
v -6.237125 1.196587 1.268500
v -6.225333 1.155987 1.293532
v -6.213618 1.187981 1.293532
v -6.237125 1.196587 0.285080
v -6.197373 1.182037 0.302379
v -6.237125 1.196587 1.268500
v -6.197373 1.182037 1.251201
v -6.237125 1.196587 1.268500
v -6.197373 1.182037 1.251201
v -6.213618 1.187981 1.293532
v -6.213618 1.187981 1.293532
v -6.197373 1.182037 1.251201
v -5.715183 1.005558 1.293529
v -5.731429 1.011503 1.251199
v -5.715183 1.005558 1.293529
v -5.731429 1.011503 1.251199
v -5.691677 0.996953 1.268497
v -5.691677 0.996953 1.268497
v -5.731429 1.011503 1.251199
v -5.691677 0.996953 0.285078
v -5.731428 1.011503 0.302377
v -5.691677 0.996953 0.285078
v -5.731428 1.011503 0.302377
v -5.715183 1.005558 0.260047
v -5.715183 1.005558 0.260047
v -5.731428 1.011503 0.302377
v -6.213619 1.187982 0.260048
v -6.197373 1.182037 0.302379
v -6.213619 1.187982 0.260048
v -6.197373 1.182037 0.302379
v -6.237125 1.196587 0.285080
v -6.197373 1.182037 0.302379
v -6.203793 1.164497 0.302379
v -6.197373 1.182037 1.251201
v -6.203793 1.164497 1.251201
v -6.197373 1.182037 1.251201
v -6.203793 1.164497 1.251201
v -5.731429 1.011503 1.251199
v -5.737848 0.993963 1.251199
v -5.731429 1.011503 1.251199
v -5.737848 0.993963 1.251199
v -5.731428 1.011503 0.302377
v -5.737847 0.993963 0.302377
v -5.731428 1.011503 0.302377
v -5.737847 0.993963 0.302377
v -6.197373 1.182037 0.302379
v -6.203793 1.164497 0.302379
v -5.123170 0.715526 -3.714338
v -5.445878 0.937391 -3.848006
v -5.140050 0.686766 -3.721330
v -5.462757 0.908632 -3.854998
v -5.754217 0.937391 -3.103610
v -5.431509 0.715526 -2.969942
v -5.771097 0.908633 -3.110601
v -5.448389 0.686766 -2.976933
v -5.468565 0.947856 -3.836281
v -5.761968 0.947856 -3.127944
v -5.485445 0.919097 -3.843272
v -5.778848 0.919097 -3.134936
v -5.408823 0.705061 -2.981669
v -5.115421 0.705061 -3.690005
v -5.425702 0.676302 -2.988660
v -5.132299 0.676302 -3.696996
v -5.132299 0.676302 -3.696996
v -5.115421 0.705061 -3.690005
v -5.140050 0.686766 -3.721330
v -5.123170 0.715526 -3.714338
v -5.448389 0.686766 -2.976933
v -5.431509 0.715526 -2.969942
v -5.425702 0.676302 -2.988660
v -5.408823 0.705061 -2.981669
v -5.462757 0.908632 -3.854998
v -5.445878 0.937391 -3.848006
v -5.485445 0.919097 -3.843272
v -5.468565 0.947856 -3.836281
v -5.778848 0.919097 -3.134936
v -5.761968 0.947856 -3.127944
v -5.771097 0.908633 -3.110601
v -5.754217 0.937391 -3.103610
v -5.468565 0.947856 -3.836281
v -5.447989 0.930161 -3.813160
v -5.761968 0.947856 -3.127944
v -5.731070 0.930161 -3.129743
v -5.761968 0.947856 -3.127944
v -5.731070 0.930161 -3.129743
v -5.754217 0.937391 -3.103610
v -5.754217 0.937391 -3.103610
v -5.731070 0.930161 -3.129743
v -5.431509 0.715526 -2.969942
v -5.429399 0.722757 -3.004789
v -5.431509 0.715526 -2.969942
v -5.429399 0.722757 -3.004789
v -5.408823 0.705061 -2.981669
v -5.408823 0.705061 -2.981669
v -5.429399 0.722757 -3.004789
v -5.115421 0.705061 -3.690005
v -5.146318 0.722756 -3.688205
v -5.115421 0.705061 -3.690005
v -5.146318 0.722756 -3.688205
v -5.123170 0.715526 -3.714338
v -5.123170 0.715526 -3.714338
v -5.146318 0.722756 -3.688205
v -5.445878 0.937391 -3.848006
v -5.447989 0.930161 -3.813160
v -5.445878 0.937391 -3.848006
v -5.447989 0.930161 -3.813160
v -5.468565 0.947856 -3.836281
v -5.447989 0.930161 -3.813160
v -5.457241 0.914395 -3.816993
v -5.731070 0.930161 -3.129743
v -5.740322 0.914395 -3.133575
v -5.731070 0.930161 -3.129743
v -5.740322 0.914395 -3.133575
v -5.429399 0.722757 -3.004789
v -5.438651 0.706990 -3.008621
v -5.429399 0.722757 -3.004789
v -5.438651 0.706990 -3.008621
v -5.146318 0.722756 -3.688205
v -5.155570 0.706990 -3.692037
v -5.146318 0.722756 -3.688205
v -5.155570 0.706990 -3.692037
v -5.447989 0.930161 -3.813160
v -5.457241 0.914395 -3.816993
vn -0.9235 -0.0002 0.3837
vn -0.9243 0.0001 0.3816
vn -0.9242 0.0008 0.3818
vn -0.9238 0.0007 0.3830
vn -0.9237 -0.0002 0.3831
vn -0.9241 -0.0006 0.3822
vn 0.9242 -0.0000 -0.3818
vn 0.9242 -0.0000 -0.3819
vn -0.9237 0.0005 0.3832
vn -0.9236 -0.0003 0.3833
vn -0.9242 -0.0006 0.3819
vn -0.9237 0.0001 0.3831
vn -0.9238 -0.0007 0.3828
vn -0.9240 0.0005 0.3824
vn -0.9235 0.0001 0.3836
vn -0.9236 -0.0008 0.3834
vn -0.9243 0.0007 0.3818
vn -0.9236 0.0001 0.3834
vn -0.9236 -0.0002 0.3833
vn -0.9243 0.0005 0.3818
vn -0.9239 0.0001 0.3826
vn -0.9236 0.0003 0.3833
vn -0.9237 -0.0008 0.3830
vn -0.9243 -0.0002 0.3818
vn 0.9241 -0.0000 -0.3821
vn 0.9240 -0.0000 -0.3823
vn -0.9241 -0.0007 0.3821
vn -0.9241 0.0007 0.3822
vn -0.9236 0.0006 0.3833
vn -0.9238 0.0010 -0.3830
vn -0.9240 -0.0009 -0.3825
vn -0.9237 0.0015 -0.3831
vn -0.9239 -0.0004 -0.3826
vn 0.3819 -0.0000 0.9242
vn 0.3818 -0.0000 0.9243
vn 0.3826 -0.0000 0.9239
vn -0.3829 0.0008 0.9238
vn -0.3826 -0.0006 0.9239
vn -0.3830 0.0013 0.9237
vn 0.3820 -0.0000 0.9242
vn 0.3817 -0.0000 0.9243
vn 0.3818 -0.0000 0.9242
vn -0.3823 -0.0001 0.9240
vn -0.3815 0.0001 0.9244
vn -0.3820 -0.0000 0.9242
vn -0.3818 -0.0000 0.9242
vn -0.3820 -0.0000 -0.9242
vn -0.3818 -0.0000 -0.9242
vn -0.9243 -0.0000 0.3818
vn -0.9243 -0.0000 0.3817
vn -0.9243 -0.0000 0.3816
vn -0.9242 -0.0000 0.3820
vn -0.9241 -0.0001 -0.3822
vn -0.9242 -0.0000 -0.3820
vn -0.9243 -0.0000 -0.3818
vn -0.9243 -0.0000 -0.3817
vn -0.3817 -0.0000 -0.9243
vn -0.3822 -0.0000 -0.9241
vn -0.6535 -0.7071 0.2699
vn -0.6530 -0.7071 0.2714
vn -0.6537 -0.7069 0.2701
vn -0.6530 -0.7073 0.2708
vn -0.6527 -0.7073 -0.2716
vn -0.6539 -0.7068 -0.2700
vn -0.6531 -0.7069 -0.2716
vn -0.6536 -0.7072 -0.2696
vn 0.2705 0.7077 0.6527
vn 0.2705 0.7076 0.6528
vn 0.2705 0.7077 0.6526
vn 0.2705 0.7071 0.6533
vn -0.0000 1.0000 -0.0000
vn -0.2717 -0.7068 0.6531
vn -0.2696 -0.7072 0.6536
vn -0.2716 -0.7073 0.6527
vn -0.2701 -0.7068 0.6538
vn -0.7684 -0.4249 -0.4785
vn -0.7873 -0.4432 -0.4287
vn -0.7520 -0.4689 -0.4632
vn -0.7329 -0.4512 -0.5092
vn 0.2705 0.7076 0.6527
vn 0.2705 0.7074 0.6529
vn -0.2705 0.7076 0.6528
vn -0.2706 0.7074 0.6529
vn -0.2705 0.7075 0.6529
vn -0.2704 0.7079 0.6525
vn -0.2705 0.7076 -0.6528
vn -0.2705 0.7074 -0.6530
vn -0.7003 -0.6525 0.2894
vn -0.6980 -0.6548 0.2898
vn -0.7004 -0.6525 0.2894
vn -0.6525 0.7079 0.2705
vn -0.6526 0.7078 0.2705
vn -0.6525 0.7078 0.2705
vn -0.6526 0.7078 -0.2705
vn -0.6525 0.7079 -0.2704
vn -0.6527 0.7077 -0.2705
vn -0.2038 -0.4251 0.8819
vn -0.1597 -0.4511 0.8781
vn -0.2030 -0.4689 0.8596
vn -0.2551 -0.4432 0.8594
vn -0.9239 -0.0007 0.3826
vn -0.9239 0.0007 0.3826
vn -0.9239 -0.0009 0.3826
vn -0.9239 0.0006 0.3826
vn -0.9240 -0.0005 0.3825
vn -0.9240 0.0009 0.3824
vn -0.9238 -0.0008 0.3828
vn -0.9238 0.0009 0.3828
vn -0.9242 -0.0007 0.3820
vn -0.9241 0.0006 0.3820
vn -0.9237 -0.0007 0.3832
vn -0.9237 0.0006 0.3831
vn -0.9242 -0.0002 0.3818
vn -0.9242 0.0002 0.3818
vn -0.9239 -0.0000 0.3826
vn -0.9236 0.0002 0.3834
vn -0.9239 0.0003 0.3827
vn -0.9240 -0.0007 0.3824
vn -0.9238 -0.0009 0.3828
vn -0.9241 -0.0003 0.3823
vn -0.9237 -0.0005 0.3830
vn -0.9237 0.0006 0.3832
vn -0.9235 -0.0003 0.3835
vn -0.9236 0.0002 0.3833
vn 0.2452 -0.5429 0.8032
vn -0.4136 -0.8297 0.3749
vn 0.4912 -0.4934 0.7178
vn 0.1635 -0.3721 0.9137
vn 0.4468 -0.0416 0.8937
vn 0.3117 -0.0077 0.9501
vn 0.4491 0.0411 0.8926
vn 0.0714 0.2424 0.9675
vn 0.4910 0.4935 0.7179
vn 0.1121 0.5992 0.7927
vn 0.3550 0.8501 0.3889
vn -0.0413 0.9060 0.4212
vn 0.0775 0.9970 0.0058
vn -0.0621 0.9976 0.0303
vn 0.0533 0.9968 -0.0604
vn -0.3784 0.9193 -0.1078
vn -0.0214 0.8510 -0.5248
vn -0.4126 0.7757 -0.4775
vn -0.1578 0.4944 -0.8548
vn -0.5304 0.3719 -0.7618
vn -0.3154 0.0416 -0.9481
vn -0.4512 0.0064 -0.8924
vn -0.3129 -0.0412 -0.9489
vn -0.6333 -0.2436 -0.7345
vn -0.1578 -0.4944 -0.8548
vn -0.4810 -0.5993 -0.6399
vn -0.0214 -0.8510 -0.5247
vn -0.3269 -0.9064 -0.2675
vn 0.0507 -0.9969 -0.0598
vn -0.0666 -0.9975 0.0221
vn 0.0797 -0.9968 0.0043
vn -0.1918 -0.9189 0.3448
vn -0.2516 -0.5742 0.7791
vn -0.0545 -0.9955 0.0781
vn 0.3341 -0.9334 0.1309
vn -0.0047 -0.9999 -0.0114
vn 0.0036 -1.0000 0.0079
vn -0.1929 -0.8661 -0.4612
vn -0.3313 -0.5000 -0.8001
vn -0.3826 0.0040 -0.9239
vn -0.3835 -0.0006 -0.9236
vn -0.3313 0.5000 -0.8001
vn -0.1927 0.8661 -0.4613
vn 0.0047 0.9999 0.0114
vn -0.0036 1.0000 -0.0079
vn 0.1926 0.8661 0.4614
vn 0.3313 0.5000 0.8001
vn 0.3826 -0.0040 0.9239
vn 0.3834 0.0006 0.9236
vn 0.3313 -0.5000 0.8001
vn 0.5004 -0.6830 0.5321
vn -0.9238 0.0004 0.3830
vn -0.9241 -0.0005 0.3821
vn -0.9243 0.0004 0.3815
vn -0.9235 -0.0004 0.3835
vn -0.9239 0.0007 0.3827
vn -0.9240 -0.0009 0.3824
vn -0.9239 0.0007 0.3825
vn -0.9239 -0.0005 0.3826
vn -0.9236 -0.0000 0.3834
vn -0.9242 0.0003 0.3818
vn -0.9241 -0.0000 0.3822
vn -0.9242 -0.0010 0.3820
vn -0.9237 0.0008 0.3831
vn -0.9238 -0.0001 0.3829
vn -0.9242 0.0001 0.3820
vn 0.3826 -0.0009 0.9239
vn 0.3826 0.0009 0.9239
vn 0.3826 0.0011 0.9239
vn 0.3821 -0.0000 0.9241
vn -0.9244 -0.0000 0.3815
vn -0.9240 -0.0007 0.3825
vn -0.9239 0.0009 0.3827
vn -0.9239 0.0010 0.3827
vn 0.0001 1.0000 -0.0000
vn -0.3827 -0.0006 0.9239
vn -0.3829 0.0013 0.9238
vn -0.3827 -0.0011 0.9239
vn -0.3828 0.0010 0.9238
vn -0.9239 -0.0004 -0.3827
vn -0.9238 0.0010 -0.3828
vn -0.9239 -0.0010 -0.3827
vn -0.9241 -0.0000 -0.3821
vn -0.9242 -0.0000 -0.3819
vn -0.3819 -0.0000 0.9242
vn -0.3822 -0.0000 0.9241
vn -0.3818 -0.0000 0.9243
vn 0.3826 0.0010 0.9239
vn 0.3826 -0.0011 0.9239
vn 0.3826 -0.0007 0.9239
vn 0.3815 -0.0000 0.9244
vn 0.3816 -0.0000 0.9243
vn -0.9242 0.0010 0.3820
vn -0.9238 -0.0004 0.3830
vn -0.9237 0.0005 0.3831
vn 0.2712 0.7072 0.6530
vn 0.2698 0.7070 0.6538
vn 0.2714 0.7072 0.6528
vn 0.2702 0.7070 0.6535
vn 0.2705 -0.7077 0.6527
vn 0.2705 -0.7075 0.6529
vn 0.2705 -0.7071 0.6533
vn 0.2696 -0.7069 0.6540
vn 0.2712 -0.7073 0.6528
vn 0.2705 0.7079 0.6525
vn 0.2706 0.7071 0.6533
vn -0.9240 -0.0004 0.3825
vn -0.9239 0.0008 0.3827
vn -0.9241 -0.0001 0.3822
vn -0.9241 0.0008 0.3821
vn -0.9237 -0.0006 0.3831
vn -0.9238 0.0003 0.3829
vn -0.9146 -0.0825 0.3959
vn -0.7081 0.0036 0.7061
vn -0.7353 0.1886 0.6510
vn -0.9117 0.0194 0.4104
vn -0.7852 0.3205 0.5298
vn -0.9153 0.0297 0.4017
vn -0.8537 0.3828 0.3529
vn -0.9542 0.0151 0.2989
vn -0.8538 0.3827 0.3529
vn -0.8866 0.0156 0.4623
vn -0.9304 0.3195 0.1797
vn -0.9309 0.0320 0.3638
vn -0.9804 0.1880 0.0597
vn -0.9353 0.0214 0.3532
vn -1.0000 0.0038 0.0010
vn -0.9268 -0.0824 0.3663
vn -1.0000 -0.0036 0.0010
vn -0.9269 0.0824 0.3660
vn -0.9803 -0.1880 0.0597
vn -0.9353 -0.0214 0.3533
vn -0.9304 -0.3195 0.1796
vn -0.9309 -0.0321 0.3638
vn -0.8538 -0.3827 0.3528
vn -0.8865 -0.0154 0.4624
vn -0.8538 -0.3828 0.3527
vn -0.9542 -0.0153 0.2989
vn -0.7852 -0.3206 0.5298
vn -0.9153 -0.0295 0.4017
vn -0.7353 -0.1886 0.6510
vn -0.9117 -0.0194 0.4105
vn -0.7081 -0.0037 0.7061
vn -0.9147 0.0825 0.3956
vn -0.3420 -0.9397 -0.0012
vn -0.3420 -0.9397 0.0012
vn -0.3420 -0.9397 0.0013
vn -0.3410 -0.9401 0.0010
vn -0.3431 -0.9393 -0.0010
vn -0.3430 -0.9393 0.0009
vn -0.3410 -0.9401 -0.0010
vn -0.3428 -0.9394 -0.0008
vn -0.3430 -0.9393 0.0010
vn -0.3410 -0.9400 0.0010
vn -0.0000 -0.0000 -1.0000
vn -1.0000 0.0001 -0.0000
vn -0.0001 -0.7071 -0.7071
vn 0.0001 0.7071 -0.7071
vn 0.0001 0.7071 0.7071
vn -0.0000 -0.0000 1.0000
vn -0.0001 -0.7071 0.7071
vn 0.3823 -0.0004 -0.9240
vn 0.3829 -0.0003 -0.9238
vn 0.3826 0.0005 -0.9239
vn 0.3819 -0.0000 -0.9242
vn -0.9236 -0.0008 -0.3833
vn -0.9237 0.0006 -0.3831
vn -0.9241 -0.0005 -0.3823
vn -0.9241 0.0007 -0.3820
vn -0.3989 -0.5417 0.7399
vn -0.5578 -0.8295 -0.0296
vn -0.1578 -0.4944 0.8548
vn -0.5300 -0.3798 0.7582
vn -0.3153 -0.0417 0.9481
vn -0.4515 -0.0135 0.8922
vn -0.3128 0.0412 0.9489
vn -0.6343 0.2373 0.7357
vn -0.1578 0.4944 0.8548
vn -0.4833 0.5924 0.6446
vn -0.0214 0.8510 0.5248
vn -0.3288 0.9039 0.2736
vn 0.0481 0.9960 0.0759
vn -0.0877 0.9959 -0.0227
vn 0.0896 0.9958 -0.0169
vn -0.1808 0.9258 -0.3319
vn 0.3550 0.8501 -0.3889
vn 0.0408 0.7808 -0.6235
vn 0.4911 0.4935 -0.7178
vn 0.1611 0.3793 -0.9111
vn 0.4467 0.0416 -0.8937
vn 0.3115 0.0139 -0.9502
vn 0.4491 -0.0411 -0.8926
vn 0.0716 -0.2369 -0.9689
vn 0.4912 -0.4935 -0.7178
vn 0.1139 -0.5929 -0.7972
vn 0.3550 -0.8501 -0.3889
vn -0.0381 -0.9030 -0.4279
vn 0.0873 -0.9960 -0.0184
vn -0.0763 -0.9960 -0.0464
vn 0.0507 -0.9958 0.0765
vn -0.3615 -0.9260 0.1083
vn -0.7275 -0.5745 0.3751
vn -0.0984 -0.9950 0.0149
vn 0.1428 -0.9327 0.3311
vn -0.0034 -1.0000 0.0081
vn 0.0054 -0.9999 -0.0103
vn 0.1929 -0.8661 -0.4612
vn 0.3313 -0.5000 -0.8001
vn 0.3826 0.0040 -0.9239
vn 0.3834 -0.0008 -0.9236
vn 0.3313 0.5000 -0.8001
vn 0.1926 0.8661 -0.4614
vn 0.0033 1.0000 -0.0081
vn -0.0054 0.9999 0.0103
vn -0.1927 0.8661 0.4613
vn -0.3313 0.5000 0.8001
vn -0.3826 -0.0040 0.9239
vn -0.3834 0.0008 0.9236
vn -0.3313 -0.5000 0.8001
vn -0.0223 -0.6830 0.7300
vn -0.3826 -0.0007 -0.9239
vn -0.3829 0.0014 -0.9238
vn -0.3827 -0.0006 -0.9239
vn -0.3829 0.0013 -0.9238
vn -0.9239 -0.0008 0.3826
vn -0.9238 0.0006 0.3828
vn -0.9238 0.0007 0.3828
vn -0.3817 -0.0000 0.9243
vn -0.9242 -0.0000 0.3819
vn 0.3820 -0.0000 -0.9242
vn 0.3818 -0.0000 -0.9243
vn 0.3817 -0.0000 -0.9243
vn 0.3818 -0.0000 -0.9242
vn -0.9240 -0.0000 -0.3823
vn -0.9242 -0.0000 -0.3818
vn -0.9239 -0.0000 -0.3826
vn -0.9244 -0.0000 -0.3815
vn -0.3819 -0.0000 -0.9242
vn -0.3816 -0.0000 -0.9243
vn 0.3822 -0.0000 -0.9241
vn 0.3826 -0.0000 -0.9239
vn -0.9239 -0.0011 -0.3826
vn -0.9239 0.0009 -0.3826
vn -0.9238 -0.0008 -0.3828
vn -0.9238 0.0008 -0.3828
vn -0.9240 -0.0009 -0.3824
vn -0.9240 0.0009 -0.3824
vn -0.9236 -0.0003 -0.3834
vn -0.9237 0.0002 -0.3832
vn -0.9242 0.0002 -0.3819
vn -0.9236 0.0002 -0.3835
vn -0.9243 -0.0002 -0.3817
vn -0.9241 0.0001 -0.3822
vn -0.9237 -0.0002 -0.3832
vn -0.9240 -0.0009 -0.3823
vn -0.9240 0.0007 -0.3823
vn -0.9238 -0.0007 -0.3828
vn -0.9238 0.0007 -0.3828
vn -0.9240 -0.0002 -0.3824
vn -0.9236 -0.0007 -0.3832
vn -0.9236 0.0008 -0.3834
vn 0.3815 -0.0000 -0.9244
vn 0.3816 -0.0000 -0.9243
vn 0.3825 -0.0009 -0.9239
vn 0.3826 0.0008 -0.9239
vn 0.3826 0.0010 -0.9239
vn 0.0001 1.0000 0.0001
vn -0.9240 -0.0002 -0.3823
vn -0.9238 0.0004 -0.3829
vn -0.9237 -0.0004 -0.3831
vn -0.9240 0.0004 -0.3824
vn 0.2705 -0.7076 -0.6528
vn 0.2705 -0.7078 -0.6525
vn 0.2705 -0.7077 -0.6527
vn 0.2705 -0.7077 -0.6526
vn 0.2700 0.7071 -0.6536
vn 0.2716 0.7072 -0.6527
vn 0.2698 0.7070 -0.6537
vn 0.2715 0.7072 -0.6528
vn 0.2706 0.7071 -0.6533
vn 0.2705 0.7076 -0.6527
vn 0.2705 0.7077 -0.6527
vn 0.2705 0.7075 -0.6529
vn 0.2713 -0.7074 -0.6527
vn 0.2702 -0.7070 -0.6535
vn 0.2712 -0.7074 -0.6527
vn 0.2696 -0.7068 -0.6540
vn -0.9239 0.0008 -0.3826
vn -0.9239 -0.0005 -0.3826
vn -0.9239 0.0006 -0.3826
vn -0.9239 -0.0007 -0.3825
vn -0.9241 0.0007 -0.3821
vn -0.9242 -0.0006 -0.3819
vn -0.9238 0.0003 -0.3828
vn -0.9237 -0.0006 -0.3832
vn -0.9242 -0.0004 -0.3819
vn -0.9237 0.0005 -0.3831
vn -0.9237 -0.0005 -0.3831
vn -0.9240 0.0005 -0.3824
vn 0.2698 0.7070 -0.6538
vn 0.2712 0.7072 -0.6529
vn 0.2713 0.7072 -0.6529
vn 0.2705 0.7078 -0.6525
vn 0.2705 0.7078 -0.6526
vn -0.2705 0.7078 0.6526
vn -0.2705 0.7077 0.6527
vn -0.2705 0.7078 0.6525
vn -0.2705 0.7077 0.6526
vn -0.9239 0.0001 -0.3826
vn -0.9239 -0.0002 -0.3825
vn -0.9239 0.0007 -0.3827
vn -0.9241 -0.0002 -0.3822
vn -0.9238 0.0005 -0.3830
vn -0.9238 -0.0004 -0.3830
vn -0.9215 -0.2778 -0.2714
vn -0.9496 -0.0173 -0.3131
vn -0.9153 -0.0297 -0.4017
vn -0.8145 -0.0982 -0.5718
vn -0.9117 -0.0194 -0.4104
vn -0.8071 0.0244 -0.5899
vn -0.9146 0.0825 -0.3959
vn -0.8114 0.1339 -0.5690
vn -0.9147 -0.0825 -0.3957
vn -0.8282 0.1787 -0.5311
vn -0.9117 0.0194 -0.4104
vn -0.8596 0.2172 -0.4625
vn -0.9153 0.0295 -0.4017
vn -0.9066 0.2362 -0.3496
vn -0.9495 0.0176 -0.3132
vn -0.9461 0.2152 -0.2421
vn -0.8935 0.0170 -0.4488
vn -0.9647 0.1731 -0.1985
vn -0.9309 0.0320 -0.3639
vn -0.9722 0.1069 -0.2081
vn -0.9353 0.0214 -0.3533
vn -0.9839 0.0017 -0.1789
vn -0.9269 -0.0824 -0.3661
vn -0.9768 -0.1188 -0.1781
vn -0.9268 0.0824 -0.3664
vn -0.9637 -0.1677 -0.2079
vn -0.9353 -0.0214 -0.3532
vn -0.9439 -0.1839 -0.2743
vn -0.9309 -0.0321 -0.3638
vn -0.9048 -0.2113 -0.3697
vn -0.8935 -0.0173 -0.4487
vn -0.8406 -0.2165 -0.4965
vn -0.9239 -0.0007 -0.3826
vn -0.9239 0.0007 -0.3826
vn -0.9239 -0.0009 -0.3826
vn -0.3432 -0.9393 -0.0004
vn -0.3443 -0.9388 -0.0003
vn -0.3437 -0.9391 0.0006
vn -0.3444 -0.9388 0.0003
vn -0.3431 -0.9393 0.0004
vn -0.3437 -0.9391 -0.0007
vn 0.3432 0.9393 -0.0000
vn -0.3437 -0.9391 -0.0000
vn -0.3434 -0.9392 0.0002
vn -0.3437 -0.9391 -0.0003
vn -0.4950 -0.8440 -0.2065
vn -0.4963 -0.8437 -0.2046
vn -0.4945 -0.8448 -0.2045
vn 0.4956 0.8443 0.2035
vn 0.4957 0.8444 0.2034
vn -0.4951 -0.8440 -0.2063
vn -0.4964 -0.8437 -0.2046
vn -0.4946 -0.8447 -0.2045
vn 0.4956 0.8443 0.2037
vn -0.9393 0.3430 -0.0000
vn -0.9393 0.3431 -0.0000
vn -0.9390 0.3438 -0.0010
vn -0.9390 0.3438 -0.0000
vn -0.9391 0.3438 -0.0009
vn -0.9391 0.3438 0.0009
vn -0.6638 0.2429 0.7073
vn -0.6640 0.2431 0.7071
vn -0.6635 0.2426 0.7078
vn -0.6640 0.2431 -0.7071
vn -0.6637 0.2428 -0.7075
vn -0.6638 0.2429 -0.7074
vn -0.6642 0.2423 -0.7072
vn -0.3435 -0.9391 0.0005
vn -0.3434 -0.9392 -0.0007
vn -0.3441 -0.9389 0.0011
vn -0.3439 -0.9390 -0.0004
vn -0.3440 -0.9390 0.0008
vn -0.3435 -0.9391 -0.0006
vn -0.3435 -0.9392 0.0008
vn -0.3433 -0.9392 0.0011
vn -0.3435 -0.9391 -0.0005
vn -0.3441 -0.9389 0.0009
vn -0.3435 -0.9392 -0.0007
vn -0.3435 -0.9392 0.0007
vn -0.9391 0.3437 0.0007
vn -0.9391 0.3438 -0.0000
vn -0.9391 0.3438 0.0007
vn -0.9391 0.3437 -0.0000
vn -0.9393 0.3432 -0.0000
vn 0.3821 -0.0000 -0.9241
vn 0.3832 0.0002 -0.9237
vn 0.3818 -0.0005 -0.9243
vn 0.3831 0.0002 -0.9237
vn 0.3821 -0.0003 -0.9241
vn -0.7798 0.5363 -0.3230
vn -0.7798 0.5362 -0.3230
vn -0.7794 0.5367 -0.3232
vn -0.7795 0.5360 -0.3242
vn -0.7801 0.5364 -0.3220
vn -0.8219 0.3783 0.4259
vn -0.8222 0.3800 0.4238
vn -0.8222 0.3799 0.4239
vn -0.2808 0.3799 -0.8813
vn -0.2809 0.3780 -0.8822
vn -0.2808 0.3803 -0.8812
vn -0.2809 0.3785 -0.8820
vn -0.2802 0.3781 -0.8824
vn -0.2803 0.3783 -0.8822
vn -0.2803 0.3783 -0.8823
vn -0.2804 0.3785 -0.8821
vn -0.8225 0.3780 0.4250
vn -0.8225 0.3779 0.4250
vn -0.8224 0.3782 0.4250
vn -0.4940 -0.8450 -0.2049
vn -0.4959 -0.8435 -0.2063
vn -0.4949 -0.8446 -0.2042
vn -0.4967 -0.8432 -0.2055
vn -0.4967 -0.8433 -0.2055
vn -0.4948 -0.8447 -0.2041
vn -0.4960 -0.8434 -0.2065
vn -0.4944 -0.8447 -0.2049
vn -0.4940 -0.8450 -0.2048
vn -0.4960 -0.8434 -0.2064
vn -0.4948 -0.8448 -0.2039
vn -0.4966 -0.8433 -0.2054
vn -0.4947 -0.8448 -0.2040
vn -0.4959 -0.8436 -0.2063
vn -0.4941 -0.8449 -0.2049
vn -0.7796 0.5360 -0.3239
vn -0.7802 0.5364 -0.3219
vn -0.7796 0.5360 -0.3238
vn -0.7803 0.5352 -0.3235
vn -0.7803 0.5353 -0.3235
vn -0.7804 0.5351 -0.3236
vn 0.3820 -0.0004 -0.9242
vn 0.3834 0.0004 -0.9236
vn 0.3820 -0.0003 -0.9242
vn 0.3836 0.0005 -0.9235
vt 1.208984 -1.039062
vt 1.206055 -1.048828
vt 1.164062 -0.933594
vt 1.638672 -1.039062
vt 2.138672 -0.933594
vt 1.641602 -1.048828
vt 1.620117 -1.027344
vt 1.630859 -1.031250
vt 2.138672 -1.251953
vt 1.638672 -1.218750
vt 1.641602 -1.207031
vt 1.630859 -1.226562
vt 1.620117 -1.228516
vt 1.208984 -1.218750
vt 1.206055 -1.207031
vt 1.164062 -1.251953
vt 1.227539 -1.228516
vt 1.216797 -1.226562
vt 1.216797 -1.031250
vt 1.227539 -1.027344
vt 1.146484 -1.251953
vt 1.146484 -0.933594
vt 0.563965 -1.251953
vt 0.718750 -0.934570
vt 2.156250 -0.933594
vt 2.156250 -1.251953
vt 0.641602 -0.843750
vt 0.563965 -0.843750
vt 0.637695 -0.843750
vt 0.655273 -1.251953
vt 0.655273 -0.843750
vt 0.637695 -1.251953
vt 2.740234 -1.251953
vt 2.583984 -0.933594
vt -0.335938 -0.843750
vt -0.335693 -1.251953
vt -0.353516 -1.251953
vt -0.353516 -0.843750
vt 2.662109 -0.842773
vt 2.740234 -0.842773
vt 0.161865 0.511230
vt 0.165527 0.519531
vt 1.132812 0.519531
vt 1.136719 0.511230
vt 0.144043 0.527588
vt 0.152954 0.531006
vt 0.144043 0.919861
vt 0.152954 0.919861
vt 1.145508 0.531006
vt 1.154297 0.527588
vt 1.145508 0.919861
vt 0.144043 0.890808
vt 0.144043 1.004070
vt 0.152954 1.000291
vt 0.152954 0.890808
vt 0.144043 1.076416
vt 0.152954 1.072998
vt 0.161865 1.092896
vt 0.165527 1.084656
vt 1.154297 0.919861
vt 1.145508 0.890808
vt 1.145508 1.000292
vt 1.145508 1.072998
vt 1.132812 1.084656
vt 1.136719 1.092896
vt 1.154297 1.076416
vt 1.154297 0.890808
vt 1.154297 1.004074
vt 0.826660 -0.017578
vt 0.826660 -0.237305
vt 0.340088 -0.237305
vt 0.340088 -0.017578
vt 0.329834 -0.235352
vt 0.329834 -0.020508
vt 0.322266 -0.227539
vt 0.322266 -0.027344
vt 0.319580 -0.218750
vt 0.319580 -0.037109
vt 0.836914 -0.235352
vt 0.836914 -0.020508
vt 0.844238 -0.027344
vt 0.844238 -0.227539
vt 0.847168 -0.037109
vt 0.847168 -0.218750
vt 0.211548 0.115723
vt 0.211548 0.113770
vt 0.220703 0.112793
vt 0.220825 0.115234
vt 0.229980 0.112305
vt 0.230103 0.114746
vt 0.403320 0.112305
vt 0.403076 0.114746
vt 0.412598 0.112793
vt 0.411865 0.114746
vt 0.421631 0.113770
vt 0.419922 0.115234
vt 0.424805 0.113770
vt 0.425049 0.115723
vt 0.628418 0.113770
vt 0.628418 0.115723
vt 0.631836 0.113770
vt 0.633789 0.115723
vt 0.641113 0.113770
vt 0.642090 0.115723
vt 0.650879 0.113770
vt 0.651367 0.115723
vt 0.832031 0.113770
vt 0.831543 0.115723
vt 0.841797 0.113770
vt 0.839844 0.115723
vt 0.845215 0.113770
vt 0.844238 0.115723
vt 0.848145 0.113770
vt 0.848145 0.115723
vt 1.048828 0.113770
vt 1.048828 0.115723
vt 1.052734 0.113770
vt 1.052734 0.115723
vt 1.052734 0.124512
vt 1.048828 0.124512
vt 0.848145 0.124512
vt 0.845215 0.124512
vt 0.842285 0.124512
vt 0.832520 0.124512
vt 0.651367 0.124512
vt 0.641602 0.124512
vt 0.631836 0.124512
vt 0.628906 0.124512
vt 0.424805 0.124512
vt 0.421631 0.124512
vt 0.412598 0.124023
vt 0.403320 0.123535
vt 0.229980 0.123535
vt 0.220703 0.124023
vt 0.211548 0.124512
vt 0.472656 2.359375
vt 0.451660 2.359375
vt 0.451660 2.451172
vt 0.472656 2.451172
vt 0.211304 2.452148
vt 0.232422 2.359375
vt 0.232422 2.452148
vt 0.211304 2.359375
vt 0.442383 2.480469
vt 0.241455 2.461914
vt 0.442627 2.461914
vt 0.241455 2.480469
vt 0.241455 2.330078
vt 0.241455 2.348633
vt 0.442871 2.348633
vt 0.443115 2.330078
vt 0.452148 2.330078
vt 0.452148 2.348633
vt 0.232422 2.330078
vt 0.232422 2.348633
vt 0.451416 2.461914
vt 0.451416 2.480469
vt 0.232544 2.480469
vt 0.232544 2.461914
vt 1.211914 -1.048828
vt 1.213867 -1.041016
vt 1.219727 -1.035156
vt 1.227539 -1.033203
vt 1.620117 -1.033203
vt 1.627930 -1.035156
vt 1.633789 -1.041016
vt 1.636719 -1.048828
vt 1.636719 -1.207031
vt 1.633789 -1.214844
vt 1.627930 -1.220703
vt 1.620117 -1.222656
vt 1.227539 -1.222656
vt 1.219727 -1.220703
vt 1.213867 -1.214844
vt 1.211914 -1.207031
vt 0.961914 0.999928
vt 0.961914 0.750000
vt 0.288818 0.750000
vt 0.288818 0.999929
vt 0.970703 0.758545
vt 0.970703 0.991440
vt 0.280273 0.758545
vt 0.280273 0.991447
vt -0.856934 -1.996094
vt -1.143555 -1.757812
vt -0.856934 -1.757812
vt 0.448730 -1.757812
vt 0.162231 -1.757812
vt 0.162231 -1.996094
vt -0.143311 0.170410
vt -0.298828 0.170410
vt -0.290527 0.175293
vt -0.151611 0.175293
vt -0.813965 0.412109
vt -0.813965 0.404297
vt -0.803711 0.404297
vt -0.803711 0.412109
vt -0.793457 0.404297
vt -0.793457 0.412109
vt -0.606445 0.404297
vt -0.606445 0.412109
vt -0.596680 0.404297
vt -0.596680 0.412109
vt -0.587891 0.404297
vt -0.587891 0.412109
vt -0.580566 0.404297
vt -0.580566 0.412109
vt -0.365234 0.404297
vt -0.365234 0.412109
vt -0.358154 0.404297
vt -0.358154 0.412109
vt -0.348389 0.404297
vt -0.348389 0.412109
vt -0.337646 0.404297
vt -0.337646 0.412109
vt -0.143921 0.404297
vt -0.143921 0.412109
vt -0.135010 0.404297
vt -0.135010 0.412109
vt -0.128052 0.404297
vt -0.128052 0.412109
vt -0.122559 0.404297
vt -0.122559 0.412109
vt 0.090027 0.404297
vt 0.090027 0.412109
vt 0.096069 0.404297
vt 0.096069 0.412109
vt 0.096069 0.447266
vt 0.090027 0.447266
vt -0.122559 0.447266
vt -0.128052 0.447266
vt -0.135010 0.447266
vt -0.143921 0.447266
vt -0.337646 0.447266
vt -0.348389 0.447266
vt -0.358154 0.447266
vt -0.365234 0.447266
vt -0.580566 0.447266
vt -0.587891 0.447266
vt -0.596680 0.447266
vt -0.606445 0.447266
vt -0.793457 0.447266
vt -0.803711 0.447266
vt -0.813965 0.447266
vt -0.841309 -1.757812
vt -0.841309 -1.996094
vt -1.156250 -1.753906
vt -1.366211 -1.996094
vt 0.146606 -1.996094
vt 0.146729 -1.757812
vt -1.366211 -1.619141
vt -1.356445 -1.619141
vt -1.381836 -1.996094
vt -1.381836 -1.619141
vt 0.670898 -1.996094
vt 0.461426 -1.753906
vt 1.697266 -1.996094
vt 0.686523 -1.619141
vt 0.686523 -1.996094
vt 1.697266 -1.619141
vt 0.670898 -1.619141
vt 0.661621 -1.619141
vt -0.140259 0.029785
vt -0.301758 0.029785
vt -0.301758 0.163574
vt -0.140259 0.163574
vt -0.279297 0.177246
vt -0.162842 0.177246
vt -0.151611 0.017578
vt -0.162842 0.015625
vt -0.279297 0.015625
vt -0.290527 0.017578
vt -0.143311 0.022949
vt -0.298828 0.022949
vt -0.713379 -1.970703
vt -0.714844 -1.966797
vt -0.707520 -1.964844
vt -0.704102 -1.968750
vt -0.702148 -1.958984
vt -0.697266 -1.960938
vt -0.700195 -1.951172
vt -0.695312 -1.951172
vt -0.700195 -1.806641
vt -0.694824 -1.806641
vt -0.702148 -1.798828
vt -0.696777 -1.796875
vt -0.707520 -1.792969
vt -0.704102 -1.789062
vt -0.714844 -1.791016
vt -0.712891 -1.785156
vt -0.789062 -1.791016
vt -0.789062 -1.787109
vt -0.795898 -1.792969
vt -0.798340 -1.789062
vt -0.801270 -1.798828
vt -0.805176 -1.796875
vt -0.803223 -1.806641
vt -0.807617 -1.804688
vt -0.803223 -1.951172
vt -0.807617 -1.953125
vt -0.801270 -1.958984
vt -0.805176 -1.960938
vt -0.795898 -1.964844
vt -0.798340 -1.968750
vt -0.789062 -1.966797
vt -0.789551 -1.970703
vt 0.236938 2.457031
vt 0.236938 2.353516
vt 0.447266 2.353516
vt 0.447021 2.457031
s 1
usemtl m9_metal159_tk2.001
f 200/1/1 198/2/2 199/3/3
f 224/4/4 222/5/5 223/6/6
f 231/7/7 230/8/8 229/5/7
f 234/8/9 232/5/10 233/4/11
f 237/9/12 235/10/13 236/11/14
f 240/9/15 238/12/16 239/10/17
f 243/9/18 241/13/19 242/12/20
f 246/14/7 245/15/7 244/16/7
f 253/17/21 251/16/21 252/18/21
f 256/18/22 254/16/23 255/14/24
f 263/1/25 262/19/26 261/3/26
f 266/19/27 264/3/28 265/20/29
f 3/21/30 1/22/31 2/3/32
f 2/3/32 4/16/33 3/21/30
f 7/23/34 6/22/35 5/24/35
f 6/22/35 7/23/34 8/21/36
f 11/9/37 9/5/38 10/25/39
f 10/25/39 12/26/38 11/9/37
f 15/23/40 14/27/41 13/28/42
f 14/27/41 15/23/40 16/24/42
f 19/29/43 18/30/44 17/31/45
f 18/30/44 19/29/43 20/32/46
f 23/25/47 22/33/47 21/34/47
f 22/33/47 23/25/47 24/26/48
f 27/32/49 26/35/50 25/36/51
f 26/35/50 27/32/49 28/29/52
f 31/35/53 30/37/54 29/36/55
f 30/37/54 31/35/53 32/38/56
f 35/33/57 34/39/58 33/34/48
f 34/39/58 35/33/57 36/40/58
f 39/41/59 37/42/60 38/43/61
f 38/43/61 40/44/62 39/41/59
f 43/45/63 41/46/64 42/42/65
f 42/42/65 44/41/66 43/45/63
f 47/47/67 46/46/68 45/48/69
f 46/46/68 47/47/67 48/45/70
f 51/46/71 50/43/71 49/49/71
f 50/43/71 51/46/71 52/42/71
f 55/49/72 53/50/73 54/44/74
f 54/44/74 56/43/75 55/49/72
f 59/46/71 58/51/71 57/48/71
f 58/51/71 59/46/71 49/49/71
f 62/52/76 60/53/77 61/54/78
f 61/54/78 63/55/79 62/52/76
f 66/54/67 65/56/80 64/53/81
f 65/56/80 66/54/67 67/57/68
f 70/57/82 69/58/83 68/56/84
f 69/58/83 70/57/82 71/59/85
f 74/51/86 73/50/86 72/60/86
f 73/50/86 74/51/86 75/49/87
f 78/61/88 76/55/89 77/54/90
f 77/54/90 79/62/89 78/61/88
f 82/57/71 81/62/71 80/63/71
f 81/62/71 82/57/71 83/54/71
f 86/57/71 85/64/71 84/59/71
f 85/64/71 86/57/71 87/63/71
f 90/59/91 89/65/92 88/58/92
f 89/65/92 90/59/91 91/64/93
f 94/64/94 93/66/95 92/65/96
f 93/66/95 94/64/94 95/63/96
f 98/67/97 96/61/98 97/62/99
f 97/62/99 99/68/100 98/67/97
f 102/68/86 101/63/87 100/62/86
f 101/63/87 102/68/86 103/66/86
f 106/69/101 104/70/102 105/71/103
f 105/71/103 107/72/104 106/69/101
f 110/72/105 108/71/106 109/73/107
f 109/73/107 111/74/108 110/72/105
f 114/74/109 112/73/110 113/75/111
f 113/75/111 115/76/112 114/74/109
f 118/76/113 116/75/114 117/77/115
f 117/77/115 119/78/116 118/76/113
f 122/79/117 120/70/118 121/69/106
f 121/69/106 123/80/119 122/79/117
f 126/79/120 124/80/115 125/81/121
f 125/81/121 127/82/122 126/79/120
f 130/82/24 128/81/114 129/83/123
f 129/83/123 131/84/124 130/82/24
f 196/85/125 194/86/126 195/87/127
f 197/88/128 196/85/125 195/87/127
f 195/87/127 141/89/129 197/88/128
f 140/90/130 197/88/128 141/89/129
f 141/89/129 136/91/131 140/90/130
f 138/92/132 140/90/130 136/91/131
f 136/91/131 137/93/133 138/92/132
f 139/94/134 138/92/132 137/93/133
f 137/93/133 146/95/135 139/94/134
f 147/96/136 139/94/134 146/95/135
f 146/95/135 150/97/137 147/96/136
f 151/98/138 147/96/136 150/97/137
f 150/97/137 154/99/139 151/98/138
f 155/100/140 151/98/138 154/99/139
f 154/99/139 158/101/141 155/100/140
f 159/102/142 155/100/140 158/101/141
f 158/101/141 162/103/143 159/102/142
f 163/104/144 159/102/142 162/103/143
f 162/103/143 166/105/145 163/104/144
f 167/106/146 163/104/144 166/105/145
f 166/105/145 170/107/147 167/106/146
f 171/108/148 167/106/146 170/107/147
f 170/107/147 174/109/149 171/108/148
f 175/110/150 171/108/148 174/109/149
f 174/109/149 178/111/151 175/110/150
f 179/112/152 175/110/150 178/111/151
f 178/111/151 182/113/153 179/112/152
f 183/114/154 179/112/152 182/113/153
f 182/113/153 186/115/155 183/114/154
f 187/116/156 183/114/154 186/115/155
f 186/115/155 190/117/157 187/116/156
f 190/117/157 191/118/158 187/116/156
f 191/118/158 213/119/159 187/116/156
f 213/119/159 212/120/160 187/116/156
f 183/114/154 187/116/156 212/120/160
f 212/120/160 210/121/161 183/114/154
f 179/112/152 183/114/154 210/121/161
f 210/121/161 211/122/162 179/112/152
f 175/110/150 179/112/152 211/122/162
f 211/122/162 221/123/163 175/110/150
f 171/108/148 175/110/150 221/123/163
f 221/123/163 220/124/164 171/108/148
f 167/106/146 171/108/148 220/124/164
f 220/124/164 219/125/165 167/106/146
f 163/104/144 167/106/146 219/125/165
f 219/125/165 218/126/166 163/104/144
f 159/102/142 163/104/144 218/126/166
f 218/126/166 217/127/167 159/102/142
f 155/100/140 159/102/142 217/127/167
f 217/127/167 216/128/168 155/100/140
f 151/98/138 155/100/140 216/128/168
f 216/128/168 215/129/169 151/98/138
f 147/96/136 151/98/138 215/129/169
f 215/129/169 209/130/170 147/96/136
f 139/94/134 147/96/136 209/130/170
f 209/130/170 207/131/171 139/94/134
f 138/92/132 139/94/134 207/131/171
f 207/131/171 205/132/172 138/92/132
f 140/90/130 138/92/132 205/132/172
f 205/132/172 206/133/173 140/90/130
f 197/88/128 140/90/130 206/133/173
f 206/133/173 208/134/174 197/88/128
f 196/85/125 197/88/128 208/134/174
f 208/134/174 214/135/175 196/85/125
f 203/15/176 201/16/177 202/3/178
f 202/3/178 204/2/179 203/15/176
f 227/6/180 225/5/181 226/9/182
f 226/9/182 228/11/183 227/6/180
f 249/9/184 247/16/19 248/17/185
f 248/17/185 250/13/186 249/9/184
f 259/20/187 257/3/188 258/5/189
f 258/5/189 260/7/190 259/20/187
f 269/136/191 267/137/192 268/138/191
f 268/138/191 270/139/193 269/136/191
f 273/140/42 272/141/35 271/142/194
f 272/141/35 273/140/42 274/143/40
f 277/144/49 276/145/49 275/146/195
f 276/145/49 277/144/49 278/147/51
f 281/148/196 279/149/197 280/150/196
f 280/150/196 282/151/198 281/148/196
f 285/149/199 284/142/199 283/141/199
f 284/142/199 285/149/199 286/145/199
f 289/152/200 287/151/201 288/150/202
f 288/150/202 290/153/203 289/152/200
f 293/148/204 291/154/205 292/155/206
f 292/155/206 294/149/205 293/148/204
f 297/144/207 296/156/208 295/157/208
f 296/156/208 297/144/207 298/146/54
f 301/158/209 300/145/210 299/147/209
f 300/145/210 301/158/209 302/159/211
f 305/149/199 304/146/199 303/145/199
f 304/146/199 305/149/199 306/150/199
f 309/150/199 308/138/199 307/146/199
f 308/138/199 309/150/199 310/137/199
f 313/136/212 311/137/213 312/138/192
f 312/138/192 314/139/214 313/136/212
f 317/140/215 316/141/42 315/142/41
f 316/141/42 317/140/215 318/143/216
f 321/144/199 320/145/199 319/146/199
f 320/145/199 321/144/199 322/147/199
f 325/148/199 323/149/199 324/150/199
f 324/150/199 326/151/199 325/148/199
f 329/149/217 327/141/218 328/142/219
f 328/142/219 330/145/21 329/149/217
f 333/152/220 331/151/221 332/150/222
f 332/150/222 334/153/223 333/152/220
f 337/148/224 336/155/225 335/154/224
f 336/155/225 337/148/224 338/149/226
f 341/144/227 339/157/228 340/156/227
f 340/156/227 342/146/228 341/144/227
f 345/158/229 344/145/229 343/147/230
f 344/145/229 345/158/229 346/159/67
f 349/149/231 347/145/232 348/146/231
f 348/146/231 350/150/198 349/149/231
f 353/150/233 351/146/234 352/138/235
f 352/138/235 354/137/236 353/150/233
f 134/160/237 132/2/238 133/1/239
f 135/161/240 134/160/237 133/1/239
f 133/1/239 144/19/241 135/161/240
f 145/162/242 135/161/240 144/19/241
f 144/19/241 148/20/243 145/162/242
f 149/163/244 145/162/242 148/20/243
f 148/20/243 152/7/245 149/163/244
f 153/164/246 149/163/244 152/7/245
f 152/7/245 156/8/247 153/164/246
f 157/165/248 153/164/246 156/8/247
f 156/8/247 160/4/249 157/165/248
f 161/166/250 157/165/248 160/4/249
f 160/4/249 164/6/251 161/166/250
f 165/167/252 161/166/250 164/6/251
f 164/6/251 168/11/253 165/167/252
f 169/168/254 165/167/252 168/11/253
f 168/11/253 172/10/255 169/168/254
f 173/169/256 169/168/254 172/10/255
f 172/10/255 176/12/257 173/169/256
f 177/170/258 173/169/256 176/12/257
f 176/12/257 180/13/259 177/170/258
f 181/171/260 177/170/258 180/13/259
f 180/13/259 184/17/261 181/171/260
f 185/172/262 181/171/260 184/17/261
f 184/17/261 188/18/263 185/172/262
f 189/173/264 185/172/262 188/18/263
f 188/18/263 192/14/265 189/173/264
f 193/174/266 189/173/264 192/14/265
f 192/14/265 143/15/267 193/174/266
f 142/175/268 193/174/266 143/15/267
f 143/15/267 132/2/238 142/175/268
f 134/160/237 142/175/268 132/2/238
f 357/176/269 355/177/270 356/178/269
f 356/178/269 358/179/271 357/176/269
f 361/180/272 359/177/273 360/176/274
f 360/176/274 362/181/275 361/180/272
f 365/179/276 363/178/277 364/182/275
f 364/182/275 366/183/278 365/179/276
f 369/136/279 368/138/279 367/137/279
f 368/138/279 369/136/279 370/139/279
f 373/140/279 371/142/279 372/141/279
f 372/141/279 374/143/279 373/140/279
f 377/144/199 376/145/199 375/146/199
f 376/145/199 377/144/199 378/147/199
f 381/148/199 379/149/199 380/150/199
f 380/150/199 382/151/199 381/148/199
f 385/149/280 383/141/280 384/142/280
f 384/142/280 386/145/280 385/149/280
f 389/152/281 388/150/281 387/151/281
f 388/150/281 389/152/281 390/153/281
f 393/148/282 391/154/282 392/155/282
f 392/155/282 394/149/282 393/148/282
f 397/144/282 396/156/282 395/157/282
f 396/156/282 397/144/282 398/146/282
f 401/158/283 400/145/283 399/147/283
f 400/145/283 401/158/283 402/159/283
f 405/149/280 403/145/280 404/146/280
f 404/146/280 406/150/280 405/149/280
f 409/150/280 407/146/280 408/138/280
f 408/138/280 410/137/280 409/150/280
f 413/136/284 411/137/284 412/138/284
f 412/138/284 414/139/284 413/136/284
f 417/140/284 416/141/284 415/142/284
f 416/141/284 417/140/284 418/143/284
f 421/144/199 420/145/199 419/146/199
f 420/145/199 421/144/199 422/147/199
f 425/148/199 423/149/199 424/150/199
f 424/150/199 426/151/199 425/148/199
f 429/149/280 427/141/280 428/142/280
f 428/142/280 430/145/280 429/149/280
f 433/152/283 431/151/283 432/150/283
f 432/150/283 434/153/283 433/152/283
f 437/148/285 436/155/285 435/154/285
f 436/155/285 437/148/285 438/149/285
f 441/144/285 439/157/285 440/156/285
f 440/156/285 442/146/285 441/144/285
f 445/158/283 444/145/283 443/147/283
f 444/145/283 445/158/283 446/159/283
f 449/149/280 447/145/280 448/146/280
f 448/146/280 450/150/280 449/149/280
f 453/150/280 451/146/280 452/138/280
f 452/138/280 454/137/280 453/150/280
f 552/184/286 550/185/287 551/186/288
f 583/187/289 582/188/289 581/189/289
f 457/190/290 455/191/291 456/192/292
f 456/192/292 458/193/293 457/190/290
f 479/194/294 477/195/295 478/196/296
f 480/197/297 479/194/294 478/196/296
f 478/196/296 483/198/298 480/197/297
f 484/199/299 480/197/297 483/198/298
f 483/198/298 487/200/300 484/199/299
f 488/201/301 484/199/299 487/200/300
f 487/200/300 491/202/302 488/201/301
f 492/203/303 488/201/301 491/202/302
f 491/202/302 495/204/304 492/203/303
f 496/205/305 492/203/303 495/204/304
f 495/204/304 499/206/306 496/205/305
f 500/207/307 496/205/305 499/206/306
f 499/206/306 503/208/308 500/207/307
f 504/209/309 500/207/307 503/208/308
f 503/208/308 507/210/310 504/209/309
f 508/211/311 504/209/309 507/210/310
f 507/210/310 511/212/312 508/211/311
f 512/213/313 508/211/311 511/212/312
f 511/212/312 515/214/314 512/213/313
f 516/215/315 512/213/313 515/214/314
f 515/214/314 519/216/316 516/215/315
f 520/217/317 516/215/315 519/216/316
f 519/216/316 523/218/318 520/217/317
f 524/219/319 520/217/317 523/218/318
f 523/218/318 462/220/320 524/219/319
f 460/221/321 524/219/319 462/220/320
f 462/220/320 461/222/322 460/221/321
f 459/223/323 460/221/321 461/222/322
f 461/222/322 469/224/324 459/223/323
f 470/225/325 459/223/323 469/224/324
f 469/224/324 473/226/326 470/225/325
f 473/226/326 474/227/327 470/225/325
f 474/227/327 535/228/328 470/225/325
f 535/228/328 534/229/329 470/225/325
f 459/223/323 470/225/325 534/229/329
f 534/229/329 532/230/330 459/223/323
f 460/221/321 459/223/323 532/230/330
f 532/230/330 533/231/331 460/221/321
f 524/219/319 460/221/321 533/231/331
f 533/231/331 543/232/332 524/219/319
f 520/217/317 524/219/319 543/232/332
f 543/232/332 542/233/333 520/217/317
f 516/215/315 520/217/317 542/233/333
f 542/233/333 541/234/334 516/215/315
f 512/213/313 516/215/315 541/234/334
f 541/234/334 540/235/335 512/213/313
f 508/211/311 512/213/313 540/235/335
f 540/235/335 539/236/336 508/211/311
f 504/209/309 508/211/311 539/236/336
f 539/236/336 538/237/337 504/209/309
f 500/207/307 504/209/309 538/237/337
f 538/237/337 537/238/338 500/207/307
f 496/205/305 500/207/307 537/238/338
f 537/238/338 531/239/339 496/205/305
f 492/203/303 496/205/305 531/239/339
f 531/239/339 529/240/340 492/203/303
f 488/201/301 492/203/303 529/240/340
f 529/240/340 527/241/341 488/201/301
f 484/199/299 488/201/301 527/241/341
f 527/241/341 528/242/342 484/199/299
f 480/197/297 484/199/299 528/242/342
f 528/242/342 530/243/343 480/197/297
f 479/194/294 480/197/297 530/243/343
f 530/243/343 536/244/344 479/194/294
f 548/184/345 546/186/346 547/245/347
f 547/245/347 549/246/348 548/184/345
f 555/184/211 554/247/211 553/248/209
f 554/247/211 555/184/211 556/185/209
f 559/249/349 557/250/350 558/188/349
f 558/188/349 560/189/351 559/249/349
f 563/247/352 562/251/352 561/248/210
f 562/251/352 563/247/352 564/252/45
f 567/253/50 566/251/353 565/254/52
f 566/251/353 567/253/50 568/248/186
f 571/255/354 570/187/355 569/189/356
f 570/187/355 571/255/354 572/256/357
f 575/257/358 574/258/359 573/259/360
f 574/258/359 575/257/358 576/260/361
f 579/255/362 578/258/48 577/261/363
f 578/258/48 579/255/362 580/259/362
f 586/255/355 585/262/364 584/256/356
f 585/262/364 586/255/355 587/261/365
f 590/263/366 588/264/367 589/265/366
f 589/265/366 591/266/367 590/263/366
f 594/266/368 592/265/369 593/191/370
f 593/191/370 595/190/371 594/266/368
f 598/193/372 596/192/373 597/267/53
f 597/267/53 599/268/374 598/193/372
f 602/269/375 600/270/376 601/271/377
f 601/271/377 603/272/378 602/269/375
f 606/273/379 604/274/380 605/264/381
f 605/264/381 607/263/382 606/273/379
f 610/269/383 608/272/360 609/274/384
f 609/274/384 611/273/385 610/269/383
f 614/136/386 613/138/387 612/137/356
f 613/138/387 614/136/386 615/139/356
f 618/140/388 616/142/389 617/141/365
f 617/141/365 619/143/390 618/140/388
f 622/144/391 621/145/391 620/146/391
f 621/145/391 622/144/391 623/147/391
f 626/148/391 624/149/391 625/150/391
f 625/150/391 627/151/391 626/148/391
f 630/149/392 628/141/393 629/142/394
f 629/142/394 631/145/395 630/149/392
f 634/152/396 633/150/397 632/151/398
f 633/150/397 634/152/396 635/153/399
f 638/148/400 636/154/401 637/155/402
f 637/155/402 639/149/403 638/148/400
f 642/144/404 641/156/405 640/157/406
f 641/156/405 642/144/404 643/146/407
f 646/158/408 644/147/409 645/145/410
f 645/145/410 647/159/411 646/158/408
f 650/149/412 648/145/413 649/146/414
f 649/146/414 651/150/415 650/149/412
f 654/150/416 652/146/417 653/138/418
f 653/138/418 655/137/419 654/150/416
f 658/136/356 657/138/357 656/137/354
f 657/138/357 658/136/356 659/139/387
f 662/140/46 661/141/211 660/142/45
f 661/141/211 662/140/46 663/143/211
f 666/144/199 665/145/199 664/146/199
f 665/145/199 666/144/199 667/147/199
f 670/148/199 668/149/199 669/150/199
f 669/150/199 671/151/199 670/148/199
f 674/149/420 672/141/421 673/142/422
f 673/142/422 675/145/423 674/149/420
f 678/152/398 677/150/399 676/151/399
f 677/150/399 678/152/398 679/153/398
f 682/148/424 680/154/425 681/155/402
f 681/155/402 683/149/426 682/148/424
f 686/144/427 685/156/428 684/157/428
f 685/156/428 686/144/427 687/146/428
f 690/158/429 689/145/430 688/147/431
f 689/145/430 690/158/429 691/159/432
f 694/149/433 692/145/434 693/146/435
f 693/146/435 695/150/433 694/149/433
f 698/150/395 696/146/436 697/138/437
f 697/138/437 699/137/438 698/150/395
f 465/275/439 463/276/440 464/277/441
f 466/278/442 465/275/439 464/277/441
f 464/277/441 522/279/443 466/278/442
f 521/280/444 466/278/442 522/279/443
f 522/279/443 518/281/445 521/280/444
f 517/282/446 521/280/444 518/281/445
f 518/281/445 514/283/447 517/282/446
f 513/284/448 517/282/446 514/283/447
f 514/283/447 510/285/449 513/284/448
f 509/286/450 513/284/448 510/285/449
f 510/285/449 506/287/451 509/286/450
f 505/288/452 509/286/450 506/287/451
f 506/287/451 502/289/453 505/288/452
f 501/290/454 505/288/452 502/289/453
f 502/289/453 498/291/455 501/290/454
f 497/292/456 501/290/454 498/291/455
f 498/291/455 494/293/457 497/292/456
f 493/294/458 497/292/456 494/293/457
f 494/293/457 490/295/459 493/294/458
f 489/296/460 493/294/458 490/295/459
f 490/295/459 486/297/461 489/296/460
f 485/298/462 489/296/460 486/297/461
f 486/297/461 482/299/463 485/298/462
f 481/300/464 485/298/462 482/299/463
f 482/299/463 476/301/465 481/300/464
f 475/302/466 481/300/464 476/301/465
f 476/301/465 472/303/467 475/302/466
f 471/304/468 475/302/466 472/303/467
f 472/303/467 468/305/469 471/304/468
f 467/306/470 471/304/468 468/305/469
f 468/305/469 463/276/440 467/306/470
f 463/276/440 465/275/439 467/306/470
f 545/249/471 467/306/470 465/275/439
f 465/275/439 466/278/442 545/249/471
f 466/278/442 521/280/444 545/249/471
f 521/280/444 517/282/446 545/249/471
f 517/282/446 513/284/448 545/249/471
f 544/250/472 545/249/471 513/284/448
f 513/284/448 509/286/450 544/250/472
f 509/286/450 505/288/452 544/250/472
f 505/288/452 501/290/454 544/250/472
f 501/290/454 497/292/456 544/250/472
f 526/245/473 544/250/472 497/292/456
f 497/292/456 493/294/458 526/245/473
f 493/294/458 489/296/460 526/245/473
f 489/296/460 485/298/462 526/245/473
f 485/298/462 481/300/464 526/245/473
f 525/246/414 526/245/473 481/300/464
f 481/300/464 475/302/466 525/246/414
f 475/302/466 471/304/468 525/246/414
f 471/304/468 467/306/470 525/246/414
f 545/249/471 525/246/414 467/306/470
f 738/142/474 736/145/475 737/307/476
f 745/149/477 743/141/478 744/308/479
f 752/137/480 751/309/480 750/150/480
f 759/146/481 757/138/482 758/310/483
f 814/142/484 812/145/485 813/307/486
f 821/149/487 820/308/488 819/141/487
f 828/137/489 826/150/490 827/309/491
f 835/146/492 834/310/492 833/138/492
f 702/136/284 700/137/284 701/138/284
f 701/138/284 703/139/284 702/136/284
f 706/140/284 705/141/284 704/142/284
f 705/141/284 706/140/284 707/143/284
f 710/144/493 709/145/493 708/146/494
f 709/145/493 710/144/493 711/147/494
f 714/148/495 712/149/496 713/150/497
f 713/150/497 715/151/498 714/148/495
f 718/152/499 716/151/500 717/150/501
f 717/150/501 719/153/500 718/152/499
f 722/148/502 720/154/503 721/155/502
f 721/155/502 723/149/504 722/148/502
f 726/144/502 725/156/502 724/157/505
f 725/156/502 726/144/502 727/146/502
f 730/158/500 729/145/500 728/147/500
f 729/145/500 730/158/500 731/159/500
f 734/145/506 732/146/507 733/310/508
f 733/310/508 735/307/481 734/145/506
f 741/141/509 739/142/510 740/307/511
f 740/307/511 742/308/512 741/141/509
f 748/150/513 746/149/514 747/308/515
f 747/308/515 749/309/481 748/150/513
f 755/138/481 753/137/481 754/309/516
f 754/309/516 756/310/517 755/138/481
f 762/307/518 760/310/519 761/310/520
f 761/310/520 763/307/521 762/307/518
f 766/308/284 764/307/284 765/307/284
f 765/307/284 767/308/284 766/308/284
f 770/309/494 769/308/522 768/308/521
f 769/308/522 770/309/494 771/309/494
f 774/310/284 773/309/284 772/309/284
f 773/309/284 774/310/284 775/310/284
f 778/136/523 777/138/356 776/137/356
f 777/138/356 778/136/523 779/139/289
f 782/140/524 780/142/525 781/141/526
f 781/141/526 783/143/527 782/140/524
f 786/144/528 785/145/529 784/146/530
f 785/145/529 786/144/528 787/147/530
f 790/148/531 788/149/532 789/150/531
f 789/150/531 791/151/532 790/148/531
f 794/152/533 792/151/534 793/150/533
f 793/150/533 795/153/535 794/152/533
f 798/148/536 796/154/537 797/155/538
f 797/155/538 799/149/539 798/148/536
f 802/144/540 801/156/541 800/157/542
f 801/156/541 802/144/540 803/146/543
f 806/158/544 805/145/545 804/147/546
f 805/145/545 806/158/544 807/159/546
f 810/145/547 808/146/548 809/310/549
f 809/310/549 811/307/550 810/145/547
f 817/141/551 815/142/552 816/307/553
f 816/307/553 818/308/554 817/141/551
f 824/150/555 822/149/556 823/308/557
f 823/308/557 825/309/551 824/150/555
f 831/138/558 829/137/559 830/309/560
f 830/309/560 832/310/561 831/138/558
f 838/307/532 836/310/562 837/310/563
f 837/310/563 839/307/564 838/307/532
f 842/308/364 841/307/356 840/307/523
f 841/307/356 842/308/364 843/308/289
f 846/309/565 845/308/566 844/308/567
f 845/308/566 846/309/565 847/309/566
f 850/310/568 848/309/569 849/309/570
f 849/309/570 851/310/571 850/310/568
