# Blender 4.5.3 LTS
# www.blender.org
o w9a02_neon746
v -5.356819 0.734720 2.150488
v -5.355237 0.734692 2.158334
v -5.364759 0.725744 2.150487
v -5.362485 0.725744 2.161331
v -5.355236 0.734688 2.142625
v -5.362472 0.725744 2.139625
v -5.350797 0.734723 2.135945
v -5.356416 0.725744 2.130321
v -5.344123 0.734693 2.131511
v -5.347127 0.725744 2.124254
v -5.336269 0.734724 2.129931
v -5.336270 0.725744 2.121977
v -5.325413 0.725744 2.124279
v -5.328412 0.734689 2.131517
v -5.316118 0.725744 2.130345
v -5.321734 0.734720 2.135959
v -5.310060 0.725744 2.139622
v -5.317306 0.734692 2.142626
v -5.307791 0.725744 2.150443
v -5.315725 0.734719 2.150456
v -5.310120 0.725744 2.161236
v -5.317301 0.734670 2.158285
v -5.316217 0.725744 2.170454
v -5.321734 0.734677 2.164960
v -5.325502 0.725744 2.176475
v -5.328428 0.734636 2.169411
v -5.336310 0.734676 2.170997
v -5.336327 0.725744 2.178780
v -5.344162 0.734667 2.169413
v -5.347147 0.725744 2.176568
v -5.350818 0.734717 2.164989
v -5.356433 0.725744 2.170585
v -5.368577 0.713184 2.150503
v -5.364759 0.725744 2.150487
v -5.365997 0.713184 2.162803
v -5.362485 0.725744 2.161331
v -5.365982 0.713184 2.138184
v -5.362472 0.725744 2.139625
v -5.359114 0.713184 2.127630
v -5.356416 0.725744 2.130321
v -5.348577 0.713184 2.120749
v -5.347127 0.725744 2.124254
v -5.336263 0.713184 2.118167
v -5.336270 0.725744 2.121977
v -5.323949 0.713184 2.120777
v -5.325413 0.725744 2.124279
v -5.313410 0.713184 2.127660
v -5.316118 0.725744 2.130345
v -5.306536 0.713184 2.138180
v -5.310060 0.725744 2.139622
v -5.303963 0.713184 2.150453
v -5.306536 0.713184 2.138180
v -5.306604 0.713184 2.162696
v -5.313518 0.713184 2.173150
v -5.324050 0.713184 2.179980
v -5.336327 0.713184 2.182594
v -5.348609 0.713184 2.180089
v -5.359133 0.713184 2.173299
v -5.365997 0.713184 2.162803
v -5.336273 0.739747 2.150476
vn 0.8956 -0.4448 -0.0000
vn 0.8278 -0.4452 -0.3413
vn 0.8841 -0.2901 -0.3664
vn 0.9568 -0.2907 0.0002
vn 0.8278 -0.4452 0.3413
vn 0.8856 -0.2880 0.3644
vn 0.6333 -0.4449 0.6333
vn 0.6777 -0.2899 0.6758
vn 0.3431 -0.4449 0.8273
vn 0.3667 -0.2884 0.8845
vn -0.0000 -0.4448 0.8956
vn -0.0003 -0.2902 0.9570
vn -0.3431 -0.4449 0.8273
vn -0.3667 -0.2883 0.8845
vn -0.6333 -0.4449 0.6333
vn -0.6766 -0.2906 0.6765
vn -0.8272 -0.4449 0.3432
vn -0.8840 -0.2901 0.3666
vn 0.6743 -0.2915 -0.6785
vn 0.8840 -0.2901 -0.3667
vn 0.8277 -0.4454 -0.3413
vn 0.6313 -0.4450 -0.6352
vn 0.4096 -0.8132 -0.4135
vn 0.5391 -0.8119 -0.2240
vn 0.8956 -0.4450 -0.0000
vn 0.5820 -0.8132 -0.0000
vn 0.8277 -0.4454 0.3413
vn 0.5393 -0.8119 0.2236
vn 0.6332 -0.4451 0.6332
vn 0.4113 -0.8132 0.4117
vn 0.3430 -0.4451 0.8272
vn 0.2235 -0.8126 0.5383
vn -0.0000 -0.4449 0.8956
vn -0.0004 -0.8132 0.5820
vn -0.2236 -0.8119 0.5393
vn -0.3430 -0.4450 0.8272
vn -0.4115 -0.8132 0.4115
vn -0.6332 -0.4451 0.6332
vn -0.5393 -0.8119 0.2235
vn -0.8272 -0.4450 0.3430
vn -0.5820 -0.8132 -0.0000
vn -0.8956 -0.4449 -0.0019
vn -0.8841 -0.2901 0.3665
vn -0.9569 -0.2903 -0.0020
vn -0.8261 -0.4444 -0.3465
vn -0.8821 -0.2901 -0.3711
vn -0.6310 -0.4429 -0.6369
vn -0.6738 -0.2900 -0.6797
vn -0.3431 -0.4411 -0.8293
vn -0.3668 -0.2883 -0.8845
vn -0.0020 -0.4425 -0.8968
vn -0.0039 -0.2906 -0.9568
vn 0.3390 -0.4449 -0.8289
vn 0.3613 -0.2903 -0.8861
vn 0.2215 -0.8114 -0.5409
vn -0.0000 -1.0000 0.0001
vn -0.5391 -0.8115 -0.2254
vn -0.4115 -0.8112 -0.4154
vn -0.2234 -0.8095 -0.5429
vn -0.0020 -0.8116 -0.5842
vt 0.072754 0.328125
vt 0.057037 0.253906
vt 0.072754 0.327637
vt 0.116943 0.389648
vt 0.116943 0.389160
vt 0.180176 0.430664
vt 0.254639 0.442871
vt 0.328613 0.427246
vt 0.328613 0.426758
vt 0.389648 0.382812
vt 0.389648 0.382324
vt 0.430908 0.319336
vt 0.430908 0.318848
vt 0.442871 0.244629
vt 0.442871 0.244141
vt 0.069214 0.179199
vt 0.069214 0.179688
vt 0.144531 0.208496
vt 0.137085 0.251953
vt 0.146606 0.295410
vt 0.172119 0.331543
vt 0.209351 0.354980
vt 0.252686 0.362793
vt 0.295654 0.353027
vt 0.331787 0.327637
vt 0.355469 0.290039
vt 0.362793 0.246582
vt 0.353271 0.203613
vt 0.427246 0.170898
vt 0.427246 0.170410
vt 0.383057 0.109863
vt 0.319824 0.069336
vt 0.319824 0.068848
vt 0.245361 0.057129
vt 0.171753 0.072754
vt 0.110474 0.116699
vt 0.110474 0.116211
vt 0.168213 0.171387
vt 0.250000 0.249512
vt 0.328125 0.167480
vt 0.290771 0.144043
vt 0.247314 0.136230
vt 0.204102 0.145996
s 1
f 34/1/1 36/2/2 35/2/3
f 35/2/3 33/3/4 34/1/1
f 38/4/5 34/1/1 33/3/4
f 33/3/4 37/5/6 38/4/5
f 40/6/7 38/4/5 37/5/6
f 37/5/6 39/6/8 40/6/7
f 42/7/9 40/6/7 39/6/8
f 39/6/8 41/7/10 42/7/9
f 44/8/11 42/7/9 41/7/10
f 41/7/10 43/9/12 44/8/11
f 46/10/13 44/8/11 43/9/12
f 43/9/12 45/11/14 46/10/13
f 48/12/15 46/10/13 45/11/14
f 45/11/14 47/13/16 48/12/15
f 50/14/17 48/12/15 47/13/16
f 47/13/16 49/15/18 50/14/17
f 58/16/19 59/2/20 4/2/21
f 32/17/22 58/16/19 4/2/21
f 31/18/23 32/17/22 4/2/21
f 2/19/24 31/18/23 4/2/21
f 4/2/21 3/1/25 2/19/24
f 1/20/26 2/19/24 3/1/25
f 3/1/25 6/4/27 1/20/26
f 5/21/28 1/20/26 6/4/27
f 6/4/27 8/6/29 5/21/28
f 7/22/30 5/21/28 8/6/29
f 8/6/29 10/7/31 7/22/30
f 9/23/32 7/22/30 10/7/31
f 10/7/31 12/8/33 9/23/32
f 11/24/34 9/23/32 12/8/33
f 14/25/35 11/24/34 12/8/33
f 12/8/33 13/10/36 14/25/35
f 16/26/37 14/25/35 13/10/36
f 13/10/36 15/12/38 16/26/37
f 18/27/39 16/26/37 15/12/38
f 15/12/38 17/14/40 18/27/39
f 20/28/41 18/27/39 17/14/40
f 19/29/42 20/28/41 17/14/40
f 17/14/40 52/15/43 19/29/42
f 52/15/43 51/30/44 19/29/42
f 21/31/45 19/29/42 51/30/44
f 51/30/44 53/31/46 21/31/45
f 23/32/47 21/31/45 53/31/46
f 53/31/46 54/33/48 23/32/47
f 25/34/49 23/32/47 54/33/48
f 54/33/48 55/34/50 25/34/49
f 28/35/51 25/34/49 55/34/50
f 55/34/50 56/35/52 28/35/51
f 30/36/53 28/35/51 56/35/52
f 56/35/52 57/37/54 30/36/53
f 32/17/22 30/36/53 57/37/54
f 57/37/54 58/16/19 32/17/22
f 29/38/55 30/36/53 32/17/22
f 32/17/22 31/18/23 29/38/55
f 60/39/56 29/38/55 31/18/23
f 31/18/23 2/19/24 60/39/56
f 2/19/24 1/20/26 60/39/56
f 1/20/26 5/21/28 60/39/56
f 5/21/28 7/22/30 60/39/56
f 7/22/30 9/23/32 60/39/56
f 9/23/32 11/24/34 60/39/56
f 11/24/34 14/25/35 60/39/56
f 14/25/35 16/26/37 60/39/56
f 16/26/37 18/27/39 60/39/56
f 18/27/39 20/28/41 60/39/56
f 22/40/57 60/39/56 20/28/41
f 20/28/41 19/29/42 22/40/57
f 19/29/42 21/31/45 22/40/57
f 24/41/58 22/40/57 21/31/45
f 21/31/45 23/32/47 24/41/58
f 26/42/59 24/41/58 23/32/47
f 23/32/47 25/34/49 26/42/59
f 27/43/60 26/42/59 25/34/49
f 25/34/49 28/35/51 27/43/60
f 28/35/51 30/36/53 27/43/60
f 30/36/53 29/38/55 27/43/60
f 29/38/55 60/39/56 27/43/60
f 26/42/59 27/43/60 60/39/56
f 24/41/58 26/42/59 60/39/56
f 60/39/56 22/40/57 24/41/58
