# Blender 5.1.0
# www.blender.org
o w9a02_metalwall705
v -5.270914 0.660597 -1.540342
v -4.449979 0.660597 -3.522790
v -5.257923 0.643628 -1.527359
v -4.431613 0.643628 -3.522788
v -5.302268 0.643628 -1.508986
v -5.302266 0.660597 -1.527352
v -5.257923 0.643628 -1.527359
v -5.270914 0.660597 -1.540342
v -5.302268 0.643628 -1.508986
v -5.880871 0.643628 -1.748586
v -5.302266 0.660597 -1.527352
v -5.872147 0.660597 -1.763340
v -5.880871 0.643628 -1.748586
v -5.906449 0.651674 -1.759178
v -5.872147 0.660597 -1.763340
v -5.893438 0.667295 -1.772156
v -4.462970 0.660597 -3.554142
v -4.449979 0.660597 -3.522790
v -5.302266 0.660597 -1.527352
v -5.270914 0.660597 -1.540342
v -4.462970 0.660597 -3.554142
v -4.449987 0.643628 -3.567133
v -4.449979 0.660597 -3.522790
v -4.431613 0.643628 -3.522788
v -5.032850 0.660597 -3.790131
v -4.462970 0.660597 -3.554142
v -5.872147 0.660597 -1.763340
v -5.302266 0.660597 -1.527352
v -6.299478 0.946301 -1.940298
v -5.893438 0.667295 -1.772156
v -6.310526 0.929332 -1.926507
v -5.906449 0.651674 -1.759178
v -6.310526 0.929332 -1.926507
v -6.329807 0.929331 -1.934491
v -6.299478 0.946301 -1.940298
v -6.316823 0.946301 -1.947481
v -5.032850 0.660597 -3.790131
v -5.872147 0.660597 -1.763340
v -5.054142 0.667294 -3.798948
v -5.893438 0.667295 -1.772156
v -5.054168 0.651674 -3.817325
v -5.028590 0.643628 -3.806733
v -5.054142 0.667294 -3.798948
v -5.032850 0.660597 -3.790131
v -5.028590 0.643628 -3.806733
v -4.449987 0.643628 -3.567133
v -5.032850 0.660597 -3.790131
v -4.462970 0.660597 -3.554142
v -6.329807 0.929331 -1.934491
v -6.348180 0.929331 -1.978834
v -6.316823 0.946301 -1.947481
v -6.329813 0.946301 -1.978834
v -6.299478 0.946301 -1.940298
v -5.460181 0.946300 -3.967089
v -5.893438 0.667295 -1.772156
v -5.054142 0.667294 -3.798948
v -5.477527 0.946300 -3.974272
v -5.460181 0.946300 -3.967089
v -6.316823 0.946301 -1.947481
v -6.299478 0.946301 -1.940298
v -6.348180 0.929331 -1.978834
v -5.521869 0.929331 -3.974266
v -6.329813 0.946301 -1.978834
v -5.508880 0.946300 -3.961281
v -5.458245 0.929332 -3.984653
v -5.054168 0.651674 -3.817325
v -5.460181 0.946300 -3.967089
v -5.054142 0.667294 -3.798948
v -5.460181 0.946300 -3.967089
v -5.477527 0.946300 -3.974272
v -5.458245 0.929332 -3.984653
v -5.477526 0.929331 -3.992638
v -6.329813 0.946301 -1.978834
v -5.508880 0.946300 -3.961281
v -6.316823 0.946301 -1.947481
v -5.477527 0.946300 -3.974272
v -5.521869 0.929331 -3.974266
v -5.477526 0.929331 -3.992638
v -5.508880 0.946300 -3.961281
v -5.477527 0.946300 -3.974272
vn -0.6527 -0.7077 -0.2705
vn -0.6528 -0.7076 -0.2705
vn -0.2705 -0.7078 -0.6526
vn -0.2705 -0.7077 -0.6527
vn -0.2704 -0.7079 -0.6525
vn 0.2705 -0.7077 -0.6527
vn 0.2705 -0.7076 -0.6527
vn 0.2705 -0.7077 -0.6526
vn 0.0882 -0.6786 -0.7292
vn 0.0882 -0.6783 -0.7295
vn 0.0882 -0.6787 -0.7291
vn -0.0000 -1.0000 -0.0000
vn -0.6526 -0.7078 0.2705
vn -0.6528 -0.7076 0.2705
vn -0.6527 -0.7077 0.2705
vn -0.0784 -0.5979 -0.7978
vn -0.0783 -0.5979 -0.7977
vn -0.0785 -0.5978 -0.7978
vn 0.2705 -0.7078 -0.6526
vn -0.2567 -0.9607 -0.1058
vn -0.2569 -0.9606 -0.1060
vn -0.2568 -0.9606 -0.1059
vn -0.2568 -0.9607 -0.1058
vn -0.4529 -0.6786 0.5783
vn -0.4529 -0.6784 0.5785
vn -0.4529 -0.6784 0.5784
vn -0.2705 -0.7076 0.6528
vn -0.2705 -0.7077 0.6527
vn -0.2705 -0.7078 0.6526
vn 0.6527 -0.7077 -0.2705
vn 0.6528 -0.7076 -0.2705
vn 0.6526 -0.7078 -0.2705
vn -0.4956 -0.8443 -0.2038
vn -0.4956 -0.8443 -0.2037
vn -0.4956 -0.8443 -0.2039
vn 0.6528 -0.7076 0.2705
vn 0.6527 -0.7077 0.2705
vn 0.6525 -0.7078 0.2705
vn 0.6529 -0.7075 0.2705
vn -0.6210 -0.5975 0.5074
vn -0.6209 -0.5974 0.5075
vn -0.6210 -0.5975 0.5073
vn -0.2705 -0.7076 0.6527
vn 0.2705 -0.7077 0.6527
vt -0.332764 0.603027
vt -0.330566 0.608154
vt 0.332031 0.608154
vt 0.334229 0.603027
vt -0.343262 0.613525
vt -0.337891 0.615479
vt -0.343262 0.806763
vt -0.337891 0.806030
vt -0.343262 0.815308
vt -0.337891 0.813110
vt 0.339355 0.615479
vt 0.344727 0.613525
vt 0.339355 0.806030
vt -0.343262 0.950348
vt -0.337891 0.948822
vt -0.343262 0.956787
vt -0.337891 0.954620
vt 0.339355 0.813110
vt 0.344727 0.815308
vt 0.344727 0.806763
vt -0.332764 0.967255
vt -0.330566 0.962036
vt 0.339355 0.948822
vt 0.339355 0.954620
vt 0.334229 0.967255
vt 0.332031 0.962036
vt 0.344727 0.950348
vt 0.344727 0.956787
s 1
f 3/1/1 1/2/1 2/3/2
f 2/3/2 4/4/1 3/1/1
f 7/1/3 5/5/4 6/6/3
f 6/6/3 8/2/5 7/1/3
f 11/6/6 9/5/7 10/7/7
f 10/7/7 12/8/8 11/6/6
f 15/8/9 13/7/10 14/9/10
f 14/9/10 16/10/11 15/8/9
f 19/6/12 17/11/12 18/3/12
f 18/3/12 20/2/12 19/6/12
f 23/3/13 21/11/14 22/12/14
f 22/12/14 24/4/15 23/3/13
f 27/8/12 25/13/12 26/11/12
f 26/11/12 28/6/12 27/8/12
f 31/14/16 29/15/17 30/10/16
f 30/10/16 32/9/18 31/14/16
f 35/15/6 33/14/6 34/16/19
f 34/16/19 36/17/6 35/15/6
f 39/18/20 37/13/21 38/8/22
f 38/8/22 40/10/23 39/18/20
f 43/18/24 41/19/25 42/20/26
f 42/20/26 44/13/26 43/18/24
f 47/13/27 45/20/28 46/12/27
f 46/12/27 48/11/29 47/13/27
f 51/17/30 49/16/30 50/21/31
f 50/21/31 52/22/32 51/17/30
f 55/10/33 53/15/33 54/23/34
f 54/23/34 56/18/35 55/10/33
f 59/17/12 57/24/12 58/23/12
f 58/23/12 60/15/12 59/17/12
f 63/22/36 61/21/37 62/25/38
f 62/25/38 64/26/39 63/22/36
f 67/23/40 65/27/40 66/19/41
f 66/19/41 68/18/42 67/23/40
f 71/27/29 69/23/28 70/24/28
f 70/24/28 72/28/43 71/27/29
f 75/17/12 73/22/12 74/26/12
f 74/26/12 76/24/12 75/17/12
f 79/26/44 77/25/44 78/28/44
f 78/28/44 80/24/44 79/26/44
