# Blender 4.5.3 LTS
# www.blender.org
o w9a02_drum01
v -6.121700 -0.016095 -4.082662
v -6.607111 -0.016095 -3.729990
v -6.036476 -0.016095 -3.915401
v -6.254439 -0.016095 -4.215401
v -6.121700 -0.016095 -4.082662
v -6.421700 -0.016095 -4.300624
v -6.254439 -0.016095 -4.215401
v -6.607111 -0.016095 -4.329991
v -6.421700 -0.016095 -4.300624
v -6.792521 -0.016095 -4.300624
v -6.607111 -0.016095 -3.729990
v -6.607111 -0.016095 -4.329991
v -6.959783 -0.016095 -4.215401
v -6.792521 -0.016095 -4.300624
v -7.092521 -0.016095 -4.082662
v -6.959783 -0.016095 -4.215401
v -7.177745 -0.016095 -3.915401
v -7.092521 -0.016095 -4.082662
v -7.207111 -0.016095 -3.729990
v -7.177745 -0.016095 -3.915401
v -7.177745 -0.016095 -3.544580
v -7.207111 -0.016095 -3.729990
v -7.092521 -0.016095 -3.377319
v -7.177745 -0.016095 -3.544580
v -6.959782 -0.016095 -3.244580
v -7.092521 -0.016095 -3.377319
v -6.792521 -0.016095 -3.159357
v -6.959782 -0.016095 -3.244580
v -6.607111 -0.016095 -3.129990
v -6.792521 -0.016095 -3.159357
v -6.421700 -0.016095 -3.159357
v -6.607111 -0.016095 -3.129990
v -6.254440 -0.016095 -3.244580
v -6.421700 -0.016095 -3.159357
v -6.121700 -0.016095 -3.377319
v -6.254440 -0.016095 -3.244580
v -6.036477 -0.016095 -3.544580
v -6.121700 -0.016095 -3.377319
v -6.007111 -0.016095 -3.729990
v -6.036477 -0.016095 -3.544580
v -6.036476 -0.016095 -3.915401
v -6.007111 -0.016095 -3.729990
v -6.036476 -0.016095 -3.915401
v -6.036476 1.783905 -3.915401
v -6.121700 -0.016095 -4.082662
v -6.121700 1.783905 -4.082662
v -6.254439 -0.016095 -4.215401
v -6.254439 1.783906 -4.215401
v -6.421700 -0.016095 -4.300624
v -6.421700 1.783906 -4.300624
v -6.607111 -0.016095 -4.329991
v -6.607111 1.783906 -4.329991
v -6.792521 -0.016095 -4.300624
v -6.792521 1.783906 -4.300624
v -6.959783 -0.016095 -4.215401
v -6.959783 1.783906 -4.215401
v -7.092521 -0.016095 -4.082662
v -7.092521 1.783905 -4.082662
v -7.177745 -0.016095 -3.915401
v -7.177745 1.783905 -3.915401
v -7.207111 -0.016095 -3.729990
v -7.207111 1.783905 -3.729990
v -7.177745 -0.016095 -3.544580
v -7.177745 1.783905 -3.544580
v -7.092521 -0.016095 -3.377319
v -7.092521 1.783905 -3.377319
v -6.959782 -0.016095 -3.244580
v -6.959782 1.783905 -3.244580
v -6.792521 -0.016095 -3.159357
v -6.792521 1.783905 -3.159357
v -6.607111 -0.016095 -3.129990
v -6.607111 1.783905 -3.129990
v -6.421700 -0.016095 -3.159357
v -6.421700 1.783905 -3.159357
v -6.254440 -0.016095 -3.244580
v -6.254440 1.783905 -3.244580
v -6.121700 -0.016095 -3.377319
v -6.121700 1.783905 -3.377319
v -6.036477 -0.016095 -3.544580
v -6.036477 1.783905 -3.544580
v -6.007111 -0.016095 -3.729990
v -6.007111 1.783905 -3.729990
v -6.036476 -0.016095 -3.915401
v -6.036476 1.783905 -3.915401
v -6.036476 1.783905 -3.915401
v -6.070741 1.783905 -3.904268
v -6.121700 1.783905 -4.082662
v -6.150846 1.783905 -4.061485
v -6.150846 1.783905 -4.061485
v -6.254439 1.783906 -4.215401
v -6.275616 1.783906 -4.186254
v -6.275616 1.783906 -4.186254
v -6.421700 1.783906 -4.300624
v -6.432833 1.783906 -4.266361
v -6.432833 1.783906 -4.266361
v -6.607111 1.783906 -4.329991
v -6.607111 1.783906 -4.293963
v -6.607111 1.783906 -4.293963
v -6.792521 1.783906 -4.300624
v -6.781388 1.783906 -4.266361
v -6.781388 1.783906 -4.266361
v -6.959783 1.783906 -4.215401
v -6.938606 1.783906 -4.186254
v -6.938606 1.783906 -4.186254
v -7.092521 1.783905 -4.082662
v -7.063375 1.783905 -4.061485
v -7.063375 1.783905 -4.061485
v -7.177745 1.783905 -3.915401
v -7.143481 1.783905 -3.904267
v -7.143481 1.783905 -3.904267
v -7.207111 1.783905 -3.729990
v -7.171083 1.783905 -3.729990
v -7.171083 1.783905 -3.729990
v -7.177745 1.783905 -3.544580
v -7.143481 1.783905 -3.555713
v -7.143481 1.783905 -3.555713
v -7.092521 1.783905 -3.377319
v -7.063375 1.783905 -3.398495
v -7.063375 1.783905 -3.398495
v -6.959782 1.783905 -3.244580
v -6.938606 1.783905 -3.273727
v -6.938606 1.783905 -3.273727
v -6.792521 1.783905 -3.159357
v -6.781388 1.783905 -3.193620
v -6.781388 1.783905 -3.193620
v -6.607111 1.783905 -3.129990
v -6.607111 1.783905 -3.166018
v -6.607111 1.783905 -3.166018
v -6.421700 1.783905 -3.159357
v -6.432833 1.783905 -3.193620
v -6.432833 1.783905 -3.193620
v -6.254440 1.783905 -3.244580
v -6.275616 1.783905 -3.273727
v -6.275616 1.783905 -3.273727
v -6.121700 1.783905 -3.377319
v -6.150847 1.783905 -3.398495
v -6.150847 1.783905 -3.398495
v -6.036477 1.783905 -3.544580
v -6.070741 1.783905 -3.555713
v -6.070741 1.783905 -3.555713
v -6.007111 1.783905 -3.729990
v -6.043138 1.783905 -3.729990
v -6.043138 1.783905 -3.729990
v -6.036476 1.783905 -3.915401
v -6.070741 1.783905 -3.904268
v -6.070741 1.783905 -3.904268
v -6.070741 1.319085 -3.904265
v -6.150846 1.783905 -4.061485
v -6.150846 1.319085 -4.061485
v -6.150846 1.783905 -4.061485
v -6.150846 1.319085 -4.061485
v -6.275616 1.783906 -4.186254
v -6.275616 1.319085 -4.186254
v -6.275616 1.783906 -4.186254
v -6.275616 1.319085 -4.186254
v -6.432833 1.783906 -4.266361
v -6.432833 1.319085 -4.266362
v -6.432833 1.783906 -4.266361
v -6.432833 1.319085 -4.266362
v -6.607111 1.783906 -4.293963
v -6.607111 1.319085 -4.293964
v -6.607111 1.783906 -4.293963
v -6.607111 1.319085 -4.293964
v -6.781388 1.783906 -4.266361
v -6.781388 1.319085 -4.266361
v -6.781388 1.783906 -4.266361
v -6.781388 1.319085 -4.266361
v -6.938606 1.783906 -4.186254
v -6.938606 1.319085 -4.186253
v -6.938606 1.783906 -4.186254
v -6.938606 1.319085 -4.186253
v -7.063375 1.783905 -4.061485
v -7.063375 1.319085 -4.061488
v -7.063375 1.783905 -4.061485
v -7.063375 1.319085 -4.061488
v -7.143481 1.783905 -3.904267
v -7.143481 1.319085 -3.904267
v -7.143481 1.783905 -3.904267
v -7.143481 1.319085 -3.904267
v -7.171083 1.783905 -3.729990
v -7.171083 1.319085 -3.729990
v -7.171083 1.783905 -3.729990
v -7.171083 1.319085 -3.729990
v -7.143481 1.783905 -3.555713
v -7.143481 1.319085 -3.555713
v -7.143481 1.783905 -3.555713
v -7.143481 1.319085 -3.555713
v -7.063375 1.783905 -3.398495
v -7.063375 1.319085 -3.398495
v -7.063375 1.783905 -3.398495
v -7.063375 1.319085 -3.398495
v -6.938606 1.783905 -3.273727
v -6.938606 1.319085 -3.273727
v -6.938606 1.783905 -3.273727
v -6.938606 1.319085 -3.273727
v -6.781388 1.783905 -3.193620
v -6.781388 1.319085 -3.193620
v -6.781388 1.783905 -3.193620
v -6.781388 1.319085 -3.193620
v -6.607111 1.783905 -3.166018
v -6.607111 1.319085 -3.166016
v -6.607111 1.783905 -3.166018
v -6.607111 1.319085 -3.166016
v -6.432833 1.783905 -3.193620
v -6.432833 1.319085 -3.193622
v -6.432833 1.783905 -3.193620
v -6.432833 1.319085 -3.193622
v -6.275616 1.783905 -3.273727
v -6.275616 1.319085 -3.273724
v -6.275616 1.783905 -3.273727
v -6.275616 1.319085 -3.273724
v -6.150847 1.783905 -3.398495
v -6.150847 1.319085 -3.398495
v -6.150847 1.783905 -3.398495
v -6.150847 1.319085 -3.398495
v -6.070741 1.783905 -3.555713
v -6.070741 1.319085 -3.555713
v -6.070741 1.783905 -3.555713
v -6.070741 1.319085 -3.555713
v -6.043138 1.783905 -3.729990
v -6.043138 1.319085 -3.729990
v -6.043138 1.783905 -3.729990
v -6.043138 1.319085 -3.729990
v -6.070741 1.783905 -3.904268
v -6.070741 1.319085 -3.904265
v -2.322940 -0.012145 14.457634
v -2.808351 -0.012145 14.810306
v -2.237716 -0.012145 14.624896
v -2.455679 -0.012145 14.324897
v -2.322940 -0.012145 14.457634
v -2.622940 -0.012145 14.239672
v -2.455679 -0.012145 14.324897
v -2.808351 -0.012145 14.210306
v -2.622940 -0.012145 14.239672
v -2.993761 -0.012145 14.239672
v -2.808351 -0.012145 14.810306
v -2.808351 -0.012145 14.210306
v -3.161022 -0.012145 14.324897
v -2.993761 -0.012145 14.239672
v -3.293761 -0.012145 14.457636
v -3.161022 -0.012145 14.324897
v -3.378985 -0.012145 14.624896
v -3.293761 -0.012145 14.457636
v -3.408350 -0.012145 14.810306
v -3.378985 -0.012145 14.624896
v -3.378985 -0.012145 14.995715
v -3.408350 -0.012145 14.810306
v -3.293761 -0.012145 15.162976
v -3.378985 -0.012145 14.995715
v -3.161022 -0.012145 15.295715
v -3.293761 -0.012145 15.162976
v -2.993761 -0.012145 15.380939
v -3.161022 -0.012145 15.295715
v -2.808351 -0.012145 15.410306
v -2.993761 -0.012145 15.380939
v -2.622941 -0.012145 15.380939
v -2.808351 -0.012145 15.410306
v -2.455680 -0.012145 15.295715
v -2.622941 -0.012145 15.380939
v -2.322940 -0.012145 15.162976
v -2.455680 -0.012145 15.295715
v -2.237717 -0.012145 14.995715
v -2.322940 -0.012145 15.162976
v -2.208351 -0.012145 14.810306
v -2.237717 -0.012145 14.995715
v -2.237716 -0.012145 14.624896
v -2.208351 -0.012145 14.810306
v -2.237716 -0.012145 14.624896
v -2.237716 1.787855 14.624896
v -2.322940 -0.012145 14.457634
v -2.322940 1.787855 14.457634
v -2.455679 -0.012145 14.324897
v -2.455679 1.787855 14.324897
v -2.622940 -0.012145 14.239672
v -2.622940 1.787855 14.239672
v -2.808351 -0.012145 14.210306
v -2.808351 1.787855 14.210306
v -2.993761 -0.012145 14.239672
v -2.993761 1.787855 14.239672
v -3.161022 -0.012145 14.324897
v -3.161022 1.787855 14.324897
v -3.293761 -0.012145 14.457636
v -3.293761 1.787855 14.457636
v -3.378985 -0.012145 14.624896
v -3.378985 1.787855 14.624896
v -3.408350 -0.012145 14.810306
v -3.408350 1.787855 14.810306
v -3.378985 -0.012145 14.995715
v -3.378985 1.787855 14.995715
v -3.293761 -0.012145 15.162976
v -3.293761 1.787855 15.162976
v -3.161022 -0.012145 15.295715
v -3.161022 1.787855 15.295715
v -2.993761 -0.012145 15.380939
v -2.993761 1.787855 15.380939
v -2.808351 -0.012145 15.410306
v -2.808351 1.787855 15.410306
v -2.622941 -0.012145 15.380939
v -2.622941 1.787855 15.380939
v -2.455680 -0.012145 15.295715
v -2.455680 1.787855 15.295715
v -2.322940 -0.012145 15.162976
v -2.322940 1.787855 15.162976
v -2.237717 -0.012145 14.995715
v -2.237717 1.787855 14.995715
v -2.208351 -0.012145 14.810306
v -2.208351 1.787855 14.810306
v -2.237716 -0.012145 14.624896
v -2.237716 1.787855 14.624896
v -2.237716 1.787855 14.624896
v -2.271980 1.787855 14.636029
v -2.322940 1.787855 14.457634
v -2.352087 1.787855 14.478812
v -2.352087 1.787855 14.478812
v -2.455679 1.787855 14.324897
v -2.476856 1.787855 14.354042
v -2.476856 1.787855 14.354042
v -2.622940 1.787855 14.239672
v -2.634073 1.787855 14.273935
v -2.634073 1.787855 14.273935
v -2.808351 1.787855 14.210306
v -2.808351 1.787855 14.246333
v -2.808351 1.787855 14.246333
v -2.993761 1.787855 14.239672
v -2.982628 1.787855 14.273935
v -2.982628 1.787855 14.273935
v -3.161022 1.787855 14.324897
v -3.139846 1.787855 14.354042
v -3.139846 1.787855 14.354042
v -3.293761 1.787855 14.457636
v -3.264614 1.787855 14.478812
v -3.264614 1.787855 14.478812
v -3.378985 1.787855 14.624896
v -3.344721 1.787855 14.636029
v -3.344721 1.787855 14.636029
v -3.408350 1.787855 14.810306
v -3.372324 1.787855 14.810306
v -3.372324 1.787855 14.810306
v -3.378985 1.787855 14.995715
v -3.344721 1.787855 14.984583
v -3.344721 1.787855 14.984583
v -3.293761 1.787855 15.162976
v -3.264614 1.787855 15.141800
v -3.264614 1.787855 15.141800
v -3.161022 1.787855 15.295715
v -3.139846 1.787855 15.266568
v -3.139846 1.787855 15.266568
v -2.993761 1.787855 15.380939
v -2.982628 1.787855 15.346677
v -2.982628 1.787855 15.346677
v -2.808351 1.787855 15.410306
v -2.808351 1.787855 15.374278
v -2.808351 1.787855 15.374278
v -2.622941 1.787855 15.380939
v -2.634073 1.787855 15.346677
v -2.634073 1.787855 15.346677
v -2.455680 1.787855 15.295715
v -2.476856 1.787855 15.266568
v -2.476856 1.787855 15.266568
v -2.322940 1.787855 15.162976
v -2.352087 1.787855 15.141800
v -2.352087 1.787855 15.141800
v -2.237717 1.787855 14.995715
v -2.271981 1.787855 14.984583
v -2.271981 1.787855 14.984583
v -2.208351 1.787855 14.810306
v -2.244378 1.787855 14.810306
v -2.244378 1.787855 14.810306
v -2.237716 1.787855 14.624896
v -2.271980 1.787855 14.636029
v -2.271980 1.787855 14.636029
v -2.271980 1.323035 14.636031
v -2.352087 1.787855 14.478812
v -2.352087 1.323035 14.478812
v -2.352087 1.787855 14.478812
v -2.352087 1.323035 14.478812
v -2.476856 1.787855 14.354042
v -2.476856 1.323035 14.354042
v -2.476856 1.787855 14.354042
v -2.476856 1.323035 14.354042
v -2.634073 1.787855 14.273935
v -2.634073 1.323035 14.273935
v -2.634073 1.787855 14.273935
v -2.634073 1.323035 14.273935
v -2.808351 1.787855 14.246333
v -2.808351 1.323035 14.246332
v -2.808351 1.787855 14.246333
v -2.808351 1.323035 14.246332
v -2.982628 1.787855 14.273935
v -2.982628 1.323035 14.273935
v -2.982628 1.787855 14.273935
v -2.982628 1.323035 14.273935
v -3.139846 1.787855 14.354042
v -3.139846 1.323035 14.354044
v -3.139846 1.787855 14.354042
v -3.139846 1.323035 14.354044
v -3.264614 1.787855 14.478812
v -3.264614 1.323035 14.478808
v -3.264614 1.787855 14.478812
v -3.264614 1.323035 14.478808
v -3.344721 1.787855 14.636029
v -3.344721 1.323035 14.636029
v -3.344721 1.787855 14.636029
v -3.344721 1.323035 14.636029
v -3.372324 1.787855 14.810306
v -3.372324 1.323035 14.810306
v -3.372324 1.787855 14.810306
v -3.372324 1.323035 14.810306
v -3.344721 1.787855 14.984583
v -3.344721 1.323035 14.984583
v -3.344721 1.787855 14.984583
v -3.344721 1.323035 14.984583
v -3.264614 1.787855 15.141800
v -3.264614 1.323034 15.141800
v -3.264614 1.787855 15.141800
v -3.264614 1.323034 15.141800
v -3.139846 1.787855 15.266568
v -3.139846 1.323034 15.266568
v -3.139846 1.787855 15.266568
v -3.139846 1.323034 15.266568
v -2.982628 1.787855 15.346677
v -2.982628 1.323034 15.346677
v -2.982628 1.787855 15.346677
v -2.982628 1.323034 15.346677
v -2.808351 1.787855 15.374278
v -2.808351 1.323034 15.374280
v -2.808351 1.787855 15.374278
v -2.808351 1.323034 15.374280
v -2.634073 1.787855 15.346677
v -2.634073 1.323034 15.346674
v -2.634073 1.787855 15.346677
v -2.634073 1.323034 15.346674
v -2.476856 1.787855 15.266568
v -2.476856 1.323034 15.266571
v -2.476856 1.787855 15.266568
v -2.476856 1.323034 15.266571
v -2.352087 1.787855 15.141800
v -2.352087 1.323034 15.141800
v -2.352087 1.787855 15.141800
v -2.352087 1.323034 15.141800
v -2.271981 1.787855 14.984583
v -2.271981 1.323035 14.984583
v -2.271981 1.787855 14.984583
v -2.271981 1.323035 14.984583
v -2.244378 1.787855 14.810306
v -2.244378 1.323035 14.810306
v -2.244378 1.787855 14.810306
v -2.244378 1.323035 14.810306
v -2.271980 1.787855 14.636029
v -2.271980 1.323035 14.636031
v 5.343309 -0.012145 9.609629
v 5.343309 1.787855 9.609629
v 5.522923 -0.012145 9.555056
v 5.522923 1.787855 9.555056
v 5.676882 -0.012145 9.447650
v 5.676882 1.787855 9.447650
v 5.790115 -0.012145 9.297925
v 5.790115 1.787855 9.297925
v 5.851540 -0.012145 9.120538
v 5.851540 1.787855 9.120538
v 5.855142 -0.012145 8.932851
v 5.855142 1.787855 8.932851
v 5.800569 -0.012145 8.753237
v 5.800569 1.787855 8.753237
v 5.693163 -0.012145 8.599277
v 5.693163 1.787855 8.599277
v 5.543439 -0.012145 8.486045
v 5.543439 1.787855 8.486045
v 5.366051 -0.012145 8.424621
v 5.366051 1.787855 8.424621
v 5.178364 -0.012145 8.421018
v 5.178364 1.787855 8.421018
v 4.998750 -0.012145 8.475591
v 4.998750 1.787855 8.475591
v 4.844791 -0.012145 8.582996
v 4.844791 1.787855 8.582996
v 4.731558 -0.012145 8.732721
v 4.731558 1.787855 8.732721
v 4.670134 -0.012145 8.910109
v 4.670134 1.787855 8.910109
v 4.666532 -0.012145 9.097795
v 4.666532 1.787855 9.097795
v 4.721104 -0.012145 9.277409
v 4.721104 1.787855 9.277409
v 4.828510 -0.012145 9.431369
v 4.828510 1.787855 9.431369
v 4.978234 -0.012145 9.544601
v 4.978234 1.787855 9.544601
v 5.155622 -0.012145 9.606026
v 5.155622 1.787855 9.606026
v 5.343309 -0.012145 9.609629
v 5.343309 1.787855 9.609629
v 5.343309 1.787855 9.609629
v 5.338357 1.787855 9.573943
v 5.522923 1.787855 9.555056
v 5.507185 1.787855 9.522647
v 5.507185 1.787855 9.522647
v 5.676882 1.787855 9.447650
v 5.651900 1.787855 9.421691
v 5.651900 1.787855 9.421691
v 5.790115 1.787855 9.297925
v 5.758335 1.787855 9.280956
v 5.758335 1.787855 9.280956
v 5.851540 1.787855 9.120538
v 5.816071 1.787855 9.114220
v 5.816071 1.787855 9.114220
v 5.855142 1.787855 8.932851
v 5.819456 1.787855 8.937802
v 5.819456 1.787855 8.937802
v 5.800569 1.787855 8.753237
v 5.768160 1.787855 8.768973
v 5.768160 1.787855 8.768973
v 5.693163 1.787855 8.599277
v 5.667204 1.787855 8.624259
v 5.667204 1.787855 8.624259
v 5.543439 1.787855 8.486045
v 5.526469 1.787855 8.517825
v 5.526469 1.787855 8.517825
v 5.366051 1.787855 8.424621
v 5.359733 1.787855 8.460090
v 5.359733 1.787855 8.460090
v 5.178364 1.787855 8.421018
v 5.183316 1.787855 8.456703
v 5.183316 1.787855 8.456703
v 4.998750 1.787855 8.475591
v 5.014487 1.787855 8.507999
v 5.014487 1.787855 8.507999
v 4.844791 1.787855 8.582996
v 4.869773 1.787855 8.608955
v 4.869773 1.787855 8.608955
v 4.731558 1.787855 8.732721
v 4.763339 1.787855 8.749690
v 4.763339 1.787855 8.749690
v 4.670134 1.787855 8.910109
v 4.705603 1.787855 8.916427
v 4.705603 1.787855 8.916427
v 4.666532 1.787855 9.097795
v 4.702217 1.787855 9.092844
v 4.702217 1.787855 9.092844
v 4.721104 1.787855 9.277409
v 4.753513 1.787855 9.261672
v 4.753513 1.787855 9.261672
v 4.828510 1.787855 9.431369
v 4.854469 1.787855 9.406386
v 4.854469 1.787855 9.406386
v 4.978234 1.787855 9.544601
v 4.995203 1.787855 9.512821
v 4.995203 1.787855 9.512821
v 5.155622 1.787855 9.606026
v 5.161940 1.787855 9.570557
v 5.161940 1.787855 9.570557
v 5.343309 1.787855 9.609629
v 5.338357 1.787855 9.573943
v 5.338357 1.787855 9.573943
v 5.338355 1.323035 9.573943
v 5.507185 1.787855 9.522647
v 5.507185 1.323035 9.522647
v 5.507185 1.787855 9.522647
v 5.507185 1.323035 9.522647
v 5.651900 1.787855 9.421691
v 5.651900 1.323035 9.421691
v 5.651900 1.787855 9.421691
v 5.651900 1.323035 9.421691
v 5.758335 1.787855 9.280956
v 5.758336 1.323035 9.280956
v 5.758335 1.787855 9.280956
v 5.758336 1.323035 9.280956
v 5.816071 1.787855 9.114220
v 5.816072 1.323035 9.114220
v 5.816071 1.787855 9.114220
v 5.816072 1.323035 9.114220
v 5.819456 1.787855 8.937802
v 5.819456 1.323035 8.937802
v 5.819456 1.787855 8.937802
v 5.819456 1.323035 8.937802
v 5.768160 1.787855 8.768973
v 5.768159 1.323035 8.768973
v 5.768160 1.787855 8.768973
v 5.768159 1.323035 8.768973
v 5.667204 1.787855 8.624259
v 5.667206 1.323035 8.624260
v 5.667204 1.787855 8.624259
v 5.667206 1.323035 8.624260
v 5.526469 1.787855 8.517825
v 5.526469 1.323035 8.517825
v 5.526469 1.787855 8.517825
v 5.526469 1.323035 8.517825
v 5.359733 1.787855 8.460090
v 5.359733 1.323035 8.460090
v 5.359733 1.787855 8.460090
v 5.359733 1.323035 8.460090
v 5.183316 1.787855 8.456703
v 5.183316 1.323035 8.456703
v 5.183316 1.787855 8.456703
v 5.183316 1.323035 8.456703
v 5.014487 1.787855 8.507999
v 5.014487 1.323035 8.507999
v 5.014487 1.787855 8.507999
v 5.014487 1.323035 8.507999
v 4.869773 1.787855 8.608955
v 4.869773 1.323035 8.608955
v 4.869773 1.787855 8.608955
v 4.869773 1.323035 8.608955
v 4.763339 1.787855 8.749690
v 4.763339 1.323035 8.749690
v 4.763339 1.787855 8.749690
v 4.763339 1.323035 8.749690
v 4.705603 1.787855 8.916427
v 4.705602 1.323035 8.916427
v 4.705603 1.787855 8.916427
v 4.705602 1.323035 8.916427
v 4.702217 1.787855 9.092844
v 4.702219 1.323035 9.092844
v 4.702217 1.787855 9.092844
v 4.702219 1.323035 9.092844
v 4.753513 1.787855 9.261672
v 4.753510 1.323035 9.261672
v 4.753513 1.787855 9.261672
v 4.753510 1.323035 9.261672
v 4.854469 1.787855 9.406386
v 4.854469 1.323035 9.406386
v 4.854469 1.787855 9.406386
v 4.854469 1.323035 9.406386
v 4.995203 1.787855 9.512821
v 4.995203 1.323035 9.512821
v 4.995203 1.787855 9.512821
v 4.995203 1.323035 9.512821
v 5.161940 1.787855 9.570557
v 5.161940 1.323035 9.570557
v 5.161940 1.787855 9.570557
v 5.161940 1.323035 9.570557
v 5.338357 1.787855 9.573943
v 5.338355 1.323035 9.573943
vn -0.0000 1.0000 -0.0000
vn -0.8090 -0.0000 0.5878
vn -0.9514 -0.0000 0.3081
vn -0.5878 -0.0000 0.8090
vn -0.3082 -0.0000 0.9513
vn -0.3085 -0.0000 0.9512
vn -0.0000 -0.0000 1.0000
vn 0.3081 -0.0000 0.9514
vn 0.3082 -0.0000 0.9513
vn 0.5878 -0.0000 0.8090
vn 0.8090 -0.0000 0.5878
vn 0.9514 -0.0000 0.3080
vn 0.9513 -0.0000 0.3082
vn 1.0000 -0.0000 -0.0000
vn 0.9514 -0.0000 -0.3080
vn 0.9513 -0.0000 -0.3083
vn 0.8090 -0.0000 -0.5878
vn 0.5878 -0.0000 -0.8090
vn 0.3080 -0.0000 -0.9514
vn 0.3082 -0.0000 -0.9513
vn -0.0000 -0.0000 -1.0000
vn -0.3079 -0.0000 -0.9514
vn -0.3082 -0.0000 -0.9513
vn -0.5878 -0.0000 -0.8090
vn -0.8090 -0.0000 -0.5878
vn -0.9514 -0.0000 -0.3081
vn -1.0000 -0.0000 -0.0000
vn -0.9514 -0.0000 0.3078
vn -0.0000 -1.0000 -0.0000
vn 0.8091 -0.0000 -0.5876
vn 0.9514 -0.0000 -0.3081
vn 0.3081 -0.0000 -0.9514
vn 0.5876 -0.0000 -0.8091
vn 0.0001 -0.0000 -1.0000
vn 0.3078 -0.0000 -0.9514
vn 0.0002 -0.0000 -1.0000
vn -0.3078 -0.0000 -0.9514
vn -0.0001 -0.0000 -1.0000
vn -0.5876 -0.0001 -0.8091
vn -0.3081 -0.0000 -0.9514
vn -0.5876 -0.0000 -0.8092
vn -0.9514 0.0001 -0.3081
vn -0.8091 -0.0000 -0.5876
vn -1.0000 -0.0001 -0.0001
vn -0.9514 -0.0000 -0.3078
vn -0.9514 0.0001 -0.3078
vn -1.0000 -0.0000 -0.0001
vn -0.9514 -0.0001 0.3078
vn -1.0000 -0.0000 0.0001
vn -1.0000 0.0001 0.0001
vn -0.8091 -0.0000 0.5876
vn -0.8091 -0.0000 0.5877
vn -0.3081 -0.0000 0.9514
vn -0.5876 -0.0000 0.8091
vn -0.0001 -0.0000 1.0000
vn -0.3078 -0.0000 0.9514
vn 0.3078 -0.0000 0.9514
vn 0.0001 -0.0000 1.0000
vn 0.3079 -0.0000 0.9514
vn 0.5876 -0.0000 0.8091
vn 0.3081 0.0001 0.9514
vn 0.8089 -0.0000 0.5879
vn 0.9514 -0.0000 0.3081
vn 0.8091 -0.0000 0.5876
vn 1.0000 -0.0001 0.0001
vn 0.9514 -0.0000 0.3078
vn 1.0000 -0.0000 0.0001
vn 0.9514 -0.0000 -0.3078
vn 1.0000 -0.0000 -0.0001
vn -0.9514 -0.0001 0.3081
vn -0.3084 -0.0000 0.9513
vn 0.9513 -0.0000 0.3081
vn -0.3085 -0.0000 -0.9512
vn -0.3084 -0.0000 -0.9513
vn -0.9514 -0.0000 -0.3080
vn 0.5877 -0.0000 -0.8090
vn -0.5876 -0.0000 -0.8091
vn -0.5877 -0.0000 -0.8090
vn -0.5878 -0.0001 -0.8090
vn 0.3078 0.0001 0.9514
vn 0.5876 -0.0000 0.8092
vn 0.8091 0.0001 0.5877
vn -0.4368 -0.0000 -0.8996
vn -0.1372 -0.0000 -0.9905
vn -0.6934 -0.0000 -0.7205
vn -0.8821 -0.0000 -0.4710
vn -0.9847 -0.0000 -0.1743
vn -0.9847 -0.0000 -0.1742
vn -0.9905 -0.0000 0.1375
vn -0.8996 -0.0000 0.4368
vn -0.7205 -0.0000 0.6934
vn -0.4710 -0.0000 0.8821
vn -0.1742 -0.0000 0.9847
vn 0.1375 -0.0000 0.9905
vn 0.4368 -0.0000 0.8996
vn 0.6930 -0.0000 0.7209
vn 0.6934 -0.0000 0.7205
vn 0.8821 -0.0000 0.4710
vn 0.9847 -0.0000 0.1745
vn 0.9905 -0.0000 -0.1375
vn 0.9906 -0.0000 -0.1370
vn 0.8993 -0.0000 -0.4373
vn 0.8996 -0.0000 -0.4368
vn 0.7205 -0.0000 -0.6934
vn 0.4710 -0.0000 -0.8821
vn 0.1742 -0.0000 -0.9847
vn 0.1745 -0.0000 -0.9847
vn -0.1369 -0.0000 -0.9906
vn 0.4369 -0.0000 0.8995
vn 0.1372 -0.0000 0.9905
vn 0.4368 -0.0000 0.8995
vn 0.6932 -0.0000 0.7208
vn 0.4372 -0.0000 0.8994
vn 0.8823 -0.0000 0.4707
vn 0.6933 -0.0000 0.7206
vn 0.9847 -0.0000 0.1744
vn 0.8824 -0.0000 0.4705
vn 0.8824 -0.0000 0.4704
vn 0.9906 -0.0000 -0.1369
vn 0.9847 -0.0000 0.1741
vn 0.8995 -0.0000 -0.4369
vn 0.9905 -0.0000 -0.1372
vn 0.7208 -0.0000 -0.6932
vn 0.8994 -0.0000 -0.4371
vn 0.4708 -0.0000 -0.8823
vn 0.7206 -0.0000 -0.6933
vn 0.4707 -0.0000 -0.8823
vn 0.1744 -0.0000 -0.9847
vn 0.4705 -0.0000 -0.8824
vn 0.4704 -0.0000 -0.8824
vn 0.1741 -0.0000 -0.9847
vn -0.4369 -0.0000 -0.8995
vn -0.6932 -0.0000 -0.7208
vn -0.4372 -0.0000 -0.8994
vn -0.8823 -0.0000 -0.4707
vn -0.6934 -0.0000 -0.7206
vn -0.6933 -0.0000 -0.7206
vn -0.9847 -0.0000 -0.1744
vn -0.8824 -0.0000 -0.4705
vn -0.8824 0.0001 -0.4705
vn -0.9906 -0.0000 0.1369
vn -0.9847 -0.0000 -0.1741
vn -0.8995 -0.0000 0.4369
vn -0.9905 -0.0000 0.1372
vn -0.8995 -0.0000 0.4368
vn -0.7208 -0.0000 0.6932
vn -0.8994 -0.0000 0.4372
vn -0.8994 -0.0000 0.4371
vn -0.7208 -0.0000 0.6931
vn -0.4707 -0.0000 0.8823
vn -0.7206 -0.0000 0.6933
vn -0.4708 -0.0000 0.8823
vn -0.1744 -0.0001 0.9847
vn -0.4704 -0.0000 0.8824
vn -0.1744 -0.0000 0.9847
vn 0.1369 -0.0000 0.9906
vn -0.1741 -0.0000 0.9847
vt 0.464355 0.818970
vt 0.416016 0.843628
vt 0.511230 0.984375
vt 0.377441 0.882141
vt 0.352783 0.930603
vt 0.344238 0.984375
vt 0.015808 0.801636
vt 0.024323 0.855469
vt 0.182739 0.801636
vt 0.049042 0.903870
vt 0.087524 0.942352
vt 0.135986 0.967072
vt 0.189697 0.975586
vt 0.243530 0.967072
vt 0.291992 0.942352
vt 0.330322 0.903870
vt 0.355225 0.855469
vt 0.363770 0.801636
vt 0.691895 0.984375
vt 0.683594 0.930603
vt 0.658691 0.882141
vt 0.620605 0.843628
vt 0.571777 0.818970
vt 0.518066 0.810425
vt 0.048065 0.018555
vt 0.000000 0.018555
vt 0.000000 0.580078
vt 0.047729 0.580078
vt 0.098267 0.018555
vt 0.097961 0.580078
vt 0.148438 0.018555
vt 0.148193 0.580078
vt 0.198608 0.018555
vt 0.198364 0.580078
vt 0.248779 0.018555
vt 0.248535 0.580078
vt 0.298828 0.018555
vt 0.298828 0.580078
vt 0.349121 0.018555
vt 0.348877 0.580078
vt 0.399414 0.018555
vt 0.399170 0.580078
vt 0.449463 0.018555
vt 0.449463 0.580078
vt 0.499756 0.018555
vt 0.499512 0.580078
vt 0.549805 0.018555
vt 0.549805 0.580078
vt 0.600098 0.018555
vt 0.600586 0.580078
vt 0.650391 0.018555
vt 0.650391 0.580078
vt 0.700195 0.018555
vt 0.700684 0.580078
vt 0.750488 0.018555
vt 0.750488 0.580078
vt 0.800781 0.018555
vt 0.800781 0.580078
vt 0.851074 0.018555
vt 0.851074 0.580078
vt 0.900879 0.018555
vt 0.901367 0.580078
vt 0.951172 0.018555
vt 0.951660 0.580078
vt 1.000000 0.018555
vt 1.000000 0.580078
vt 0.000000 0.599854
vt 0.047394 0.599854
vt 0.097656 0.599854
vt 0.147827 0.599854
vt 0.198120 0.599854
vt 0.248291 0.599854
vt 0.298584 0.599854
vt 0.348877 0.599854
vt 0.399170 0.599854
vt 0.449219 0.599854
vt 0.499512 0.599854
vt 0.549805 0.599854
vt 0.601562 0.599854
vt 0.650391 0.599854
vt 0.700684 0.599854
vt 0.750977 0.599854
vt 0.801270 0.599854
vt 0.851562 0.599854
vt 0.901367 0.599854
vt 0.951660 0.599854
vt 1.000000 0.599854
vt 0.047394 0.790894
vt 0.000000 0.790894
vt 0.000000 0.610596
vt 0.047394 0.610596
vt 0.097656 0.790894
vt 0.097656 0.610596
vt 0.147827 0.790894
vt 0.147827 0.610596
vt 0.198120 0.790894
vt 0.198120 0.610596
vt 0.248291 0.790894
vt 0.248291 0.610596
vt 0.298584 0.790894
vt 0.298584 0.610596
vt 0.348877 0.790894
vt 0.348877 0.610596
vt 0.399170 0.790894
vt 0.399170 0.610596
vt 0.449219 0.790894
vt 0.449219 0.610596
vt 0.499512 0.790894
vt 0.499512 0.610596
vt 0.549805 0.790894
vt 0.549805 0.610596
vt 0.601562 0.790894
vt 0.601562 0.610596
vt 0.650391 0.790894
vt 0.650391 0.610596
vt 0.700684 0.790894
vt 0.700684 0.610596
vt 0.750977 0.790894
vt 0.750977 0.610596
vt 0.801270 0.790894
vt 0.801270 0.610596
vt 0.851562 0.790894
vt 0.851562 0.610596
vt 0.901367 0.790894
vt 0.901367 0.610596
vt 0.951660 0.790894
vt 0.951660 0.610596
vt 1.000000 0.790894
vt 1.000000 0.610596
s 1
f 3/1/1 1/2/1 2/3/1
f 5/2/1 4/4/1 2/3/1
f 7/4/1 6/5/1 2/3/1
f 9/5/1 8/6/1 2/3/1
f 12/7/1 10/8/1 11/9/1
f 14/8/1 13/10/1 11/9/1
f 16/10/1 15/11/1 11/9/1
f 18/11/1 17/12/1 11/9/1
f 20/12/1 19/13/1 11/9/1
f 22/13/1 21/14/1 11/9/1
f 24/14/1 23/15/1 11/9/1
f 26/15/1 25/16/1 11/9/1
f 28/16/1 27/17/1 11/9/1
f 30/17/1 29/18/1 11/9/1
f 32/19/1 31/20/1 2/3/1
f 34/20/1 33/21/1 2/3/1
f 36/21/1 35/22/1 2/3/1
f 38/22/1 37/23/1 2/3/1
f 40/23/1 39/24/1 2/3/1
f 42/24/1 41/1/1 2/3/1
f 228/1/1 226/2/1 227/3/1
f 230/2/1 229/4/1 227/3/1
f 232/4/1 231/5/1 227/3/1
f 234/5/1 233/6/1 227/3/1
f 237/7/1 235/8/1 236/9/1
f 239/8/1 238/10/1 236/9/1
f 241/10/1 240/11/1 236/9/1
f 243/11/1 242/12/1 236/9/1
f 245/12/1 244/13/1 236/9/1
f 247/13/1 246/14/1 236/9/1
f 249/14/1 248/15/1 236/9/1
f 251/15/1 250/16/1 236/9/1
f 253/16/1 252/17/1 236/9/1
f 255/17/1 254/18/1 236/9/1
f 257/19/1 256/20/1 227/3/1
f 259/20/1 258/21/1 227/3/1
f 261/21/1 260/22/1 227/3/1
f 263/22/1 262/23/1 227/3/1
f 265/23/1 264/24/1 227/3/1
f 267/24/1 266/1/1 227/3/1
f 45/25/2 43/26/3 44/27/3
f 44/27/3 46/28/2 45/25/2
f 47/29/4 45/25/2 46/28/2
f 46/28/2 48/30/4 47/29/4
f 49/31/5 47/29/4 48/30/4
f 48/30/4 50/32/6 49/31/5
f 51/33/7 49/31/5 50/32/6
f 50/32/6 52/34/7 51/33/7
f 53/35/8 51/33/7 52/34/7
f 52/34/7 54/36/9 53/35/8
f 55/37/10 53/35/8 54/36/9
f 54/36/9 56/38/10 55/37/10
f 57/39/11 55/37/10 56/38/10
f 56/38/10 58/40/11 57/39/11
f 59/41/12 57/39/11 58/40/11
f 58/40/11 60/42/13 59/41/12
f 61/43/14 59/41/12 60/42/13
f 60/42/13 62/44/14 61/43/14
f 63/45/15 61/43/14 62/44/14
f 62/44/14 64/46/16 63/45/15
f 65/47/17 63/45/15 64/46/16
f 64/46/16 66/48/17 65/47/17
f 67/49/18 65/47/17 66/48/17
f 66/48/17 68/50/18 67/49/18
f 69/51/19 67/49/18 68/50/18
f 68/50/18 70/52/20 69/51/19
f 71/53/21 69/51/19 70/52/20
f 70/52/20 72/54/21 71/53/21
f 73/55/22 71/53/21 72/54/21
f 72/54/21 74/56/23 73/55/22
f 75/57/24 73/55/22 74/56/23
f 74/56/23 76/58/24 75/57/24
f 77/59/25 75/57/24 76/58/24
f 76/58/24 78/60/25 77/59/25
f 79/61/26 77/59/25 78/60/25
f 78/60/25 80/62/26 79/61/26
f 81/63/27 79/61/26 80/62/26
f 80/62/26 82/64/27 81/63/27
f 83/65/28 81/63/27 82/64/27
f 82/64/27 84/66/28 83/65/28
f 87/28/29 85/27/29 86/67/29
f 86/67/29 88/68/29 87/28/29
f 90/30/29 87/28/29 89/68/29
f 89/68/29 91/69/29 90/30/29
f 93/32/29 90/30/29 92/69/29
f 92/69/29 94/70/29 93/32/29
f 96/34/29 93/32/29 95/70/29
f 95/70/29 97/71/29 96/34/29
f 99/36/29 96/34/29 98/71/29
f 98/71/29 100/72/29 99/36/29
f 102/38/29 99/36/29 101/72/29
f 101/72/29 103/73/29 102/38/29
f 105/40/29 102/38/29 104/73/29
f 104/73/29 106/74/29 105/40/29
f 108/42/29 105/40/29 107/74/29
f 107/74/29 109/75/29 108/42/29
f 111/44/29 108/42/29 110/75/29
f 110/75/29 112/76/29 111/44/29
f 114/46/29 111/44/29 113/76/29
f 113/76/29 115/77/29 114/46/29
f 117/48/29 114/46/29 116/77/29
f 116/77/29 118/78/29 117/48/29
f 120/50/29 117/48/29 119/78/29
f 119/78/29 121/79/29 120/50/29
f 123/52/29 120/50/29 122/79/29
f 122/79/29 124/80/29 123/52/29
f 126/54/29 123/52/29 125/80/29
f 125/80/29 127/81/29 126/54/29
f 129/56/29 126/54/29 128/81/29
f 128/81/29 130/82/29 129/56/29
f 132/58/29 129/56/29 131/82/29
f 131/82/29 133/83/29 132/58/29
f 135/60/29 132/58/29 134/83/29
f 134/83/29 136/84/29 135/60/29
f 138/62/29 135/60/29 137/84/29
f 137/84/29 139/85/29 138/62/29
f 141/64/29 138/62/29 140/85/29
f 140/85/29 142/86/29 141/64/29
f 144/66/29 141/64/29 143/86/29
f 143/86/29 145/87/29 144/66/29
f 148/88/30 146/89/31 147/90/31
f 147/90/31 149/91/30 148/88/30
f 152/92/18 150/88/17 151/91/17
f 151/91/17 153/93/18 152/92/18
f 156/94/32 154/92/33 155/93/33
f 155/93/33 157/95/32 156/94/32
f 160/96/34 158/94/35 159/95/35
f 159/95/35 161/97/36 160/96/34
f 164/98/37 162/96/38 163/97/38
f 163/97/38 165/99/37 164/98/37
f 168/100/39 166/98/40 167/99/40
f 167/99/40 169/101/41 168/100/39
f 172/102/25 170/100/24 171/101/24
f 171/101/24 173/103/25 172/102/25
f 176/104/42 174/102/43 175/103/43
f 175/103/43 177/105/26 176/104/42
f 180/106/44 178/104/45 179/105/46
f 179/105/46 181/107/47 180/106/44
f 184/108/48 182/106/49 183/107/50
f 183/107/50 185/109/28 184/108/48
f 188/110/51 186/108/3 187/109/3
f 187/109/3 189/111/51 188/110/51
f 192/112/4 190/110/52 191/111/2
f 191/111/2 193/113/4 192/112/4
f 196/114/53 194/112/54 195/113/54
f 195/113/54 197/115/53 196/114/53
f 200/116/55 198/114/56 199/115/56
f 199/115/56 201/117/55 200/116/55
f 204/118/57 202/116/58 203/117/58
f 203/117/58 205/119/59 204/118/57
f 208/120/60 206/118/8 207/119/61
f 207/119/61 209/121/60 208/120/60
f 212/122/11 210/120/10 211/121/10
f 211/121/10 213/123/62 212/122/11
f 216/124/63 214/122/64 215/123/64
f 215/123/64 217/125/63 216/124/63
f 220/126/65 218/124/66 219/125/66
f 219/125/66 221/127/67 220/126/65
f 224/128/68 222/126/69 223/127/69
f 223/127/69 225/129/68 224/128/68
f 270/25/2 268/26/70 269/27/3
f 269/27/3 271/28/2 270/25/2
f 272/29/4 270/25/2 271/28/2
f 271/28/2 273/30/4 272/29/4
f 274/31/5 272/29/4 273/30/4
f 273/30/4 275/32/71 274/31/5
f 276/33/7 274/31/5 275/32/71
f 275/32/71 277/34/7 276/33/7
f 278/35/9 276/33/7 277/34/7
f 277/34/7 279/36/9 278/35/9
f 280/37/10 278/35/9 279/36/9
f 279/36/9 281/38/10 280/37/10
f 282/39/11 280/37/10 281/38/10
f 281/38/10 283/40/11 282/39/11
f 284/41/72 282/39/11 283/40/11
f 283/40/11 285/42/12 284/41/72
f 286/43/14 284/41/72 285/42/12
f 285/42/12 287/44/14 286/43/14
f 288/45/15 286/43/14 287/44/14
f 287/44/14 289/46/31 288/45/15
f 290/47/17 288/45/15 289/46/31
f 289/46/31 291/48/17 290/47/17
f 292/49/18 290/47/17 291/48/17
f 291/48/17 293/50/18 292/49/18
f 294/51/20 292/49/18 293/50/18
f 293/50/18 295/52/20 294/51/20
f 296/53/21 294/51/20 295/52/20
f 295/52/20 297/54/21 296/53/21
f 298/55/73 296/53/21 297/54/21
f 297/54/21 299/56/74 298/55/73
f 300/57/24 298/55/73 299/56/74
f 299/56/74 301/58/24 300/57/24
f 302/59/25 300/57/24 301/58/24
f 301/58/24 303/60/25 302/59/25
f 304/61/75 302/59/25 303/60/25
f 303/60/25 305/62/75 304/61/75
f 306/63/27 304/61/75 305/62/75
f 305/62/75 307/64/27 306/63/27
f 308/65/28 306/63/27 307/64/27
f 307/64/27 309/66/28 308/65/28
f 312/28/29 310/27/29 311/67/29
f 311/67/29 313/68/29 312/28/29
f 315/30/29 312/28/29 314/68/29
f 314/68/29 316/69/29 315/30/29
f 318/32/29 315/30/29 317/69/29
f 317/69/29 319/70/29 318/32/29
f 321/34/29 318/32/29 320/70/29
f 320/70/29 322/71/29 321/34/29
f 324/36/29 321/34/29 323/71/29
f 323/71/29 325/72/29 324/36/29
f 327/38/29 324/36/29 326/72/29
f 326/72/29 328/73/29 327/38/29
f 330/40/29 327/38/29 329/73/29
f 329/73/29 331/74/29 330/40/29
f 333/42/29 330/40/29 332/74/29
f 332/74/29 334/75/29 333/42/29
f 336/44/29 333/42/29 335/75/29
f 335/75/29 337/76/29 336/44/29
f 339/46/29 336/44/29 338/76/29
f 338/76/29 340/77/29 339/46/29
f 342/48/29 339/46/29 341/77/29
f 341/77/29 343/78/29 342/48/29
f 345/50/29 342/48/29 344/78/29
f 344/78/29 346/79/29 345/50/29
f 348/52/29 345/50/29 347/79/29
f 347/79/29 349/80/29 348/52/29
f 351/54/29 348/52/29 350/80/29
f 350/80/29 352/81/29 351/54/29
f 354/56/29 351/54/29 353/81/29
f 353/81/29 355/82/29 354/56/29
f 357/58/29 354/56/29 356/82/29
f 356/82/29 358/83/29 357/58/29
f 360/60/29 357/58/29 359/83/29
f 359/83/29 361/84/29 360/60/29
f 363/62/29 360/60/29 362/84/29
f 362/84/29 364/85/29 363/62/29
f 366/64/29 363/62/29 365/85/29
f 365/85/29 367/86/29 366/64/29
f 369/66/29 366/64/29 368/86/29
f 368/86/29 370/87/29 369/66/29
f 373/88/30 371/89/31 372/90/31
f 372/90/31 374/91/30 373/88/30
f 377/92/18 375/88/17 376/91/17
f 376/91/17 378/93/76 377/92/18
f 381/94/32 379/92/33 380/93/33
f 380/93/33 382/95/32 381/94/32
f 385/96/34 383/94/35 384/95/35
f 384/95/35 386/97/34 385/96/34
f 389/98/37 387/96/38 388/97/38
f 388/97/38 390/99/37 389/98/37
f 393/100/77 391/98/40 392/99/40
f 392/99/40 394/101/77 393/100/77
f 397/102/25 395/100/78 396/101/79
f 396/101/79 398/103/25 397/102/25
f 401/104/26 399/102/43 400/103/43
f 400/103/43 402/105/26 401/104/26
f 405/106/47 403/104/45 404/105/45
f 404/105/45 406/107/47 405/106/47
f 409/108/28 407/106/49 408/107/49
f 408/107/49 410/109/28 409/108/28
f 413/110/51 411/108/3 412/109/3
f 412/109/3 414/111/51 413/110/51
f 417/112/4 415/110/2 416/111/2
f 416/111/2 418/113/4 417/112/4
f 421/114/53 419/112/54 420/113/54
f 420/113/54 422/115/53 421/114/53
f 425/116/55 423/114/56 424/115/56
f 424/115/56 426/117/55 425/116/55
f 429/118/80 427/116/58 428/117/58
f 428/117/58 430/119/59 429/118/80
f 433/120/81 431/118/8 432/119/8
f 432/119/8 434/121/60 433/120/81
f 437/122/82 435/120/10 436/121/10
f 436/121/10 438/123/62 437/122/82
f 441/124/63 439/122/64 440/123/64
f 440/123/64 442/125/63 441/124/63
f 445/126/67 443/124/66 444/125/66
f 444/125/66 446/127/67 445/126/67
f 449/128/68 447/126/69 448/127/69
f 448/127/69 450/129/68 449/128/68
f 453/25/83 451/26/84 452/27/84
f 452/27/84 454/28/83 453/25/83
f 455/29/85 453/25/83 454/28/83
f 454/28/83 456/30/85 455/29/85
f 457/31/86 455/29/85 456/30/85
f 456/30/85 458/32/86 457/31/86
f 459/33/87 457/31/86 458/32/86
f 458/32/86 460/34/88 459/33/87
f 461/35/89 459/33/87 460/34/88
f 460/34/88 462/36/89 461/35/89
f 463/37/90 461/35/89 462/36/89
f 462/36/89 464/38/90 463/37/90
f 465/39/91 463/37/90 464/38/90
f 464/38/90 466/40/91 465/39/91
f 467/41/92 465/39/91 466/40/91
f 466/40/91 468/42/92 467/41/92
f 469/43/93 467/41/92 468/42/92
f 468/42/92 470/44/93 469/43/93
f 471/45/94 469/43/93 470/44/93
f 470/44/93 472/46/94 471/45/94
f 473/47/95 471/45/94 472/46/94
f 472/46/94 474/48/95 473/47/95
f 475/49/96 473/47/95 474/48/95
f 474/48/95 476/50/97 475/49/96
f 477/51/98 475/49/96 476/50/97
f 476/50/97 478/52/98 477/51/98
f 479/53/99 477/51/98 478/52/98
f 478/52/98 480/54/99 479/53/99
f 481/55/100 479/53/99 480/54/99
f 480/54/99 482/56/101 481/55/100
f 483/57/102 481/55/100 482/56/101
f 482/56/101 484/58/103 483/57/102
f 485/59/104 483/57/102 484/58/103
f 484/58/103 486/60/104 485/59/104
f 487/61/105 485/59/104 486/60/104
f 486/60/104 488/62/105 487/61/105
f 489/63/106 487/61/105 488/62/105
f 488/62/105 490/64/107 489/63/106
f 491/65/108 489/63/106 490/64/107
f 490/64/107 492/66/108 491/65/108
f 495/28/29 493/27/29 494/67/29
f 494/67/29 496/68/29 495/28/29
f 498/30/29 495/28/29 497/68/29
f 497/68/29 499/69/29 498/30/29
f 501/32/29 498/30/29 500/69/29
f 500/69/29 502/70/29 501/32/29
f 504/34/29 501/32/29 503/70/29
f 503/70/29 505/71/29 504/34/29
f 507/36/29 504/34/29 506/71/29
f 506/71/29 508/72/29 507/36/29
f 510/38/29 507/36/29 509/72/29
f 509/72/29 511/73/29 510/38/29
f 513/40/29 510/38/29 512/73/29
f 512/73/29 514/74/29 513/40/29
f 516/42/29 513/40/29 515/74/29
f 515/74/29 517/75/29 516/42/29
f 519/44/29 516/42/29 518/75/29
f 518/75/29 520/76/29 519/44/29
f 522/46/29 519/44/29 521/76/29
f 521/76/29 523/77/29 522/46/29
f 525/48/29 522/46/29 524/77/29
f 524/77/29 526/78/29 525/48/29
f 528/50/29 525/48/29 527/78/29
f 527/78/29 529/79/29 528/50/29
f 531/52/29 528/50/29 530/79/29
f 530/79/29 532/80/29 531/52/29
f 534/54/29 531/52/29 533/80/29
f 533/80/29 535/81/29 534/54/29
f 537/56/29 534/54/29 536/81/29
f 536/81/29 538/82/29 537/56/29
f 540/58/29 537/56/29 539/82/29
f 539/82/29 541/83/29 540/58/29
f 543/60/29 540/58/29 542/83/29
f 542/83/29 544/84/29 543/60/29
f 546/62/29 543/60/29 545/84/29
f 545/84/29 547/85/29 546/62/29
f 549/64/29 546/62/29 548/85/29
f 548/85/29 550/86/29 549/64/29
f 552/66/29 549/64/29 551/86/29
f 551/86/29 553/87/29 552/66/29
f 556/88/109 554/89/110 555/90/110
f 555/90/110 557/91/111 556/88/109
f 560/92/112 558/88/113 559/91/113
f 559/91/113 561/93/112 560/92/112
f 564/94/114 562/92/115 563/93/115
f 563/93/115 565/95/114 564/94/114
f 568/96/116 566/94/117 567/95/118
f 567/95/118 569/97/116 568/96/116
f 572/98/119 570/96/120 571/97/120
f 571/97/120 573/99/119 572/98/119
f 576/100/121 574/98/122 575/99/122
f 575/99/122 577/101/121 576/100/121
f 580/102/123 578/100/124 579/101/124
f 579/101/124 581/103/123 580/102/123
f 584/104/125 582/102/126 583/103/126
f 583/103/126 585/105/127 584/104/125
f 588/106/128 586/104/129 587/105/130
f 587/105/130 589/107/128 588/106/128
f 592/108/108 590/106/131 591/107/131
f 591/107/131 593/109/108 592/108/108
f 596/110/132 594/108/84 595/109/84
f 595/109/84 597/111/132 596/110/132
f 600/112/133 598/110/134 599/111/134
f 599/111/134 601/113/133 600/112/133
f 604/114/135 602/112/136 603/113/137
f 603/113/137 605/115/135 604/114/135
f 608/116/138 606/114/139 607/115/140
f 607/115/140 609/117/138 608/116/138
f 612/118/141 610/116/142 611/117/142
f 611/117/142 613/119/141 612/118/141
f 616/120/143 614/118/144 615/119/144
f 615/119/144 617/121/145 616/120/143
f 620/122/146 618/120/147 619/121/148
f 619/121/148 621/123/149 620/122/146
f 624/124/150 622/122/151 623/123/151
f 623/123/151 625/125/152 624/124/150
f 628/126/153 626/124/154 627/125/154
f 627/125/154 629/127/155 628/126/153
f 632/128/156 630/126/157 631/127/157
f 631/127/157 633/129/156 632/128/156
