# Blender 4.5.3 LTS
# www.blender.org
o w9a02_neon748
v -5.535463 0.686414 -2.375015
v -5.539079 0.686391 -2.369572
v -5.540048 0.679085 -2.379599
v -5.544994 0.679085 -2.372025
v -5.530010 0.686388 -2.378642
v -5.532457 0.679085 -2.384552
v -5.523591 0.686416 -2.379937
v -5.523589 0.679085 -2.386429
v -5.517177 0.686392 -2.378645
v -5.514722 0.679085 -2.384570
v -5.511729 0.686417 -2.375024
v -5.507138 0.679085 -2.379618
v -5.502197 0.679085 -2.372021
v -5.508107 0.686388 -2.369572
v -5.500331 0.679085 -2.363152
v -5.506815 0.686414 -2.363152
v -5.502188 0.679085 -2.354298
v -5.508106 0.686391 -2.356746
v -5.507125 0.679085 -2.346740
v -5.511713 0.686413 -2.351311
v -5.514699 0.679085 -2.341851
v -5.517143 0.686373 -2.347701
v -5.523542 0.679085 -2.340048
v -5.523556 0.686378 -2.346405
v -5.532380 0.679085 -2.341930
v -5.529991 0.686345 -2.347699
v -5.535459 0.686378 -2.351332
v -5.539960 0.679085 -2.346847
v -5.539078 0.686371 -2.356779
v -5.544933 0.679085 -2.354371
v -5.540368 0.686411 -2.363177
v -5.546841 0.679085 -2.363187
v -5.542262 0.668829 -2.381793
v -5.540048 0.679085 -2.379599
v -5.547872 0.668829 -2.373202
v -5.544994 0.679085 -2.372025
v -5.533652 0.668829 -2.387410
v -5.532457 0.679085 -2.384552
v -5.523593 0.668829 -2.389540
v -5.523589 0.679085 -2.386429
v -5.513536 0.668829 -2.387432
v -5.514722 0.679085 -2.384570
v -5.504935 0.668829 -2.381814
v -5.507138 0.679085 -2.379618
v -5.499330 0.668829 -2.373198
v -5.502197 0.679085 -2.372021
v -5.497218 0.668829 -2.363140
v -5.500331 0.679085 -2.363152
v -5.499321 0.668829 -2.353096
v -5.502188 0.679085 -2.354298
v -5.504920 0.668829 -2.344523
v -5.499321 0.668829 -2.353096
v -5.513512 0.668829 -2.338978
v -5.523540 0.668829 -2.336933
v -5.533564 0.668829 -2.339068
v -5.542162 0.668829 -2.344646
v -5.547809 0.668829 -2.353182
v -5.549967 0.668829 -2.363178
v -5.547872 0.668829 -2.373202
v -5.523592 0.690518 -2.363162
vn 0.6333 -0.4449 0.6333
vn 0.8278 -0.4452 0.3414
vn 0.8846 -0.2903 0.3649
vn 0.6765 -0.2908 0.6766
vn 0.3431 -0.4449 0.8273
vn 0.3667 -0.2883 0.8845
vn -0.0000 -0.4448 0.8956
vn -0.0000 -0.2902 0.9570
vn -0.3413 -0.4452 0.8278
vn -0.3668 -0.2882 0.8845
vn -0.6332 -0.4450 0.6333
vn -0.6773 -0.2903 0.6760
vn -0.8278 -0.4452 0.3413
vn -0.8855 -0.2881 0.3645
vn -0.8957 -0.4447 -0.0000
vn -0.9568 -0.2906 0.0001
vn -0.8278 -0.4452 -0.3413
vn -0.8840 -0.2901 -0.3665
vn 0.9564 -0.2920 -0.0019
vn 0.8847 -0.2903 0.3648
vn 0.8278 -0.4453 0.3413
vn 0.8956 -0.4449 -0.0020
vn 0.5819 -0.8132 -0.0000
vn 0.5393 -0.8119 0.2236
vn 0.6332 -0.4451 0.6332
vn 0.4115 -0.8132 0.4115
vn 0.3430 -0.4450 0.8272
vn 0.2236 -0.8119 0.5393
vn -0.0000 -0.4450 0.8956
vn -0.0002 -0.8132 0.5820
vn -0.3413 -0.4454 0.8277
vn -0.2232 -0.8126 0.5384
vn -0.6332 -0.4451 0.6332
vn -0.4117 -0.8132 0.4113
vn -0.5395 -0.8123 0.2217
vn -0.8277 -0.4454 0.3413
vn -0.5820 -0.8132 -0.0000
vn -0.8955 -0.4450 -0.0000
vn -0.5393 -0.8119 -0.2236
vn -0.8277 -0.4453 -0.3413
vn -0.4099 -0.8139 -0.4118
vn -0.6313 -0.4450 -0.6352
vn -0.8840 -0.2901 -0.3666
vn -0.6745 -0.2916 -0.6782
vn -0.3390 -0.4449 -0.8290
vn -0.3615 -0.2901 -0.8861
vn 0.0020 -0.4425 -0.8968
vn 0.0039 -0.2902 -0.9570
vn 0.3431 -0.4411 -0.8293
vn 0.3667 -0.2885 -0.8845
vn 0.6310 -0.4429 -0.6369
vn 0.6738 -0.2901 -0.6796
vn 0.8261 -0.4444 -0.3465
vn 0.8823 -0.2902 -0.3706
vn 0.5390 -0.8116 -0.2254
vn -0.0000 -1.0000 -0.0001
vn -0.2210 -0.8114 -0.5411
vn 0.0020 -0.8116 -0.5842
vn 0.2234 -0.8095 -0.5429
vn 0.4115 -0.8112 -0.4154
vt 0.577148 0.326172
vt 0.562012 0.253906
vt 0.562012 0.253418
vt 0.577148 0.325684
vt 0.620117 0.386230
vt 0.620117 0.385742
vt 0.682129 0.426270
vt 0.682129 0.425781
vt 0.754395 0.437988
vt 0.826660 0.422852
vt 0.826660 0.422363
vt 0.886230 0.379395
vt 0.926270 0.317383
vt 0.937988 0.244629
vt 0.573730 0.181152
vt 0.646973 0.209473
vt 0.640137 0.251953
vt 0.649414 0.293945
vt 0.673828 0.329102
vt 0.710449 0.352539
vt 0.752441 0.359863
vt 0.794434 0.350586
vt 0.829590 0.325684
vt 0.853027 0.289062
vt 0.859863 0.246582
vt 0.851074 0.204590
vt 0.922852 0.172852
vt 0.922852 0.172363
vt 0.879883 0.113281
vt 0.817871 0.073730
vt 0.817871 0.073242
vt 0.745605 0.062012
vt 0.673828 0.077148
vt 0.613770 0.119629
vt 0.670410 0.173340
vt 0.750000 0.249512
vt 0.826172 0.169434
vt 0.790039 0.146484
vt 0.747559 0.139160
vt 0.705078 0.148438
s 1
f 34/1/1 36/2/2 35/3/3
f 35/3/3 33/4/4 34/1/1
f 38/5/5 34/1/1 33/4/4
f 33/4/4 37/6/6 38/5/5
f 40/7/7 38/5/5 37/6/6
f 37/6/6 39/8/8 40/7/7
f 42/9/9 40/7/7 39/8/8
f 39/8/8 41/9/10 42/9/9
f 44/10/11 42/9/9 41/9/10
f 41/9/10 43/11/12 44/10/11
f 46/12/13 44/10/11 43/11/12
f 43/11/12 45/12/14 46/12/13
f 48/13/15 46/12/13 45/12/14
f 45/12/14 47/13/16 48/13/15
f 50/14/17 48/13/15 47/13/16
f 47/13/16 49/14/18 50/14/17
f 58/15/19 59/3/20 4/2/21
f 32/15/22 58/15/19 4/2/21
f 31/16/23 32/15/22 4/2/21
f 2/17/24 31/16/23 4/2/21
f 4/2/21 3/1/25 2/17/24
f 1/18/26 2/17/24 3/1/25
f 3/1/25 6/5/27 1/18/26
f 5/19/28 1/18/26 6/5/27
f 6/5/27 8/7/29 5/19/28
f 7/20/30 5/19/28 8/7/29
f 8/7/29 10/9/31 7/20/30
f 9/21/32 7/20/30 10/9/31
f 10/9/31 12/10/33 9/21/32
f 11/22/34 9/21/32 12/10/33
f 14/23/35 11/22/34 12/10/33
f 12/10/33 13/12/36 14/23/35
f 16/24/37 14/23/35 13/12/36
f 13/12/36 15/13/38 16/24/37
f 18/25/39 16/24/37 15/13/38
f 15/13/38 17/14/40 18/25/39
f 20/26/41 18/25/39 17/14/40
f 19/27/42 20/26/41 17/14/40
f 17/14/40 52/14/43 19/27/42
f 52/14/43 51/28/44 19/27/42
f 21/29/45 19/27/42 51/28/44
f 51/28/44 53/29/46 21/29/45
f 23/30/47 21/29/45 53/29/46
f 53/29/46 54/31/48 23/30/47
f 25/32/49 23/30/47 54/31/48
f 54/31/48 55/32/50 25/32/49
f 28/33/51 25/32/49 55/32/50
f 55/32/50 56/33/52 28/33/51
f 30/34/53 28/33/51 56/33/52
f 56/33/52 57/34/54 30/34/53
f 32/15/22 30/34/53 57/34/54
f 57/34/54 58/15/19 32/15/22
f 29/35/55 30/34/53 32/15/22
f 32/15/22 31/16/23 29/35/55
f 60/36/56 29/35/55 31/16/23
f 31/16/23 2/17/24 60/36/56
f 2/17/24 1/18/26 60/36/56
f 1/18/26 5/19/28 60/36/56
f 5/19/28 7/20/30 60/36/56
f 7/20/30 9/21/32 60/36/56
f 9/21/32 11/22/34 60/36/56
f 11/22/34 14/23/35 60/36/56
f 14/23/35 16/24/37 60/36/56
f 16/24/37 18/25/39 60/36/56
f 18/25/39 20/26/41 60/36/56
f 22/37/57 60/36/56 20/26/41
f 20/26/41 19/27/42 22/37/57
f 19/27/42 21/29/45 22/37/57
f 24/38/58 22/37/57 21/29/45
f 21/29/45 23/30/47 24/38/58
f 26/39/59 24/38/58 23/30/47
f 23/30/47 25/32/49 26/39/59
f 27/40/60 26/39/59 25/32/49
f 25/32/49 28/33/51 27/40/60
f 28/33/51 30/34/53 27/40/60
f 30/34/53 29/35/55 27/40/60
f 29/35/55 60/36/56 27/40/60
f 26/39/59 27/40/60 60/36/56
f 24/38/58 26/39/59 60/36/56
f 60/36/56 22/37/57 24/38/58
