# Blender 4.5.3 LTS
# www.blender.org
o w9a02_monitor721
v -6.203793 1.164497 0.302379
v -5.737847 0.993963 0.302377
v -6.203793 1.164497 1.251201
v -5.737848 0.993963 1.251199
v -5.457241 0.914395 -3.816993
v -5.155570 0.706990 -3.692037
v -5.740322 0.914395 -3.133575
v -5.438651 0.706990 -3.008621
vn -0.3432 -0.9393 -0.0000
vn -0.3430 -0.9393 -0.0000
vn -0.3429 -0.9394 -0.0000
vn -0.3434 -0.9392 -0.0000
vn -0.4956 -0.8443 -0.2037
vn -0.4956 -0.8443 -0.2039
vt -2.664062 1.654785
vt -2.375000 1.654785
vt -2.375000 1.410400
vt -2.664062 1.410400
s 1
f 3/1/1 1/2/2 2/3/3
f 2/3/3 4/4/4 3/1/1
f 7/1/5 5/2/6 6/3/6
f 6/3/6 8/4/5 7/1/5
