# Blender 4.5.3 LTS
# www.blender.org
o w9a02_neon745
v -5.169124 0.734720 2.597115
v -5.167543 0.734692 2.604961
v -5.177064 0.725744 2.597114
v -5.174790 0.725744 2.607958
v -5.167541 0.734688 2.589252
v -5.174777 0.725744 2.586252
v -5.163102 0.734723 2.582573
v -5.168722 0.725744 2.576948
v -5.156428 0.734693 2.578138
v -5.159432 0.725744 2.570882
v -5.148574 0.734724 2.576558
v -5.148575 0.725744 2.568604
v -5.137718 0.725744 2.570906
v -5.140717 0.734689 2.578145
v -5.128423 0.725744 2.576973
v -5.134039 0.734720 2.582587
v -5.122365 0.725744 2.586249
v -5.129611 0.734692 2.589253
v -5.120097 0.725744 2.597071
v -5.128030 0.734719 2.597083
v -5.122425 0.725744 2.607863
v -5.129606 0.734670 2.604913
v -5.128522 0.725744 2.617080
v -5.134039 0.734677 2.611587
v -5.137807 0.725744 2.623102
v -5.140733 0.734636 2.616038
v -5.148615 0.734676 2.617625
v -5.148632 0.725744 2.625407
v -5.156466 0.734667 2.616040
v -5.159452 0.725744 2.623195
v -5.163123 0.734717 2.611616
v -5.168739 0.725744 2.617212
v -5.180882 0.713184 2.597131
v -5.177064 0.725744 2.597114
v -5.178302 0.713184 2.609430
v -5.174790 0.725744 2.607958
v -5.178287 0.713184 2.584811
v -5.174777 0.725744 2.586252
v -5.171419 0.713184 2.574257
v -5.168722 0.725744 2.576948
v -5.160882 0.713184 2.567376
v -5.159432 0.725744 2.570882
v -5.148568 0.713184 2.564794
v -5.148575 0.725744 2.568604
v -5.136254 0.713184 2.567405
v -5.137718 0.725744 2.570906
v -5.125715 0.713184 2.574287
v -5.128423 0.725744 2.576973
v -5.118841 0.713184 2.584807
v -5.122365 0.725744 2.586249
v -5.116268 0.713184 2.597080
v -5.118841 0.713184 2.584807
v -5.118909 0.713184 2.609323
v -5.125823 0.713184 2.619777
v -5.136356 0.713184 2.626607
v -5.148632 0.713184 2.629221
v -5.160914 0.713184 2.626716
v -5.171438 0.713184 2.619926
v -5.178302 0.713184 2.609430
v -5.148578 0.739747 2.597104
v -5.264976 0.734720 2.372276
v -5.263395 0.734692 2.380121
v -5.272917 0.725744 2.372275
v -5.270643 0.725744 2.383119
v -5.263393 0.734688 2.364413
v -5.270629 0.725744 2.361413
v -5.258955 0.734723 2.357733
v -5.264574 0.725744 2.352109
v -5.252280 0.734693 2.353298
v -5.255284 0.725744 2.346042
v -5.244427 0.734724 2.351718
v -5.244427 0.725744 2.343764
v -5.233571 0.725744 2.346067
v -5.236569 0.734689 2.353305
v -5.224276 0.725744 2.352133
v -5.229891 0.734720 2.357747
v -5.218218 0.725744 2.361409
v -5.225463 0.734692 2.364413
v -5.215949 0.725744 2.372231
v -5.223882 0.734719 2.372244
v -5.218277 0.725744 2.383024
v -5.225459 0.734670 2.380073
v -5.224374 0.725744 2.392241
v -5.229891 0.734677 2.386747
v -5.233660 0.725744 2.398263
v -5.236586 0.734636 2.391198
v -5.244467 0.734676 2.392785
v -5.244484 0.725744 2.400568
v -5.252319 0.734667 2.391201
v -5.255304 0.725744 2.398356
v -5.258976 0.734717 2.386776
v -5.264591 0.725744 2.392373
v -5.276734 0.713184 2.372291
v -5.272917 0.725744 2.372275
v -5.274155 0.713184 2.384591
v -5.270643 0.725744 2.383119
v -5.274139 0.713184 2.359972
v -5.270629 0.725744 2.361413
v -5.267272 0.713184 2.349417
v -5.264574 0.725744 2.352109
v -5.256735 0.713184 2.342537
v -5.255284 0.725744 2.346042
v -5.244421 0.713184 2.339954
v -5.244427 0.725744 2.343764
v -5.232107 0.713184 2.342565
v -5.233571 0.725744 2.346067
v -5.221568 0.713184 2.349447
v -5.224276 0.725744 2.352133
v -5.214694 0.713184 2.359968
v -5.218218 0.725744 2.361409
v -5.212121 0.713184 2.372241
v -5.214694 0.713184 2.359968
v -5.214761 0.713184 2.384483
v -5.221676 0.713184 2.394937
v -5.232208 0.713184 2.401768
v -5.244484 0.713184 2.404381
v -5.256766 0.713184 2.401876
v -5.267290 0.713184 2.395087
v -5.274155 0.713184 2.384591
v -5.244431 0.739747 2.372264
v -5.247433 0.486308 -0.643871
v -5.247456 0.487566 -0.637459
v -5.254762 0.492298 -0.646352
v -5.254762 0.493970 -0.637461
v -5.247459 0.482657 -0.649308
v -5.254762 0.487179 -0.653832
v -5.247430 0.477222 -0.652961
v -5.254762 0.479704 -0.658959
v -5.247455 0.470802 -0.654221
v -5.254762 0.470800 -0.660634
v -5.247430 0.464383 -0.652960
v -5.254762 0.461899 -0.658960
v -5.254762 0.454427 -0.653832
v -5.247458 0.458951 -0.649308
v -5.254762 0.449310 -0.646352
v -5.247433 0.455301 -0.643871
v -5.254762 0.447638 -0.637461
v -5.247456 0.454042 -0.637459
v -5.254762 0.449308 -0.628589
v -5.247434 0.455296 -0.631057
v -5.254762 0.454436 -0.621174
v -5.247474 0.458931 -0.625644
v -5.254762 0.461915 -0.616125
v -5.247468 0.464361 -0.621993
v -5.254762 0.470801 -0.614483
v -5.247502 0.470802 -0.620727
v -5.247468 0.477243 -0.621992
v -5.254762 0.479686 -0.616126
v -5.247476 0.482671 -0.625639
v -5.254762 0.487159 -0.621174
v -5.247435 0.486311 -0.631057
v -5.254762 0.492295 -0.628589
v -5.265018 0.495183 -0.647532
v -5.254762 0.492298 -0.646352
v -5.265018 0.497079 -0.637448
v -5.254762 0.493970 -0.637461
v -5.265018 0.489377 -0.656016
v -5.254762 0.487179 -0.653832
v -5.265018 0.480898 -0.661832
v -5.254762 0.479704 -0.658959
v -5.265018 0.470800 -0.663732
v -5.254762 0.470800 -0.660634
v -5.265018 0.460704 -0.661833
v -5.254762 0.461899 -0.658960
v -5.265018 0.452229 -0.656016
v -5.254762 0.454427 -0.653832
v -5.265018 0.446429 -0.647532
v -5.254762 0.449310 -0.646352
v -5.265018 0.444529 -0.637448
v -5.254762 0.447638 -0.637461
v -5.265018 0.446422 -0.627385
v -5.265018 0.444529 -0.637448
v -5.265018 0.452239 -0.618974
v -5.265018 0.460722 -0.613248
v -5.265018 0.470800 -0.611385
v -5.265018 0.480879 -0.613249
v -5.265018 0.489361 -0.618976
v -5.265018 0.495180 -0.627385
v -5.265018 0.497079 -0.637448
v -5.243328 0.470805 -0.637461
v -5.247433 0.486308 -0.821084
v -5.247456 0.487566 -0.814672
v -5.254762 0.492298 -0.823566
v -5.254762 0.493970 -0.814675
v -5.247459 0.482657 -0.826522
v -5.254762 0.487179 -0.831046
v -5.247430 0.477222 -0.830174
v -5.254762 0.479704 -0.836173
v -5.247455 0.470802 -0.831435
v -5.254762 0.470800 -0.837848
v -5.247430 0.464383 -0.830173
v -5.254762 0.461899 -0.836174
v -5.254762 0.454427 -0.831046
v -5.247458 0.458951 -0.826522
v -5.254762 0.449310 -0.823565
v -5.247433 0.455301 -0.821084
v -5.254762 0.447638 -0.814675
v -5.247456 0.454042 -0.814672
v -5.254762 0.449308 -0.805802
v -5.247434 0.455296 -0.808271
v -5.254762 0.454436 -0.798388
v -5.247474 0.458931 -0.802857
v -5.254762 0.461915 -0.793339
v -5.247468 0.464361 -0.799207
v -5.254762 0.470801 -0.791697
v -5.247502 0.470802 -0.797940
v -5.247468 0.477243 -0.799205
v -5.254762 0.479686 -0.793339
v -5.247476 0.482671 -0.802853
v -5.254762 0.487159 -0.798388
v -5.247435 0.486311 -0.808270
v -5.254762 0.492295 -0.805803
v -5.265018 0.495183 -0.824746
v -5.254762 0.492298 -0.823566
v -5.265018 0.497079 -0.814662
v -5.254762 0.493970 -0.814675
v -5.265018 0.489377 -0.833230
v -5.254762 0.487179 -0.831046
v -5.265018 0.480898 -0.839046
v -5.254762 0.479704 -0.836173
v -5.265018 0.470800 -0.840945
v -5.254762 0.470800 -0.837848
v -5.265018 0.460704 -0.839047
v -5.254762 0.461899 -0.836174
v -5.265018 0.452229 -0.833230
v -5.254762 0.454427 -0.831046
v -5.265018 0.446429 -0.824746
v -5.254762 0.449310 -0.823565
v -5.265018 0.444529 -0.814662
v -5.254762 0.447638 -0.814675
v -5.265018 0.446422 -0.804599
v -5.265018 0.444529 -0.814662
v -5.265018 0.452239 -0.796188
v -5.265018 0.460722 -0.790461
v -5.265018 0.470800 -0.788599
v -5.265018 0.480879 -0.790463
v -5.265018 0.489361 -0.796189
v -5.265018 0.495180 -0.804599
v -5.265018 0.497079 -0.814662
v -5.243328 0.470805 -0.814675
v -5.992066 1.114752 -0.412433
v -5.993520 1.115265 -0.404580
v -6.002082 1.108914 -0.415473
v -6.004000 1.109631 -0.404583
v -5.987890 1.113156 -0.419092
v -5.996210 1.106718 -0.424633
v -5.981643 1.110858 -0.423566
v -5.987635 1.103512 -0.430912
v -5.974289 1.108076 -0.425110
v -5.977421 1.099693 -0.432963
v -5.966916 1.105352 -0.423565
v -5.967210 1.095876 -0.430914
v -5.958639 1.092671 -0.424633
v -5.960696 1.102990 -0.419092
v -5.952768 1.090476 -0.415472
v -5.956498 1.101453 -0.412433
v -5.950850 1.089759 -0.404583
v -5.955063 1.100887 -0.404580
v -5.952766 1.090475 -0.393717
v -5.956493 1.101451 -0.396741
v -5.958648 1.092675 -0.384636
v -5.960680 1.102963 -0.390110
v -5.967228 1.095883 -0.378453
v -5.966906 1.105298 -0.385640
v -5.977422 1.099694 -0.376442
v -5.974308 1.108022 -0.384089
v -5.981684 1.110823 -0.385638
v -5.987615 1.103505 -0.378454
v -5.987915 1.113143 -0.390106
v -5.996186 1.106709 -0.384637
v -5.992072 1.114751 -0.396740
v -6.002079 1.108912 -0.393718
v -6.009790 1.098386 -0.416918
v -6.002082 1.108914 -0.415473
v -6.011965 1.099200 -0.404567
v -6.004000 1.109631 -0.404583
v -6.003130 1.095896 -0.427307
v -5.996210 1.106718 -0.424633
v -5.993403 1.092259 -0.434431
v -5.987635 1.103512 -0.430912
v -5.981820 1.087929 -0.436757
v -5.977421 1.099693 -0.432963
v -5.970238 1.083598 -0.434431
v -5.967210 1.095876 -0.430914
v -5.960516 1.079963 -0.427308
v -5.958639 1.092671 -0.424633
v -5.953863 1.077476 -0.416917
v -5.952768 1.090476 -0.415472
v -5.951684 1.076661 -0.404567
v -5.950850 1.089759 -0.404583
v -5.953855 1.077473 -0.392243
v -5.951684 1.076661 -0.404567
v -5.960527 1.079968 -0.381943
v -5.970258 1.083606 -0.374930
v -5.981821 1.087929 -0.372648
v -5.993381 1.092251 -0.374931
v -6.003112 1.095889 -0.381944
v -6.009787 1.098385 -0.392243
v -6.011965 1.099200 -0.404567
v -5.972522 1.112811 -0.404583
v -5.992066 1.114752 -0.629641
v -5.993520 1.115265 -0.621788
v -6.002082 1.108914 -0.632680
v -6.004000 1.109631 -0.621791
v -5.987890 1.113156 -0.636300
v -5.996210 1.106718 -0.641840
v -5.981643 1.110858 -0.640773
v -5.987635 1.103512 -0.648120
v -5.974289 1.108076 -0.642317
v -5.977421 1.099693 -0.650171
v -5.966916 1.105352 -0.640772
v -5.967210 1.095876 -0.648121
v -5.958639 1.092671 -0.641840
v -5.960696 1.102990 -0.636300
v -5.952768 1.090476 -0.632679
v -5.956498 1.101453 -0.629641
v -5.950850 1.089759 -0.621791
v -5.955063 1.100887 -0.621788
v -5.952766 1.090475 -0.610925
v -5.956493 1.101451 -0.613949
v -5.958648 1.092675 -0.601844
v -5.960680 1.102963 -0.607318
v -5.967228 1.095883 -0.595661
v -5.966906 1.105298 -0.602847
v -5.977422 1.099694 -0.593650
v -5.974308 1.108022 -0.601296
v -5.981684 1.110823 -0.602846
v -5.987615 1.103505 -0.595662
v -5.987915 1.113143 -0.607313
v -5.996186 1.106709 -0.601845
v -5.992072 1.114751 -0.613948
v -6.002079 1.108912 -0.610926
v -6.009790 1.098386 -0.634126
v -6.002082 1.108914 -0.632680
v -6.011965 1.099200 -0.621775
v -6.004000 1.109631 -0.621791
v -6.003130 1.095896 -0.644515
v -5.996210 1.106718 -0.641840
v -5.993403 1.092259 -0.651639
v -5.987635 1.103512 -0.648120
v -5.981820 1.087929 -0.653965
v -5.977421 1.099693 -0.650171
v -5.970238 1.083598 -0.651639
v -5.967210 1.095876 -0.648121
v -5.960516 1.079963 -0.644516
v -5.958639 1.092671 -0.641840
v -5.953863 1.077476 -0.634125
v -5.952768 1.090476 -0.632679
v -5.951684 1.076661 -0.621775
v -5.950850 1.089759 -0.621791
v -5.953855 1.077473 -0.609451
v -5.951684 1.076661 -0.621775
v -5.960527 1.079968 -0.599151
v -5.970258 1.083606 -0.592137
v -5.981821 1.087929 -0.589856
v -5.993381 1.092251 -0.592138
v -6.003112 1.095889 -0.599152
v -6.009787 1.098385 -0.609451
v -6.011965 1.099200 -0.621775
v -5.972522 1.112811 -0.621791
v -5.445371 0.686414 -2.592575
v -5.448987 0.686391 -2.587132
v -5.449956 0.679085 -2.597159
v -5.454903 0.679085 -2.589585
v -5.439918 0.686388 -2.596202
v -5.442365 0.679085 -2.602112
v -5.433498 0.686416 -2.597497
v -5.433497 0.679085 -2.603989
v -5.427085 0.686392 -2.596205
v -5.424630 0.679085 -2.602130
v -5.421638 0.686417 -2.592584
v -5.417046 0.679085 -2.597178
v -5.412105 0.679085 -2.589581
v -5.418015 0.686388 -2.587132
v -5.410239 0.679085 -2.580712
v -5.416723 0.686414 -2.580712
v -5.412096 0.679085 -2.571858
v -5.418014 0.686391 -2.574306
v -5.417033 0.679085 -2.564299
v -5.421621 0.686413 -2.568872
v -5.424608 0.679085 -2.559411
v -5.427051 0.686373 -2.565261
v -5.433450 0.679085 -2.557608
v -5.433464 0.686378 -2.563965
v -5.442288 0.679085 -2.559490
v -5.439899 0.686345 -2.565259
v -5.445367 0.686378 -2.568892
v -5.449869 0.679085 -2.564407
v -5.448987 0.686371 -2.574339
v -5.454841 0.679085 -2.571931
v -5.450276 0.686411 -2.580737
v -5.456749 0.679085 -2.580747
v -5.452170 0.668829 -2.599354
v -5.449956 0.679085 -2.597159
v -5.457780 0.668829 -2.590762
v -5.454903 0.679085 -2.589585
v -5.443560 0.668829 -2.604970
v -5.442365 0.679085 -2.602112
v -5.433501 0.668829 -2.607100
v -5.433497 0.679085 -2.603989
v -5.423444 0.668829 -2.604992
v -5.424630 0.679085 -2.602130
v -5.414843 0.668829 -2.599375
v -5.417046 0.679085 -2.597178
v -5.409238 0.668829 -2.590758
v -5.412105 0.679085 -2.589581
v -5.407125 0.668829 -2.580700
v -5.410239 0.679085 -2.580712
v -5.409229 0.668829 -2.570657
v -5.412096 0.679085 -2.571858
v -5.414827 0.668829 -2.562083
v -5.409229 0.668829 -2.570657
v -5.423419 0.668829 -2.556538
v -5.433448 0.668829 -2.554493
v -5.443472 0.668829 -2.556628
v -5.452071 0.668829 -2.562206
v -5.457717 0.668829 -2.570742
v -5.459875 0.668829 -2.580738
v -5.457780 0.668829 -2.590762
v -5.433500 0.690518 -2.580722
v -5.626298 0.686414 -2.155659
v -5.629914 0.686391 -2.150217
v -5.630884 0.679085 -2.160244
v -5.635830 0.679085 -2.152669
v -5.620845 0.686388 -2.159286
v -5.623292 0.679085 -2.165196
v -5.614426 0.686416 -2.160581
v -5.614424 0.679085 -2.167073
v -5.608012 0.686392 -2.159290
v -5.605557 0.679085 -2.165214
v -5.602565 0.686417 -2.155668
v -5.597973 0.679085 -2.160262
v -5.593032 0.679085 -2.152666
v -5.598942 0.686388 -2.150217
v -5.591166 0.679085 -2.143797
v -5.597651 0.686414 -2.143796
v -5.593023 0.679085 -2.134943
v -5.598941 0.686391 -2.137390
v -5.597960 0.679085 -2.127384
v -5.602549 0.686413 -2.131956
v -5.605535 0.679085 -2.122495
v -5.607978 0.686373 -2.128345
v -5.614377 0.679085 -2.120692
v -5.614391 0.686378 -2.127049
v -5.623215 0.679085 -2.122575
v -5.620827 0.686345 -2.128344
v -5.626294 0.686378 -2.131977
v -5.630796 0.679085 -2.127492
v -5.629914 0.686371 -2.137424
v -5.635768 0.679085 -2.135015
v -5.631204 0.686411 -2.143821
v -5.637677 0.679085 -2.143831
v -5.633097 0.668829 -2.162438
v -5.630884 0.679085 -2.160244
v -5.638707 0.668829 -2.153846
v -5.635830 0.679085 -2.152669
v -5.624487 0.668829 -2.168055
v -5.623292 0.679085 -2.165196
v -5.614428 0.668829 -2.170185
v -5.614424 0.679085 -2.167073
v -5.604372 0.668829 -2.168076
v -5.605557 0.679085 -2.165214
v -5.595770 0.668829 -2.162459
v -5.597973 0.679085 -2.160262
v -5.590166 0.668829 -2.153843
v -5.593032 0.679085 -2.152666
v -5.588053 0.668829 -2.143785
v -5.591166 0.679085 -2.143797
v -5.590156 0.668829 -2.133741
v -5.593023 0.679085 -2.134943
v -5.595755 0.668829 -2.125168
v -5.590156 0.668829 -2.133741
v -5.604347 0.668829 -2.119623
v -5.614375 0.668829 -2.117577
v -5.624400 0.668829 -2.119713
v -5.632998 0.668829 -2.125290
v -5.638644 0.668829 -2.133827
v -5.640802 0.668829 -2.143822
v -5.638707 0.668829 -2.153846
v -5.614427 0.690518 -2.143806
v -5.711038 0.686414 -1.951023
v -5.714654 0.686391 -1.945580
v -5.715623 0.679085 -1.955608
v -5.720570 0.679085 -1.948033
v -5.705585 0.686388 -1.954650
v -5.708032 0.679085 -1.960560
v -5.699166 0.686416 -1.955945
v -5.699164 0.679085 -1.962437
v -5.692752 0.686392 -1.954654
v -5.690298 0.679085 -1.960578
v -5.687305 0.686417 -1.951032
v -5.682714 0.679085 -1.955626
v -5.677773 0.679085 -1.948029
v -5.683682 0.686389 -1.945580
v -5.675907 0.679085 -1.939160
v -5.682391 0.686414 -1.939160
v -5.677763 0.679085 -1.930307
v -5.683681 0.686391 -1.932754
v -5.682701 0.679085 -1.922748
v -5.687289 0.686413 -1.927320
v -5.690275 0.679085 -1.917859
v -5.692719 0.686373 -1.923709
v -5.699117 0.679085 -1.916056
v -5.699131 0.686379 -1.922413
v -5.707955 0.679085 -1.917939
v -5.705567 0.686345 -1.923707
v -5.711034 0.686378 -1.927341
v -5.715536 0.679085 -1.922856
v -5.714654 0.686371 -1.932788
v -5.720508 0.679085 -1.930379
v -5.715944 0.686412 -1.939185
v -5.722417 0.679085 -1.939195
v -5.717837 0.668829 -1.957802
v -5.715623 0.679085 -1.955608
v -5.723447 0.668829 -1.949210
v -5.720570 0.679085 -1.948033
v -5.709228 0.668829 -1.963419
v -5.708032 0.679085 -1.960560
v -5.699168 0.668829 -1.965548
v -5.699164 0.679085 -1.962437
v -5.689112 0.668829 -1.963440
v -5.690298 0.679085 -1.960578
v -5.680510 0.668829 -1.957823
v -5.682714 0.679085 -1.955626
v -5.674905 0.668829 -1.949206
v -5.677773 0.679085 -1.948029
v -5.672793 0.668829 -1.939149
v -5.675907 0.679085 -1.939160
v -5.674896 0.668829 -1.929105
v -5.677763 0.679085 -1.930307
v -5.680495 0.668829 -1.920532
v -5.674896 0.668829 -1.929105
v -5.689087 0.668829 -1.914987
v -5.699115 0.668829 -1.912941
v -5.709140 0.668829 -1.915076
v -5.717738 0.668829 -1.920654
v -5.723384 0.668829 -1.929191
v -5.725543 0.668829 -1.939186
v -5.723447 0.668829 -1.949210
v -5.699167 0.690518 -1.939170
vn 0.8956 -0.4448 -0.0000
vn 0.8278 -0.4452 -0.3413
vn 0.8840 -0.2901 -0.3665
vn 0.9570 -0.2901 -0.0001
vn 0.8278 -0.4452 0.3413
vn 0.8856 -0.2880 0.3644
vn 0.6333 -0.4449 0.6333
vn 0.6777 -0.2899 0.6758
vn 0.3431 -0.4449 0.8273
vn 0.3667 -0.2884 0.8845
vn -0.0000 -0.4448 0.8956
vn -0.0001 -0.2902 0.9570
vn -0.3431 -0.4449 0.8273
vn -0.3667 -0.2882 0.8846
vn -0.6333 -0.4449 0.6333
vn -0.6766 -0.2906 0.6765
vn -0.8272 -0.4449 0.3431
vn -0.8840 -0.2901 0.3667
vn 0.6743 -0.2921 -0.6782
vn 0.8840 -0.2901 -0.3666
vn 0.8277 -0.4454 -0.3413
vn 0.6313 -0.4450 -0.6352
vn 0.4095 -0.8132 -0.4135
vn 0.5391 -0.8119 -0.2240
vn 0.8956 -0.4449 -0.0000
vn 0.5820 -0.8132 -0.0000
vn 0.8277 -0.4454 0.3413
vn 0.5393 -0.8119 0.2236
vn 0.6332 -0.4451 0.6332
vn 0.4113 -0.8132 0.4117
vn 0.3430 -0.4451 0.8272
vn 0.2235 -0.8126 0.5383
vn -0.0000 -0.4450 0.8956
vn -0.0004 -0.8132 0.5820
vn -0.2236 -0.8119 0.5393
vn -0.3430 -0.4451 0.8272
vn -0.4115 -0.8132 0.4115
vn -0.6332 -0.4451 0.6332
vn -0.5393 -0.8119 0.2236
vn -0.8272 -0.4451 0.3430
vn -0.5819 -0.8132 -0.0000
vn -0.8956 -0.4449 -0.0019
vn -0.8841 -0.2901 0.3664
vn -0.9564 -0.2921 -0.0018
vn -0.8261 -0.4444 -0.3465
vn -0.8823 -0.2902 -0.3706
vn -0.6310 -0.4429 -0.6369
vn -0.6738 -0.2898 -0.6797
vn -0.3431 -0.4411 -0.8293
vn -0.3667 -0.2883 -0.8845
vn -0.0020 -0.4425 -0.8968
vn -0.0039 -0.2906 -0.9568
vn 0.3390 -0.4449 -0.8289
vn 0.3613 -0.2903 -0.8861
vn 0.2215 -0.8114 -0.5409
vn -0.0001 -1.0000 -0.0001
vn -0.5390 -0.8116 -0.2254
vn -0.4115 -0.8112 -0.4154
vn -0.2234 -0.8095 -0.5429
vn -0.0020 -0.8116 -0.5842
vn 0.9568 -0.2908 0.0002
vn 0.3666 -0.2885 0.8845
vn -0.0000 -0.4448 0.8957
vn -0.8272 -0.4450 0.3431
vn -0.8840 -0.2901 0.3666
vn 0.6743 -0.2916 -0.6785
vn 0.4096 -0.8132 -0.4135
vn 0.8956 -0.4450 -0.0000
vn -0.0000 -0.4449 0.8956
vn -0.8272 -0.4450 0.3430
vn -0.9569 -0.2903 -0.0020
vn -0.8821 -0.2900 -0.3711
vn -0.6738 -0.2899 -0.6797
vn -0.3667 -0.2884 -0.8845
vn -0.0038 -0.2906 -0.9568
vn 0.3390 -0.4448 -0.8290
vn -0.0001 -1.0000 -0.0002
vn -0.5391 -0.8115 -0.2254
vn -0.4449 -0.8273 0.3431
vn -0.4448 -0.8956 0.0001
vn -0.2897 -0.9571 0.0001
vn -0.2902 -0.8840 0.3665
vn -0.4450 -0.6332 0.6333
vn -0.2881 -0.6781 0.6761
vn -0.4449 -0.3431 0.8273
vn -0.2903 -0.3670 0.8838
vn -0.4448 -0.0000 0.8956
vn -0.2879 -0.0000 0.9577
vn -0.4449 0.3431 0.8273
vn -0.2901 0.3665 0.8840
vn -0.4449 0.6333 0.6333
vn -0.2882 0.6781 0.6762
vn -0.4449 0.8273 0.3431
vn -0.2902 0.8840 0.3665
vn -0.4448 0.8956 0.0001
vn -0.2897 0.9571 0.0001
vn -0.2922 -0.8824 -0.3687
vn -0.2897 -0.9571 -0.0001
vn -0.4450 -0.8956 -0.0001
vn -0.4447 -0.8267 -0.3448
vn -0.8134 -0.5370 -0.2234
vn -0.8116 -0.5842 -0.0000
vn -0.4451 -0.8272 0.3430
vn -0.8138 -0.5373 0.2216
vn -0.4451 -0.6332 0.6332
vn -0.8119 -0.4135 0.4121
vn -0.4451 -0.3430 0.8272
vn -0.8134 -0.2234 0.5370
vn -0.4449 -0.0000 0.8956
vn -0.8123 -0.0005 0.5833
vn -0.4451 0.3430 0.8272
vn -0.8134 0.2229 0.5373
vn -0.8119 0.4138 0.4118
vn -0.4451 0.6332 0.6332
vn -0.8138 0.5373 0.2216
vn -0.4451 0.8272 0.3430
vn -0.8116 0.5842 -0.0000
vn -0.4450 0.8955 -0.0001
vn -0.8134 0.5370 -0.2234
vn -0.4450 0.8272 -0.3430
vn -0.2897 0.9571 -0.0001
vn -0.2916 0.8827 -0.3685
vn -0.4445 0.6305 -0.6364
vn -0.2901 0.6730 -0.6804
vn -0.4426 0.3388 -0.8303
vn -0.2902 0.3625 -0.8857
vn -0.4409 -0.0000 -0.8975
vn -0.2879 -0.0000 -0.9577
vn -0.4426 -0.3388 -0.8303
vn -0.2903 -0.3625 -0.8856
vn -0.4445 -0.6305 -0.6363
vn -0.2903 -0.6728 -0.6805
vn -0.8112 -0.4115 -0.4154
vn -1.0000 -0.0000 0.0001
vn -0.8113 0.4114 -0.4155
vn -0.8114 0.2215 -0.5409
vn -0.8091 -0.0000 -0.5877
vn -0.8114 -0.2215 -0.5409
vn -0.4448 -0.8956 -0.0000
vn -0.2904 -0.8840 0.3664
vn -0.2881 -0.6781 0.6762
vn -0.2880 -0.0000 0.9576
vn -0.2903 0.3671 0.8837
vn -0.2906 0.8840 0.3662
vn -0.2915 -0.8826 -0.3689
vn -0.4450 -0.8956 -0.0000
vn -0.4449 0.8956 -0.0000
vn -0.2904 0.6726 -0.6806
vn -0.2898 0.3625 -0.8858
vn -0.2880 -0.0000 -0.9576
vn -0.2900 -0.3625 -0.8857
vn -1.0000 -0.0000 -0.0000
vn 0.6176 -0.7077 0.3431
vn 0.6822 -0.7311 0.0001
vn 0.7948 -0.6069 0.0001
vn 0.7263 -0.5817 0.3662
vn 0.4371 -0.6389 0.6331
vn 0.5331 -0.5081 0.6764
vn 0.1647 -0.5371 0.8273
vn 0.2413 -0.4000 0.8842
vn -0.1548 -0.4173 0.8955
vn -0.1001 -0.2703 0.9575
vn -0.4779 -0.2976 0.8265
vn -0.4448 -0.1430 0.8841
vn -0.7491 -0.1940 0.6334
vn -0.7364 -0.0333 0.6758
vn -0.9307 -0.1272 0.3429
vn -0.9298 0.0375 0.3662
vn -0.9946 -0.1037 0.0001
vn -0.9980 0.0627 0.0001
vn 0.7248 -0.5821 -0.3686
vn 0.7948 -0.6069 -0.0001
vn 0.6821 -0.7312 -0.0000
vn 0.6171 -0.7073 -0.3448
vn 0.2175 -0.9502 -0.2233
vn 0.2605 -0.9655 -0.0000
vn 0.6175 -0.7078 0.3431
vn 0.2176 -0.9506 0.2215
vn 0.4370 -0.6390 0.6330
vn 0.1021 -0.9057 0.4114
vn 0.1646 -0.5372 0.8272
vn -0.0744 -0.8404 0.5368
vn -0.1548 -0.4174 0.8954
vn -0.2838 -0.7605 0.5840
vn -0.4779 -0.2978 0.8264
vn -0.4936 -0.6840 0.5370
vn -0.6722 -0.6154 0.4116
vn -0.7491 -0.1942 0.6334
vn -0.7889 -0.5731 0.2218
vn -0.9307 -0.1275 0.3428
vn -0.8308 -0.5565 -0.0000
vn -0.9946 -0.1038 -0.0000
vn -0.7886 -0.5728 -0.2236
vn -0.9307 -0.1274 -0.3429
vn -0.9980 0.0627 -0.0001
vn -0.9290 0.0352 -0.3684
vn -0.7464 -0.1940 -0.6367
vn -0.7326 -0.0352 -0.6797
vn -0.4720 -0.2958 -0.8305
vn -0.4412 -0.1453 -0.8856
vn -0.1548 -0.4134 -0.8973
vn -0.1000 -0.2703 -0.9576
vn 0.1626 -0.5327 -0.8305
vn 0.2373 -0.3981 -0.8861
vn 0.4349 -0.6367 -0.6367
vn 0.5290 -0.5076 -0.6801
vn 0.1000 -0.9040 -0.4157
vn -0.3490 -0.9371 -0.0000
vn -0.6696 -0.6154 -0.4158
vn -0.4920 -0.6821 -0.5410
vn -0.2821 -0.7582 -0.5878
vn -0.0745 -0.8375 -0.5413
vn 0.7261 -0.5819 0.3663
vn -0.1000 -0.2703 0.9576
vn -0.4778 -0.2976 0.8265
vn -0.4455 -0.1433 0.8837
vn -0.7364 -0.0333 0.6757
vn -0.9307 -0.1273 0.3429
vn 0.7251 -0.5819 -0.3683
vn -0.9307 -0.1275 0.3429
vn -0.9946 -0.1039 -0.0001
vn -0.7325 -0.0354 -0.6798
vn -0.4409 -0.1450 -0.8858
vn 0.2372 -0.3980 -0.8862
vn 0.6333 -0.4450 0.6332
vn 0.8278 -0.4452 0.3414
vn 0.8846 -0.2903 0.3649
vn 0.6766 -0.2903 0.6766
vn 0.3668 -0.2883 0.8845
vn 0.0003 -0.2903 0.9569
vn -0.3413 -0.4452 0.8278
vn -0.3667 -0.2885 0.8845
vn -0.6332 -0.4450 0.6333
vn -0.6779 -0.2897 0.6756
vn -0.8278 -0.4452 0.3413
vn -0.8856 -0.2880 0.3644
vn -0.8956 -0.4448 -0.0000
vn -0.9569 -0.2905 0.0001
vn -0.8278 -0.4452 -0.3412
vn -0.8841 -0.2901 -0.3664
vn 0.9564 -0.2919 -0.0022
vn 0.8847 -0.2903 0.3648
vn 0.8278 -0.4453 0.3413
vn 0.8956 -0.4449 -0.0020
vn 0.5819 -0.8132 -0.0000
vn 0.4110 -0.8132 0.4120
vn 0.2236 -0.8119 0.5393
vn -0.0002 -0.8132 0.5820
vn -0.3413 -0.4454 0.8277
vn -0.2232 -0.8126 0.5384
vn -0.4117 -0.8132 0.4113
vn -0.5395 -0.8122 0.2217
vn -0.8278 -0.4454 0.3413
vn -0.5820 -0.8132 -0.0000
vn -0.8956 -0.4449 -0.0000
vn -0.5393 -0.8119 -0.2236
vn -0.8277 -0.4454 -0.3413
vn -0.4099 -0.8139 -0.4119
vn -0.6313 -0.4450 -0.6352
vn -0.8840 -0.2901 -0.3666
vn -0.6746 -0.2916 -0.6782
vn -0.3390 -0.4449 -0.8290
vn -0.3609 -0.2902 -0.8863
vn 0.0020 -0.4425 -0.8968
vn 0.0040 -0.2906 -0.9568
vn 0.3431 -0.4411 -0.8293
vn 0.3668 -0.2883 -0.8845
vn 0.6310 -0.4429 -0.6369
vn 0.6738 -0.2901 -0.6796
vn 0.8261 -0.4444 -0.3465
vn 0.8823 -0.2902 -0.3705
vn 0.5390 -0.8116 -0.2254
vn -0.0000 -1.0000 -0.0000
vn -0.2210 -0.8114 -0.5411
vn 0.0020 -0.8116 -0.5842
vn 0.2234 -0.8095 -0.5429
vn 0.4115 -0.8112 -0.4154
vn 0.6333 -0.4450 0.6333
vn 0.6767 -0.2901 0.6767
vn 0.3667 -0.2882 0.8846
vn 0.0001 -0.2902 0.9570
vn -0.6778 -0.2898 0.6757
vn -0.8855 -0.2881 0.3645
vn -0.8279 -0.4452 -0.3412
vn 0.9564 -0.2920 -0.0020
vn 0.4115 -0.8132 0.4115
vn -0.0000 -0.4450 0.8955
vn -0.8840 -0.2901 -0.3667
vn -0.3390 -0.4448 -0.8290
vn -0.3610 -0.2902 -0.8863
vn 0.3668 -0.2882 -0.8845
vn 0.6738 -0.2900 -0.6796
vn 0.8823 -0.2902 -0.3706
vn 0.6767 -0.2902 0.6767
vn 0.3667 -0.2882 0.8845
vn -0.0000 -0.4447 0.8957
vn 0.0003 -0.2903 0.9570
vn -0.3667 -0.2883 0.8845
vn -0.6332 -0.4450 0.6332
vn -0.6778 -0.2899 0.6757
vn -0.8856 -0.2880 0.3645
vn -0.8957 -0.4447 -0.0000
vn -0.9569 -0.2906 0.0001
vn 0.9564 -0.2920 -0.0019
vn -0.5395 -0.8123 0.2217
vn -0.8277 -0.4454 0.3413
vn -0.8955 -0.4450 -0.0000
vn -0.8278 -0.4453 -0.3413
vn -0.6745 -0.2916 -0.6782
vn -0.3390 -0.4449 -0.8289
vn -0.3607 -0.2902 -0.8864
vn 0.3667 -0.2883 -0.8845
vn 0.6738 -0.2902 -0.6796
vn 0.5391 -0.8115 -0.2254
vt 0.081116 0.824341
vt 0.066162 0.753784
vt 0.066162 0.753540
vt 0.081116 0.823975
vt 0.123169 0.882874
vt 0.123169 0.882568
vt 0.183472 0.922241
vt 0.183472 0.921936
vt 0.254395 0.933838
vt 0.254395 0.933594
vt 0.324707 0.918823
vt 0.324707 0.918518
vt 0.383057 0.876587
vt 0.383057 0.876282
vt 0.422363 0.816040
vt 0.422363 0.815674
vt 0.433838 0.744873
vt 0.433838 0.744629
vt 0.077698 0.682617
vt 0.077698 0.682861
vt 0.149536 0.710693
vt 0.142456 0.751953
vt 0.151489 0.793091
vt 0.175781 0.827515
vt 0.211182 0.850098
vt 0.252686 0.857300
vt 0.293701 0.848145
vt 0.327881 0.823730
vt 0.350586 0.788208
vt 0.357666 0.746826
vt 0.348389 0.705811
vt 0.418945 0.674561
vt 0.418945 0.674316
vt 0.376709 0.616455
vt 0.376709 0.616211
vt 0.316406 0.577881
vt 0.316406 0.577393
vt 0.245605 0.566406
vt 0.245605 0.566162
vt 0.175415 0.581299
vt 0.175415 0.580811
vt 0.117065 0.622803
vt 0.117004 0.622559
vt 0.171997 0.675049
vt 0.250000 0.749268
vt 0.324463 0.671387
vt 0.288818 0.648926
vt 0.247437 0.641602
vt 0.206299 0.650879
s 1
f 34/1/1 36/2/2 35/3/3
f 35/3/3 33/4/4 34/1/1
f 38/5/5 34/1/1 33/4/4
f 33/4/4 37/6/6 38/5/5
f 40/7/7 38/5/5 37/6/6
f 37/6/6 39/8/8 40/7/7
f 42/9/9 40/7/7 39/8/8
f 39/8/8 41/10/10 42/9/9
f 44/11/11 42/9/9 41/10/10
f 41/10/10 43/12/12 44/11/11
f 46/13/13 44/11/11 43/12/12
f 43/12/12 45/14/14 46/13/13
f 48/15/15 46/13/13 45/14/14
f 45/14/14 47/16/16 48/15/15
f 50/17/17 48/15/15 47/16/16
f 47/16/16 49/18/18 50/17/17
f 58/19/19 59/3/20 4/2/21
f 32/20/22 58/19/19 4/2/21
f 31/21/23 32/20/22 4/2/21
f 2/22/24 31/21/23 4/2/21
f 4/2/21 3/1/25 2/22/24
f 1/23/26 2/22/24 3/1/25
f 3/1/25 6/5/27 1/23/26
f 5/24/28 1/23/26 6/5/27
f 6/5/27 8/7/29 5/24/28
f 7/25/30 5/24/28 8/7/29
f 8/7/29 10/9/31 7/25/30
f 9/26/32 7/25/30 10/9/31
f 10/9/31 12/11/33 9/26/32
f 11/27/34 9/26/32 12/11/33
f 14/28/35 11/27/34 12/11/33
f 12/11/33 13/13/36 14/28/35
f 16/29/37 14/28/35 13/13/36
f 13/13/36 15/15/38 16/29/37
f 18/30/39 16/29/37 15/15/38
f 15/15/38 17/17/40 18/30/39
f 20/31/41 18/30/39 17/17/40
f 19/32/42 20/31/41 17/17/40
f 17/17/40 52/18/43 19/32/42
f 52/18/43 51/33/44 19/32/42
f 21/34/45 19/32/42 51/33/44
f 51/33/44 53/35/46 21/34/45
f 23/36/47 21/34/45 53/35/46
f 53/35/46 54/37/48 23/36/47
f 25/38/49 23/36/47 54/37/48
f 54/37/48 55/39/50 25/38/49
f 28/40/51 25/38/49 55/39/50
f 55/39/50 56/41/52 28/40/51
f 30/42/53 28/40/51 56/41/52
f 56/41/52 57/43/54 30/42/53
f 32/20/22 30/42/53 57/43/54
f 57/43/54 58/19/19 32/20/22
f 29/44/55 30/42/53 32/20/22
f 32/20/22 31/21/23 29/44/55
f 60/45/56 29/44/55 31/21/23
f 31/21/23 2/22/24 60/45/56
f 2/22/24 1/23/26 60/45/56
f 1/23/26 5/24/28 60/45/56
f 5/24/28 7/25/30 60/45/56
f 7/25/30 9/26/32 60/45/56
f 9/26/32 11/27/34 60/45/56
f 11/27/34 14/28/35 60/45/56
f 14/28/35 16/29/37 60/45/56
f 16/29/37 18/30/39 60/45/56
f 18/30/39 20/31/41 60/45/56
f 22/46/57 60/45/56 20/31/41
f 20/31/41 19/32/42 22/46/57
f 19/32/42 21/34/45 22/46/57
f 24/47/58 22/46/57 21/34/45
f 21/34/45 23/36/47 24/47/58
f 26/48/59 24/47/58 23/36/47
f 23/36/47 25/38/49 26/48/59
f 27/49/60 26/48/59 25/38/49
f 25/38/49 28/40/51 27/49/60
f 28/40/51 30/42/53 27/49/60
f 30/42/53 29/44/55 27/49/60
f 29/44/55 60/45/56 27/49/60
f 26/48/59 27/49/60 60/45/56
f 24/47/58 26/48/59 60/45/56
f 60/45/56 22/46/57 24/47/58
f 94/1/1 96/2/2 95/3/3
f 95/3/3 93/4/61 94/1/1
f 98/5/5 94/1/1 93/4/61
f 93/4/61 97/6/6 98/5/5
f 100/7/7 98/5/5 97/6/6
f 97/6/6 99/8/8 100/7/7
f 102/9/9 100/7/7 99/8/8
f 99/8/8 101/10/62 102/9/9
f 104/11/63 102/9/9 101/10/62
f 101/10/62 103/12/12 104/11/63
f 106/13/13 104/11/63 103/12/12
f 103/12/12 105/14/14 106/13/13
f 108/15/15 106/13/13 105/14/14
f 105/14/14 107/16/16 108/15/15
f 110/17/64 108/15/15 107/16/16
f 107/16/16 109/18/65 110/17/64
f 118/19/66 119/3/20 64/2/21
f 92/20/22 118/19/66 64/2/21
f 91/21/67 92/20/22 64/2/21
f 62/22/24 91/21/67 64/2/21
f 64/2/21 63/1/68 62/22/24
f 61/23/26 62/22/24 63/1/68
f 63/1/68 66/5/27 61/23/26
f 65/24/28 61/23/26 66/5/27
f 66/5/27 68/7/29 65/24/28
f 67/25/30 65/24/28 68/7/29
f 68/7/29 70/9/31 67/25/30
f 69/26/32 67/25/30 70/9/31
f 70/9/31 72/11/69 69/26/32
f 71/27/34 69/26/32 72/11/69
f 74/28/35 71/27/34 72/11/69
f 72/11/69 73/13/36 74/28/35
f 76/29/37 74/28/35 73/13/36
f 73/13/36 75/15/38 76/29/37
f 78/30/39 76/29/37 75/15/38
f 75/15/38 77/17/70 78/30/39
f 80/31/41 78/30/39 77/17/70
f 79/32/42 80/31/41 77/17/70
f 77/17/70 112/18/43 79/32/42
f 112/18/43 111/33/71 79/32/42
f 81/34/45 79/32/42 111/33/71
f 111/33/71 113/35/72 81/34/45
f 83/36/47 81/34/45 113/35/72
f 113/35/72 114/37/73 83/36/47
f 85/38/49 83/36/47 114/37/73
f 114/37/73 115/39/74 85/38/49
f 88/40/51 85/38/49 115/39/74
f 115/39/74 116/41/75 88/40/51
f 90/42/76 88/40/51 116/41/75
f 116/41/75 117/43/54 90/42/76
f 92/20/22 90/42/76 117/43/54
f 117/43/54 118/19/66 92/20/22
f 89/44/55 90/42/76 92/20/22
f 92/20/22 91/21/67 89/44/55
f 120/45/77 89/44/55 91/21/67
f 91/21/67 62/22/24 120/45/77
f 62/22/24 61/23/26 120/45/77
f 61/23/26 65/24/28 120/45/77
f 65/24/28 67/25/30 120/45/77
f 67/25/30 69/26/32 120/45/77
f 69/26/32 71/27/34 120/45/77
f 71/27/34 74/28/35 120/45/77
f 74/28/35 76/29/37 120/45/77
f 76/29/37 78/30/39 120/45/77
f 78/30/39 80/31/41 120/45/77
f 82/46/78 120/45/77 80/31/41
f 80/31/41 79/32/42 82/46/78
f 79/32/42 81/34/45 82/46/78
f 84/47/58 82/46/78 81/34/45
f 81/34/45 83/36/47 84/47/58
f 86/48/59 84/47/58 83/36/47
f 83/36/47 85/38/49 86/48/59
f 87/49/60 86/48/59 85/38/49
f 85/38/49 88/40/51 87/49/60
f 88/40/51 90/42/76 87/49/60
f 90/42/76 89/44/55 87/49/60
f 89/44/55 120/45/77 87/49/60
f 86/48/59 87/49/60 120/45/77
f 84/47/58 86/48/59 120/45/77
f 120/45/77 82/46/78 84/47/58
f 154/1/79 156/2/80 155/3/81
f 155/3/81 153/4/82 154/1/79
f 158/5/83 154/1/79 153/4/82
f 153/4/82 157/6/84 158/5/83
f 160/7/85 158/5/83 157/6/84
f 157/6/84 159/8/86 160/7/85
f 162/9/87 160/7/85 159/8/86
f 159/8/86 161/10/88 162/9/87
f 164/11/89 162/9/87 161/10/88
f 161/10/88 163/12/90 164/11/89
f 166/13/91 164/11/89 163/12/90
f 163/12/90 165/14/92 166/13/91
f 168/15/93 166/13/91 165/14/92
f 165/14/92 167/16/94 168/15/93
f 170/17/95 168/15/93 167/16/94
f 167/16/94 169/18/96 170/17/95
f 178/19/97 179/3/98 124/2/99
f 152/20/100 178/19/97 124/2/99
f 151/21/101 152/20/100 124/2/99
f 122/22/102 151/21/101 124/2/99
f 124/2/99 123/1/103 122/22/102
f 121/23/104 122/22/102 123/1/103
f 123/1/103 126/5/105 121/23/104
f 125/24/106 121/23/104 126/5/105
f 126/5/105 128/7/107 125/24/106
f 127/25/108 125/24/106 128/7/107
f 128/7/107 130/9/109 127/25/108
f 129/26/110 127/25/108 130/9/109
f 130/9/109 132/11/111 129/26/110
f 131/27/112 129/26/110 132/11/111
f 134/28/113 131/27/112 132/11/111
f 132/11/111 133/13/114 134/28/113
f 136/29/115 134/28/113 133/13/114
f 133/13/114 135/15/116 136/29/115
f 138/30/117 136/29/115 135/15/116
f 135/15/116 137/17/118 138/30/117
f 140/31/119 138/30/117 137/17/118
f 139/32/120 140/31/119 137/17/118
f 137/17/118 172/18/121 139/32/120
f 172/18/121 171/33/122 139/32/120
f 141/34/123 139/32/120 171/33/122
f 171/33/122 173/35/124 141/34/123
f 143/36/125 141/34/123 173/35/124
f 173/35/124 174/37/126 143/36/125
f 145/38/127 143/36/125 174/37/126
f 174/37/126 175/39/128 145/38/127
f 148/40/129 145/38/127 175/39/128
f 175/39/128 176/41/130 148/40/129
f 150/42/131 148/40/129 176/41/130
f 176/41/130 177/43/132 150/42/131
f 152/20/100 150/42/131 177/43/132
f 177/43/132 178/19/97 152/20/100
f 149/44/133 150/42/131 152/20/100
f 152/20/100 151/21/101 149/44/133
f 180/45/134 149/44/133 151/21/101
f 151/21/101 122/22/102 180/45/134
f 122/22/102 121/23/104 180/45/134
f 121/23/104 125/24/106 180/45/134
f 125/24/106 127/25/108 180/45/134
f 127/25/108 129/26/110 180/45/134
f 129/26/110 131/27/112 180/45/134
f 131/27/112 134/28/113 180/45/134
f 134/28/113 136/29/115 180/45/134
f 136/29/115 138/30/117 180/45/134
f 138/30/117 140/31/119 180/45/134
f 142/46/135 180/45/134 140/31/119
f 140/31/119 139/32/120 142/46/135
f 139/32/120 141/34/123 142/46/135
f 144/47/136 142/46/135 141/34/123
f 141/34/123 143/36/125 144/47/136
f 146/48/137 144/47/136 143/36/125
f 143/36/125 145/38/127 146/48/137
f 147/49/138 146/48/137 145/38/127
f 145/38/127 148/40/129 147/49/138
f 148/40/129 150/42/131 147/49/138
f 150/42/131 149/44/133 147/49/138
f 149/44/133 180/45/134 147/49/138
f 146/48/137 147/49/138 180/45/134
f 144/47/136 146/48/137 180/45/134
f 180/45/134 142/46/135 144/47/136
f 214/1/79 216/2/139 215/3/81
f 215/3/81 213/4/140 214/1/79
f 218/5/83 214/1/79 213/4/140
f 213/4/140 217/6/141 218/5/83
f 220/7/85 218/5/83 217/6/141
f 217/6/141 219/8/86 220/7/85
f 222/9/87 220/7/85 219/8/86
f 219/8/86 221/10/142 222/9/87
f 224/11/89 222/9/87 221/10/142
f 221/10/142 223/12/143 224/11/89
f 226/13/91 224/11/89 223/12/143
f 223/12/143 225/14/92 226/13/91
f 228/15/93 226/13/91 225/14/92
f 225/14/92 227/16/144 228/15/93
f 230/17/95 228/15/93 227/16/144
f 227/16/144 229/18/96 230/17/95
f 238/19/145 239/3/98 184/2/146
f 212/20/100 238/19/145 184/2/146
f 211/21/101 212/20/100 184/2/146
f 182/22/102 211/21/101 184/2/146
f 184/2/146 183/1/103 182/22/102
f 181/23/104 182/22/102 183/1/103
f 183/1/103 186/5/105 181/23/104
f 185/24/106 181/23/104 186/5/105
f 186/5/105 188/7/107 185/24/106
f 187/25/108 185/24/106 188/7/107
f 188/7/107 190/9/109 187/25/108
f 189/26/110 187/25/108 190/9/109
f 190/9/109 192/11/111 189/26/110
f 191/27/112 189/26/110 192/11/111
f 194/28/113 191/27/112 192/11/111
f 192/11/111 193/13/114 194/28/113
f 196/29/115 194/28/113 193/13/114
f 193/13/114 195/15/116 196/29/115
f 198/30/117 196/29/115 195/15/116
f 195/15/116 197/17/147 198/30/117
f 200/31/119 198/30/117 197/17/147
f 199/32/120 200/31/119 197/17/147
f 197/17/147 232/18/121 199/32/120
f 232/18/121 231/33/122 199/32/120
f 201/34/123 199/32/120 231/33/122
f 231/33/122 233/35/148 201/34/123
f 203/36/125 201/34/123 233/35/148
f 233/35/148 234/37/149 203/36/125
f 205/38/127 203/36/125 234/37/149
f 234/37/149 235/39/150 205/38/127
f 208/40/129 205/38/127 235/39/150
f 235/39/150 236/41/151 208/40/129
f 210/42/131 208/40/129 236/41/151
f 236/41/151 237/43/132 210/42/131
f 212/20/100 210/42/131 237/43/132
f 237/43/132 238/19/145 212/20/100
f 209/44/133 210/42/131 212/20/100
f 212/20/100 211/21/101 209/44/133
f 240/45/152 209/44/133 211/21/101
f 211/21/101 182/22/102 240/45/152
f 182/22/102 181/23/104 240/45/152
f 181/23/104 185/24/106 240/45/152
f 185/24/106 187/25/108 240/45/152
f 187/25/108 189/26/110 240/45/152
f 189/26/110 191/27/112 240/45/152
f 191/27/112 194/28/113 240/45/152
f 194/28/113 196/29/115 240/45/152
f 196/29/115 198/30/117 240/45/152
f 198/30/117 200/31/119 240/45/152
f 202/46/135 240/45/152 200/31/119
f 200/31/119 199/32/120 202/46/135
f 199/32/120 201/34/123 202/46/135
f 204/47/136 202/46/135 201/34/123
f 201/34/123 203/36/125 204/47/136
f 206/48/137 204/47/136 203/36/125
f 203/36/125 205/38/127 206/48/137
f 207/49/138 206/48/137 205/38/127
f 205/38/127 208/40/129 207/49/138
f 208/40/129 210/42/131 207/49/138
f 210/42/131 209/44/133 207/49/138
f 209/44/133 240/45/152 207/49/138
f 206/48/137 207/49/138 240/45/152
f 204/47/136 206/48/137 240/45/152
f 240/45/152 202/46/135 204/47/136
f 274/1/153 276/2/154 275/3/155
f 275/3/155 273/4/156 274/1/153
f 278/5/157 274/1/153 273/4/156
f 273/4/156 277/6/158 278/5/157
f 280/7/159 278/5/157 277/6/158
f 277/6/158 279/8/160 280/7/159
f 282/9/161 280/7/159 279/8/160
f 279/8/160 281/10/162 282/9/161
f 284/11/163 282/9/161 281/10/162
f 281/10/162 283/12/164 284/11/163
f 286/13/165 284/11/163 283/12/164
f 283/12/164 285/14/166 286/13/165
f 288/15/167 286/13/165 285/14/166
f 285/14/166 287/16/168 288/15/167
f 290/17/169 288/15/167 287/16/168
f 287/16/168 289/18/170 290/17/169
f 298/19/171 299/3/172 244/2/173
f 272/20/174 298/19/171 244/2/173
f 271/21/175 272/20/174 244/2/173
f 242/22/176 271/21/175 244/2/173
f 244/2/173 243/1/177 242/22/176
f 241/23/178 242/22/176 243/1/177
f 243/1/177 246/5/179 241/23/178
f 245/24/180 241/23/178 246/5/179
f 246/5/179 248/7/181 245/24/180
f 247/25/182 245/24/180 248/7/181
f 248/7/181 250/9/183 247/25/182
f 249/26/184 247/25/182 250/9/183
f 250/9/183 252/11/185 249/26/184
f 251/27/186 249/26/184 252/11/185
f 254/28/187 251/27/186 252/11/185
f 252/11/185 253/13/188 254/28/187
f 256/29/189 254/28/187 253/13/188
f 253/13/188 255/15/190 256/29/189
f 258/30/191 256/29/189 255/15/190
f 255/15/190 257/17/192 258/30/191
f 260/31/193 258/30/191 257/17/192
f 259/32/194 260/31/193 257/17/192
f 257/17/192 292/18/195 259/32/194
f 292/18/195 291/33/196 259/32/194
f 261/34/197 259/32/194 291/33/196
f 291/33/196 293/35/198 261/34/197
f 263/36/199 261/34/197 293/35/198
f 293/35/198 294/37/200 263/36/199
f 265/38/201 263/36/199 294/37/200
f 294/37/200 295/39/202 265/38/201
f 268/40/203 265/38/201 295/39/202
f 295/39/202 296/41/204 268/40/203
f 270/42/205 268/40/203 296/41/204
f 296/41/204 297/43/206 270/42/205
f 272/20/174 270/42/205 297/43/206
f 297/43/206 298/19/171 272/20/174
f 269/44/207 270/42/205 272/20/174
f 272/20/174 271/21/175 269/44/207
f 300/45/208 269/44/207 271/21/175
f 271/21/175 242/22/176 300/45/208
f 242/22/176 241/23/178 300/45/208
f 241/23/178 245/24/180 300/45/208
f 245/24/180 247/25/182 300/45/208
f 247/25/182 249/26/184 300/45/208
f 249/26/184 251/27/186 300/45/208
f 251/27/186 254/28/187 300/45/208
f 254/28/187 256/29/189 300/45/208
f 256/29/189 258/30/191 300/45/208
f 258/30/191 260/31/193 300/45/208
f 262/46/209 300/45/208 260/31/193
f 260/31/193 259/32/194 262/46/209
f 259/32/194 261/34/197 262/46/209
f 264/47/210 262/46/209 261/34/197
f 261/34/197 263/36/199 264/47/210
f 266/48/211 264/47/210 263/36/199
f 263/36/199 265/38/201 266/48/211
f 267/49/212 266/48/211 265/38/201
f 265/38/201 268/40/203 267/49/212
f 268/40/203 270/42/205 267/49/212
f 270/42/205 269/44/207 267/49/212
f 269/44/207 300/45/208 267/49/212
f 266/48/211 267/49/212 300/45/208
f 264/47/210 266/48/211 300/45/208
f 300/45/208 262/46/209 264/47/210
f 334/1/153 336/2/154 335/3/155
f 335/3/155 333/4/213 334/1/153
f 338/5/157 334/1/153 333/4/213
f 333/4/213 337/6/158 338/5/157
f 340/7/159 338/5/157 337/6/158
f 337/6/158 339/8/160 340/7/159
f 342/9/161 340/7/159 339/8/160
f 339/8/160 341/10/214 342/9/161
f 344/11/215 342/9/161 341/10/214
f 341/10/214 343/12/216 344/11/215
f 346/13/165 344/11/215 343/12/216
f 343/12/216 345/14/217 346/13/165
f 348/15/218 346/13/165 345/14/217
f 345/14/217 347/16/168 348/15/218
f 350/17/169 348/15/218 347/16/168
f 347/16/168 349/18/170 350/17/169
f 358/19/219 359/3/172 304/2/173
f 332/20/174 358/19/219 304/2/173
f 331/21/175 332/20/174 304/2/173
f 302/22/176 331/21/175 304/2/173
f 304/2/173 303/1/177 302/22/176
f 301/23/178 302/22/176 303/1/177
f 303/1/177 306/5/179 301/23/178
f 305/24/180 301/23/178 306/5/179
f 306/5/179 308/7/181 305/24/180
f 307/25/182 305/24/180 308/7/181
f 308/7/181 310/9/183 307/25/182
f 309/26/184 307/25/182 310/9/183
f 310/9/183 312/11/185 309/26/184
f 311/27/186 309/26/184 312/11/185
f 314/28/187 311/27/186 312/11/185
f 312/11/185 313/13/188 314/28/187
f 316/29/189 314/28/187 313/13/188
f 313/13/188 315/15/220 316/29/189
f 318/30/191 316/29/189 315/15/220
f 315/15/220 317/17/221 318/30/191
f 320/31/193 318/30/191 317/17/221
f 319/32/194 320/31/193 317/17/221
f 317/17/221 352/18/195 319/32/194
f 352/18/195 351/33/196 319/32/194
f 321/34/197 319/32/194 351/33/196
f 351/33/196 353/35/222 321/34/197
f 323/36/199 321/34/197 353/35/222
f 353/35/222 354/37/223 323/36/199
f 325/38/201 323/36/199 354/37/223
f 354/37/223 355/39/202 325/38/201
f 328/40/203 325/38/201 355/39/202
f 355/39/202 356/41/224 328/40/203
f 330/42/205 328/40/203 356/41/224
f 356/41/224 357/43/206 330/42/205
f 332/20/174 330/42/205 357/43/206
f 357/43/206 358/19/219 332/20/174
f 329/44/207 330/42/205 332/20/174
f 332/20/174 331/21/175 329/44/207
f 360/45/208 329/44/207 331/21/175
f 331/21/175 302/22/176 360/45/208
f 302/22/176 301/23/178 360/45/208
f 301/23/178 305/24/180 360/45/208
f 305/24/180 307/25/182 360/45/208
f 307/25/182 309/26/184 360/45/208
f 309/26/184 311/27/186 360/45/208
f 311/27/186 314/28/187 360/45/208
f 314/28/187 316/29/189 360/45/208
f 316/29/189 318/30/191 360/45/208
f 318/30/191 320/31/193 360/45/208
f 322/46/209 360/45/208 320/31/193
f 320/31/193 319/32/194 322/46/209
f 319/32/194 321/34/197 322/46/209
f 324/47/210 322/46/209 321/34/197
f 321/34/197 323/36/199 324/47/210
f 326/48/211 324/47/210 323/36/199
f 323/36/199 325/38/201 326/48/211
f 327/49/212 326/48/211 325/38/201
f 325/38/201 328/40/203 327/49/212
f 328/40/203 330/42/205 327/49/212
f 330/42/205 329/44/207 327/49/212
f 329/44/207 360/45/208 327/49/212
f 326/48/211 327/49/212 360/45/208
f 324/47/210 326/48/211 360/45/208
f 360/45/208 322/46/209 324/47/210
f 394/1/225 396/2/226 395/3/227
f 395/3/227 393/4/228 394/1/225
f 398/5/9 394/1/225 393/4/228
f 393/4/228 397/6/229 398/5/9
f 400/7/11 398/5/9 397/6/229
f 397/6/229 399/8/230 400/7/11
f 402/9/231 400/7/11 399/8/230
f 399/8/230 401/10/232 402/9/231
f 404/11/233 402/9/231 401/10/232
f 401/10/232 403/12/234 404/11/233
f 406/13/235 404/11/233 403/12/234
f 403/12/234 405/14/236 406/13/235
f 408/15/237 406/13/235 405/14/236
f 405/14/236 407/16/238 408/15/237
f 410/17/239 408/15/237 407/16/238
f 407/16/238 409/18/240 410/17/239
f 418/19/241 419/3/242 364/2/243
f 392/20/244 418/19/241 364/2/243
f 391/21/245 392/20/244 364/2/243
f 362/22/28 391/21/245 364/2/243
f 364/2/243 363/1/29 362/22/28
f 361/23/246 362/22/28 363/1/29
f 363/1/29 366/5/31 361/23/246
f 365/24/247 361/23/246 366/5/31
f 366/5/31 368/7/33 365/24/247
f 367/25/248 365/24/247 368/7/33
f 368/7/33 370/9/249 367/25/248
f 369/26/250 367/25/248 370/9/249
f 370/9/249 372/11/38 369/26/250
f 371/27/251 369/26/250 372/11/38
f 374/28/252 371/27/251 372/11/38
f 372/11/38 373/13/253 374/28/252
f 376/29/254 374/28/252 373/13/253
f 373/13/253 375/15/255 376/29/254
f 378/30/256 376/29/254 375/15/255
f 375/15/255 377/17/257 378/30/256
f 380/31/258 378/30/256 377/17/257
f 379/32/259 380/31/258 377/17/257
f 377/17/257 412/18/260 379/32/259
f 412/18/260 411/33/261 379/32/259
f 381/34/262 379/32/259 411/33/261
f 411/33/261 413/35/263 381/34/262
f 383/36/264 381/34/262 413/35/263
f 413/35/263 414/37/265 383/36/264
f 385/38/266 383/36/264 414/37/265
f 414/37/265 415/39/267 385/38/266
f 388/40/268 385/38/266 415/39/267
f 415/39/267 416/41/269 388/40/268
f 390/42/270 388/40/268 416/41/269
f 416/41/269 417/43/271 390/42/270
f 392/20/244 390/42/270 417/43/271
f 417/43/271 418/19/241 392/20/244
f 389/44/272 390/42/270 392/20/244
f 392/20/244 391/21/245 389/44/272
f 420/45/273 389/44/272 391/21/245
f 391/21/245 362/22/28 420/45/273
f 362/22/28 361/23/246 420/45/273
f 361/23/246 365/24/247 420/45/273
f 365/24/247 367/25/248 420/45/273
f 367/25/248 369/26/250 420/45/273
f 369/26/250 371/27/251 420/45/273
f 371/27/251 374/28/252 420/45/273
f 374/28/252 376/29/254 420/45/273
f 376/29/254 378/30/256 420/45/273
f 378/30/256 380/31/258 420/45/273
f 382/46/274 420/45/273 380/31/258
f 380/31/258 379/32/259 382/46/274
f 379/32/259 381/34/262 382/46/274
f 384/47/275 382/46/274 381/34/262
f 381/34/262 383/36/264 384/47/275
f 386/48/276 384/47/275 383/36/264
f 383/36/264 385/38/266 386/48/276
f 387/49/277 386/48/276 385/38/266
f 385/38/266 388/40/268 387/49/277
f 388/40/268 390/42/270 387/49/277
f 390/42/270 389/44/272 387/49/277
f 389/44/272 420/45/273 387/49/277
f 386/48/276 387/49/277 420/45/273
f 384/47/275 386/48/276 420/45/273
f 420/45/273 382/46/274 384/47/275
f 454/1/278 456/2/226 455/3/227
f 455/3/227 453/4/279 454/1/278
f 458/5/9 454/1/278 453/4/279
f 453/4/279 457/6/280 458/5/9
f 460/7/11 458/5/9 457/6/280
f 457/6/280 459/8/281 460/7/11
f 462/9/231 460/7/11 459/8/281
f 459/8/281 461/10/232 462/9/231
f 464/11/233 462/9/231 461/10/232
f 461/10/232 463/12/282 464/11/233
f 466/13/235 464/11/233 463/12/282
f 463/12/282 465/14/283 466/13/235
f 468/15/237 466/13/235 465/14/283
f 465/14/283 467/16/238 468/15/237
f 470/17/284 468/15/237 467/16/238
f 467/16/238 469/18/240 470/17/284
f 478/19/285 479/3/242 424/2/243
f 452/20/244 478/19/285 424/2/243
f 451/21/245 452/20/244 424/2/243
f 422/22/28 451/21/245 424/2/243
f 424/2/243 423/1/29 422/22/28
f 421/23/286 422/22/28 423/1/29
f 423/1/29 426/5/31 421/23/286
f 425/24/247 421/23/286 426/5/31
f 426/5/31 428/7/287 425/24/247
f 427/25/248 425/24/247 428/7/287
f 428/7/287 430/9/249 427/25/248
f 429/26/250 427/25/248 430/9/249
f 430/9/249 432/11/38 429/26/250
f 431/27/251 429/26/250 432/11/38
f 434/28/252 431/27/251 432/11/38
f 432/11/38 433/13/253 434/28/252
f 436/29/254 434/28/252 433/13/253
f 433/13/253 435/15/255 436/29/254
f 438/30/256 436/29/254 435/15/255
f 435/15/255 437/17/257 438/30/256
f 440/31/258 438/30/256 437/17/257
f 439/32/259 440/31/258 437/17/257
f 437/17/257 472/18/288 439/32/259
f 472/18/288 471/33/261 439/32/259
f 441/34/289 439/32/259 471/33/261
f 471/33/261 473/35/290 441/34/289
f 443/36/264 441/34/289 473/35/290
f 473/35/290 474/37/265 443/36/264
f 445/38/266 443/36/264 474/37/265
f 474/37/265 475/39/291 445/38/266
f 448/40/268 445/38/266 475/39/291
f 475/39/291 476/41/292 448/40/268
f 450/42/270 448/40/268 476/41/292
f 476/41/292 477/43/293 450/42/270
f 452/20/244 450/42/270 477/43/293
f 477/43/293 478/19/285 452/20/244
f 449/44/272 450/42/270 452/20/244
f 452/20/244 451/21/245 449/44/272
f 480/45/273 449/44/272 451/21/245
f 451/21/245 422/22/28 480/45/273
f 422/22/28 421/23/286 480/45/273
f 421/23/286 425/24/247 480/45/273
f 425/24/247 427/25/248 480/45/273
f 427/25/248 429/26/250 480/45/273
f 429/26/250 431/27/251 480/45/273
f 431/27/251 434/28/252 480/45/273
f 434/28/252 436/29/254 480/45/273
f 436/29/254 438/30/256 480/45/273
f 438/30/256 440/31/258 480/45/273
f 442/46/274 480/45/273 440/31/258
f 440/31/258 439/32/259 442/46/274
f 439/32/259 441/34/289 442/46/274
f 444/47/275 442/46/274 441/34/289
f 441/34/289 443/36/264 444/47/275
f 446/48/276 444/47/275 443/36/264
f 443/36/264 445/38/266 446/48/276
f 447/49/277 446/48/276 445/38/266
f 445/38/266 448/40/268 447/49/277
f 448/40/268 450/42/270 447/49/277
f 450/42/270 449/44/272 447/49/277
f 449/44/272 480/45/273 447/49/277
f 446/48/276 447/49/277 480/45/273
f 444/47/275 446/48/276 480/45/273
f 480/45/273 442/46/274 444/47/275
f 514/1/225 516/2/226 515/3/227
f 515/3/227 513/4/294 514/1/225
f 518/5/9 514/1/225 513/4/294
f 513/4/294 517/6/295 518/5/9
f 520/7/296 518/5/9 517/6/295
f 517/6/295 519/8/297 520/7/296
f 522/9/231 520/7/296 519/8/297
f 519/8/297 521/10/298 522/9/231
f 524/11/299 522/9/231 521/10/298
f 521/10/298 523/12/300 524/11/299
f 526/13/235 524/11/299 523/12/300
f 523/12/300 525/14/301 526/13/235
f 528/15/302 526/13/235 525/14/301
f 525/14/301 527/16/303 528/15/302
f 530/17/284 528/15/302 527/16/303
f 527/16/303 529/18/240 530/17/284
f 538/19/304 539/3/242 484/2/243
f 512/20/244 538/19/304 484/2/243
f 511/21/26 512/20/244 484/2/243
f 482/22/28 511/21/26 484/2/243
f 484/2/243 483/1/29 482/22/28
f 481/23/286 482/22/28 483/1/29
f 483/1/29 486/5/31 481/23/286
f 485/24/247 481/23/286 486/5/31
f 486/5/31 488/7/69 485/24/247
f 487/25/248 485/24/247 488/7/69
f 488/7/69 490/9/249 487/25/248
f 489/26/250 487/25/248 490/9/249
f 490/9/249 492/11/38 489/26/250
f 491/27/251 489/26/250 492/11/38
f 494/28/305 491/27/251 492/11/38
f 492/11/38 493/13/306 494/28/305
f 496/29/254 494/28/305 493/13/306
f 493/13/306 495/15/307 496/29/254
f 498/30/256 496/29/254 495/15/307
f 495/15/307 497/17/308 498/30/256
f 500/31/258 498/30/256 497/17/308
f 499/32/259 500/31/258 497/17/308
f 497/17/308 532/18/260 499/32/259
f 532/18/260 531/33/309 499/32/259
f 501/34/310 499/32/259 531/33/309
f 531/33/309 533/35/311 501/34/310
f 503/36/264 501/34/310 533/35/311
f 533/35/311 534/37/265 503/36/264
f 505/38/266 503/36/264 534/37/265
f 534/37/265 535/39/312 505/38/266
f 508/40/268 505/38/266 535/39/312
f 535/39/312 536/41/313 508/40/268
f 510/42/270 508/40/268 536/41/313
f 536/41/313 537/43/293 510/42/270
f 512/20/244 510/42/270 537/43/293
f 537/43/293 538/19/304 512/20/244
f 509/44/314 510/42/270 512/20/244
f 512/20/244 511/21/26 509/44/314
f 540/45/273 509/44/314 511/21/26
f 511/21/26 482/22/28 540/45/273
f 482/22/28 481/23/286 540/45/273
f 481/23/286 485/24/247 540/45/273
f 485/24/247 487/25/248 540/45/273
f 487/25/248 489/26/250 540/45/273
f 489/26/250 491/27/251 540/45/273
f 491/27/251 494/28/305 540/45/273
f 494/28/305 496/29/254 540/45/273
f 496/29/254 498/30/256 540/45/273
f 498/30/256 500/31/258 540/45/273
f 502/46/274 540/45/273 500/31/258
f 500/31/258 499/32/259 502/46/274
f 499/32/259 501/34/310 502/46/274
f 504/47/275 502/46/274 501/34/310
f 501/34/310 503/36/264 504/47/275
f 506/48/276 504/47/275 503/36/264
f 503/36/264 505/38/266 506/48/276
f 507/49/277 506/48/276 505/38/266
f 505/38/266 508/40/268 507/49/277
f 508/40/268 510/42/270 507/49/277
f 510/42/270 509/44/314 507/49/277
f 509/44/314 540/45/273 507/49/277
f 506/48/276 507/49/277 540/45/273
f 504/47/275 506/48/276 540/45/273
f 540/45/273 502/46/274 504/47/275
