# Blender 5.1.0
# www.blender.org
o w9a02_wall03
v -7.500000 2.641037 -5.700000
v -7.500000 2.641036 17.641838
v -7.500000 8.500000 -5.700000
v -7.500000 8.499999 17.641838
v 7.500000 8.499999 17.641838
v 7.500000 2.641036 17.641838
v 7.500000 2.641037 1.451321
v 7.500000 8.500000 -5.700000
v 7.500000 2.641037 -5.700000
v -2.436929 2.641037 -5.700000
v -5.057444 0.143168 -5.700000
v -7.500000 0.143168 -5.700000
v -5.057444 2.641037 -5.700000
v -7.500000 2.641037 -5.700000
v -7.500000 0.143167 17.641838
v -7.500000 0.143168 -5.700000
v 7.500000 0.143167 17.641838
v 7.500000 0.143168 1.451321
v -2.436929 0.143168 -5.700000
v 7.500000 0.143168 -5.700000
v -7.500000 8.500000 -5.700000
v -5.057444 2.641037 -5.700000
v -7.500000 8.500000 -5.700000
v -2.436929 2.641037 -5.700000
v 7.500000 8.500000 -5.700000
v 7.500000 0.143168 -1.215315
v 7.500000 0.143168 -5.700000
v 7.500000 2.641037 -1.215314
v 7.500000 2.641037 -5.700000
v 7.500000 2.641037 -1.215314
v 7.500000 8.500000 -5.700000
v 7.500000 2.641037 1.451321
v 7.500000 8.499999 17.641838
v 7.500000 8.500000 -5.700000
v -7.500000 2.641036 17.641838
v 7.500000 2.641036 17.641838
v -7.500000 8.499999 17.641838
v 7.500000 8.499999 17.641838
v 7.500000 0.143167 17.641838
v -7.500000 0.143167 17.641838
v 1.610326 3.900454 16.994419
v 1.950632 3.900454 16.994419
v 1.610326 4.051503 16.994419
v 1.950632 4.051503 16.994419
v 1.610326 3.900454 17.649805
v 1.950632 3.900454 17.649805
v 1.610326 3.900454 16.994419
v 1.950632 3.900454 16.994419
v 1.950632 3.900454 16.994419
v 1.950632 3.900454 17.649805
v 1.950632 4.051503 16.994419
v 1.950632 4.051503 17.649805
v 1.610326 3.900454 17.649805
v 1.610326 3.900454 16.994419
v 1.610326 4.051503 17.649805
v 1.610326 4.051503 16.994419
v 1.996633 4.375637 16.886471
v 1.996633 4.375637 17.649805
v 1.996633 4.486246 16.886471
v 1.996633 4.486246 17.649805
v 1.564327 4.375637 16.886471
v 1.996633 4.375637 16.886471
v 1.564327 4.486246 16.886471
v 1.996633 4.486246 16.886471
v 1.564327 4.375637 17.649805
v 1.564327 4.375637 16.886471
v 1.545931 4.496690 17.649805
v 1.564327 4.486246 16.886471
v 1.610326 4.203294 16.932470
v 1.950632 4.203294 16.932470
v 1.610326 4.278527 16.932470
v 1.950632 4.278527 16.932470
v 1.610326 4.203294 16.932470
v 1.610326 4.278527 16.932470
v 1.610326 4.278527 17.649805
v 1.950632 4.142436 16.947294
v 1.610326 4.051503 16.994419
v 1.950632 4.051503 16.994419
v 1.610326 4.142436 16.947294
v 1.950632 4.142436 16.947294
v 1.610326 4.142436 16.947294
v 2.015051 4.496690 16.868076
v 2.015051 4.496690 17.649805
v 2.015051 4.550900 16.868076
v 2.015051 4.550900 17.649805
v 1.545931 4.496690 16.868076
v 2.015051 4.496690 16.868076
v 1.545931 4.550900 16.868076
v 2.015051 4.550900 16.868076
v 1.545931 4.496690 17.649805
v 1.545931 4.496690 16.868076
v 1.545931 4.550900 17.649805
v 1.545931 4.550900 16.868076
v 1.950632 4.278527 17.649805
v 1.996633 4.375637 17.649805
v 1.950632 4.278527 16.932470
v 1.996633 4.375637 16.886471
v 1.610326 4.278527 16.932470
v 1.950632 4.278527 16.932470
v 1.564327 4.375637 16.886471
v 1.996633 4.375637 16.886471
v 1.610326 4.278527 17.649805
v 1.610326 4.278527 16.932470
v 1.545931 4.550900 16.868076
v 2.015051 4.550900 16.868076
v 1.545931 4.550900 17.649805
v 2.015051 4.550900 17.649805
v 1.996633 4.486246 17.649805
v 2.015051 4.496690 17.649805
v 1.996633 4.486246 16.886471
v 2.015051 4.496690 16.868076
v 1.564327 4.486246 16.886471
v 1.996633 4.486246 16.886471
v 1.545931 4.496690 16.868076
v 2.015051 4.496690 16.868076
v 1.545931 4.496690 17.649805
v 1.564327 4.486246 16.886471
v 1.545931 4.496690 16.868076
v 1.950632 4.203294 16.932470
v 1.950632 4.278527 17.649805
v 1.950632 4.278527 16.932470
v -3.909673 4.051503 16.994419
v -3.909673 3.900454 16.994419
v -3.569367 4.051503 16.994419
v -3.569367 3.900454 16.994419
v -3.909673 3.900454 16.994419
v -3.909673 3.900454 17.649805
v -3.569367 3.900454 16.994419
v -3.569367 3.900454 17.649805
v -3.569367 4.051503 16.994419
v -3.569367 3.900454 16.994419
v -3.569367 4.051503 17.649805
v -3.569367 3.900454 17.649805
v -3.909673 4.051503 17.649805
v -3.909673 3.900454 17.649805
v -3.909673 4.051503 16.994419
v -3.909673 3.900454 16.994419
v -3.523367 4.486246 16.886471
v -3.523367 4.375637 16.886471
v -3.523367 4.486246 17.649805
v -3.523367 4.375637 17.649805
v -3.955673 4.486246 16.886471
v -3.955673 4.375637 16.886471
v -3.523367 4.486246 16.886471
v -3.523367 4.375637 16.886471
v -3.974068 4.496690 17.649805
v -3.955673 4.375637 17.649805
v -3.955673 4.486246 16.886471
v -3.955673 4.375637 16.886471
v -3.909673 4.278527 16.932470
v -3.909673 4.203294 16.932470
v -3.569367 4.278527 16.932470
v -3.569367 4.203294 16.932470
v -3.909673 4.203294 16.932470
v -3.909673 4.278527 16.932470
v -3.909673 4.278527 17.649805
v -3.569367 4.142436 16.947294
v -3.569367 4.203294 16.932470
v -3.909673 4.142436 16.947294
v -3.909673 4.051503 16.994419
v -3.569367 4.142436 16.947294
v -3.569367 4.051503 16.994419
v -3.909673 4.142436 16.947294
v -3.504949 4.550900 16.868076
v -3.504949 4.496690 16.868076
v -3.504949 4.550900 17.649805
v -3.504949 4.496690 17.649805
v -3.974068 4.550900 16.868076
v -3.974068 4.496690 16.868076
v -3.504949 4.550900 16.868076
v -3.504949 4.496690 16.868076
v -3.974068 4.550900 17.649805
v -3.974068 4.496690 17.649805
v -3.974068 4.550900 16.868076
v -3.974068 4.496690 16.868076
v -3.569367 4.278527 16.932470
v -3.569367 4.278527 17.649805
v -3.523367 4.375637 16.886471
v -3.523367 4.375637 17.649805
v -3.955673 4.375637 16.886471
v -3.909673 4.278527 16.932470
v -3.523367 4.375637 16.886471
v -3.569367 4.278527 16.932470
v -3.909673 4.278527 17.649805
v -3.909673 4.278527 16.932470
v -3.974068 4.550900 17.649805
v -3.974068 4.550900 16.868076
v -3.504949 4.550900 17.649805
v -3.504949 4.550900 16.868076
v -3.523367 4.486246 16.886471
v -3.523367 4.486246 17.649805
v -3.504949 4.496690 16.868076
v -3.504949 4.496690 17.649805
v -3.974068 4.496690 16.868076
v -3.955673 4.486246 16.886471
v -3.504949 4.496690 16.868076
v -3.523367 4.486246 16.886471
v -3.974068 4.496690 17.649805
v -3.955673 4.486246 16.886471
v -3.974068 4.496690 16.868076
v -3.569367 4.278527 16.932470
v -3.569367 4.278527 17.649805
v -3.512025 3.584979 17.548962
v -3.287550 3.551164 17.282911
v -3.740655 3.596299 17.282911
v -3.287550 3.551164 17.548962
v -2.865891 3.418891 17.548962
v -3.071207 3.495494 17.282911
v -2.675602 3.322646 17.282911
v -2.503124 3.208432 17.548962
v -2.503124 3.208432 17.282911
v -2.352838 3.078181 17.548962
v -2.352838 3.078181 17.282911
v -2.123917 2.778844 17.548962
v -2.225350 2.934173 17.282911
v -2.123917 2.778844 17.282911
v -2.005817 2.444895 17.548962
v -2.050648 2.614801 17.282911
v -2.005817 2.444895 17.282911
v -1.991127 2.272047 17.548962
v -1.991127 2.272047 17.282911
v -5.430974 2.614801 17.548962
v -5.475807 2.444884 17.282911
v -5.491103 2.272047 17.548962
v -5.491103 2.272047 17.282911
v -5.430974 2.614801 17.282911
v -5.256566 2.934173 17.548962
v -5.357708 2.778844 17.282911
v -5.256566 2.934173 17.282911
v -4.978162 3.208432 17.548962
v -5.129077 3.078181 17.282911
v -4.978162 3.208432 17.282911
v -4.615418 3.418880 17.548962
v -4.806022 3.322668 17.282911
v -4.410440 3.495494 17.282911
v -4.193467 3.551164 17.548962
v -3.969285 3.584979 17.282911
v -3.969285 3.584979 17.548962
v -1.991127 2.161067 17.548962
v -1.991127 2.161067 17.282911
v -5.491732 0.000022 17.547951
v -1.990184 0.000022 17.547951
v -1.990184 0.000022 17.282911
v -5.491732 0.000022 17.282911
v -3.739532 4.508022 17.258070
v -3.740655 3.621163 17.258070
v -3.509554 3.609719 17.258070
v -3.740655 3.621163 17.258070
v -3.740655 3.596299 17.282911
v -3.509554 3.609719 17.258070
v -3.287550 3.551164 17.282911
v -3.969285 3.584979 17.282911
v -3.971755 3.609719 17.258070
v -3.282609 3.575533 17.258070
v -3.063749 3.519224 17.258070
v -3.071207 3.495494 17.282911
v -2.855896 3.441678 17.258070
v -2.675602 3.322646 17.282911
v -2.663091 3.344152 17.258070
v -2.503124 3.208432 17.282911
v -2.488075 3.228254 17.258070
v -2.335341 3.095880 17.258070
v -2.352838 3.078181 17.282911
v -2.225350 2.934173 17.282911
v -2.205562 2.949266 17.258070
v -2.123917 2.778844 17.282911
v -2.102039 2.790771 17.258070
v -2.027155 2.623089 17.258070
v -2.050648 2.614801 17.282911
v -2.005817 2.444895 17.282911
v -1.981245 2.449140 17.258070
v -1.966308 2.273091 17.258070
v -1.991127 2.272047 17.282911
v -1.991127 2.161067 17.282911
v -5.500357 2.449185 17.258070
v -5.515945 2.161067 17.258070
v -5.491103 2.272047 17.282911
v -5.475807 2.444884 17.282911
v -5.454469 2.623089 17.258070
v -5.430974 2.614801 17.282911
v -5.379585 2.790749 17.258070
v -5.357708 2.778844 17.282911
v -5.276376 2.949255 17.258070
v -5.256566 2.934173 17.282911
v -5.146574 3.095903 17.258070
v -5.129077 3.078181 17.282911
v -4.993211 3.228265 17.258070
v -4.978162 3.208432 17.282911
v -4.818532 3.344175 17.258070
v -4.806022 3.322668 17.282911
v -4.625391 3.441667 17.258070
v -4.410440 3.495494 17.282911
v -4.417897 3.519224 17.258070
v -4.198409 3.575533 17.258070
v -1.965342 0.000022 17.258070
v -1.990184 0.000022 17.282911
v -5.491732 0.000022 17.282911
v -5.516573 0.000022 17.258070
v -3.971755 3.609719 17.258070
v -3.282609 3.575533 17.258070
v -4.198409 3.575533 17.258070
v -3.063749 3.519224 17.258070
v -4.417897 3.519224 17.258070
v -1.439577 4.508022 17.258070
v -2.855896 3.441678 17.258070
v -6.039577 4.508022 17.258070
v -5.276376 2.949255 17.258070
v -5.146574 3.095903 17.258070
v -4.625391 3.441667 17.258070
v -4.818532 3.344175 17.258070
v -4.993211 3.228265 17.258070
v -5.379585 2.790749 17.258070
v -1.966308 2.273091 17.258070
v -1.439554 2.363362 17.258070
v -1.981245 2.449140 17.258070
v -2.663091 3.344152 17.258070
v -2.488075 3.228254 17.258070
v -2.335341 3.095880 17.258070
v -2.205562 2.949266 17.258070
v -2.102039 2.790771 17.258070
v -5.454469 2.623089 17.258070
v -6.039554 2.363362 17.258070
v -5.500357 2.449185 17.258070
v -6.039532 0.000022 17.258070
v -5.515945 2.161067 17.258070
v -5.516573 0.000022 17.258070
v -1.439532 0.000022 17.258070
v -1.965342 0.000022 17.258070
v -2.027155 2.623089 17.258070
v 1.610326 3.900455 -5.201774
v 1.610326 4.051504 -5.201774
v 1.950632 3.900455 -5.201774
v 1.950632 4.051504 -5.201774
v 1.610326 3.900455 -5.857161
v 1.610326 3.900455 -5.201774
v 1.950632 3.900455 -5.857161
v 1.950632 3.900455 -5.201774
v 1.950632 3.900455 -5.201774
v 1.950632 4.051504 -5.201774
v 1.950632 3.900455 -5.857161
v 1.950632 4.051505 -5.857161
v 1.610326 3.900455 -5.857161
v 1.610326 4.051505 -5.857161
v 1.610326 3.900455 -5.201774
v 1.610326 4.051504 -5.201774
v 1.996633 4.375638 -5.093826
v 1.996633 4.486247 -5.093826
v 1.996633 4.375638 -5.857161
v 1.996633 4.486247 -5.857161
v 1.564327 4.375638 -5.093826
v 1.564327 4.486247 -5.093826
v 1.996633 4.375638 -5.093826
v 1.996633 4.486247 -5.093826
v 1.564327 4.375638 -5.857161
v 1.545931 4.496692 -5.857161
v 1.564327 4.375638 -5.093826
v 1.564327 4.486247 -5.093826
v 1.610326 4.203295 -5.139826
v 1.610326 4.278528 -5.139826
v 1.950632 4.203295 -5.139826
v 1.950632 4.278528 -5.139826
v 1.610326 4.203295 -5.139826
v 1.610326 4.278528 -5.857161
v 1.610326 4.278528 -5.139826
v 1.950632 4.142437 -5.154650
v 1.610326 4.051504 -5.201774
v 1.610326 4.142437 -5.154650
v 1.950632 4.051504 -5.201774
v 1.950632 4.142437 -5.154650
v 1.610326 4.142437 -5.154650
v 2.015051 4.496691 -5.075431
v 2.015051 4.550901 -5.075431
v 2.015051 4.496692 -5.857161
v 2.015051 4.550901 -5.857161
v 1.545931 4.496691 -5.075431
v 1.545931 4.550901 -5.075431
v 2.015051 4.496691 -5.075431
v 2.015051 4.550901 -5.075431
v 1.545931 4.496692 -5.857161
v 1.545931 4.550901 -5.857161
v 1.545931 4.496691 -5.075431
v 1.545931 4.550901 -5.075431
v 1.950632 4.278528 -5.857161
v 1.950632 4.278528 -5.139826
v 1.996633 4.375638 -5.857161
v 1.996633 4.375638 -5.093826
v 1.610326 4.278528 -5.139826
v 1.564327 4.375638 -5.093826
v 1.950632 4.278528 -5.139826
v 1.996633 4.375638 -5.093826
v 1.610326 4.278528 -5.857161
v 1.610326 4.278528 -5.139826
v 1.545931 4.550901 -5.075431
v 1.545931 4.550901 -5.857161
v 2.015051 4.550901 -5.075431
v 2.015051 4.550901 -5.857161
v 1.996633 4.486247 -5.857161
v 1.996633 4.486247 -5.093826
v 2.015051 4.496692 -5.857161
v 2.015051 4.496691 -5.075431
v 1.564327 4.486247 -5.093826
v 1.545931 4.496691 -5.075431
v 1.996633 4.486247 -5.093826
v 2.015051 4.496691 -5.075431
v 1.545931 4.496692 -5.857161
v 1.545931 4.496691 -5.075431
v 1.564327 4.486247 -5.093826
v 1.950632 4.203295 -5.139826
v 1.950632 4.278528 -5.857161
v 1.950632 4.278528 -5.139826
v -3.909673 4.051504 -5.201774
v -3.569367 4.051504 -5.201774
v -3.909673 3.900455 -5.201774
v -3.569367 3.900455 -5.201774
v -3.909673 3.900455 -5.201774
v -3.569367 3.900455 -5.201774
v -3.909673 3.900455 -5.857161
v -3.569367 3.900455 -5.857161
v -3.569367 3.900455 -5.201774
v -3.569367 4.051504 -5.201774
v -3.569367 3.900455 -5.857161
v -3.569367 4.051505 -5.857161
v -3.909673 3.900455 -5.857161
v -3.909673 4.051505 -5.857161
v -3.909673 3.900455 -5.201774
v -3.909673 4.051504 -5.201774
v -3.523367 4.375638 -5.093826
v -3.523367 4.486247 -5.093826
v -3.523367 4.375638 -5.857161
v -3.523367 4.486247 -5.857161
v -3.955673 4.486247 -5.093826
v -3.523367 4.486247 -5.093826
v -3.955673 4.375638 -5.093826
v -3.523367 4.375638 -5.093826
v -3.955673 4.375638 -5.857161
v -3.974068 4.496692 -5.857161
v -3.955673 4.375638 -5.093826
v -3.955673 4.486247 -5.093826
v -3.909673 4.278528 -5.139826
v -3.569367 4.278528 -5.139826
v -3.909673 4.203295 -5.139826
v -3.569367 4.203295 -5.139826
v -3.909673 4.203295 -5.139826
v -3.909673 4.278528 -5.857161
v -3.909673 4.278528 -5.139826
v -3.569367 4.142437 -5.154650
v -3.909673 4.142437 -5.154650
v -3.569367 4.142437 -5.154650
v -3.909673 4.051504 -5.201774
v -3.569367 4.051504 -5.201774
v -3.909673 4.142437 -5.154650
v -3.504949 4.550901 -5.075431
v -3.504949 4.550901 -5.857161
v -3.504949 4.496691 -5.075431
v -3.504949 4.496692 -5.857161
v -3.974068 4.550901 -5.075431
v -3.504949 4.550901 -5.075431
v -3.974068 4.496691 -5.075431
v -3.504949 4.496691 -5.075431
v -3.974068 4.550901 -5.857161
v -3.974068 4.550901 -5.075431
v -3.974068 4.496692 -5.857161
v -3.974068 4.496691 -5.075431
v -3.569367 4.278528 -5.857161
v -3.569367 4.278528 -5.139826
v -3.523367 4.375638 -5.857161
v -3.523367 4.375638 -5.093826
v -3.955673 4.375638 -5.093826
v -3.523367 4.375638 -5.093826
v -3.909673 4.278528 -5.139826
v -3.569367 4.278528 -5.139826
v -3.909673 4.278528 -5.857161
v -3.909673 4.278528 -5.139826
v -3.974068 4.550901 -5.857161
v -3.504949 4.550901 -5.857161
v -3.974068 4.550901 -5.075431
v -3.504949 4.550901 -5.075431
v -3.523367 4.486247 -5.857161
v -3.523367 4.486247 -5.093826
v -3.504949 4.496692 -5.857161
v -3.504949 4.496691 -5.075431
v -3.974068 4.496691 -5.075431
v -3.504949 4.496691 -5.075431
v -3.955673 4.486247 -5.093826
v -3.523367 4.486247 -5.093826
v -3.974068 4.496692 -5.857161
v -3.974068 4.496691 -5.075431
v -3.955673 4.486247 -5.093826
v -3.569367 4.203295 -5.139826
v -3.569367 4.278528 -5.857161
v -3.569367 4.278528 -5.139826
v -3.512025 3.584980 -5.756317
v -3.740655 3.596300 -5.490267
v -3.287550 3.551165 -5.490267
v -3.287550 3.551165 -5.756317
v -2.865891 3.418892 -5.756317
v -3.071207 3.495495 -5.490267
v -2.675602 3.322647 -5.490267
v -2.503124 3.208433 -5.756317
v -2.503124 3.208433 -5.490267
v -2.352838 3.078182 -5.756317
v -2.352838 3.078182 -5.490267
v -2.123917 2.778845 -5.756317
v -2.225350 2.934174 -5.490267
v -2.123917 2.778845 -5.490267
v -2.005817 2.444896 -5.756317
v -2.050648 2.614802 -5.490267
v -2.005817 2.444896 -5.490267
v -1.991127 2.272048 -5.756317
v -1.991127 2.272048 -5.490267
v -5.430974 2.614802 -5.756317
v -5.491103 2.272048 -5.756317
v -5.475807 2.444885 -5.490267
v -5.491103 2.272048 -5.490267
v -5.430974 2.614802 -5.490267
v -5.256566 2.934174 -5.756317
v -5.357708 2.778845 -5.490267
v -5.256566 2.934174 -5.490267
v -4.978162 3.208433 -5.756317
v -5.129077 3.078182 -5.490267
v -4.978162 3.208433 -5.490267
v -4.615418 3.418881 -5.756317
v -4.806022 3.322669 -5.490267
v -4.410440 3.495495 -5.490267
v -4.193467 3.551165 -5.756317
v -3.969285 3.584980 -5.490267
v -3.969285 3.584980 -5.756317
v -1.991127 2.161068 -5.756317
v -1.991127 2.161068 -5.490267
v -5.491732 0.000023 -5.755306
v -5.491732 0.000023 -5.490267
v -1.990184 0.000023 -5.490267
v -1.990184 0.000023 -5.755306
v -3.739532 4.508023 -5.465425
v -3.509554 3.609720 -5.465425
v -3.740655 3.621164 -5.465425
v -3.740655 3.621164 -5.465425
v -3.509554 3.609720 -5.465425
v -3.740655 3.596300 -5.490267
v -3.287550 3.551165 -5.490267
v -3.969285 3.584980 -5.490267
v -3.971755 3.609720 -5.465425
v -3.282609 3.575534 -5.465425
v -3.063749 3.519225 -5.465425
v -3.071207 3.495495 -5.490267
v -2.855896 3.441679 -5.465425
v -2.675602 3.322647 -5.490267
v -2.663091 3.344153 -5.465425
v -2.488075 3.228255 -5.465425
v -2.503124 3.208433 -5.490267
v -2.335341 3.095881 -5.465425
v -2.352838 3.078182 -5.490267
v -2.205562 2.949267 -5.465425
v -2.225350 2.934174 -5.490267
v -2.102039 2.790772 -5.465425
v -2.123917 2.778845 -5.490267
v -2.027155 2.623090 -5.465425
v -2.050648 2.614802 -5.490267
v -1.981245 2.449141 -5.465425
v -2.005817 2.444896 -5.490267
v -1.966308 2.273092 -5.465425
v -1.991127 2.161068 -5.490267
v -1.991127 2.272048 -5.490267
v -5.500357 2.449186 -5.465425
v -5.491103 2.272048 -5.490267
v -5.515945 2.161068 -5.465425
v -5.454469 2.623090 -5.465425
v -5.475807 2.444885 -5.490267
v -5.430974 2.614802 -5.490267
v -5.379585 2.790750 -5.465425
v -5.357708 2.778845 -5.490267
v -5.276376 2.949256 -5.465425
v -5.256566 2.934174 -5.490267
v -5.146574 3.095904 -5.465425
v -5.129077 3.078182 -5.490267
v -4.993211 3.228266 -5.465425
v -4.978162 3.208433 -5.490267
v -4.818532 3.344176 -5.465425
v -4.806022 3.322669 -5.490267
v -4.625391 3.441668 -5.465425
v -4.410440 3.495495 -5.490267
v -4.417897 3.519225 -5.465425
v -4.198409 3.575534 -5.465425
v -1.965342 0.000023 -5.465425
v -1.990184 0.000023 -5.490267
v -5.491732 0.000023 -5.490267
v -5.516573 0.000023 -5.465425
v -3.971755 3.609720 -5.465425
v -3.282609 3.575534 -5.465425
v -4.198409 3.575534 -5.465425
v -3.063749 3.519225 -5.465425
v -4.417897 3.519225 -5.465425
v -1.439577 4.508023 -5.465425
v -2.855896 3.441679 -5.465425
v -6.039577 4.508023 -5.465425
v -5.146574 3.095904 -5.465425
v -5.276376 2.949256 -5.465425
v -4.625391 3.441668 -5.465425
v -4.818532 3.344176 -5.465425
v -4.993211 3.228266 -5.465425
v -5.379585 2.790750 -5.465425
v -1.966308 2.273092 -5.465425
v -1.981245 2.449141 -5.465425
v -1.439554 2.363363 -5.465425
v -2.663091 3.344153 -5.465425
v -2.488075 3.228255 -5.465425
v -2.335341 3.095881 -5.465425
v -2.205562 2.949267 -5.465425
v -2.102039 2.790772 -5.465425
v -5.454469 2.623090 -5.465425
v -5.500357 2.449186 -5.465425
v -6.039554 2.363363 -5.465425
v -5.515945 2.161068 -5.465425
v -5.516573 0.000023 -5.465425
v -6.039532 0.000023 -5.465425
v -1.439532 0.000023 -5.465425
v -1.965342 0.000023 -5.465425
v -2.027155 2.623090 -5.465425
v -7.500000 3.617530 17.641838
v -7.500000 4.594024 17.641838
v -7.500000 5.570518 17.641838
v -7.500000 6.547011 17.641838
v -7.500000 7.523505 17.641838
v -7.500000 3.617530 13.751532
v -7.500000 4.594024 9.861225
v -7.500000 5.570518 5.970919
v -7.500000 6.547012 2.080612
v -7.500000 7.523506 -1.809694
v -7.500000 8.500000 -1.809693
v -7.500000 8.500000 2.080613
v -7.500000 8.500000 5.970920
v -7.500000 8.500000 9.861225
v -7.500000 8.499999 13.751532
v -7.500000 3.617531 -5.700000
v -7.500000 4.594025 -5.700000
v -7.500000 5.570519 -5.700000
v -7.500000 6.547013 -5.700000
v -7.500000 7.523507 -5.700000
v -7.500000 2.641037 -1.809694
v -7.500000 2.641037 2.080613
v -7.500000 2.641037 5.970919
v -7.500000 2.641036 9.861225
v -7.500000 2.641036 13.751532
v -7.500000 2.224725 -5.700000
v -7.500000 1.808414 -5.700000
v -7.500000 1.392102 -5.700000
v -7.500000 0.975791 -5.700000
v -7.500000 0.559480 -5.700000
v -7.500000 2.224725 13.751532
v -7.500000 1.808413 9.861225
v -7.500000 1.392102 5.970919
v -7.500000 0.975791 2.080612
v -7.500000 0.559479 -1.809694
v -7.500000 2.224725 17.641838
v -7.500000 1.808413 17.641838
v -7.500000 1.392102 17.641838
v -7.500000 0.975790 17.641838
v -7.500000 0.559479 17.641838
v -7.500000 0.143167 13.751532
v -7.500000 0.143167 9.861225
v -7.500000 0.143168 5.970919
v -7.500000 0.143168 2.080612
v -7.500000 0.143168 -1.809694
v -7.500000 0.559479 2.080612
v -7.500000 0.559479 5.970919
v -7.500000 0.975791 5.970919
v -7.500000 0.559479 9.861225
v -7.500000 0.975790 9.861225
v -7.500000 1.392102 9.861225
v -7.500000 0.559479 13.751532
v -7.500000 0.975790 13.751532
v -7.500000 1.392102 13.751532
v -7.500000 1.808413 13.751532
v -7.500000 2.224725 9.861225
v -7.500000 2.224725 5.970919
v -7.500000 1.808414 5.970919
v -7.500000 2.224725 2.080613
v -7.500000 1.808414 2.080612
v -7.500000 1.392102 2.080612
v -7.500000 2.224725 -1.809694
v -7.500000 1.808414 -1.809694
v -7.500000 1.392102 -1.809694
v -7.500000 0.975791 -1.809694
v -7.500000 3.617530 9.861225
v -7.500000 4.594024 5.970919
v -7.500000 3.617531 5.970919
v -7.500000 5.570518 2.080612
v -7.500000 4.594025 2.080613
v -7.500000 3.617531 2.080613
v -7.500000 6.547012 -1.809694
v -7.500000 5.570518 -1.809694
v -7.500000 4.594025 -1.809694
v -7.500000 3.617531 -1.809694
v -7.500000 7.523506 2.080613
v -7.500000 6.547012 5.970919
v -7.500000 7.523506 5.970919
v -7.500000 5.570518 9.861225
v -7.500000 6.547012 9.861225
v -7.500000 7.523506 9.861225
v -7.500000 4.594024 13.751532
v -7.500000 5.570518 13.751532
v -7.500000 6.547012 13.751532
v -7.500000 7.523506 13.751532
vn -1.0000 -0.0000 -0.0000
vn 1.0000 -0.0000 -0.0000
vn -0.0000 -0.0000 -1.0000
vn -0.0000 -0.0000 1.0000
vn 0.4933 0.8699 -0.0000
vn 0.4934 0.8698 -0.0000
vn -0.0000 1.0000 -0.0000
vn 0.9813 0.1919 0.0117
vn 0.9997 -0.0000 0.0241
vn 0.9905 0.1373 0.0018
vn 0.9605 0.2783 -0.0000
vn 0.9040 0.4275 -0.0000
vn 0.9040 0.4276 -0.0000
vn -0.0000 0.1078 0.9942
vn -0.0000 0.1079 0.9942
vn -0.0000 0.3778 0.9259
vn -0.0000 0.4604 0.8877
vn -0.0000 0.4601 0.8879
vn -0.9041 0.4273 -0.0000
vn -0.9039 0.4277 -0.0000
vn -0.9041 0.4274 -0.0000
vn -0.0000 0.4274 0.9041
vn -0.0000 0.4273 0.9041
vn -0.0000 0.4276 0.9039
vn -0.0000 -1.0000 -0.0000
vn -0.4937 0.8696 -0.0000
vn -0.4936 0.8697 -0.0000
vn -0.0000 0.8696 0.4937
vn -0.0000 0.8696 0.4938
vn 0.9969 0.0783 0.0098
vn 0.9969 0.0784 0.0098
vn 0.9690 0.2472 0.0059
vn 0.9752 0.2212 0.0059
vn 0.9041 0.4274 -0.0000
vn -0.9040 0.4275 -0.0000
vn -0.9037 0.4281 -0.0000
vn -0.0000 0.4277 0.9039
vn -0.4933 0.8699 -0.0000
vn -0.0000 0.8698 0.4934
vn 1.0000 0.0002 -0.0000
vn 0.9987 0.0509 -0.0000
vn 0.9731 0.2291 0.0255
vn 0.9853 0.1705 -0.0000
vn 0.9424 0.3331 0.0294
vn 0.8771 0.4788 0.0392
vn 0.8774 0.4798 -0.0000
vn 0.7938 0.6076 0.0274
vn 0.7348 0.6779 0.0235
vn 0.7034 0.7108 -0.0000
vn 0.5704 0.8212 0.0196
vn 0.6035 0.7974 -0.0000
vn 0.4760 0.8794 0.0059
vn 0.3996 0.9167 0.0039
vn 0.3232 0.9463 0.0078
vn 0.2310 0.9728 0.0176
vn 0.1666 0.9859 -0.0176
vn 0.0744 0.9972 -0.0078
vn 0.0235 0.9997 0.0078
vn -0.0666 0.9976 0.0176
vn -0.1312 0.9912 -0.0176
vn -0.2213 0.9752 -0.0078
vn -0.2997 0.9540 -0.0039
vn -0.3996 0.9167 0.0059
vn -0.4760 0.8794 0.0078
vn -0.6031 0.7969 0.0353
vn -0.6035 0.7974 -0.0000
vn -0.7019 0.7117 0.0275
vn -0.7951 0.6052 0.0392
vn -0.7948 0.6069 -0.0000
vn -0.8778 0.4781 0.0294
vn -0.9421 0.3329 0.0411
vn -0.9429 0.3332 -0.0000
vn -0.9846 0.1723 0.0294
vn -0.9999 0.0157 0.0039
vn -1.0000 0.0059 -0.0000
vn -1.0000 0.0003 -0.0000
vn 0.7071 -0.0000 0.7071
vn 0.7071 0.0003 0.7071
vn 0.7071 0.0078 0.7071
vn 0.7070 0.0001 0.7072
vn 0.7057 0.0353 0.7076
vn 0.6962 0.1195 0.7078
vn 0.6952 0.1195 0.7088
vn 0.6663 0.2351 0.7077
vn 0.6664 0.2352 0.7075
vn 0.6196 0.3392 0.7078
vn 0.6196 0.3393 0.7078
vn 0.5608 0.4294 0.7079
vn 0.5609 0.4294 0.7079
vn 0.4963 0.5022 0.7081
vn 0.4963 0.5022 0.7082
vn 0.4258 0.5631 0.7083
vn 0.3551 0.6108 0.7077
vn 0.3372 0.5979 0.7272
vn 0.2255 0.5176 0.8254
vn 0.2115 0.6540 0.7264
vn 0.2118 0.6741 0.7076
vn 0.1294 0.6762 0.7252
vn 0.1393 0.6923 0.7080
vn 0.0549 0.5682 0.8210
vn 0.0059 0.6892 0.7245
vn -0.0000 0.7072 0.7070
vn -0.0744 0.6853 0.7245
vn -0.0685 0.7035 0.7074
vn -0.1136 0.5601 0.8206
vn -0.2000 0.6410 0.7410
vn -0.2118 0.6741 0.7076
vn -0.2275 0.5196 0.8236
vn -0.3371 0.5979 0.7273
vn -0.3547 0.6114 0.7074
vn -0.4258 0.5631 0.7083
vn -0.4958 0.5036 0.7075
vn -0.5609 0.4293 0.7079
vn -0.5608 0.4294 0.7079
vn -0.6196 0.3392 0.7078
vn -0.6196 0.3393 0.7078
vn -0.6664 0.2352 0.7076
vn -0.6663 0.2351 0.7077
vn -0.6959 0.1216 0.7078
vn -0.7040 0.1196 0.7001
vn -0.7524 0.0216 0.6583
vn -0.7091 -0.0000 0.7051
vn -0.7071 0.0002 0.7071
vn -0.7071 -0.0003 0.7071
vn 0.4933 0.8698 -0.0000
vn 0.9905 0.1373 -0.0018
vn 0.9997 -0.0000 -0.0241
vn 0.9813 0.1920 -0.0118
vn 0.9041 0.4273 -0.0000
vn -0.0000 0.1078 -0.9942
vn -0.0000 0.1079 -0.9942
vn -0.0000 0.3778 -0.9259
vn -0.0000 0.4601 -0.8879
vn -0.0000 0.4604 -0.8877
vn -0.9040 0.4276 -0.0000
vn -0.0000 0.4277 -0.9039
vn -0.0000 0.4273 -0.9041
vn -0.4938 0.8696 -0.0000
vn -0.0000 0.8696 -0.4938
vn -0.0000 0.8696 -0.4937
vn 0.9906 0.1369 -0.0020
vn 0.9997 -0.0000 -0.0238
vn 0.9813 0.1919 -0.0118
vn 0.9039 0.4277 -0.0000
vn -0.0000 0.4278 -0.9039
vn -0.0000 0.4274 -0.9041
vn -0.0000 0.4275 -0.9040
vn -1.0000 0.0079 -0.0020
vn -1.0000 -0.0001 -0.0000
vn -1.0000 0.0020 -0.0000
vn -0.9846 0.1723 -0.0294
vn -0.9421 0.3329 -0.0411
vn -0.9428 0.3333 -0.0000
vn -0.8778 0.4781 -0.0294
vn -0.7951 0.6052 -0.0392
vn -0.7948 0.6068 -0.0000
vn -0.7019 0.7117 -0.0274
vn -0.6031 0.7969 -0.0353
vn -0.6033 0.7975 -0.0000
vn -0.4760 0.8794 -0.0078
vn -0.3995 0.9167 -0.0059
vn -0.2997 0.9540 0.0039
vn -0.2213 0.9752 0.0078
vn -0.1312 0.9912 0.0176
vn -0.0666 0.9976 -0.0176
vn 0.0235 0.9997 -0.0078
vn 0.0744 0.9972 0.0078
vn 0.1666 0.9859 0.0176
vn 0.2310 0.9728 -0.0176
vn 0.3232 0.9463 -0.0078
vn 0.3996 0.9167 -0.0039
vn 0.4760 0.8794 -0.0059
vn 0.5704 0.8212 -0.0196
vn 0.7348 0.6779 -0.0235
vn 0.7938 0.6076 -0.0274
vn 0.8771 0.4788 -0.0393
vn 0.8774 0.4797 -0.0000
vn 0.9424 0.3331 -0.0294
vn 0.9731 0.2290 -0.0254
vn 0.9987 0.0510 -0.0000
vn 1.0000 0.0004 -0.0000
vn 0.7071 0.0003 -0.7071
vn 0.7072 -0.0001 -0.7070
vn 0.7059 0.0235 -0.7079
vn 0.7054 0.0451 -0.7074
vn 0.6961 0.1196 -0.7079
vn 0.6663 0.2352 -0.7076
vn 0.6664 0.2352 -0.7075
vn 0.6196 0.3392 -0.7078
vn 0.5608 0.4295 -0.7079
vn 0.5608 0.4294 -0.7079
vn 0.4964 0.5022 -0.7081
vn 0.4965 0.5022 -0.7080
vn 0.4258 0.5631 -0.7083
vn 0.4257 0.5631 -0.7083
vn 0.3529 0.5959 -0.7214
vn 0.3666 0.6039 -0.7078
vn 0.2255 0.5176 -0.8254
vn 0.1998 0.6639 -0.7207
vn 0.1999 0.6780 -0.7074
vn 0.1510 0.6902 -0.7077
vn 0.1452 0.6787 -0.7199
vn 0.0549 0.5683 -0.8210
vn -0.0059 0.6942 -0.7197
vn -0.0098 0.7071 -0.7071
vn -0.0569 0.7040 -0.7079
vn -0.0608 0.6920 -0.7194
vn -0.1136 0.5601 -0.8206
vn -0.2000 0.6411 -0.7410
vn -0.2114 0.6744 -0.7075
vn -0.2275 0.5196 -0.8236
vn -0.3372 0.5979 -0.7272
vn -0.3548 0.6112 -0.7075
vn -0.4259 0.5631 -0.7082
vn -0.4256 0.5631 -0.7083
vn -0.4958 0.5036 -0.7075
vn -0.5608 0.4294 -0.7079
vn -0.5609 0.4294 -0.7079
vn -0.6196 0.3393 -0.7078
vn -0.6196 0.3392 -0.7078
vn -0.6664 0.2352 -0.7075
vn -0.6960 0.1215 -0.7077
vn -0.7040 0.1196 -0.7001
vn -0.7386 0.0137 -0.6740
vn -0.7081 -0.0000 -0.7061
vn -0.7071 0.0002 -0.7071
vn -0.7071 -0.0003 -0.7071
vt -0.726074 1.196167
vt -0.726074 1.308818
vt -0.291097 1.308818
vt 1.883789 1.872070
vt 1.883789 1.759420
vt 1.448812 1.759420
vt 1.883789 1.196167
vt 1.883789 1.148153
vt 1.448812 1.196167
vt -0.726074 0.908020
vt -0.726074 0.956044
vt -0.291097 0.908030
vt 0.145752 1.195923
vt 2.232422 1.871094
vt 2.232422 1.195923
vt 2.232422 0.908020
vt 0.152954 0.908020
vt 2.476562 1.196777
vt 3.666016 1.874023
vt 3.666016 1.196777
vt 2.476562 0.908081
vt 3.666016 0.908081
vt 2.164062 1.196777
vt 2.164062 0.908081
vt 1.875977 0.908081
vt 1.875977 1.196777
vt 1.875977 1.874023
vt -0.140625 1.195923
vt -0.140625 0.908020
vt -0.634277 0.908020
vt -0.634277 1.195923
vt -0.634277 1.871094
vt -1.170898 1.195801
vt -1.170898 1.870605
vt 0.620605 1.870605
vt 0.620605 1.195801
vt 0.620605 0.908020
vt -1.170898 0.908020
vt 0.441162 0.367188
vt 0.394287 0.367188
vt 0.439941 0.365723
vt 0.651367 0.367188
vt 0.604980 0.367188
vt 0.650391 0.365723
vt 0.445068 0.339844
vt 0.445068 0.330566
vt 0.465332 0.330566
vt 0.465332 0.339844
vt 0.445068 0.291504
vt 0.465332 0.291504
vt 0.476807 0.339844
vt 0.476807 0.330566
vt 0.516113 0.330566
vt 0.516113 0.339844
vt 0.473877 0.345215
vt 0.473145 0.349121
vt 0.516113 0.353516
vt 0.473145 0.353516
vt 0.394287 0.339844
vt 0.394287 0.330566
vt 0.433594 0.330566
vt 0.433594 0.339844
vt 0.436279 0.345215
vt 0.437256 0.349121
vt 0.394287 0.353516
vt 0.437256 0.353516
vt 0.470215 0.365723
vt 0.470215 0.359375
vt 0.516113 0.359375
vt 0.516113 0.365723
vt 0.442139 0.365723
vt 0.442139 0.359375
vt 0.468018 0.359375
vt 0.468018 0.365723
vt 0.439941 0.359375
vt 0.394287 0.359375
vt 0.465332 0.349121
vt 0.465332 0.353516
vt 0.445068 0.353516
vt 0.445068 0.349121
vt 0.445068 0.345215
vt 0.465332 0.345215
vt 0.469238 0.370117
vt 0.469238 0.367188
vt 0.516113 0.367188
vt 0.516113 0.370117
vt 0.441162 0.370117
vt 0.394287 0.370117
vt 0.441162 0.416992
vt 0.469238 0.416992
vt 0.675781 0.339844
vt 0.655273 0.339844
vt 0.655273 0.330566
vt 0.675781 0.330566
vt 0.655273 0.291504
vt 0.675781 0.291504
vt 0.687012 0.330566
vt 0.726562 0.330566
vt 0.726562 0.339844
vt 0.687012 0.339844
vt 0.683594 0.349121
vt 0.683594 0.353516
vt 0.726562 0.353516
vt 0.684570 0.345215
vt 0.604980 0.330566
vt 0.644043 0.330566
vt 0.644043 0.339844
vt 0.604980 0.339844
vt 0.647949 0.349121
vt 0.646973 0.345215
vt 0.647949 0.353516
vt 0.604980 0.353516
vt 0.726562 0.365723
vt 0.680664 0.365723
vt 0.680664 0.359375
vt 0.726562 0.359375
vt 0.678711 0.365723
vt 0.652832 0.365723
vt 0.652832 0.359375
vt 0.678711 0.359375
vt 0.604980 0.359375
vt 0.650391 0.359375
vt 0.675781 0.353516
vt 0.655273 0.353516
vt 0.655273 0.349121
vt 0.675781 0.349121
vt 0.675781 0.345215
vt 0.655273 0.345215
vt 0.726562 0.370117
vt 0.679688 0.370117
vt 0.679688 0.367188
vt 0.726562 0.367188
vt 0.651367 0.370117
vt 0.604980 0.370117
vt 0.679688 0.416992
vt 0.651367 0.416992
vt 0.992188 -0.375000
vt 0.992188 -0.530273
vt 1.015625 -0.530273
vt 1.015625 -0.365234
vt 1.015625 -0.356445
vt 0.992188 -0.367188
vt 0.991211 -0.355469
vt 1.014648 -0.343750
vt 1.010742 -0.331055
vt 0.981934 -0.331055
vt 1.003906 -0.318359
vt 0.994629 -0.306641
vt 0.964844 -0.309570
vt 0.983398 -0.294922
vt 0.953125 -0.300781
vt 0.969727 -0.285156
vt 0.954102 -0.276367
vt 0.925293 -0.285156
vt 0.918945 -0.263672
vt 0.893555 -0.275391
vt 0.899414 -0.258789
vt 0.876465 -0.273438
vt 0.858887 -0.255859
vt 0.841309 -0.273438
vt 0.838379 -0.256836
vt 0.824219 -0.275391
vt 0.798828 -0.263672
vt 0.791992 -0.285156
vt 0.763184 -0.276367
vt 0.764648 -0.300781
vt 0.748047 -0.285156
vt 0.734375 -0.294922
vt 0.743164 -0.320312
vt 0.723145 -0.306641
vt 0.713867 -0.318359
vt 0.729980 -0.342773
vt 0.707520 -0.331055
vt 0.703125 -0.343750
vt 0.725098 -0.367188
vt 0.701660 -0.356445
vt 0.725098 -0.530273
vt 0.701660 -0.530273
vt 1.017578 -0.530273
vt 1.017578 -0.356445
vt 1.016602 -0.343750
vt 1.012695 -0.330078
vt 1.005859 -0.317383
vt 0.996582 -0.304688
vt 0.984863 -0.293945
vt 0.971191 -0.284180
vt 0.955566 -0.275391
vt 0.937988 -0.267578
vt 0.919434 -0.261719
vt 0.899902 -0.256836
vt 0.879395 -0.254883
vt 0.858887 -0.253906
vt 0.837891 -0.254883
vt 0.817871 -0.256836
vt 0.798340 -0.261719
vt 0.779297 -0.267578
vt 0.762207 -0.275391
vt 0.746582 -0.284180
vt 0.732910 -0.293945
vt 0.721191 -0.304688
vt 0.711914 -0.317383
vt 0.705078 -0.330078
vt 0.701172 -0.343750
vt 0.699707 -0.365234
vt 0.699707 -0.530273
vt 0.652832 -0.530273
vt 0.652832 -0.349609
vt 0.652832 -0.186523
vt 0.858887 -0.186523
vt 1.065430 -0.186523
vt 1.065430 -0.349609
vt 1.065430 -0.530273
vt 1.448812 0.908071
vt 1.448812 0.956095
vt 1.883789 0.908081
vt 1.013835 0.908061
vt 1.013835 0.956085
vt 0.578857 0.908051
vt 0.578857 0.956075
vt 0.143880 0.908040
vt 0.143880 0.956065
vt -0.291097 0.956055
vt 1.013835 1.004110
vt 0.578857 1.004099
vt 0.578857 1.052124
vt 0.143880 1.004089
vt 0.143880 1.052114
vt 0.143880 1.100138
vt -0.291097 1.004079
vt -0.291097 1.052104
vt -0.291097 1.100128
vt -0.291097 1.148153
vt -0.726074 1.004069
vt -0.726074 1.052094
vt -0.726074 1.100118
vt -0.726074 1.148142
vt -0.291097 1.196167
vt 0.143880 1.196167
vt 0.143880 1.148153
vt 0.578857 1.196167
vt 0.578857 1.148153
vt 1.013835 1.196167
vt 1.013835 1.148153
vt 1.448812 1.148153
vt 0.578857 1.100138
vt 1.013835 1.100138
vt 1.013835 1.052124
vt 1.448812 1.100138
vt 1.448812 1.052124
vt 1.448812 1.004110
vt 1.883789 1.100138
vt 1.883789 1.052124
vt 1.883789 1.004110
vt 1.883789 0.956095
vt 0.143880 1.421468
vt 0.143880 1.308818
vt 0.578857 1.534119
vt 0.578857 1.421468
vt 1.013835 1.646769
vt 1.013835 1.534119
vt 1.448812 1.646769
vt 0.578857 1.308818
vt 1.013835 1.421468
vt 1.013835 1.308818
vt 1.448812 1.534119
vt 1.448812 1.421468
vt 1.448812 1.308818
vt 1.883789 1.646769
vt 1.883789 1.534119
vt 1.883789 1.421468
vt 1.883789 1.308818
vt 1.448812 1.872070
vt 1.013835 1.759420
vt 0.578857 1.646769
vt 0.143880 1.534119
vt -0.291097 1.421468
vt 1.013835 1.872070
vt 0.578857 1.759420
vt 0.578857 1.872070
vt 0.143880 1.646769
vt 0.143880 1.759420
vt 0.143880 1.872070
vt -0.291097 1.534119
vt -0.291097 1.646769
vt -0.291097 1.759420
vt -0.291097 1.872070
vt -0.726074 1.421468
vt -0.726074 1.534119
vt -0.726074 1.646769
vt -0.726074 1.759420
vt -0.726074 1.872070
s 1
f 2/1/1 619/2/1 624/3/1
f 3/4/1 638/5/1 628/6/1
f 1/7/1 644/8/1 639/9/1
f 15/10/1 658/11/1 659/12/1
f 7/13/2 5/14/2 6/15/2
f 6/15/2 17/16/2 7/13/2
f 18/17/2 7/13/2 17/16/2
f 10/18/3 8/19/3 9/20/3
f 19/21/3 10/18/3 9/20/3
f 9/20/3 20/22/3 19/21/3
f 13/23/3 11/24/3 12/25/3
f 12/25/3 14/26/3 13/23/3
f 21/27/3 13/23/3 14/26/3
f 24/18/3 22/23/3 23/27/3
f 23/27/3 25/19/3 24/18/3
f 28/28/2 26/29/2 27/30/2
f 27/30/2 29/31/2 28/28/2
f 34/32/2 28/28/2 29/31/2
f 32/13/2 30/28/2 31/32/2
f 31/32/2 33/14/2 32/13/2
f 36/33/4 38/34/4 37/35/4
f 37/35/4 35/36/4 36/33/4
f 35/36/4 40/37/4 36/33/4
f 39/38/4 36/33/4 40/37/4
f 118/39/5 116/40/5 117/41/5
f 200/42/6 198/43/6 199/44/6
f 43/45/4 41/46/4 42/47/4
f 42/47/4 44/48/4 43/45/4
f 47/46/7 45/49/7 46/50/7
f 46/50/7 48/47/7 47/46/7
f 51/51/1 49/52/1 50/53/1
f 50/53/1 52/54/1 51/51/1
f 76/55/1 51/51/1 52/54/1
f 119/56/1 76/55/1 52/54/1
f 52/54/1 120/57/1 119/56/1
f 121/58/1 119/56/1 120/57/1
f 55/59/2 53/60/2 54/61/2
f 54/61/2 56/62/2 55/59/2
f 56/62/2 81/63/2 55/59/2
f 81/63/2 73/64/2 55/59/2
f 75/65/2 55/59/2 73/64/2
f 73/64/2 74/66/2 75/65/2
f 59/67/1 57/68/1 58/69/1
f 58/69/1 60/70/1 59/67/1
f 63/71/4 61/72/4 62/73/4
f 62/73/4 64/74/4 63/71/4
f 66/75/8 68/41/9 67/40/10
f 67/40/10 65/76/11 66/75/8
f 103/66/12 66/75/8 65/76/11
f 65/76/11 102/65/13 103/66/12
f 70/77/14 72/78/4 71/79/4
f 71/79/4 69/80/15 70/77/14
f 69/80/15 79/81/16 70/77/14
f 80/82/16 70/77/14 79/81/16
f 78/48/17 80/82/16 79/81/16
f 79/81/16 77/45/18 78/48/17
f 84/83/1 82/84/1 83/85/1
f 83/85/1 85/86/1 84/83/1
f 88/87/4 86/39/4 87/84/4
f 87/84/4 89/83/4 88/87/4
f 92/88/2 90/40/2 91/39/2
f 91/39/2 93/87/2 92/88/2
f 96/58/19 94/57/20 95/69/21
f 95/69/21 97/68/20 96/58/19
f 100/72/22 98/79/23 99/78/24
f 99/78/24 101/73/24 100/72/22
f 106/89/25 104/87/25 105/83/25
f 105/83/25 107/90/25 106/89/25
f 110/67/26 108/70/27 109/85/26
f 109/85/26 111/84/27 110/67/26
f 114/39/28 112/71/28 113/74/29
f 113/74/29 115/84/29 114/39/28
f 124/91/4 122/92/4 123/93/4
f 123/93/4 125/94/4 124/91/4
f 128/94/7 126/93/7 127/95/7
f 127/95/7 129/96/7 128/94/7
f 131/97/1 133/98/1 132/99/1
f 130/100/1 131/97/1 132/99/1
f 158/101/1 130/100/1 132/99/1
f 201/102/1 158/101/1 132/99/1
f 132/99/1 202/103/1 201/102/1
f 158/101/1 157/104/1 130/100/1
f 135/105/2 137/106/2 136/107/2
f 134/108/2 135/105/2 136/107/2
f 154/109/2 134/108/2 136/107/2
f 136/107/2 163/110/2 154/109/2
f 134/108/2 154/109/2 155/111/2
f 155/111/2 156/112/2 134/108/2
f 140/113/1 138/114/1 139/115/1
f 139/115/1 141/116/1 140/113/1
f 144/117/4 142/118/4 143/119/4
f 143/119/4 145/120/4 144/117/4
f 148/44/30 146/43/31 147/121/32
f 149/122/33 148/44/30 147/121/32
f 147/121/32 184/112/34 149/122/33
f 185/111/13 149/122/33 184/112/34
f 152/123/4 150/124/4 151/125/14
f 153/126/15 152/123/4 151/125/14
f 161/127/16 153/126/15 151/125/14
f 151/125/14 159/128/16 161/127/16
f 159/128/16 160/92/17 161/127/16
f 162/91/18 161/127/16 160/92/17
f 166/129/1 164/130/1 165/131/1
f 165/131/1 167/132/1 166/129/1
f 170/130/4 168/133/4 169/42/4
f 169/42/4 171/131/4 170/130/4
f 174/133/2 172/134/2 173/43/2
f 173/43/2 175/42/2 174/133/2
f 178/115/21 176/102/35 177/103/21
f 177/103/21 179/116/36 178/115/21
f 182/120/37 180/119/23 181/124/23
f 181/124/23 183/123/37 182/120/37
f 188/135/25 186/136/25 187/133/25
f 187/133/25 189/130/25 188/135/25
f 192/131/27 190/114/26 191/113/27
f 191/113/27 193/132/38 192/131/27
f 196/131/29 194/42/29 195/118/29
f 195/118/29 197/117/39 196/131/29
f 239/137/40 242/138/2 243/139/2
f 243/139/2 240/140/40 239/137/40
f 240/140/40 221/141/41 239/137/40
f 220/142/41 239/137/40 221/141/41
f 217/143/42 220/142/41 221/141/41
f 221/141/41 219/144/43 217/143/42
f 219/144/43 218/145/44 217/143/42
f 214/146/45 217/143/42 218/145/44
f 218/145/44 216/147/46 214/146/45
f 216/147/46 215/148/47 214/146/45
f 212/149/48 214/146/45 215/148/47
f 215/148/47 213/150/49 212/149/48
f 210/151/50 212/149/48 213/150/49
f 213/150/49 211/152/51 210/151/50
f 211/152/51 209/153/52 210/151/50
f 207/154/53 210/151/50 209/153/52
f 209/153/52 208/155/54 207/154/53
f 206/156/55 207/154/53 208/155/54
f 208/155/54 204/157/56 206/156/55
f 203/158/57 206/156/55 204/157/56
f 204/157/56 205/159/58 203/158/57
f 238/160/59 203/158/57 205/159/58
f 205/159/58 237/161/60 238/160/59
f 236/162/61 238/160/59 237/161/60
f 237/161/60 235/163/62 236/162/61
f 233/164/63 236/162/61 235/163/62
f 235/163/62 234/165/64 233/164/63
f 230/166/65 233/164/63 234/165/64
f 234/165/64 232/167/66 230/166/65
f 232/167/66 231/168/67 230/166/65
f 227/169/68 230/166/65 231/168/67
f 231/168/67 229/170/69 227/169/68
f 229/170/69 228/171/70 227/169/68
f 222/172/71 227/169/68 228/171/70
f 228/171/70 226/173/72 222/172/71
f 226/173/72 223/174/73 222/172/71
f 224/175/74 222/172/71 223/174/73
f 223/174/73 225/176/75 224/175/74
f 241/177/76 224/175/74 225/176/75
f 225/176/75 244/178/76 241/177/76
f 296/139/77 295/179/78 272/180/79
f 274/140/80 296/139/77 272/180/79
f 273/141/81 274/140/80 272/180/79
f 270/144/82 273/141/81 272/180/79
f 272/180/79 271/181/83 270/144/82
f 271/181/83 268/182/84 270/144/82
f 269/145/85 270/144/82 268/182/84
f 266/147/86 269/145/85 268/182/84
f 268/182/84 267/183/87 266/147/86
f 267/183/87 265/184/88 266/147/86
f 264/148/89 266/147/86 265/184/88
f 265/184/88 262/185/90 264/148/89
f 263/150/91 264/148/89 262/185/90
f 260/152/92 263/150/91 262/185/90
f 262/185/90 261/186/92 260/152/92
f 261/186/92 259/187/93 260/152/92
f 258/153/94 260/152/92 259/187/93
f 259/187/93 257/188/95 258/153/94
f 256/155/96 258/153/94 257/188/95
f 257/188/95 255/189/97 256/155/96
f 251/157/98 256/155/96 255/189/97
f 255/189/97 254/190/99 251/157/98
f 254/190/99 250/191/100 251/157/98
f 249/159/101 251/157/98 250/191/100
f 250/191/100 248/192/102 249/159/101
f 252/161/103 249/159/101 248/192/102
f 248/192/102 253/193/104 252/161/103
f 253/193/104 294/194/105 252/161/103
f 292/163/106 252/161/103 294/194/105
f 294/194/105 293/195/107 292/163/106
f 293/195/107 291/196/108 292/163/106
f 290/165/109 292/163/106 291/196/108
f 291/196/108 289/197/110 290/165/109
f 288/167/111 290/165/109 289/197/110
f 289/197/110 287/198/111 288/167/111
f 286/168/112 288/167/111 287/198/111
f 287/198/111 285/199/112 286/168/112
f 284/170/113 286/168/112 285/199/112
f 285/199/112 283/200/114 284/170/113
f 282/171/115 284/170/113 283/200/114
f 283/200/114 281/201/116 282/171/115
f 280/173/117 282/171/115 281/201/116
f 281/201/116 279/202/118 280/173/117
f 278/174/119 280/173/117 279/202/118
f 279/202/118 275/203/120 278/174/119
f 277/176/121 278/174/119 275/203/120
f 275/203/120 276/204/122 277/176/121
f 297/178/123 277/176/121 276/204/122
f 276/204/122 298/205/124 297/178/123
f 324/206/4 326/205/4 325/204/4
f 322/207/4 324/206/4 325/204/4
f 325/204/4 323/203/4 322/207/4
f 323/203/4 321/202/4 322/207/4
f 321/202/4 312/201/4 322/207/4
f 306/208/4 322/207/4 312/201/4
f 312/201/4 307/200/4 306/208/4
f 307/200/4 308/199/4 306/208/4
f 308/199/4 311/198/4 306/208/4
f 311/198/4 310/197/4 306/208/4
f 310/197/4 309/196/4 306/208/4
f 245/209/4 306/208/4 309/196/4
f 309/196/4 303/195/4 245/209/4
f 303/195/4 301/194/4 245/209/4
f 301/194/4 299/193/4 245/209/4
f 299/193/4 246/192/4 245/209/4
f 246/192/4 247/191/4 245/209/4
f 247/191/4 300/190/4 245/209/4
f 300/190/4 302/189/4 245/209/4
f 302/189/4 305/188/4 245/209/4
f 304/210/4 245/209/4 305/188/4
f 305/188/4 316/187/4 304/210/4
f 316/187/4 317/186/4 304/210/4
f 317/186/4 318/185/4 304/210/4
f 318/185/4 319/184/4 304/210/4
f 319/184/4 320/183/4 304/210/4
f 314/211/4 304/210/4 320/183/4
f 320/183/4 329/182/4 314/211/4
f 329/182/4 315/181/4 314/211/4
f 315/181/4 313/180/4 314/211/4
f 313/180/4 328/179/4 314/211/4
f 327/212/4 314/211/4 328/179/4
f 407/41/125 405/40/125 406/39/125
f 488/44/6 486/43/6 487/42/6
f 332/47/3 330/46/3 331/45/3
f 331/45/3 333/48/3 332/47/3
f 336/50/7 334/49/7 335/46/7
f 335/46/7 337/47/7 336/50/7
f 340/53/1 338/52/1 339/51/1
f 341/54/1 340/53/1 339/51/1
f 339/51/1 365/55/1 341/54/1
f 365/55/1 408/56/1 341/54/1
f 409/57/1 341/54/1 408/56/1
f 408/56/1 410/58/1 409/57/1
f 344/61/2 342/60/2 343/59/2
f 345/62/2 344/61/2 343/59/2
f 370/63/2 345/62/2 343/59/2
f 362/64/2 370/63/2 343/59/2
f 343/59/2 363/65/2 362/64/2
f 364/66/2 362/64/2 363/65/2
f 348/69/1 346/68/1 347/67/1
f 347/67/1 349/70/1 348/69/1
f 352/73/3 350/72/3 351/71/3
f 351/71/3 353/74/3 352/73/3
f 355/40/126 357/41/127 356/75/128
f 354/76/11 355/40/126 356/75/128
f 356/75/128 392/66/129 354/76/11
f 391/65/12 354/76/11 392/66/129
f 359/79/3 361/78/3 360/77/130
f 358/80/131 359/79/3 360/77/130
f 367/81/132 358/80/131 360/77/130
f 360/77/130 369/82/132 367/81/132
f 369/82/132 368/48/133 367/81/132
f 366/45/134 367/81/132 368/48/133
f 373/85/1 371/84/1 372/83/1
f 372/83/1 374/86/1 373/85/1
f 377/84/3 375/39/3 376/87/3
f 376/87/3 378/83/3 377/84/3
f 381/39/2 379/40/2 380/88/2
f 380/88/2 382/87/2 381/39/2
f 385/69/35 383/57/135 384/58/20
f 384/58/20 386/68/20 385/69/35
f 389/78/136 387/79/137 388/72/136
f 388/72/136 390/73/137 389/78/136
f 395/83/25 393/87/25 394/89/25
f 394/89/25 396/90/25 395/83/25
f 399/85/26 397/70/26 398/67/26
f 398/67/26 400/84/138 399/85/26
f 403/74/139 401/71/140 402/39/140
f 402/39/140 404/84/139 403/74/139
f 413/93/3 411/92/3 412/91/3
f 412/91/3 414/94/3 413/93/3
f 417/95/7 415/93/7 416/94/7
f 416/94/7 418/96/7 417/95/7
f 421/98/1 419/97/1 420/100/1
f 422/99/1 421/98/1 420/100/1
f 420/100/1 446/104/1 422/99/1
f 446/104/1 489/101/1 422/99/1
f 490/103/1 422/99/1 489/101/1
f 489/101/1 491/102/1 490/103/1
f 425/106/2 423/105/2 424/108/2
f 426/107/2 425/106/2 424/108/2
f 451/110/2 426/107/2 424/108/2
f 443/109/2 451/110/2 424/108/2
f 424/108/2 444/112/2 443/109/2
f 445/111/2 443/109/2 444/112/2
f 429/116/1 427/115/1 428/114/1
f 428/114/1 430/113/1 429/116/1
f 433/119/3 431/118/3 432/117/3
f 432/117/3 434/120/3 433/119/3
f 436/43/141 438/44/142 437/122/143
f 435/121/11 436/43/141 437/122/143
f 437/122/143 473/111/13 435/121/11
f 472/112/144 435/121/11 473/111/13
f 441/125/130 439/124/3 440/123/3
f 440/123/3 442/126/131 441/125/130
f 442/126/131 448/127/132 441/125/130
f 447/128/132 441/125/130 448/127/132
f 449/92/133 447/128/132 448/127/132
f 448/127/132 450/91/133 449/92/133
f 454/131/1 452/130/1 453/129/1
f 453/129/1 455/132/1 454/131/1
f 458/42/3 456/133/3 457/130/3
f 457/130/3 459/131/3 458/42/3
f 462/43/2 460/134/2 461/133/2
f 461/133/2 463/42/2 462/43/2
f 466/116/19 464/103/20 465/102/35
f 465/102/35 467/115/21 466/116/19
f 470/124/136 468/119/145 469/120/146
f 469/120/146 471/123/147 470/124/136
f 476/133/25 474/136/25 475/135/25
f 475/135/25 477/130/25 476/133/25
f 480/132/26 478/113/27 479/114/26
f 479/114/26 481/131/26 480/132/26
f 484/118/139 482/42/139 483/131/139
f 483/131/139 485/117/139 484/118/139
f 512/175/148 530/177/149 531/178/149
f 531/178/149 514/176/150 512/175/148
f 514/176/150 513/174/151 512/175/148
f 511/172/152 512/175/148 513/174/151
f 513/174/151 515/173/153 511/172/152
f 515/173/153 517/171/154 511/172/152
f 516/169/155 511/172/152 517/171/154
f 517/171/154 518/170/156 516/169/155
f 518/170/156 520/168/157 516/169/155
f 519/166/158 516/169/155 520/168/157
f 520/168/157 521/167/159 519/166/158
f 521/167/159 523/165/160 519/166/158
f 522/164/161 519/166/158 523/165/160
f 523/165/160 524/163/162 522/164/161
f 525/162/163 522/164/161 524/163/162
f 524/163/162 526/161/164 525/162/163
f 527/160/165 525/162/163 526/161/164
f 526/161/164 493/159/166 527/160/165
f 492/158/167 527/160/165 493/159/166
f 493/159/166 494/157/168 492/158/167
f 495/156/169 492/158/167 494/157/168
f 494/157/168 497/155/170 495/156/169
f 496/154/171 495/156/169 497/155/170
f 497/155/170 498/153/172 496/154/171
f 499/151/173 496/154/171 498/153/172
f 498/153/172 500/152/51 499/151/173
f 500/152/51 502/150/49 499/151/173
f 501/149/174 499/151/173 502/150/49
f 502/150/49 504/148/175 501/149/174
f 503/146/176 501/149/174 504/148/175
f 504/148/175 505/147/177 503/146/176
f 505/147/177 507/145/178 503/146/176
f 506/143/179 503/146/176 507/145/178
f 507/145/178 508/144/43 506/143/179
f 508/144/43 510/141/41 506/143/179
f 509/142/180 506/143/179 510/141/41
f 528/137/40 509/142/180 510/141/41
f 510/141/41 529/140/40 528/137/40
f 533/138/181 528/137/40 529/140/40
f 529/140/40 532/139/2 533/138/181
f 584/179/182 585/139/182 562/140/183
f 561/180/184 584/179/182 562/140/183
f 562/140/183 563/141/185 561/180/184
f 559/181/186 561/180/184 563/141/185
f 563/141/185 560/144/186 559/181/186
f 560/144/186 558/145/187 559/181/186
f 557/182/188 559/181/186 558/145/187
f 555/183/189 557/182/188 558/145/187
f 558/145/187 556/147/189 555/183/189
f 556/147/189 554/148/190 555/183/189
f 553/184/191 555/183/189 554/148/190
f 554/148/190 552/150/192 553/184/191
f 551/185/193 553/184/191 552/150/192
f 549/186/194 551/185/193 552/150/192
f 552/150/192 550/152/195 549/186/194
f 550/152/195 547/153/196 549/186/194
f 548/187/197 549/186/194 547/153/196
f 546/188/198 548/187/197 547/153/196
f 547/153/196 545/155/199 546/188/198
f 544/189/200 546/188/198 545/155/199
f 543/190/201 544/189/200 545/155/199
f 545/155/199 540/157/202 543/190/201
f 538/191/203 543/190/201 540/157/202
f 540/157/202 539/159/204 538/191/203
f 537/192/205 538/191/203 539/159/204
f 542/193/206 537/192/205 539/159/204
f 539/159/204 541/161/207 542/193/206
f 583/194/208 542/193/206 541/161/207
f 541/161/207 581/163/209 583/194/208
f 582/195/210 583/194/208 581/163/209
f 580/196/211 582/195/210 581/163/209
f 581/163/209 579/165/212 580/196/211
f 578/197/213 580/196/211 579/165/212
f 579/165/212 577/167/214 578/197/213
f 576/198/215 578/197/213 577/167/214
f 577/167/214 575/168/216 576/198/215
f 574/199/216 576/198/215 575/168/216
f 575/168/216 573/170/217 574/199/216
f 572/200/218 574/199/216 573/170/217
f 573/170/217 571/171/219 572/200/218
f 570/201/220 572/200/218 571/171/219
f 571/171/219 569/173/221 570/201/220
f 567/202/221 570/201/220 569/173/221
f 569/173/221 568/174/222 567/202/221
f 564/203/223 567/202/221 568/174/222
f 568/174/222 565/176/224 564/203/223
f 566/204/225 564/203/223 565/176/224
f 587/205/226 566/204/225 565/176/224
f 565/176/224 586/178/227 587/205/226
f 614/205/3 615/206/3 612/207/3
f 613/204/3 614/205/3 612/207/3
f 611/203/3 613/204/3 612/207/3
f 610/202/3 611/203/3 612/207/3
f 601/201/3 610/202/3 612/207/3
f 612/207/3 595/208/3 601/201/3
f 597/200/3 601/201/3 595/208/3
f 596/199/3 597/200/3 595/208/3
f 600/198/3 596/199/3 595/208/3
f 599/197/3 600/198/3 595/208/3
f 598/196/3 599/197/3 595/208/3
f 595/208/3 534/209/3 598/196/3
f 592/195/3 598/196/3 534/209/3
f 590/194/3 592/195/3 534/209/3
f 588/193/3 590/194/3 534/209/3
f 536/192/3 588/193/3 534/209/3
f 535/191/3 536/192/3 534/209/3
f 589/190/3 535/191/3 534/209/3
f 591/189/3 589/190/3 534/209/3
f 594/188/3 591/189/3 534/209/3
f 534/209/3 593/210/3 594/188/3
f 605/187/3 594/188/3 593/210/3
f 606/186/3 605/187/3 593/210/3
f 607/185/3 606/186/3 593/210/3
f 608/184/3 607/185/3 593/210/3
f 609/183/3 608/184/3 593/210/3
f 593/210/3 604/211/3 609/183/3
f 618/182/3 609/183/3 604/211/3
f 603/181/3 618/182/3 604/211/3
f 602/180/3 603/181/3 604/211/3
f 604/211/3 616/212/3 602/180/3
f 617/179/3 602/180/3 616/212/3
f 663/213/1 653/214/1 16/215/1
f 662/216/1 664/217/1 663/213/1
f 661/218/1 665/219/1 662/216/1
f 660/220/1 667/221/1 661/218/1
f 659/12/1 670/222/1 660/220/1
f 663/213/1 664/217/1 653/214/1
f 664/217/1 652/223/1 653/214/1
f 662/216/1 665/219/1 664/217/1
f 665/219/1 666/224/1 664/217/1
f 664/217/1 666/224/1 652/223/1
f 666/224/1 651/225/1 652/223/1
f 661/218/1 667/221/1 665/219/1
f 667/221/1 668/226/1 665/219/1
f 665/219/1 668/226/1 666/224/1
f 668/226/1 669/227/1 666/224/1
f 666/224/1 669/227/1 651/225/1
f 669/227/1 650/228/1 651/225/1
f 660/220/1 670/222/1 667/221/1
f 670/222/1 671/229/1 667/221/1
f 667/221/1 671/229/1 668/226/1
f 671/229/1 672/230/1 668/226/1
f 668/226/1 672/230/1 669/227/1
f 672/230/1 673/231/1 669/227/1
f 669/227/1 673/231/1 650/228/1
f 673/231/1 649/232/1 650/228/1
f 659/12/1 658/11/1 670/222/1
f 658/11/1 657/233/1 670/222/1
f 670/222/1 657/233/1 671/229/1
f 657/233/1 656/234/1 671/229/1
f 671/229/1 656/234/1 672/230/1
f 656/234/1 655/235/1 672/230/1
f 672/230/1 655/235/1 673/231/1
f 655/235/1 654/236/1 673/231/1
f 673/231/1 654/236/1 649/232/1
f 654/236/1 2/1/1 649/232/1
f 643/237/1 649/232/1 2/1/1
f 642/238/1 674/239/1 643/237/1
f 641/240/1 675/241/1 642/238/1
f 640/242/1 677/243/1 641/240/1
f 639/9/1 680/244/1 640/242/1
f 643/237/1 674/239/1 649/232/1
f 674/239/1 650/228/1 649/232/1
f 642/238/1 675/241/1 674/239/1
f 675/241/1 676/245/1 674/239/1
f 674/239/1 676/245/1 650/228/1
f 676/245/1 651/225/1 650/228/1
f 641/240/1 677/243/1 675/241/1
f 677/243/1 678/246/1 675/241/1
f 675/241/1 678/246/1 676/245/1
f 678/246/1 679/247/1 676/245/1
f 676/245/1 679/247/1 651/225/1
f 679/247/1 652/223/1 651/225/1
f 640/242/1 680/244/1 677/243/1
f 680/244/1 681/248/1 677/243/1
f 677/243/1 681/248/1 678/246/1
f 681/248/1 682/249/1 678/246/1
f 678/246/1 682/249/1 679/247/1
f 682/249/1 683/250/1 679/247/1
f 679/247/1 683/250/1 652/223/1
f 683/250/1 653/214/1 652/223/1
f 639/9/1 644/8/1 680/244/1
f 644/8/1 645/251/1 680/244/1
f 680/244/1 645/251/1 681/248/1
f 645/251/1 646/252/1 681/248/1
f 681/248/1 646/252/1 682/249/1
f 646/252/1 647/253/1 682/249/1
f 682/249/1 647/253/1 683/250/1
f 647/253/1 648/254/1 683/250/1
f 683/250/1 648/254/1 653/214/1
f 648/254/1 16/215/1 653/214/1
f 624/3/1 643/237/1 2/1/1
f 625/255/1 684/256/1 624/3/1
f 626/257/1 685/258/1 625/255/1
f 627/259/1 687/260/1 626/257/1
f 628/6/1 690/261/1 627/259/1
f 624/3/1 684/256/1 643/237/1
f 684/256/1 642/238/1 643/237/1
f 625/255/1 685/258/1 684/256/1
f 685/258/1 686/262/1 684/256/1
f 684/256/1 686/262/1 642/238/1
f 686/262/1 641/240/1 642/238/1
f 626/257/1 687/260/1 685/258/1
f 687/260/1 688/263/1 685/258/1
f 685/258/1 688/263/1 686/262/1
f 688/263/1 689/264/1 686/262/1
f 686/262/1 689/264/1 641/240/1
f 689/264/1 640/242/1 641/240/1
f 627/259/1 690/261/1 687/260/1
f 690/261/1 691/265/1 687/260/1
f 687/260/1 691/265/1 688/263/1
f 691/265/1 692/266/1 688/263/1
f 688/263/1 692/266/1 689/264/1
f 692/266/1 693/267/1 689/264/1
f 689/264/1 693/267/1 640/242/1
f 693/267/1 639/9/1 640/242/1
f 628/6/1 638/5/1 690/261/1
f 638/5/1 637/268/1 690/261/1
f 690/261/1 637/268/1 691/265/1
f 637/268/1 636/269/1 691/265/1
f 691/265/1 636/269/1 692/266/1
f 636/269/1 635/270/1 692/266/1
f 692/266/1 635/270/1 693/267/1
f 635/270/1 634/271/1 693/267/1
f 693/267/1 634/271/1 639/9/1
f 634/271/1 1/7/1 639/9/1
f 628/6/1 629/272/1 3/4/1
f 627/259/1 694/273/1 628/6/1
f 626/257/1 695/274/1 627/259/1
f 625/255/1 697/275/1 626/257/1
f 624/3/1 700/276/1 625/255/1
f 628/6/1 694/273/1 629/272/1
f 694/273/1 630/277/1 629/272/1
f 627/259/1 695/274/1 694/273/1
f 695/274/1 696/278/1 694/273/1
f 694/273/1 696/278/1 630/277/1
f 696/278/1 631/279/1 630/277/1
f 626/257/1 697/275/1 695/274/1
f 697/275/1 698/280/1 695/274/1
f 695/274/1 698/280/1 696/278/1
f 698/280/1 699/281/1 696/278/1
f 696/278/1 699/281/1 631/279/1
f 699/281/1 632/282/1 631/279/1
f 625/255/1 700/276/1 697/275/1
f 700/276/1 701/283/1 697/275/1
f 697/275/1 701/283/1 698/280/1
f 701/283/1 702/284/1 698/280/1
f 698/280/1 702/284/1 699/281/1
f 702/284/1 703/285/1 699/281/1
f 699/281/1 703/285/1 632/282/1
f 703/285/1 633/286/1 632/282/1
f 624/3/1 619/2/1 700/276/1
f 619/2/1 620/287/1 700/276/1
f 700/276/1 620/287/1 701/283/1
f 620/287/1 621/288/1 701/283/1
f 701/283/1 621/288/1 702/284/1
f 621/288/1 622/289/1 702/284/1
f 702/284/1 622/289/1 703/285/1
f 622/289/1 623/290/1 703/285/1
f 703/285/1 623/290/1 633/286/1
f 623/290/1 4/291/1 633/286/1
