# Blender 4.5.3 LTS
# www.blender.org
o w9a02_fy1_wood04
v -3.740430 3.497158 17.353043
v -3.525456 3.486826 17.353043
v -3.740430 3.640683 17.353043
v -3.264079 3.594639 17.353043
v -3.314391 3.455998 17.353043
v -3.110962 3.405226 17.353043
v -2.819846 3.459626 17.353043
v -2.917911 3.335361 17.353043
v -2.738964 3.247583 17.353043
v -2.439178 3.244910 17.353043
v -2.576796 3.143421 17.353043
v -2.435472 3.024636 17.353043
v -2.146243 2.965047 17.353043
v -2.315598 2.893285 17.353043
v -2.220206 2.751623 17.353043
v -1.961906 2.639161 17.353043
v -2.151318 2.602022 17.353043
v -2.109159 2.447064 17.353043
v -1.915883 2.465797 17.353043
v -2.095368 2.289422 17.353043
v -5.371993 2.447064 17.353043
v -5.565876 2.465808 17.353043
v -5.386390 2.289422 17.353043
v -5.581553 2.294150 17.353043
v -5.329834 2.602022 17.353043
v -5.260968 2.751623 17.353043
v -5.440925 2.806529 17.353043
v -5.165846 2.893285 17.353043
v -5.045972 3.024636 17.353043
v -5.201177 3.112032 17.353043
v -4.904064 3.143421 17.353043
v -5.042581 3.244910 17.353043
v -4.742210 3.247606 17.353043
v -4.562973 3.335349 17.353043
v -4.660745 3.459626 17.353043
v -4.370235 3.405226 17.353043
v -4.166222 3.455998 17.353043
v -4.217074 3.594639 17.353043
v -3.955426 3.486826 17.353043
v -2.095368 2.188213 17.353043
v -1.899105 2.188808 17.353043
v -5.386390 2.188213 17.353043
v -5.582047 2.188808 17.353043
v -1.899958 0.000024 17.353043
v -2.094470 0.000024 17.353043
v -5.386997 0.000024 17.353043
v -5.580902 0.000024 17.353043
v -3.525456 3.486826 17.353043
v -3.740430 3.497158 17.353043
v -3.525456 3.486826 17.427412
v -3.740430 3.497158 17.427412
v -3.314391 3.455998 17.353043
v -3.314391 3.455999 17.427412
v -3.110962 3.405226 17.353043
v -3.110962 3.405226 17.427412
v -2.917911 3.335361 17.353043
v -2.917911 3.335361 17.427412
v -2.738964 3.247583 17.353043
v -2.738964 3.247584 17.427412
v -2.576796 3.143421 17.353043
v -2.576796 3.143421 17.427412
v -2.435472 3.024636 17.353043
v -2.435472 3.024636 17.427412
v -2.315598 2.893285 17.353043
v -2.315598 2.893285 17.427412
v -2.220206 2.751623 17.353043
v -2.220206 2.751624 17.427412
v -2.151318 2.602022 17.353043
v -2.151318 2.602022 17.427412
v -2.109159 2.447064 17.353043
v -2.109159 2.447065 17.427412
v -2.095368 2.289422 17.353043
v -2.095368 2.289422 17.427412
v -5.371993 2.447064 17.353043
v -5.386390 2.289422 17.353043
v -5.371993 2.447065 17.427412
v -5.386390 2.289422 17.427412
v -5.329834 2.602022 17.353043
v -5.329834 2.602022 17.427412
v -5.260968 2.751623 17.353043
v -5.260968 2.751624 17.427412
v -5.165846 2.893285 17.353043
v -5.165846 2.893285 17.427412
v -5.045972 3.024636 17.353043
v -5.045972 3.024636 17.427412
v -4.904064 3.143421 17.353043
v -4.904064 3.143421 17.427412
v -4.742210 3.247606 17.353043
v -4.742210 3.247606 17.427412
v -4.562973 3.335349 17.353043
v -4.562973 3.335350 17.427412
v -4.370235 3.405226 17.353043
v -4.370235 3.405226 17.427412
v -4.166222 3.455998 17.353043
v -4.166222 3.455999 17.427412
v -3.955426 3.486826 17.353043
v -3.955426 3.486826 17.427412
v -2.095368 2.188213 17.353043
v -2.095368 2.188214 17.427412
v -5.386390 2.188213 17.353043
v -5.386390 2.188214 17.427412
v -2.094470 0.000024 17.427412
v -2.094470 0.000024 17.353043
v -5.386997 0.000024 17.353043
v -5.386997 0.000024 17.427412
v -3.740430 3.497156 -5.560399
v -3.740430 3.640682 -5.560399
v -3.525456 3.486824 -5.560399
v -3.264079 3.594637 -5.560399
v -3.314391 3.455997 -5.560399
v -3.110962 3.405224 -5.560399
v -2.819846 3.459624 -5.560399
v -2.917911 3.335359 -5.560399
v -2.738964 3.247582 -5.560399
v -2.439178 3.244909 -5.560399
v -2.576796 3.143419 -5.560398
v -2.435472 3.024634 -5.560398
v -2.146243 2.965045 -5.560398
v -2.315598 2.893283 -5.560398
v -2.220206 2.751622 -5.560398
v -1.961906 2.639160 -5.560398
v -2.151318 2.602021 -5.560398
v -2.109159 2.447063 -5.560398
v -1.915883 2.465795 -5.560398
v -2.095368 2.289420 -5.560398
v -5.371993 2.447063 -5.560398
v -5.386390 2.289420 -5.560398
v -5.565876 2.465806 -5.560398
v -5.581553 2.294149 -5.560398
v -5.329834 2.602021 -5.560398
v -5.260968 2.751622 -5.560398
v -5.440925 2.806527 -5.560398
v -5.165846 2.893283 -5.560398
v -5.045972 3.024634 -5.560398
v -5.201177 3.112030 -5.560398
v -4.904064 3.143419 -5.560398
v -5.042581 3.244909 -5.560399
v -4.742210 3.247604 -5.560399
v -4.562973 3.335348 -5.560399
v -4.660745 3.459624 -5.560399
v -4.370235 3.405224 -5.560399
v -4.166222 3.455997 -5.560399
v -4.217074 3.594637 -5.560399
v -3.955426 3.486824 -5.560399
v -2.095368 2.188212 -5.560398
v -1.899105 2.188807 -5.560398
v -5.386390 2.188212 -5.560398
v -5.582047 2.188807 -5.560398
v -1.899958 0.000022 -5.560398
v -2.094470 0.000022 -5.560398
v -5.386997 0.000022 -5.560398
v -5.580902 0.000022 -5.560398
v -3.525456 3.486824 -5.634767
v -3.740430 3.497156 -5.634767
v -3.525456 3.486824 -5.560399
v -3.740430 3.497156 -5.560399
v -3.314391 3.455997 -5.634767
v -3.314391 3.455997 -5.560399
v -3.110962 3.405224 -5.634767
v -3.110962 3.405224 -5.560399
v -2.917911 3.335359 -5.634767
v -2.917911 3.335359 -5.560399
v -2.738964 3.247582 -5.634767
v -2.738964 3.247582 -5.560399
v -2.576796 3.143419 -5.634766
v -2.576796 3.143419 -5.560398
v -2.435472 3.024634 -5.634766
v -2.435472 3.024634 -5.560398
v -2.315598 2.893283 -5.634766
v -2.315598 2.893283 -5.560398
v -2.220206 2.751622 -5.634766
v -2.220206 2.751622 -5.560398
v -2.151318 2.602021 -5.634766
v -2.151318 2.602021 -5.560398
v -2.109159 2.447063 -5.634766
v -2.109159 2.447063 -5.560398
v -2.095368 2.289420 -5.634766
v -2.095368 2.289420 -5.560398
v -5.371993 2.447063 -5.634766
v -5.386390 2.289420 -5.634766
v -5.371993 2.447063 -5.560398
v -5.386390 2.289420 -5.560398
v -5.329834 2.602021 -5.634766
v -5.329834 2.602021 -5.560398
v -5.260968 2.751622 -5.634766
v -5.260968 2.751622 -5.560398
v -5.165846 2.893283 -5.634766
v -5.165846 2.893283 -5.560398
v -5.045972 3.024634 -5.634766
v -5.045972 3.024634 -5.560398
v -4.904064 3.143419 -5.634766
v -4.904064 3.143419 -5.560398
v -4.742210 3.247604 -5.634767
v -4.742210 3.247604 -5.560399
v -4.562973 3.335348 -5.634767
v -4.562973 3.335348 -5.560399
v -4.370235 3.405224 -5.634767
v -4.370235 3.405224 -5.560399
v -4.166222 3.455997 -5.634767
v -4.166222 3.455997 -5.560399
v -3.955426 3.486824 -5.634767
v -3.955426 3.486824 -5.560399
v -2.095368 2.188212 -5.634766
v -2.095368 2.188212 -5.560398
v -5.386390 2.188212 -5.634766
v -5.386390 2.188212 -5.560398
v -2.094470 0.000022 -5.560398
v -2.094470 0.000022 -5.634766
v -5.386997 0.000022 -5.634766
v -5.386997 0.000022 -5.560398
vn -0.0000 -0.0000 1.0000
vn 1.0000 0.0002 -0.0000
vn 1.0000 -0.0002 -0.0000
vn 0.9986 0.0529 -0.0000
vn 0.9986 0.0528 -0.0000
vn 0.9844 0.1760 -0.0000
vn 0.9844 0.1761 -0.0000
vn 0.9396 0.3424 -0.0000
vn 0.8710 0.4913 -0.0000
vn 0.8710 0.4912 -0.0000
vn 0.7855 0.6188 -0.0000
vn 0.6914 0.7224 -0.0000
vn 0.6914 0.7225 -0.0000
vn 0.5922 0.8058 -0.0000
vn 0.4898 0.8718 -0.0000
vn 0.4899 0.8718 -0.0000
vn 0.3899 0.9208 -0.0000
vn 0.3898 0.9209 -0.0000
vn 0.2902 0.9570 -0.0000
vn 0.1920 0.9814 -0.0000
vn 0.1918 0.9814 -0.0000
vn 0.0964 0.9953 -0.0000
vn -0.0000 1.0000 -0.0000
vn -0.0959 0.9954 -0.0000
vn -0.1920 0.9814 -0.0000
vn -0.2904 0.9569 -0.0000
vn -0.3898 0.9209 -0.0000
vn -0.3899 0.9208 -0.0000
vn -0.4897 0.8719 -0.0000
vn -0.4898 0.8718 -0.0000
vn -0.5924 0.8056 -0.0000
vn -0.5922 0.8058 -0.0000
vn -0.6915 0.7224 -0.0000
vn -0.7855 0.6188 -0.0000
vn -0.7855 0.6189 -0.0000
vn -0.8718 0.4898 -0.0000
vn -0.9395 0.3426 -0.0000
vn -0.9396 0.3423 -0.0000
vn -0.9843 0.1763 -0.0000
vn -0.9843 0.1766 -0.0000
vn -0.9985 0.0548 -0.0000
vn -1.0000 0.0001 -0.0000
vn -1.0000 -0.0001 -0.0000
vn -1.0000 0.0003 -0.0000
vn -0.0000 -0.0000 -1.0000
vn 1.0000 0.0001 -0.0000
vn 1.0000 0.0004 -0.0000
vn 0.9844 0.1762 -0.0000
vn 0.9845 0.1755 -0.0000
vn 0.9395 0.3426 -0.0000
vn 0.7854 0.6189 -0.0000
vn 0.7855 0.6189 -0.0000
vn 0.1919 0.9814 -0.0000
vn -0.0958 0.9954 -0.0000
vn -0.0960 0.9954 -0.0000
vn -0.3902 0.9207 -0.0000
vn -0.3901 0.9208 -0.0000
vn -0.4898 0.8719 -0.0000
vn -0.5927 0.8054 -0.0000
vn -0.6918 0.7221 -0.0000
vn -0.6912 0.7227 -0.0000
vn -0.8719 0.4897 -0.0000
vn -0.9395 0.3425 -0.0000
vn -0.9843 0.1764 -0.0000
vt -0.571289 -0.816406
vt -0.485840 -0.816406
vt -0.486084 0.380859
vt -0.571289 0.380859
vt -0.571289 0.454590
vt -0.486084 0.545898
vt -0.571289 0.545898
vt -0.486084 0.651855
vt -0.571289 0.681641
vt -0.571289 0.788940
vt -0.486084 0.873657
vt -0.571289 0.899902
vt -0.571777 1.015640
vt -0.486328 1.114502
vt -0.571777 1.136353
vt -0.571777 1.263184
vt -0.486328 1.379150
vt -0.571777 1.395752
vt -0.571777 1.534180
vt -0.486328 1.668457
vt -0.571777 1.676758
vt -0.571777 1.823730
vt -0.486328 1.972168
vt -0.571777 1.972168
vt -0.571777 2.121094
vt -0.486328 2.276367
vt -0.571777 2.267578
vt -0.571777 2.410156
vt -0.486328 2.565430
vt -0.571777 2.548828
vt -0.571777 2.681641
vt -0.486328 2.830078
vt -0.571777 2.808594
vt -0.571777 2.928711
vt -0.486084 2.953125
vt -0.571289 3.070312
vt -0.486084 3.183594
vt -0.571289 3.183594
vt -0.571289 3.292969
vt -0.486084 3.398438
vt -0.571289 3.398438
vt -0.571289 3.511719
vt -0.486084 3.511719
vt -0.486084 3.617188
vt -0.571289 3.617188
vt -0.571289 4.761719
vt -0.485840 4.761719
vt -0.645996 0.380859
vt -0.645508 -0.816406
vt -0.645996 0.454590
vt -0.645996 0.545898
vt -0.645996 0.681641
vt -0.645996 0.788940
vt -0.645996 0.899902
vt -0.645996 1.015625
vt -0.645996 1.136230
vt -0.645996 1.263184
vt -0.645996 1.395752
vt -0.645996 1.534180
vt -0.645996 1.676758
vt -0.645996 1.823730
vt -0.645996 1.972168
vt -0.645996 2.121094
vt -0.645996 2.267578
vt -0.645996 2.410156
vt -0.645996 2.548828
vt -0.645996 2.681641
vt -0.645996 2.808594
vt -0.645996 2.928711
vt -0.645996 3.070312
vt -0.645996 3.183594
vt -0.645996 3.292969
vt -0.645996 3.398438
vt -0.645996 3.511719
vt -0.645996 3.617188
vt -0.645508 4.761719
s 1
f 45/1/1 44/2/1 41/3/1
f 40/4/1 45/1/1 41/3/1
f 20/5/1 40/4/1 41/3/1
f 41/3/1 19/6/1 20/5/1
f 18/7/1 20/5/1 19/6/1
f 19/6/1 16/8/1 18/7/1
f 17/9/1 18/7/1 16/8/1
f 15/10/1 17/9/1 16/8/1
f 16/8/1 13/11/1 15/10/1
f 14/12/1 15/10/1 13/11/1
f 12/13/1 14/12/1 13/11/1
f 13/11/1 10/14/1 12/13/1
f 11/15/1 12/13/1 10/14/1
f 9/16/1 11/15/1 10/14/1
f 10/14/1 7/17/1 9/16/1
f 8/18/1 9/16/1 7/17/1
f 6/19/1 8/18/1 7/17/1
f 7/17/1 4/20/1 6/19/1
f 5/21/1 6/19/1 4/20/1
f 2/22/1 5/21/1 4/20/1
f 4/20/1 3/23/1 2/22/1
f 1/24/1 2/22/1 3/23/1
f 39/25/1 1/24/1 3/23/1
f 3/23/1 38/26/1 39/25/1
f 37/27/1 39/25/1 38/26/1
f 36/28/1 37/27/1 38/26/1
f 38/26/1 35/29/1 36/28/1
f 34/30/1 36/28/1 35/29/1
f 33/31/1 34/30/1 35/29/1
f 35/29/1 32/32/1 33/31/1
f 31/33/1 33/31/1 32/32/1
f 29/34/1 31/33/1 32/32/1
f 32/32/1 30/35/1 29/34/1
f 28/36/1 29/34/1 30/35/1
f 30/35/1 27/37/1 28/36/1
f 26/38/1 28/36/1 27/37/1
f 25/39/1 26/38/1 27/37/1
f 27/37/1 22/40/1 25/39/1
f 21/41/1 25/39/1 22/40/1
f 23/42/1 21/41/1 22/40/1
f 22/40/1 24/43/1 23/42/1
f 24/43/1 43/44/1 23/42/1
f 42/45/1 23/42/1 43/44/1
f 46/46/1 42/45/1 43/44/1
f 43/44/1 47/47/1 46/46/1
f 99/48/2 102/49/3 103/1/3
f 103/1/3 98/4/2 99/48/2
f 98/4/2 72/5/4 99/48/2
f 73/50/5 99/48/2 72/5/4
f 72/5/4 70/7/6 73/50/5
f 71/51/7 73/50/5 70/7/6
f 70/7/6 68/9/8 71/51/7
f 69/52/8 71/51/7 68/9/8
f 68/9/8 66/10/9 69/52/8
f 67/53/10 69/52/8 66/10/9
f 66/10/9 64/12/11 67/53/10
f 65/54/11 67/53/10 64/12/11
f 64/12/11 62/13/12 65/54/11
f 63/55/13 65/54/11 62/13/12
f 62/13/12 60/15/14 63/55/13
f 61/56/14 63/55/13 60/15/14
f 60/15/14 58/16/15 61/56/14
f 59/57/16 61/56/14 58/16/15
f 58/16/15 56/18/17 59/57/16
f 57/58/18 59/57/16 56/18/17
f 56/18/17 54/19/19 57/58/18
f 55/59/19 57/58/18 54/19/19
f 54/19/19 52/21/20 55/59/19
f 53/60/21 55/59/19 52/21/20
f 52/21/20 48/22/22 53/60/21
f 50/61/22 53/60/21 48/22/22
f 48/22/22 49/24/23 50/61/22
f 51/62/23 50/61/22 49/24/23
f 49/24/23 96/25/24 51/62/23
f 97/63/24 51/62/23 96/25/24
f 96/25/24 94/27/25 97/63/24
f 95/64/25 97/63/24 94/27/25
f 94/27/25 92/28/26 95/64/25
f 93/65/26 95/64/25 92/28/26
f 92/28/26 90/30/27 93/65/26
f 91/66/28 93/65/26 90/30/27
f 90/30/27 88/31/29 91/66/28
f 89/67/30 91/66/28 88/31/29
f 88/31/29 86/33/31 89/67/30
f 87/68/32 89/67/30 86/33/31
f 86/33/31 84/34/33 87/68/32
f 85/69/33 87/68/32 84/34/33
f 84/34/33 82/36/34 85/69/33
f 83/70/35 85/69/33 82/36/34
f 82/36/34 80/38/36 83/70/35
f 81/71/36 83/70/35 80/38/36
f 80/38/36 78/39/37 81/71/36
f 79/72/38 81/71/36 78/39/37
f 78/39/37 74/41/39 79/72/38
f 76/73/40 79/72/38 74/41/39
f 74/41/39 75/42/41 76/73/40
f 77/74/41 76/73/40 75/42/41
f 75/42/41 100/45/42 77/74/41
f 101/75/42 77/74/41 100/45/42
f 100/45/42 104/46/43 101/75/42
f 105/76/44 101/75/42 104/46/43
f 149/2/45 150/1/45 145/4/45
f 146/3/45 149/2/45 145/4/45
f 145/4/45 125/5/45 146/3/45
f 124/6/45 146/3/45 125/5/45
f 125/5/45 123/7/45 124/6/45
f 121/8/45 124/6/45 123/7/45
f 123/7/45 122/9/45 121/8/45
f 122/9/45 120/10/45 121/8/45
f 118/11/45 121/8/45 120/10/45
f 120/10/45 119/12/45 118/11/45
f 119/12/45 117/13/45 118/11/45
f 115/14/45 118/11/45 117/13/45
f 117/13/45 116/15/45 115/14/45
f 116/15/45 114/16/45 115/14/45
f 112/17/45 115/14/45 114/16/45
f 114/16/45 113/18/45 112/17/45
f 113/18/45 111/19/45 112/17/45
f 109/20/45 112/17/45 111/19/45
f 111/19/45 110/21/45 109/20/45
f 110/21/45 108/22/45 109/20/45
f 107/23/45 109/20/45 108/22/45
f 108/22/45 106/24/45 107/23/45
f 106/24/45 144/25/45 107/23/45
f 143/26/45 107/23/45 144/25/45
f 144/25/45 142/27/45 143/26/45
f 142/27/45 141/28/45 143/26/45
f 140/29/45 143/26/45 141/28/45
f 141/28/45 139/30/45 140/29/45
f 139/30/45 138/31/45 140/29/45
f 137/32/45 140/29/45 138/31/45
f 138/31/45 136/33/45 137/32/45
f 136/33/45 134/34/45 137/32/45
f 135/35/45 137/32/45 134/34/45
f 134/34/45 133/36/45 135/35/45
f 132/37/45 135/35/45 133/36/45
f 133/36/45 131/38/45 132/37/45
f 131/38/45 130/39/45 132/37/45
f 128/40/45 132/37/45 130/39/45
f 130/39/45 126/41/45 128/40/45
f 126/41/45 127/42/45 128/40/45
f 129/43/45 128/40/45 127/42/45
f 148/44/45 129/43/45 127/42/45
f 127/42/45 147/45/45 148/44/45
f 152/47/45 148/44/45 147/45/45
f 147/45/45 151/46/45 152/47/45
f 204/4/2 207/1/46 208/49/47
f 208/49/47 203/48/2 204/4/2
f 203/48/2 177/50/4 204/4/2
f 178/5/5 204/4/2 177/50/4
f 177/50/4 175/51/48 178/5/5
f 176/7/49 178/5/5 175/51/48
f 175/51/48 173/52/50 176/7/49
f 174/9/50 176/7/49 173/52/50
f 173/52/50 171/53/9 174/9/50
f 172/10/9 174/9/50 171/53/9
f 171/53/9 169/54/51 172/10/9
f 170/12/52 172/10/9 169/54/51
f 169/54/51 167/55/13 170/12/52
f 168/13/13 170/12/52 167/55/13
f 167/55/13 165/56/14 168/13/13
f 166/15/14 168/13/13 165/56/14
f 165/56/14 163/57/16 166/15/14
f 164/16/15 166/15/14 163/57/16
f 163/57/16 161/58/17 164/16/15
f 162/18/17 164/16/15 161/58/17
f 161/58/17 159/59/19 162/18/17
f 160/19/19 162/18/17 159/59/19
f 159/59/19 157/60/53 160/19/19
f 158/21/20 160/19/19 157/60/53
f 157/60/53 153/61/22 158/21/20
f 155/22/22 158/21/20 153/61/22
f 153/61/22 154/62/23 155/22/22
f 156/24/23 155/22/22 154/62/23
f 154/62/23 201/63/54 156/24/23
f 202/25/55 156/24/23 201/63/54
f 201/63/54 199/64/25 202/25/55
f 200/27/25 202/25/55 199/64/25
f 199/64/25 197/65/26 200/27/25
f 198/28/26 200/27/25 197/65/26
f 197/65/26 195/66/56 198/28/26
f 196/30/57 198/28/26 195/66/56
f 195/66/56 193/67/58 196/30/57
f 194/31/58 196/30/57 193/67/58
f 193/67/58 191/68/32 194/31/58
f 192/33/59 194/31/58 191/68/32
f 191/68/32 189/69/60 192/33/59
f 190/34/61 192/33/59 189/69/60
f 189/69/60 187/70/34 190/34/61
f 188/36/34 190/34/61 187/70/34
f 187/70/34 185/71/62 188/36/34
f 186/38/36 188/36/34 185/71/62
f 185/71/62 183/72/63 186/38/36
f 184/39/63 186/38/36 183/72/63
f 183/72/63 179/73/64 184/39/63
f 181/41/40 184/39/63 179/73/64
f 179/73/64 180/74/41 181/41/40
f 182/42/41 181/41/40 180/74/41
f 180/74/41 205/75/42 182/42/41
f 206/45/42 182/42/41 205/75/42
f 205/75/42 209/76/44 206/45/42
f 210/46/43 206/45/42 209/76/44
