# Blender 4.5.3 LTS
# www.blender.org
o w9a02_my1_iron01
v 7.471767 0.003385 15.976703
v 6.895637 0.003385 15.976702
v 7.471775 0.003385 14.631747
v 6.895641 0.003385 14.631755
v 7.471768 0.003385 17.323133
v 6.895638 0.003385 17.323133
v 7.471767 0.003385 15.976703
v 6.895637 0.003385 15.976702
v 7.471775 0.003385 14.631747
v 6.895641 0.003385 14.631755
v 7.471759 0.003385 13.286807
v 6.895630 0.003385 13.286798
v 7.471752 0.003385 11.943336
v 6.895642 0.003385 11.943329
v 7.471769 0.003384 10.596915
v 6.895640 0.003384 10.596906
v 7.471759 0.003385 13.286807
v 6.895630 0.003385 13.286798
v 7.471752 0.003385 11.943336
v 6.895642 0.003385 11.943329
v 6.895637 0.003385 15.976702
v 6.895637 -0.028250 15.976702
v 6.895641 0.003385 14.631755
v 6.895641 -0.028250 14.631755
v 7.471767 0.003385 15.976703
v 7.471767 -0.028250 15.976703
v 7.471768 0.003385 17.323133
v 7.471768 -0.028250 17.323133
v 6.895638 0.003385 17.323133
v 6.895638 -0.028250 17.323133
v 6.895637 0.003385 15.976702
v 6.895637 -0.028250 15.976702
v 7.471775 0.003385 14.631747
v 7.471775 -0.028250 14.631747
v 7.471767 0.003385 15.976703
v 7.471767 -0.028250 15.976703
v 7.471759 0.003385 13.286807
v 7.471759 -0.028250 13.286807
v 7.471775 0.003385 14.631747
v 7.471775 -0.028250 14.631747
v 6.895630 0.003385 13.286798
v 6.895630 -0.028250 13.286798
v 6.895642 0.003385 11.943329
v 6.895642 -0.028250 11.943329
v 7.471769 0.003384 10.596915
v 7.471769 -0.028250 10.596915
v 7.471752 0.003385 11.943336
v 7.471752 -0.028250 11.943336
v 6.895642 0.003385 11.943329
v 6.895642 -0.028250 11.943329
v 6.895640 0.003384 10.596906
v 6.895640 -0.028250 10.596906
v 7.471752 0.003385 11.943336
v 7.471752 -0.028250 11.943336
v 7.471759 0.003385 13.286807
v 7.471759 -0.028250 13.286807
v 6.895641 0.003385 14.631755
v 6.895641 -0.028250 14.631755
v 6.895630 0.003385 13.286798
v 6.895630 -0.028250 13.286798
v 7.471767 0.003384 10.594814
v 6.895637 0.003384 10.594813
v 7.471775 0.003384 9.249860
v 6.895641 0.003384 9.249867
v 7.471768 0.003385 11.941245
v 6.895638 0.003385 11.941244
v 7.471767 0.003384 10.594814
v 6.895637 0.003384 10.594813
v 7.471775 0.003384 9.249860
v 6.895641 0.003384 9.249867
v 7.471759 0.003384 7.904920
v 6.895630 0.003384 7.904911
v 7.471752 0.003384 6.561447
v 6.895642 0.003384 6.561440
v 7.471769 0.003384 5.215027
v 6.895640 0.003384 5.215018
v 7.471759 0.003384 7.904920
v 6.895630 0.003384 7.904911
v 7.471752 0.003384 6.561447
v 6.895642 0.003384 6.561440
v 6.895637 0.003384 10.594813
v 6.895637 -0.028250 10.594813
v 6.895641 0.003384 9.249867
v 6.895641 -0.028250 9.249867
v 7.471767 0.003384 10.594814
v 7.471767 -0.028250 10.594814
v 7.471768 0.003385 11.941245
v 7.471768 -0.028250 11.941245
v 6.895638 0.003385 11.941244
v 6.895638 -0.028250 11.941244
v 6.895637 0.003384 10.594813
v 6.895637 -0.028250 10.594813
v 7.471775 0.003384 9.249860
v 7.471775 -0.028250 9.249860
v 7.471767 0.003384 10.594814
v 7.471767 -0.028250 10.594814
v 7.471759 0.003384 7.904920
v 7.471759 -0.028250 7.904920
v 7.471775 0.003384 9.249860
v 7.471775 -0.028250 9.249860
v 6.895630 0.003384 7.904911
v 6.895630 -0.028250 7.904911
v 6.895642 0.003384 6.561440
v 6.895642 -0.028251 6.561440
v 7.471769 0.003384 5.215027
v 7.471769 -0.028251 5.215027
v 7.471752 0.003384 6.561447
v 7.471752 -0.028251 6.561447
v 6.895642 0.003384 6.561440
v 6.895642 -0.028251 6.561440
v 6.895640 0.003384 5.215018
v 6.895640 -0.028251 5.215018
v 7.471752 0.003384 6.561447
v 7.471752 -0.028251 6.561447
v 7.471759 0.003384 7.904920
v 7.471759 -0.028250 7.904920
v 6.895641 0.003384 9.249867
v 6.895641 -0.028250 9.249867
v 6.895630 0.003384 7.904911
v 6.895630 -0.028250 7.904911
v 7.471767 0.003384 3.869759
v 6.895637 0.003384 3.869759
v 7.471775 0.003384 2.524806
v 6.895641 0.003384 2.524812
v 7.471768 0.003384 5.216190
v 6.895638 0.003384 5.216189
v 7.471767 0.003384 3.869759
v 6.895637 0.003384 3.869759
v 7.471775 0.003384 2.524806
v 6.895641 0.003384 2.524812
v 7.471759 0.003384 1.179865
v 6.895630 0.003384 1.179855
v 7.471752 0.003384 -0.163608
v 6.895642 0.003384 -0.163614
v 7.471769 0.003384 -1.510028
v 6.895640 0.003384 -1.510037
v 7.471759 0.003384 1.179865
v 6.895630 0.003384 1.179855
v 7.471752 0.003384 -0.163608
v 6.895642 0.003384 -0.163614
v 6.895637 0.003384 3.869759
v 6.895637 -0.028251 3.869759
v 6.895641 0.003384 2.524812
v 6.895641 -0.028251 2.524812
v 7.471767 0.003384 3.869759
v 7.471767 -0.028251 3.869759
v 7.471768 0.003384 5.216190
v 7.471768 -0.028251 5.216190
v 6.895638 0.003384 5.216189
v 6.895638 -0.028251 5.216189
v 6.895637 0.003384 3.869759
v 6.895637 -0.028251 3.869759
v 7.471775 0.003384 2.524806
v 7.471775 -0.028251 2.524806
v 7.471767 0.003384 3.869759
v 7.471767 -0.028251 3.869759
v 7.471759 0.003384 1.179865
v 7.471759 -0.028251 1.179865
v 7.471775 0.003384 2.524806
v 7.471775 -0.028251 2.524806
v 6.895630 0.003384 1.179855
v 6.895630 -0.028251 1.179855
v 6.895642 0.003384 -0.163614
v 6.895642 -0.028251 -0.163614
v 7.471769 0.003384 -1.510028
v 7.471769 -0.028251 -1.510028
v 7.471752 0.003384 -0.163608
v 7.471752 -0.028251 -0.163608
v 6.895642 0.003384 -0.163614
v 6.895642 -0.028251 -0.163614
v 6.895640 0.003384 -1.510037
v 6.895640 -0.028251 -1.510037
v 7.471752 0.003384 -0.163608
v 7.471752 -0.028251 -0.163608
v 7.471759 0.003384 1.179865
v 7.471759 -0.028251 1.179865
v 6.895641 0.003384 2.524812
v 6.895641 -0.028251 2.524812
v 6.895630 0.003384 1.179855
v 6.895630 -0.028251 1.179855
v 7.471767 0.003384 -1.512128
v 6.895637 0.003384 -1.512130
v 7.471775 0.003383 -2.857083
v 6.895641 0.003383 -2.857075
v 7.471768 0.003384 -0.165698
v 6.895638 0.003384 -0.165699
v 7.471767 0.003384 -1.512128
v 6.895637 0.003384 -1.512130
v 7.471775 0.003383 -2.857083
v 6.895641 0.003383 -2.857075
v 7.471759 0.003383 -4.202024
v 6.895630 0.003383 -4.202033
v 7.471752 0.003383 -5.545496
v 6.895642 0.003383 -5.545503
v 7.471769 0.003383 -6.891916
v 6.895640 0.003383 -6.891925
v 7.471759 0.003383 -4.202024
v 6.895630 0.003383 -4.202033
v 7.471752 0.003383 -5.545496
v 6.895642 0.003383 -5.545503
v 6.895637 0.003384 -1.512130
v 6.895637 -0.028251 -1.512130
v 6.895641 0.003383 -2.857075
v 6.895641 -0.028251 -2.857075
v 7.471767 0.003384 -1.512128
v 7.471767 -0.028251 -1.512128
v 7.471768 0.003384 -0.165698
v 7.471768 -0.028251 -0.165698
v 6.895638 0.003384 -0.165699
v 6.895638 -0.028251 -0.165699
v 6.895637 0.003384 -1.512130
v 6.895637 -0.028251 -1.512130
v 7.471775 0.003383 -2.857083
v 7.471775 -0.028251 -2.857083
v 7.471767 0.003384 -1.512128
v 7.471767 -0.028251 -1.512128
v 7.471759 0.003383 -4.202024
v 7.471759 -0.028251 -4.202024
v 7.471775 0.003383 -2.857083
v 7.471775 -0.028251 -2.857083
v 6.895630 0.003383 -4.202033
v 6.895630 -0.028251 -4.202033
v 6.895642 0.003383 -5.545503
v 6.895642 -0.028252 -5.545503
v 7.471769 0.003383 -6.891916
v 7.471769 -0.028252 -6.891916
v 7.471752 0.003383 -5.545496
v 7.471752 -0.028252 -5.545496
v 6.895642 0.003383 -5.545503
v 6.895642 -0.028252 -5.545503
v 6.895640 0.003383 -6.891925
v 6.895640 -0.028252 -6.891925
v 7.471752 0.003383 -5.545496
v 7.471752 -0.028252 -5.545496
v 7.471759 0.003383 -4.202024
v 7.471759 -0.028251 -4.202024
v 6.895641 0.003383 -2.857075
v 6.895641 -0.028251 -2.857075
v 6.895630 0.003383 -4.202033
v 6.895630 -0.028251 -4.202033
v 3.231524 0.003383 -5.468817
v 3.231523 0.003383 -4.892686
v 1.886570 0.003383 -5.468824
v 1.886577 0.003383 -4.892691
v 4.577954 0.003383 -5.468818
v 4.577953 0.003383 -4.892687
v 3.231524 0.003383 -5.468817
v 3.231523 0.003383 -4.892686
v 1.886570 0.003383 -5.468824
v 1.886577 0.003383 -4.892691
v 0.541629 0.003383 -5.468809
v 0.541620 0.003383 -4.892680
v -0.801843 0.003383 -5.468802
v -0.801850 0.003383 -4.892692
v -2.148263 0.003383 -5.468819
v -2.148272 0.003383 -4.892690
v 0.541629 0.003383 -5.468809
v 0.541620 0.003383 -4.892680
v -0.801843 0.003383 -5.468802
v -0.801850 0.003383 -4.892692
v 3.231523 0.003383 -4.892686
v 3.231523 -0.028251 -4.892686
v 1.886577 0.003383 -4.892691
v 1.886577 -0.028251 -4.892691
v 3.231524 0.003383 -5.468817
v 3.231524 -0.028252 -5.468817
v 4.577954 0.003383 -5.468818
v 4.577954 -0.028252 -5.468818
v 4.577953 0.003383 -4.892687
v 4.577953 -0.028251 -4.892687
v 3.231523 0.003383 -4.892686
v 3.231523 -0.028251 -4.892686
v 1.886570 0.003383 -5.468824
v 1.886570 -0.028252 -5.468824
v 3.231524 0.003383 -5.468817
v 3.231524 -0.028252 -5.468817
v 0.541629 0.003383 -5.468809
v 0.541629 -0.028252 -5.468809
v 1.886570 0.003383 -5.468824
v 1.886570 -0.028252 -5.468824
v 0.541620 0.003383 -4.892680
v 0.541620 -0.028251 -4.892680
v -0.801850 0.003383 -4.892692
v -0.801850 -0.028251 -4.892692
v -2.148263 0.003383 -5.468819
v -2.148263 -0.028252 -5.468819
v -0.801843 0.003383 -5.468802
v -0.801843 -0.028252 -5.468802
v -0.801850 0.003383 -4.892692
v -0.801850 -0.028251 -4.892692
v -2.148272 0.003383 -4.892690
v -2.148272 -0.028251 -4.892690
v -0.801843 0.003383 -5.468802
v -0.801843 -0.028252 -5.468802
v 0.541629 0.003383 -5.468809
v 0.541629 -0.028252 -5.468809
v 1.886577 0.003383 -4.892691
v 1.886577 -0.028251 -4.892691
v 0.541620 0.003383 -4.892680
v 0.541620 -0.028251 -4.892680
v -2.150364 0.003383 -5.468817
v -2.150365 0.003383 -4.892686
v -3.495318 0.003383 -5.468824
v -3.495311 0.003383 -4.892691
v -0.803934 0.003383 -5.468818
v -0.803935 0.003383 -4.892687
v -2.150364 0.003383 -5.468817
v -2.150365 0.003383 -4.892686
v -3.495318 0.003383 -5.468824
v -3.495311 0.003383 -4.892691
v -4.840259 0.003383 -5.468809
v -4.840269 0.003383 -4.892680
v -6.183732 0.003383 -5.468802
v -6.183738 0.003383 -4.892692
v -7.530151 0.003383 -5.468819
v -7.530160 0.003383 -4.892690
v -4.840259 0.003383 -5.468809
v -4.840269 0.003383 -4.892680
v -6.183732 0.003383 -5.468802
v -6.183738 0.003383 -4.892692
v -2.150365 0.003383 -4.892686
v -2.150365 -0.028251 -4.892686
v -3.495311 0.003383 -4.892691
v -3.495311 -0.028251 -4.892691
v -2.150364 0.003383 -5.468817
v -2.150364 -0.028252 -5.468817
v -0.803934 0.003383 -5.468818
v -0.803934 -0.028252 -5.468818
v -0.803935 0.003383 -4.892687
v -0.803935 -0.028251 -4.892687
v -2.150365 0.003383 -4.892686
v -2.150365 -0.028251 -4.892686
v -3.495318 0.003383 -5.468824
v -3.495318 -0.028252 -5.468824
v -2.150364 0.003383 -5.468817
v -2.150364 -0.028252 -5.468817
v -4.840259 0.003383 -5.468809
v -4.840259 -0.028252 -5.468809
v -3.495318 0.003383 -5.468824
v -3.495318 -0.028252 -5.468824
v -4.840269 0.003383 -4.892680
v -4.840269 -0.028251 -4.892680
v -6.183738 0.003383 -4.892692
v -6.183738 -0.028251 -4.892692
v -7.530151 0.003383 -5.468819
v -7.530151 -0.028252 -5.468819
v -6.183732 0.003383 -5.468802
v -6.183732 -0.028252 -5.468802
v -6.183738 0.003383 -4.892692
v -6.183738 -0.028251 -4.892692
v -7.530160 0.003383 -4.892690
v -7.530160 -0.028251 -4.892690
v -6.183732 0.003383 -5.468802
v -6.183732 -0.028252 -5.468802
v -4.840259 0.003383 -5.468809
v -4.840259 -0.028252 -5.468809
v -3.495311 0.003383 -4.892691
v -3.495311 -0.028251 -4.892691
v -4.840269 0.003383 -4.892680
v -4.840269 -0.028251 -4.892680
vn -0.0000 -1.0000 -0.0000
vn 1.0000 -0.0000 -0.0000
vn -1.0000 -0.0000 -0.0000
vn -0.0000 -0.0000 -1.0000
vn -0.0000 -0.0000 1.0000
vt 0.000004 2.000000
vt -1.000000 2.000000
vt -1.000000 3.000000
vt -0.000005 3.000000
vt -2.000000 2.000000
vt -2.000000 3.000000
vt 1.000000 2.000000
vt 1.000000 3.000000
vt 3.000000 2.000000
vt 2.000000 2.000000
vt 2.000000 3.000000
vt 3.000000 3.000000
vt -1.000000 3.087891
vt 0.000000 3.087891
vt -1.000000 1.913086
vt -2.000000 1.913086
vt -2.000000 3.087891
vt -0.000000 1.913086
vt 1.000000 1.913086
vt 1.000000 3.087891
vt 2.000000 3.087891
vt 3.000000 1.913086
vt 2.000000 1.913086
vt 3.000000 3.087891
s 1
f 3/1/1 1/2/1 2/3/1
f 2/3/1 4/4/1 3/1/1
f 7/2/1 5/5/1 6/6/1
f 6/6/1 8/3/1 7/2/1
f 11/7/1 9/1/1 10/4/1
f 10/4/1 12/8/1 11/7/1
f 15/9/1 13/10/1 14/11/1
f 14/11/1 16/12/1 15/9/1
f 19/10/1 17/7/1 18/8/1
f 18/8/1 20/11/1 19/10/1
f 23/4/2 21/3/2 22/13/2
f 22/13/2 24/14/2 23/4/2
f 27/5/3 25/2/3 26/15/3
f 26/15/3 28/16/3 27/5/3
f 31/3/2 29/6/2 30/17/2
f 30/17/2 32/13/2 31/3/2
f 35/2/3 33/1/3 34/18/3
f 34/18/3 36/15/3 35/2/3
f 39/1/3 37/7/3 38/19/3
f 38/19/3 40/18/3 39/1/3
f 43/11/2 41/8/2 42/20/2
f 42/20/2 44/21/2 43/11/2
f 47/10/3 45/9/3 46/22/3
f 46/22/3 48/23/3 47/10/3
f 51/12/2 49/11/2 50/21/2
f 50/21/2 52/24/2 51/12/2
f 55/7/3 53/10/3 54/23/3
f 54/23/3 56/19/3 55/7/3
f 59/8/2 57/4/2 58/14/2
f 58/14/2 60/20/2 59/8/2
f 63/1/1 61/2/1 62/3/1
f 62/3/1 64/4/1 63/1/1
f 67/2/1 65/5/1 66/6/1
f 66/6/1 68/3/1 67/2/1
f 71/7/1 69/1/1 70/4/1
f 70/4/1 72/8/1 71/7/1
f 75/9/1 73/10/1 74/11/1
f 74/11/1 76/12/1 75/9/1
f 79/10/1 77/7/1 78/8/1
f 78/8/1 80/11/1 79/10/1
f 83/4/2 81/3/2 82/13/2
f 82/13/2 84/14/2 83/4/2
f 87/5/3 85/2/3 86/15/3
f 86/15/3 88/16/3 87/5/3
f 91/3/2 89/6/2 90/17/2
f 90/17/2 92/13/2 91/3/2
f 95/2/3 93/1/3 94/18/3
f 94/18/3 96/15/3 95/2/3
f 99/1/3 97/7/3 98/19/3
f 98/19/3 100/18/3 99/1/3
f 103/11/2 101/8/2 102/20/2
f 102/20/2 104/21/2 103/11/2
f 107/10/3 105/9/3 106/22/3
f 106/22/3 108/23/3 107/10/3
f 111/12/2 109/11/2 110/21/2
f 110/21/2 112/24/2 111/12/2
f 115/7/3 113/10/3 114/23/3
f 114/23/3 116/19/3 115/7/3
f 119/8/2 117/4/2 118/14/2
f 118/14/2 120/20/2 119/8/2
f 123/1/1 121/2/1 122/3/1
f 122/3/1 124/4/1 123/1/1
f 127/2/1 125/5/1 126/6/1
f 126/6/1 128/3/1 127/2/1
f 131/7/1 129/1/1 130/4/1
f 130/4/1 132/8/1 131/7/1
f 135/9/1 133/10/1 134/11/1
f 134/11/1 136/12/1 135/9/1
f 139/10/1 137/7/1 138/8/1
f 138/8/1 140/11/1 139/10/1
f 143/4/2 141/3/2 142/13/2
f 142/13/2 144/14/2 143/4/2
f 147/5/3 145/2/3 146/15/3
f 146/15/3 148/16/3 147/5/3
f 151/3/2 149/6/2 150/17/2
f 150/17/2 152/13/2 151/3/2
f 155/2/3 153/1/3 154/18/3
f 154/18/3 156/15/3 155/2/3
f 159/1/3 157/7/3 158/19/3
f 158/19/3 160/18/3 159/1/3
f 163/11/2 161/8/2 162/20/2
f 162/20/2 164/21/2 163/11/2
f 167/10/3 165/9/3 166/22/3
f 166/22/3 168/23/3 167/10/3
f 171/12/2 169/11/2 170/21/2
f 170/21/2 172/24/2 171/12/2
f 175/7/3 173/10/3 174/23/3
f 174/23/3 176/19/3 175/7/3
f 179/8/2 177/4/2 178/14/2
f 178/14/2 180/20/2 179/8/2
f 183/1/1 181/2/1 182/3/1
f 182/3/1 184/4/1 183/1/1
f 187/2/1 185/5/1 186/6/1
f 186/6/1 188/3/1 187/2/1
f 191/7/1 189/1/1 190/4/1
f 190/4/1 192/8/1 191/7/1
f 195/9/1 193/10/1 194/11/1
f 194/11/1 196/12/1 195/9/1
f 199/10/1 197/7/1 198/8/1
f 198/8/1 200/11/1 199/10/1
f 203/4/2 201/3/2 202/13/2
f 202/13/2 204/14/2 203/4/2
f 207/5/3 205/2/3 206/15/3
f 206/15/3 208/16/3 207/5/3
f 211/3/2 209/6/2 210/17/2
f 210/17/2 212/13/2 211/3/2
f 215/2/3 213/1/3 214/18/3
f 214/18/3 216/15/3 215/2/3
f 219/1/3 217/7/3 218/19/3
f 218/19/3 220/18/3 219/1/3
f 223/11/2 221/8/2 222/20/2
f 222/20/2 224/21/2 223/11/2
f 227/10/3 225/9/3 226/22/3
f 226/22/3 228/23/3 227/10/3
f 231/12/2 229/11/2 230/21/2
f 230/21/2 232/24/2 231/12/2
f 235/7/3 233/10/3 234/23/3
f 234/23/3 236/19/3 235/7/3
f 239/8/2 237/4/2 238/14/2
f 238/14/2 240/20/2 239/8/2
f 243/1/1 241/2/1 242/3/1
f 242/3/1 244/4/1 243/1/1
f 247/2/1 245/5/1 246/6/1
f 246/6/1 248/3/1 247/2/1
f 251/7/1 249/1/1 250/4/1
f 250/4/1 252/8/1 251/7/1
f 255/9/1 253/10/1 254/11/1
f 254/11/1 256/12/1 255/9/1
f 259/10/1 257/7/1 258/8/1
f 258/8/1 260/11/1 259/10/1
f 263/4/4 261/3/4 262/13/4
f 262/13/4 264/14/4 263/4/4
f 267/5/5 265/2/5 266/15/5
f 266/15/5 268/16/5 267/5/5
f 271/3/4 269/6/4 270/17/4
f 270/17/4 272/13/4 271/3/4
f 275/2/5 273/1/5 274/18/5
f 274/18/5 276/15/5 275/2/5
f 279/1/5 277/7/5 278/19/5
f 278/19/5 280/18/5 279/1/5
f 283/11/4 281/8/4 282/20/4
f 282/20/4 284/21/4 283/11/4
f 287/10/5 285/9/5 286/22/5
f 286/22/5 288/23/5 287/10/5
f 291/12/4 289/11/4 290/21/4
f 290/21/4 292/24/4 291/12/4
f 295/7/5 293/10/5 294/23/5
f 294/23/5 296/19/5 295/7/5
f 299/8/4 297/4/4 298/14/4
f 298/14/4 300/20/4 299/8/4
f 303/1/1 301/2/1 302/3/1
f 302/3/1 304/4/1 303/1/1
f 307/2/1 305/5/1 306/6/1
f 306/6/1 308/3/1 307/2/1
f 311/7/1 309/1/1 310/4/1
f 310/4/1 312/8/1 311/7/1
f 315/9/1 313/10/1 314/11/1
f 314/11/1 316/12/1 315/9/1
f 319/10/1 317/7/1 318/8/1
f 318/8/1 320/11/1 319/10/1
f 323/4/4 321/3/4 322/13/4
f 322/13/4 324/14/4 323/4/4
f 327/5/5 325/2/5 326/15/5
f 326/15/5 328/16/5 327/5/5
f 331/3/4 329/6/4 330/17/4
f 330/17/4 332/13/4 331/3/4
f 335/2/5 333/1/5 334/18/5
f 334/18/5 336/15/5 335/2/5
f 339/1/5 337/7/5 338/19/5
f 338/19/5 340/18/5 339/1/5
f 343/11/4 341/8/4 342/20/4
f 342/20/4 344/21/4 343/11/4
f 347/10/5 345/9/5 346/22/5
f 346/22/5 348/23/5 347/10/5
f 351/12/4 349/11/4 350/21/4
f 350/21/4 352/24/4 351/12/4
f 355/7/5 353/10/5 354/23/5
f 354/23/5 356/19/5 355/7/5
f 359/8/4 357/4/4 358/14/4
f 358/14/4 360/20/4 359/8/4
