# Blender 5.1.1
# www.blender.org
o w9a02_metal903
v -5.639491 0.728754 2.648459
v -5.735276 0.848802 2.688125
v -5.715984 0.728754 2.463738
v -5.811769 0.848802 2.503403
v -5.647882 0.720910 2.651934
v -5.639491 0.728754 2.648459
v -5.724375 0.720910 2.467212
v -5.715984 0.728754 2.463738
v -5.732723 0.741596 2.452303
v -5.808015 0.835960 2.483482
v -5.741114 0.733753 2.455778
v -5.816406 0.828117 2.486957
v -5.811769 0.848802 2.503403
v -5.735276 0.848802 2.688125
v -5.820161 0.840959 2.506878
v -5.743667 0.840959 2.691600
v -5.393087 0.835960 3.485479
v -5.317796 0.741596 3.454299
v -5.401478 0.828116 3.488953
v -5.326187 0.733753 3.457774
v -5.494710 0.840959 3.292798
v -5.486320 0.848802 3.289323
v -5.418217 0.840959 3.477519
v -5.409826 0.848802 3.474044
v -5.314041 0.728754 3.434378
v -5.390534 0.728754 3.249657
v -5.322432 0.720910 3.437853
v -5.398925 0.720910 3.253131
v -5.577696 0.840959 3.092398
v -5.569305 0.848802 3.088923
v -5.390534 0.728754 3.249657
v -5.486320 0.848802 3.289323
v -5.473520 0.728754 3.049257
v -5.569305 0.848802 3.088923
v -5.481911 0.720910 3.052732
v -5.473520 0.728754 3.049257
v -5.660682 0.840959 2.891999
v -5.652291 0.848802 2.888524
v -5.473520 0.728754 3.049257
v -5.569305 0.848802 3.088923
v -5.556505 0.728754 2.848858
v -5.652291 0.848802 2.888524
v -5.564896 0.720910 2.852333
v -5.556505 0.728754 2.848858
v -5.556505 0.728754 2.848858
v -5.652291 0.848802 2.888524
v -5.639491 0.728754 2.648459
v -5.735276 0.848802 2.688125
v -5.317796 0.741596 3.454299
v -5.393087 0.835960 3.485479
v -5.314041 0.728754 3.434378
v -5.409826 0.848802 3.474044
v -5.724375 0.720910 2.467212
v -5.715984 0.728754 2.463738
v -5.741114 0.733753 2.455778
v -5.732723 0.741596 2.452303
v -5.326187 0.733753 3.457774
v -5.317796 0.741596 3.454299
v -5.322432 0.720910 3.437853
v -5.314041 0.728754 3.434378
v -5.816406 0.828117 2.486957
v -5.808015 0.835960 2.483482
v -5.820161 0.840959 2.506878
v -5.811769 0.848802 2.503403
v -5.418217 0.840959 3.477519
v -5.409826 0.848802 3.474044
v -5.401478 0.828116 3.488953
v -5.393087 0.835960 3.485479
v -5.409826 0.848802 3.474044
v -5.486320 0.848802 3.289323
v -5.314041 0.728754 3.434378
v -5.390534 0.728754 3.249657
v -5.811769 0.848802 2.503403
v -5.808015 0.835960 2.483482
v -5.715984 0.728754 2.463738
v -5.732723 0.741596 2.452303
v -6.107366 1.134201 -1.201353
v -6.205087 1.169561 -1.201353
v -6.107366 1.134201 -1.332342
v -6.205087 1.169561 -1.332342
v -6.111473 1.122925 -1.201353
v -6.107366 1.134201 -1.201353
v -6.111473 1.122925 -1.332342
v -6.107366 1.134201 -1.332342
v -6.117820 1.137984 -1.343460
v -6.194633 1.165779 -1.343459
v -6.121927 1.126708 -1.343460
v -6.198740 1.154503 -1.343459
v -6.205087 1.169561 -1.332342
v -6.205087 1.169561 -1.201353
v -6.209194 1.158286 -1.332342
v -6.209194 1.158286 -1.201353
v -6.194633 1.165779 -0.632927
v -6.117820 1.137984 -0.632928
v -6.198740 1.154503 -0.632927
v -6.121926 1.126708 -0.632928
v -6.209194 1.158286 -0.775034
v -6.205087 1.169562 -0.775034
v -6.209194 1.158286 -0.644045
v -6.205087 1.169562 -0.644045
v -6.107366 1.134201 -0.644045
v -6.107366 1.134201 -0.775034
v -6.111473 1.122926 -0.644045
v -6.111473 1.122926 -0.775034
v -6.209194 1.158286 -0.917140
v -6.205087 1.169561 -0.917140
v -6.107366 1.134201 -0.775034
v -6.205087 1.169562 -0.775034
v -6.107366 1.134201 -0.917141
v -6.205087 1.169561 -0.917140
v -6.111473 1.122925 -0.917141
v -6.107366 1.134201 -0.917141
v -6.209194 1.158286 -1.059246
v -6.205087 1.169561 -1.059246
v -6.107366 1.134201 -0.917141
v -6.205087 1.169561 -0.917140
v -6.107366 1.134201 -1.059247
v -6.205087 1.169561 -1.059246
v -6.111473 1.122925 -1.059247
v -6.107366 1.134201 -1.059247
v -6.107366 1.134201 -1.059247
v -6.205087 1.169561 -1.059246
v -6.107366 1.134201 -1.201353
v -6.205087 1.169561 -1.201353
v -6.117820 1.137984 -0.632928
v -6.194633 1.165779 -0.632927
v -6.107366 1.134201 -0.644045
v -6.205087 1.169562 -0.644045
v -6.111473 1.122925 -1.332342
v -6.107366 1.134201 -1.332342
v -6.121927 1.126708 -1.343460
v -6.117820 1.137984 -1.343460
v -6.121926 1.126708 -0.632928
v -6.117820 1.137984 -0.632928
v -6.111473 1.122926 -0.644045
v -6.107366 1.134201 -0.644045
v -6.198740 1.154503 -1.343459
v -6.194633 1.165779 -1.343459
v -6.209194 1.158286 -1.332342
v -6.205087 1.169561 -1.332342
v -6.209194 1.158286 -0.644045
v -6.205087 1.169562 -0.644045
v -6.198740 1.154503 -0.632927
v -6.194633 1.165779 -0.632927
v -6.205087 1.169562 -0.644045
v -6.205087 1.169562 -0.775034
v -6.107366 1.134201 -0.644045
v -6.107366 1.134201 -0.775034
v -6.205087 1.169561 -1.332342
v -6.194633 1.165779 -1.343459
v -6.107366 1.134201 -1.332342
v -6.117820 1.137984 -1.343460
vn -0.7001 -0.6532 0.2884
vn -0.7002 -0.6531 0.2883
vn -0.7002 -0.6531 0.2884
vn -0.6040 0.7570 0.2492
vn -0.6040 0.7570 0.2491
vn -0.6040 0.7570 0.2494
vn -0.6041 0.7570 0.2490
vn -0.6041 0.7570 0.2491
vn 0.3819 -0.0000 0.9242
vn 0.3821 -0.0000 0.9241
vn 0.3826 -0.0000 0.9239
vn 0.3818 -0.0000 0.9242
vn 0.6040 -0.7570 -0.2492
vn 0.6041 -0.7570 -0.2491
vn 0.6041 -0.7570 -0.2490
vn 0.6040 -0.7570 -0.2491
vn 0.6040 -0.7569 -0.2495
vn 0.6041 -0.7571 -0.2489
vn -0.3818 -0.0000 -0.9243
vn -0.3821 -0.0000 -0.9241
vn -0.3816 -0.0000 -0.9243
vn -0.7003 -0.6531 0.2882
vn -0.1548 0.5348 0.8307
vn -0.1548 0.5348 0.8306
vn -0.6980 0.5349 -0.4761
vn -0.6975 0.5352 -0.4765
vn -0.6978 0.5351 -0.4763
vn 0.6975 -0.5352 0.4765
vn 0.6979 -0.5350 0.4762
vn 0.1547 -0.5348 -0.8307
vn 0.1548 -0.5348 -0.8307
vn 0.1548 -0.5348 -0.8306
vn -0.3392 -0.9407 -0.0000
vn -0.3391 -0.9407 -0.0000
vn -0.3394 -0.9407 -0.0000
vn -0.9401 0.3409 -0.0000
vn -0.9401 0.3408 -0.0000
vn -0.9401 0.3410 -0.0000
vn -0.0000 -0.0000 1.0000
vn 0.9401 -0.3409 -0.0000
vn 0.9401 -0.3408 -0.0000
vn 0.9402 -0.3407 -0.0000
vn 0.9401 -0.3410 -0.0000
vn -0.0000 -0.0000 -1.0000
vn -0.3391 -0.9408 -0.0000
vn -0.3390 -0.9408 -0.0000
vn -0.3393 -0.9407 -0.0000
vn -0.3389 -0.9408 -0.0000
vn -0.6644 0.2412 0.7074
vn -0.6644 0.2413 0.7074
vn -0.6644 0.2414 0.7074
vn -0.6644 0.2411 -0.7074
vn -0.6644 0.2411 -0.7075
vn -0.6644 0.2412 -0.7074
vn 0.6644 -0.2411 0.7075
vn 0.6644 -0.2412 0.7074
vn 0.6644 -0.2414 0.7074
vn 0.6644 -0.2411 -0.7074
vn 0.6644 -0.2412 -0.7074
vn 0.6644 -0.2410 -0.7075
vt 0.329834 2.111328
vt 0.226196 2.111328
vt 0.226196 2.310547
vt 0.329834 2.310547
vt 0.240967 0.203125
vt 0.240967 0.020020
vt 0.232666 0.020020
vt 0.232666 0.203125
vt 0.240967 0.401855
vt 0.232666 0.401855
vt 0.240967 0.600586
vt 0.232666 0.600586
vt 0.240967 0.799316
vt 0.232666 0.799316
vt 0.232666 0.982468
vt 0.240967 0.982468
vt 0.346191 0.107422
vt 0.354492 0.100098
vt 0.279785 0.013672
vt 0.271484 0.020996
vt 0.246948 0.982452
vt 0.255371 0.982452
vt 0.255371 0.799316
vt 0.246948 0.799316
vt 0.246948 0.600586
vt 0.255371 0.600586
vt 0.246948 0.401855
vt 0.255371 0.401855
vt 0.246948 0.203125
vt 0.255371 0.203125
vt 0.246948 0.020020
vt 0.255371 0.020020
vt 0.379150 0.102539
vt 0.387695 0.109863
vt 0.462158 0.022949
vt 0.453857 0.016113
vt 0.338623 2.111328
vt 0.338623 2.310547
vt 0.234985 2.111328
vt 0.226196 2.132812
vt 0.226196 2.289062
vt 0.234985 2.310547
vt 0.232666 0.004395
vt 0.240967 0.004395
vt 0.464111 0.004395
vt 0.472412 0.011230
vt 0.261230 0.009277
vt 0.269775 0.001953
vt 0.369141 0.114258
vt 0.377441 0.121582
vt 0.338623 2.289062
vt 0.338623 2.132812
s 1
f 3/1/1 1/2/2 2/3/3
f 2/3/3 4/4/2 3/1/1
f 6/5/4 8/6/4 7/7/5
f 7/7/5 5/8/6 6/5/4
f 44/9/7 6/5/4 5/8/6
f 5/8/6 43/10/7 44/9/7
f 36/11/8 44/9/7 43/10/7
f 43/10/7 35/12/5 36/11/8
f 26/13/7 36/11/8 35/12/5
f 35/12/5 28/14/4 26/13/7
f 28/14/4 27/15/5 26/13/7
f 25/16/7 26/13/7 27/15/5
f 11/17/9 9/18/10 10/19/11
f 10/19/11 12/20/12 11/17/9
f 15/21/13 13/22/14 14/23/15
f 16/24/15 15/21/13 14/23/15
f 37/25/16 16/24/15 14/23/15
f 14/23/15 38/26/17 37/25/16
f 29/27/18 37/25/16 38/26/17
f 38/26/17 30/28/13 29/27/18
f 21/29/15 29/27/18 30/28/13
f 30/28/13 22/30/16 21/29/15
f 23/31/16 21/29/15 22/30/16
f 22/30/16 24/32/18 23/31/16
f 19/33/19 17/34/20 18/35/20
f 18/35/20 20/36/21 19/33/19
f 33/37/1 31/2/1 32/3/22
f 32/3/22 34/38/3 33/37/1
f 41/37/2 39/2/2 40/3/1
f 40/3/1 42/38/2 41/37/2
f 47/37/1 45/2/1 46/3/22
f 46/3/22 48/38/2 47/37/1
f 51/39/2 49/40/1 50/41/3
f 50/41/3 52/42/2 51/39/2
f 55/43/23 53/7/24 54/6/24
f 54/6/24 56/44/23 55/43/23
f 59/45/25 57/36/26 58/35/26
f 58/35/26 60/46/27 59/45/25
f 63/47/28 61/20/29 62/19/29
f 62/19/29 64/48/28 63/47/28
f 67/33/30 65/49/31 66/50/32
f 66/50/32 68/34/30 67/33/30
f 71/39/3 69/42/2 70/38/1
f 70/38/1 72/37/1 71/39/3
f 75/1/2 73/4/1 74/51/1
f 74/51/1 76/52/2 75/1/2
f 79/1/33 77/2/33 78/3/34
f 78/3/34 80/4/35 79/1/33
f 82/5/36 84/6/37 83/7/37
f 83/7/37 81/8/36 82/5/36
f 120/9/37 82/5/36 81/8/36
f 81/8/36 119/10/37 120/9/37
f 112/11/37 120/9/37 119/10/37
f 119/10/37 111/12/37 112/11/37
f 102/13/37 112/11/37 111/12/37
f 111/12/37 104/14/38 102/13/37
f 104/14/38 103/15/37 102/13/37
f 101/16/37 102/13/37 103/15/37
f 87/17/39 85/18/39 86/19/39
f 86/19/39 88/20/39 87/17/39
f 91/21/40 89/22/41 90/23/42
f 92/24/43 91/21/40 90/23/42
f 113/25/41 92/24/43 90/23/42
f 90/23/42 114/26/41 113/25/41
f 105/27/41 113/25/41 114/26/41
f 114/26/41 106/28/40 105/27/41
f 97/29/41 105/27/41 106/28/40
f 106/28/40 98/30/42 97/29/41
f 99/31/41 97/29/41 98/30/42
f 98/30/42 100/32/41 99/31/41
f 95/33/44 93/34/44 94/35/44
f 94/35/44 96/36/44 95/33/44
f 109/37/34 107/2/34 108/3/34
f 108/3/34 110/38/45 109/37/34
f 117/37/33 115/2/33 116/3/46
f 116/3/46 118/38/45 117/37/33
f 123/37/47 121/2/48 122/3/45
f 122/3/45 124/38/34 123/37/47
f 127/39/33 125/40/33 126/41/34
f 126/41/34 128/42/34 127/39/33
f 131/43/49 129/7/49 130/6/50
f 130/6/50 132/44/51 131/43/49
f 135/45/52 133/36/53 134/35/54
f 134/35/54 136/46/53 135/45/52
f 139/47/55 137/20/56 138/19/57
f 138/19/57 140/48/56 139/47/55
f 143/33/58 141/49/59 142/50/60
f 142/50/60 144/34/59 143/33/58
f 147/39/46 145/42/46 146/38/33
f 146/38/33 148/37/33 147/39/46
f 151/1/45 149/4/45 150/51/35
f 150/51/35 152/52/45 151/1/45
