# Blender 4.5.3 LTS
# www.blender.org
o w9a02_metal913mc
v -5.257883 0.149792 -1.527457
v -5.250259 0.139203 -1.514502
v -5.302366 0.149792 -1.509026
v -5.294743 0.139203 -1.496071
v -4.431654 0.149792 -3.522690
v -4.417104 0.139203 -3.526463
v -5.257883 0.149792 -1.527457
v -5.250259 0.139203 -1.514502
v -5.302366 0.149792 -1.509026
v -5.294743 0.139203 -1.496071
v -6.329708 0.149792 -1.934450
v -6.344259 0.139203 -1.930677
v -5.250294 -0.047239 -1.514418
v -5.294659 -0.047239 -1.496037
v -5.250259 0.139203 -1.514502
v -5.294743 0.139203 -1.496071
v -4.450085 0.149792 -3.567173
v -4.435534 0.139203 -3.570946
v -4.431654 0.149792 -3.522690
v -4.417104 0.139203 -3.526463
v -5.250259 0.139203 -1.514502
v -4.417104 0.139203 -3.526463
v -5.250294 -0.047239 -1.514418
v -4.417069 -0.047239 -3.526546
v -6.329708 0.149792 -1.934450
v -6.344259 0.139203 -1.930677
v -6.348138 0.149792 -1.978934
v -6.362689 0.139203 -1.975161
v -6.344259 0.139203 -1.930677
v -5.294743 0.139203 -1.496071
v -6.344342 -0.047239 -1.930712
v -5.294659 -0.047239 -1.496037
v -5.477427 0.149792 -3.992597
v -5.485050 0.139203 -4.005552
v -4.450085 0.149792 -3.567173
v -4.435534 0.139203 -3.570946
v -4.435450 -0.047239 -3.570911
v -4.417069 -0.047239 -3.526546
v -4.435534 0.139203 -3.570946
v -4.417104 0.139203 -3.526463
v -6.348138 0.149792 -1.978934
v -6.362689 0.139203 -1.975161
v -5.521911 0.149792 -3.974166
v -5.529534 0.139203 -3.987121
v -6.344342 -0.047239 -1.930712
v -6.362724 -0.047239 -1.975077
v -6.344259 0.139203 -1.930677
v -6.362689 0.139203 -1.975161
v -5.521911 0.149792 -3.974166
v -5.529534 0.139203 -3.987121
v -5.477427 0.149792 -3.992597
v -5.485050 0.139203 -4.005552
v -4.435534 0.139203 -3.570946
v -5.485050 0.139203 -4.005552
v -4.435450 -0.047239 -3.570911
v -5.485134 -0.047239 -4.005587
v -5.485050 0.139203 -4.005552
v -5.529534 0.139203 -3.987121
v -5.485134 -0.047239 -4.005587
v -5.529499 -0.047239 -3.987205
v -5.529534 0.139203 -3.987121
v -6.362689 0.139203 -1.975161
v -5.529499 -0.047239 -3.987205
v -6.362724 -0.047239 -1.975077
v -6.352309 -0.086028 -1.923889
v -6.370833 -0.086028 -1.968599
v -6.352294 -0.050772 -1.923883
v -6.370827 -0.050772 -1.968613
v -5.293863 -0.050772 -1.485586
v -5.293848 -0.086027 -1.485579
v -6.352294 -0.050772 -1.923883
v -6.352309 -0.086028 -1.923889
v -5.249139 -0.086027 -1.504104
v -5.293848 -0.086027 -1.485579
v -5.249133 -0.050772 -1.504118
v -5.293863 -0.050772 -1.485586
v -4.408966 -0.050773 -3.533010
v -4.408960 -0.086028 -3.533025
v -5.249133 -0.050772 -1.504118
v -5.249139 -0.086027 -1.504104
v -4.427484 -0.086028 -3.577734
v -4.408960 -0.086028 -3.533025
v -4.427499 -0.050773 -3.577740
v -4.408966 -0.050773 -3.533010
v -5.485930 -0.050773 -4.016038
v -5.485945 -0.086028 -4.016044
v -4.427499 -0.050773 -3.577740
v -4.427484 -0.086028 -3.577734
v -5.530660 -0.050773 -3.997505
v -5.530654 -0.086028 -3.997520
v -5.485930 -0.050773 -4.016038
v -5.485945 -0.086028 -4.016044
v -6.370827 -0.050772 -1.968613
v -6.370833 -0.086028 -1.968599
v -5.530660 -0.050773 -3.997505
v -5.530654 -0.086028 -3.997520
v -5.485134 -0.047239 -4.005587
v -5.485930 -0.050773 -4.016038
v -4.435450 -0.047239 -3.570911
v -4.427499 -0.050773 -3.577740
v -4.408966 -0.050773 -3.533010
v -4.417069 -0.047239 -3.526546
v -4.427499 -0.050773 -3.577740
v -4.435450 -0.047239 -3.570911
v -4.417069 -0.047239 -3.526546
v -4.408966 -0.050773 -3.533010
v -5.250294 -0.047239 -1.514418
v -5.249133 -0.050772 -1.504118
v -5.293863 -0.050772 -1.485586
v -5.294659 -0.047239 -1.496037
v -5.249133 -0.050772 -1.504118
v -5.250294 -0.047239 -1.514418
v -5.294659 -0.047239 -1.496037
v -5.293863 -0.050772 -1.485586
v -6.344342 -0.047239 -1.930712
v -6.352294 -0.050772 -1.923883
v -6.370827 -0.050772 -1.968613
v -6.362724 -0.047239 -1.975077
v -6.352294 -0.050772 -1.923883
v -6.344342 -0.047239 -1.930712
v -6.362724 -0.047239 -1.975077
v -6.370827 -0.050772 -1.968613
v -5.529499 -0.047239 -3.987205
v -5.530660 -0.050773 -3.997505
v -5.529499 -0.047239 -3.987205
v -5.530660 -0.050773 -3.997505
v -5.485134 -0.047239 -4.005587
v -5.485930 -0.050773 -4.016038
vn -0.2213 -0.8154 -0.5349
vn -0.2215 -0.8153 -0.5351
vn -0.2214 -0.8154 -0.5350
vn -0.2219 -0.8149 -0.5355
vn -0.6113 -0.7498 -0.2532
vn -0.6110 -0.7502 -0.2526
vn -0.6111 -0.7502 -0.2527
vn -0.6111 -0.7501 -0.2527
vn 0.2901 -0.6508 -0.7017
vn 0.2901 -0.6507 -0.7017
vn 0.2900 -0.6508 -0.7017
vn -0.3818 -0.0000 -0.9242
vn -0.3819 -0.0000 -0.9242
vn -0.3818 -0.0000 -0.9243
vn -0.5350 -0.8153 0.2214
vn -0.5350 -0.8153 0.2215
vn -0.9241 -0.0000 -0.3822
vn -0.9242 -0.0000 -0.3819
vn 0.5351 -0.8152 -0.2216
vn 0.5349 -0.8154 -0.2214
vn 0.5352 -0.8151 -0.2216
vn 0.3818 -0.0000 -0.9242
vn 0.3818 -0.0000 -0.9243
vn 0.3820 -0.0000 -0.9242
vn -0.2900 -0.6509 0.7016
vn -0.2901 -0.6508 0.7017
vn -0.2901 -0.6507 0.7017
vn -0.9242 -0.0000 0.3820
vn -0.9243 -0.0000 0.3817
vn -0.9242 -0.0000 0.3819
vn -0.9242 -0.0001 0.3820
vn 0.6110 -0.7503 0.2525
vn 0.6111 -0.7502 0.2526
vn 0.6111 -0.7501 0.2528
vn 0.9242 -0.0000 -0.3818
vn 0.9242 -0.0001 -0.3820
vn 0.2213 -0.8155 0.5348
vn 0.2215 -0.8152 0.5351
vn 0.2214 -0.8154 0.5350
vn -0.3817 -0.0000 0.9243
vn -0.3820 -0.0000 0.9242
vn -0.3818 -0.0000 0.9243
vn 0.3819 -0.0000 0.9242
vn 0.3818 -0.0000 0.9242
vn 0.3817 -0.0000 0.9243
vn 0.9241 -0.0000 0.3822
vn 0.9242 -0.0000 0.3820
vn 0.9243 -0.0000 0.3818
vn 0.9242 -0.0000 -0.3819
vn -0.3822 -0.0001 -0.9241
vn -0.3817 -0.0000 -0.9243
vn -0.9243 -0.0000 -0.3817
vn -0.9243 -0.0000 0.3818
vn -0.9242 -0.0000 0.3818
vn -0.3819 -0.0000 0.9242
vn -0.3818 -0.0000 0.9242
vn 0.9242 -0.0000 0.3818
vn -0.1351 -0.9360 0.3250
vn -0.1351 -0.9360 0.3252
vn -0.3078 -0.9429 0.1274
vn -0.3079 -0.9428 0.1275
vn -0.5316 -0.8180 -0.2197
vn -0.1274 -0.9429 -0.3077
vn -0.1274 -0.9429 -0.3078
vn -0.1275 -0.9428 -0.3079
vn 0.1351 -0.9360 -0.3251
vn 0.1351 -0.9360 -0.3250
vn 0.1351 -0.9359 -0.3252
vn 0.3079 -0.9429 -0.1275
vn 0.3079 -0.9428 -0.1275
vn 0.3077 -0.9429 -0.1274
vn 0.5316 -0.8180 0.2197
vn 0.5317 -0.8179 0.2198
vn 0.1275 -0.9428 0.3080
vn 0.1274 -0.9429 0.3077
vn 0.1274 -0.9429 0.3078
vt -0.007778 -2.867188
vt 0.029388 -2.867188
vt 0.023285 -2.875000
vt 0.000308 -2.875000
vt 1.491211 -2.867188
vt 1.491211 -2.875000
vt -0.756836 -2.867188
vt -0.765137 -2.875000
vt 0.023254 -3.000000
vt 0.000369 -3.000000
vt 1.513672 -2.867188
vt 1.513672 -2.875000
vt 1.491211 -3.000000
vt -0.794434 -2.867188
vt -0.788086 -2.875000
vt -0.765137 -3.000000
vt 2.279297 -2.867188
vt 2.279297 -2.875000
vt 1.513672 -3.000000
vt -2.255859 -2.867188
vt -2.255859 -2.875000
vt -0.788086 -3.000000
vt -2.279297 -2.867188
vt -2.279297 -2.875000
vt 2.279297 -3.000000
vt -2.279297 -3.000000
vt -2.255859 -3.000000
vt -0.765137 -3.003906
vt -0.765137 -3.027344
vt -0.788086 -3.027344
vt -0.788086 -3.003906
vt 0.000371 -3.003906
vt 0.000382 -3.027344
vt 0.023254 -3.003906
vt 0.023254 -3.027344
vt 1.491211 -3.003906
vt 1.491211 -3.027344
vt 1.513672 -3.003906
vt 1.513672 -3.027344
vt 2.279297 -3.003906
vt 2.279297 -3.027344
vt -2.279297 -3.003906
vt -2.255859 -3.003906
vt -2.255859 -3.027344
vt -2.279297 -3.027344
s 1
f 3/1/1 1/2/2 2/3/3
f 2/3/3 4/4/4 3/1/1
f 7/2/5 5/5/6 6/6/7
f 6/6/7 8/3/8 7/2/5
f 11/7/9 9/1/10 10/4/11
f 10/4/11 12/8/10 11/7/9
f 15/3/12 13/9/13 14/10/14
f 14/10/14 16/4/13 15/3/12
f 19/5/15 17/11/16 18/12/15
f 18/12/15 20/6/15 19/5/15
f 23/9/17 21/3/18 22/6/18
f 22/6/18 24/13/17 23/9/17
f 27/14/19 25/7/20 26/8/19
f 26/8/19 28/15/21 27/14/19
f 31/16/22 29/8/23 30/4/24
f 30/4/24 32/10/24 31/16/22
f 35/11/25 33/17/25 34/18/26
f 34/18/26 36/12/27 35/11/25
f 39/12/28 37/19/29 38/13/30
f 38/13/30 40/6/31 39/12/28
f 43/20/32 41/14/33 42/15/34
f 42/15/34 44/21/34 43/20/32
f 47/8/35 45/16/36 46/22/35
f 46/22/35 48/15/36 47/8/35
f 51/23/37 49/20/38 50/21/39
f 50/21/39 52/24/37 51/23/37
f 55/19/40 53/12/41 54/18/41
f 54/18/41 56/25/42 55/19/40
f 59/26/43 57/24/43 58/21/44
f 58/21/44 60/27/45 59/26/43
f 63/27/46 61/21/47 62/15/46
f 62/15/46 64/22/48 63/27/46
f 67/28/49 65/29/35 66/30/35
f 66/30/35 68/31/35 67/28/49
f 71/28/22 69/32/24 70/33/24
f 70/33/24 72/29/24 71/28/22
f 75/34/12 73/35/50 74/33/13
f 74/33/13 76/32/51 75/34/12
f 79/34/18 77/36/52 78/37/18
f 78/37/18 80/35/17 79/34/18
f 83/38/53 81/39/54 82/37/28
f 82/37/28 84/36/30 83/38/53
f 87/38/55 85/40/56 86/41/56
f 86/41/56 88/39/41 87/38/55
f 91/42/44 89/43/44 90/44/44
f 90/44/44 92/45/43 91/42/44
f 95/43/57 93/31/57 94/30/47
f 94/30/47 96/44/48 95/43/57
f 99/19/58 97/25/59 98/40/59
f 98/40/59 100/38/58 99/19/58
f 103/38/60 101/36/61 102/13/61
f 102/13/61 104/19/61 103/38/60
f 107/9/62 105/13/62 106/36/62
f 106/36/62 108/34/62 107/9/62
f 111/34/63 109/32/63 110/10/64
f 110/10/64 112/9/65 111/34/63
f 115/16/66 113/10/67 114/32/66
f 114/32/66 116/28/68 115/16/66
f 119/28/69 117/31/70 118/22/70
f 118/22/70 120/16/71 119/28/69
f 123/27/72 121/22/73 122/31/72
f 122/31/72 124/43/72 123/27/72
f 127/26/74 125/27/75 126/43/75
f 126/43/75 128/42/76 127/26/74
