# Blender 5.1.0
# www.blender.org
o w9a02_concrete03
v -8.000000 0.000000 -5.969171
v -8.000000 0.000000 -9.498404
v 6.873804 0.000000 -5.969171
v 6.873731 0.000000 -9.498404
v 6.873804 0.000000 -5.969171
v 6.873731 0.000000 -9.498404
v 6.941364 -0.028754 -5.969171
v 6.941290 -0.028754 -9.498404
v -8.000000 -0.000001 18.214584
v -8.000000 0.000000 -4.860410
v 6.874002 -0.000001 18.058628
v 6.873828 0.000000 -4.860410
v 6.874002 -0.000001 18.058628
v 6.873828 0.000000 -4.860410
v 6.941557 -0.028755 18.057560
v 6.941387 -0.028754 -4.841389
v -8.000000 0.000000 -4.860410
v -8.000000 -0.016780 -4.902442
v 6.873828 0.000000 -4.860410
v 6.873827 -0.016780 -4.902442
v 6.873828 0.000000 -4.860410
v 6.873827 -0.016780 -4.902442
v 6.941387 -0.028754 -4.841389
v 6.941386 -0.028754 -4.902442
v -8.000000 0.000000 -5.497936
v -8.000000 0.000000 -5.622979
v 6.873815 0.000000 -5.497936
v 6.873811 0.000000 -5.622979
v 6.873815 0.000000 -5.497936
v 6.873811 0.000000 -5.622979
v 6.941373 -0.028754 -5.502944
v 6.941370 -0.028754 -5.622979
v -8.000000 -0.014699 -5.936112
v -8.000000 0.000000 -5.969171
v 6.873805 -0.014699 -5.936112
v 6.873804 0.000000 -5.969171
v 6.873805 -0.014699 -5.936112
v 6.873804 0.000000 -5.969171
v 6.941364 -0.028754 -5.936112
v 6.941364 -0.028754 -5.969171
v -8.000000 -0.038558 -5.451873
v -8.000000 0.000000 -5.497936
v 6.873815 -0.038558 -5.451873
v 6.873815 0.000000 -5.497936
v 6.873815 -0.038558 -5.451873
v 6.873815 0.000000 -5.497936
v 6.941374 -0.028754 -5.451873
v 6.941373 -0.028754 -5.502944
v -8.000000 0.000000 -5.622979
v -8.000000 -0.014699 -5.664480
v 6.873811 0.000000 -5.622979
v 6.873811 -0.014699 -5.664480
v 6.873811 0.000000 -5.622979
v 6.873811 -0.014699 -5.664480
v 6.941370 -0.028754 -5.622979
v 6.941370 -0.028754 -5.664478
v 7.810033 -0.000000 6.426259
v 7.809907 0.000000 -9.498404
v 12.460571 -0.000000 6.376647
v 12.460571 0.000000 -9.498404
v 7.782538 -0.020443 6.426553
v 7.782413 -0.020442 -9.498404
v 7.810033 -0.000000 6.426259
v 7.809907 0.000000 -9.498404
v -5.025199 -0.000001 18.183393
v -2.050399 -0.000001 18.152203
v 0.924402 -0.000001 18.121012
v 3.899202 -0.000001 18.089821
v -5.025199 0.000000 -0.276602
v -2.050399 -0.000000 4.307205
v 0.924402 -0.000000 8.891013
v 3.899202 -0.000001 13.474821
v -8.000000 -0.000001 13.599585
v -8.000000 -0.000000 8.984586
v -8.000000 -0.000000 4.369587
v -8.000000 0.000000 -0.245412
v -5.025234 0.000000 -4.860410
v -2.050468 0.000000 -4.860410
v 0.924297 0.000000 -4.860410
v 3.899063 0.000000 -4.860410
v 6.873967 -0.000001 13.474820
v 6.873932 -0.000000 8.891012
v 6.873898 -0.000000 4.307204
v 6.873863 0.000000 -0.276603
v 3.899097 0.000000 -0.276603
v 0.924332 0.000000 -0.276602
v 3.899132 -0.000000 4.307205
v -2.050434 0.000000 -0.276603
v 0.924367 -0.000000 4.307205
v 3.899167 -0.000000 8.891012
v -5.025200 -0.000001 13.568394
v -2.050399 -0.000001 13.537203
v -5.025200 -0.000000 8.953395
v 0.924401 -0.000001 13.506013
v -2.050399 -0.000000 8.922205
v -5.025200 -0.000000 4.338397
vn -0.0000 1.0000 -0.0000
vn 0.3916 0.9201 -0.0000
vn -0.0000 0.9289 -0.3702
vn -0.0000 0.9289 -0.3703
vn -0.0000 0.9287 -0.3708
vn 0.3037 0.9404 -0.1528
vn 0.3037 0.9404 -0.1529
vn 0.3036 0.9405 -0.1528
vn -0.0000 0.9139 0.4059
vn -0.0000 0.9137 0.4063
vn 0.2941 0.9333 0.2059
vn 0.2941 0.9333 0.2058
vn -0.0000 0.7670 0.6416
vn -0.0000 0.7671 0.6415
vn 0.1410 0.9205 0.3643
vn 0.1411 0.9205 0.3643
vn -0.0000 0.9428 -0.3334
vn -0.0000 0.9428 -0.3332
vn 0.2977 0.9400 -0.1665
vn 0.2977 0.9400 -0.1664
vn -0.5956 0.8033 -0.0000
vt -0.372559 -0.681641
vt 2.070312 -1.267578
vt 2.070312 -0.681641
vt -0.372559 -1.267578
vt -0.384521 -0.681641
vt -0.384521 -1.267578
vt -0.372559 2.999023
vt 0.116016 2.300391
vt 0.116016 3.000000
vt 2.070312 -0.494141
vt 1.581738 0.204492
vt 1.581738 -0.494141
vt -0.384521 2.998047
vt -0.372559 -0.494141
vt -0.384521 -0.494141
vt 2.070312 -0.503906
vt -0.372559 -0.503906
vt -0.384521 -0.503906
vt -0.372559 -0.603516
vt 2.070312 -0.624023
vt 2.070312 -0.603516
vt -0.372559 -0.624023
vt -0.384521 -0.603516
vt -0.384521 -0.624023
vt -0.372559 -0.675781
vt 2.070312 -0.675781
vt -0.384521 -0.675781
vt -0.372559 -0.595703
vt 2.070312 -0.595703
vt -0.384521 -0.595703
vt 2.070312 -0.630859
vt -0.372559 -0.630859
vt -0.384521 -0.630859
vt -1.290039 1.187134
vt -0.526367 -1.267578
vt -0.526367 1.191284
vt -1.290039 -1.267578
vt -0.521973 -1.267578
vt -0.521973 1.191284
vt 0.116016 -0.494141
vt -0.372559 0.204492
vt 0.604590 -0.494141
vt 0.116016 0.204492
vt 1.093164 -0.494141
vt 0.604590 0.204492
vt 1.093164 0.204492
vt -0.372559 0.903125
vt 0.116016 0.903125
vt -0.372559 1.601758
vt 0.604590 0.903125
vt 0.116016 1.601758
vt -0.372559 2.300391
vt 1.093164 0.903125
vt 0.604590 1.601758
vt 1.581738 3.002930
vt 2.070312 2.304297
vt 2.070312 3.003906
vt 1.093164 3.001953
vt 1.581738 2.303320
vt 0.604590 3.000977
vt 1.093164 2.302344
vt 0.604590 2.301367
vt 2.070312 1.604688
vt 1.581738 1.603711
vt 2.070312 0.905078
vt 1.093164 1.602734
vt 1.581738 0.904102
vt 2.070312 0.205469
s 1
f 3/1/1 2/2/1 1/3/1
f 2/2/1 3/1/1 4/4/1
f 7/5/2 6/4/2 5/1/2
f 6/4/2 7/5/2 8/6/2
f 11/7/1 72/8/1 68/9/1
f 10/10/1 69/11/1 77/12/1
f 15/13/2 14/14/2 13/7/2
f 14/14/2 15/13/2 16/15/2
f 19/14/3 18/16/4 17/10/4
f 18/16/4 19/14/3 20/17/5
f 23/15/6 22/17/6 21/14/7
f 22/17/6 23/15/6 24/18/8
f 27/19/1 26/20/1 25/21/1
f 26/20/1 27/19/1 28/22/1
f 31/23/2 30/22/2 29/19/2
f 30/22/2 31/23/2 32/24/2
f 35/25/9 34/3/9 33/26/10
f 34/3/9 35/25/9 36/1/9
f 39/27/11 38/1/11 37/25/11
f 38/1/11 39/27/11 40/5/12
f 43/28/13 42/21/13 41/29/14
f 42/21/13 43/28/13 44/19/14
f 47/30/15 46/19/15 45/28/15
f 46/19/15 47/30/15 48/23/16
f 51/22/17 50/31/18 49/20/17
f 50/31/18 51/22/17 52/32/17
f 55/24/19 54/32/19 53/22/19
f 54/32/19 55/24/19 56/33/20
f 59/34/1 58/35/1 57/36/1
f 58/35/1 59/34/1 60/37/1
f 63/36/21 62/38/21 61/39/21
f 62/38/21 63/36/21 64/35/21
f 80/40/1 84/41/1 12/14/1
f 79/42/1 85/43/1 80/40/1
f 78/44/1 86/45/1 79/42/1
f 77/12/1 88/46/1 78/44/1
f 80/40/1 85/43/1 84/41/1
f 85/43/1 83/47/1 84/41/1
f 79/42/1 86/45/1 85/43/1
f 86/45/1 87/48/1 85/43/1
f 85/43/1 87/48/1 83/47/1
f 87/48/1 82/49/1 83/47/1
f 78/44/1 88/46/1 86/45/1
f 88/46/1 89/50/1 86/45/1
f 86/45/1 89/50/1 87/48/1
f 89/50/1 90/51/1 87/48/1
f 87/48/1 90/51/1 82/49/1
f 90/51/1 81/52/1 82/49/1
f 77/12/1 69/11/1 88/46/1
f 69/11/1 70/53/1 88/46/1
f 88/46/1 70/53/1 89/50/1
f 70/53/1 71/54/1 89/50/1
f 89/50/1 71/54/1 90/51/1
f 71/54/1 72/8/1 90/51/1
f 90/51/1 72/8/1 81/52/1
f 72/8/1 11/7/1 81/52/1
f 65/55/1 73/56/1 9/57/1
f 66/58/1 91/59/1 65/55/1
f 67/60/1 92/61/1 66/58/1
f 68/9/1 94/62/1 67/60/1
f 65/55/1 91/59/1 73/56/1
f 91/59/1 74/63/1 73/56/1
f 66/58/1 92/61/1 91/59/1
f 92/61/1 93/64/1 91/59/1
f 91/59/1 93/64/1 74/63/1
f 93/64/1 75/65/1 74/63/1
f 67/60/1 94/62/1 92/61/1
f 94/62/1 95/66/1 92/61/1
f 92/61/1 95/66/1 93/64/1
f 95/66/1 96/67/1 93/64/1
f 93/64/1 96/67/1 75/65/1
f 96/67/1 76/68/1 75/65/1
f 68/9/1 72/8/1 94/62/1
f 72/8/1 71/54/1 94/62/1
f 94/62/1 71/54/1 95/66/1
f 71/54/1 70/53/1 95/66/1
f 95/66/1 70/53/1 96/67/1
f 70/53/1 69/11/1 96/67/1
f 96/67/1 69/11/1 76/68/1
f 69/11/1 10/10/1 76/68/1
