# Blender 4.5.3 LTS
# www.blender.org
o w9a02_metal02
v 7.596869 7.440468 -2.037014
v -7.513446 7.440468 -2.037014
v 7.596869 7.480467 -2.037014
v -7.513446 7.480467 -2.037014
v 7.596869 7.440468 -2.101041
v -7.513446 7.440468 -2.101041
v 7.596869 7.440468 -2.037014
v -7.513446 7.440468 -2.037014
v 7.596869 7.440468 -2.101041
v 7.596869 7.033623 -2.101041
v -7.513446 7.440468 -2.101041
v -7.513446 7.033623 -2.101041
v 7.596869 7.033623 -2.037014
v 7.596869 6.993623 -2.037014
v -7.513446 7.033623 -2.037014
v -7.513446 6.993623 -2.037014
v 7.596869 7.033623 -2.101041
v 7.596869 7.033623 -2.037014
v -7.513446 7.033623 -2.101041
v -7.513446 7.033623 -2.037014
v 7.596869 7.440468 -2.491784
v 7.596869 7.480467 -2.491784
v -7.513446 7.440468 -2.491784
v -7.513446 7.480467 -2.491784
v 7.596869 7.440468 -2.427756
v 7.596869 7.440468 -2.491784
v -7.513446 7.440468 -2.427756
v -7.513446 7.440468 -2.491784
v 7.596869 7.440468 -2.427756
v -7.513446 7.440468 -2.427756
v 7.596869 7.033623 -2.427756
v -7.513446 7.033623 -2.427756
v 7.596869 7.033623 -2.491784
v -7.513446 7.033623 -2.491784
v 7.596869 6.993623 -2.491784
v -7.513446 6.993623 -2.491784
v 7.596869 7.033623 -2.427756
v -7.513446 7.033623 -2.427756
v 7.596869 7.033623 -2.491784
v -7.513446 7.033623 -2.491784
v 7.596869 6.993623 -2.491784
v -7.513446 6.993623 -2.491784
v 7.596869 6.993623 -2.037014
v -7.513446 6.993623 -2.037014
v 7.596869 7.440468 2.727718
v -7.513446 7.440468 2.727718
v 7.596869 7.480467 2.727718
v -7.513446 7.480467 2.727718
v 7.596869 7.440468 2.663690
v -7.513446 7.440468 2.663690
v 7.596869 7.440468 2.727718
v -7.513446 7.440468 2.727718
v 7.596869 7.440468 2.663690
v 7.596869 7.033623 2.663690
v -7.513446 7.440468 2.663690
v -7.513446 7.033623 2.663690
v 7.596869 7.033623 2.727718
v 7.596869 6.993623 2.727718
v -7.513446 7.033623 2.727718
v -7.513446 6.993623 2.727718
v 7.596869 7.033623 2.663690
v 7.596869 7.033623 2.727718
v -7.513446 7.033623 2.663690
v -7.513446 7.033623 2.727718
v 7.596869 7.440468 2.272948
v 7.596869 7.480467 2.272948
v -7.513446 7.440468 2.272948
v -7.513446 7.480467 2.272948
v 7.596869 7.440468 2.336976
v 7.596869 7.440468 2.272948
v -7.513446 7.440468 2.336976
v -7.513446 7.440468 2.272948
v 7.596869 7.440468 2.336976
v -7.513446 7.440468 2.336976
v 7.596869 7.033623 2.336976
v -7.513446 7.033623 2.336976
v 7.596869 7.033623 2.272948
v -7.513446 7.033623 2.272948
v 7.596869 6.993623 2.272948
v -7.513446 6.993623 2.272948
v 7.596869 7.033623 2.336976
v -7.513446 7.033623 2.336976
v 7.596869 7.033623 2.272948
v -7.513446 7.033623 2.272948
v 7.596869 6.993623 2.272948
v -7.513446 6.993623 2.272948
v 7.596869 6.993623 2.727718
v -7.513446 6.993623 2.727718
v 7.596869 7.440468 6.019536
v -7.513446 7.440468 6.019536
v 7.596869 7.480468 6.019536
v -7.513446 7.480468 6.019536
v 7.596869 7.440468 5.955508
v -7.513446 7.440468 5.955508
v 7.596869 7.440468 6.019536
v -7.513446 7.440468 6.019536
v 7.596869 7.440468 5.955508
v 7.596869 7.033623 5.955508
v -7.513446 7.440468 5.955508
v -7.513446 7.033623 5.955508
v 7.596869 7.033623 6.019536
v 7.596869 6.993623 6.019536
v -7.513446 7.033623 6.019536
v -7.513446 6.993623 6.019536
v 7.596869 7.033623 5.955508
v 7.596869 7.033623 6.019536
v -7.513446 7.033623 5.955508
v -7.513446 7.033623 6.019536
v 7.596869 7.440468 5.564766
v 7.596869 7.480468 5.564766
v -7.513446 7.440468 5.564766
v -7.513446 7.480468 5.564766
v 7.596869 7.440468 5.628794
v 7.596869 7.440468 5.564766
v -7.513446 7.440468 5.628794
v -7.513446 7.440468 5.564766
v 7.596869 7.440468 5.628794
v -7.513446 7.440468 5.628794
v 7.596869 7.033623 5.628794
v -7.513446 7.033623 5.628794
v 7.596869 7.033623 5.564766
v -7.513446 7.033623 5.564766
v 7.596869 6.993623 5.564766
v -7.513446 6.993623 5.564766
v 7.596869 7.033623 5.628794
v -7.513446 7.033623 5.628794
v 7.596869 7.033623 5.564766
v -7.513446 7.033623 5.564766
v 7.596869 6.993623 5.564766
v -7.513446 6.993623 5.564766
v 7.596869 6.993623 6.019536
v -7.513446 6.993623 6.019536
v 7.596869 7.440469 9.475824
v -7.513446 7.440469 9.475824
v 7.596869 7.480468 9.475824
v -7.513446 7.480468 9.475824
v 7.596869 7.440468 9.411796
v -7.513446 7.440468 9.411796
v 7.596869 7.440469 9.475824
v -7.513446 7.440469 9.475824
v 7.596869 7.440468 9.411796
v 7.596869 7.033623 9.411796
v -7.513446 7.440468 9.411796
v -7.513446 7.033623 9.411796
v 7.596869 7.033624 9.475824
v 7.596869 6.993624 9.475824
v -7.513446 7.033624 9.475824
v -7.513446 6.993624 9.475824
v 7.596869 7.033623 9.411796
v 7.596869 7.033624 9.475824
v -7.513446 7.033623 9.411796
v -7.513446 7.033624 9.475824
v 7.596869 7.440468 9.021054
v 7.596869 7.480468 9.021054
v -7.513446 7.440468 9.021054
v -7.513446 7.480468 9.021054
v 7.596869 7.440468 9.085082
v 7.596869 7.440468 9.021054
v -7.513446 7.440468 9.085082
v -7.513446 7.440468 9.021054
v 7.596869 7.440468 9.085082
v -7.513446 7.440468 9.085082
v 7.596869 7.033623 9.085082
v -7.513446 7.033623 9.085082
v 7.596869 7.033623 9.021054
v -7.513446 7.033623 9.021054
v 7.596869 6.993623 9.021054
v -7.513446 6.993623 9.021054
v 7.596869 7.033623 9.085082
v -7.513446 7.033623 9.085082
v 7.596869 7.033623 9.021054
v -7.513446 7.033623 9.021054
v 7.596869 6.993623 9.021054
v -7.513446 6.993623 9.021054
v 7.596869 6.993624 9.475824
v -7.513446 6.993624 9.475824
v 7.596869 7.440469 14.140909
v -7.513446 7.440469 14.140909
v 7.596869 7.480468 14.140909
v -7.513446 7.480468 14.140909
v 7.596869 7.440469 14.076882
v -7.513446 7.440469 14.076882
v 7.596869 7.440469 14.140909
v -7.513446 7.440469 14.140909
v 7.596869 7.440469 14.076882
v 7.596869 7.033624 14.076882
v -7.513446 7.440469 14.076882
v -7.513446 7.033624 14.076882
v 7.596869 7.033624 14.140909
v 7.596869 6.993624 14.140909
v -7.513446 7.033624 14.140909
v -7.513446 6.993624 14.140909
v 7.596869 7.033624 14.076882
v 7.596869 7.033624 14.140909
v -7.513446 7.033624 14.076882
v -7.513446 7.033624 14.140909
v 7.596869 7.440469 13.686140
v 7.596869 7.480468 13.686140
v -7.513446 7.440469 13.686140
v -7.513446 7.480468 13.686140
v 7.596869 7.440469 13.750167
v 7.596869 7.440469 13.686140
v -7.513446 7.440469 13.750167
v -7.513446 7.440469 13.686140
v 7.596869 7.440469 13.750167
v -7.513446 7.440469 13.750167
v 7.596869 7.033624 13.750167
v -7.513446 7.033624 13.750167
v 7.596869 7.033624 13.686140
v -7.513446 7.033624 13.686140
v 7.596869 6.993624 13.686140
v -7.513446 6.993624 13.686140
v 7.596869 7.033624 13.750167
v -7.513446 7.033624 13.750167
v 7.596869 7.033624 13.686140
v -7.513446 7.033624 13.686140
v 7.596869 6.993624 13.686140
v -7.513446 6.993624 13.686140
v 7.596869 6.993624 14.140909
v -7.513446 6.993624 14.140909
v 4.751058 7.352052 17.966825
v 4.751058 7.352050 -6.382524
v 4.751058 7.374666 17.966825
v 4.751058 7.374664 -6.382524
v 4.787256 7.352052 17.966825
v 4.787256 7.352050 -6.382524
v 4.751058 7.352052 17.966825
v 4.751058 7.352050 -6.382524
v 4.787256 7.352052 17.966825
v 4.787256 7.122041 17.966825
v 4.787256 7.352050 -6.382524
v 4.787256 7.122039 -6.382524
v 4.751058 7.122041 17.966825
v 4.751058 7.099427 17.966825
v 4.751058 7.122039 -6.382524
v 4.751058 7.099425 -6.382524
v 4.787256 7.122041 17.966825
v 4.751058 7.122041 17.966825
v 4.787256 7.122039 -6.382524
v 4.751058 7.122039 -6.382524
v 5.008163 7.352052 17.966825
v 5.008163 7.374666 17.966825
v 5.008163 7.352050 -6.382524
v 5.008163 7.374664 -6.382524
v 4.971964 7.352052 17.966825
v 5.008163 7.352052 17.966825
v 4.971964 7.352050 -6.382524
v 5.008163 7.352050 -6.382524
v 4.971964 7.352052 17.966825
v 4.971964 7.352050 -6.382524
v 4.971964 7.122041 17.966825
v 4.971964 7.122039 -6.382524
v 5.008163 7.122041 17.966825
v 5.008163 7.122039 -6.382524
v 5.008163 7.099427 17.966825
v 5.008163 7.099425 -6.382524
v 4.971964 7.122041 17.966825
v 4.971964 7.122039 -6.382524
v 5.008163 7.122041 17.966825
v 5.008163 7.122039 -6.382524
v 5.008163 7.099427 17.966825
v 5.008163 7.099425 -6.382524
v 4.751058 7.099427 17.966825
v 4.751058 7.099425 -6.382524
v 1.785176 7.352052 17.966825
v 1.785176 7.352050 -6.382524
v 1.785176 7.374666 17.966825
v 1.785176 7.374664 -6.382524
v 1.821375 7.352052 17.966825
v 1.821375 7.352050 -6.382524
v 1.785176 7.352052 17.966825
v 1.785176 7.352050 -6.382524
v 1.821375 7.352052 17.966825
v 1.821375 7.122041 17.966825
v 1.821375 7.352050 -6.382524
v 1.821375 7.122039 -6.382524
v 1.785176 7.122041 17.966825
v 1.785176 7.099427 17.966825
v 1.785176 7.122039 -6.382524
v 1.785176 7.099425 -6.382524
v 1.821375 7.122041 17.966825
v 1.785176 7.122041 17.966825
v 1.821375 7.122039 -6.382524
v 1.785176 7.122039 -6.382524
v 2.042282 7.352052 17.966825
v 2.042282 7.374666 17.966825
v 2.042282 7.352050 -6.382524
v 2.042282 7.374664 -6.382524
v 2.006083 7.352052 17.966825
v 2.042282 7.352052 17.966825
v 2.006083 7.352050 -6.382524
v 2.042282 7.352050 -6.382524
v 2.006083 7.352052 17.966825
v 2.006083 7.352050 -6.382524
v 2.006083 7.122041 17.966825
v 2.006083 7.122039 -6.382524
v 2.042282 7.122041 17.966825
v 2.042282 7.122039 -6.382524
v 2.042282 7.099427 17.966825
v 2.042282 7.099425 -6.382524
v 2.006083 7.122041 17.966825
v 2.006083 7.122039 -6.382524
v 2.042282 7.122041 17.966825
v 2.042282 7.122039 -6.382524
v 2.042282 7.099427 17.966825
v 2.042282 7.099425 -6.382524
v 1.785176 7.099427 17.966825
v 1.785176 7.099425 -6.382524
v -0.886523 7.352052 17.966825
v -0.886523 7.352050 -6.382524
v -0.886523 7.374666 17.966825
v -0.886523 7.374664 -6.382524
v -0.850324 7.352052 17.966825
v -0.850324 7.352050 -6.382524
v -0.886523 7.352052 17.966825
v -0.886523 7.352050 -6.382524
v -0.850324 7.352052 17.966825
v -0.850324 7.122041 17.966825
v -0.850324 7.352050 -6.382524
v -0.850324 7.122039 -6.382524
v -0.886523 7.122041 17.966825
v -0.886523 7.099427 17.966825
v -0.886523 7.122039 -6.382524
v -0.886523 7.099425 -6.382524
v -0.850324 7.122041 17.966825
v -0.886523 7.122041 17.966825
v -0.850324 7.122039 -6.382524
v -0.886523 7.122039 -6.382524
v -0.629417 7.352052 17.966825
v -0.629417 7.374666 17.966825
v -0.629417 7.352050 -6.382524
v -0.629417 7.374664 -6.382524
v -0.665616 7.352052 17.966825
v -0.629417 7.352052 17.966825
v -0.665616 7.352050 -6.382524
v -0.629417 7.352050 -6.382524
v -0.665616 7.352052 17.966825
v -0.665616 7.352050 -6.382524
v -0.665616 7.122041 17.966825
v -0.665616 7.122039 -6.382524
v -0.629417 7.122041 17.966825
v -0.629417 7.122039 -6.382524
v -0.629417 7.099427 17.966825
v -0.629417 7.099425 -6.382524
v -0.665616 7.122041 17.966825
v -0.665616 7.122039 -6.382524
v -0.629417 7.122041 17.966825
v -0.629417 7.122039 -6.382524
v -0.629417 7.099427 17.966825
v -0.629417 7.099425 -6.382524
v -0.886523 7.099427 17.966825
v -0.886523 7.099425 -6.382524
v -4.671437 7.352052 17.966825
v -4.671437 7.352050 -6.382524
v -4.671437 7.374666 17.966825
v -4.671437 7.374664 -6.382524
v -4.635239 7.352052 17.966825
v -4.635239 7.352050 -6.382524
v -4.671437 7.352052 17.966825
v -4.671437 7.352050 -6.382524
v -4.635239 7.352052 17.966825
v -4.635239 7.122041 17.966825
v -4.635239 7.352050 -6.382524
v -4.635239 7.122039 -6.382524
v -4.671437 7.122041 17.966825
v -4.671437 7.099427 17.966825
v -4.671437 7.122039 -6.382524
v -4.671437 7.099425 -6.382524
v -4.635239 7.122041 17.966825
v -4.671437 7.122041 17.966825
v -4.635239 7.122039 -6.382524
v -4.671437 7.122039 -6.382524
v -4.414332 7.352052 17.966825
v -4.414332 7.374666 17.966825
v -4.414332 7.352050 -6.382524
v -4.414332 7.374664 -6.382524
v -4.450531 7.352052 17.966825
v -4.414332 7.352052 17.966825
v -4.450531 7.352050 -6.382524
v -4.414332 7.352050 -6.382524
v -4.450531 7.352052 17.966825
v -4.450531 7.352050 -6.382524
v -4.450531 7.122041 17.966825
v -4.450531 7.122039 -6.382524
v -4.414332 7.122041 17.966825
v -4.414332 7.122039 -6.382524
v -4.414332 7.099427 17.966825
v -4.414332 7.099425 -6.382524
v -4.450531 7.122041 17.966825
v -4.450531 7.122039 -6.382524
v -4.414332 7.122041 17.966825
v -4.414332 7.122039 -6.382524
v -4.414332 7.099427 17.966825
v -4.414332 7.099425 -6.382524
v -4.671437 7.099427 17.966825
v -4.671437 7.099425 -6.382524
v 7.471454 -0.020535 1.264516
v 7.471454 0.238657 1.264516
v 7.443173 -0.020535 1.292797
v 7.443173 0.238657 1.292797
v 7.443173 -0.020535 1.527291
v 7.443173 0.238658 1.527291
v 7.471454 -0.020535 1.555573
v 7.471454 0.238658 1.555573
v 7.471454 0.238657 1.264516
v 7.522879 0.238657 1.264516
v 7.471454 0.266939 1.292797
v 7.522879 0.266939 1.292798
v 7.471454 0.266939 1.292797
v 7.471454 0.266939 1.527291
v 7.443173 0.238657 1.292797
v 7.443173 0.238658 1.527291
v 7.471454 0.266939 1.527291
v 7.572689 0.266939 1.527291
v 7.471454 0.238658 1.555573
v 7.572689 0.238658 1.555573
v 7.780006 0.238657 1.264516
v 7.780006 -0.020535 1.264516
v 7.808287 0.238657 1.292797
v 7.808287 -0.020535 1.292797
v 7.808287 0.238657 1.292797
v 7.808287 0.238658 1.527291
v 7.780006 0.266939 1.292797
v 7.780006 0.266939 1.527291
v 7.808287 0.238658 1.527291
v 7.808287 -0.020535 1.527291
v 7.780006 0.238658 1.555573
v 7.780006 -0.020535 1.555573
v 7.443173 -0.020535 1.292797
v 7.443173 0.238657 1.292797
v 7.443173 -0.020535 1.527291
v 7.443173 0.238658 1.527291
v 7.522879 0.266939 1.292798
v 7.471454 0.266939 1.527291
v 7.471454 0.266939 1.292797
v 7.808287 0.238657 1.292797
v 7.808287 -0.020535 1.292797
v 7.808287 0.238658 1.527291
v 7.808287 -0.020535 1.527291
v 7.471454 0.238658 1.555573
v 7.572689 0.238658 1.555573
v 7.471454 -0.020535 1.555573
v 7.572689 -0.020535 1.555573
v 7.522879 -0.020535 1.264516
v 7.522879 0.238657 1.264516
v 7.471454 -0.020535 1.264516
v 7.471454 0.238657 1.264516
v 7.471454 0.238657 1.264516
v 7.471454 0.266939 1.292797
v 7.443173 0.238657 1.292797
v 7.471454 0.266939 1.527291
v 7.471454 0.238658 1.555573
v 7.443173 0.238658 1.527291
v 7.780006 0.238657 1.264516
v 7.808287 0.238657 1.292797
v 7.780006 0.266939 1.292797
v 7.808287 0.238658 1.527291
v 7.780006 0.238658 1.555573
v 7.780006 0.266939 1.527291
v 7.471454 -0.022967 -1.365090
v 7.471454 0.238657 -1.365090
v 7.443173 -0.022967 -1.336808
v 7.443173 0.238657 -1.336808
v 7.443173 -0.022967 -1.102314
v 7.443173 0.238657 -1.102314
v 7.471454 -0.022967 -1.074033
v 7.471454 0.238657 -1.074033
v 7.471454 0.238657 -1.365090
v 7.780006 0.238657 -1.365090
v 7.471454 0.266939 -1.336808
v 7.780006 0.266939 -1.336808
v 7.471454 0.266939 -1.336808
v 7.471454 0.266939 -1.102314
v 7.443173 0.238657 -1.336808
v 7.443173 0.238657 -1.102314
v 7.471454 0.266939 -1.102314
v 7.522879 0.266939 -1.102314
v 7.471454 0.238657 -1.074033
v 7.522879 0.238657 -1.074033
v 7.780006 0.238657 -1.365090
v 7.780006 -0.022967 -1.365090
v 7.808287 0.238657 -1.336808
v 7.808287 -0.022967 -1.336808
v 7.808287 0.238657 -1.336808
v 7.808287 0.238657 -1.102314
v 7.780006 0.266939 -1.336808
v 7.780006 0.266939 -1.102314
v 7.808287 0.238657 -1.102314
v 7.808287 -0.022967 -1.102314
v 7.780006 0.238657 -1.074033
v 7.780006 -0.022967 -1.074033
v 7.443173 -0.022967 -1.336808
v 7.443173 0.238657 -1.336808
v 7.443173 -0.022967 -1.102314
v 7.443173 0.238657 -1.102314
v 7.471454 0.266939 -1.336808
v 7.780006 0.266939 -1.336808
v 7.574305 0.266939 -1.164626
v 7.677156 0.266939 -1.164626
v 7.808287 0.238657 -1.336808
v 7.808287 -0.022967 -1.336808
v 7.808287 0.238657 -1.102314
v 7.808287 -0.022967 -1.102314
v 7.471454 -0.022967 -1.074033
v 7.471454 0.238657 -1.074033
v 7.522879 -0.022967 -1.074033
v 7.522879 0.238657 -1.074033
v 7.780006 -0.022967 -1.365090
v 7.780006 0.238657 -1.365090
v 7.471454 -0.022967 -1.365090
v 7.471454 0.238657 -1.365090
v 7.471454 0.238657 -1.365090
v 7.471454 0.266939 -1.336808
v 7.443173 0.238657 -1.336808
v 7.471454 0.266939 -1.102314
v 7.471454 0.238657 -1.074033
v 7.443173 0.238657 -1.102314
v 7.780006 0.238657 -1.365090
v 7.808287 0.238657 -1.336808
v 7.780006 0.266939 -1.336808
v 7.808287 0.238657 -1.102314
v 7.780006 0.238657 -1.074033
v 7.780006 0.266939 -1.102314
v 7.522879 -0.022967 -1.074033
v 7.522879 0.238657 -1.074033
v 7.574305 -0.022967 -1.136345
v 7.574305 0.238657 -1.136345
v 7.522879 0.266939 -1.102314
v 7.574305 0.266939 -1.164626
v 7.522879 0.238657 -1.074033
v 7.574305 0.238657 -1.136345
v 7.574305 0.238657 -1.136345
v 7.677156 0.238657 -1.136345
v 7.574305 -0.022967 -1.136345
v 7.677156 -0.022967 -1.136345
v 7.574305 0.266939 -1.164626
v 7.677156 0.266939 -1.164626
v 7.574305 0.238657 -1.136345
v 7.677156 0.238657 -1.136345
v 7.677156 -0.022967 -1.136345
v 7.677156 0.238657 -1.136345
v 7.728581 -0.022967 -1.074033
v 7.728581 0.238657 -1.074033
v 7.677156 0.266939 -1.164626
v 7.728581 0.266939 -1.102314
v 7.677156 0.238657 -1.136345
v 7.728581 0.238657 -1.074033
v 7.780006 0.266939 -1.336808
v 7.780006 0.266939 -1.102314
v 7.677156 0.266939 -1.164626
v 7.728581 0.266939 -1.102314
v 7.728581 -0.022967 -1.074033
v 7.728581 0.238657 -1.074033
v 7.780006 -0.022967 -1.074033
v 7.780006 0.238657 -1.074033
v 7.728581 0.266939 -1.102314
v 7.780006 0.266939 -1.102314
v 7.728581 0.238657 -1.074033
v 7.780006 0.238657 -1.074033
v 7.728581 0.238657 1.264516
v 7.780006 0.238657 1.264516
v 7.728581 0.266939 1.292797
v 7.780006 0.266939 1.292797
v 7.780006 -0.020535 1.264516
v 7.780006 0.238657 1.264516
v 7.728581 -0.020535 1.264516
v 7.728581 0.238657 1.264516
v 7.780006 0.238658 1.555573
v 7.780006 -0.020535 1.555573
v 7.671575 0.238658 1.555573
v 7.671575 -0.020535 1.555573
v 7.671575 0.266939 1.527291
v 7.780006 0.266939 1.527291
v 7.671575 0.238658 1.555573
v 7.780006 0.238658 1.555573
v 7.728581 0.266939 1.292797
v 7.780006 0.266939 1.527291
v 7.671575 0.266939 1.527291
v 7.671575 0.238657 1.280614
v 7.728581 0.238657 1.264516
v 7.671575 0.266939 1.308896
v 7.728581 0.266939 1.292797
v 7.728581 -0.020535 1.264516
v 7.728581 0.238657 1.264516
v 7.671575 -0.020535 1.280614
v 7.671575 0.238657 1.280614
v 7.522879 0.238657 1.264516
v 7.572689 0.238657 1.280614
v 7.522879 0.266939 1.292798
v 7.572689 0.266939 1.308896
v 7.572689 -0.020535 1.280614
v 7.572689 0.238657 1.280614
v 7.522879 -0.020535 1.264516
v 7.522879 0.238657 1.264516
v 7.572689 0.238658 1.555573
v 7.572689 0.266939 1.527291
v 7.572689 0.238657 1.280614
v 7.572689 0.266939 1.308896
v 7.671575 -0.020535 1.280614
v 7.671575 0.238657 1.280614
v 7.671575 -0.020535 1.555573
v 7.671575 0.238658 1.555573
v 7.671575 0.238657 1.280614
v 7.671575 0.266939 1.308896
v 7.671575 0.238658 1.555573
v 7.671575 0.266939 1.527291
v 7.572689 -0.020535 1.555573
v 7.572689 0.238658 1.555573
v 7.572689 -0.020535 1.280614
v 7.572689 0.238657 1.280614
v 7.770459 2.550489 1.384868
v 7.770459 2.725273 1.384868
v 7.770459 2.550489 -1.117746
v 7.770459 2.725273 -1.117746
v 7.473804 2.578770 -1.117746
v 7.473804 2.696992 -1.117746
v 7.473804 2.578770 1.384868
v 7.473804 2.696992 1.384868
v 7.502085 2.725273 -1.117746
v 7.770459 2.725273 -1.117746
v 7.502085 2.725273 1.384868
v 7.770459 2.725273 1.384868
v 7.523246 2.550489 1.384868
v 7.523246 2.550489 -1.117746
v 7.502085 2.550489 1.384868
v 7.502085 2.550489 -1.117746
v 7.770459 -0.020535 1.304558
v 7.770459 -0.020535 1.520696
v 7.770459 2.550489 1.304558
v 7.770459 2.550489 1.520696
v 7.473804 2.550489 1.332839
v 7.473804 2.550489 1.492415
v 7.473804 -0.020535 1.332839
v 7.473804 -0.020535 1.492415
v 7.502085 2.550489 1.520696
v 7.770459 2.550489 1.520696
v 7.502085 -0.020535 1.520696
v 7.770459 -0.020535 1.520696
v 7.770459 -0.020535 1.304558
v 7.770459 2.550489 1.304558
v 7.721017 -0.020535 1.304558
v 7.721017 2.550489 1.304558
v 7.770459 0.235767 -1.310785
v 7.770459 0.235767 -1.117746
v 7.770459 2.550489 -1.310785
v 7.770459 2.550489 -1.117746
v 7.473804 2.550489 -1.282503
v 7.473804 2.550489 -1.146027
v 7.473804 0.235767 -1.282503
v 7.473804 0.235767 -1.146027
v 7.502085 2.550489 -1.117746
v 7.523246 2.550489 -1.117746
v 7.502085 0.235767 -1.117746
v 7.523246 0.235767 -1.117746
v 7.770459 0.235767 -1.310785
v 7.770459 2.550489 -1.310785
v 7.502085 0.235767 -1.310785
v 7.502085 2.550489 -1.310785
v 7.523246 0.235767 -1.117746
v 7.523246 2.550489 -1.117746
v 7.572689 0.235767 -1.135768
v 7.572689 2.569339 -1.135769
v 7.671575 2.569339 -1.135769
v 7.671575 0.235767 -1.135768
v 7.572689 2.569339 -1.135769
v 7.572689 0.235767 -1.135768
v 7.671575 0.235767 -1.135768
v 7.671575 2.569339 -1.135769
v 7.721017 0.235767 -1.117746
v 7.721017 2.550489 -1.117746
v 7.721017 0.235767 -1.117746
v 7.721017 2.550489 -1.117746
v 7.770459 0.235767 -1.117746
v 7.770459 2.550489 -1.117746
v 7.572689 2.569339 1.384868
v 7.572689 2.569339 -1.135769
v 7.523246 2.550489 1.384868
v 7.523246 2.550489 -1.117746
v 7.671575 2.569339 1.384868
v 7.671575 2.569339 -1.135769
v 7.572689 2.569339 1.384868
v 7.572689 2.569339 -1.135769
v 7.721017 2.550489 1.384868
v 7.721017 2.550489 -1.117746
v 7.671575 2.569339 1.384868
v 7.671575 2.569339 -1.135769
v 7.770459 2.550489 1.384868
v 7.770459 2.550489 -1.117746
v 7.721017 2.550489 1.384868
v 7.721017 2.550489 -1.117746
v 7.721017 -0.020535 1.304558
v 7.721017 2.550489 1.304558
v 7.671575 -0.020535 1.318333
v 7.671575 2.550489 1.318332
v 7.572689 2.550489 1.496034
v 7.572689 -0.020535 1.496034
v 7.671575 2.550489 1.496034
v 7.671575 -0.020535 1.496034
v 7.572689 -0.020535 1.318333
v 7.572689 2.550489 1.318332
v 7.523245 -0.020535 1.304558
v 7.523245 2.550489 1.304558
v 7.523245 -0.020535 1.304558
v 7.523245 2.550489 1.304558
v 7.502085 -0.020535 1.304558
v 7.502085 2.550489 1.304558
v 7.572689 2.550489 1.318332
v 7.572689 2.550489 1.496034
v 7.671575 2.550489 1.318332
v 7.671575 2.550489 1.496034
v 7.671575 2.550489 1.318332
v 7.671575 2.550489 1.496034
v 7.671575 -0.020535 1.318333
v 7.671575 -0.020535 1.496034
v 7.572689 -0.020535 1.318333
v 7.572689 -0.020535 1.496034
v 7.572689 2.550489 1.318332
v 7.572689 2.550489 1.496034
v 7.502085 0.235767 -1.310785
v 7.502085 2.550489 -1.310785
v 7.473804 0.235767 -1.282503
v 7.473804 2.550489 -1.282503
v 7.473804 0.235767 -1.146027
v 7.473804 2.550489 -1.146027
v 7.502085 0.235767 -1.117746
v 7.502085 2.550489 -1.117746
v 7.502085 2.550489 1.384868
v 7.502085 2.550489 -1.117746
v 7.473804 2.578770 1.384868
v 7.473804 2.578770 -1.117746
v 7.473804 2.696992 1.384868
v 7.473804 2.696992 -1.117746
v 7.502085 2.725273 1.384868
v 7.502085 2.725273 -1.117746
v 7.502085 -0.020535 1.304558
v 7.502085 2.550489 1.304558
v 7.473804 -0.020535 1.332839
v 7.473804 2.550489 1.332839
v 7.473804 -0.020535 1.492415
v 7.473804 2.550489 1.492415
v 7.502085 -0.020535 1.520696
v 7.502085 2.550489 1.520696
v -2.585998 -0.023200 -5.633293
v -2.585998 0.238657 -5.633293
v -2.557716 -0.023200 -5.605012
v -2.557716 0.238657 -5.605012
v -2.323223 -0.023200 -5.605012
v -2.323223 0.238657 -5.605012
v -2.294941 -0.023200 -5.633293
v -2.294941 0.238657 -5.633293
v -2.585998 0.238657 -5.633293
v -2.585998 0.238657 -5.684719
v -2.557716 0.266938 -5.633293
v -2.557716 0.266938 -5.684719
v -2.557716 0.266938 -5.633293
v -2.323223 0.266938 -5.633293
v -2.557716 0.238657 -5.605012
v -2.323223 0.238657 -5.605012
v -2.323223 0.266938 -5.633293
v -2.323223 0.266938 -5.734528
v -2.294941 0.238657 -5.633293
v -2.294941 0.238657 -5.734528
v -2.585998 0.238657 -5.941845
v -2.585998 -0.023200 -5.941845
v -2.557716 0.238657 -5.970127
v -2.557716 -0.023200 -5.970127
v -2.557716 0.238657 -5.970127
v -2.323223 0.238657 -5.970127
v -2.557716 0.266938 -5.941845
v -2.323223 0.266938 -5.941845
v -2.323223 0.238657 -5.970127
v -2.323223 -0.023200 -5.970127
v -2.294941 0.238657 -5.941845
v -2.294941 -0.023200 -5.941845
v -2.557716 -0.023200 -5.605012
v -2.557716 0.238657 -5.605012
v -2.323223 -0.023200 -5.605012
v -2.323223 0.238657 -5.605012
v -2.557716 0.266938 -5.684719
v -2.323223 0.266938 -5.633293
v -2.557716 0.266938 -5.633293
v -2.557716 0.238657 -5.970127
v -2.557716 -0.023200 -5.970127
v -2.323223 0.238657 -5.970127
v -2.323223 -0.023200 -5.970127
v -2.294941 0.238657 -5.633293
v -2.294941 0.238657 -5.734528
v -2.294941 -0.023200 -5.633293
v -2.294941 -0.023200 -5.734528
v -2.585998 -0.023200 -5.684719
v -2.585998 0.238657 -5.684719
v -2.585998 -0.023200 -5.633293
v -2.585998 0.238657 -5.633293
v -2.585998 0.238657 -5.633293
v -2.557716 0.266938 -5.633293
v -2.557716 0.238657 -5.605012
v -2.323223 0.266938 -5.633293
v -2.294941 0.238657 -5.633293
v -2.323223 0.238657 -5.605012
v -2.585998 0.238657 -5.941845
v -2.557716 0.238657 -5.970127
v -2.557716 0.266938 -5.941845
v -2.323223 0.238657 -5.970127
v -2.294941 0.238657 -5.941845
v -2.323223 0.266938 -5.941845
v -5.215604 -0.021166 -5.633293
v -5.215604 0.238657 -5.633293
v -5.187322 -0.021166 -5.605012
v -5.187322 0.238657 -5.605012
v -4.952828 -0.021166 -5.605012
v -4.952828 0.238657 -5.605012
v -4.924547 -0.021166 -5.633293
v -4.924547 0.238657 -5.633293
v -5.215604 0.238657 -5.633293
v -5.215604 0.238657 -5.941845
v -5.187322 0.266938 -5.633293
v -5.187322 0.266938 -5.941845
v -5.187322 0.266938 -5.633293
v -4.952828 0.266938 -5.633293
v -5.187322 0.238657 -5.605012
v -4.952828 0.238657 -5.605012
v -4.952828 0.266938 -5.633293
v -4.952828 0.266938 -5.684719
v -4.924547 0.238657 -5.633293
v -4.924547 0.238657 -5.684719
v -5.215604 0.238657 -5.941845
v -5.215604 -0.021166 -5.941845
v -5.187322 0.238657 -5.970127
v -5.187322 -0.021166 -5.970127
v -5.187322 0.238657 -5.970127
v -4.952828 0.238657 -5.970127
v -5.187322 0.266938 -5.941845
v -4.952828 0.266938 -5.941845
v -4.952828 0.238657 -5.970127
v -4.952828 -0.021166 -5.970127
v -4.924547 0.238657 -5.941845
v -4.924547 -0.021166 -5.941845
v -5.187322 -0.021166 -5.605012
v -5.187322 0.238657 -5.605012
v -4.952828 -0.021166 -5.605012
v -4.952828 0.238657 -5.605012
v -5.187322 0.266938 -5.633293
v -5.187322 0.266938 -5.941845
v -5.015141 0.266938 -5.736144
v -5.015141 0.266938 -5.838995
v -5.187322 0.238657 -5.970127
v -5.187322 -0.021166 -5.970127
v -4.952828 0.238657 -5.970127
v -4.952828 -0.021166 -5.970127
v -4.924547 -0.021166 -5.633293
v -4.924547 0.238657 -5.633293
v -4.924547 -0.021166 -5.684719
v -4.924547 0.238657 -5.684719
v -5.215604 -0.021166 -5.941845
v -5.215604 0.238657 -5.941845
v -5.215604 -0.021166 -5.633293
v -5.215604 0.238657 -5.633293
v -5.215604 0.238657 -5.633293
v -5.187322 0.266938 -5.633293
v -5.187322 0.238657 -5.605012
v -4.952828 0.266938 -5.633293
v -4.924547 0.238657 -5.633293
v -4.952828 0.238657 -5.605012
v -5.215604 0.238657 -5.941845
v -5.187322 0.238657 -5.970127
v -5.187322 0.266938 -5.941845
v -4.952828 0.238657 -5.970127
v -4.924547 0.238657 -5.941845
v -4.952828 0.266938 -5.941845
v -4.924547 -0.021166 -5.684719
v -4.924547 0.238657 -5.684719
v -4.986859 -0.021166 -5.736144
v -4.986859 0.238657 -5.736144
v -4.952828 0.266938 -5.684719
v -5.015141 0.266938 -5.736144
v -4.924547 0.238657 -5.684719
v -4.986859 0.238657 -5.736144
v -4.986859 0.238657 -5.736144
v -4.986859 0.238657 -5.838995
v -4.986859 -0.021166 -5.736144
v -4.986859 -0.021166 -5.838995
v -5.015141 0.266938 -5.736144
v -5.015141 0.266938 -5.838995
v -4.986859 0.238657 -5.736144
v -4.986859 0.238657 -5.838995
v -4.986859 -0.021166 -5.838995
v -4.986859 0.238657 -5.838995
v -4.924547 -0.021166 -5.890420
v -4.924547 0.238657 -5.890420
v -5.015141 0.266938 -5.838995
v -4.952828 0.266938 -5.890420
v -4.986859 0.238657 -5.838995
v -4.924547 0.238657 -5.890420
v -5.187322 0.266938 -5.941845
v -4.952828 0.266938 -5.941845
v -5.015141 0.266938 -5.838995
v -4.952828 0.266938 -5.890420
v -4.924547 -0.021166 -5.890420
v -4.924547 0.238657 -5.890420
v -4.924547 -0.021166 -5.941845
v -4.924547 0.238657 -5.941845
v -4.952828 0.266938 -5.890420
v -4.952828 0.266938 -5.941845
v -4.924547 0.238657 -5.890420
v -4.924547 0.238657 -5.941845
v -2.585998 0.238657 -5.890420
v -2.585998 0.238657 -5.941845
v -2.557716 0.266938 -5.890420
v -2.557716 0.266938 -5.941845
v -2.585998 -0.023200 -5.941845
v -2.585998 0.238657 -5.941845
v -2.585998 -0.023200 -5.890420
v -2.585998 0.238657 -5.890420
v -2.294941 0.238657 -5.941845
v -2.294941 -0.023200 -5.941845
v -2.294941 0.238657 -5.833413
v -2.294941 -0.023200 -5.833413
v -2.323223 0.266938 -5.833413
v -2.323223 0.266938 -5.941845
v -2.294941 0.238657 -5.833413
v -2.294941 0.238657 -5.941845
v -2.557716 0.266938 -5.890420
v -2.323223 0.266938 -5.941845
v -2.323223 0.266938 -5.833413
v -2.569900 0.238657 -5.833413
v -2.585998 0.238657 -5.890420
v -2.541618 0.266938 -5.833413
v -2.557716 0.266938 -5.890420
v -2.585998 -0.023200 -5.890420
v -2.585998 0.238657 -5.890420
v -2.569900 -0.023200 -5.833413
v -2.569900 0.238657 -5.833413
v -2.585998 0.238657 -5.684719
v -2.569900 0.238657 -5.734528
v -2.557716 0.266938 -5.684719
v -2.541617 0.266938 -5.734528
v -2.569900 -0.023200 -5.734528
v -2.569900 0.238657 -5.734528
v -2.585998 -0.023200 -5.684719
v -2.585998 0.238657 -5.684719
v -2.294941 0.238657 -5.734528
v -2.323223 0.266938 -5.734528
v -2.569900 0.238657 -5.734528
v -2.541617 0.266938 -5.734528
v -2.569900 -0.023200 -5.833413
v -2.569900 0.238657 -5.833413
v -2.294941 -0.023200 -5.833413
v -2.294941 0.238657 -5.833413
v -2.569900 0.238657 -5.833413
v -2.541618 0.266938 -5.833413
v -2.294941 0.238657 -5.833413
v -2.323223 0.266938 -5.833413
v -2.294941 -0.023200 -5.734528
v -2.294941 0.238657 -5.734528
v -2.569900 -0.023200 -5.734528
v -2.569900 0.238657 -5.734528
v -2.465646 2.550489 -5.932298
v -2.465646 2.725273 -5.932298
v -4.968259 2.550489 -5.932298
v -4.968259 2.725273 -5.932298
v -4.968259 2.578770 -5.635643
v -4.968259 2.696991 -5.635643
v -2.465646 2.578770 -5.635643
v -2.465646 2.696991 -5.635643
v -4.968259 2.725273 -5.663924
v -4.968259 2.725273 -5.932298
v -2.465646 2.725273 -5.663924
v -2.465646 2.725273 -5.932298
v -2.465646 2.550489 -5.685085
v -4.968259 2.550489 -5.685085
v -2.465646 2.550489 -5.663924
v -4.968259 2.550489 -5.663924
v -2.545956 -0.023200 -5.932298
v -2.329818 -0.023200 -5.932298
v -2.545956 2.550489 -5.932298
v -2.329818 2.550489 -5.932298
v -2.517675 2.550489 -5.635643
v -2.358099 2.550489 -5.635643
v -2.517675 -0.023200 -5.635643
v -2.358099 -0.023200 -5.635643
v -2.329818 2.550489 -5.663924
v -2.329818 2.550489 -5.932298
v -2.329818 -0.023200 -5.663924
v -2.329818 -0.023200 -5.932298
v -2.545956 -0.023200 -5.932298
v -2.545956 2.550489 -5.932298
v -2.545956 -0.023200 -5.882856
v -2.545956 2.550489 -5.882856
v -5.161298 0.232085 -5.932298
v -4.968259 0.232085 -5.932298
v -5.161298 2.550489 -5.932298
v -4.968259 2.550489 -5.932298
v -5.133017 2.550489 -5.635643
v -4.996541 2.550489 -5.635643
v -5.133017 0.232085 -5.635643
v -4.996541 0.232085 -5.635643
v -4.968259 2.550489 -5.663924
v -4.968259 2.550489 -5.685085
v -4.968259 0.232085 -5.663924
v -4.968259 0.232085 -5.685085
v -5.161298 0.232085 -5.932298
v -5.161298 2.550489 -5.932298
v -5.161298 0.232085 -5.663924
v -5.161298 2.550489 -5.663924
v -4.968259 0.232085 -5.685085
v -4.968259 2.550489 -5.685085
v -4.986282 0.232085 -5.734528
v -4.986282 2.569339 -5.734528
v -4.986282 2.569339 -5.833413
v -4.986282 0.232085 -5.833413
v -4.986282 2.569339 -5.734528
v -4.986282 0.232085 -5.734528
v -4.986282 0.232085 -5.833413
v -4.986282 2.569339 -5.833413
v -4.968259 0.232085 -5.882856
v -4.968259 2.550489 -5.882856
v -4.968259 0.232085 -5.882856
v -4.968259 2.550489 -5.882856
v -4.968259 0.232085 -5.932298
v -4.968259 2.550489 -5.932298
v -2.465646 2.569339 -5.734528
v -4.986282 2.569339 -5.734528
v -2.465646 2.550489 -5.685085
v -4.968259 2.550489 -5.685085
v -2.465646 2.569339 -5.833413
v -4.986282 2.569339 -5.833413
v -2.465646 2.569339 -5.734528
v -4.986282 2.569339 -5.734528
v -2.465646 2.550489 -5.882856
v -4.968259 2.550489 -5.882856
v -2.465646 2.569339 -5.833413
v -4.986282 2.569339 -5.833413
v -2.465646 2.550489 -5.932298
v -4.968259 2.550489 -5.932298
v -2.465646 2.550489 -5.882856
v -4.968259 2.550489 -5.882856
v -2.545956 -0.023200 -5.882856
v -2.545956 2.550489 -5.882856
v -2.532182 -0.023200 -5.833413
v -2.532182 2.550489 -5.833413
v -2.354480 2.550489 -5.734527
v -2.354480 -0.023200 -5.734527
v -2.354480 2.550489 -5.833413
v -2.354480 -0.023200 -5.833413
v -2.532182 -0.023200 -5.734527
v -2.532182 2.550489 -5.734527
v -2.545956 -0.023200 -5.685085
v -2.545956 2.550489 -5.685085
v -2.545956 -0.023200 -5.685085
v -2.545956 2.550489 -5.685085
v -2.545956 -0.023200 -5.663924
v -2.545956 2.550489 -5.663924
v -2.532182 2.550489 -5.734527
v -2.354480 2.550489 -5.734527
v -2.532182 2.550489 -5.833413
v -2.354480 2.550489 -5.833413
v -2.532182 2.550489 -5.833413
v -2.354480 2.550489 -5.833413
v -2.532182 -0.023200 -5.833413
v -2.354480 -0.023200 -5.833413
v -2.532182 -0.023200 -5.734527
v -2.354480 -0.023200 -5.734527
v -2.532182 2.550489 -5.734527
v -2.354480 2.550489 -5.734527
v -2.557716 2.508523 -5.633293
v -2.557716 2.508523 -5.941845
v -2.585998 2.536804 -5.633293
v -2.585998 2.536804 -5.941845
v -2.557716 2.536804 -5.605012
v -2.323223 2.536804 -5.605012
v -2.557716 2.508523 -5.633293
v -2.323223 2.508523 -5.633293
v -2.585998 2.536804 -5.633293
v -2.585998 2.753303 -5.633293
v -2.557716 2.536804 -5.605012
v -2.557716 2.753303 -5.605012
v -2.294941 2.536804 -5.633293
v -2.294941 2.536804 -5.941845
v -2.323223 2.508523 -5.633293
v -2.323223 2.508523 -5.941845
v -2.323223 2.536804 -5.605012
v -2.323223 2.753303 -5.605012
v -2.294941 2.536804 -5.633293
v -2.294941 2.753303 -5.633293
v -2.585998 2.753303 -5.633293
v -2.585998 2.753303 -5.941845
v -2.557716 2.781585 -5.633293
v -2.557716 2.781585 -5.941845
v -2.557716 2.781585 -5.633293
v -2.323223 2.781585 -5.633293
v -2.557716 2.753303 -5.605012
v -2.323223 2.753303 -5.605012
v -2.323223 2.781585 -5.633293
v -2.323223 2.781585 -5.941845
v -2.294941 2.753303 -5.633293
v -2.294941 2.753303 -5.941845
v -2.585998 2.753303 -5.941845
v -2.585998 2.536804 -5.941845
v -2.557716 2.753303 -5.970127
v -2.557716 2.536804 -5.970127
v -2.557716 2.753303 -5.970127
v -2.323223 2.753303 -5.970127
v -2.557716 2.781585 -5.941845
v -2.323223 2.781585 -5.941845
v -2.323223 2.753303 -5.970127
v -2.323223 2.536804 -5.970127
v -2.294941 2.753303 -5.941845
v -2.294941 2.536804 -5.941845
v -2.557716 2.508523 -5.941845
v -2.323223 2.508523 -5.941845
v -2.557716 2.536804 -5.970127
v -2.323223 2.536804 -5.970127
v -2.557716 2.536804 -5.605012
v -2.557716 2.753303 -5.605012
v -2.323223 2.536804 -5.605012
v -2.323223 2.753303 -5.605012
v -2.557716 2.781585 -5.633293
v -2.557716 2.781585 -5.941845
v -2.323223 2.781585 -5.633293
v -2.323223 2.781585 -5.941845
v -2.557716 2.753303 -5.970127
v -2.557716 2.536804 -5.970127
v -2.323223 2.753303 -5.970127
v -2.323223 2.536804 -5.970127
v -2.557716 2.508523 -5.941845
v -2.557716 2.508523 -5.633293
v -2.323223 2.508523 -5.941845
v -2.323223 2.508523 -5.633293
v -2.294941 2.536804 -5.633293
v -2.294941 2.753303 -5.633293
v -2.294941 2.536804 -5.941845
v -2.294941 2.753303 -5.941845
v -2.585998 2.536804 -5.941845
v -2.585998 2.753303 -5.941845
v -2.585998 2.536804 -5.633293
v -2.585998 2.753303 -5.633293
v -2.557716 2.508523 -5.633293
v -2.585998 2.536804 -5.633293
v -2.557716 2.536804 -5.605012
v -2.294941 2.536804 -5.633293
v -2.323223 2.508523 -5.633293
v -2.323223 2.536804 -5.605012
v -2.585998 2.753303 -5.633293
v -2.557716 2.781585 -5.633293
v -2.557716 2.753303 -5.605012
v -2.323223 2.781585 -5.633293
v -2.294941 2.753303 -5.633293
v -2.323223 2.753303 -5.605012
v -2.585998 2.753303 -5.941845
v -2.557716 2.753303 -5.970127
v -2.557716 2.781585 -5.941845
v -2.323223 2.753303 -5.970127
v -2.294941 2.753303 -5.941845
v -2.323223 2.781585 -5.941845
v -2.585998 2.536804 -5.941845
v -2.557716 2.508523 -5.941845
v -2.557716 2.536804 -5.970127
v -2.323223 2.508523 -5.941845
v -2.294941 2.536804 -5.941845
v -2.323223 2.536804 -5.970127
v -5.187322 2.508523 -5.633293
v -5.187322 2.508523 -5.941845
v -5.215604 2.536804 -5.633293
v -5.215604 2.536804 -5.941845
v -5.187322 2.536804 -5.605012
v -4.952828 2.536804 -5.605012
v -5.187322 2.508523 -5.633293
v -4.952828 2.508523 -5.633293
v -5.215604 2.536804 -5.633293
v -5.215604 2.753303 -5.633293
v -5.187322 2.536804 -5.605012
v -5.187322 2.753303 -5.605012
v -4.924547 2.536804 -5.633293
v -4.924547 2.536804 -5.941845
v -4.952828 2.508523 -5.633293
v -4.952828 2.508523 -5.941845
v -4.952828 2.536804 -5.605012
v -4.952828 2.753303 -5.605012
v -4.924547 2.536804 -5.633293
v -4.924547 2.753303 -5.633293
v -5.215604 2.753303 -5.633293
v -5.215604 2.753303 -5.941845
v -5.187322 2.781585 -5.633293
v -5.187322 2.781585 -5.941845
v -5.187322 2.781585 -5.633293
v -4.952828 2.781585 -5.633293
v -5.187322 2.753303 -5.605012
v -4.952828 2.753303 -5.605012
v -4.952828 2.781585 -5.633293
v -4.952828 2.781585 -5.941845
v -4.924547 2.753303 -5.633293
v -4.924547 2.753303 -5.941845
v -5.215604 2.753303 -5.941845
v -5.215604 2.536804 -5.941845
v -5.187322 2.753303 -5.970127
v -5.187322 2.536804 -5.970127
v -5.187322 2.753303 -5.970127
v -4.952828 2.753303 -5.970127
v -5.187322 2.781585 -5.941845
v -4.952828 2.781585 -5.941845
v -4.952828 2.753303 -5.970127
v -4.952828 2.536804 -5.970127
v -4.924547 2.753303 -5.941845
v -4.924547 2.536804 -5.941845
v -5.187322 2.508523 -5.941845
v -4.952828 2.508523 -5.941845
v -5.187322 2.536804 -5.970127
v -4.952828 2.536804 -5.970127
v -5.187322 2.536804 -5.605012
v -5.187322 2.753303 -5.605012
v -4.952828 2.536804 -5.605012
v -4.952828 2.753303 -5.605012
v -5.187322 2.781585 -5.633293
v -5.187322 2.781585 -5.941845
v -4.952828 2.781585 -5.633293
v -4.952828 2.781585 -5.941845
v -5.187322 2.753303 -5.970127
v -5.187322 2.536804 -5.970127
v -4.952828 2.753303 -5.970127
v -4.952828 2.536804 -5.970127
v -5.187322 2.508523 -5.941845
v -5.187322 2.508523 -5.633293
v -4.952828 2.508523 -5.941845
v -4.952828 2.508523 -5.633293
v -4.924547 2.536804 -5.633293
v -4.924547 2.753303 -5.633293
v -4.924547 2.536804 -5.941845
v -4.924547 2.753303 -5.941845
v -5.215604 2.536804 -5.941845
v -5.215604 2.753303 -5.941845
v -5.215604 2.536804 -5.633293
v -5.215604 2.753303 -5.633293
v -5.187322 2.508523 -5.633293
v -5.215604 2.536804 -5.633293
v -5.187322 2.536804 -5.605012
v -4.924547 2.536804 -5.633293
v -4.952828 2.508523 -5.633293
v -4.952828 2.536804 -5.605012
v -5.215604 2.753303 -5.633293
v -5.187322 2.781585 -5.633293
v -5.187322 2.753303 -5.605012
v -4.952828 2.781585 -5.633293
v -4.924547 2.753303 -5.633293
v -4.952828 2.753303 -5.605012
v -5.215604 2.753303 -5.941845
v -5.187322 2.753303 -5.970127
v -5.187322 2.781585 -5.941845
v -4.952828 2.753303 -5.970127
v -4.924547 2.753303 -5.941845
v -4.952828 2.781585 -5.941845
v -5.215604 2.536804 -5.941845
v -5.187322 2.508523 -5.941845
v -5.187322 2.536804 -5.970127
v -4.952828 2.508523 -5.941845
v -4.924547 2.536804 -5.941845
v -4.952828 2.536804 -5.970127
v -5.161298 0.232085 -5.663924
v -5.161298 2.550489 -5.663924
v -5.133017 0.232085 -5.635643
v -5.133017 2.550489 -5.635643
v -4.996541 0.232085 -5.635643
v -4.996541 2.550489 -5.635643
v -4.968259 0.232085 -5.663924
v -4.968259 2.550489 -5.663924
v -2.465646 2.550489 -5.663924
v -4.968259 2.550489 -5.663924
v -2.465646 2.578770 -5.635643
v -4.968259 2.578770 -5.635643
v -2.465646 2.696991 -5.635643
v -4.968259 2.696991 -5.635643
v -2.465646 2.725273 -5.663924
v -4.968259 2.725273 -5.663924
v -2.545956 -0.023200 -5.663924
v -2.545956 2.550489 -5.663924
v -2.517675 -0.023200 -5.635643
v -2.517675 2.550489 -5.635643
v -2.358099 -0.023200 -5.635643
v -2.358099 2.550489 -5.635643
v -2.329818 -0.023200 -5.663924
v -2.329818 2.550489 -5.663924
v -5.187322 0.266938 -5.633293
v -5.015141 0.266938 -5.736144
v -4.952828 0.266938 -5.633293
v -4.952828 0.266938 -5.684719
v -2.557716 0.266938 -5.890420
v -2.557716 0.266938 -5.941845
v -2.323223 0.266938 -5.941845
v -2.557716 0.266938 -5.890420
v -2.323223 0.266938 -5.833413
v -2.541618 0.266938 -5.833413
v -2.557716 0.266938 -5.684719
v -2.541617 0.266938 -5.734528
v -2.323223 0.266938 -5.734528
v -2.323223 0.266938 -5.734528
v 7.471454 0.266939 -1.336808
v 7.574305 0.266939 -1.164626
v 7.471454 0.266939 -1.102314
v 7.522879 0.266939 -1.102314
v 7.728581 0.266939 1.292797
v 7.780006 0.266939 1.292797
v 7.780006 0.266939 1.527291
v 7.728581 0.266939 1.292797
v 7.671575 0.266939 1.527291
v 7.671575 0.266939 1.308896
v 7.522879 0.266939 1.292798
v 7.572689 0.266939 1.308896
v 7.572689 0.266939 1.527291
v 7.522879 0.266939 1.292798
v 7.572689 0.266939 1.527291
v 7.471454 0.266939 1.527291
v -7.574798 7.075710 -5.618887
v 7.274857 7.075710 -5.618887
v -7.569847 7.043710 -5.618887
v 7.271592 7.043710 -5.618887
v -7.574796 7.075710 -5.667239
v 7.274857 7.075710 -5.667239
v -7.574798 7.075710 -5.618887
v 7.274857 7.075710 -5.618887
v 7.271592 7.433185 -5.825001
v 7.271592 7.433185 -5.618887
v -7.569847 7.433185 -5.825001
v -7.569847 7.433185 -5.618887
v -7.574796 7.401187 -5.618887
v -7.569847 7.433185 -5.618887
v 7.274857 7.401187 -5.618887
v 7.271592 7.433185 -5.618887
v -7.574796 7.401187 -5.667239
v -7.574796 7.401187 -5.618887
v 7.274857 7.401187 -5.667239
v 7.274857 7.401187 -5.618887
v -7.574796 7.075710 -5.667239
v -7.574796 7.401187 -5.667239
v 7.274857 7.075710 -5.667239
v 7.274857 7.401187 -5.667239
v -7.569847 7.043710 -5.825001
v -7.569847 7.043710 -5.618887
v 7.271592 7.043710 -5.825001
v 7.271592 7.043710 -5.618887
v -7.442899 7.401187 -5.657754
v -7.442899 7.401189 17.300077
v -7.442899 7.433185 -5.653401
v -7.442899 7.433187 17.295723
v -7.491249 7.401187 -5.657754
v -7.491249 7.401189 17.300077
v -7.442899 7.401187 -5.657754
v -7.442899 7.401189 17.300077
v -7.491249 7.075710 -5.657754
v -7.491249 7.075712 17.300077
v -7.491249 7.401187 -5.657754
v -7.491249 7.401189 17.300077
v -7.649011 7.043712 17.295723
v -7.442899 7.043712 17.295723
v -7.649011 7.043710 -5.653401
v -7.442899 7.043710 -5.653401
v -7.440082 7.401189 17.463057
v 7.500129 7.401189 17.463057
v -7.432043 7.433187 17.463057
v 7.495776 7.433187 17.463057
v -7.440082 7.401189 17.511408
v 7.500129 7.401189 17.511408
v -7.440082 7.401189 17.463057
v 7.500129 7.401189 17.463057
v -7.440082 7.075712 17.511408
v 7.500129 7.075712 17.511408
v -7.440082 7.401189 17.511408
v 7.500129 7.401189 17.511408
v 7.495777 7.043712 17.669170
v 7.495777 7.043712 17.463057
v -7.432043 7.043712 17.669170
v -7.432043 7.043712 17.463057
v -7.440082 7.075712 17.463057
v -7.432043 7.043712 17.463057
v 7.500130 7.075712 17.463057
v 7.495777 7.043712 17.463057
v -7.440082 7.075712 17.511408
v -7.440082 7.075712 17.463057
v 7.500129 7.075712 17.511408
v 7.500130 7.075712 17.463057
v -7.432043 7.433187 17.669170
v -7.432043 7.433187 17.463057
v 7.495776 7.433187 17.669170
v 7.495776 7.433187 17.463057
v 7.442899 7.043712 17.466221
v 7.442899 7.043710 -5.564598
v 7.442899 7.075712 17.470575
v 7.442899 7.075710 -5.568952
v 7.442899 7.075712 17.470575
v 7.442899 7.075710 -5.568952
v 7.491249 7.075712 17.470575
v 7.491249 7.075710 -5.568951
v 7.442899 7.433187 17.466221
v 7.442899 7.433185 -5.564598
v 7.649011 7.433187 17.466221
v 7.649011 7.433185 -5.564598
v -7.283015 8.177483 -5.464808
v 7.334128 8.177483 -5.464808
v -7.283015 8.145483 -5.464808
v 7.334128 8.145483 -5.464808
v -7.331365 8.177483 -5.513161
v 7.382478 8.177483 -5.513161
v -7.283015 8.177483 -5.464808
v 7.334128 8.177483 -5.464808
v -7.283015 8.502959 -5.464808
v -7.283015 8.534958 -5.464808
v 7.334128 8.502959 -5.464808
v 7.334128 8.534958 -5.464808
v -7.331365 8.502959 -5.513161
v -7.283015 8.502959 -5.464808
v 7.382478 8.502959 -5.513161
v 7.334128 8.502959 -5.464808
v -7.331365 8.177483 -5.513161
v -7.331365 8.502959 -5.513161
v 7.382478 8.177483 -5.513161
v 7.382478 8.502959 -5.513161
v -7.508524 8.145483 -5.709488
v -7.283015 8.145483 -5.464808
v 7.540241 8.145483 -5.709488
v 7.334128 8.145483 -5.464808
v -7.283015 8.502959 -5.464808
v -7.283015 8.502960 17.467745
v -7.283015 8.534958 -5.464808
v -7.283015 8.534959 17.467745
v -7.331365 8.502959 -5.513161
v -7.331365 8.502960 17.516096
v -7.283015 8.502959 -5.464808
v -7.283015 8.502960 17.467745
v -7.331365 8.177483 -5.513161
v -7.331365 8.177484 17.516096
v -7.331365 8.502959 -5.513161
v -7.331365 8.502960 17.516096
v -7.508524 8.145484 17.673857
v -7.283015 8.145484 17.467745
v -7.508524 8.145483 -5.709488
v -7.283015 8.145483 -5.464808
v -7.283015 8.177483 -5.464808
v -7.283015 8.145483 -5.464808
v -7.283015 8.177484 17.467745
v -7.283015 8.145484 17.467745
v -7.331365 8.177483 -5.513161
v -7.283015 8.177483 -5.464808
v -7.331365 8.177484 17.516096
v -7.283015 8.177484 17.467745
v -7.283015 8.502960 17.467745
v 7.334128 8.502960 17.467745
v -7.283015 8.534959 17.467745
v 7.334128 8.534959 17.467745
v -7.331365 8.502960 17.516096
v 7.382478 8.502960 17.516096
v -7.283015 8.502960 17.467745
v 7.334128 8.502960 17.467745
v -7.331365 8.177484 17.516096
v 7.382478 8.177484 17.516096
v -7.331365 8.502960 17.516096
v 7.382478 8.502960 17.516096
v 7.540241 8.145484 17.673857
v 7.334128 8.145484 17.467745
v -7.508524 8.145484 17.673857
v -7.283015 8.145484 17.467745
v -7.283015 8.177484 17.467745
v -7.283015 8.145484 17.467745
v 7.334128 8.177484 17.467745
v 7.334128 8.145484 17.467745
v -7.331365 8.177484 17.516096
v -7.283015 8.177484 17.467745
v 7.382478 8.177484 17.516096
v 7.334128 8.177484 17.467745
v 7.334128 8.502960 17.467745
v 7.334128 8.502959 -5.464808
v 7.334128 8.534959 17.467745
v 7.334128 8.534958 -5.464808
v 7.382478 8.502960 17.516096
v 7.382478 8.502959 -5.513161
v 7.334128 8.502960 17.467745
v 7.334128 8.502959 -5.464808
v 7.382478 8.177484 17.516096
v 7.382478 8.177483 -5.513161
v 7.382478 8.502960 17.516096
v 7.382478 8.502959 -5.513161
v 7.540241 8.145483 -5.709488
v 7.334128 8.145483 -5.464808
v 7.540241 8.145484 17.673857
v 7.334128 8.145484 17.467745
v 7.334128 8.145484 17.467745
v 7.334128 8.145483 -5.464808
v 7.334128 8.177484 17.467745
v 7.334128 8.177483 -5.464808
v 7.334128 8.177484 17.467745
v 7.334128 8.177483 -5.464808
v 7.382478 8.177484 17.516096
v 7.382478 8.177483 -5.513161
v -7.442899 7.043710 -5.653401
v -7.442899 7.043712 17.295723
v -7.442899 7.075710 -5.657754
v -7.442899 7.075712 17.300077
v -7.442899 7.075710 -5.657754
v -7.442899 7.075712 17.300077
v -7.491249 7.075710 -5.657754
v -7.491249 7.075712 17.300077
v -7.442899 7.433185 -5.653401
v -7.442899 7.433187 17.295723
v -7.649011 7.433185 -5.653401
v -7.649011 7.433187 17.295723
v 7.442899 7.401189 17.470575
v 7.442899 7.401187 -5.568951
v 7.442899 7.433187 17.466221
v 7.442899 7.433185 -5.564598
v 7.491249 7.401189 17.470575
v 7.491249 7.401187 -5.568951
v 7.442899 7.401189 17.470575
v 7.442899 7.401187 -5.568951
v 7.491249 7.075712 17.470575
v 7.491249 7.075710 -5.568951
v 7.491249 7.401189 17.470575
v 7.491249 7.401187 -5.568951
v 7.649011 7.043710 -5.564598
v 7.442899 7.043710 -5.564598
v 7.649011 7.043712 17.466221
v 7.442899 7.043712 17.466221
v 7.442899 3.479619 17.131140
v 7.442899 3.479617 -5.483611
v 7.442899 3.511617 17.126789
v 7.442899 3.511616 -5.479258
v 7.491249 3.479619 17.131140
v 7.491249 3.479617 -5.483611
v 7.442899 3.479619 17.131140
v 7.442899 3.479617 -5.483611
v 7.491249 3.154142 17.131140
v 7.491249 3.154140 -5.483611
v 7.491249 3.479619 17.131140
v 7.491249 3.479617 -5.483611
v 7.649011 3.122140 -5.479257
v 7.442899 3.122140 -5.479257
v 7.649011 3.122142 17.126789
v 7.442899 3.122142 17.126789
v -7.442899 3.479619 17.088154
v -7.442899 3.511617 17.083799
v -7.442899 3.479617 -5.657754
v -7.442899 3.511616 -5.653401
v -7.491249 3.479619 17.088154
v -7.442899 3.479619 17.088154
v -7.491249 3.479617 -5.657754
v -7.442899 3.479617 -5.657754
v -7.491249 3.154142 17.088154
v -7.491249 3.479619 17.088154
v -7.491249 3.154140 -5.657754
v -7.491249 3.479617 -5.657754
v -7.649011 3.122142 17.083799
v -7.442899 3.122142 17.083799
v -7.649011 3.122140 -5.653400
v -7.442899 3.122140 -5.653400
v -7.442899 3.154142 17.088154
v -7.442899 3.154140 -5.657754
v -7.442899 3.122142 17.083799
v -7.442899 3.122140 -5.653400
v -7.491249 3.154142 17.088154
v -7.491249 3.154140 -5.657754
v -7.442899 3.154142 17.088154
v -7.442899 3.154140 -5.657754
v -7.649011 3.511616 -5.653401
v -7.442899 3.511616 -5.653401
v -7.649011 3.511617 17.083799
v -7.442899 3.511617 17.083799
v 7.442899 3.122142 17.126789
v 7.442899 3.122140 -5.479257
v 7.442899 3.154142 17.131142
v 7.442899 3.154140 -5.483611
v 7.442899 3.154142 17.131142
v 7.442899 3.154140 -5.483611
v 7.491249 3.154142 17.131140
v 7.491249 3.154140 -5.483611
v 7.442899 3.511617 17.126789
v 7.442899 3.511616 -5.479258
v 7.649011 3.511617 17.126789
v 7.649011 3.511616 -5.479258
vn -0.0000 -0.0000 1.0000
vn -0.0000 -1.0000 -0.0000
vn -0.0000 1.0000 -0.0000
vn -0.0000 -0.0000 -1.0000
vn -1.0000 -0.0000 -0.0000
vn 1.0000 -0.0000 -0.0000
vn -0.5774 0.5774 -0.5773
vn -0.5774 0.5774 0.5773
vn 0.5774 0.5773 -0.5773
vn 0.5774 0.5773 0.5773
vn 0.5774 0.5773 0.5774
vn -0.5773 0.5774 0.5773
vn -0.5773 0.5774 -0.5773
vn 0.5773 0.5773 -0.5774
vn -0.5773 0.5773 0.5774
vn 0.5773 0.5774 0.5773
vn 0.5773 0.5774 -0.5773
vn -0.5773 -0.5774 0.5773
vn 0.5774 -0.5773 0.5774
vn -0.5774 -0.5774 -0.5773
vn 0.5774 -0.5773 -0.5773
vn -0.5774 -0.5774 0.5774
vn 0.5773 -0.5774 0.5773
vn -0.5774 0.5774 0.5774
vn 0.5774 0.5774 -0.5773
vn 0.5774 -0.5774 -0.5773
vn -0.7071 -0.0000 -0.7071
vn -0.7071 -0.0000 0.7071
vn -0.0000 0.7071 -0.7071
vn -0.7071 0.7071 -0.0000
vn -0.0000 0.7071 0.7071
vn 0.7071 -0.0000 -0.7071
vn 0.7071 0.7071 -0.0000
vn 0.7071 -0.0000 0.7071
vn 0.7718 -0.0000 0.6359
vn 0.7715 -0.0000 0.6363
vn 0.6506 0.5370 0.5370
vn -0.7720 -0.0000 0.6356
vn -0.7718 -0.0000 0.6359
vn -0.6506 0.5370 0.5370
vn -0.1958 0.6934 -0.6934
vn -0.2704 -0.0000 -0.9628
vn -0.2704 -0.0000 -0.9627
vn -0.2705 -0.0000 -0.9627
vn 0.2212 0.6896 -0.6896
vn 0.2213 0.6896 -0.6896
vn 0.2215 0.6895 -0.6895
vn 0.3075 -0.0000 -0.9515
vn 0.3425 -0.0000 0.9395
vn -0.3425 -0.0000 0.9395
vn 0.3570 -0.9341 -0.0000
vn 0.3562 -0.9344 -0.0000
vn -0.3562 -0.9344 -0.0000
vn -0.3566 -0.9343 -0.0000
vn -0.2684 -0.0000 -0.9633
vn -0.2679 -0.0000 -0.9634
vn 0.2684 -0.0000 -0.9633
vn -0.7071 -0.7071 -0.0000
vn 0.6361 -0.0000 -0.7716
vn 0.6363 -0.0000 -0.7715
vn 0.6358 -0.0000 -0.7718
vn 0.6365 -0.0000 -0.7713
vn 0.5370 0.5370 -0.6506
vn 0.6361 -0.0000 0.7716
vn 0.6363 -0.0000 0.7715
vn 0.6358 -0.0000 0.7718
vn 0.6365 -0.0000 0.7713
vn 0.5370 0.5370 0.6506
vn -0.6934 0.6934 0.1958
vn -0.9627 -0.0000 0.2706
vn -0.9627 -0.0000 0.2707
vn -0.9627 -0.0000 0.2705
vn -0.6896 0.6896 -0.2213
vn -0.6895 0.6895 -0.2215
vn -0.6896 0.6896 -0.2211
vn -0.9515 -0.0000 -0.3075
vn 0.9395 -0.0000 -0.3425
vn 0.9395 -0.0000 0.3425
vn -0.0000 -0.9344 -0.3562
vn -0.0000 -0.9342 -0.3567
vn -0.0000 -0.9343 -0.3566
vn -0.0000 -0.9341 -0.3571
vn -0.0000 -0.9342 0.3569
vn -0.0000 -0.9341 0.3570
vn -0.0000 -0.9341 0.3571
vn -0.0000 -0.9342 0.3567
vn -0.9633 -0.0000 0.2684
vn -0.9633 -0.0000 -0.2684
vn -0.0000 -0.7071 0.7071
vn 0.7071 -0.7071 -0.0000
vn -0.0000 -0.7071 -0.7071
vt 8.710938 1.771973
vt 12.164062 1.745605
vt 8.710938 1.745117
vt 12.164062 1.772461
vt 8.718750 1.649902
vt 12.171875 1.635254
vt 8.718750 1.637207
vt 12.171875 1.648438
vt 10.039062 0.641113
vt 13.492188 0.715332
vt 13.492188 0.641113
vt 10.039062 0.715332
vt 13.031250 1.745605
vt 16.484375 1.772461
vt 16.484375 1.745605
vt 13.031250 1.772461
vt 13.031250 1.635254
vt 16.484375 1.648438
vt 16.484375 1.635254
vt 13.031250 1.647949
vt 4.472656 1.775879
vt 7.925781 1.802734
vt 7.925781 1.775879
vt 4.472656 1.802734
vt 4.457031 1.665527
vt 7.910156 1.680664
vt 7.910156 1.667480
vt 4.457031 1.678711
vt -2.912109 0.745605
vt 0.541992 0.671631
vt -2.912109 0.671631
vt 0.541992 0.745605
vt 0.149048 1.802734
vt 3.601562 1.775879
vt 0.149048 1.775879
vt 3.601562 1.802734
vt 0.149048 1.678711
vt 3.601562 1.665527
vt 0.149048 1.665527
vt 3.601562 1.678711
vt 0.883789 2.784180
vt 4.937500 2.655273
vt 0.883789 2.655273
vt 4.937500 2.784180
vt 5.058594 1.771973
vt 8.507812 1.745605
vt 5.058594 1.745117
vt 8.507812 1.772461
vt 5.070312 1.649902
vt 8.523438 1.635254
vt 5.070312 1.637207
vt 8.523438 1.648438
vt 6.390625 0.641113
vt 9.843750 0.715332
vt 9.843750 0.641113
vt 6.390625 0.715332
vt 9.375000 1.745605
vt 12.828125 1.772461
vt 12.828125 1.745605
vt 9.375000 1.772461
vt 9.375000 1.635254
vt 12.828125 1.648438
vt 12.828125 1.635254
vt 9.375000 1.647949
vt 0.820312 1.775879
vt 4.273438 1.802734
vt 4.273438 1.775879
vt 0.820312 1.802734
vt 0.806641 1.665527
vt 4.257812 1.680664
vt 4.257812 1.667480
vt 0.806641 1.678711
vt -6.562500 0.745605
vt -3.109375 0.671631
vt -6.562500 0.671631
vt -3.109375 0.745605
vt -3.501953 1.802734
vt -0.048462 1.775879
vt -3.501953 1.775879
vt -0.048462 1.802734
vt -3.501953 1.678711
vt -0.048462 1.665527
vt -3.501953 1.665527
vt -0.048462 1.678711
vt -3.400391 2.784180
vt 0.651855 2.655273
vt -3.400391 2.655273
vt 0.651855 2.784180
vt 7.265625 1.771973
vt 10.718750 1.745605
vt 7.265625 1.745117
vt 10.718750 1.772461
vt 7.277344 1.649902
vt 10.734375 1.635254
vt 7.277344 1.637207
vt 10.734375 1.648438
vt 8.593750 0.641113
vt 12.046875 0.715332
vt 12.046875 0.641113
vt 8.593750 0.715332
vt 11.585938 1.745605
vt 15.039062 1.772461
vt 15.039062 1.745605
vt 11.585938 1.772461
vt 11.585938 1.635254
vt 15.039062 1.648438
vt 15.039062 1.635254
vt 11.585938 1.647949
vt 3.027344 1.775879
vt 6.480469 1.802734
vt 6.480469 1.775879
vt 3.027344 1.802734
vt 3.013672 1.665527
vt 6.464844 1.680664
vt 6.464844 1.667480
vt 3.013672 1.678711
vt -4.355469 0.745605
vt -0.901855 0.671631
vt -4.355469 0.671631
vt -0.901855 0.745605
vt -1.294922 1.802734
vt 2.158203 1.775879
vt -1.294922 1.775879
vt 2.158203 1.802734
vt -1.294922 1.678711
vt 2.158203 1.665527
vt -1.294922 1.665527
vt 2.158203 1.678711
vt -0.810547 2.784180
vt 3.242188 2.655273
vt -0.810547 2.655273
vt 3.242188 2.784180
vt 3.498047 1.771973
vt 6.949219 1.745605
vt 3.498047 1.745117
vt 6.949219 1.772461
vt 3.511719 1.649902
vt 6.964844 1.635254
vt 3.511719 1.637207
vt 6.964844 1.648438
vt 4.832031 0.641113
vt 8.281250 0.715332
vt 8.281250 0.641113
vt 4.832031 0.715332
vt 7.820312 1.745605
vt 11.273438 1.772461
vt 11.273438 1.745605
vt 7.820312 1.772461
vt 7.820312 1.635254
vt 11.273438 1.648438
vt 11.273438 1.635254
vt 7.820312 1.647949
vt -0.739258 1.775879
vt 2.712891 1.802734
vt 2.712891 1.775879
vt -0.739258 1.802734
vt -0.752930 1.665527
vt 2.699219 1.680664
vt 2.699219 1.667480
vt -0.752930 1.678711
vt -8.125000 0.745605
vt -4.667969 0.671631
vt -8.125000 0.671631
vt -4.667969 0.745605
vt -5.062500 1.802734
vt -1.608398 1.775879
vt -5.062500 1.775879
vt -1.608398 1.802734
vt -5.062500 1.678711
vt -1.608398 1.665527
vt -5.062500 1.665527
vt -1.608398 1.678711
vt -5.230469 2.784180
vt -1.178711 2.655273
vt -5.230469 2.655273
vt -1.178711 2.784180
vt 5.722656 1.771973
vt 9.171875 1.745605
vt 5.722656 1.745117
vt 9.171875 1.772461
vt 5.734375 1.649902
vt 9.187500 1.635254
vt 5.734375 1.637207
vt 9.187500 1.648438
vt 7.054688 0.641113
vt 10.507812 0.715332
vt 10.507812 0.641113
vt 7.054688 0.715332
vt 10.039062 1.745605
vt 13.492188 1.772461
vt 13.492188 1.745605
vt 10.039062 1.772461
vt 10.039062 1.635254
vt 13.492188 1.648438
vt 13.492188 1.635254
vt 10.039062 1.647949
vt 1.484375 1.775879
vt 4.937500 1.802734
vt 4.937500 1.775879
vt 1.484375 1.802734
vt 1.470703 1.665527
vt 4.921875 1.680664
vt 4.921875 1.667480
vt 1.470703 1.678711
vt -5.898438 0.745605
vt -2.445312 0.671631
vt -5.898438 0.671631
vt -2.445312 0.745605
vt -2.837891 1.802734
vt 0.615234 1.775879
vt -2.837891 1.775879
vt 0.615234 1.802734
vt -2.837891 1.678711
vt 0.615234 1.665527
vt -2.837891 1.665527
vt 0.615234 1.678711
vt -2.621094 2.784180
vt 1.430664 2.655273
vt -2.621094 2.655273
vt 1.430664 2.784180
vt 8.625000 1.771973
vt 14.523438 1.745605
vt 8.625000 1.745117
vt 14.523438 1.772461
vt 8.648438 1.649902
vt 14.546875 1.635254
vt 8.648438 1.637207
vt 14.546875 1.648438
vt 10.898438 0.641113
vt 16.796875 0.715332
vt 16.796875 0.641113
vt 10.898438 0.715332
vt 16.000000 1.745605
vt 21.906250 1.772461
vt 21.906250 1.745605
vt 16.000000 1.772461
vt 16.000000 1.635254
vt 21.906250 1.648438
vt 21.906250 1.635254
vt 16.000000 1.647949
vt 1.387695 1.775879
vt 7.285156 1.802734
vt 7.285156 1.775879
vt 1.387695 1.802734
vt 1.365234 1.665527
vt 7.261719 1.680664
vt 7.261719 1.667480
vt 1.365234 1.678711
vt -11.218750 0.745605
vt -5.324219 0.671631
vt -11.218750 0.671631
vt -5.324219 0.745605
vt -5.992188 1.802734
vt -0.095825 1.775879
vt -5.992188 1.775879
vt -0.095764 1.802734
vt -5.992188 1.678711
vt -0.095764 1.665527
vt -5.992188 1.665527
vt -0.095764 1.678711
vt 0.792969 3.750000
vt 8.226562 3.673828
vt 0.792969 3.673828
vt 8.226562 3.750000
vt -5.117188 3.750000
vt 2.316406 3.673828
vt -5.117188 3.673828
vt 2.316406 3.750000
vt -2.701172 3.750000
vt 4.730469 3.673828
vt -2.701172 3.673828
vt 4.730469 3.750000
vt -1.115234 3.750000
vt 6.316406 3.673828
vt -1.115234 3.673828
vt 6.316406 3.750000
vt 0.470947 0.786377
vt 0.470947 0.651855
vt 0.494385 0.786377
vt 0.440674 0.786377
vt 0.440674 0.801758
vt 0.440674 0.651855
vt 0.440674 0.636475
vt 0.611816 0.786377
vt 0.642090 0.786377
vt 0.611816 0.802612
vt 0.611816 0.651855
vt 0.611816 0.635498
vt 0.642090 0.651855
vt 0.564941 0.651855
vt 0.588379 0.786377
vt -0.818848 0.780029
vt -0.818848 0.805908
vt -0.834473 0.780029
vt -0.818848 0.660400
vt -0.834473 0.660400
vt -0.818848 0.634521
vt -0.701660 0.780029
vt -0.674805 0.780029
vt -0.701660 0.805908
vt -0.701660 0.660400
vt -0.701660 0.634521
vt -0.674805 0.660400
vt -0.549316 0.780029
vt -0.522461 0.780029
vt -0.549316 0.794434
vt -0.549316 0.660400
vt -0.549316 0.645996
vt -0.522461 0.660400
vt -0.405029 0.780029
vt -0.378174 0.780029
vt -0.405029 0.794434
vt -0.405029 0.660400
vt -0.405029 0.645996
vt -0.378174 0.660400
vt 0.564941 0.786377
vt 0.518066 0.651855
vt 0.518066 0.786377
vt 0.308105 0.786377
vt 0.308105 0.801758
vt 0.308105 0.636475
vt 0.308105 0.651855
vt 0.494385 0.802612
vt 0.470947 0.802612
vt 0.470947 0.635498
vt 0.518066 0.635498
vt 0.774902 0.802612
vt 0.642090 0.802612
vt 0.774902 0.786377
vt 0.642090 0.635498
vt 0.774902 0.651855
vt 0.774902 0.635498
vt 1.101562 0.773315
vt 1.233398 0.726318
vt 1.233398 0.773315
vt 1.101562 0.726318
vt 1.432617 0.770020
vt 1.457031 0.637451
vt 1.457031 0.770020
vt 1.432617 0.637451
vt 0.494385 0.651855
vt 0.494385 0.635498
vt 1.101562 0.749756
vt 1.233398 0.749756
vt 1.304688 0.637451
vt 1.304688 0.770020
vt 1.233398 0.679199
vt 1.101562 0.679199
vt 0.564941 0.635498
vt 1.101562 0.655762
vt 1.233398 0.655762
vt 0.588379 0.651855
vt 0.588379 0.635498
vt 1.101562 0.632080
vt 1.233398 0.632080
vt 0.588379 0.802612
vt 1.280273 0.770020
vt 1.280273 0.637451
vt 0.564941 0.802612
vt 1.256836 0.770020
vt 1.256836 0.637451
vt 0.518066 0.802612
vt 1.480469 0.637451
vt 1.480469 0.770020
vt 1.015625 0.782837
vt 0.811035 0.797485
vt 0.785645 0.782837
vt 0.989746 0.797485
vt 1.015625 0.629639
vt 0.785645 0.629639
vt -2.677734 -0.300781
vt -1.764648 -0.364258
vt -1.764648 -0.300781
vt -2.677734 -0.364258
vt -0.819336 -0.351562
vt -1.726562 -0.308594
vt -1.726562 -0.351562
vt -0.819336 -0.308594
vt -0.819336 -0.297852
vt -1.726562 -0.201172
vt -1.726562 -0.297852
vt -0.819336 -0.201172
vt -1.764648 -0.203125
vt -2.677734 -0.210938
vt -1.764648 -0.210938
vt -2.677734 -0.203125
vt -0.900879 -0.206055
vt 0.982910 -0.361328
vt 0.982910 -0.206055
vt -0.900879 -0.361328
vt -0.919434 -0.219727
vt 0.934082 -0.342773
vt 0.934082 -0.219727
vt -0.919434 -0.342773
vt 0.849609 -0.195312
vt 2.193359 -0.365234
vt 2.193359 -0.195312
vt 0.849609 -0.365234
vt -1.005859 -0.229492
vt 1.018555 -0.197266
vt -1.005859 -0.197266
vt 1.018555 -0.229492
vt -0.919434 -0.222656
vt 0.934082 -0.339844
vt 0.934082 -0.222656
vt -0.919434 -0.339844
vt 2.193359 -0.208984
vt 0.849609 -0.208984
vt -1.005859 -0.368164
vt 1.018555 -0.368164
vt 0.849609 -0.240234
vt 2.193359 -0.240234
vt 0.849609 -0.302734
vt 2.193359 -0.302734
vt 0.849609 -0.333984
vt 2.193359 -0.333984
vt -2.683594 -0.228516
vt -1.764648 -0.228516
vt -2.683594 -0.264648
vt -1.764648 -0.264648
vt -2.677734 -0.283203
vt -1.764648 -0.283203
vt -1.005859 -0.260742
vt 1.018555 -0.260742
vt -1.005859 -0.323242
vt 1.018555 -0.323242
vt -1.005859 -0.354492
vt 1.018555 -0.354492
vt 0.934082 -0.198242
vt -0.919434 -0.198242
vt -0.919434 -0.364258
vt 0.934082 -0.364258
vt -1.726562 -0.361328
vt -0.819336 -0.361328
vt -0.252686 0.794434
vt -0.252686 0.780029
vt -0.378174 0.794434
vt -0.252686 0.660400
vt -0.378174 0.645996
vt -0.252686 0.645996
vt -0.674805 0.794434
vt -0.674805 0.645996
vt -0.522461 0.794434
vt -0.522461 0.645996
vt -1.424805 0.780029
vt -1.288086 0.652344
vt -1.288086 0.780029
vt -1.424805 0.652344
vt -1.102539 0.780029
vt -0.966309 0.652344
vt -0.966309 0.780029
vt -1.102539 0.652344
vt 2.076172 -0.333008
vt -2.072266 -0.338867
vt 2.078125 -0.338867
vt -2.070312 -0.333008
vt -2.072266 -0.346680
vt 2.078125 -0.346680
vt 2.076172 -0.250977
vt -2.072266 -0.216797
vt -2.072266 -0.250977
vt 2.076172 -0.216797
vt -2.072266 -0.210938
vt 2.076172 -0.210938
vt -2.072266 -0.203125
vt 2.076172 -0.203125
vt -2.064453 -0.225586
vt 2.066406 -0.316406
vt 2.066406 -0.225586
vt -2.064453 -0.316406
vt -2.070312 -0.297852
vt 2.076172 -0.297852
vt -3.820312 -0.241211
vt 3.837891 -0.234375
vt -3.820312 -0.234375
vt 3.835938 -0.241211
vt 3.837891 -0.223633
vt -3.820312 -0.223633
vt -3.804688 -0.326172
vt 3.802734 -0.230469
vt -3.804688 -0.230469
vt 3.802734 -0.326172
vt 3.835938 -0.286133
vt -3.820312 -0.286133
vt -2.066406 -0.337891
vt 2.078125 -0.337891
vt -2.064453 -0.333008
vt -2.066406 -0.346680
vt 2.062500 -0.226562
vt 2.062500 -0.316406
vt -2.064453 -0.226562
vt -2.066406 -0.216797
vt -2.066406 -0.250977
vt -2.068359 -0.211914
vt 2.078125 -0.211914
vt -2.068359 -0.203125
vt 2.078125 -0.203125
vt -2.064453 -0.297852
vt -3.824219 -0.241211
vt -3.826172 -0.234375
vt -3.826172 -0.223633
vt -3.824219 -0.286133
vt -1.388672 -0.197266
vt 1.770508 -0.224609
vt -1.388672 -0.224609
vt 1.770508 -0.197266
vt -1.388672 -0.321289
vt 1.770508 -0.333984
vt -1.388672 -0.333984
vt 1.770508 -0.321289
vt -1.388672 -0.319336
vt -1.388672 -0.332031
vt 1.770508 -0.253906
vt -1.388672 -0.328125
vt -1.388672 -0.253906
vt 1.770508 -0.328125
vt 1.833008 -0.228516
vt -1.388672 -0.317383
vt -1.451172 -0.228516
vt 1.770508 -0.317383
vt -3.195312 -0.224609
vt -3.195312 -0.197266
vt -3.195312 -0.332031
vt -3.195312 -0.319336
vt -3.195312 -0.253906
vt -3.195312 -0.328125
vt 1.825195 -0.228516
vt -3.195312 -0.317383
vt -3.250000 -0.228516
vt -3.195312 -0.333984
vt -3.195312 -0.321289
vt 1.817383 -0.228516
vt -1.435547 -0.228516
vt 3.750000 -0.197266
vt 3.750000 -0.224609
vt 3.750000 -0.321289
vt 3.750000 -0.333984
vt 3.750000 -0.328125
vt 3.750000 -0.253906
vt 3.839844 -0.228516
vt -1.478516 -0.228516
vt 3.750000 -0.317383
vt 3.806641 -0.231445
vt -3.804688 -0.231445
vt 3.806641 -0.326172
vt 1.534180 -0.294922
vt -1.504883 -0.298828
vt 1.535156 -0.298828
vt -1.503906 -0.294922
vt -1.504883 -0.306641
vt 1.535156 -0.305664
vt 1.526367 -0.257812
vt -1.529297 -0.301758
vt 1.526367 -0.301758
vt -1.529297 -0.257812
vt -1.503906 -0.267578
vt 1.534180 -0.267578
vt -1.505859 -0.273438
vt 1.534180 -0.278320
vt 1.534180 -0.273438
vt -1.504883 -0.278320
vt -1.505859 -0.267578
vt 1.534180 -0.305664
vt -1.504883 -0.305664
s 1
f 3/1/1 2/2/1 1/3/1
f 2/2/1 3/1/1 4/4/1
f 7/5/2 6/6/2 5/7/2
f 6/6/2 7/5/2 8/8/2
f 11/9/1 10/10/1 9/11/1
f 10/10/1 11/9/1 12/12/1
f 15/13/1 14/14/1 13/15/1
f 14/14/1 15/13/1 16/16/1
f 19/17/3 18/18/3 17/19/3
f 18/18/3 19/17/3 20/20/3
f 23/21/4 22/22/4 21/23/4
f 22/22/4 23/21/4 24/24/4
f 27/25/2 26/26/2 25/27/2
f 26/26/2 27/25/2 28/28/2
f 31/29/4 30/30/4 29/31/4
f 30/30/4 31/29/4 32/32/4
f 35/33/4 34/34/4 33/35/4
f 34/34/4 35/33/4 36/36/4
f 39/37/3 38/38/3 37/39/3
f 38/38/3 39/37/3 40/40/3
f 43/41/2 42/42/2 41/43/2
f 42/42/2 43/41/2 44/44/2
f 47/45/1 46/46/1 45/47/1
f 46/46/1 47/45/1 48/48/1
f 51/49/2 50/50/2 49/51/2
f 50/50/2 51/49/2 52/52/2
f 55/53/1 54/54/1 53/55/1
f 54/54/1 55/53/1 56/56/1
f 59/57/1 58/58/1 57/59/1
f 58/58/1 59/57/1 60/60/1
f 63/61/3 62/62/3 61/63/3
f 62/62/3 63/61/3 64/64/3
f 67/65/4 66/66/4 65/67/4
f 66/66/4 67/65/4 68/68/4
f 71/69/2 70/70/2 69/71/2
f 70/70/2 71/69/2 72/72/2
f 75/73/4 74/74/4 73/75/4
f 74/74/4 75/73/4 76/76/4
f 79/77/4 78/78/4 77/79/4
f 78/78/4 79/77/4 80/80/4
f 83/81/3 82/82/3 81/83/3
f 82/82/3 83/81/3 84/84/3
f 87/85/2 86/86/2 85/87/2
f 86/86/2 87/85/2 88/88/2
f 91/89/1 90/90/1 89/91/1
f 90/90/1 91/89/1 92/92/1
f 95/93/2 94/94/2 93/95/2
f 94/94/2 95/93/2 96/96/2
f 99/97/1 98/98/1 97/99/1
f 98/98/1 99/97/1 100/100/1
f 103/101/1 102/102/1 101/103/1
f 102/102/1 103/101/1 104/104/1
f 107/105/3 106/106/3 105/107/3
f 106/106/3 107/105/3 108/108/3
f 111/109/4 110/110/4 109/111/4
f 110/110/4 111/109/4 112/112/4
f 115/113/2 114/114/2 113/115/2
f 114/114/2 115/113/2 116/116/2
f 119/117/4 118/118/4 117/119/4
f 118/118/4 119/117/4 120/120/4
f 123/121/4 122/122/4 121/123/4
f 122/122/4 123/121/4 124/124/4
f 127/125/3 126/126/3 125/127/3
f 126/126/3 127/125/3 128/128/3
f 131/129/2 130/130/2 129/131/2
f 130/130/2 131/129/2 132/132/2
f 135/133/1 134/134/1 133/135/1
f 134/134/1 135/133/1 136/136/1
f 139/137/2 138/138/2 137/139/2
f 138/138/2 139/137/2 140/140/2
f 143/141/1 142/142/1 141/143/1
f 142/142/1 143/141/1 144/144/1
f 147/145/1 146/146/1 145/147/1
f 146/146/1 147/145/1 148/148/1
f 151/149/3 150/150/3 149/151/3
f 150/150/3 151/149/3 152/152/3
f 155/153/4 154/154/4 153/155/4
f 154/154/4 155/153/4 156/156/4
f 159/157/2 158/158/2 157/159/2
f 158/158/2 159/157/2 160/160/2
f 163/161/4 162/162/4 161/163/4
f 162/162/4 163/161/4 164/164/4
f 167/165/4 166/166/4 165/167/4
f 166/166/4 167/165/4 168/168/4
f 171/169/3 170/170/3 169/171/3
f 170/170/3 171/169/3 172/172/3
f 175/173/2 174/174/2 173/175/2
f 174/174/2 175/173/2 176/176/2
f 179/177/1 178/178/1 177/179/1
f 178/178/1 179/177/1 180/180/1
f 183/181/2 182/182/2 181/183/2
f 182/182/2 183/181/2 184/184/2
f 187/185/1 186/186/1 185/187/1
f 186/186/1 187/185/1 188/188/1
f 191/189/1 190/190/1 189/191/1
f 190/190/1 191/189/1 192/192/1
f 195/193/3 194/194/3 193/195/3
f 194/194/3 195/193/3 196/196/3
f 199/197/4 198/198/4 197/199/4
f 198/198/4 199/197/4 200/200/4
f 203/201/2 202/202/2 201/203/2
f 202/202/2 203/201/2 204/204/2
f 207/205/4 206/206/4 205/207/4
f 206/206/4 207/205/4 208/208/4
f 211/209/4 210/210/4 209/211/4
f 210/210/4 211/209/4 212/212/4
f 215/213/3 214/214/3 213/215/3
f 214/214/3 215/213/3 216/216/3
f 219/217/2 218/218/2 217/219/2
f 218/218/2 219/217/2 220/220/2
f 223/221/5 222/222/5 221/223/5
f 222/222/5 223/221/5 224/224/5
f 227/225/2 226/226/2 225/227/2
f 226/226/2 227/225/2 228/228/2
f 231/229/5 230/230/5 229/231/5
f 230/230/5 231/229/5 232/232/5
f 235/233/5 234/234/5 233/235/5
f 234/234/5 235/233/5 236/236/5
f 239/237/3 238/238/3 237/239/3
f 238/238/3 239/237/3 240/240/3
f 243/241/6 242/242/6 241/243/6
f 242/242/6 243/241/6 244/244/6
f 247/245/2 246/246/2 245/247/2
f 246/246/2 247/245/2 248/248/2
f 251/249/6 250/250/6 249/251/6
f 250/250/6 251/249/6 252/252/6
f 255/253/6 254/254/6 253/255/6
f 254/254/6 255/253/6 256/256/6
f 259/257/3 258/258/3 257/259/3
f 258/258/3 259/257/3 260/260/3
f 263/261/2 262/262/2 261/263/2
f 262/262/2 263/261/2 264/264/2
f 267/221/5 266/222/5 265/223/5
f 266/222/5 267/221/5 268/224/5
f 271/225/2 270/226/2 269/227/2
f 270/226/2 271/225/2 272/228/2
f 275/229/5 274/230/5 273/231/5
f 274/230/5 275/229/5 276/232/5
f 279/233/5 278/234/5 277/235/5
f 278/234/5 279/233/5 280/236/5
f 283/237/3 282/238/3 281/239/3
f 282/238/3 283/237/3 284/240/3
f 287/241/6 286/242/6 285/243/6
f 286/242/6 287/241/6 288/244/6
f 291/245/2 290/246/2 289/247/2
f 290/246/2 291/245/2 292/248/2
f 295/249/6 294/250/6 293/251/6
f 294/250/6 295/249/6 296/252/6
f 299/253/6 298/254/6 297/255/6
f 298/254/6 299/253/6 300/256/6
f 303/257/3 302/258/3 301/259/3
f 302/258/3 303/257/3 304/260/3
f 307/265/2 306/266/2 305/267/2
f 306/266/2 307/265/2 308/268/2
f 311/221/5 310/222/5 309/223/5
f 310/222/5 311/221/5 312/224/5
f 315/225/2 314/226/2 313/227/2
f 314/226/2 315/225/2 316/228/2
f 319/229/5 318/230/5 317/231/5
f 318/230/5 319/229/5 320/232/5
f 323/233/5 322/234/5 321/235/5
f 322/234/5 323/233/5 324/236/5
f 327/237/3 326/238/3 325/239/3
f 326/238/3 327/237/3 328/240/3
f 331/241/6 330/242/6 329/243/6
f 330/242/6 331/241/6 332/244/6
f 335/245/2 334/246/2 333/247/2
f 334/246/2 335/245/2 336/248/2
f 339/249/6 338/250/6 337/251/6
f 338/250/6 339/249/6 340/252/6
f 343/253/6 342/254/6 341/255/6
f 342/254/6 343/253/6 344/256/6
f 347/257/3 346/258/3 345/259/3
f 346/258/3 347/257/3 348/260/3
f 351/269/2 350/270/2 349/271/2
f 350/270/2 351/269/2 352/272/2
f 355/221/5 354/222/5 353/223/5
f 354/222/5 355/221/5 356/224/5
f 359/225/2 358/226/2 357/227/2
f 358/226/2 359/225/2 360/228/2
f 363/229/5 362/230/5 361/231/5
f 362/230/5 363/229/5 364/232/5
f 367/233/5 366/234/5 365/235/5
f 366/234/5 367/233/5 368/236/5
f 371/237/3 370/238/3 369/239/3
f 370/238/3 371/237/3 372/240/3
f 375/241/6 374/242/6 373/243/6
f 374/242/6 375/241/6 376/244/6
f 379/245/2 378/246/2 377/247/2
f 378/246/2 379/245/2 380/248/2
f 383/249/6 382/250/6 381/251/6
f 382/250/6 383/249/6 384/252/6
f 387/253/6 386/254/6 385/255/6
f 386/254/6 387/253/6 388/256/6
f 391/257/3 390/258/3 389/259/3
f 390/258/3 391/257/3 392/260/3
f 395/273/2 394/274/2 393/275/2
f 394/274/2 395/273/2 396/276/2
f 435/277/3 434/278/3 433/279/3
f 450/280/7 449/277/7 448/281/7
f 453/282/8 452/283/8 451/278/8
f 456/284/9 455/285/9 454/286/9
f 459/287/10 458/288/10 457/289/10
f 514/280/7 513/277/7 512/281/7
f 517/282/8 516/283/8 515/278/8
f 520/284/9 519/285/9 518/286/9
f 523/287/11 522/288/11 521/289/11
f 578/290/3 577/287/3 576/291/3
f 796/280/12 795/277/12 794/281/12
f 799/282/11 798/283/11 797/278/11
f 802/284/13 801/285/13 800/286/13
f 805/287/14 804/288/14 803/289/14
f 860/280/15 859/277/15 858/281/15
f 863/282/16 862/283/16 861/278/16
f 866/284/13 865/285/13 864/286/13
f 869/287/17 868/288/17 867/289/17
f 924/290/3 923/287/3 922/291/3
f 1139/292/18 1138/293/18 1137/294/18
f 1142/295/19 1141/296/19 1140/297/19
f 1145/298/12 1144/299/12 1143/300/12
f 1148/301/11 1147/302/11 1146/303/11
f 1151/304/7 1150/305/7 1149/306/7
f 1154/307/9 1153/308/9 1152/309/9
f 1157/310/20 1156/311/20 1155/312/20
f 1160/313/21 1159/314/21 1158/315/21
f 1235/292/22 1234/293/22 1233/294/22
f 1238/295/23 1237/296/23 1236/297/23
f 1241/298/24 1240/299/24 1239/300/24
f 1244/301/16 1243/302/16 1242/303/16
f 1247/304/7 1246/305/7 1245/306/7
f 1250/307/25 1249/308/25 1248/309/25
f 1253/310/20 1252/311/20 1251/312/20
f 1256/313/26 1255/314/26 1254/315/26
f 1287/287/3 1286/284/3 1285/291/3
f 1290/316/3 1289/290/3 1288/291/3
f 1293/317/3 1292/318/3 1291/279/3
f 1301/287/3 1300/284/3 1299/291/3
f 1304/316/3 1303/290/3 1302/291/3
f 1307/317/3 1306/318/3 1305/279/3
f 1310/278/3 1309/317/3 1308/279/3
f 399/319/27 398/281/27 397/320/27
f 398/281/27 399/319/27 400/280/27
f 403/321/28 402/282/28 401/322/28
f 402/282/28 403/321/28 404/283/28
f 407/277/29 406/323/29 405/324/29
f 406/323/29 407/277/29 408/279/29
f 411/280/30 410/278/30 409/277/30
f 410/278/30 411/280/30 412/282/30
f 415/325/31 414/317/31 413/278/31
f 414/317/31 415/325/31 416/326/31
f 419/285/32 418/327/32 417/328/32
f 418/327/32 419/285/32 420/329/32
f 423/284/33 422/289/33 421/285/33
f 422/289/33 423/284/33 424/287/33
f 427/330/34 426/331/34 425/289/34
f 426/331/34 427/330/34 428/332/34
f 431/322/5 430/280/5 429/319/5
f 430/280/5 431/322/5 432/282/5
f 438/289/6 437/329/6 436/285/6
f 437/329/6 438/289/6 439/331/6
f 442/333/1 441/334/1 440/335/1
f 441/334/1 442/333/1 443/336/1
f 446/337/4 445/338/4 444/339/4
f 445/338/4 446/337/4 447/340/4
f 462/319/27 461/281/27 460/320/27
f 461/281/27 462/319/27 463/280/27
f 466/321/28 465/282/28 464/322/28
f 465/282/28 466/321/28 467/283/28
f 470/277/29 469/286/29 468/324/29
f 469/286/29 470/277/29 471/284/29
f 474/280/30 473/278/30 472/277/30
f 473/278/30 474/280/30 475/282/30
f 478/325/31 477/341/31 476/278/31
f 477/341/31 478/325/31 479/342/31
f 482/285/32 481/327/32 480/328/32
f 481/327/32 482/285/32 483/329/32
f 486/284/33 485/289/33 484/285/33
f 485/289/33 486/284/33 487/287/33
f 490/330/34 489/331/34 488/289/34
f 489/331/34 490/330/34 491/332/34
f 494/322/5 493/280/5 492/319/5
f 493/280/5 494/322/5 495/282/5
f 498/317/3 497/284/3 496/277/3
f 497/284/3 498/317/3 499/290/3
f 502/289/6 501/329/6 500/285/6
f 501/329/6 502/289/6 503/331/6
f 506/343/1 505/335/1 504/333/1
f 505/335/1 506/343/1 507/344/1
f 510/337/4 509/345/4 508/346/4
f 509/345/4 510/337/4 511/340/4
f 526/336/35 525/344/35 524/343/36
f 525/344/35 526/336/35 527/334/36
f 530/342/37 529/317/37 528/341/37
f 529/317/37 530/342/37 531/326/37
f 534/336/1 533/347/1 532/334/1
f 533/347/1 534/336/1 535/348/1
f 538/326/31 537/290/31 536/317/31
f 537/290/31 538/326/31 539/349/31
f 542/350/38 541/347/38 540/348/39
f 541/347/38 542/350/38 543/351/39
f 546/349/40 545/352/40 544/290/40
f 545/352/40 546/349/40 547/353/40
f 550/290/3 549/287/3 548/284/3
f 549/287/3 550/290/3 551/352/3
f 554/354/1 553/351/1 552/350/1
f 553/351/1 554/354/1 555/355/1
f 558/353/31 557/287/31 556/352/31
f 557/287/31 558/353/31 559/288/31
f 562/291/29 561/286/29 560/356/29
f 561/286/29 562/291/29 563/284/29
f 566/357/4 565/345/4 564/346/4
f 565/345/4 566/357/4 567/358/4
f 570/347/1 569/354/1 568/355/1
f 569/354/1 570/347/1 571/348/1
f 574/349/31 573/287/31 572/290/31
f 573/287/31 574/349/31 575/288/31
f 581/316/41 580/356/41 579/359/41
f 580/356/41 581/316/41 582/291/41
f 585/360/42 584/358/43 583/357/44
f 584/358/43 585/360/42 586/361/44
f 589/279/45 588/362/46 587/323/46
f 588/362/46 589/279/45 590/318/47
f 593/339/48 592/363/48 591/364/48
f 592/363/48 593/339/48 594/338/48
f 597/365/6 596/366/6 595/367/6
f 596/366/6 597/365/6 598/368/6
f 601/369/5 600/367/5 599/370/5
f 600/367/5 601/369/5 602/365/5
f 605/365/5 604/366/5 603/367/5
f 604/366/5 605/365/5 606/368/5
f 609/369/6 608/367/6 607/370/6
f 608/367/6 609/369/6 610/365/6
f 613/371/6 612/372/6 611/373/6
f 612/372/6 613/371/6 614/374/6
f 617/375/5 616/376/5 615/377/5
f 616/376/5 617/375/5 618/378/5
f 621/379/3 620/380/3 619/381/3
f 620/380/3 621/379/3 622/382/3
f 625/383/2 624/384/2 623/385/2
f 624/384/2 625/383/2 626/386/2
f 629/387/6 628/388/6 627/389/6
f 628/388/6 629/387/6 630/390/6
f 633/391/5 632/392/5 631/393/5
f 632/392/5 633/391/5 634/394/5
f 637/395/1 636/396/1 635/397/1
f 636/396/1 637/395/1 638/398/1
f 641/399/4 640/400/4 639/401/4
f 640/400/4 641/399/4 642/402/4
f 645/387/6 644/388/6 643/389/6
f 644/388/6 645/387/6 646/390/6
f 649/403/5 648/404/5 647/405/5
f 648/404/5 649/403/5 650/406/5
f 653/395/1 652/407/1 651/397/1
f 652/407/1 653/395/1 654/408/1
f 657/409/4 656/400/4 655/401/4
f 656/400/4 657/409/4 658/410/4
f 661/411/49 660/407/49 659/408/49
f 660/407/49 661/411/49 662/412/49
f 665/412/1 664/413/1 663/414/1
f 664/413/1 665/412/1 666/411/1
f 669/415/50 668/414/50 667/413/50
f 668/414/50 669/415/50 670/416/50
f 673/398/1 672/416/1 671/415/1
f 672/416/1 673/398/1 674/396/1
f 677/385/51 676/417/52 675/418/52
f 676/417/52 677/385/51 678/384/52
f 681/418/2 680/419/2 679/420/2
f 680/419/2 681/418/2 682/417/2
f 685/420/53 684/421/53 683/422/54
f 684/421/53 685/420/53 686/419/53
f 689/422/2 688/371/2 687/373/2
f 688/371/2 689/422/2 690/421/2
f 693/423/55 692/402/55 691/399/55
f 692/402/55 693/423/55 694/424/56
f 697/424/4 696/425/4 695/426/4
f 696/425/4 697/424/4 698/423/4
f 701/427/57 700/426/57 699/425/57
f 700/426/57 701/427/57 702/428/57
f 705/409/4 704/428/4 703/427/4
f 704/428/4 705/409/4 706/410/4
f 709/424/2 708/426/2 707/426/2
f 708/426/2 709/424/2 710/424/2
f 713/423/5 712/424/5 711/424/5
f 712/424/5 713/423/5 714/423/5
f 717/426/6 716/425/6 715/425/6
f 716/425/6 717/426/6 718/426/6
f 721/403/27 720/429/27 719/430/27
f 720/429/27 721/403/27 722/405/27
f 725/431/28 724/404/28 723/406/28
f 724/404/28 725/431/28 726/432/28
f 729/375/58 728/433/58 727/434/58
f 728/433/58 729/375/58 730/377/58
f 733/379/30 732/376/30 731/378/30
f 732/376/30 733/379/30 734/381/30
f 737/391/27 736/429/27 735/430/27
f 736/429/27 737/391/27 738/393/27
f 741/431/28 740/392/28 739/394/28
f 740/392/28 741/431/28 742/432/28
f 745/319/28 744/281/28 743/320/28
f 744/281/28 745/319/28 746/280/28
f 749/321/34 748/282/34 747/322/34
f 748/282/34 749/321/34 750/283/34
f 753/277/30 752/323/30 751/324/30
f 752/323/30 753/277/30 754/279/30
f 757/280/31 756/278/31 755/277/31
f 756/278/31 757/280/31 758/282/31
f 761/325/33 760/317/33 759/278/33
f 760/317/33 761/325/33 762/326/33
f 765/285/27 764/327/27 763/328/27
f 764/327/27 765/285/27 766/329/27
f 769/284/29 768/289/29 767/285/29
f 768/289/29 769/284/29 770/287/29
f 773/330/32 772/331/32 771/289/32
f 772/331/32 773/330/32 774/332/32
f 777/322/1 776/280/1 775/319/1
f 776/280/1 777/322/1 778/282/1
f 780/278/3 779/279/3 781/277/3
f 779/279/3 780/278/3 1294/317/3
f 784/289/4 783/329/4 782/285/4
f 783/329/4 784/289/4 785/331/4
f 788/333/6 787/334/6 786/335/6
f 787/334/6 788/333/6 789/336/6
f 792/337/5 791/338/5 790/339/5
f 791/338/5 792/337/5 793/340/5
f 808/319/28 807/281/28 806/320/28
f 807/281/28 808/319/28 809/280/28
f 812/321/34 811/282/34 810/322/34
f 811/282/34 812/321/34 813/283/34
f 816/277/30 815/286/30 814/324/30
f 815/286/30 816/277/30 817/284/30
f 820/280/31 819/278/31 818/277/31
f 819/278/31 820/280/31 821/282/31
f 824/325/33 823/341/33 822/278/33
f 823/341/33 824/325/33 825/342/33
f 828/285/27 827/327/27 826/328/27
f 827/327/27 828/285/27 829/329/27
f 832/284/29 831/289/29 830/285/29
f 831/289/29 832/284/29 833/287/29
f 836/330/32 835/331/32 834/289/32
f 835/331/32 836/330/32 837/332/32
f 840/322/1 839/280/1 838/319/1
f 839/280/1 840/322/1 841/282/1
f 844/317/3 843/284/3 842/277/3
f 843/284/3 844/317/3 845/290/3
f 848/289/4 847/329/4 846/285/4
f 847/329/4 848/289/4 849/331/4
f 852/343/6 851/335/6 850/333/6
f 851/335/6 852/343/6 853/344/6
f 856/337/5 855/345/5 854/346/5
f 855/345/5 856/337/5 857/340/5
f 872/336/59 871/344/60 870/343/61
f 871/344/60 872/336/59 873/334/62
f 876/342/63 875/317/63 874/341/63
f 875/317/63 876/342/63 877/326/63
f 880/336/6 879/347/6 878/334/6
f 879/347/6 880/336/6 881/348/6
f 884/326/33 883/290/33 882/317/33
f 883/290/33 884/326/33 885/349/33
f 888/350/64 887/347/65 886/348/66
f 887/347/65 888/350/64 889/351/67
f 892/349/68 891/352/68 890/290/68
f 891/352/68 892/349/68 893/353/68
f 896/290/3 895/287/3 894/284/3
f 895/287/3 896/290/3 897/352/3
f 900/354/6 899/351/6 898/350/6
f 899/351/6 900/354/6 901/355/6
f 904/353/33 903/287/33 902/352/33
f 903/287/33 904/353/33 905/288/33
f 908/291/30 907/286/30 906/356/30
f 907/286/30 908/291/30 909/284/30
f 912/357/5 911/345/5 910/346/5
f 911/345/5 912/357/5 913/358/5
f 916/347/6 915/354/6 914/355/6
f 915/354/6 916/347/6 917/348/6
f 920/349/33 919/287/33 918/290/33
f 919/287/33 920/349/33 921/288/33
f 927/316/69 926/356/69 925/359/69
f 926/356/69 927/316/69 928/291/69
f 931/360/70 930/358/71 929/357/72
f 930/358/71 931/360/70 932/361/70
f 935/279/73 934/362/73 933/323/74
f 934/362/73 935/279/73 936/318/75
f 939/339/76 938/363/76 937/364/76
f 938/363/76 939/339/76 940/338/76
f 943/365/4 942/366/4 941/367/4
f 942/366/4 943/365/4 944/368/4
f 947/369/1 946/367/1 945/370/1
f 946/367/1 947/369/1 948/365/1
f 951/365/1 950/366/1 949/367/1
f 950/366/1 951/365/1 952/368/1
f 955/369/4 954/367/4 953/370/4
f 954/367/4 955/369/4 956/365/4
f 959/371/4 958/372/4 957/373/4
f 958/372/4 959/371/4 960/374/4
f 963/375/1 962/376/1 961/377/1
f 962/376/1 963/375/1 964/378/1
f 967/379/3 966/380/3 965/381/3
f 966/380/3 967/379/3 968/382/3
f 971/383/2 970/384/2 969/385/2
f 970/384/2 971/383/2 972/386/2
f 975/387/4 974/388/4 973/389/4
f 974/388/4 975/387/4 976/390/4
f 979/391/1 978/392/1 977/393/1
f 978/392/1 979/391/1 980/394/1
f 983/395/6 982/396/6 981/397/6
f 982/396/6 983/395/6 984/398/6
f 987/399/5 986/400/5 985/401/5
f 986/400/5 987/399/5 988/402/5
f 991/387/4 990/388/4 989/389/4
f 990/388/4 991/387/4 992/390/4
f 995/403/1 994/404/1 993/405/1
f 994/404/1 995/403/1 996/406/1
f 999/395/6 998/407/6 997/397/6
f 998/407/6 999/395/6 1000/408/6
f 1003/409/5 1002/400/5 1001/401/5
f 1002/400/5 1003/409/5 1004/410/5
f 1007/411/77 1006/407/77 1005/408/77
f 1006/407/77 1007/411/77 1008/412/77
f 1011/412/6 1010/413/6 1009/414/6
f 1010/413/6 1011/412/6 1012/411/6
f 1015/415/78 1014/414/78 1013/413/78
f 1014/414/78 1015/415/78 1016/416/78
f 1019/398/6 1018/416/6 1017/415/6
f 1018/416/6 1019/398/6 1020/396/6
f 1023/385/79 1022/417/80 1021/418/81
f 1022/417/80 1023/385/79 1024/384/82
f 1027/418/2 1026/419/2 1025/420/2
f 1026/419/2 1027/418/2 1028/417/2
f 1031/420/83 1030/421/84 1029/422/85
f 1030/421/84 1031/420/83 1032/419/86
f 1035/422/2 1034/371/2 1033/373/2
f 1034/371/2 1035/422/2 1036/421/2
f 1039/423/87 1038/402/87 1037/399/87
f 1038/402/87 1039/423/87 1040/424/87
f 1043/424/5 1042/425/5 1041/426/5
f 1042/425/5 1043/424/5 1044/423/5
f 1047/427/88 1046/426/88 1045/425/88
f 1046/426/88 1047/427/88 1048/428/88
f 1051/409/5 1050/428/5 1049/427/5
f 1050/428/5 1051/409/5 1052/410/5
f 1055/424/2 1054/426/2 1053/426/2
f 1054/426/2 1055/424/2 1056/424/2
f 1059/423/1 1058/424/1 1057/424/1
f 1058/424/1 1059/423/1 1060/423/1
f 1063/426/4 1062/425/4 1061/425/4
f 1062/425/4 1063/426/4 1064/426/4
f 1067/435/58 1066/311/58 1065/436/58
f 1066/311/58 1067/435/58 1068/437/58
f 1071/294/89 1070/295/89 1069/292/89
f 1070/295/89 1071/294/89 1072/296/89
f 1075/292/28 1074/300/28 1073/293/28
f 1074/300/28 1075/292/28 1076/298/28
f 1079/438/90 1078/439/90 1077/440/90
f 1078/439/90 1079/438/90 1080/315/90
f 1083/297/34 1082/301/34 1081/295/34
f 1082/301/34 1083/297/34 1084/302/34
f 1087/299/30 1086/306/30 1085/441/30
f 1086/306/30 1087/299/30 1088/304/30
f 1091/298/31 1090/303/31 1089/299/31
f 1090/303/31 1091/298/31 1092/301/31
f 1095/442/33 1094/307/33 1093/303/33
f 1094/307/33 1095/442/33 1096/308/33
f 1099/305/27 1098/312/27 1097/443/27
f 1098/312/27 1099/305/27 1100/310/27
f 1103/304/29 1102/309/29 1101/305/29
f 1102/309/29 1103/304/29 1104/307/29
f 1107/444/32 1106/313/32 1105/309/32
f 1106/313/32 1107/444/32 1108/314/32
f 1111/310/91 1110/315/91 1109/311/91
f 1110/315/91 1111/310/91 1112/313/91
f 1115/295/1 1114/298/1 1113/292/1
f 1114/298/1 1115/295/1 1116/301/1
f 1119/303/3 1118/304/3 1117/299/3
f 1118/304/3 1119/303/3 1120/307/3
f 1123/309/4 1122/310/4 1121/305/4
f 1122/310/4 1123/309/4 1124/313/4
f 1127/315/2 1126/436/2 1125/311/2
f 1126/436/2 1127/315/2 1128/438/2
f 1131/445/6 1130/446/6 1129/447/6
f 1130/446/6 1131/445/6 1132/448/6
f 1135/449/5 1134/450/5 1133/451/5
f 1134/450/5 1135/449/5 1136/452/5
f 1163/435/58 1162/311/58 1161/436/58
f 1162/311/58 1163/435/58 1164/437/58
f 1167/294/89 1166/295/89 1165/292/89
f 1166/295/89 1167/294/89 1168/296/89
f 1171/292/28 1170/300/28 1169/293/28
f 1170/300/28 1171/292/28 1172/298/28
f 1175/438/90 1174/439/90 1173/440/90
f 1174/439/90 1175/438/90 1176/315/90
f 1179/297/34 1178/301/34 1177/295/34
f 1178/301/34 1179/297/34 1180/302/34
f 1183/299/30 1182/306/30 1181/441/30
f 1182/306/30 1183/299/30 1184/304/30
f 1187/298/31 1186/303/31 1185/299/31
f 1186/303/31 1187/298/31 1188/301/31
f 1191/442/33 1190/307/33 1189/303/33
f 1190/307/33 1191/442/33 1192/308/33
f 1195/305/27 1194/312/27 1193/443/27
f 1194/312/27 1195/305/27 1196/310/27
f 1199/304/29 1198/309/29 1197/305/29
f 1198/309/29 1199/304/29 1200/307/29
f 1203/444/32 1202/313/32 1201/309/32
f 1202/313/32 1203/444/32 1204/314/32
f 1207/310/91 1206/315/91 1205/311/91
f 1206/315/91 1207/310/91 1208/313/91
f 1211/295/1 1210/298/1 1209/292/1
f 1210/298/1 1211/295/1 1212/301/1
f 1215/303/3 1214/304/3 1213/299/3
f 1214/304/3 1215/303/3 1216/307/3
f 1219/309/4 1218/310/4 1217/305/4
f 1218/310/4 1219/309/4 1220/313/4
f 1223/315/2 1222/436/2 1221/311/2
f 1222/436/2 1223/315/2 1224/438/2
f 1227/445/6 1226/446/6 1225/447/6
f 1226/446/6 1227/445/6 1228/448/6
f 1231/449/5 1230/450/5 1229/451/5
f 1230/450/5 1231/449/5 1232/452/5
f 1259/403/28 1258/429/28 1257/430/28
f 1258/429/28 1259/403/28 1260/405/28
f 1263/431/34 1262/404/34 1261/406/34
f 1262/404/34 1263/431/34 1264/432/34
f 1267/375/89 1266/433/89 1265/434/89
f 1266/433/89 1267/375/89 1268/377/89
f 1271/379/31 1270/376/31 1269/378/31
f 1270/376/31 1271/379/31 1272/381/31
f 1275/391/28 1274/429/28 1273/430/28
f 1274/429/28 1275/391/28 1276/393/28
f 1279/431/34 1278/392/34 1277/394/34
f 1278/392/34 1279/431/34 1280/432/34
f 1283/278/3 1282/317/3 1281/277/3
f 1282/317/3 1283/278/3 1284/341/3
f 1297/278/3 1296/317/3 1295/277/3
f 1296/317/3 1297/278/3 1298/341/3
f 1313/453/1 1312/454/1 1311/455/1
f 1312/454/1 1313/453/1 1314/456/1
f 1317/455/3 1316/457/3 1315/458/3
f 1316/457/3 1317/455/3 1318/454/3
f 1321/459/3 1320/460/3 1319/461/3
f 1320/460/3 1321/459/3 1322/462/3
f 1325/463/1 1324/462/1 1323/464/1
f 1324/462/1 1325/463/1 1326/460/1
f 1329/465/2 1328/464/2 1327/466/2
f 1328/464/2 1329/465/2 1330/463/2
f 1333/467/1 1332/468/1 1331/469/1
f 1332/468/1 1333/467/1 1334/470/1
f 1337/471/2 1336/453/2 1335/472/2
f 1336/453/2 1337/471/2 1338/456/2
f 1341/473/6 1340/474/6 1339/475/6
f 1340/474/6 1341/473/6 1342/476/6
f 1345/475/2 1344/477/2 1343/478/2
f 1344/477/2 1345/475/2 1346/474/2
f 1349/479/6 1348/480/6 1347/481/6
f 1348/480/6 1349/479/6 1350/482/6
f 1353/483/2 1352/473/2 1351/484/2
f 1352/473/2 1353/483/2 1354/476/2
f 1357/453/4 1356/485/4 1355/486/4
f 1356/485/4 1357/453/4 1358/487/4
f 1361/486/2 1360/488/2 1359/458/2
f 1360/488/2 1361/486/2 1362/485/2
f 1365/489/4 1364/470/4 1363/490/4
f 1364/470/4 1365/489/4 1366/491/4
f 1369/459/2 1368/492/2 1367/493/2
f 1368/492/2 1369/459/2 1370/462/2
f 1373/494/4 1372/462/4 1371/495/4
f 1372/462/4 1373/494/4 1374/492/4
f 1377/496/3 1376/495/3 1375/497/3
f 1376/495/3 1377/496/3 1378/494/3
f 1381/498/3 1380/453/3 1379/472/3
f 1380/453/3 1381/498/3 1382/487/3
f 1385/474/5 1384/499/5 1383/476/5
f 1384/499/5 1385/474/5 1386/500/5
f 1389/477/3 1388/500/3 1387/474/3
f 1388/500/3 1389/477/3 1390/501/3
f 1393/502/3 1392/476/3 1391/499/3
f 1392/476/3 1393/502/3 1394/483/3
f 1397/503/1 1396/504/1 1395/505/1
f 1396/504/1 1397/503/1 1398/506/1
f 1401/507/3 1400/508/3 1399/509/3
f 1400/508/3 1401/507/3 1402/510/3
f 1405/504/1 1404/503/1 1403/505/1
f 1404/503/1 1405/504/1 1406/506/1
f 1409/508/2 1408/511/2 1407/512/2
f 1408/511/2 1409/508/2 1410/510/2
f 1413/513/1 1412/514/1 1411/515/1
f 1412/514/1 1413/513/1 1414/516/1
f 1417/517/2 1416/518/2 1415/519/2
f 1416/518/2 1417/517/2 1418/520/2
f 1421/506/6 1420/521/6 1419/504/6
f 1420/521/6 1421/506/6 1422/522/6
f 1425/510/2 1424/523/2 1423/508/2
f 1424/523/2 1425/510/2 1426/524/2
f 1429/516/6 1428/525/6 1427/513/6
f 1428/525/6 1429/516/6 1430/526/6
f 1433/527/2 1432/528/2 1431/529/2
f 1432/528/2 1433/527/2 1434/520/2
f 1437/521/6 1436/506/6 1435/504/6
f 1436/506/6 1437/521/6 1438/522/6
f 1441/530/3 1440/510/3 1439/508/3
f 1440/510/3 1441/530/3 1442/531/3
f 1445/506/4 1444/505/4 1443/504/4
f 1444/505/4 1445/506/4 1446/503/4
f 1449/510/2 1448/512/2 1447/508/2
f 1448/512/2 1449/510/2 1450/511/2
f 1453/516/4 1452/515/4 1451/513/4
f 1452/515/4 1453/516/4 1454/514/4
f 1457/532/2 1456/518/2 1455/533/2
f 1456/518/2 1457/532/2 1458/520/2
f 1461/505/4 1460/506/4 1459/504/4
f 1460/506/4 1461/505/4 1462/503/4
f 1465/509/3 1464/510/3 1463/508/3
f 1464/510/3 1465/509/3 1466/507/3
f 1469/534/5 1468/505/5 1467/535/5
f 1468/505/5 1469/534/5 1470/503/5
f 1473/536/2 1472/512/2 1471/537/2
f 1472/512/2 1473/536/2 1474/511/2
f 1477/538/5 1476/515/5 1475/539/5
f 1476/515/5 1477/538/5 1478/514/5
f 1481/540/2 1480/518/2 1479/541/2
f 1480/518/2 1481/540/2 1482/542/2
f 1485/535/5 1484/503/5 1483/534/5
f 1484/503/5 1485/535/5 1486/505/5
f 1489/537/3 1488/507/3 1487/536/3
f 1488/507/3 1489/537/3 1490/509/3
f 1493/474/6 1492/473/6 1491/476/6
f 1492/473/6 1493/474/6 1494/475/6
f 1497/477/3 1496/475/3 1495/474/3
f 1496/475/3 1497/477/3 1498/478/3
f 1501/484/3 1500/476/3 1499/473/3
f 1500/476/3 1501/484/3 1502/483/3
f 1505/499/5 1504/474/5 1503/500/5
f 1504/474/5 1505/499/5 1506/476/5
f 1509/500/2 1508/477/2 1507/501/2
f 1508/477/2 1509/500/2 1510/474/2
f 1513/479/5 1512/543/5 1511/544/5
f 1512/543/5 1513/479/5 1514/545/5
f 1517/483/2 1516/499/2 1515/502/2
f 1516/499/2 1517/483/2 1518/476/2
f 1521/546/5 1520/547/5 1519/548/5
f 1520/547/5 1521/546/5 1522/549/5
f 1525/548/2 1524/550/2 1523/551/2
f 1524/550/2 1525/548/2 1526/547/2
f 1529/552/5 1528/553/5 1527/554/5
f 1528/553/5 1529/552/5 1530/555/5
f 1533/556/2 1532/546/2 1531/557/2
f 1532/546/2 1533/556/2 1534/549/2
f 1537/558/6 1536/559/6 1535/560/6
f 1536/559/6 1537/558/6 1538/561/6
f 1541/562/2 1540/560/2 1539/557/2
f 1540/560/2 1541/562/2 1542/558/2
f 1545/554/6 1544/555/6 1543/553/6
f 1544/555/6 1545/554/6 1546/552/6
f 1549/563/2 1548/561/2 1547/564/2
f 1548/561/2 1549/563/2 1550/559/2
f 1553/561/6 1552/560/6 1551/558/6
f 1552/560/6 1553/561/6 1554/559/6
f 1557/558/3 1556/557/3 1555/562/3
f 1556/557/3 1557/558/3 1558/560/3
f 1561/563/3 1560/561/3 1559/564/3
f 1560/561/3 1561/563/3 1562/559/3
f 1565/547/5 1564/546/5 1563/549/5
f 1564/546/5 1565/547/5 1566/548/5
f 1569/564/3 1568/548/3 1567/547/3
f 1568/548/3 1569/564/3 1570/551/3
f 1573/557/3 1572/549/3 1571/546/3
f 1572/549/3 1573/557/3 1574/556/3
