# Blender 4.5.3 LTS
# www.blender.org
o w9a02_my1_wall01
v -4.997212 0.313850 12.499155
v -5.010041 0.312817 12.772029
v -5.287860 0.344176 12.984525
v -5.119297 0.323532 12.953592
v -6.525240 0.178983 12.316855
v -5.861009 0.109337 11.707817
v -6.047567 0.131019 11.645978
v -5.581455 0.066234 12.965838
v -5.365459 0.042106 12.930344
v -5.157039 0.022877 12.451051
v -5.159738 0.019076 12.902026
v -5.031387 0.005876 12.756011
v -5.157039 0.022877 12.451051
v -5.365459 0.042106 12.930344
v -5.159738 0.019076 12.902026
v -5.157039 0.022877 12.451051
v -4.997212 0.313850 12.499155
v -5.287860 0.344176 12.984525
v -5.699959 0.390935 12.972656
v -5.064613 0.322737 12.361121
v -4.997212 0.313850 12.499155
v -5.699959 0.390935 12.972656
v -5.233070 0.343699 12.153365
v -5.064613 0.322737 12.361121
v -5.699959 0.390935 12.972656
v -5.233070 0.343699 12.153365
v -5.699959 0.390935 12.972656
v -5.947128 0.418435 13.025424
v -5.334682 0.357099 11.944956
v -5.233070 0.343699 12.153365
v -5.947128 0.418435 13.025424
v -5.334682 0.357099 11.944956
v -5.947128 0.418435 13.025424
v -6.252869 0.452860 12.843239
v -5.334682 0.357099 11.944956
v -6.252869 0.452860 12.843239
v -5.461450 0.372775 11.799449
v -6.252869 0.452860 12.843239
v -6.412924 0.473159 12.603811
v -5.461450 0.372775 11.799449
v -6.412924 0.473159 12.603811
v -5.808984 0.414244 11.565829
v -5.461450 0.372775 11.799449
v -6.412924 0.473159 12.603811
v -6.515419 0.486677 12.393570
v -5.808984 0.414244 11.565829
v -6.515419 0.486677 12.393570
v -6.513276 0.489283 12.080727
v -5.808984 0.414244 11.565829
v -6.513276 0.489283 12.080727
v -6.522018 0.492415 11.845576
v -6.371644 0.476158 11.701450
v -6.371644 0.476158 11.701450
v -6.295284 0.475922 11.558945
v -6.009822 0.437606 11.497066
v -6.184705 0.457415 11.495785
v -6.371644 0.476158 11.701450
v -6.009822 0.437606 11.497066
v -5.808984 0.414244 11.565829
v -6.513276 0.489283 12.080727
v -6.371644 0.476158 11.701450
v -5.808984 0.414244 11.565829
v -6.441180 0.177148 11.473468
v -6.679916 0.202323 11.676720
v -6.184606 0.147530 11.536498
v -6.729534 0.204312 12.075015
v -6.729534 0.204312 12.075015
v -6.047567 0.131019 11.645978
v -6.184606 0.147530 11.536498
v -6.729534 0.204312 12.075015
v -6.525240 0.178983 12.316855
v -6.047567 0.131019 11.645978
v -6.525240 0.178983 12.316855
v -6.408831 0.163440 12.576596
v -5.861009 0.109337 11.707817
v -5.816211 0.092205 13.032191
v -5.581455 0.066234 12.965838
v -5.439746 0.057190 12.197519
v -6.408831 0.163440 12.576596
v -5.579299 0.075413 11.931119
v -5.861009 0.109337 11.707817
v -6.408831 0.163440 12.576596
v -5.439746 0.057190 12.197519
v -5.579299 0.075413 11.931119
v -6.408831 0.163440 12.576596
v -6.167977 0.133831 12.833931
v -5.439746 0.057190 12.197519
v -6.167977 0.133831 12.833931
v -5.816211 0.092205 13.032191
v -5.439746 0.057190 12.197519
v -5.581455 0.066234 12.965838
v -5.157039 0.022877 12.451051
v -5.439746 0.057190 12.197519
v 4.921120 0.349816 15.263446
v 4.782716 0.312667 15.037720
v 4.957480 0.313909 15.086829
v 4.939763 0.302701 15.024597
v 4.300347 0.325568 15.006784
v 4.479246 0.283350 14.819552
v 4.243497 0.364402 15.201212
v 4.536090 0.296953 14.903481
v 4.603944 0.100579 15.463567
v 4.688518 0.007829 14.988650
v 4.388066 0.090512 15.365630
v 4.370134 0.372667 15.271189
v 4.243497 0.364402 15.201212
v 4.536090 0.296953 14.903481
v 4.782716 0.312667 15.037720
v 4.611442 0.374501 15.330655
v 4.686780 0.301858 14.960568
v 4.793349 0.092941 15.462067
v 4.912429 0.061919 15.321933
v 4.798662 0.015085 15.049872
v 4.798662 0.015085 15.049872
v 4.970738 0.010766 15.062411
v 4.954768 0.000823 15.006339
v 4.688518 0.007829 14.988650
v 4.548539 0.010774 14.975425
v 4.388066 0.090512 15.365630
v 4.352581 0.064089 15.218051
v 4.688518 0.007829 14.988650
v 4.603944 0.100579 15.463567
v 4.798662 0.015085 15.049872
v 4.798662 0.015085 15.049872
v 4.912429 0.061919 15.321933
v 4.970738 0.010766 15.062411
v 4.603944 0.100579 15.463567
v 4.793349 0.092941 15.462067
v 4.798662 0.015085 15.049872
v 4.370134 0.372667 15.271189
v 4.536090 0.296953 14.903481
v 4.686780 0.301858 14.960568
v 4.370134 0.372667 15.271189
v 4.686780 0.301858 14.960568
v 4.611442 0.374501 15.330655
v 4.782716 0.312667 15.037720
v 4.751035 0.393111 15.458223
v 4.611442 0.374501 15.330655
v 4.782716 0.312667 15.037720
v 4.921120 0.349816 15.263446
v 4.751035 0.393111 15.458223
v 0.700930 0.366377 13.472887
v 0.949440 0.307686 13.552172
v 0.787355 0.329578 13.630942
v 0.840604 0.314688 13.666369
v 1.329144 0.266519 13.255633
v 1.316207 0.238830 13.516228
v 1.246414 0.304488 13.070551
v 1.219791 0.261036 13.490320
v 0.778321 0.089662 13.126178
v 1.020894 -0.006962 13.542259
v 1.002374 0.053060 13.057207
v 1.106920 0.328667 13.101514
v 1.246414 0.304488 13.070551
v 1.219791 0.261036 13.490320
v 0.949440 0.307686 13.552172
v 0.888660 0.358771 13.216515
v 1.070653 0.284150 13.547011
v 0.638012 0.102875 13.252959
v 0.639382 0.081091 13.438171
v 0.899337 0.014146 13.568921
v 0.899337 0.014146 13.568921
v 0.762917 0.029156 13.673563
v 0.810917 0.015893 13.705474
v 1.020894 -0.006962 13.542259
v 1.133814 -0.019825 13.459427
v 1.002374 0.053060 13.057207
v 1.123823 0.018619 13.145528
v 1.020894 -0.006962 13.542259
v 0.778321 0.089662 13.126178
v 0.899337 0.014146 13.568921
v 0.899337 0.014146 13.568921
v 0.639382 0.081091 13.438171
v 0.762917 0.029156 13.673563
v 0.778321 0.089662 13.126178
v 0.638012 0.102875 13.252959
v 0.899337 0.014146 13.568921
v 1.106920 0.328667 13.101514
v 1.219791 0.261036 13.490320
v 1.070653 0.284150 13.547011
v 1.106920 0.328667 13.101514
v 1.070653 0.284150 13.547011
v 0.888660 0.358771 13.216515
v 0.949440 0.307686 13.552172
v 0.702436 0.396326 13.212420
v 0.888660 0.358771 13.216515
v 0.949440 0.307686 13.552172
v 0.700930 0.366377 13.472887
v 0.702436 0.396326 13.212420
v 3.976538 0.284457 4.881467
v 3.820053 0.001411 4.557874
v 4.034519 0.221724 4.988576
v 4.041618 0.009360 4.986078
v 3.820053 0.001411 4.557874
v 3.976538 0.284457 4.881467
v 3.801344 0.115343 4.530461
v 3.715782 0.274149 5.016582
v 3.850501 0.125078 5.265203
v 3.819167 0.012540 5.196146
v 3.715782 0.274149 5.016582
v 3.819167 0.012540 5.196146
v 3.634583 0.005846 4.839407
v 3.588650 0.164887 4.762895
v 3.715782 0.274149 5.016582
v 3.590029 0.064916 4.757932
v 3.715782 0.274149 5.016582
v 3.634583 0.005846 4.839407
v 3.590029 0.064916 4.757932
v -2.622466 -0.000781 7.554851
v -2.423637 -0.003476 7.528560
v -2.418010 -0.002504 7.306879
v -2.567050 0.293859 7.232396
v -2.418006 0.290576 7.479099
v -2.641254 0.293885 7.448590
v -2.594040 0.292778 7.541028
v -2.622466 -0.000781 7.554851
v -2.557022 -0.002100 7.637223
v -2.423637 -0.003476 7.528560
v -2.725213 0.001926 7.290973
v -2.622466 -0.000781 7.554851
v -2.418010 -0.002504 7.306879
v -2.567050 0.293859 7.232396
v -2.491049 0.292897 7.207939
v -2.418006 0.290576 7.479099
v -2.491049 0.292897 7.207939
v -2.377485 0.291040 7.260194
v -2.418006 0.290576 7.479099
v -2.725213 0.001926 7.290973
v -2.418010 -0.002504 7.306879
v -2.520713 -0.000617 7.215906
v -2.548882 0.373667 6.048685
v -2.707050 0.386001 5.877852
v -2.671229 0.370942 5.666584
v -2.333872 0.341529 5.967659
v -2.548882 0.373667 6.048685
v -2.671229 0.370942 5.666584
v -1.981535 0.267130 5.392005
v -2.400871 0.317420 5.297552
v -2.402262 0.314323 5.230724
v -2.333872 0.341529 5.967659
v -2.671229 0.370942 5.666584
v -2.569253 0.354564 5.605023
v -2.333872 0.341529 5.967659
v -2.569253 0.354564 5.605023
v -2.486736 0.339528 5.518870
v -2.066975 0.311711 6.072412
v -2.333872 0.341529 5.967659
v -2.486736 0.339528 5.518870
v -1.615258 0.232662 5.667268
v -1.625841 0.243916 5.868355
v -2.066975 0.311711 6.072412
v -1.775027 0.271681 6.035945
v -1.981535 0.267130 5.392005
v -1.745755 0.240135 5.471237
v -2.066975 0.311711 6.072412
v -1.981535 0.267130 5.392005
v -2.066975 0.311711 6.072412
v -2.486736 0.339528 5.518870
v -1.981535 0.267130 5.392005
v -2.486736 0.339528 5.518870
v -2.429305 0.326859 5.413997
v -1.981535 0.267130 5.392005
v -2.429305 0.326859 5.413997
v -2.400871 0.317420 5.297552
v -2.347630 0.301961 5.124646
v -2.142604 0.279499 5.214161
v -2.402262 0.314323 5.230724
v -2.347630 0.301961 5.124646
v -2.202569 0.282148 5.108088
v -2.142604 0.279499 5.214161
v -1.745755 0.240135 5.471237
v -1.615258 0.232662 5.667268
v -2.066975 0.311711 6.072412
v -2.142604 0.279499 5.214161
v -1.981535 0.267130 5.392005
v -2.402262 0.314323 5.230724
v -2.707050 0.386001 5.877852
v -2.756204 0.383266 5.690911
v -2.671229 0.370942 5.666584
v -4.718929 -0.000782 -9.047333
v -4.810782 -0.003477 -9.225626
v -5.021356 -0.002506 -9.156108
v -5.041170 0.293857 -8.990674
v -4.859241 0.290575 -9.214233
v -4.812616 0.293884 -8.993787
v -4.741537 0.292777 -9.069427
v -4.718929 -0.000782 -9.047333
v -4.663477 -0.002102 -9.136739
v -4.810782 -0.003477 -9.225626
v -4.932651 0.001925 -8.861560
v -4.718929 -0.000782 -9.047333
v -5.021356 -0.002506 -9.156108
v -5.041170 0.293857 -8.990674
v -5.089841 0.292896 -9.053963
v -4.859241 0.290575 -9.214233
v -5.089841 0.292896 -9.053963
v -5.078979 0.291039 -9.178499
v -4.859241 0.290575 -9.214233
v -4.932651 0.001925 -8.861560
v -5.021356 -0.002506 -9.156108
v -5.072330 -0.000618 -9.028728
v 5.929476 0.295857 4.192000
v 6.183497 0.276013 4.273044
v 6.019941 0.282752 4.351528
v 6.074671 0.277625 4.387454
v 6.565333 0.261649 3.976737
v 6.556093 0.252569 4.238796
v 6.478381 0.274318 3.790133
v 6.457613 0.260082 4.212234
v 6.042071 0.005716 3.866565
v 6.295119 -0.026593 4.286356
v 6.268978 -0.006809 3.798353
v 6.336930 0.282573 3.820554
v 6.478381 0.274318 3.790133
v 6.457613 0.260082 4.212234
v 6.183497 0.276013 4.273044
v 6.116609 0.292949 3.935096
v 6.306737 0.268009 4.268482
v 5.901233 0.010366 3.993362
v 5.905414 0.003197 4.179672
v 6.171852 -0.019386 4.312541
v 6.171852 -0.019386 4.312541
v 6.034636 -0.014154 4.417091
v 6.083951 -0.018620 4.449438
v 6.295119 -0.026593 4.286356
v 6.408754 -0.031068 4.203623
v 6.268978 -0.006809 3.798353
v 6.393865 -0.018400 3.887825
v 6.295119 -0.026593 4.286356
v 6.042071 0.005716 3.866565
v 6.171852 -0.019386 4.312541
v 6.171852 -0.019386 4.312541
v 5.905414 0.003197 4.179672
v 6.034636 -0.014154 4.417091
v 6.042071 0.005716 3.866565
v 5.901233 0.010366 3.993362
v 6.171852 -0.019386 4.312541
v 6.336930 0.282573 3.820554
v 6.457613 0.260082 4.212234
v 6.306737 0.268009 4.268482
v 6.336930 0.282573 3.820554
v 6.306737 0.268009 4.268482
v 6.116609 0.292949 3.935096
v 6.183497 0.276013 4.273044
v 5.927089 0.305705 3.930010
v 6.116609 0.292949 3.935096
v 6.183497 0.276013 4.273044
v 5.929476 0.295857 4.192000
v 5.927089 0.305705 3.930010
v 6.654993 0.067183 1.690250
v 6.713857 0.062585 1.709029
v 6.675956 0.064146 1.727216
v 6.688638 0.062958 1.735542
v 6.802336 0.059256 1.640368
v 6.800196 0.057152 1.701094
v 6.782188 0.062192 1.597127
v 6.777376 0.058893 1.694939
v 6.681084 -0.000050 1.614839
v 6.739722 -0.007537 1.712115
v 6.733664 -0.002952 1.599032
v 6.749410 0.064105 1.604176
v 6.782188 0.062192 1.597127
v 6.777376 0.058893 1.694939
v 6.713857 0.062585 1.709029
v 6.698356 0.066509 1.630718
v 6.742414 0.060730 1.707973
v 6.648448 0.001028 1.644221
v 6.649417 -0.000634 1.687393
v 6.711157 -0.005867 1.718182
v 6.711157 -0.005867 1.718182
v 6.679361 -0.004654 1.742410
v 6.690788 -0.005689 1.749905
v 6.739722 -0.007537 1.712115
v 6.766054 -0.008574 1.692943
v 6.733664 -0.002952 1.599032
v 6.762604 -0.005638 1.619765
v 6.739722 -0.007537 1.712115
v 6.681084 -0.000050 1.614839
v 6.711157 -0.005867 1.718182
v 6.711157 -0.005867 1.718182
v 6.649417 -0.000634 1.687393
v 6.679361 -0.004654 1.742410
v 6.681084 -0.000050 1.614839
v 6.648448 0.001028 1.644221
v 6.711157 -0.005867 1.718182
v 6.749410 0.064105 1.604176
v 6.777376 0.058893 1.694939
v 6.742414 0.060730 1.707973
v 6.749410 0.064105 1.604176
v 6.742414 0.060730 1.707973
v 6.698356 0.066509 1.630718
v 6.713857 0.062585 1.709029
v 6.654439 0.069465 1.629540
v 6.698356 0.066509 1.630718
v 6.713857 0.062585 1.709029
v 6.654993 0.067183 1.690250
v 6.654439 0.069465 1.629540
v 5.788629 0.073525 -3.144872
v 5.760994 0.068926 -3.089610
v 5.748871 0.070488 -3.129863
v 5.738689 0.069299 -3.118616
v 5.815186 0.065598 -2.991599
v 5.755517 0.063493 -3.003081
v 5.861017 0.068533 -3.004836
v 5.765119 0.065234 -3.024678
v 5.859113 0.006292 -3.107462
v 5.753957 -0.001195 -3.064531
v 5.866620 0.003389 -3.053072
v 5.859108 0.070446 -3.038307
v 5.861017 0.068533 -3.004836
v 5.765119 0.065234 -3.024678
v 5.760994 0.068926 -3.089610
v 5.840759 0.072850 -3.092845
v 5.757634 0.067072 -3.061232
v 5.835117 0.007369 -3.144238
v 5.792312 0.005708 -3.149940
v 5.752367 0.000475 -3.093689
v 5.752367 0.000475 -3.093689
v 5.733335 0.001687 -3.128842
v 5.724166 0.000652 -3.118706
v 5.753957 -0.001195 -3.064531
v 5.768837 -0.002232 -3.035557
v 5.866620 0.003389 -3.053072
v 5.841671 0.000703 -3.027678
v 5.753957 -0.001195 -3.064531
v 5.859113 0.006292 -3.107462
v 5.752367 0.000475 -3.093689
v 5.752367 0.000475 -3.093689
v 5.792312 0.005708 -3.149940
v 5.733335 0.001687 -3.128842
v 5.859113 0.006292 -3.107462
v 5.835117 0.007369 -3.144238
v 5.752367 0.000475 -3.093689
v 5.859108 0.070446 -3.038307
v 5.765119 0.065234 -3.024678
v 5.757634 0.067072 -3.061232
v 5.859108 0.070446 -3.038307
v 5.757634 0.067072 -3.061232
v 5.840759 0.072850 -3.092845
v 5.760994 0.068926 -3.089610
v 5.848697 0.075806 -3.136055
v 5.840759 0.072850 -3.092845
v 5.760994 0.068926 -3.089610
v 5.788629 0.073525 -3.144872
v 5.848697 0.075806 -3.136055
v -0.252121 0.073525 -4.504158
v -0.279757 0.068926 -4.448895
v -0.291880 0.070488 -4.489148
v -0.302061 0.069299 -4.477900
v -0.225565 0.065597 -4.350883
v -0.285234 0.063493 -4.362364
v -0.179734 0.068533 -4.364120
v -0.275632 0.065234 -4.383962
v -0.181638 0.006292 -4.466747
v -0.286794 -0.001195 -4.423815
v -0.174131 0.003389 -4.412357
v -0.181642 0.070446 -4.397593
v -0.179734 0.068533 -4.364120
v -0.275632 0.065234 -4.383962
v -0.279757 0.068926 -4.448895
v -0.199992 0.072850 -4.452129
v -0.283117 0.067071 -4.420516
v -0.205634 0.007369 -4.503523
v -0.248439 0.005708 -4.509225
v -0.288384 0.000475 -4.452974
v -0.288384 0.000475 -4.452974
v -0.307417 0.001687 -4.488126
v -0.316584 0.000652 -4.477992
v -0.286794 -0.001195 -4.423815
v -0.271914 -0.002232 -4.394842
v -0.174131 0.003389 -4.412357
v -0.199080 0.000703 -4.386962
v -0.286794 -0.001195 -4.423815
v -0.181638 0.006292 -4.466747
v -0.288384 0.000475 -4.452974
v -0.288384 0.000475 -4.452974
v -0.248439 0.005708 -4.509225
v -0.307417 0.001687 -4.488126
v -0.181638 0.006292 -4.466747
v -0.205634 0.007369 -4.503523
v -0.288384 0.000475 -4.452974
v -0.181642 0.070446 -4.397593
v -0.275632 0.065234 -4.383962
v -0.283117 0.067071 -4.420516
v -0.181642 0.070446 -4.397593
v -0.283117 0.067071 -4.420516
v -0.199992 0.072850 -4.452129
v -0.279757 0.068926 -4.448895
v -0.192053 0.075806 -4.495339
v -0.199992 0.072850 -4.452129
v -0.279757 0.068926 -4.448895
v -0.252121 0.073525 -4.504158
v -0.192053 0.075806 -4.495339
v -4.530541 0.073525 -3.968343
v -4.558176 0.068926 -3.913081
v -4.570299 0.070488 -3.953333
v -4.580480 0.069299 -3.942087
v -4.503985 0.065598 -3.815069
v -4.563653 0.063493 -3.826550
v -4.458153 0.068533 -3.828306
v -4.554051 0.065234 -3.848149
v -4.460057 0.006292 -3.930931
v -4.565213 -0.001195 -3.888001
v -4.452550 0.003389 -3.876544
v -4.460061 0.070446 -3.861778
v -4.458153 0.068533 -3.828306
v -4.554051 0.065234 -3.848149
v -4.558176 0.068926 -3.913081
v -4.478411 0.072850 -3.916316
v -4.561536 0.067072 -3.884702
v -4.484053 0.007369 -3.967709
v -4.526858 0.005708 -3.973411
v -4.566803 0.000475 -3.917159
v -4.566803 0.000475 -3.917159
v -4.585836 0.001687 -3.952312
v -4.595003 0.000652 -3.942178
v -4.565213 -0.001195 -3.888001
v -4.550333 -0.002232 -3.859026
v -4.452550 0.003389 -3.876544
v -4.477499 0.000703 -3.851147
v -4.565213 -0.001195 -3.888001
v -4.460057 0.006292 -3.930931
v -4.566803 0.000475 -3.917159
v -4.566803 0.000475 -3.917159
v -4.526858 0.005708 -3.973411
v -4.585836 0.001687 -3.952312
v -4.460057 0.006292 -3.930931
v -4.484053 0.007369 -3.967709
v -4.566803 0.000475 -3.917159
v -4.460061 0.070446 -3.861778
v -4.554051 0.065234 -3.848149
v -4.561536 0.067072 -3.884702
v -4.460061 0.070446 -3.861778
v -4.561536 0.067072 -3.884702
v -4.478411 0.072850 -3.916316
v -4.558176 0.068926 -3.913081
v -4.470472 0.075806 -3.959525
v -4.478411 0.072850 -3.916316
v -4.558176 0.068926 -3.913081
v -4.530541 0.073525 -3.968343
v -4.470472 0.075806 -3.959525
v -1.807426 0.073525 4.874792
v -1.835060 0.068927 4.930054
v -1.847183 0.070488 4.889802
v -1.857365 0.069300 4.901048
v -1.780869 0.065598 5.028066
v -1.840538 0.063494 5.016584
v -1.735037 0.068534 5.014829
v -1.830936 0.065235 4.994987
v -1.736942 0.006292 4.912203
v -1.842098 -0.001195 4.955134
v -1.729435 0.003390 4.966592
v -1.736946 0.070447 4.981356
v -1.735037 0.068534 5.014829
v -1.830936 0.065235 4.994987
v -1.835060 0.068927 4.930054
v -1.755296 0.072851 4.926819
v -1.838421 0.067072 4.958433
v -1.760938 0.007370 4.875426
v -1.803743 0.005709 4.869724
v -1.843687 0.000475 4.925976
v -1.843687 0.000475 4.925976
v -1.862720 0.001688 4.890823
v -1.871888 0.000653 4.900957
v -1.842098 -0.001195 4.955134
v -1.827218 -0.002232 4.984107
v -1.729435 0.003390 4.966592
v -1.754383 0.000704 4.991987
v -1.842098 -0.001195 4.955134
v -1.736942 0.006292 4.912203
v -1.843687 0.000475 4.925976
v -1.843687 0.000475 4.925976
v -1.803743 0.005709 4.869724
v -1.862720 0.001688 4.890823
v -1.736942 0.006292 4.912203
v -1.760938 0.007370 4.875426
v -1.843687 0.000475 4.925976
v -1.736946 0.070447 4.981356
v -1.830936 0.065235 4.994987
v -1.838421 0.067072 4.958433
v -1.736946 0.070447 4.981356
v -1.838421 0.067072 4.958433
v -1.755296 0.072851 4.926819
v -1.835060 0.068927 4.930054
v -1.747357 0.075807 4.883609
v -1.755296 0.072851 4.926819
v -1.835060 0.068927 4.930054
v -1.807426 0.073525 4.874792
v -1.747357 0.075807 4.883609
v -1.566114 0.056373 -4.726123
v -1.568515 0.055958 -4.674413
v -1.621482 0.057120 -4.634146
v -1.589318 0.056110 -4.640008
v -1.852172 0.004763 -4.760667
v -1.725627 0.002991 -4.876075
v -1.761206 0.003889 -4.887794
v -1.672132 -0.000359 -4.637688
v -1.630958 -0.001214 -4.644414
v -1.591294 -0.001275 -4.735237
v -1.591740 -0.002039 -4.649781
v -1.567290 -0.002333 -4.677449
v -1.591294 -0.001275 -4.735237
v -1.630958 -0.001214 -4.644414
v -1.591740 -0.002039 -4.649781
v -1.591294 -0.001275 -4.735237
v -1.566114 0.056373 -4.726123
v -1.621482 0.057120 -4.634146
v -1.700055 0.058890 -4.636397
v -1.578984 0.056896 -4.752278
v -1.566114 0.056373 -4.726123
v -1.700055 0.058890 -4.636397
v -1.611134 0.057969 -4.791647
v -1.578984 0.056896 -4.752278
v -1.700055 0.058890 -4.636397
v -1.611134 0.057969 -4.791647
v -1.700055 0.058890 -4.636397
v -1.747170 0.059849 -4.626398
v -1.630540 0.058758 -4.831139
v -1.611134 0.057969 -4.791647
v -1.747170 0.059849 -4.626398
v -1.630540 0.058758 -4.831139
v -1.747170 0.059849 -4.626398
v -1.805459 0.061112 -4.660921
v -1.630540 0.058758 -4.831139
v -1.805459 0.061112 -4.660921
v -1.654733 0.059546 -4.858712
v -1.805459 0.061112 -4.660921
v -1.836012 0.062203 -4.706291
v -1.654733 0.059546 -4.858712
v -1.836012 0.062203 -4.706291
v -1.721029 0.061423 -4.902982
v -1.654733 0.059546 -4.858712
v -1.836012 0.062203 -4.706291
v -1.855586 0.062999 -4.746130
v -1.721029 0.061423 -4.902982
v -1.855586 0.062999 -4.746130
v -1.855227 0.063528 -4.805412
v -1.721029 0.061423 -4.902982
v -1.855227 0.063528 -4.805412
v -1.856931 0.063970 -4.849971
v -1.828274 0.063476 -4.877282
v -1.828274 0.063476 -4.877282
v -1.813858 0.064739 -4.904285
v -1.759330 0.062394 -4.916012
v -1.792674 0.063139 -4.916255
v -1.828274 0.063476 -4.877282
v -1.759330 0.062394 -4.916012
v -1.721029 0.061423 -4.902982
v -1.855227 0.063528 -4.805412
v -1.828274 0.063476 -4.877282
v -1.721029 0.061423 -4.902982
v -1.836278 0.005857 -4.920485
v -1.881763 0.006521 -4.881969
v -1.787350 0.004659 -4.908539
v -1.891162 0.006046 -4.806494
v -1.891162 0.006046 -4.806494
v -1.761206 0.003889 -4.887794
v -1.787350 0.004659 -4.908539
v -1.891162 0.006046 -4.806494
v -1.852172 0.004763 -4.760667
v -1.761206 0.003889 -4.887794
v -1.852172 0.004763 -4.760667
v -1.829938 0.003823 -4.711447
v -1.725627 0.002991 -4.876075
v -1.716881 0.000524 -4.625114
v -1.672132 -0.000359 -4.637688
v -1.645234 0.000361 -4.783281
v -1.829938 0.003823 -4.711447
v -1.671883 0.001411 -4.833762
v -1.725627 0.002991 -4.876075
v -1.829938 0.003823 -4.711447
v -1.645234 0.000361 -4.783281
v -1.671883 0.001411 -4.833762
v -1.829938 0.003823 -4.711447
v -1.783977 0.002358 -4.662685
v -1.645234 0.000361 -4.783281
v -1.783977 0.002358 -4.662685
v -1.716881 0.000524 -4.625114
v -1.645234 0.000361 -4.783281
v -1.672132 -0.000359 -4.637688
v -1.591294 -0.001275 -4.735237
v -1.645234 0.000361 -4.783281
v 6.187902 0.056373 -2.408058
v 6.228536 0.055958 -2.375989
v 6.230417 0.057121 -2.309479
v 6.244386 0.056110 -2.339040
v 5.993208 0.004764 -2.195650
v 5.973102 0.002991 -2.365733
v 5.942854 0.003889 -2.343639
v 6.198038 -0.000358 -2.270370
v 6.216552 -0.001214 -2.307759
v 6.165827 -0.001275 -2.392899
v 6.235032 -0.002039 -2.342764
v 6.226781 -0.002333 -2.378753
v 6.165827 -0.001275 -2.392899
v 6.216552 -0.001214 -2.307759
v 6.235032 -0.002039 -2.342764
v 6.165827 -0.001275 -2.392899
v 6.187902 0.056373 -2.408058
v 6.230417 0.057121 -2.309479
v 6.182825 0.058890 -2.246921
v 6.159145 0.056896 -2.412830
v 6.187902 0.056373 -2.408058
v 6.182825 0.058890 -2.246921
v 6.108417 0.057969 -2.409627
v 6.159145 0.056896 -2.412830
v 6.182825 0.058890 -2.246921
v 6.108417 0.057969 -2.409627
v 6.182825 0.058890 -2.246921
v 6.163511 0.059849 -2.202799
v 6.065012 0.058758 -2.416854
v 6.108417 0.057969 -2.409627
v 6.163511 0.059849 -2.202799
v 6.065012 0.058758 -2.416854
v 6.163511 0.059849 -2.202799
v 6.101498 0.061112 -2.175526
v 6.065012 0.058758 -2.416854
v 6.101498 0.061112 -2.175526
v 6.028508 0.059547 -2.413249
v 6.101498 0.061112 -2.175526
v 6.046823 0.062203 -2.177116
v 6.028508 0.059547 -2.413249
v 6.046823 0.062203 -2.177116
v 5.953909 0.061424 -2.385143
v 6.028508 0.059547 -2.413249
v 6.046823 0.062203 -2.177116
v 6.003037 0.063000 -2.184408
v 5.953909 0.061424 -2.385143
v 6.003037 0.063000 -2.184408
v 5.955058 0.063528 -2.219228
v 5.953909 0.061424 -2.385143
v 5.955058 0.063528 -2.219228
v 5.917844 0.063970 -2.243797
v 5.912335 0.063476 -2.282999
v 5.912335 0.063476 -2.282999
v 5.898780 0.064739 -2.310445
v 5.921009 0.062394 -2.361598
v 5.901391 0.063139 -2.334636
v 5.912335 0.063476 -2.282999
v 5.921009 0.062394 -2.361598
v 5.953909 0.061424 -2.385143
v 5.955058 0.063528 -2.219228
v 5.912335 0.063476 -2.282999
v 5.953909 0.061424 -2.385143
v 5.872555 0.005857 -2.301654
v 5.877370 0.006521 -2.242249
v 5.910763 0.004659 -2.334469
v 5.933248 0.006047 -2.190648
v 5.933248 0.006047 -2.190648
v 5.942854 0.003889 -2.343639
v 5.910763 0.004659 -2.334469
v 5.933248 0.006047 -2.190648
v 5.993208 0.004764 -2.195650
v 5.942854 0.003889 -2.343639
v 5.993208 0.004764 -2.195650
v 6.046169 0.003823 -2.185056
v 5.973102 0.002991 -2.365733
v 6.182195 0.000524 -2.226674
v 6.198038 -0.000358 -2.270370
v 6.095357 0.000361 -2.377035
v 6.046169 0.003823 -2.185056
v 6.038801 0.001411 -2.384776
v 5.973102 0.002991 -2.365733
v 6.046169 0.003823 -2.185056
v 6.095357 0.000361 -2.377035
v 6.038801 0.001411 -2.384776
v 6.046169 0.003823 -2.185056
v 6.112576 0.002358 -2.194015
v 6.095357 0.000361 -2.377035
v 6.112576 0.002358 -2.194015
v 6.182195 0.000524 -2.226674
v 6.095357 0.000361 -2.377035
v 6.198038 -0.000358 -2.270370
v 6.165827 -0.001275 -2.392899
v 6.095357 0.000361 -2.377035
v 2.589578 0.280176 13.834762
v 2.971541 0.255811 13.584084
v 2.610671 0.302112 13.968356
v 2.811790 0.320569 14.034421
v 2.971541 0.255811 13.584084
v 2.589578 0.280176 13.834762
v 2.873860 0.241529 13.518233
v 2.601146 -0.009863 13.880564
v 2.653326 0.041358 14.191780
v 2.783970 0.040784 14.155138
v 2.601146 -0.009863 13.880564
v 2.783970 0.040784 14.155138
v 2.917149 -0.013159 13.779984
v 2.794413 -0.038940 13.647609
v 2.601146 -0.009863 13.880564
v 2.890432 -0.030835 13.674689
v 2.601146 -0.009863 13.880564
v 2.917149 -0.013159 13.779984
v 2.890432 -0.030835 13.674689
v 4.038415 0.266138 13.129204
v 3.879725 0.260572 13.006601
v 3.980247 0.317542 12.817313
v 4.201995 0.063428 12.774245
v 3.956406 -0.009643 12.906367
v 4.163070 0.012134 12.993599
v 4.078548 -0.014721 13.047454
v 4.038415 0.266138 13.129204
v 3.942944 0.240760 13.165393
v 3.879725 0.260572 13.006601
v 4.252257 0.340772 12.959224
v 4.038415 0.266138 13.129204
v 3.980247 0.317542 12.817313
v 4.201995 0.063428 12.774245
v 4.148151 0.065015 12.715237
v 3.956406 -0.009643 12.906367
v 4.148151 0.065015 12.715237
v 4.025592 0.044446 12.701813
v 3.956406 -0.009643 12.906367
v 4.252257 0.340772 12.959224
v 3.980247 0.317542 12.817313
v 4.111881 0.347461 12.792740
v -1.806778 0.052379 -4.110065
v -1.737663 0.054711 -4.153685
v -1.803481 0.052806 -4.085805
v -1.767787 0.054435 -4.072949
v -1.737663 0.054711 -4.153685
v -1.806778 0.052379 -4.110065
v -1.754880 0.053854 -4.166035
v -1.804610 -0.000086 -4.109437
v -1.796385 0.000928 -4.052911
v -1.772918 0.001826 -4.058950
v -1.804610 -0.000086 -4.109437
v -1.772918 0.001826 -4.058950
v -1.747807 0.002058 -4.126205
v -1.769265 0.000881 -4.150701
v -1.804610 -0.000086 -4.109437
v -1.752209 0.001649 -4.145370
v -1.804610 -0.000086 -4.109437
v -1.747807 0.002058 -4.126205
v -1.752209 0.001649 -4.145370
v -0.606155 0.047809 -3.791305
v -0.634565 0.046931 -3.813154
v -0.616138 0.053932 -3.847535
v -0.579023 0.006055 -3.852222
v -0.623508 -0.003078 -3.827896
v -0.586393 -0.000182 -3.812527
v -0.601717 -0.003532 -3.802640
v -0.606155 0.047809 -3.791305
v -0.623424 0.044623 -3.784589
v -0.634565 0.046931 -3.813154
v -0.567331 0.057088 -3.822411
v -0.606155 0.047809 -3.791305
v -0.616138 0.053932 -3.847535
v -0.579023 0.006055 -3.852222
v -0.588634 0.006176 -3.862781
v -0.623508 -0.003078 -3.827896
v -0.588634 0.006176 -3.862781
v -0.610705 0.003535 -3.864976
v -0.623508 -0.003078 -3.827896
v -0.567331 0.057088 -3.822411
v -0.616138 0.053932 -3.847535
v -0.592369 0.057712 -3.852220
v 6.064636 0.052380 -2.833950
v 6.135591 0.054711 -2.793390
v 6.044762 0.052806 -2.819652
v 6.050161 0.054435 -2.782100
v 6.135591 0.054711 -2.793390
v 6.064636 0.052380 -2.833950
v 6.138416 0.053854 -2.814390
v 6.065099 -0.000086 -2.831740
v 6.019045 0.000928 -2.797949
v 6.035391 0.001826 -2.780061
v 6.065099 -0.000086 -2.831740
v 6.035391 0.001826 -2.780061
v 6.106565 0.002058 -2.789451
v 6.118124 0.000881 -2.819895
v 6.065099 -0.000086 -2.831740
v 6.121422 0.001649 -2.802332
v 6.065099 -0.000086 -2.831740
v 6.106565 0.002058 -2.789451
v 6.121422 0.001649 -2.802332
v 6.346630 0.047809 -1.624163
v 6.352590 0.046931 -1.659504
v 6.391598 0.053932 -1.659368
v 6.413156 0.006055 -1.628794
v 6.370797 -0.003078 -1.656659
v 6.374644 -0.000181 -1.616672
v 6.358722 -0.003532 -1.625564
v 6.346630 0.047809 -1.624163
v 6.332595 0.044623 -1.636261
v 6.352590 0.046931 -1.659504
v 6.392319 0.057089 -1.604479
v 6.346630 0.047809 -1.624163
v 6.391598 0.053932 -1.659368
v 6.413156 0.006055 -1.628794
v 6.417968 0.006176 -1.642236
v 6.370797 -0.003078 -1.656659
v 6.417968 0.006176 -1.642236
v 6.409548 0.003536 -1.662756
v 6.370797 -0.003078 -1.656659
v 6.392319 0.057089 -1.604479
v 6.391598 0.053932 -1.659368
v 6.406890 0.057712 -1.640578
v 6.531322 0.052380 1.494952
v 6.602277 0.054712 1.535512
v 6.511448 0.052806 1.509249
v 6.516847 0.054435 1.546801
v 6.602277 0.054712 1.535512
v 6.531322 0.052380 1.494952
v 6.605103 0.053855 1.514511
v 6.531785 -0.000086 1.497161
v 6.485732 0.000929 1.530952
v 6.502077 0.001827 1.548840
v 6.531785 -0.000086 1.497161
v 6.502077 0.001827 1.548840
v 6.573251 0.002058 1.539451
v 6.584811 0.000881 1.509006
v 6.531785 -0.000086 1.497161
v 6.588108 0.001650 1.526569
v 6.531785 -0.000086 1.497161
v 6.573251 0.002058 1.539451
v 6.588108 0.001650 1.526569
v 4.908521 0.047809 2.840346
v 4.914481 0.046932 2.805005
v 4.953488 0.053932 2.805141
v 4.975046 0.006055 2.835715
v 4.932687 -0.003077 2.807850
v 4.936535 -0.000181 2.847837
v 4.920612 -0.003532 2.838945
v 4.908521 0.047809 2.840346
v 4.894485 0.044623 2.828249
v 4.914481 0.046932 2.805005
v 4.954209 0.057089 2.860030
v 4.908521 0.047809 2.840346
v 4.953488 0.053932 2.805141
v 4.975046 0.006055 2.835715
v 4.979858 0.006176 2.822273
v 4.932687 -0.003077 2.807850
v 4.979858 0.006176 2.822273
v 4.971439 0.003536 2.801753
v 4.932687 -0.003077 2.807850
v 4.954209 0.057089 2.860030
v 4.953488 0.053932 2.805141
v 4.968781 0.057713 2.823931
v -1.177623 0.052380 4.887578
v -1.106667 0.054712 4.928138
v -1.197497 0.052806 4.901875
v -1.192098 0.054435 4.939427
v -1.106667 0.054712 4.928138
v -1.177623 0.052380 4.887578
v -1.103842 0.053855 4.907138
v -1.177160 -0.000086 4.889787
v -1.223213 0.000929 4.923579
v -1.206867 0.001827 4.941467
v -1.177160 -0.000086 4.889787
v -1.206867 0.001827 4.941467
v -1.135693 0.002058 4.932077
v -1.124133 0.000882 4.901632
v -1.177160 -0.000086 4.889787
v -1.120836 0.001650 4.919196
v -1.177160 -0.000086 4.889787
v -1.135693 0.002058 4.932077
v -1.120836 0.001650 4.919196
v -1.349938 0.047809 4.573186
v -1.343978 0.046932 4.537846
v -1.304971 0.053933 4.537982
v -1.283413 0.006055 4.568556
v -1.325771 -0.003077 4.540691
v -1.321924 -0.000181 4.580678
v -1.337847 -0.003531 4.571786
v -1.349938 0.047809 4.573186
v -1.363974 0.044624 4.561089
v -1.343978 0.046932 4.537846
v -1.304249 0.057089 4.592871
v -1.349938 0.047809 4.573186
v -1.304971 0.053933 4.537982
v -1.283413 0.006055 4.568556
v -1.278600 0.006176 4.555114
v -1.325771 -0.003077 4.540691
v -1.278600 0.006176 4.555114
v -1.287020 0.003536 4.534594
v -1.325771 -0.003077 4.540691
v -1.304249 0.057089 4.592871
v -1.304971 0.053933 4.537982
v -1.289678 0.057713 4.556772
v -3.957598 0.065755 1.155445
v -3.865509 0.068782 1.208086
v -3.983391 0.066308 1.174001
v -3.976385 0.068423 1.222738
v -3.865509 0.068782 1.208086
v -3.957598 0.065755 1.155445
v -3.861842 0.067669 1.180831
v -3.956997 -0.002337 1.158313
v -4.016767 -0.001020 1.202169
v -3.995553 0.000145 1.225385
v -3.956997 -0.002337 1.158313
v -3.995553 0.000145 1.225385
v -3.903180 0.000445 1.213198
v -3.888178 -0.001082 1.173686
v -3.956997 -0.002337 1.158313
v -3.883898 -0.000085 1.196481
v -3.956997 -0.002337 1.158313
v -3.903180 0.000445 1.213198
v -3.883898 -0.000085 1.196481
v -4.563216 0.060567 -1.833877
v -4.555480 0.059428 -1.879744
v -4.504855 0.068514 -1.879568
v -4.476876 0.006376 -1.839888
v -4.531851 -0.005476 -1.876053
v -4.526857 -0.001717 -1.824155
v -4.547523 -0.006066 -1.835696
v -4.563216 0.060567 -1.833877
v -4.581432 0.056432 -1.849578
v -4.555480 0.059428 -1.879744
v -4.503919 0.072610 -1.808331
v -4.563216 0.060567 -1.833877
v -4.504855 0.068514 -1.879568
v -4.476876 0.006376 -1.839888
v -4.470630 0.006533 -1.857334
v -4.531851 -0.005476 -1.876053
v -4.470630 0.006533 -1.857334
v -4.481557 0.003107 -1.883965
v -4.531851 -0.005476 -1.876053
v -4.503919 0.072610 -1.808331
v -4.504855 0.068514 -1.879568
v -4.485007 0.073420 -1.855182
vn 0.1117 0.9937 0.0078
vn 0.1117 0.9937 0.0079
vn 0.1118 0.9937 0.0080
vn -0.1117 -0.9937 -0.0039
vn -0.1135 -0.9935 -0.0078
vn -0.1134 -0.9935 -0.0078
vn -0.1137 -0.9935 -0.0059
vn -0.1116 -0.9937 -0.0056
vn -0.1135 -0.9935 -0.0077
vn -0.1135 -0.9935 -0.0076
vn -0.1078 -0.9942 -0.0039
vn -0.1116 -0.9937 -0.0077
vn -0.1117 -0.9937 -0.0078
vn -0.1155 -0.9933 -0.0075
vn -0.1155 -0.9933 -0.0076
vn -0.1117 -0.9937 -0.0096
vn -0.1117 -0.9937 -0.0097
vn -0.1098 -0.9939 -0.0059
vn 0.1116 0.9937 0.0077
vn 0.1118 0.9937 0.0079
vn 0.0371 0.9822 -0.1842
vn 0.0372 0.9822 -0.1842
vn -0.0373 -0.9822 0.1843
vn -0.0371 -0.9822 0.1842
vn -0.0371 -0.9822 0.1841
vn 0.0373 0.9822 -0.1843
vn 0.0374 0.9821 -0.1844
vn 0.0372 0.9822 -0.1843
vn -0.0372 -0.9822 0.1843
vn -0.0374 -0.9821 0.1844
vn -0.0370 -0.9822 0.1841
vn 0.1941 0.9746 0.1117
vn -0.1941 -0.9746 -0.1116
vn -0.1942 -0.9746 -0.1115
vn -0.1941 -0.9746 -0.1115
vn 0.1941 0.9746 0.1118
vn 0.1941 0.9746 0.1119
vn -0.1941 -0.9746 -0.1117
vn -0.1942 -0.9746 -0.1117
vn -0.8880 -0.0333 0.4586
vn -0.8880 -0.0332 0.4586
vn -0.8880 -0.0333 0.4587
vn 0.8879 0.0334 -0.4587
vn 0.8880 0.0334 -0.4587
vn 0.8880 0.0333 -0.4587
vn 0.8880 0.0332 -0.4586
vn 0.0138 0.9999 0.0040
vn 0.0137 0.9999 0.0039
vn 0.0137 0.9999 0.0038
vn 0.0136 0.9999 0.0037
vn -0.0137 -0.9999 -0.0038
vn -0.0137 -0.9999 -0.0039
vn -0.0136 -0.9999 -0.0038
vn -0.1292 -0.9905 0.0469
vn -0.1292 -0.9905 0.0470
vn -0.1291 -0.9905 0.0468
vn -0.1292 -0.9905 0.0471
vn -0.0000 0.9999 -0.0136
vn -0.0000 0.9999 -0.0138
vn -0.0000 0.9999 -0.0137
vn -0.0000 0.9999 -0.0139
vn -0.0000 -0.9999 0.0137
vn 0.0647 0.9973 0.0354
vn 0.0647 0.9973 0.0353
vn -0.0646 -0.9973 -0.0353
vn 0.0646 0.9973 0.0353
vn 0.0646 0.9973 0.0352
vn -0.0646 -0.9973 -0.0352
vn -0.0647 -0.9973 -0.0353
vn -0.0647 -0.9973 -0.0354
vn -0.0451 0.9973 0.0588
vn 0.0451 -0.9973 -0.0588
vn 0.0450 -0.9973 -0.0587
vn -0.0451 0.9972 0.0588
vn -0.0450 0.9973 0.0587
vn -0.0452 0.9972 0.0588
vn 0.0452 -0.9972 -0.0588
vn 0.0450 -0.9973 -0.0588
vn 0.0451 -0.9972 -0.0588
vn -0.0450 0.9973 0.0588
vn 0.0449 -0.9973 -0.0587
vn -0.0449 0.9973 0.0587
vn 0.0215 0.9997 0.0078
vn 0.0215 0.9997 0.0077
vn 0.0214 0.9997 0.0076
vn -0.0215 -0.9998 -0.0038
vn -0.0236 -0.9997 -0.0079
vn -0.0235 -0.9997 -0.0078
vn -0.0235 -0.9997 -0.0060
vn -0.0216 -0.9997 -0.0060
vn -0.0238 -0.9997 -0.0083
vn -0.0176 -0.9998 -0.0039
vn -0.0216 -0.9997 -0.0079
vn -0.0215 -0.9997 -0.0078
vn -0.0215 -0.9997 -0.0077
vn -0.0216 -0.9997 -0.0078
vn -0.0255 -0.9996 -0.0078
vn -0.0215 -0.9997 -0.0097
vn -0.0216 -0.9997 -0.0098
vn -0.0196 -0.9998 -0.0059
vn 0.0216 0.9997 0.0078
vn 0.0197 0.9997 -0.0119
vn 0.0196 0.9997 -0.0118
vn -0.0156 -0.9998 0.0137
vn -0.0196 -0.9997 0.0137
vn -0.0195 -0.9997 0.0136
vn -0.0179 -0.9997 0.0139
vn -0.0176 -0.9998 0.0137
vn -0.0197 -0.9997 0.0138
vn -0.0137 -0.9998 0.0118
vn -0.0196 -0.9997 0.0117
vn -0.0195 -0.9997 0.0117
vn -0.0196 -0.9997 0.0118
vn -0.0218 -0.9996 0.0157
vn -0.0219 -0.9996 0.0157
vn -0.0197 -0.9998 0.0099
vn -0.0176 -0.9998 0.0118
vn -0.0177 -0.9998 0.0119
vn 0.0196 0.9997 -0.0117
vn 0.0195 0.9997 -0.0116
vn -0.1194 -0.9928 -0.0098
vn -0.1195 -0.9928 -0.0100
vn -0.1197 -0.9928 -0.0100
vn -0.1410 -0.9893 -0.0372
vn -0.1410 -0.9893 -0.0371
vn -0.0452 -0.9808 0.1899
vn -0.0448 -0.9808 0.1899
vn -0.0449 -0.9808 0.1899
vn -0.0372 -0.9822 0.1842
vn -0.1901 -0.9742 -0.1215
vn -0.1941 -0.9746 -0.1118
vn 0.1941 0.9746 0.1116
vn -0.8880 -0.0334 0.4587
vn -0.0139 -0.9999 -0.0042
vn -0.0138 -0.9999 -0.0041
vn -0.0138 -0.9999 -0.0040
vn -0.0000 -0.9999 0.0139
vn -0.0000 -0.9999 0.0136
vn -0.0626 -0.9970 -0.0450
vn -0.0627 -0.9970 -0.0451
vn 0.0645 0.9973 0.0351
vn -0.0628 -0.9970 -0.0452
vn -0.0626 -0.9970 -0.0449
vn -0.0627 -0.9970 -0.0450
vn 0.0548 -0.9970 -0.0548
vn 0.0553 -0.9969 -0.0553
vn 0.0549 -0.9970 -0.0549
vn 0.0550 -0.9970 -0.0551
vn 0.0547 -0.9970 -0.0546
vn 0.0547 -0.9970 -0.0547
vn 0.0453 -0.9972 -0.0589
vn 0.0549 -0.9970 -0.0550
vn 0.0548 -0.9970 -0.0547
vn -0.0294 -0.9995 -0.0098
vn -0.0294 -0.9995 -0.0097
vn -0.0298 -0.9995 -0.0104
vn -0.0510 -0.9980 -0.0372
vn -0.0510 -0.9980 -0.0373
vn -0.0256 -0.9995 0.0177
vn -0.0255 -0.9995 0.0176
vn -0.0608 -0.9980 0.0176
vn -0.0607 -0.9980 0.0177
vn 0.0392 -0.9872 0.1549
vn 0.0392 -0.9871 0.1549
vn -0.0392 0.9872 -0.1546
vn -0.0392 0.9872 -0.1547
vn -0.0392 0.9872 -0.1548
vn 0.1823 -0.9643 -0.1921
vn 0.1823 -0.9643 -0.1920
vn 0.1822 -0.9643 -0.1920
vn 0.1822 -0.9644 -0.1919
vn -0.1823 0.9643 0.1921
vn -0.1823 0.9643 0.1922
vn -0.1824 0.9642 0.1923
vn 0.0412 -0.9991 0.0119
vn -0.0413 0.9991 -0.0119
vn -0.0410 0.9991 -0.0115
vn -0.0412 0.9991 -0.0120
vn -0.0411 0.9991 -0.0117
vn -0.0412 0.9991 -0.0118
vn 0.1292 -0.9832 -0.1292
vn 0.1293 -0.9831 -0.1293
vn 0.1293 -0.9832 -0.1293
vn -0.1291 0.9832 0.1292
vn -0.1293 0.9832 0.1293
vn -0.1292 0.9832 0.1292
vn 0.0080 -0.9991 0.0413
vn 0.0080 -0.9991 0.0412
vn -0.0079 0.9991 -0.0412
vn -0.0080 0.9991 -0.0413
vn -0.0078 0.9991 -0.0411
vn 0.1762 -0.9829 0.0529
vn 0.1762 -0.9829 0.0530
vn 0.1763 -0.9829 0.0531
vn 0.1762 -0.9829 0.0527
vn 0.1762 -0.9829 0.0528
vn -0.1762 0.9829 -0.0529
vn -0.1762 0.9829 -0.0528
vn -0.1762 0.9829 -0.0526
vn -0.1762 0.9829 -0.0527
vn 0.0078 -0.9991 0.0411
vn -0.1762 0.9829 -0.0531
vn -0.1762 0.9829 -0.0530
vn -0.0081 0.9991 -0.0414
vn -0.0077 0.9991 -0.0411
vn -0.0077 0.9991 -0.0410
vn 0.0079 -0.9991 0.0412
vn -0.1762 0.9829 -0.0532
vn 0.0392 -0.9872 0.1548
vn 0.0392 -0.9872 0.1547
vn -0.1822 0.9643 0.1920
vn 0.0411 -0.9991 0.0117
vn 0.0413 -0.9991 0.0120
vn -0.1293 0.9831 0.1293
vn -0.1294 0.9831 0.1293
vn 0.0081 -0.9991 0.0414
vn -0.1763 0.9829 -0.0531
vt 1.185547 5.203125
vt 0.813965 4.933594
vt 1.276367 5.140625
vt 1.533203 4.644531
vt 1.216797 4.449219
vt 1.339844 4.431641
vt 1.456055 4.414062
vt 1.549805 4.468750
vt 1.132812 4.472656
vt 1.592773 4.601562
vt 1.354492 4.400391
vt 1.579102 4.683594
vt 1.523438 4.818359
vt 0.989746 4.484375
vt 1.502930 4.941406
vt 0.854980 4.626953
vt 1.458008 5.035156
vt 0.808105 4.775391
vt 1.309570 5.210938
vt 0.787598 4.900391
vt 0.841309 5.062500
vt 0.981445 5.234375
vt 0.875977 5.183594
vt 1.211914 5.281250
vt 1.128906 5.281250
vt 0.743652 5.089844
vt 0.833496 4.781250
vt 1.422852 4.820312
vt 1.078125 4.453125
vt 1.391602 4.980469
vt 0.920898 4.611328
vt 0.379639 4.869141
vt 0.254639 4.824219
vt 0.415039 4.607422
vt 0.491699 4.660156
vt 0.406982 4.865234
vt 0.485596 4.886719
vt 0.408936 4.623047
vt 0.339600 4.617188
vt 0.287598 4.794922
vt 0.346680 4.589844
vt 0.180542 4.750000
vt 0.190796 4.650391
vt 0.302979 4.511719
vt 0.273682 4.527344
vt 0.180542 4.791016
vt 0.192993 4.650391
vt 0.292480 4.410156
vt 0.319824 4.351562
vt 0.498047 4.529297
vt 0.633789 4.406250
vt 0.497559 4.529297
vt 0.667480 4.472656
vt 0.410156 4.373047
vt 0.353516 4.396484
vt 0.347900 4.449219
vt 0.815430 4.546875
vt 0.685059 4.667969
vt 0.798340 4.666016
vt 0.716309 4.714844
vt 0.644531 4.519531
vt 0.802734 4.636719
vt 0.734863 4.496094
vt 0.779297 4.488281
vt 0.839355 4.523438
vt 0.763672 4.492188
vt 2.919922 0.337891
vt 2.689453 0.300293
vt 2.800781 0.376953
vt 2.718750 0.168945
vt 3.146484 0.143555
vt 3.019531 -0.085938
vt 3.109375 0.148926
vt 2.947266 0.273438
vt 2.988281 0.217773
vt 2.634766 0.023438
vt 2.953125 -0.214844
vt 3.044922 0.175293
vt 3.203125 0.103027
vt 3.134766 -0.007812
vt 3.201172 0.017578
vt 2.830078 -0.273438
vt 2.912109 0.389160
vt 1.540039 4.464844
vt 1.451172 4.388672
vt 1.045898 5.292969
vt 1.117188 5.308594
vt 1.000977 5.355469
vt 0.837402 5.289062
vt 0.250732 4.568359
vt 0.283203 4.550781
vt 0.542480 4.791016
vt 0.548340 4.650391
vt 0.475586 4.656250
vt 0.453857 4.826172
vt 0.571289 4.505859
vt 0.588379 4.392578
vt 0.679688 4.607422
vt 0.700195 4.660156
vt 2.714844 -0.250000
vt 2.630859 -0.148438
s 1
f 7/1/1 5/2/1 6/3/1
f 10/4/1 8/5/1 9/6/1
f 13/4/1 11/7/1 12/8/1
f 16/4/2 14/6/2 15/7/3
f 19/9/4 17/10/4 18/11/4
f 22/9/5 20/12/5 21/10/6
f 25/9/7 23/13/7 24/12/7
f 28/14/8 26/13/8 27/9/8
f 31/14/9 29/15/10 30/13/10
f 34/16/11 32/15/11 33/14/11
f 37/17/12 35/15/12 36/16/12
f 40/17/12 38/16/12 39/18/12
f 43/17/13 41/18/13 42/19/13
f 46/19/13 44/18/13 45/20/13
f 49/19/13 47/20/13 48/21/13
f 52/22/14 50/21/15 51/23/14
f 59/19/16 57/22/17 58/24/16
f 62/19/18 60/21/18 61/22/18
f 69/25/19 67/26/19 68/1/19
f 72/1/20 70/26/2 71/2/20
f 75/3/1 73/2/1 74/27/1
f 78/28/1 76/29/1 77/5/1
f 81/3/1 79/27/1 80/30/1
f 84/30/3 82/27/3 83/28/3
f 87/28/1 85/27/19 86/31/1
f 90/28/1 88/31/1 89/29/1
f 93/28/20 91/5/3 92/4/3
f 104/32/21 102/33/22 103/34/22
f 107/35/23 105/36/23 106/37/23
f 110/38/24 108/39/25 109/40/24
f 113/41/26 111/42/26 112/43/27
f 116/44/21 114/41/21 115/45/21
f 123/41/28 121/34/28 122/33/28
f 126/45/26 124/41/26 125/43/27
f 129/41/22 127/33/22 128/42/21
f 132/38/29 130/36/29 131/35/23
f 135/40/30 133/36/30 134/38/23
f 138/40/31 136/39/31 137/46/31
f 141/46/24 139/39/24 140/47/24
f 152/32/32 150/33/32 151/34/32
f 155/35/33 153/36/34 154/37/35
f 158/38/33 156/39/33 157/40/33
f 161/41/36 159/42/37 160/43/37
f 164/44/32 162/41/32 163/45/32
f 171/41/36 169/34/36 170/33/32
f 174/45/36 172/41/36 173/43/37
f 177/41/32 175/33/32 176/42/32
f 180/38/38 178/36/38 179/35/38
f 183/40/38 181/36/39 182/38/39
f 186/40/38 184/39/38 185/46/38
f 189/46/38 187/39/38 188/47/38
f 196/48/40 194/49/41 195/50/42
f 199/51/43 197/52/44 198/53/43
f 202/54/45 200/52/45 201/51/45
f 205/55/46 203/56/46 204/52/46
f 208/55/44 206/52/45 207/54/45
f 211/57/47 209/58/48 210/59/48
f 218/59/49 216/58/49 217/60/48
f 221/57/50 219/61/50 220/58/50
f 224/62/51 222/63/51 223/64/52
f 227/62/51 225/64/53 226/65/51
f 230/66/47 228/61/48 229/57/48
f 233/67/54 231/68/55 232/69/54
f 236/67/56 234/70/56 235/68/54
f 239/71/55 237/72/55 238/73/55
f 242/74/55 240/70/55 241/67/55
f 245/75/55 243/70/57 244/74/55
f 248/75/54 246/76/54 247/70/54
f 255/76/55 253/72/55 254/77/55
f 258/75/56 256/72/56 257/76/56
f 261/78/55 259/72/55 260/75/55
f 264/73/55 262/72/55 263/78/55
f 267/71/55 265/79/55 266/80/55
f 270/80/55 268/79/55 269/81/55
f 273/76/54 271/77/54 272/82/54
f 276/71/55 274/80/54 275/72/54
f 279/67/56 277/69/54 278/83/54
f 282/57/58 280/58/58 281/59/58
f 289/59/59 287/58/60 288/60/60
f 292/57/61 290/61/61 291/58/61
f 295/62/62 293/63/62 294/64/62
f 298/62/62 296/64/62 297/65/62
f 301/66/60 299/61/58 300/57/60
f 312/32/63 310/33/64 311/34/64
f 315/35/65 313/36/65 314/37/65
f 318/38/65 316/39/65 317/40/65
f 321/41/66 319/42/67 320/43/66
f 324/44/63 322/41/64 323/45/64
f 331/41/64 329/34/64 330/33/64
f 334/45/66 332/41/66 333/43/67
f 337/41/67 335/33/67 336/42/67
f 340/38/65 338/36/65 339/35/65
f 343/40/68 341/36/68 342/38/68
f 346/40/68 344/39/68 345/46/68
f 349/46/69 347/39/69 348/47/69
f 360/32/66 358/33/64 359/34/64
f 363/35/68 361/36/68 362/37/68
f 366/38/65 364/39/69 365/40/65
f 369/41/64 367/42/66 368/43/64
f 372/44/63 370/41/63 371/45/63
f 379/41/64 377/34/64 378/33/64
f 382/45/64 380/41/66 381/43/66
f 385/41/66 383/33/64 384/42/66
f 388/38/68 386/36/68 387/35/68
f 391/40/65 389/36/65 390/38/65
f 394/40/70 392/39/70 393/46/69
f 397/46/69 395/39/69 396/47/65
f 408/32/71 406/33/71 407/34/71
f 411/35/72 409/36/72 410/37/72
f 414/38/73 412/39/73 413/40/73
f 417/41/74 415/42/71 416/43/71
f 420/44/71 418/41/71 419/45/71
f 427/41/75 425/34/71 426/33/71
f 430/45/76 428/41/76 429/43/76
f 433/41/71 431/33/74 432/42/71
f 436/38/73 434/36/73 435/35/73
f 439/40/77 437/36/77 438/38/77
f 442/40/78 440/39/78 441/46/72
f 445/46/72 443/39/79 444/47/79
f 456/32/71 454/33/71 455/34/71
f 459/35/73 457/36/73 458/37/78
f 462/38/77 460/39/72 461/40/77
f 465/41/71 463/42/71 464/43/71
f 468/44/75 466/41/75 467/45/75
f 475/41/76 473/34/74 474/33/71
f 478/45/75 476/41/80 477/43/75
f 481/41/71 479/33/71 480/42/71
f 484/38/73 482/36/73 483/35/73
f 487/40/73 485/36/73 486/38/78
f 490/40/78 488/39/78 489/46/73
f 493/46/72 491/39/77 492/47/77
f 504/32/74 502/33/76 503/34/74
f 507/35/77 505/36/79 506/37/77
f 510/38/81 508/39/81 509/40/81
f 513/41/71 511/42/80 512/43/71
f 516/44/82 514/41/82 515/45/82
f 523/41/76 521/34/71 522/33/76
f 526/45/74 524/41/71 525/43/71
f 529/41/75 527/33/75 528/42/75
f 532/38/81 530/36/81 531/35/81
f 535/40/73 533/36/73 534/38/73
f 538/40/72 536/39/72 537/46/72
f 541/46/73 539/39/73 540/47/73
f 552/32/82 550/33/82 551/34/82
f 555/35/78 553/36/72 554/37/72
f 558/38/72 556/39/72 557/40/78
f 561/41/75 559/42/75 560/43/75
f 564/44/71 562/41/71 563/45/71
f 571/41/71 569/34/71 570/33/71
f 574/45/76 572/41/76 573/43/76
f 577/41/71 575/33/71 576/42/76
f 580/38/81 578/36/81 579/35/81
f 583/40/72 581/36/72 582/38/79
f 586/40/72 584/39/72 585/46/72
f 589/46/79 587/39/77 588/47/77
f 596/1/83 594/2/83 595/3/83
f 599/4/84 597/5/84 598/6/84
f 602/4/85 600/7/85 601/8/85
f 605/4/83 603/6/83 604/7/83
f 608/9/86 606/10/86 607/11/86
f 611/9/87 609/12/88 610/10/88
f 614/9/89 612/13/89 613/12/89
f 617/14/90 615/13/90 616/9/90
f 620/14/91 618/15/91 619/13/91
f 623/16/92 621/15/92 622/14/92
f 626/17/93 624/15/93 625/16/93
f 629/17/94 627/16/94 628/18/94
f 632/17/93 630/18/93 631/19/93
f 635/19/95 633/18/95 634/20/95
f 638/19/96 636/20/96 637/21/93
f 641/22/97 639/21/97 640/23/97
f 648/19/98 646/22/99 647/24/99
f 651/19/100 649/21/100 650/22/100
f 658/25/83 656/26/83 657/1/83
f 661/1/101 659/26/101 660/2/101
f 664/3/101 662/2/101 663/27/83
f 667/28/83 665/29/83 666/5/83
f 670/3/83 668/27/83 669/30/83
f 673/30/83 671/27/83 672/28/83
f 676/28/84 674/27/84 675/31/84
f 679/28/101 677/31/83 678/29/101
f 682/28/83 680/5/83 681/4/83
f 689/1/102 687/2/103 688/3/103
f 692/4/102 690/5/102 691/6/102
f 695/4/103 693/7/103 694/8/103
f 698/4/103 696/6/103 697/7/103
f 701/9/104 699/10/104 700/11/104
f 704/9/105 702/12/105 703/10/105
f 707/9/106 705/13/106 706/12/106
f 710/14/107 708/13/107 709/9/108
f 713/14/109 711/15/109 712/13/109
f 716/16/110 714/15/110 715/14/110
f 719/17/111 717/15/111 718/16/111
f 722/17/112 720/16/111 721/18/111
f 725/17/113 723/18/113 724/19/113
f 728/19/112 726/18/112 727/20/112
f 731/19/111 729/20/111 730/21/111
f 734/22/114 732/21/115 733/23/114
f 741/19/116 739/22/116 740/24/116
f 744/19/117 742/21/118 743/22/117
f 751/25/102 749/26/102 750/1/102
f 754/1/103 752/26/103 753/2/103
f 757/3/103 755/2/103 756/27/103
f 760/28/119 758/29/119 759/5/119
f 763/3/120 761/27/120 762/30/120
f 766/30/102 764/27/102 765/28/103
f 769/28/103 767/27/103 768/31/103
f 772/28/103 770/31/103 771/29/103
f 775/28/102 773/5/102 774/4/103
f 3/11/121 1/10/122 2/84/123
f 2/84/123 4/85/121 3/11/121
f 55/24/124 53/22/124 54/86/124
f 54/86/124 56/87/125 55/24/124
f 65/25/20 63/88/1 64/89/1
f 64/89/1 66/26/1 65/25/20
f 96/90/126 94/47/127 95/39/128
f 95/39/128 97/91/128 96/90/126
f 100/37/129 98/92/129 99/93/23
f 99/93/23 101/35/23 100/37/129
f 119/32/22 117/34/22 118/94/22
f 118/94/22 120/95/22 119/32/22
f 144/90/130 142/47/130 143/39/130
f 143/39/130 145/91/130 144/90/130
f 148/37/131 146/92/33 147/93/33
f 147/93/33 149/35/131 148/37/131
f 167/32/132 165/34/36 166/94/32
f 166/94/32 168/95/36 167/32/132
f 192/96/133 190/50/40 191/49/40
f 191/49/40 193/97/40 192/96/133
f 214/98/51 212/63/134 213/62/135
f 213/62/135 215/99/136 214/98/51
f 251/76/55 249/82/56 250/100/54
f 250/100/54 252/101/55 251/76/55
f 285/98/62 283/63/137 284/62/62
f 284/62/62 286/99/138 285/98/62
f 304/90/139 302/47/140 303/39/140
f 303/39/140 305/91/140 304/90/139
f 308/37/68 306/92/68 307/93/69
f 307/93/69 309/35/65 308/37/68
f 327/32/66 325/34/141 326/94/66
f 326/94/66 328/95/67 327/32/66
f 352/90/142 350/47/143 351/39/144
f 351/39/144 353/91/144 352/90/142
f 356/37/68 354/92/68 355/93/69
f 355/93/69 357/35/68 356/37/68
f 375/32/66 373/34/67 374/94/66
f 374/94/66 376/95/66 375/32/66
f 400/90/145 398/47/146 399/39/145
f 399/39/145 401/91/145 400/90/145
f 404/37/73 402/92/79 403/93/77
f 403/93/77 405/35/72 404/37/73
f 423/32/71 421/34/75 422/94/71
f 422/94/71 424/95/71 423/32/71
f 448/90/147 446/47/145 447/39/148
f 447/39/148 449/91/149 448/90/147
f 452/37/72 450/92/72 451/93/78
f 451/93/78 453/35/72 452/37/72
f 471/32/71 469/34/71 470/94/80
f 470/94/80 472/95/71 471/32/71
f 496/90/147 494/47/146 495/39/148
f 495/39/148 497/91/150 496/90/147
f 500/37/72 498/92/72 499/93/72
f 499/93/72 501/35/151 500/37/72
f 519/32/75 517/34/75 518/94/76
f 518/94/76 520/95/76 519/32/75
f 544/90/152 542/47/153 543/39/152
f 543/39/152 545/91/147 544/90/152
f 548/37/78 546/92/72 547/93/73
f 547/93/73 549/35/79 548/37/78
f 567/32/71 565/34/76 566/94/71
f 566/94/71 568/95/71 567/32/71
f 592/11/154 590/10/155 591/84/156
f 591/84/156 593/85/154 592/11/154
f 644/24/157 642/22/157 643/86/158
f 643/86/158 645/87/157 644/24/157
f 654/25/85 652/88/84 653/89/83
f 653/89/83 655/26/85 654/25/85
f 685/11/159 683/10/160 684/84/160
f 684/84/160 686/85/160 685/11/159
f 737/24/161 735/22/161 736/86/161
f 736/86/161 738/87/162 737/24/161
f 747/25/102 745/88/120 746/89/103
f 746/89/103 748/26/120 747/25/102
f 782/48/163 780/49/164 781/50/163
f 785/51/165 783/52/165 784/53/165
f 788/54/166 786/52/166 787/51/166
f 791/55/166 789/56/166 790/52/166
f 794/55/167 792/52/167 793/54/167
f 797/57/168 795/58/169 796/59/169
f 804/59/170 802/58/170 803/60/171
f 807/57/170 805/61/170 806/58/170
f 810/62/172 808/63/172 809/64/172
f 813/62/173 811/64/173 812/65/174
f 816/66/168 814/61/168 815/57/168
f 823/48/175 821/49/175 822/50/175
f 826/51/176 824/52/176 825/53/176
f 829/54/177 827/52/178 828/51/177
f 832/55/176 830/56/179 831/52/176
f 835/55/180 833/52/180 834/54/180
f 838/57/181 836/58/181 837/59/181
f 845/59/182 843/58/182 844/60/182
f 848/57/181 846/61/181 847/58/183
f 851/62/184 849/63/184 850/64/184
f 854/62/185 852/64/186 853/65/185
f 857/66/182 855/61/182 856/57/182
f 864/48/187 862/49/188 863/50/188
f 867/51/189 865/52/189 866/53/189
f 870/54/190 868/52/189 869/51/190
f 873/55/189 871/56/189 872/52/189
f 876/55/191 874/52/189 875/54/189
f 879/57/192 877/58/192 878/59/192
f 886/59/193 884/58/194 885/60/194
f 889/57/195 887/61/195 888/58/196
f 892/62/197 890/63/198 891/64/197
f 895/62/199 893/64/198 894/65/200
f 898/66/193 896/61/193 897/57/193
f 905/48/201 903/49/201 904/50/201
f 908/51/190 906/52/190 907/53/190
f 911/54/189 909/52/190 910/51/189
f 914/55/189 912/56/189 913/52/189
f 917/55/189 915/52/189 916/54/189
f 920/57/192 918/58/192 919/59/192
f 927/59/192 925/58/193 926/60/193
f 930/57/193 928/61/193 929/58/193
f 933/62/202 931/63/202 932/64/202
f 936/62/203 934/64/197 935/65/203
f 939/66/192 937/61/196 938/57/192
f 946/48/201 944/49/201 945/50/201
f 949/51/189 947/52/189 948/53/189
f 952/54/191 950/52/191 951/51/191
f 955/55/204 953/56/190 954/52/190
f 958/55/191 956/52/205 957/54/206
f 961/57/196 959/58/192 960/59/192
f 968/59/195 966/58/195 967/60/195
f 971/57/195 969/61/195 970/58/195
f 974/62/198 972/63/198 973/64/197
f 977/62/200 975/64/198 976/65/198
f 980/66/193 978/61/193 979/57/193
f 987/48/207 985/49/187 986/50/188
f 990/51/190 988/52/204 989/53/190
f 993/54/189 991/52/189 992/51/189
f 996/55/189 994/56/189 995/52/189
f 999/55/191 997/52/191 998/54/191
f 1002/57/196 1000/58/196 1001/59/196
f 1009/59/192 1007/58/192 1008/60/192
f 1012/57/193 1010/61/192 1011/58/192
f 1015/62/197 1013/63/197 1014/64/197
f 1018/62/203 1016/64/202 1017/65/208
f 1021/66/192 1019/61/193 1020/57/193
f 778/96/209 776/50/210 777/49/210
f 777/49/210 779/97/209 778/96/209
f 800/98/172 798/63/211 799/62/172
f 799/62/172 801/99/211 800/98/172
f 819/96/212 817/50/175 818/49/213
f 818/49/213 820/97/213 819/96/212
f 841/98/214 839/63/215 840/62/186
f 840/62/186 842/99/214 841/98/214
f 860/96/207 858/50/216 859/49/201
f 859/49/201 861/97/207 860/96/207
f 882/98/197 880/63/197 881/62/198
f 881/62/198 883/99/197 882/98/197
f 901/96/207 899/50/207 900/49/201
f 900/49/201 902/97/207 901/96/207
f 923/98/197 921/63/197 922/62/198
f 922/62/198 924/99/198 923/98/197
f 942/96/207 940/50/207 941/49/187
f 941/49/187 943/97/187 942/96/207
f 964/98/198 962/63/198 963/62/198
f 963/62/198 965/99/217 964/98/198
f 983/96/207 981/50/216 982/49/207
f 982/49/207 984/97/207 983/96/207
f 1005/98/197 1003/63/203 1004/62/200
f 1004/62/200 1006/99/197 1005/98/197
