# Blender 4.5.3 LTS
# www.blender.org
o w9a02_wall05
v 7.446220 0.280524 16.861450
v 7.446220 -0.004526 16.628609
v 7.383902 0.280524 16.909286
v 6.773675 -0.004526 16.909286
v 7.383902 -0.004526 16.563078
v 6.711359 -0.004526 16.861450
v 6.773675 -0.004526 16.563078
v 6.711359 -0.004526 16.628609
v 7.408830 0.376627 16.640497
v 7.368414 0.376627 16.609472
v 7.446220 0.346932 16.628609
v 7.383902 0.346932 16.563078
v 7.446220 0.346932 16.628609
v 7.446220 0.346932 16.861450
v 7.408830 0.376627 16.640497
v 7.408830 0.376627 16.849562
v 7.446220 0.346932 16.861450
v 7.383902 0.346932 16.909286
v 7.408830 0.376627 16.849562
v 7.368414 0.376627 16.880585
v 7.368414 0.376627 16.609472
v 6.789163 0.376627 16.609472
v 7.383902 0.346932 16.563078
v 6.773675 0.346932 16.563078
v 6.789163 0.376627 16.609472
v 6.748749 0.376627 16.640497
v 6.773675 0.346932 16.563078
v 6.711359 0.346932 16.628609
v 6.748749 0.376627 16.640497
v 6.748749 0.376627 16.849562
v 6.711359 0.346932 16.628609
v 6.711359 0.346932 16.861450
v 6.748749 0.376627 16.849562
v 6.789163 0.376627 16.880585
v 6.711359 0.346932 16.861450
v 6.773675 0.346932 16.909286
v 7.383902 0.346932 16.909286
v 6.773675 0.346932 16.909286
v 7.368414 0.376627 16.880585
v 6.789163 0.376627 16.880585
v 7.383902 0.346932 16.563078
v 6.773675 0.346932 16.563078
v 7.383902 -0.004526 16.563078
v 6.773675 -0.004526 16.563078
v 7.383902 0.280524 16.909286
v 6.773675 -0.004526 16.909286
v 7.383902 0.346932 16.909286
v 6.773675 0.346932 16.909286
v 6.711359 -0.004526 16.861450
v 6.711359 -0.004526 16.628609
v 6.711359 0.346932 16.861450
v 6.711359 0.346932 16.628609
v 7.446220 0.346932 16.861450
v 7.446220 0.346932 16.628609
v 7.446220 0.280524 16.861450
v 7.446220 -0.004526 16.628609
v 7.408830 0.376627 16.849562
v 7.368414 0.376627 16.880585
v 7.408830 0.376627 16.640497
v 7.368414 0.376627 16.609472
v 6.789163 0.376627 16.880585
v 6.789163 0.376627 16.609472
v 6.748749 0.376627 16.849562
v 6.748749 0.376627 16.640497
v 7.446220 -0.004526 16.628609
v 7.446220 0.346932 16.628609
v 7.383902 -0.004526 16.563078
v 7.383902 0.346932 16.563078
v 6.773675 -0.004526 16.563078
v 6.773675 0.346932 16.563078
v 6.711359 -0.004526 16.628609
v 6.711359 0.346932 16.628609
v 7.383902 0.280524 16.909286
v 7.383902 0.346932 16.909286
v 7.446220 0.280524 16.861450
v 7.446220 0.346932 16.861450
v 6.711359 -0.004526 16.861450
v 6.711359 0.346932 16.861450
v 6.773675 -0.004526 16.909286
v 6.773675 0.346932 16.909286
v -7.136782 -0.009856 0.669807
v -7.440105 -0.009856 0.669807
v -7.074464 -0.009856 0.732124
v -7.074464 -0.009856 1.771434
v -7.502422 -0.009856 0.732124
v -7.136782 -0.009856 1.833751
v -7.502422 -0.009856 1.771434
v -7.440105 -0.009856 1.833751
v -7.424617 0.371298 0.707197
v -7.465032 0.371298 0.747612
v -7.440105 0.341602 0.669807
v -7.502422 0.341602 0.732124
v -7.440105 0.341602 0.669807
v -7.136782 0.341602 0.669807
v -7.424617 0.371298 0.707197
v -7.152270 0.371298 0.707197
v -7.136782 0.341602 0.669807
v -7.074464 0.341602 0.732124
v -7.152270 0.371298 0.707197
v -7.111856 0.371298 0.747612
v -7.465032 0.371298 0.747612
v -7.465032 0.371298 1.755946
v -7.502422 0.341602 0.732124
v -7.502422 0.341602 1.771434
v -7.465032 0.371298 1.755946
v -7.424617 0.371298 1.796361
v -7.502422 0.341602 1.771434
v -7.440105 0.341602 1.833751
v -7.424617 0.371298 1.796361
v -7.152270 0.371298 1.796361
v -7.440105 0.341602 1.833751
v -7.136782 0.341602 1.833751
v -7.152270 0.371298 1.796361
v -7.111856 0.371298 1.755946
v -7.136782 0.341602 1.833751
v -7.074464 0.341602 1.771434
v -7.074464 0.341602 0.732124
v -7.074464 0.341602 1.771434
v -7.111856 0.371298 0.747612
v -7.111856 0.371298 1.755946
v -7.502422 0.341602 0.732124
v -7.502422 0.341602 1.771434
v -7.502422 -0.009856 0.732124
v -7.502422 -0.009856 1.771434
v -7.074464 -0.009856 0.732124
v -7.074464 -0.009856 1.771434
v -7.074464 0.341602 0.732124
v -7.074464 0.341602 1.771434
v -7.136782 -0.009856 1.833751
v -7.440105 -0.009856 1.833751
v -7.136782 0.341602 1.833751
v -7.440105 0.341602 1.833751
v -7.136782 0.341602 0.669807
v -7.440105 0.341602 0.669807
v -7.136782 -0.009856 0.669807
v -7.440105 -0.009856 0.669807
v -7.152270 0.371298 0.707197
v -7.111856 0.371298 0.747612
v -7.424617 0.371298 0.707197
v -7.465032 0.371298 0.747612
v -7.111856 0.371298 1.755946
v -7.465032 0.371298 1.755946
v -7.152270 0.371298 1.796361
v -7.424617 0.371298 1.796361
v -7.440105 -0.009856 0.669807
v -7.440105 0.341602 0.669807
v -7.502422 -0.009856 0.732124
v -7.502422 0.341602 0.732124
v -7.502422 -0.009856 1.771434
v -7.502422 0.341602 1.771434
v -7.440105 -0.009856 1.833751
v -7.440105 0.341602 1.833751
v -7.074464 -0.009856 0.732124
v -7.074464 0.341602 0.732124
v -7.136782 -0.009856 0.669807
v -7.136782 0.341602 0.669807
v -7.136782 -0.009856 1.833751
v -7.136782 0.341602 1.833751
v -7.074464 -0.009856 1.771434
v -7.074464 0.341602 1.771434
v -7.136782 -0.009855 12.831415
v -7.074464 -0.009855 12.769097
v -7.440105 -0.009855 12.831415
v -7.502422 -0.009855 12.769097
v -7.074464 -0.009855 11.729789
v -7.502422 -0.009855 11.729789
v -7.136782 -0.009855 11.667471
v -7.440105 -0.009855 11.667471
v -7.424617 0.371298 12.794024
v -7.440105 0.341603 12.831415
v -7.465032 0.371298 12.753611
v -7.502422 0.341603 12.769097
v -7.440105 0.341603 12.831415
v -7.424617 0.371298 12.794024
v -7.136782 0.341603 12.831415
v -7.152270 0.371298 12.794024
v -7.136782 0.341603 12.831415
v -7.152270 0.371298 12.794024
v -7.074464 0.341603 12.769097
v -7.111856 0.371298 12.753611
v -7.465032 0.371298 12.753611
v -7.502422 0.341603 12.769097
v -7.465032 0.371298 11.745276
v -7.502422 0.341603 11.729789
v -7.465032 0.371298 11.745276
v -7.502422 0.341603 11.729789
v -7.424617 0.371298 11.704861
v -7.440105 0.341603 11.667471
v -7.424617 0.371298 11.704861
v -7.440105 0.341603 11.667471
v -7.152270 0.371298 11.704861
v -7.136782 0.341603 11.667471
v -7.152270 0.371298 11.704861
v -7.136782 0.341603 11.667471
v -7.111856 0.371298 11.745276
v -7.074464 0.341603 11.729789
v -7.074464 0.341603 12.769097
v -7.111856 0.371298 12.753611
v -7.074464 0.341603 11.729789
v -7.111856 0.371298 11.745276
v -7.502422 0.341603 12.769097
v -7.502422 -0.009855 12.769097
v -7.502422 0.341603 11.729789
v -7.502422 -0.009855 11.729789
v -7.074464 -0.009855 12.769097
v -7.074464 0.341603 12.769097
v -7.074464 -0.009855 11.729789
v -7.074464 0.341603 11.729789
v -7.136782 -0.009855 11.667471
v -7.136782 0.341603 11.667471
v -7.440105 -0.009855 11.667471
v -7.440105 0.341603 11.667471
v -7.136782 0.341603 12.831415
v -7.136782 -0.009855 12.831415
v -7.440105 0.341603 12.831415
v -7.440105 -0.009855 12.831415
v -7.152270 0.371298 12.794024
v -7.424617 0.371298 12.794024
v -7.111856 0.371298 12.753611
v -7.111856 0.371298 11.745276
v -7.465032 0.371298 12.753611
v -7.152270 0.371298 11.704861
v -7.465032 0.371298 11.745276
v -7.424617 0.371298 11.704861
v -7.440105 -0.009855 12.831415
v -7.502422 -0.009855 12.769097
v -7.440105 0.341603 12.831415
v -7.502422 0.341603 12.769097
v -7.502422 -0.009855 11.729789
v -7.440105 -0.009855 11.667471
v -7.502422 0.341603 11.729789
v -7.440105 0.341603 11.667471
v -7.074464 -0.009855 12.769097
v -7.136782 -0.009855 12.831415
v -7.074464 0.341603 12.769097
v -7.136782 0.341603 12.831415
v -7.136782 -0.009855 11.667471
v -7.074464 -0.009855 11.729789
v -7.136782 0.341603 11.667471
v -7.074464 0.341603 11.729789
v 3.530018 2.272026 17.347387
v 0.045339 2.444863 17.347387
v 3.530018 2.161047 17.347387
v 0.030042 2.272015 17.347387
v 3.530018 2.161047 17.347387
v 0.030042 2.272015 17.347387
v 3.530962 0.544365 17.346376
v 0.029391 0.544365 17.346376
v 3.470496 2.614780 17.347387
v 0.090171 2.614780 17.347387
v 3.530018 2.272026 17.347387
v 0.045339 2.444863 17.347387
v 3.397230 2.778824 17.347387
v 0.163438 2.778824 17.347387
v 3.470496 2.614780 17.347387
v 0.090171 2.614780 17.347387
v 3.168307 3.078160 17.347387
v 0.392046 3.078160 17.347387
v 2.845544 3.322625 17.347387
v 0.715101 3.322648 17.347387
v 3.168307 3.078160 17.347387
v 0.392046 3.078160 17.347387
v 2.449940 3.495474 17.347387
v 1.110706 3.495474 17.347387
v 2.845544 3.322625 17.347387
v 0.715101 3.322648 17.347387
v 2.009121 3.584958 17.347387
v 1.110706 3.495474 17.347387
v 1.551861 3.584958 17.347387
v 2.449940 3.495472 -5.554743
v 2.845544 3.322624 -5.554743
v 2.009121 3.584956 -5.554743
v 1.551861 3.584956 -5.554743
v 3.168307 3.078159 -5.554743
v 1.110706 3.495472 -5.554743
v 3.397230 2.778822 -5.554743
v 0.715101 3.322646 -5.554743
v 3.470496 2.614779 -5.554743
v 0.392046 3.078159 -5.554743
v 3.530018 2.272024 -5.554743
v 0.163438 2.778822 -5.554743
v 3.530018 2.161045 -5.554743
v 0.090171 2.614779 -5.554743
v 3.530962 0.544363 -5.553732
v 0.045339 2.444861 -5.554743
v 0.029391 0.544363 -5.553732
v 0.030042 2.272013 -5.554743
vn -0.1706 0.9074 -0.3841
vn -0.1705 0.9074 -0.3841
vn -0.1705 0.9074 -0.3840
vn -0.1705 0.9074 -0.3842
vn -0.4119 -0.7983 0.4394
vn -0.4119 -0.7983 0.4393
vn -0.6212 -0.7837 -0.0000
vn -0.6210 -0.7838 -0.0000
vn -0.4120 -0.7357 -0.5376
vn -0.4121 -0.7357 -0.5376
vn -0.0000 -0.8425 0.5387
vn -0.0000 -0.8426 0.5385
vn -0.0000 -0.8427 0.5384
vn 0.4119 -0.7983 0.4394
vn 0.6210 -0.7838 -0.0000
vn 0.6212 -0.7837 -0.0000
vn 0.4121 -0.7356 -0.5376
vn 0.4120 -0.7357 -0.5376
vn 0.4121 -0.7357 -0.5376
vn -0.0000 -0.6950 -0.7190
vn -0.0000 -0.6955 -0.7186
vn -0.0000 -0.6952 -0.7188
vn -0.0000 -0.0000 1.0000
vn -0.0000 -0.0000 -1.0000
vn 1.0000 -0.0000 -0.0000
vn -1.0000 -0.0000 -0.0000
vn -0.0000 -1.0000 -0.0000
vn -0.7246 -0.0000 0.6891
vn -0.7242 -0.0000 0.6896
vn -0.7247 -0.0000 0.6891
vn 0.7247 -0.0000 0.6891
vn 0.7246 -0.0000 0.6891
vn -0.6089 -0.0000 -0.7932
vn -0.6093 -0.0000 -0.7930
vn 0.6089 -0.0000 -0.7932
vn 0.6095 -0.0000 -0.7928
vn -0.0000 1.0000 -0.0000
vn 0.4390 -0.7839 0.4390
vn 0.4391 -0.7838 0.4391
vn 0.4389 -0.7840 0.4389
vn 0.4391 -0.7839 0.4391
vn -0.0000 -0.7837 0.6212
vn -0.0000 -0.7838 0.6211
vn -0.0000 -0.7838 0.6210
vn -0.0000 -0.7836 0.6212
vn -0.4391 -0.7838 0.4391
vn -0.4391 -0.7839 0.4391
vn -0.4390 -0.7839 0.4390
vn -0.4389 -0.7840 0.4389
vn 0.6211 -0.7838 -0.0000
vn 0.4390 -0.7839 -0.4390
vn 0.4389 -0.7841 -0.4389
vn 0.4391 -0.7838 -0.4391
vn -0.0000 -0.7837 -0.6212
vn -0.0000 -0.7836 -0.6212
vn -0.0000 -0.7838 -0.6210
vn -0.0000 -0.7836 -0.6213
vn -0.4391 -0.7838 -0.4391
vn -0.4391 -0.7839 -0.4391
vn -0.4390 -0.7839 -0.4390
vn -0.6211 -0.7837 -0.0000
vn -0.6212 -0.7836 -0.0000
vn 0.7071 -0.0000 0.7071
vn 0.7071 -0.0000 -0.7071
vn -0.7071 -0.0000 0.7071
vn -0.7071 -0.0000 -0.7071
vn 0.4389 -0.7840 -0.4389
vn 0.4391 -0.7839 -0.4391
vn -0.0000 -0.7838 -0.6211
vn 0.6212 -0.7836 -0.0000
vn 0.4390 -0.7840 0.4390
vn -0.0000 0.0003 1.0000
vn -0.0000 -0.0003 1.0000
vn -0.0000 0.0001 1.0000
vn -0.0000 -0.0003 -1.0000
vn 0.0001 -0.0001 -1.0000
vn -0.0000 0.0004 -1.0000
vn 0.0001 -0.0000 -1.0000
vn -0.0000 -0.0001 -1.0000
vt 0.391113 0.000000
vt 0.375000 0.016113
vt 0.375000 0.233887
vt 0.608887 0.000000
vt 0.391113 0.250000
vt 0.625000 0.016113
vt 0.608887 0.250000
vt 0.625000 0.233887
vt 0.375000 0.428711
vt 0.384766 0.520264
vt 0.395264 0.509766
vt 0.391113 0.422852
vt 0.125000 0.229980
vt 0.202271 0.233887
vt 0.202271 0.016113
vt 0.125000 0.020020
vt 0.384766 0.729736
vt 0.375000 0.816040
vt 0.391113 0.827271
vt 0.395264 0.740234
vt 0.604980 0.509766
vt 0.608887 0.422852
vt 0.615234 0.520264
vt 0.625000 0.428711
vt 0.797852 0.233887
vt 0.875000 0.229980
vt 0.875000 0.020020
vt 0.797852 0.016113
vt 0.625000 0.816040
vt 0.615234 0.729736
vt 0.604980 0.740234
vt 0.608887 0.827271
vt 0.391113 1.000000
vt 0.608887 1.000000
vt 0.375000 1.000000
vt 0.625000 1.000000
vt 0.561035 2.884766
vt 0.577637 2.869141
vt 0.577637 2.651367
vt 0.089905 2.884766
vt 0.561035 2.634766
vt 0.073669 2.869141
vt 0.089905 2.634766
vt 0.073669 2.651367
vt 0.577637 2.456055
vt 0.567871 2.365234
vt 0.557129 2.375000
vt 0.561035 2.461914
vt 0.827637 2.655273
vt 0.750000 2.651367
vt 0.750000 2.869141
vt 0.827637 2.865234
vt 0.567871 2.155273
vt 0.617188 2.069336
vt 0.561035 2.057617
vt 0.557129 2.144531
vt 0.093933 2.375000
vt 0.089905 2.461914
vt 0.083374 2.365234
vt 0.073669 2.456055
vt -0.099060 2.651367
vt -0.176392 2.655273
vt -0.176392 2.865234
vt -0.099060 2.869141
vt 0.033752 2.069336
vt 0.083374 2.155273
vt 0.093933 2.144531
vt 0.089905 2.057617
vt 0.561035 1.885254
vt 0.089905 1.885254
vt 0.617188 1.885254
vt 0.033752 1.885254
vt 1.443359 -0.372070
vt 1.443359 -0.365234
vt 1.219727 -0.355469
vt 1.218750 -0.365234
vt 1.443359 -0.467773
vt 1.218750 -0.467773
vt 1.439453 -0.344727
vt 1.222656 -0.344727
vt 1.226562 -0.334961
vt 1.434570 -0.334961
vt 1.241211 -0.317383
vt 1.419922 -0.317383
vt 1.399414 -0.302734
vt 1.262695 -0.302734
vt 1.374023 -0.292969
vt 1.288086 -0.292969
vt 1.345703 -0.288086
vt 1.316406 -0.288086
vt 2.171875 2.280273
vt 2.277344 2.260742
vt 2.369141 2.222656
vt 2.064453 2.280273
vt 2.447266 2.169922
vt 1.959961 2.260742
vt 2.500000 2.104492
vt 1.866211 2.222656
vt 2.517578 2.068359
vt 1.790039 2.169922
vt 2.531250 1.994141
vt 1.736328 2.104492
vt 2.531250 1.970215
vt 1.718750 2.068359
vt 2.531250 1.618164
vt 1.708008 2.032227
vt 1.704102 1.618164
vt 1.704102 1.994141
s 1
f 3/1/1 1/2/2 2/3/2
f 4/4/3 3/1/1 2/3/2
f 2/3/2 5/5/2 4/4/3
f 6/6/2 4/4/3 5/5/2
f 5/5/2 7/7/2 6/6/2
f 8/8/4 6/6/2 7/7/2
f 11/9/5 9/10/5 10/11/5
f 10/11/5 12/12/6 11/9/5
f 15/13/7 13/14/8 14/15/8
f 14/15/8 16/16/8 15/13/7
f 19/17/9 17/18/10 18/19/10
f 18/19/10 20/20/9 19/17/9
f 23/12/11 21/11/12 22/21/11
f 22/21/11 24/22/13 23/12/11
f 27/22/14 25/21/14 26/23/14
f 26/23/14 28/24/14 27/22/14
f 31/25/15 29/26/15 30/27/16
f 30/27/16 32/28/15 31/25/15
f 35/29/17 33/30/18 34/31/17
f 34/31/17 36/32/19 35/29/17
f 39/20/20 37/19/21 38/32/20
f 38/32/20 40/31/22 39/20/20
f 43/5/23 41/12/23 42/22/23
f 42/22/23 44/7/23 43/5/23
f 47/19/24 45/33/24 46/34/24
f 46/34/24 48/32/24 47/19/24
f 51/28/25 49/6/25 50/8/25
f 50/8/25 52/25/25 51/28/25
f 55/2/26 53/15/26 54/14/26
f 54/14/26 56/3/26 55/2/26
f 59/10/27 57/17/27 58/20/27
f 60/11/27 59/10/27 58/20/27
f 58/20/27 61/31/27 60/11/27
f 62/21/27 60/11/27 61/31/27
f 61/31/27 63/30/27 62/21/27
f 64/23/27 62/21/27 63/30/27
f 67/5/28 65/3/29 66/9/30
f 66/9/30 68/12/30 67/5/28
f 71/8/31 69/7/31 70/22/32
f 70/22/32 72/24/32 71/8/31
f 75/35/33 73/33/34 74/19/33
f 74/19/33 76/18/33 75/35/33
f 79/34/35 77/36/36 78/29/35
f 78/29/35 80/32/35 79/34/35
f 83/37/37 81/38/37 82/39/37
f 84/40/37 83/37/37 82/39/37
f 82/39/37 85/41/37 84/40/37
f 86/42/37 84/40/37 85/41/37
f 85/41/37 87/43/37 86/42/37
f 88/44/37 86/42/37 87/43/37
f 91/45/38 89/46/39 90/47/40
f 90/47/40 92/48/41 91/45/38
f 95/49/42 93/50/43 94/51/44
f 94/51/44 96/52/45 95/49/42
f 99/53/46 97/54/47 98/55/48
f 98/55/48 100/56/49 99/53/46
f 103/48/50 101/47/15 102/57/16
f 102/57/16 104/58/16 103/48/50
f 107/58/51 105/57/52 106/59/51
f 106/59/51 108/60/53 107/58/51
f 111/61/54 109/62/55 110/63/56
f 110/63/56 112/64/57 111/61/54
f 115/65/58 113/66/59 114/67/60
f 114/67/60 116/68/60 115/65/58
f 119/56/61 117/55/62 118/68/61
f 118/68/61 120/67/8 119/56/61
f 123/41/25 121/48/25 122/58/25
f 122/58/25 124/43/25 123/41/25
f 127/55/26 125/69/26 126/70/26
f 126/70/26 128/68/26 127/55/26
f 131/64/24 129/42/24 130/44/24
f 130/44/24 132/61/24 131/64/24
f 135/38/23 133/51/23 134/50/23
f 134/50/23 136/39/23 135/38/23
f 139/46/27 137/53/27 138/56/27
f 140/47/27 139/46/27 138/56/27
f 138/56/27 141/67/27 140/47/27
f 142/57/27 140/47/27 141/67/27
f 141/67/27 143/66/27 142/57/27
f 144/59/27 142/57/27 143/66/27
f 147/41/63 145/39/63 146/45/63
f 146/45/63 148/48/63 147/41/63
f 151/44/64 149/43/64 150/58/64
f 150/58/64 152/60/64 151/44/64
f 155/71/65 153/69/65 154/55/65
f 154/55/65 156/54/65 155/71/65
f 159/70/66 157/72/66 158/65/66
f 158/65/66 160/68/66 159/70/66
f 163/39/37 161/38/37 162/37/37
f 164/41/37 163/39/37 162/37/37
f 162/37/37 165/40/37 164/41/37
f 166/43/37 164/41/37 165/40/37
f 165/40/37 167/42/37 166/43/37
f 168/44/37 166/43/37 167/42/37
f 171/47/53 169/46/67 170/45/51
f 170/45/51 172/48/68 171/47/53
f 175/51/69 173/50/69 174/49/54
f 174/49/54 176/52/69 175/51/69
f 179/55/60 177/54/60 178/53/60
f 178/53/60 180/56/58 179/55/60
f 183/57/70 181/47/16 182/48/50
f 182/48/50 184/58/50 183/57/70
f 187/59/39 185/57/71 186/58/71
f 186/58/71 188/60/40 187/59/39
f 191/63/42 189/62/44 190/61/44
f 190/61/44 192/64/45 191/63/42
f 195/67/48 193/66/48 194/65/48
f 194/65/48 196/68/48 195/67/48
f 199/68/8 197/55/61 198/56/8
f 198/56/8 200/67/8 199/68/8
f 203/58/25 201/48/25 202/41/25
f 202/41/25 204/43/25 203/58/25
f 207/70/26 205/69/26 206/55/26
f 206/55/26 208/68/26 207/70/26
f 211/44/23 209/42/23 210/64/23
f 210/64/23 212/61/23 211/44/23
f 215/50/24 213/51/24 214/38/24
f 214/38/24 216/39/24 215/50/24
f 219/56/27 217/53/27 218/46/27
f 220/67/27 219/56/27 218/46/27
f 218/46/27 221/47/27 220/67/27
f 222/66/27 220/67/27 221/47/27
f 221/47/27 223/57/27 222/66/27
f 224/59/27 222/66/27 223/57/27
f 227/45/64 225/39/64 226/41/64
f 226/41/64 228/48/64 227/45/64
f 231/58/63 229/43/63 230/44/63
f 230/44/63 232/60/63 231/58/63
f 235/55/66 233/69/66 234/71/66
f 234/71/66 236/54/66 235/55/66
f 239/65/65 237/72/65 238/70/65
f 238/70/65 240/68/65 239/65/65
f 243/73/23 241/74/23 242/75/23
f 242/75/23 244/76/23 243/73/23
f 247/77/72 245/73/73 246/76/74
f 246/76/74 248/78/23 247/77/72
f 251/74/23 249/79/23 250/80/23
f 250/80/23 252/75/23 251/74/23
f 254/81/23 256/80/23 255/79/23
f 255/79/23 253/82/23 254/81/23
f 258/83/23 254/81/23 253/82/23
f 253/82/23 257/84/23 258/83/23
f 261/84/23 259/85/23 260/86/23
f 260/86/23 262/83/23 261/84/23
f 265/85/23 263/87/23 264/88/23
f 264/88/23 266/86/23 265/85/23
f 268/88/23 263/87/23 267/89/23
f 267/89/23 269/90/23 268/88/23
f 272/91/24 270/92/24 271/93/24
f 273/94/24 272/91/24 271/93/24
f 271/93/24 274/95/24 273/94/24
f 275/96/24 273/94/24 274/95/24
f 274/95/24 276/97/24 275/96/24
f 277/98/24 275/96/24 276/97/24
f 276/97/24 278/99/24 277/98/24
f 279/100/24 277/98/24 278/99/24
f 278/99/24 280/101/24 279/100/24
f 281/102/24 279/100/24 280/101/24
f 280/101/24 282/103/75 281/102/24
f 283/104/76 281/102/24 282/103/75
f 282/103/75 284/105/77 283/104/76
f 285/106/78 283/104/76 284/105/77
f 284/105/77 286/107/79 285/106/78
f 287/108/24 285/106/78 286/107/79
