# Blender 4.5.3 LTS
# www.blender.org
o w9a02_iron02
v 11.447980 0.018552 -3.005399
v 11.996391 0.018552 -3.322023
v 12.059653 0.018552 -3.169293
v 11.895757 0.018552 -3.453174
v 11.764606 0.018552 -3.553809
v 11.611876 0.018552 -3.617072
v 11.447980 0.018552 -3.638650
v 11.284081 0.018552 -3.617072
v 11.131352 0.018552 -3.553809
v 11.000203 0.018552 -3.453174
v 10.899566 0.018552 -3.322023
v 10.836304 0.018552 -3.169293
v 10.814725 0.018552 -3.005399
v 10.836304 0.018552 -2.841501
v 10.899566 0.018552 -2.688766
v 11.000203 0.018552 -2.557618
v 11.131352 0.018552 -2.456988
v 11.284081 0.018552 -2.393722
v 11.447980 0.018552 -2.372144
v 11.611876 0.018552 -2.393722
v 11.764606 0.018552 -2.456988
v 11.895757 0.018552 -2.557618
v 11.996391 0.018552 -2.688766
v 12.059653 0.018552 -2.841501
v 12.081232 0.018552 -3.005399
v 12.143480 0.018552 -3.191751
v 12.099431 0.018552 -3.309348
v 12.143480 -0.102358 -3.191749
v 12.099433 -0.102358 -3.309344
v 12.036937 -0.102358 -3.417590
v 12.036934 0.018552 -3.417597
v 11.957110 0.018552 -3.514550
v 11.860175 0.018552 -3.594357
v 11.957118 -0.102358 -3.514543
v 11.860168 -0.102358 -3.594357
v 11.860168 -0.102358 -3.594357
v 11.860175 0.018552 -3.594357
v 11.751925 -0.102358 -3.656851
v 11.751932 0.018552 -3.656849
v 11.634330 0.018552 -3.700902
v 11.510467 0.018552 -3.721550
v 11.634331 -0.102358 -3.700900
v 11.510475 -0.102358 -3.721549
v 11.261619 0.018552 -3.700900
v 11.261627 -0.102358 -3.700902
v 11.385480 0.018552 -3.721549
v 11.385492 -0.102358 -3.721550
v 11.144031 0.018552 -3.656851
v 11.144022 -0.102358 -3.656845
v 11.035779 -0.102358 -3.594354
v 11.035789 0.018552 -3.594357
v 10.938842 0.018552 -3.514543
v 10.859018 0.018552 -3.417589
v 10.938848 -0.102358 -3.514550
v 10.859021 -0.102358 -3.417592
v 10.796524 -0.102358 -3.309345
v 10.796521 0.018552 -3.309342
v 10.752477 0.018552 -3.191749
v 10.731826 0.018552 -3.067891
v 10.752477 -0.102358 -3.191756
v 10.731826 -0.102358 -3.067893
v 10.731826 -0.102358 -2.942905
v 10.731826 0.018552 -2.942905
v 10.752477 0.018552 -2.819038
v 10.796524 0.018552 -2.701441
v 10.752477 -0.102358 -2.819038
v 10.796524 -0.102358 -2.701443
v 10.859021 -0.102358 -2.593197
v 10.859019 0.018552 -2.593197
v 10.938842 0.018552 -2.496251
v 11.035785 0.018552 -2.416441
v 10.938846 -0.102358 -2.496246
v 11.035785 -0.102358 -2.416440
v 11.144025 -0.102358 -2.353947
v 11.144027 0.018552 -2.353947
v 11.261619 0.018552 -2.309895
v 11.385489 0.018552 -2.289246
v 11.261619 -0.102358 -2.309895
v 11.385480 -0.102358 -2.289246
v 11.510470 -0.102358 -2.289247
v 11.510478 0.018552 -2.289246
v 11.634338 0.018552 -2.309895
v 11.751940 0.018552 -2.353949
v 11.634346 -0.102358 -2.309899
v 11.751933 -0.102358 -2.353949
v 11.860171 -0.102358 -2.416438
v 11.860184 0.018552 -2.416444
v 11.957123 0.018552 -2.496254
v 12.036937 0.018552 -2.593198
v 11.957114 -0.102358 -2.496244
v 12.036937 -0.102358 -2.593199
v 12.099434 -0.102358 -2.701445
v 12.099431 0.018552 -2.701441
v 12.143480 0.018552 -2.819038
v 12.164130 0.018552 -2.942905
v 12.143480 -0.102358 -2.819033
v 12.164130 -0.102358 -2.942903
v 12.164130 -0.102358 -3.067891
v 12.164130 0.018552 -3.067891
v 11.895757 0.018552 -3.453174
v 11.957110 0.018552 -3.514550
v 11.996391 0.018552 -3.322023
v 12.036934 0.018552 -3.417597
v 11.611876 0.018552 -3.617072
v 11.634330 0.018552 -3.700902
v 11.764606 0.018552 -3.553809
v 11.751932 0.018552 -3.656849
v 11.385480 0.018552 -3.721549
v 11.447980 0.018552 -3.638650
v 11.261619 0.018552 -3.700900
v 11.284081 0.018552 -3.617072
v 11.131352 0.018552 -3.553809
v 11.144031 0.018552 -3.656851
v 11.000203 0.018552 -3.453174
v 10.938842 0.018552 -3.514543
v 11.035789 0.018552 -3.594357
v 10.836304 0.018552 -3.169293
v 10.752477 0.018552 -3.191749
v 10.899566 0.018552 -3.322023
v 10.796521 0.018552 -3.309342
v 10.836304 0.018552 -2.841501
v 10.752477 0.018552 -2.819038
v 10.814725 0.018552 -3.005399
v 10.731826 0.018552 -2.942905
v 11.000203 0.018552 -2.557618
v 10.938842 0.018552 -2.496251
v 10.899566 0.018552 -2.688766
v 10.859019 0.018552 -2.593197
v 11.284081 0.018552 -2.393722
v 11.261619 0.018552 -2.309895
v 11.131352 0.018552 -2.456988
v 11.144027 0.018552 -2.353947
v 11.611876 0.018552 -2.393722
v 11.634338 0.018552 -2.309895
v 11.447980 0.018552 -2.372144
v 11.510478 0.018552 -2.289246
v 11.895757 0.018552 -2.557618
v 11.957123 0.018552 -2.496254
v 11.764606 0.018552 -2.456988
v 11.860184 0.018552 -2.416444
v 12.059653 0.018552 -2.841501
v 12.143480 0.018552 -2.819038
v 11.996391 0.018552 -2.688766
v 12.099431 0.018552 -2.701441
v 12.059653 0.018552 -3.169293
v 12.143480 0.018552 -3.191751
v 12.081232 0.018552 -3.005399
v 12.164130 0.018552 -3.067891
v 11.751940 0.018552 -2.353949
v 12.036937 0.018552 -2.593198
v 12.164130 0.018552 -2.942905
v 12.081232 0.018552 -3.005399
v 12.099431 0.018552 -3.309348
v 11.860175 0.018552 -3.594357
v 11.510467 0.018552 -3.721550
v 10.859018 0.018552 -3.417589
v 10.731826 0.018552 -3.067891
v 10.796524 0.018552 -2.701441
v 11.035785 0.018552 -2.416441
v 11.385489 0.018552 -2.289246
v 11.035789 0.018552 -3.594357
v 11.035779 -0.102358 -3.594354
v 11.144027 0.018552 -2.353947
v 11.144025 -0.102358 -2.353947
v 11.860184 0.018552 -2.416444
v 11.860171 -0.102358 -2.416438
v 12.164130 0.018552 -3.067891
v 12.164130 -0.102358 -3.067891
v 12.164130 0.018552 -3.067891
v 0.719031 0.018552 -3.963435
v 1.267443 0.018552 -4.280060
v 1.330704 0.018552 -4.127330
v 1.166808 0.018552 -4.411210
v 1.035658 0.018552 -4.511846
v 0.882928 0.018552 -4.575109
v 0.719031 0.018552 -4.596686
v 0.555133 0.018552 -4.575109
v 0.402405 0.018552 -4.511846
v 0.271255 0.018552 -4.411210
v 0.170617 0.018552 -4.280060
v 0.107356 0.018552 -4.127330
v 0.085776 0.018552 -3.963435
v 0.107356 0.018552 -3.799537
v 0.170617 0.018552 -3.646802
v 0.271255 0.018552 -3.515654
v 0.402405 0.018552 -3.415024
v 0.555133 0.018552 -3.351758
v 0.719031 0.018552 -3.330180
v 0.882928 0.018552 -3.351758
v 1.035658 0.018552 -3.415024
v 1.166808 0.018552 -3.515654
v 1.267443 0.018552 -3.646802
v 1.330704 0.018552 -3.799537
v 1.352284 0.018552 -3.963435
v 1.414531 0.018552 -4.149788
v 1.370483 0.018552 -4.267385
v 1.414531 -0.102358 -4.149785
v 1.370485 -0.102358 -4.267380
v 1.307990 -0.102358 -4.375627
v 1.307986 0.018552 -4.375633
v 1.228163 0.018552 -4.472586
v 1.131227 0.018552 -4.552393
v 1.228170 -0.102358 -4.472579
v 1.131221 -0.102358 -4.552394
v 1.131221 -0.102358 -4.552394
v 1.131227 0.018552 -4.552393
v 1.022977 -0.102358 -4.614887
v 1.022984 0.018552 -4.614885
v 0.905381 0.018552 -4.658938
v 0.781518 0.018552 -4.679585
v 0.905383 -0.102358 -4.658936
v 0.781528 -0.102358 -4.679585
v 0.532670 0.018552 -4.658936
v 0.532679 -0.102358 -4.658938
v 0.656531 0.018552 -4.679585
v 0.656544 -0.102358 -4.679585
v 0.415083 0.018552 -4.614887
v 0.415073 -0.102358 -4.614882
v 0.306831 -0.102358 -4.552390
v 0.306842 0.018552 -4.552394
v 0.209893 0.018552 -4.472579
v 0.130070 0.018552 -4.375626
v 0.209900 -0.102358 -4.472586
v 0.130074 -0.102358 -4.375628
v 0.067575 -0.102358 -4.267381
v 0.067574 0.018552 -4.267378
v 0.023529 0.018552 -4.149785
v 0.002878 0.018552 -4.025926
v 0.023529 -0.102358 -4.149793
v 0.002878 -0.102358 -4.025929
v 0.002878 -0.102358 -3.900941
v 0.002878 0.018552 -3.900941
v 0.023529 0.018552 -3.777074
v 0.067575 0.018552 -3.659477
v 0.023529 -0.102358 -3.777074
v 0.067575 -0.102358 -3.659479
v 0.130073 -0.102358 -3.551233
v 0.130071 0.018552 -3.551233
v 0.209893 0.018552 -3.454288
v 0.306837 0.018552 -3.374477
v 0.209897 -0.102358 -3.454283
v 0.306837 -0.102358 -3.374476
v 0.415076 -0.102358 -3.311984
v 0.415078 0.018552 -3.311984
v 0.532670 0.018552 -3.267931
v 0.656541 0.018552 -3.247282
v 0.532670 -0.102358 -3.267931
v 0.656531 -0.102358 -3.247282
v 0.781523 -0.102358 -3.247283
v 0.781530 0.018552 -3.247282
v 0.905390 0.018552 -3.267931
v 1.022992 0.018552 -3.311986
v 0.905398 -0.102358 -3.267935
v 1.022986 -0.102358 -3.311986
v 1.131224 -0.102358 -3.374475
v 1.131235 0.018552 -3.374480
v 1.228175 0.018552 -3.454290
v 1.307990 0.018552 -3.551234
v 1.228165 -0.102358 -3.454280
v 1.307990 -0.102358 -3.551236
v 1.370486 -0.102358 -3.659481
v 1.370483 0.018552 -3.659477
v 1.414531 0.018552 -3.777074
v 1.435182 0.018552 -3.900941
v 1.414531 -0.102358 -3.777069
v 1.435182 -0.102358 -3.900939
v 1.435182 -0.102358 -4.025926
v 1.435182 0.018552 -4.025928
v 1.166808 0.018552 -4.411210
v 1.228163 0.018552 -4.472586
v 1.267443 0.018552 -4.280060
v 1.307986 0.018552 -4.375633
v 0.882928 0.018552 -4.575109
v 0.905381 0.018552 -4.658938
v 1.035658 0.018552 -4.511846
v 1.022984 0.018552 -4.614885
v 0.656531 0.018552 -4.679585
v 0.719031 0.018552 -4.596686
v 0.532670 0.018552 -4.658936
v 0.555133 0.018552 -4.575109
v 0.402405 0.018552 -4.511846
v 0.415083 0.018552 -4.614887
v 0.271255 0.018552 -4.411210
v 0.209893 0.018552 -4.472579
v 0.306842 0.018552 -4.552394
v 0.107356 0.018552 -4.127330
v 0.023529 0.018552 -4.149785
v 0.170617 0.018552 -4.280060
v 0.067574 0.018552 -4.267378
v 0.107356 0.018552 -3.799537
v 0.023529 0.018552 -3.777074
v 0.085776 0.018552 -3.963435
v 0.002878 0.018552 -3.900941
v 0.271255 0.018552 -3.515654
v 0.209893 0.018552 -3.454288
v 0.170617 0.018552 -3.646802
v 0.130071 0.018552 -3.551233
v 0.555133 0.018552 -3.351758
v 0.532670 0.018552 -3.267931
v 0.402405 0.018552 -3.415024
v 0.415078 0.018552 -3.311984
v 0.882928 0.018552 -3.351758
v 0.905390 0.018552 -3.267931
v 0.719031 0.018552 -3.330180
v 0.781530 0.018552 -3.247282
v 1.166808 0.018552 -3.515654
v 1.228175 0.018552 -3.454290
v 1.035658 0.018552 -3.415024
v 1.131235 0.018552 -3.374480
v 1.330704 0.018552 -3.799537
v 1.414531 0.018552 -3.777074
v 1.267443 0.018552 -3.646802
v 1.370483 0.018552 -3.659477
v 1.330704 0.018552 -4.127330
v 1.414531 0.018552 -4.149788
v 1.352284 0.018552 -3.963435
v 1.435182 0.018552 -4.025928
v 1.022992 0.018552 -3.311986
v 1.307990 0.018552 -3.551234
v 1.435182 0.018552 -3.900941
v 1.352284 0.018552 -3.963435
v 1.370483 0.018552 -4.267385
v 1.131227 0.018552 -4.552393
v 0.781518 0.018552 -4.679585
v 0.130070 0.018552 -4.375626
v 0.002878 0.018552 -4.025926
v 0.067575 0.018552 -3.659477
v 0.306837 0.018552 -3.374477
v 0.656541 0.018552 -3.247282
v 0.306842 0.018552 -4.552394
v 0.306831 -0.102358 -4.552390
v 0.415078 0.018552 -3.311984
v 0.415076 -0.102358 -3.311984
v 1.131235 0.018552 -3.374480
v 1.131224 -0.102358 -3.374475
v 1.435182 0.018552 -4.025928
v 1.435182 -0.102358 -4.025926
v 1.435182 0.018552 -4.025928
v -3.908543 0.018553 2.441589
v -3.360132 0.018553 2.124965
v -3.296871 0.018553 2.277695
v -3.460768 0.018553 1.993814
v -3.591918 0.018553 1.893179
v -3.744647 0.018553 1.829916
v -3.908543 0.018553 1.808339
v -4.072443 0.018553 1.829916
v -4.225171 0.018553 1.893179
v -4.356321 0.018553 1.993814
v -4.456958 0.018553 2.124965
v -4.520220 0.018553 2.277695
v -4.541799 0.018553 2.441589
v -4.520220 0.018553 2.605487
v -4.456958 0.018553 2.758222
v -4.356321 0.018553 2.889370
v -4.225171 0.018553 2.990000
v -4.072443 0.018553 3.053266
v -3.908543 0.018553 3.074844
v -3.744647 0.018553 3.053266
v -3.591918 0.018553 2.990000
v -3.460768 0.018553 2.889370
v -3.360132 0.018553 2.758222
v -3.296871 0.018553 2.605487
v -3.275291 0.018553 2.441589
v -3.213044 0.018553 2.255237
v -3.257092 0.018553 2.137640
v -3.213044 -0.102358 2.255239
v -3.257091 -0.102358 2.137645
v -3.319586 -0.102358 2.029398
v -3.319590 0.018553 2.029392
v -3.399413 0.018553 1.932438
v -3.496349 0.018553 1.852631
v -3.399405 -0.102358 1.932446
v -3.496355 -0.102358 1.852631
v -3.496355 -0.102358 1.852631
v -3.496349 0.018553 1.852631
v -3.604599 -0.102358 1.790137
v -3.604591 0.018553 1.790139
v -3.722195 0.018553 1.746086
v -3.846057 0.018553 1.725439
v -3.722193 -0.102358 1.746088
v -3.846047 -0.102358 1.725439
v -4.094905 0.018553 1.746088
v -4.094896 -0.102358 1.746086
v -3.971043 0.018553 1.725439
v -3.971031 -0.102358 1.725439
v -4.212493 0.018553 1.790137
v -4.212502 -0.102358 1.790142
v -4.320745 -0.102358 1.852634
v -4.320734 0.018553 1.852631
v -4.417683 0.018553 1.932446
v -4.497506 0.018553 2.029399
v -4.417676 -0.102358 1.932438
v -4.497502 -0.102358 2.029397
v -4.560000 -0.102358 2.137644
v -4.560002 0.018553 2.137646
v -4.604047 0.018553 2.255239
v -4.624698 0.018553 2.379098
v -4.604047 -0.102358 2.255232
v -4.624698 -0.102358 2.379095
v -4.624698 -0.102358 2.504084
v -4.624698 0.018553 2.504084
v -4.604047 0.018553 2.627950
v -4.560000 0.018553 2.745547
v -4.604047 -0.102358 2.627950
v -4.560000 -0.102358 2.745545
v -4.497503 -0.102358 2.853791
v -4.497504 0.018553 2.853791
v -4.417683 0.018553 2.950737
v -4.320739 0.018553 3.030547
v -4.417678 -0.102358 2.950742
v -4.320739 -0.102358 3.030549
v -4.212499 -0.102358 3.093040
v -4.212497 0.018553 3.093040
v -4.094905 0.018553 3.137094
v -3.971034 0.018553 3.157743
v -4.094905 -0.102358 3.137094
v -3.971043 -0.102358 3.157743
v -3.846053 -0.102358 3.157741
v -3.846045 0.018553 3.157743
v -3.722185 0.018553 3.137094
v -3.604584 0.018553 3.093039
v -3.722178 -0.102358 3.137089
v -3.604589 -0.102358 3.093039
v -3.496352 -0.102358 3.030550
v -3.496340 0.018553 3.030545
v -3.399401 0.018553 2.950735
v -3.319586 0.018553 2.853790
v -3.399410 -0.102358 2.950744
v -3.319586 -0.102358 2.853789
v -3.257089 -0.102358 2.745543
v -3.257092 0.018553 2.745547
v -3.213044 0.018553 2.627950
v -3.192393 0.018553 2.504084
v -3.213044 -0.102358 2.627955
v -3.192393 -0.102358 2.504085
v -3.192393 -0.102358 2.379098
v -3.192393 0.018553 2.379097
v -3.460768 0.018553 1.993814
v -3.399413 0.018553 1.932438
v -3.360132 0.018553 2.124965
v -3.319590 0.018553 2.029392
v -3.744647 0.018553 1.829916
v -3.722195 0.018553 1.746086
v -3.591918 0.018553 1.893179
v -3.604591 0.018553 1.790139
v -3.971043 0.018553 1.725439
v -3.908543 0.018553 1.808339
v -4.094905 0.018553 1.746088
v -4.072443 0.018553 1.829916
v -4.225171 0.018553 1.893179
v -4.212493 0.018553 1.790137
v -4.356321 0.018553 1.993814
v -4.417683 0.018553 1.932446
v -4.320734 0.018553 1.852631
v -4.520220 0.018553 2.277695
v -4.604047 0.018553 2.255239
v -4.456958 0.018553 2.124965
v -4.560002 0.018553 2.137646
v -4.520220 0.018553 2.605487
v -4.604047 0.018553 2.627950
v -4.541799 0.018553 2.441589
v -4.624698 0.018553 2.504084
v -4.356321 0.018553 2.889370
v -4.417683 0.018553 2.950737
v -4.456958 0.018553 2.758222
v -4.497504 0.018553 2.853791
v -4.072443 0.018553 3.053266
v -4.094905 0.018553 3.137094
v -4.225171 0.018553 2.990000
v -4.212497 0.018553 3.093040
v -3.744647 0.018553 3.053266
v -3.722185 0.018553 3.137094
v -3.908543 0.018553 3.074844
v -3.846045 0.018553 3.157743
v -3.460768 0.018553 2.889370
v -3.399401 0.018553 2.950735
v -3.591918 0.018553 2.990000
v -3.496340 0.018553 3.030545
v -3.296871 0.018553 2.605487
v -3.213044 0.018553 2.627950
v -3.360132 0.018553 2.758222
v -3.257092 0.018553 2.745547
v -3.296871 0.018553 2.277695
v -3.213044 0.018553 2.255237
v -3.275291 0.018553 2.441589
v -3.192393 0.018553 2.379097
v -3.604584 0.018553 3.093039
v -3.319586 0.018553 2.853790
v -3.192393 0.018553 2.504084
v -3.275291 0.018553 2.441589
v -3.257092 0.018553 2.137640
v -3.496349 0.018553 1.852631
v -3.846057 0.018553 1.725439
v -4.497506 0.018553 2.029399
v -4.624698 0.018553 2.379098
v -4.560000 0.018553 2.745547
v -4.320739 0.018553 3.030547
v -3.971034 0.018553 3.157743
v -4.320734 0.018553 1.852631
v -4.320745 -0.102358 1.852634
v -4.212497 0.018553 3.093040
v -4.212499 -0.102358 3.093040
v -3.496340 0.018553 3.030545
v -3.496352 -0.102358 3.030550
v -3.192393 0.018553 2.379097
v -3.192393 -0.102358 2.379098
v -3.192393 0.018553 2.379097
vn -0.5704 -0.0000 0.8213
vn -0.7071 -0.0000 0.7071
vn -0.8213 -0.0000 0.5704
vn -0.8214 -0.0000 0.5704
vn -0.9046 -0.0000 0.4263
vn -0.9043 -0.0000 0.4268
vn -0.9661 -0.0000 0.2583
vn -0.9661 -0.0000 0.2582
vn -0.9966 -0.0000 0.0822
vn -0.4268 -0.0000 0.9043
vn -0.4265 -0.0000 0.9045
vn -0.2588 -0.0000 0.9659
vn -0.2583 -0.0000 0.9661
vn -0.0825 -0.0000 0.9966
vn 0.0825 -0.0000 0.9966
vn 0.2588 -0.0000 0.9659
vn 0.4268 -0.0000 0.9043
vn 0.4269 -0.0000 0.9043
vn 0.5704 -0.0000 0.8213
vn 0.5704 -0.0000 0.8214
vn 0.5703 -0.0000 -0.8214
vn 0.4268 -0.0000 -0.9044
vn 0.5704 -0.0000 -0.8214
vn 0.7071 -0.0000 -0.7071
vn 0.8213 -0.0000 -0.5705
vn 0.8215 -0.0000 -0.5702
vn 0.9045 -0.0000 -0.4264
vn 0.9043 -0.0000 -0.4268
vn 0.9659 -0.0000 -0.2588
vn 0.9966 -0.0000 -0.0825
vn 0.9966 -0.0000 0.0825
vn 0.9659 -0.0000 0.2588
vn 0.9661 -0.0000 0.2582
vn 0.9043 -0.0000 0.4268
vn 0.9043 -0.0000 0.4269
vn 0.8214 -0.0000 0.5704
vn 0.8214 -0.0000 0.5703
vn 0.7071 -0.0000 0.7071
vn -0.4269 -0.0000 -0.9043
vn -0.5704 -0.0000 -0.8214
vn -0.5704 -0.0000 -0.8213
vn -0.2583 -0.0000 -0.9661
vn -0.0825 -0.0000 -0.9966
vn 0.0825 -0.0000 -0.9966
vn 0.2582 -0.0000 -0.9661
vn 0.2585 -0.0000 -0.9660
vn 0.4267 -0.0000 -0.9044
vn -0.9966 -0.0000 -0.0825
vn -0.9661 -0.0000 -0.2582
vn -0.9660 -0.0000 -0.2585
vn -0.9043 -0.0000 -0.4268
vn -0.8214 -0.0000 -0.5703
vn -0.8215 -0.0000 -0.5702
vn -0.7071 -0.0000 -0.7071
vn -0.5705 -0.0000 -0.8213
vn -0.0000 -1.0000 -0.0000
vn -0.8215 -0.0000 0.5702
vn -0.9660 -0.0000 0.2585
vn 0.2582 -0.0000 0.9661
vn 0.4262 -0.0000 0.9046
vn 0.5705 -0.0000 0.8213
vn 0.5702 -0.0000 -0.8215
vn 0.8214 -0.0000 -0.5703
vn 0.9661 -0.0000 -0.2583
vn 0.9661 -0.0000 0.2583
vn 0.8213 -0.0000 0.5706
vn -0.2582 -0.0000 -0.9661
vn 0.2588 -0.0000 -0.9659
vn -0.9661 -0.0000 -0.2583
vn -0.9661 -0.0000 -0.2581
vn -0.8213 -0.0000 -0.5705
vn -0.9047 -0.0000 0.4261
vn -0.5705 -0.0000 0.8213
vn -0.2581 -0.0000 0.9661
vn 0.2585 -0.0000 0.9660
vn 0.4266 -0.0000 0.9045
vn 0.4264 -0.0000 0.9045
vn 0.9661 -0.0000 0.2581
vn 0.8215 -0.0000 0.5702
vn -0.4266 -0.0000 -0.9045
vn -0.4268 -0.0000 -0.9043
vn -0.2588 -0.0000 -0.9659
vn -0.8218 -0.0000 -0.5697
vt 0.943359 1.836426
vt 1.001953 1.836426
vt 1.001953 1.889648
vt 0.943359 1.889648
vt 0.943359 1.944824
vt 1.001953 1.944824
vt 0.943359 1.999512
vt 1.001953 1.999512
vt 1.001953 2.054688
vt 0.943359 2.054688
vt 0.943359 2.109375
vt 1.001953 2.109375
vt 1.001953 1.782227
vt 0.943359 1.782227
vt 1.001953 1.726074
vt 0.943359 1.726074
vt 0.943359 1.673340
vt 1.001953 1.673340
vt 1.001953 1.619141
vt 0.943359 1.619141
vt 1.001953 1.564453
vt 0.943359 1.564453
vt 0.943359 1.510254
vt 1.001953 1.510254
vt 1.001953 1.455566
vt 0.943359 1.455566
vt 0.943359 0.856812
vt 0.943359 0.802368
vt 1.001953 0.802368
vt 1.001953 0.856812
vt 1.001953 0.911255
vt 0.943359 0.911255
vt 0.943359 0.964783
vt 1.001953 0.964783
vt 0.943359 1.017395
vt 1.001953 1.017395
vt 1.001953 1.074097
vt 0.943359 1.074097
vt 0.943359 1.128662
vt 1.001953 1.128662
vt 0.943359 1.183105
vt 1.001953 1.183105
vt 1.001953 1.237061
vt 0.943359 1.237061
vt 0.943359 1.291992
vt 1.001953 1.291992
vt 0.943359 1.346680
vt 1.001953 1.346680
vt 1.001953 1.401123
vt 0.943359 1.401123
vt 0.943359 0.530273
vt 0.943359 0.476074
vt 1.001953 0.476074
vt 1.001953 0.530273
vt 1.001953 0.581055
vt 0.943359 0.581055
vt 0.943359 0.638916
vt 1.001953 0.638916
vt 0.943359 0.693359
vt 1.001953 0.693359
vt 1.001953 0.747803
vt 0.943359 0.747803
vt 0.943359 0.202637
vt 0.943359 0.150879
vt 1.001953 0.150879
vt 1.001953 0.202637
vt 1.001953 0.258789
vt 0.943359 0.258789
vt 0.943359 0.312988
vt 1.001953 0.312988
vt 0.943359 0.367188
vt 1.001953 0.367188
vt 1.001953 0.423340
vt 0.943359 0.423340
vt 0.942871 2.054688
vt 0.942871 2.109375
vt 1.001953 2.135742
vt 1.001953 1.972656
vt 0.942871 1.999512
vt 0.942871 1.944824
vt 0.942871 1.889648
vt 1.001953 1.808594
vt 0.942871 1.836426
vt 0.942871 1.782227
vt 0.942871 1.726074
vt 1.001953 1.645508
vt 0.942871 1.673340
vt 0.942871 1.619141
vt 0.942871 1.564453
vt 0.942871 1.510254
vt 1.001953 1.482422
vt 0.942871 1.455566
vt 0.942871 1.401123
vt 1.001953 1.319336
vt 0.942871 1.346680
vt 0.942871 1.291992
vt 0.942871 1.237061
vt 1.001953 1.155884
vt 0.942871 1.183105
vt 0.942871 1.128662
vt 0.942871 1.074097
vt 1.001953 0.994209
vt 0.942871 1.019928
vt 0.942871 0.965576
vt 0.942871 0.911255
vt 1.001953 0.829346
vt 0.942871 0.856812
vt 0.942871 0.802368
vt 0.942871 0.747803
vt 1.001953 0.666504
vt 0.942871 0.693359
vt 0.942871 0.638916
vt 0.942871 0.581055
vt 1.001953 0.503662
vt 0.942871 0.530273
vt 0.942871 0.476074
vt 0.942871 0.423340
vt 1.001953 0.340820
vt 0.942871 0.367188
vt 0.942871 0.312988
vt 0.942871 0.258789
vt 1.001953 0.176758
vt 0.942871 0.202637
vt 0.942871 0.150879
vt 0.464355 0.472656
vt 0.690430 0.081055
vt 0.581055 0.036133
vt 0.464355 0.020508
vt 0.347168 0.036133
vt 0.238159 0.081055
vt 0.144531 0.152832
vt 0.072693 0.246582
vt 0.027557 0.355469
vt 0.012146 0.472656
vt 0.027557 0.589600
vt 0.072693 0.698730
vt 0.144531 0.792358
vt 0.238159 0.864258
vt 0.347168 0.909424
vt 0.464355 0.924805
vt 0.581055 0.909424
vt 0.690430 0.864258
vt 0.784180 0.792358
vt 0.855957 0.698730
vt 0.900879 0.589600
vt 0.916504 0.472656
vt 0.900879 0.355469
vt 0.855957 0.246582
vt 0.784180 0.152832
s 1
f 33/1/1 35/2/1 34/3/2
f 32/4/2 33/1/1 34/3/2
f 31/5/3 32/4/2 34/3/2
f 34/3/2 30/6/4 31/5/3
f 27/7/5 31/5/3 30/6/4
f 30/6/4 29/8/6 27/7/5
f 29/8/6 28/9/7 27/7/5
f 26/10/8 27/7/5 28/9/7
f 167/11/9 26/10/8 28/9/7
f 28/9/7 168/12/9 167/11/9
f 38/13/10 36/2/1 37/1/1
f 37/1/1 39/14/11 38/13/10
f 42/15/12 38/13/10 39/14/11
f 39/14/11 40/16/13 42/15/12
f 40/16/13 41/17/14 42/15/12
f 43/18/14 42/15/12 41/17/14
f 47/19/15 43/18/14 41/17/14
f 41/17/14 46/20/15 47/19/15
f 45/21/16 47/19/15 46/20/15
f 46/20/15 44/22/16 45/21/16
f 44/22/16 48/23/17 45/21/16
f 49/24/18 45/21/16 48/23/17
f 50/25/19 49/24/18 48/23/17
f 48/23/17 51/26/20 50/25/19
f 71/27/21 75/28/22 74/29/22
f 74/29/22 73/30/23 71/27/21
f 73/30/23 72/31/24 71/27/21
f 70/32/24 71/27/21 72/31/24
f 69/33/25 70/32/24 72/31/24
f 72/31/24 68/34/26 69/33/25
f 65/35/27 69/33/25 68/34/26
f 68/34/26 67/36/28 65/35/27
f 67/36/28 66/37/29 65/35/27
f 64/38/29 65/35/27 66/37/29
f 63/39/30 64/38/29 66/37/29
f 66/37/29 62/40/30 63/39/30
f 59/41/31 63/39/30 62/40/30
f 62/40/30 61/42/31 59/41/31
f 61/42/31 60/43/32 59/41/31
f 58/44/33 59/41/31 60/43/32
f 57/45/34 58/44/33 60/43/32
f 60/43/32 56/46/35 57/45/34
f 53/47/36 57/45/34 56/46/35
f 56/46/35 55/48/37 53/47/36
f 55/48/37 54/49/38 53/47/36
f 52/50/38 53/47/36 54/49/38
f 161/26/19 52/50/38 54/49/38
f 54/49/38 162/25/20 161/26/19
f 83/51/39 87/52/40 86/53/41
f 86/53/41 85/54/39 83/51/39
f 85/54/39 84/55/42 83/51/39
f 82/56/42 83/51/39 84/55/42
f 81/57/43 82/56/42 84/55/42
f 84/55/42 80/58/43 81/57/43
f 77/59/44 81/57/43 80/58/43
f 80/58/43 79/60/44 77/59/44
f 79/60/44 78/61/45 77/59/44
f 76/62/46 77/59/44 78/61/45
f 163/28/47 76/62/46 78/61/45
f 78/61/45 164/29/47 163/28/47
f 95/63/48 99/64/9 98/65/9
f 98/65/9 97/66/48 95/63/48
f 97/66/48 96/67/49 95/63/48
f 94/68/50 95/63/48 96/67/49
f 93/69/51 94/68/50 96/67/49
f 96/67/49 92/70/51 93/69/51
f 89/71/52 93/69/51 92/70/51
f 92/70/51 91/72/53 89/71/52
f 91/72/53 90/73/54 89/71/52
f 88/74/54 89/71/52 90/73/54
f 165/52/41 88/74/54 90/73/54
f 90/73/54 166/53/55 165/52/41
f 146/75/56 148/76/56 147/77/56
f 147/77/56 145/9/56 146/75/56
f 145/9/56 102/78/56 146/75/56
f 153/79/56 146/75/56 102/78/56
f 103/80/56 153/79/56 102/78/56
f 101/81/56 103/80/56 102/78/56
f 102/78/56 100/3/56 101/81/56
f 100/3/56 106/82/56 101/81/56
f 154/83/56 101/81/56 106/82/56
f 107/84/56 154/83/56 106/82/56
f 105/85/56 107/84/56 106/82/56
f 106/82/56 104/15/56 105/85/56
f 104/15/56 109/86/56 105/85/56
f 155/87/56 105/85/56 109/86/56
f 108/88/56 155/87/56 109/86/56
f 110/89/56 108/88/56 109/86/56
f 109/86/56 111/21/56 110/89/56
f 113/90/56 110/89/56 111/21/56
f 111/21/56 112/91/56 113/90/56
f 116/92/56 113/90/56 112/91/56
f 115/93/56 116/92/56 112/91/56
f 112/91/56 114/49/56 115/93/56
f 114/49/56 119/94/56 115/93/56
f 156/95/56 115/93/56 119/94/56
f 120/96/56 156/95/56 119/94/56
f 118/97/56 120/96/56 119/94/56
f 119/94/56 117/43/56 118/97/56
f 117/43/56 123/98/56 118/97/56
f 157/99/56 118/97/56 123/98/56
f 124/100/56 157/99/56 123/98/56
f 122/101/56 124/100/56 123/98/56
f 123/98/56 121/37/56 122/101/56
f 121/37/56 127/102/56 122/101/56
f 158/103/56 122/101/56 127/102/56
f 128/104/56 158/103/56 127/102/56
f 126/105/56 128/104/56 127/102/56
f 127/102/56 125/31/56 126/105/56
f 125/31/56 131/106/56 126/105/56
f 159/107/56 126/105/56 131/106/56
f 132/108/56 159/107/56 131/106/56
f 130/109/56 132/108/56 131/106/56
f 131/106/56 129/61/56 130/109/56
f 129/61/56 135/110/56 130/109/56
f 160/111/56 130/109/56 135/110/56
f 136/112/56 160/111/56 135/110/56
f 134/113/56 136/112/56 135/110/56
f 135/110/56 133/55/56 134/113/56
f 133/55/56 139/114/56 134/113/56
f 149/115/56 134/113/56 139/114/56
f 140/116/56 149/115/56 139/114/56
f 138/117/56 140/116/56 139/114/56
f 139/114/56 137/73/56 138/117/56
f 137/73/56 143/118/56 138/117/56
f 150/119/56 138/117/56 143/118/56
f 144/120/56 150/119/56 143/118/56
f 142/121/56 144/120/56 143/118/56
f 143/118/56 141/67/56 142/121/56
f 141/67/56 152/122/56 142/121/56
f 151/123/56 142/121/56 152/122/56
f 152/122/56 169/124/56 151/123/56
f 202/1/1 204/2/1 203/3/2
f 201/4/2 202/1/1 203/3/2
f 200/5/57 201/4/2 203/3/2
f 203/3/2 199/6/57 200/5/57
f 196/7/6 200/5/57 199/6/57
f 199/6/57 198/8/6 196/7/6
f 198/8/6 197/9/7 196/7/6
f 195/10/58 196/7/6 197/9/7
f 336/11/9 195/10/58 197/9/7
f 197/9/7 337/12/9 336/11/9
f 207/13/10 205/2/1 206/1/1
f 206/1/1 208/14/10 207/13/10
f 211/15/12 207/13/10 208/14/10
f 208/14/10 209/16/12 211/15/12
f 209/16/12 210/17/14 211/15/12
f 212/18/14 211/15/12 210/17/14
f 216/19/15 212/18/14 210/17/14
f 210/17/14 215/20/15 216/19/15
f 214/21/59 216/19/15 215/20/15
f 215/20/15 213/22/16 214/21/59
f 213/22/16 217/23/17 214/21/59
f 218/24/60 214/21/59 217/23/17
f 219/25/61 218/24/60 217/23/17
f 217/23/17 220/26/20 219/25/61
f 240/27/62 244/28/22 243/29/22
f 243/29/22 242/30/23 240/27/62
f 242/30/23 241/31/24 240/27/62
f 239/32/24 240/27/62 241/31/24
f 238/33/63 239/32/24 241/31/24
f 241/31/24 237/34/63 238/33/63
f 234/35/28 238/33/63 237/34/63
f 237/34/63 236/36/28 234/35/28
f 236/36/28 235/37/64 234/35/28
f 233/38/29 234/35/28 235/37/64
f 232/39/30 233/38/29 235/37/64
f 235/37/64 231/40/30 232/39/30
f 228/41/31 232/39/30 231/40/30
f 231/40/30 230/42/31 228/41/31
f 230/42/31 229/43/65 228/41/31
f 227/44/33 228/41/31 229/43/65
f 226/45/34 227/44/33 229/43/65
f 229/43/65 225/46/35 226/45/34
f 222/47/37 226/45/34 225/46/35
f 225/46/35 224/48/66 222/47/37
f 224/48/66 223/49/38 222/47/37
f 221/50/38 222/47/37 223/49/38
f 330/26/19 221/50/38 223/49/38
f 223/49/38 331/25/19 330/26/19
f 252/51/39 256/52/40 255/53/41
f 255/53/41 254/54/39 252/51/39
f 254/54/39 253/55/67 252/51/39
f 251/56/42 252/51/39 253/55/67
f 250/57/43 251/56/42 253/55/67
f 253/55/67 249/58/43 250/57/43
f 246/59/44 250/57/43 249/58/43
f 249/58/43 248/60/44 246/59/44
f 248/60/44 247/61/68 246/59/44
f 245/62/68 246/59/44 247/61/68
f 332/28/22 245/62/68 247/61/68
f 247/61/68 333/29/22 332/28/22
f 264/63/48 268/64/9 267/65/9
f 267/65/9 266/66/48 264/63/48
f 266/66/48 265/67/69 264/63/48
f 263/68/70 264/63/48 265/67/69
f 262/69/51 263/68/70 265/67/69
f 265/67/69 261/70/51 262/69/51
f 258/71/71 262/69/51 261/70/51
f 261/70/51 260/72/52 258/71/71
f 260/72/52 259/73/54 258/71/71
f 257/74/54 258/71/71 259/73/54
f 334/52/41 257/74/54 259/73/54
f 259/73/54 335/53/40 334/52/41
f 315/75/56 317/76/56 316/77/56
f 316/77/56 314/9/56 315/75/56
f 314/9/56 271/78/56 315/75/56
f 322/79/56 315/75/56 271/78/56
f 272/80/56 322/79/56 271/78/56
f 270/81/56 272/80/56 271/78/56
f 271/78/56 269/3/56 270/81/56
f 269/3/56 275/82/56 270/81/56
f 323/83/56 270/81/56 275/82/56
f 276/84/56 323/83/56 275/82/56
f 274/85/56 276/84/56 275/82/56
f 275/82/56 273/15/56 274/85/56
f 273/15/56 278/86/56 274/85/56
f 324/87/56 274/85/56 278/86/56
f 277/88/56 324/87/56 278/86/56
f 279/89/56 277/88/56 278/86/56
f 278/86/56 280/21/56 279/89/56
f 282/90/56 279/89/56 280/21/56
f 280/21/56 281/91/56 282/90/56
f 285/92/56 282/90/56 281/91/56
f 284/93/56 285/92/56 281/91/56
f 281/91/56 283/49/56 284/93/56
f 283/49/56 288/94/56 284/93/56
f 325/95/56 284/93/56 288/94/56
f 289/96/56 325/95/56 288/94/56
f 287/97/56 289/96/56 288/94/56
f 288/94/56 286/43/56 287/97/56
f 286/43/56 292/98/56 287/97/56
f 326/99/56 287/97/56 292/98/56
f 293/100/56 326/99/56 292/98/56
f 291/101/56 293/100/56 292/98/56
f 292/98/56 290/37/56 291/101/56
f 290/37/56 296/102/56 291/101/56
f 327/103/56 291/101/56 296/102/56
f 297/104/56 327/103/56 296/102/56
f 295/105/56 297/104/56 296/102/56
f 296/102/56 294/31/56 295/105/56
f 294/31/56 300/106/56 295/105/56
f 328/107/56 295/105/56 300/106/56
f 301/108/56 328/107/56 300/106/56
f 299/109/56 301/108/56 300/106/56
f 300/106/56 298/61/56 299/109/56
f 298/61/56 304/110/56 299/109/56
f 329/111/56 299/109/56 304/110/56
f 305/112/56 329/111/56 304/110/56
f 303/113/56 305/112/56 304/110/56
f 304/110/56 302/55/56 303/113/56
f 302/55/56 308/114/56 303/113/56
f 318/115/56 303/113/56 308/114/56
f 309/116/56 318/115/56 308/114/56
f 307/117/56 309/116/56 308/114/56
f 308/114/56 306/73/56 307/117/56
f 306/73/56 312/118/56 307/117/56
f 319/119/56 307/117/56 312/118/56
f 313/120/56 319/119/56 312/118/56
f 311/121/56 313/120/56 312/118/56
f 312/118/56 310/67/56 311/121/56
f 310/67/56 321/122/56 311/121/56
f 320/123/56 311/121/56 321/122/56
f 321/122/56 338/124/56 320/123/56
f 371/1/1 373/2/1 372/3/2
f 370/4/2 371/1/1 372/3/2
f 369/5/57 370/4/2 372/3/2
f 372/3/2 368/6/57 369/5/57
f 365/7/72 369/5/57 368/6/57
f 368/6/57 367/8/6 365/7/72
f 367/8/6 366/9/58 365/7/72
f 364/10/7 365/7/72 366/9/58
f 505/11/9 364/10/7 366/9/58
f 366/9/58 506/12/9 505/11/9
f 376/13/10 374/2/73 375/1/1
f 375/1/1 377/14/10 376/13/10
f 380/15/12 376/13/10 377/14/10
f 377/14/10 378/16/74 380/15/12
f 378/16/74 379/17/14 380/15/12
f 381/18/14 380/15/12 379/17/14
f 385/19/15 381/18/14 379/17/14
f 379/17/14 384/20/15 385/19/15
f 383/21/75 385/19/15 384/20/15
f 384/20/15 382/22/16 383/21/75
f 382/22/16 386/23/76 383/21/75
f 387/24/77 383/21/75 386/23/76
f 388/25/61 387/24/77 386/23/76
f 386/23/76 389/26/20 388/25/61
f 409/27/23 413/28/22 412/29/22
f 412/29/22 411/30/23 409/27/23
f 411/30/23 410/31/24 409/27/23
f 408/32/24 409/27/23 410/31/24
f 407/33/26 408/32/24 410/31/24
f 410/31/24 406/34/63 407/33/26
f 403/35/27 407/33/26 406/34/63
f 406/34/63 405/36/28 403/35/27
f 405/36/28 404/37/64 403/35/27
f 402/38/29 403/35/27 404/37/64
f 401/39/30 402/38/29 404/37/64
f 404/37/64 400/40/30 401/39/30
f 397/41/31 401/39/30 400/40/30
f 400/40/30 399/42/31 397/41/31
f 399/42/31 398/43/33 397/41/31
f 396/44/78 397/41/31 398/43/33
f 395/45/34 396/44/78 398/43/33
f 398/43/33 394/46/35 395/45/34
f 391/47/36 395/45/34 394/46/35
f 394/46/35 393/48/79 391/47/36
f 393/48/79 392/49/38 391/47/36
f 390/50/38 391/47/36 392/49/38
f 499/26/19 390/50/38 392/49/38
f 392/49/38 500/25/19 499/26/19
f 421/51/80 425/52/40 424/53/55
f 424/53/55 423/54/81 421/51/80
f 423/54/81 422/55/82 421/51/80
f 420/56/42 421/51/80 422/55/82
f 419/57/43 420/56/42 422/55/82
f 422/55/82 418/58/43 419/57/43
f 415/59/44 419/57/43 418/58/43
f 418/58/43 417/60/44 415/59/44
f 417/60/44 416/61/46 415/59/44
f 414/62/46 415/59/44 416/61/46
f 501/28/22 414/62/46 416/61/46
f 416/61/46 502/29/47 501/28/22
f 433/63/48 437/64/9 436/65/9
f 436/65/9 435/66/48 433/63/48
f 435/66/48 434/67/49 433/63/48
f 432/68/70 433/63/48 434/67/49
f 431/69/51 432/68/70 434/67/49
f 434/67/49 430/70/51 431/69/51
f 427/71/53 431/69/51 430/70/51
f 430/70/51 429/72/83 427/71/53
f 429/72/83 428/73/54 427/71/53
f 426/74/54 427/71/53 428/73/54
f 503/52/41 426/74/54 428/73/54
f 428/73/54 504/53/40 503/52/41
f 484/75/56 486/76/56 485/77/56
f 485/77/56 483/9/56 484/75/56
f 483/9/56 440/78/56 484/75/56
f 491/79/56 484/75/56 440/78/56
f 441/80/56 491/79/56 440/78/56
f 439/81/56 441/80/56 440/78/56
f 440/78/56 438/3/56 439/81/56
f 438/3/56 444/82/56 439/81/56
f 492/83/56 439/81/56 444/82/56
f 445/84/56 492/83/56 444/82/56
f 443/85/56 445/84/56 444/82/56
f 444/82/56 442/15/56 443/85/56
f 442/15/56 447/86/56 443/85/56
f 493/87/56 443/85/56 447/86/56
f 446/88/56 493/87/56 447/86/56
f 448/89/56 446/88/56 447/86/56
f 447/86/56 449/21/56 448/89/56
f 451/90/56 448/89/56 449/21/56
f 449/21/56 450/91/56 451/90/56
f 454/92/56 451/90/56 450/91/56
f 453/93/56 454/92/56 450/91/56
f 450/91/56 452/49/56 453/93/56
f 452/49/56 457/94/56 453/93/56
f 494/95/56 453/93/56 457/94/56
f 458/96/56 494/95/56 457/94/56
f 456/97/56 458/96/56 457/94/56
f 457/94/56 455/43/56 456/97/56
f 455/43/56 461/98/56 456/97/56
f 495/99/56 456/97/56 461/98/56
f 462/100/56 495/99/56 461/98/56
f 460/101/56 462/100/56 461/98/56
f 461/98/56 459/37/56 460/101/56
f 459/37/56 465/102/56 460/101/56
f 496/103/56 460/101/56 465/102/56
f 466/104/56 496/103/56 465/102/56
f 464/105/56 466/104/56 465/102/56
f 465/102/56 463/31/56 464/105/56
f 463/31/56 469/106/56 464/105/56
f 497/107/56 464/105/56 469/106/56
f 470/108/56 497/107/56 469/106/56
f 468/109/56 470/108/56 469/106/56
f 469/106/56 467/61/56 468/109/56
f 467/61/56 473/110/56 468/109/56
f 498/111/56 468/109/56 473/110/56
f 474/112/56 498/111/56 473/110/56
f 472/113/56 474/112/56 473/110/56
f 473/110/56 471/55/56 472/113/56
f 471/55/56 477/114/56 472/113/56
f 487/115/56 472/113/56 477/114/56
f 478/116/56 487/115/56 477/114/56
f 476/117/56 478/116/56 477/114/56
f 477/114/56 475/73/56 476/117/56
f 475/73/56 481/118/56 476/117/56
f 488/119/56 476/117/56 481/118/56
f 482/120/56 488/119/56 481/118/56
f 480/121/56 482/120/56 481/118/56
f 481/118/56 479/67/56 480/121/56
f 479/67/56 490/122/56 480/121/56
f 489/123/56 480/121/56 490/122/56
f 490/122/56 507/124/56 489/123/56
f 1/125/56 2/126/56 3/127/56
f 3/127/56 25/128/56 1/125/56
f 25/128/56 24/129/56 1/125/56
f 24/129/56 23/130/56 1/125/56
f 23/130/56 22/131/56 1/125/56
f 22/131/56 21/132/56 1/125/56
f 21/132/56 20/133/56 1/125/56
f 20/133/56 19/134/56 1/125/56
f 19/134/56 18/135/56 1/125/56
f 18/135/56 17/136/56 1/125/56
f 17/136/56 16/137/56 1/125/56
f 16/137/56 15/138/56 1/125/56
f 15/138/56 14/139/56 1/125/56
f 14/139/56 13/140/56 1/125/56
f 13/140/56 12/141/56 1/125/56
f 12/141/56 11/142/56 1/125/56
f 11/142/56 10/143/56 1/125/56
f 10/143/56 9/144/56 1/125/56
f 9/144/56 8/145/56 1/125/56
f 8/145/56 7/146/56 1/125/56
f 7/146/56 6/147/56 1/125/56
f 6/147/56 5/148/56 1/125/56
f 5/148/56 4/149/56 1/125/56
f 2/126/56 1/125/56 4/149/56
f 170/125/56 171/126/56 172/127/56
f 172/127/56 194/128/56 170/125/56
f 194/128/56 193/129/56 170/125/56
f 193/129/56 192/130/56 170/125/56
f 192/130/56 191/131/56 170/125/56
f 191/131/56 190/132/56 170/125/56
f 190/132/56 189/133/56 170/125/56
f 189/133/56 188/134/56 170/125/56
f 188/134/56 187/135/56 170/125/56
f 187/135/56 186/136/56 170/125/56
f 186/136/56 185/137/56 170/125/56
f 185/137/56 184/138/56 170/125/56
f 184/138/56 183/139/56 170/125/56
f 183/139/56 182/140/56 170/125/56
f 182/140/56 181/141/56 170/125/56
f 181/141/56 180/142/56 170/125/56
f 180/142/56 179/143/56 170/125/56
f 179/143/56 178/144/56 170/125/56
f 178/144/56 177/145/56 170/125/56
f 177/145/56 176/146/56 170/125/56
f 176/146/56 175/147/56 170/125/56
f 175/147/56 174/148/56 170/125/56
f 174/148/56 173/149/56 170/125/56
f 171/126/56 170/125/56 173/149/56
f 339/125/56 340/126/56 341/127/56
f 341/127/56 363/128/56 339/125/56
f 363/128/56 362/129/56 339/125/56
f 362/129/56 361/130/56 339/125/56
f 361/130/56 360/131/56 339/125/56
f 360/131/56 359/132/56 339/125/56
f 359/132/56 358/133/56 339/125/56
f 358/133/56 357/134/56 339/125/56
f 357/134/56 356/135/56 339/125/56
f 356/135/56 355/136/56 339/125/56
f 355/136/56 354/137/56 339/125/56
f 354/137/56 353/138/56 339/125/56
f 353/138/56 352/139/56 339/125/56
f 352/139/56 351/140/56 339/125/56
f 351/140/56 350/141/56 339/125/56
f 350/141/56 349/142/56 339/125/56
f 349/142/56 348/143/56 339/125/56
f 348/143/56 347/144/56 339/125/56
f 347/144/56 346/145/56 339/125/56
f 346/145/56 345/146/56 339/125/56
f 345/146/56 344/147/56 339/125/56
f 344/147/56 343/148/56 339/125/56
f 343/148/56 342/149/56 339/125/56
f 340/126/56 339/125/56 342/149/56
