# Blender 4.5.3 LTS
# www.blender.org
o w9a02_km1_brick01
v 12.460570 8.500000 -9.498403
v 12.460571 0.143168 -9.498403
v -7.452432 8.500000 -9.498403
v -7.452432 0.143168 -9.498403
v 12.460570 8.500000 5.700001
v 12.460571 0.143167 5.700000
v 12.460570 8.500000 -9.498403
v 12.460571 0.143168 -9.498403
v 7.500000 8.500000 5.700001
v 7.500000 0.143167 5.700000
v 12.460570 8.500000 5.700001
v 12.460571 0.143167 5.700000
v -7.452432 8.500000 -9.498403
v -7.452432 0.143168 -9.498403
v -7.458743 8.500000 -5.700000
v -7.458742 0.143168 -5.700000
v 2.155094 3.953248 17.712112
v 2.155094 3.953248 17.114111
v 1.781974 3.975349 17.712112
v 1.781974 3.975349 17.114111
v 2.378222 3.924442 17.712112
v 2.378222 3.924442 17.114111
v 2.155094 3.953248 17.712112
v 2.155094 3.953248 17.114111
v 2.933119 3.775256 17.712112
v 2.662936 3.861652 17.114111
v 2.933119 3.775256 17.114111
v 3.410503 3.537878 17.712112
v 3.183537 3.666691 17.114111
v 3.410503 3.537878 17.114111
v 3.608250 3.390961 17.712112
v 3.608250 3.390961 17.114111
v 3.802583 3.193642 17.712112
v 3.802583 3.193642 17.114111
v 3.909541 3.053328 17.712112
v 3.919918 3.053328 17.117975
v 3.802583 3.193642 17.712112
v 3.802583 3.193642 17.114111
v 4.016320 2.868306 17.117975
v 3.919918 3.053328 17.117975
v 3.909541 3.053328 17.712112
v 4.064926 2.676669 17.114111
v 4.064926 2.676669 17.712112
v 4.079481 2.529842 17.712112
v 4.079481 2.529842 17.114111
v 4.064926 2.676669 17.712112
v 4.064926 2.676669 17.114111
v -0.521553 2.481709 17.712112
v -0.501383 2.676658 17.712112
v -0.521553 2.481709 17.114111
v -0.501383 2.676658 17.114111
v -0.501383 2.676658 17.712112
v -0.442400 2.868306 17.712112
v -0.501383 2.676658 17.114111
v -0.442400 2.868306 17.114111
v -0.345998 3.053328 17.712112
v -0.345998 3.053328 17.114111
v -0.212894 3.228523 17.712112
v -0.212894 3.228523 17.114111
v -0.045135 3.390961 17.712112
v -0.045135 3.390961 17.114111
v 0.153466 3.537878 17.712112
v 0.153466 3.537878 17.114111
v 0.630828 3.775234 17.712112
v 0.379984 3.666725 17.114111
v 0.630828 3.775234 17.114111
v 1.054014 3.897455 17.712112
v 0.900561 3.861652 17.114111
v 1.054014 3.897455 17.114111
v 1.481109 3.962581 17.712112
v 1.481109 3.962581 17.114111
v 1.254704 3.933314 17.712112
v 1.254704 3.933314 17.114111
v 1.781974 3.975349 17.712112
v 1.781974 3.975349 17.114111
v 1.481109 3.962581 17.712112
v 1.481109 3.962581 17.114111
v 4.079481 2.529842 17.712112
v 4.084241 2.356534 17.712112
v 4.079481 2.529842 17.114111
v 4.084241 2.356534 17.114111
v -0.521553 2.356534 17.712112
v -0.521553 2.356534 17.114111
v 4.084241 2.356534 17.114111
v 4.084241 2.356534 17.712112
v 4.081524 0.735999 17.113417
v 4.081524 0.735999 17.712112
v -0.521553 2.356534 17.712112
v -0.521553 2.356534 17.114111
v -0.518476 0.735999 17.712112
v -0.518476 0.735999 17.114538
v 2.780048 4.257447 17.072020
v 3.087695 4.159024 17.072020
v 4.541569 4.833593 17.068113
v 3.376969 4.033556 17.072020
v 3.644816 3.881395 17.072020
v 3.884205 3.703516 17.072020
v 4.093226 3.500896 17.072020
v -0.567553 2.356500 17.068113
v -0.546687 2.685878 17.068113
v -1.389758 2.356500 17.068113
v -1.409748 2.685788 17.068113
v -0.074940 3.426135 17.068113
v 0.128332 3.576499 17.068113
v -0.978431 4.833593 17.068113
v 0.359432 3.707941 17.068113
v 0.614634 3.818359 17.068113
v 0.820982 4.261389 17.072020
v 0.829809 4.219590 17.071886
v -1.392521 0.735977 17.068113
v -0.563915 0.735977 17.068113
v 4.266445 3.273221 17.072020
v -0.247417 3.259137 17.068113
v -0.384991 3.078046 17.068113
v -0.521553 2.481709 17.114111
v -0.501383 2.676658 17.114111
v -0.546687 2.685878 17.068113
v -0.442400 2.868306 17.114111
v -0.485121 2.885848 17.068113
v -0.345998 3.053328 17.114111
v -0.384991 3.078046 17.068113
v 0.153466 3.537878 17.114111
v 0.128332 3.576499 17.068113
v -0.045135 3.390961 17.114111
v -0.074940 3.426135 17.068113
v 0.379984 3.666725 17.114111
v 0.359432 3.707941 17.068113
v 0.630828 3.775234 17.114111
v 0.614634 3.818359 17.068113
v 0.900561 3.861652 17.114111
v 0.888590 3.906114 17.068113
v -0.521553 2.356534 17.114111
v -0.567553 2.356500 17.068113
v 4.101491 2.353647 17.068113
v 4.127479 0.735977 17.068113
v -0.518476 0.735999 17.114538
v -0.563915 0.735977 17.068113
v -0.212894 3.228523 17.114111
v -0.247417 3.259137 17.068113
v -3.738026 3.975349 17.712112
v -3.337952 3.948834 17.712112
v -3.738026 3.975349 17.115438
v -3.337952 3.948834 17.115438
v -3.337952 3.948834 17.712112
v -3.107211 3.916827 17.712112
v -3.337952 3.948834 17.115438
v -3.107211 3.916827 17.115438
v -2.502158 3.743283 17.712112
v -2.857064 3.861652 17.115438
v -3.107211 3.916827 17.712112
v -3.107211 3.916827 17.115438
v -2.502158 3.743283 17.115438
v -2.321079 3.657965 17.712112
v -2.140897 3.555700 17.712112
v -2.321079 3.657965 17.115438
v -2.140897 3.555700 17.115438
v -2.140897 3.555700 17.712112
v -1.997865 3.457636 17.712112
v -2.140897 3.555700 17.115438
v -1.997865 3.457636 17.115438
v -1.702437 3.174033 17.711708
v -1.702437 3.174033 17.115034
v -1.846254 3.327554 17.712112
v -1.846254 3.327554 17.115438
v -1.702437 3.174033 17.711708
v -1.610459 3.053328 17.712112
v -1.702437 3.174033 17.115034
v -1.610459 3.053328 17.115438
v -1.514057 2.868306 17.712112
v -1.514057 2.868306 17.114111
v -1.455074 2.676669 17.712112
v -1.455074 2.676669 17.114111
v -1.435758 2.481709 17.712112
v -1.435758 2.481709 17.114111
v -1.455074 2.676669 17.712112
v -1.455074 2.676669 17.114111
v -6.021383 2.676658 17.712112
v -6.021383 2.676658 17.114111
v -6.041553 2.481709 17.712112
v -6.041553 2.481709 17.114111
v -6.021383 2.676658 17.712112
v -5.962401 2.868306 17.712112
v -6.021383 2.676658 17.114111
v -5.962401 2.868306 17.114111
v -5.865998 3.053328 17.712112
v -5.865998 3.053328 17.114111
v -5.732895 3.228523 17.712112
v -5.732895 3.228523 17.114111
v -5.565135 3.390961 17.712112
v -5.565135 3.390961 17.114111
v -5.140016 3.666725 17.712112
v -5.366535 3.537878 17.114111
v -5.140016 3.666725 17.114111
v -4.619439 3.861652 17.712112
v -4.889173 3.775234 17.114111
v -4.525575 3.882294 17.115866
v -4.038891 3.962581 17.115438
v -4.333893 3.924442 17.712112
v -1.435758 2.356534 17.712112
v -1.435758 2.356534 17.114111
v -6.041553 2.356534 17.114111
v -6.038476 0.735999 17.712112
v -1.438476 0.735999 17.113417
v -1.438476 0.735999 17.712112
v -6.038476 0.735999 17.114538
v -2.750352 4.257447 17.070786
v -2.442727 4.159024 17.070786
v -2.153430 4.033556 17.070786
v -1.885561 3.881395 17.070786
v -1.646217 3.703516 17.070786
v -1.437196 3.500896 17.070786
v -5.594940 3.426135 17.068113
v -5.391668 3.576499 17.068113
v -6.498431 4.833593 17.068113
v -5.160568 3.707941 17.068113
v -4.905366 3.818359 17.068113
v -4.700186 4.219399 17.070135
v -4.717391 4.244925 17.070740
v -4.404195 4.328278 17.070786
v -3.737937 4.833593 17.068113
v -1.289672 3.267560 17.070673
v -5.767417 3.259137 17.068113
v -5.904991 3.078046 17.068113
v -1.514057 2.868306 17.114111
v -1.455074 2.676669 17.114111
v -1.471336 2.885848 17.068113
v -1.409748 2.685788 17.068113
v -1.435758 2.481709 17.114111
v -6.041553 2.481709 17.114111
v -6.021383 2.676658 17.114111
v -6.066687 2.685878 17.068113
v -5.962401 2.868306 17.114111
v -6.005122 2.885848 17.068113
v -5.865998 3.053328 17.114111
v -5.904991 3.078046 17.068113
v -5.366535 3.537878 17.114111
v -5.391668 3.576499 17.068113
v -5.565135 3.390961 17.114111
v -5.594940 3.426135 17.068113
v -5.140016 3.666725 17.114111
v -5.160568 3.707941 17.068113
v -4.889173 3.775234 17.114111
v -4.905366 3.818359 17.068113
v -4.525575 3.882294 17.115866
v -4.533077 3.901026 17.069864
v -1.435758 2.356534 17.114111
v -1.389758 2.356500 17.068113
v -6.041553 2.356534 17.114111
v -6.087554 2.356500 17.068113
v -1.392521 0.735977 17.068113
v -1.438476 0.735999 17.113417
v -6.038476 0.735999 17.114538
v -6.083914 0.735977 17.068113
v -1.610459 3.053328 17.115438
v -1.571490 3.078080 17.069437
v -5.732895 3.228523 17.114111
v -5.767417 3.259137 17.068113
v -6.066687 2.685878 17.068113
v -8.000000 4.833593 17.068113
v -8.000000 0.735999 17.068113
v -1.471336 2.885848 17.068113
v -1.300588 3.249985 17.070135
v -1.571490 3.078080 17.069437
v -0.485121 2.885848 17.068113
v -3.337952 3.948834 17.115438
v -3.334022 3.994699 17.070763
v -3.738026 3.975349 17.115438
v -3.738026 4.021383 17.070763
v -3.107211 3.916827 17.115438
v -3.104651 3.931674 17.070740
v -3.337952 3.948834 17.115438
v -3.337952 3.948834 17.115438
v -3.104651 3.931674 17.070740
v -3.334022 3.994699 17.070763
v -3.107211 3.916827 17.115438
v -2.857064 3.861652 17.115438
v -3.104651 3.931674 17.070740
v -2.850393 3.875612 17.070740
v -2.579784 3.794168 17.070740
v -2.502158 3.743283 17.115438
v -2.493623 3.763981 17.070740
v -2.321079 3.657965 17.115438
v -2.140897 3.555700 17.115438
v -2.309534 3.677349 17.070740
v -2.115718 3.594311 17.070763
v -2.140897 3.555700 17.115438
v -1.997865 3.457636 17.115438
v -2.115718 3.594311 17.070763
v -1.969834 3.494102 17.070763
v -1.702437 3.174033 17.115034
v -1.667960 3.204670 17.070358
v -1.846254 3.327554 17.115438
v -1.816403 3.362694 17.070763
v -4.038891 3.962581 17.115438
v -4.337329 3.944084 17.070740
v -4.525575 3.882294 17.115866
v -4.533077 3.901026 17.069864
v -4.038352 3.982728 17.070740
v -1.702437 3.174033 17.115034
v -1.610459 3.053328 17.115438
v -1.667960 3.204670 17.070358
v -1.571490 3.078080 17.069437
v -4.337329 3.944084 17.070740
v -4.700186 4.219399 17.070135
v -4.533077 3.901026 17.069864
v -4.038352 3.982728 17.070740
v -4.070269 4.328649 17.070786
v -3.738026 4.021383 17.070763
v -3.738026 4.342754 17.070786
v -3.334022 3.994699 17.070763
v -3.306619 4.314902 17.070786
v -3.104651 3.931674 17.070740
v -3.044074 4.278774 17.070786
v -3.334022 3.994699 17.070763
v -3.306619 4.314902 17.070786
v -2.850393 3.875612 17.070740
v -2.761425 4.216412 17.070786
v -3.104651 3.931674 17.070740
v -3.044074 4.278774 17.070786
v -2.579784 3.794168 17.070740
v -2.362137 4.082589 17.070786
v -2.493623 3.763981 17.070740
v -2.309534 3.677349 17.070740
v -2.115718 3.594311 17.070763
v -2.157024 3.986805 17.070786
v -1.940163 3.863606 17.070786
v -2.115718 3.594311 17.070763
v -1.969834 3.494102 17.070763
v -1.940163 3.863606 17.070786
v -1.774200 3.748461 17.070786
v -1.667960 3.204670 17.070358
v -1.427470 3.418172 17.070381
v -1.816403 3.362694 17.070763
v -1.608236 3.607709 17.070786
v -1.667960 3.204670 17.070358
v -1.571490 3.078080 17.069437
v -1.427470 3.418172 17.070381
v -1.300588 3.249985 17.070135
v -1.300588 3.249985 17.070135
v -1.289672 3.267560 17.070673
v -1.427470 3.418172 17.070381
v -1.437196 3.500896 17.070786
v -1.608236 3.607709 17.070786
v -1.646217 3.703516 17.070786
v -1.885561 3.881395 17.070786
v -1.774200 3.748461 17.070786
v -2.157024 3.986805 17.070786
v -1.940163 3.863606 17.070786
v -2.153430 4.033556 17.070786
v -2.442727 4.159024 17.070786
v -2.362137 4.082589 17.070786
v -2.761425 4.216412 17.070786
v -2.750352 4.257447 17.070786
v -3.044074 4.278774 17.070786
v -3.071319 4.328256 17.070786
v -3.306619 4.314902 17.070786
v -3.402213 4.370976 17.070786
v -3.738026 4.342754 17.070786
v -3.738026 4.385239 17.070786
v -4.070269 4.328649 17.070786
v -4.073907 4.370976 17.070786
v -4.700186 4.219399 17.070135
v -4.404195 4.328278 17.070786
v -4.717391 4.244925 17.070740
v 1.781974 3.975349 17.114111
v 2.155094 3.953248 17.114111
v 1.790485 4.006693 17.071976
v 2.166033 3.972800 17.071976
v 2.155094 3.953248 17.114111
v 2.378222 3.924442 17.114111
v 2.166033 3.972800 17.071976
v 2.393159 3.943477 17.071976
v 2.662936 3.861652 17.114111
v 2.677783 3.878161 17.071976
v 2.959713 3.818370 17.071976
v 2.933119 3.775256 17.114111
v 3.214510 3.707918 17.071976
v 3.183537 3.666691 17.114111
v 3.446059 3.576488 17.071976
v 3.410503 3.537878 17.114111
v 3.641357 3.419744 17.071976
v 3.608250 3.390961 17.114111
v 3.831960 3.210521 17.071976
v 3.802583 3.193642 17.114111
v 4.016320 2.868306 17.117975
v 4.031123 2.868115 17.071976
v 4.088623 2.682621 17.071976
v 4.079481 2.529842 17.114111
v 4.103851 2.528944 17.071976
v 0.900561 3.861652 17.114111
v 1.054014 3.897455 17.114111
v 0.888590 3.906114 17.068113
v 1.048287 3.942309 17.069775
v 1.254704 3.933314 17.114111
v 1.481109 3.962581 17.114111
v 1.255309 3.963973 17.071976
v 1.485668 3.993756 17.071976
v 1.481109 3.962581 17.114111
v 1.781974 3.975349 17.114111
v 1.485668 3.993756 17.071976
v 1.790485 4.006693 17.071976
v 4.079481 2.529842 17.114111
v 4.103851 2.528944 17.071976
v 4.101491 2.353647 17.068113
v 3.930969 3.060347 17.071976
v 3.919918 3.053328 17.117975
v 3.831960 3.210521 17.071976
v 3.802583 3.193642 17.114111
v 3.930969 3.060347 17.071976
v 3.919918 3.053328 17.117975
v 0.888590 3.906114 17.068113
v 1.048287 3.942309 17.069775
v 0.829809 4.219590 17.071886
v 0.990473 4.252248 17.071930
v 1.255309 3.963973 17.071976
v 1.485668 3.993756 17.071976
v 1.202099 4.295283 17.072020
v 1.460131 4.328649 17.072020
v 1.485668 3.993756 17.071976
v 1.790485 4.006693 17.071976
v 1.460131 4.328649 17.072020
v 1.792373 4.342754 17.072020
v 2.166033 3.972800 17.071976
v 2.196850 4.319316 17.072020
v 1.790485 4.006693 17.071976
v 1.792373 4.342754 17.072020
v 2.166033 3.972800 17.071976
v 2.393159 3.943477 17.071976
v 2.196850 4.319316 17.072020
v 2.451782 4.286400 17.072020
v 2.677783 3.878161 17.071976
v 2.768975 4.216412 17.072020
v 3.072737 4.119246 17.072020
v 2.959713 3.818370 17.071976
v 3.357990 3.995531 17.072020
v 3.214510 3.707918 17.071976
v 3.621615 3.845784 17.072020
v 3.446059 3.576488 17.071976
v 3.641357 3.419744 17.071976
v 3.856667 3.671116 17.072020
v 3.831960 3.210521 17.071976
v 4.087971 3.437780 17.072020
v 3.831960 3.210521 17.071976
v 3.930969 3.060347 17.071976
v 4.087971 3.437780 17.072020
v 4.230508 3.250434 17.072020
v 3.930969 3.060347 17.071976
v 4.031123 2.868115 17.071976
v 4.230508 3.250434 17.072020
v 4.356738 3.007935 17.072020
v 4.088623 2.682621 17.071976
v 4.436069 2.749544 17.072020
v 4.103851 2.528944 17.071976
v 4.456869 2.548429 17.072020
v 4.103851 2.528944 17.071976
v 4.101491 2.353647 17.068113
v 4.456869 2.548429 17.072020
v 4.461878 2.356747 17.071033
v 4.456869 2.548429 17.072020
v 4.461878 2.356747 17.071033
v 4.504083 2.502451 17.072020
v 4.504397 2.356871 17.072020
v 4.436069 2.749544 17.072020
v 4.477779 2.757967 17.072020
v 4.356738 3.007935 17.072020
v 4.396090 3.024073 17.072020
v 4.230508 3.250434 17.072020
v 4.266445 3.273221 17.072020
v 4.087971 3.437780 17.072020
v 4.093226 3.500896 17.072020
v 3.856667 3.671116 17.072020
v 3.884205 3.703516 17.072020
v 3.621615 3.845784 17.072020
v 3.644816 3.881395 17.072020
v 3.357990 3.995531 17.072020
v 3.376969 4.033556 17.072020
v 3.072737 4.119246 17.072020
v 3.087695 4.159024 17.072020
v 2.768975 4.216412 17.072020
v 2.780048 4.257447 17.072020
v 2.451782 4.286400 17.072020
v 2.459081 4.328256 17.072020
v 2.196850 4.319316 17.072020
v 2.128187 4.370976 17.072020
v 1.792373 4.342754 17.072020
v 1.792373 4.385239 17.072020
v 1.460131 4.328649 17.072020
v 1.456492 4.370976 17.072020
v 1.202099 4.295283 17.072020
v 1.126182 4.328278 17.072020
v 0.990473 4.252248 17.071930
v -3.402213 4.370976 17.070786
v -3.071319 4.328256 17.070786
v -3.738026 4.385239 17.070786
v -4.073907 4.370976 17.070786
v -4.533077 3.901026 17.069864
v 2.128187 4.370976 17.072020
v 2.459081 4.328256 17.072020
v 1.782063 4.833593 17.068113
v 1.792373 4.385239 17.072020
v 1.456492 4.370976 17.072020
v 1.126182 4.328278 17.072020
v 8.000001 0.735999 17.068113
v 4.504397 2.356871 17.072020
v 4.127479 0.735977 17.068113
v 4.461878 2.356747 17.071033
v 4.101491 2.353647 17.068113
v 0.888590 3.906114 17.068113
v -1.997865 3.457636 17.712112
v -1.846254 3.327554 17.712112
v -1.997865 3.457636 17.115438
v -1.846254 3.327554 17.115438
v -1.969834 3.494102 17.070763
v -1.997865 3.457636 17.115438
v -1.816403 3.362694 17.070763
v -1.846254 3.327554 17.115438
v -1.774200 3.748461 17.070786
v -1.969834 3.494102 17.070763
v -1.608236 3.607709 17.070786
v -1.816403 3.362694 17.070763
v -2.502158 3.743283 17.712112
v -2.321079 3.657965 17.712112
v -2.502158 3.743283 17.115438
v -2.321079 3.657965 17.115438
v -2.502158 3.743283 17.115438
v -2.321079 3.657965 17.115438
v -2.493623 3.763981 17.070740
v -2.309534 3.677349 17.070740
v -2.362137 4.082589 17.070786
v -2.493623 3.763981 17.070740
v -2.157024 3.986805 17.070786
v -2.309534 3.677349 17.070740
v 1.254704 3.933314 17.712112
v 1.254704 3.933314 17.114111
v 1.054014 3.897455 17.712112
v 1.054014 3.897455 17.114111
v 1.054014 3.897455 17.114111
v 1.254704 3.933314 17.114111
v 1.048287 3.942309 17.069775
v 1.255309 3.963973 17.071976
v 0.990473 4.252248 17.071930
v 1.048287 3.942309 17.069775
v 1.202099 4.295283 17.072020
v 1.255309 3.963973 17.071976
v 0.829809 4.219590 17.071886
v 0.820982 4.261389 17.072020
v 8.000001 4.833593 17.068113
v 4.504083 2.502451 17.072020
v -6.083914 0.735977 17.068113
v -6.087554 2.356500 17.068113
v -6.005122 2.885848 17.068113
v 8.000001 4.833593 17.068113
v 4.477779 2.757967 17.072020
v 8.000001 4.833593 17.068113
v 4.396090 3.024073 17.072020
v 8.000001 4.833593 17.068113
v 8.000001 4.833593 17.068113
v 2.155094 3.953249 -5.919467
v 1.781974 3.975350 -5.919467
v 2.155094 3.953249 -5.321468
v 1.781974 3.975350 -5.321468
v 2.378222 3.924443 -5.919467
v 2.155094 3.953249 -5.919467
v 2.378222 3.924443 -5.321468
v 2.155094 3.953249 -5.321468
v 2.933119 3.775257 -5.919467
v 2.662936 3.861653 -5.321468
v 2.933119 3.775257 -5.321468
v 3.410503 3.537879 -5.919467
v 3.183537 3.666692 -5.321468
v 3.410503 3.537879 -5.321468
v 3.608250 3.390962 -5.919467
v 3.608250 3.390962 -5.321468
v 3.802583 3.193643 -5.919467
v 3.802583 3.193643 -5.321468
v 3.909541 3.053329 -5.919467
v 3.802583 3.193643 -5.919467
v 3.919918 3.053329 -5.325331
v 3.802583 3.193643 -5.321468
v 4.016320 2.868307 -5.325331
v 3.909541 3.053329 -5.919467
v 3.919918 3.053329 -5.325331
v 4.064926 2.676670 -5.321468
v 4.064926 2.676670 -5.919467
v 4.079481 2.529843 -5.919467
v 4.064926 2.676670 -5.919467
v 4.079481 2.529843 -5.321468
v 4.064926 2.676670 -5.321468
v -0.501383 2.676659 -5.919467
v -0.521553 2.481709 -5.919467
v -0.501383 2.676659 -5.321468
v -0.521553 2.481709 -5.321468
v -0.442400 2.868307 -5.919467
v -0.501383 2.676659 -5.919467
v -0.442400 2.868307 -5.321468
v -0.501383 2.676659 -5.321468
v -0.345998 3.053329 -5.919467
v -0.345998 3.053329 -5.321468
v -0.212894 3.228524 -5.919467
v -0.212894 3.228524 -5.321468
v -0.045135 3.390962 -5.919467
v -0.045135 3.390962 -5.321468
v 0.153466 3.537879 -5.919467
v 0.153466 3.537879 -5.321468
v 0.630828 3.775235 -5.919467
v 0.379984 3.666726 -5.321468
v 0.630828 3.775235 -5.321468
v 1.054014 3.897456 -5.919467
v 0.900561 3.861653 -5.321468
v 1.054014 3.897456 -5.321468
v 1.481109 3.962582 -5.919467
v 1.254704 3.933315 -5.919467
v 1.481109 3.962582 -5.321468
v 1.254704 3.933315 -5.321468
v 1.781974 3.975350 -5.919467
v 1.481109 3.962582 -5.919467
v 1.781974 3.975350 -5.321468
v 1.481109 3.962582 -5.321468
v 4.079481 2.529843 -5.919467
v 4.079481 2.529843 -5.321468
v 4.084241 2.356534 -5.919467
v 4.084241 2.356534 -5.321468
v -0.521553 2.356534 -5.321468
v -0.521553 2.356534 -5.919467
v 4.084241 2.356534 -5.321468
v 4.081524 0.736000 -5.320772
v 4.084241 2.356534 -5.919467
v 4.081524 0.736000 -5.919467
v -0.521553 2.356534 -5.919467
v -0.518476 0.736000 -5.919467
v -0.521553 2.356534 -5.321468
v -0.518476 0.736000 -5.321895
v 2.780048 4.257448 -5.279376
v 4.541569 4.833594 -5.275468
v 3.087695 4.159025 -5.279376
v 3.376969 4.033557 -5.279376
v 3.644816 3.881396 -5.279376
v 3.884205 3.703517 -5.279376
v 4.093226 3.500897 -5.279376
v -0.567553 2.356501 -5.275468
v -1.389758 2.356501 -5.275468
v -0.546687 2.685879 -5.275468
v -1.409748 2.685789 -5.275468
v -0.074940 3.426136 -5.275468
v -0.978431 4.833594 -5.275468
v 0.128332 3.576500 -5.275468
v 0.359432 3.707942 -5.275468
v 0.614634 3.818360 -5.275468
v 0.820982 4.261390 -5.279376
v 0.829809 4.219591 -5.279241
v -1.392521 0.735978 -5.275468
v -0.563915 0.735978 -5.275468
v 4.266445 3.273221 -5.279376
v -0.247417 3.259138 -5.275468
v -0.384991 3.078047 -5.275468
v -0.521553 2.481709 -5.321468
v -0.546687 2.685879 -5.275468
v -0.501383 2.676659 -5.321468
v -0.442400 2.868307 -5.321468
v -0.485121 2.885849 -5.275468
v -0.345998 3.053329 -5.321468
v -0.384991 3.078047 -5.275468
v -0.045135 3.390962 -5.321468
v -0.074940 3.426136 -5.275468
v 0.153466 3.537879 -5.321468
v 0.128332 3.576500 -5.275468
v 0.379984 3.666726 -5.321468
v 0.359432 3.707942 -5.275468
v 0.630828 3.775235 -5.321468
v 0.614634 3.818360 -5.275468
v 0.900561 3.861653 -5.321468
v 0.888590 3.906115 -5.275468
v -0.521553 2.356534 -5.321468
v -0.567553 2.356501 -5.275468
v 4.101491 2.353648 -5.275468
v 4.127479 0.735978 -5.275468
v -0.563915 0.735978 -5.275468
v -0.518476 0.736000 -5.321895
v -0.212894 3.228524 -5.321468
v -0.247417 3.259138 -5.275468
v -3.337952 3.948835 -5.919467
v -3.738026 3.975350 -5.919467
v -3.337952 3.948835 -5.322793
v -3.738026 3.975350 -5.322793
v -3.107211 3.916828 -5.919467
v -3.337952 3.948835 -5.919467
v -3.107211 3.916828 -5.322793
v -3.337952 3.948835 -5.322793
v -2.502158 3.743284 -5.919467
v -3.107211 3.916828 -5.919467
v -2.857064 3.861653 -5.322793
v -3.107211 3.916828 -5.322793
v -2.502158 3.743284 -5.322793
v -2.140897 3.555701 -5.919467
v -2.321079 3.657966 -5.919467
v -2.140897 3.555701 -5.322793
v -2.321079 3.657966 -5.322793
v -1.997865 3.457637 -5.919467
v -2.140897 3.555701 -5.919467
v -1.997865 3.457637 -5.322793
v -2.140897 3.555701 -5.322793
v -1.702437 3.174034 -5.322389
v -1.702437 3.174034 -5.919064
v -1.846254 3.327555 -5.322793
v -1.846254 3.327555 -5.919467
v -1.610459 3.053329 -5.919467
v -1.702437 3.174034 -5.919064
v -1.610459 3.053329 -5.322793
v -1.702437 3.174034 -5.322389
v -1.514057 2.868307 -5.321468
v -1.514057 2.868307 -5.919467
v -1.455074 2.676670 -5.919467
v -1.455074 2.676670 -5.321468
v -1.435758 2.481709 -5.919467
v -1.455074 2.676670 -5.919467
v -1.435758 2.481709 -5.321468
v -1.455074 2.676670 -5.321468
v -6.041553 2.481709 -5.919467
v -6.041553 2.481709 -5.321468
v -6.021383 2.676659 -5.919467
v -6.021383 2.676659 -5.321468
v -6.021383 2.676659 -5.919467
v -6.021383 2.676659 -5.321468
v -5.962401 2.868307 -5.919467
v -5.962401 2.868307 -5.321468
v -5.865998 3.053329 -5.919467
v -5.865998 3.053329 -5.321468
v -5.732895 3.228524 -5.919467
v -5.732895 3.228524 -5.321468
v -5.565135 3.390962 -5.919467
v -5.565135 3.390962 -5.321468
v -5.140016 3.666726 -5.919467
v -5.366535 3.537879 -5.321468
v -5.140016 3.666726 -5.321468
v -4.619439 3.861653 -5.919467
v -4.889173 3.775235 -5.321468
v -4.525575 3.882295 -5.323220
v -4.038891 3.962582 -5.322793
v -4.333893 3.924443 -5.919467
v -1.435758 2.356534 -5.919467
v -1.435758 2.356534 -5.321468
v -6.041553 2.356534 -5.321468
v -6.038476 0.736000 -5.919467
v -6.038476 0.736000 -5.321895
v -1.438476 0.736000 -5.320772
v -1.438476 0.736000 -5.919467
v -2.750352 4.257448 -5.278141
v -2.442727 4.159025 -5.278141
v -2.153430 4.033557 -5.278141
v -1.885561 3.881396 -5.278141
v -1.646217 3.703517 -5.278141
v -1.437196 3.500897 -5.278141
v -5.594940 3.426136 -5.275468
v -6.498431 4.833594 -5.275468
v -5.391668 3.576500 -5.275468
v -5.160568 3.707942 -5.275468
v -4.905366 3.818360 -5.275468
v -4.700186 4.219400 -5.277489
v -4.717391 4.244926 -5.278096
v -3.737937 4.833594 -5.275468
v -4.404195 4.328279 -5.278141
v -1.289672 3.267561 -5.278028
v -5.767417 3.259138 -5.275468
v -5.904991 3.078047 -5.275468
v -1.514057 2.868307 -5.321468
v -1.471336 2.885849 -5.275468
v -1.455074 2.676670 -5.321468
v -1.409748 2.685789 -5.275468
v -1.435758 2.481709 -5.321468
v -6.041553 2.481709 -5.321468
v -6.066687 2.685879 -5.275468
v -6.021383 2.676659 -5.321468
v -5.962401 2.868307 -5.321468
v -6.005122 2.885849 -5.275468
v -5.865998 3.053329 -5.321468
v -5.904991 3.078047 -5.275468
v -5.565135 3.390962 -5.321468
v -5.594940 3.426136 -5.275468
v -5.366535 3.537879 -5.321468
v -5.391668 3.576500 -5.275468
v -5.140016 3.666726 -5.321468
v -5.160568 3.707942 -5.275468
v -4.889173 3.775235 -5.321468
v -4.905366 3.818360 -5.275468
v -4.525575 3.882295 -5.323220
v -4.533077 3.901027 -5.277220
v -1.435758 2.356534 -5.321468
v -1.389758 2.356501 -5.275468
v -6.041553 2.356534 -5.321468
v -6.087554 2.356501 -5.275468
v -1.392521 0.735978 -5.275468
v -1.438476 0.736000 -5.320772
v -6.083914 0.735978 -5.275468
v -6.038476 0.736000 -5.321895
v -1.610459 3.053329 -5.322793
v -1.571490 3.078081 -5.276793
v -5.732895 3.228524 -5.321468
v -5.767417 3.259138 -5.275468
v -6.066687 2.685879 -5.275468
v -8.000000 0.736000 -5.275468
v -8.000000 4.833594 -5.275468
v -1.471336 2.885849 -5.275468
v -1.571490 3.078081 -5.276793
v -1.300588 3.249986 -5.277489
v -0.485121 2.885849 -5.275468
v -3.337952 3.948835 -5.322793
v -3.738026 3.975350 -5.322793
v -3.334022 3.994700 -5.278118
v -3.738026 4.021384 -5.278118
v -3.107211 3.916828 -5.322793
v -3.337952 3.948835 -5.322793
v -3.104651 3.931675 -5.278096
v -3.337952 3.948835 -5.322793
v -3.334022 3.994700 -5.278118
v -3.104651 3.931675 -5.278096
v -3.107211 3.916828 -5.322793
v -3.104651 3.931675 -5.278096
v -2.857064 3.861653 -5.322793
v -2.850393 3.875612 -5.278096
v -2.579784 3.794169 -5.278096
v -2.502158 3.743284 -5.322793
v -2.493623 3.763982 -5.278096
v -2.321079 3.657966 -5.322793
v -2.309534 3.677350 -5.278096
v -2.140897 3.555701 -5.322793
v -2.115718 3.594312 -5.278118
v -2.140897 3.555701 -5.322793
v -2.115718 3.594312 -5.278118
v -1.997865 3.457637 -5.322793
v -1.969834 3.494102 -5.278118
v -1.702437 3.174034 -5.322389
v -1.846254 3.327555 -5.322793
v -1.667960 3.204671 -5.277714
v -1.816403 3.362695 -5.278118
v -4.038891 3.962582 -5.322793
v -4.525575 3.882295 -5.323220
v -4.337329 3.944085 -5.278096
v -4.533077 3.901027 -5.277220
v -4.038352 3.982729 -5.278096
v -1.702437 3.174034 -5.322389
v -1.667960 3.204671 -5.277714
v -1.610459 3.053329 -5.322793
v -1.571490 3.078081 -5.276793
v -4.337329 3.944085 -5.278096
v -4.533077 3.901027 -5.277220
v -4.700186 4.219400 -5.277489
v -4.038352 3.982729 -5.278096
v -4.070269 4.328650 -5.278141
v -3.738026 4.021384 -5.278118
v -3.738026 4.342755 -5.278141
v -3.334022 3.994700 -5.278118
v -3.306619 4.314903 -5.278141
v -3.104651 3.931675 -5.278096
v -3.334022 3.994700 -5.278118
v -3.044074 4.278775 -5.278141
v -3.306619 4.314903 -5.278141
v -2.850393 3.875612 -5.278096
v -3.104651 3.931675 -5.278096
v -2.761425 4.216413 -5.278141
v -3.044074 4.278775 -5.278141
v -2.579784 3.794169 -5.278096
v -2.362137 4.082590 -5.278141
v -2.493623 3.763982 -5.278096
v -2.309534 3.677350 -5.278096
v -2.157024 3.986806 -5.278141
v -2.115718 3.594312 -5.278118
v -1.940163 3.863607 -5.278141
v -2.115718 3.594312 -5.278118
v -1.940163 3.863607 -5.278141
v -1.969834 3.494102 -5.278118
v -1.774200 3.748461 -5.278141
v -1.667960 3.204671 -5.277714
v -1.816403 3.362695 -5.278118
v -1.427470 3.418173 -5.277736
v -1.608236 3.607710 -5.278141
v -1.667960 3.204671 -5.277714
v -1.427470 3.418173 -5.277736
v -1.571490 3.078081 -5.276793
v -1.300588 3.249986 -5.277489
v -1.300588 3.249986 -5.277489
v -1.427470 3.418173 -5.277736
v -1.289672 3.267561 -5.278028
v -1.437196 3.500897 -5.278141
v -1.608236 3.607710 -5.278141
v -1.646217 3.703517 -5.278141
v -1.885561 3.881396 -5.278141
v -1.774200 3.748461 -5.278141
v -2.157024 3.986806 -5.278141
v -2.153430 4.033557 -5.278141
v -1.940163 3.863607 -5.278141
v -2.362137 4.082590 -5.278141
v -2.442727 4.159025 -5.278141
v -2.761425 4.216413 -5.278141
v -2.750352 4.257448 -5.278141
v -3.044074 4.278775 -5.278141
v -3.071319 4.328257 -5.278141
v -3.306619 4.314903 -5.278141
v -3.402213 4.370977 -5.278141
v -3.738026 4.342755 -5.278141
v -3.738026 4.385240 -5.278141
v -4.070269 4.328650 -5.278141
v -4.073907 4.370977 -5.278141
v -4.700186 4.219400 -5.277489
v -4.404195 4.328279 -5.278141
v -4.717391 4.244926 -5.278096
v 1.781974 3.975350 -5.321468
v 1.790485 4.006694 -5.279331
v 2.155094 3.953249 -5.321468
v 2.166033 3.972801 -5.279331
v 2.155094 3.953249 -5.321468
v 2.166033 3.972801 -5.279331
v 2.378222 3.924443 -5.321468
v 2.393159 3.943478 -5.279331
v 2.662936 3.861653 -5.321468
v 2.677783 3.878162 -5.279331
v 2.933119 3.775257 -5.321468
v 2.959713 3.818371 -5.279331
v 3.183537 3.666692 -5.321468
v 3.214510 3.707919 -5.279331
v 3.410503 3.537879 -5.321468
v 3.446059 3.576489 -5.279331
v 3.608250 3.390962 -5.321468
v 3.641357 3.419745 -5.279331
v 3.802583 3.193643 -5.321468
v 3.831960 3.210522 -5.279331
v 4.016320 2.868307 -5.325331
v 4.031123 2.868116 -5.279331
v 4.088623 2.682622 -5.279331
v 4.079481 2.529843 -5.321468
v 4.103851 2.528945 -5.279331
v 0.900561 3.861653 -5.321468
v 0.888590 3.906115 -5.275468
v 1.054014 3.897456 -5.321468
v 1.048287 3.942310 -5.277130
v 1.254704 3.933315 -5.321468
v 1.255309 3.963974 -5.279331
v 1.481109 3.962582 -5.321468
v 1.485668 3.993757 -5.279331
v 1.481109 3.962582 -5.321468
v 1.485668 3.993757 -5.279331
v 1.781974 3.975350 -5.321468
v 1.790485 4.006694 -5.279331
v 4.079481 2.529843 -5.321468
v 4.103851 2.528945 -5.279331
v 4.101491 2.353648 -5.275468
v 3.919918 3.053329 -5.325331
v 3.930969 3.060348 -5.279331
v 3.802583 3.193643 -5.321468
v 3.831960 3.210522 -5.279331
v 3.919918 3.053329 -5.325331
v 3.930969 3.060348 -5.279331
v 0.888590 3.906115 -5.275468
v 0.829809 4.219591 -5.279241
v 1.048287 3.942310 -5.277130
v 0.990473 4.252249 -5.279286
v 1.255309 3.963974 -5.279331
v 1.202099 4.295284 -5.279376
v 1.485668 3.993757 -5.279331
v 1.460131 4.328650 -5.279376
v 1.485668 3.993757 -5.279331
v 1.460131 4.328650 -5.279376
v 1.790485 4.006694 -5.279331
v 1.792373 4.342755 -5.279376
v 2.166033 3.972801 -5.279331
v 1.790485 4.006694 -5.279331
v 2.196850 4.319317 -5.279376
v 1.792373 4.342755 -5.279376
v 2.166033 3.972801 -5.279331
v 2.196850 4.319317 -5.279376
v 2.393159 3.943478 -5.279331
v 2.451782 4.286401 -5.279376
v 2.677783 3.878162 -5.279331
v 2.768975 4.216413 -5.279376
v 2.959713 3.818371 -5.279331
v 3.072737 4.119246 -5.279376
v 3.214510 3.707919 -5.279331
v 3.357990 3.995532 -5.279376
v 3.446059 3.576489 -5.279331
v 3.621615 3.845785 -5.279376
v 3.641357 3.419745 -5.279331
v 3.856667 3.671117 -5.279376
v 3.831960 3.210522 -5.279331
v 4.087971 3.437781 -5.279376
v 3.930969 3.060348 -5.279331
v 3.831960 3.210522 -5.279331
v 4.230508 3.250435 -5.279376
v 4.087971 3.437781 -5.279376
v 4.031123 2.868116 -5.279331
v 3.930969 3.060348 -5.279331
v 4.356738 3.007936 -5.279376
v 4.230508 3.250435 -5.279376
v 4.088623 2.682622 -5.279331
v 4.436069 2.749545 -5.279376
v 4.103851 2.528945 -5.279331
v 4.456869 2.548429 -5.279376
v 4.101491 2.353648 -5.275468
v 4.103851 2.528945 -5.279331
v 4.461878 2.356748 -5.278388
v 4.456869 2.548429 -5.279376
v 4.456869 2.548429 -5.279376
v 4.504083 2.502452 -5.279376
v 4.461878 2.356748 -5.278388
v 4.504397 2.356872 -5.279376
v 4.436069 2.749545 -5.279376
v 4.477779 2.757968 -5.279376
v 4.356738 3.007936 -5.279376
v 4.396090 3.024074 -5.279376
v 4.230508 3.250435 -5.279376
v 4.266445 3.273221 -5.279376
v 4.087971 3.437781 -5.279376
v 4.093226 3.500897 -5.279376
v 3.856667 3.671117 -5.279376
v 3.884205 3.703517 -5.279376
v 3.621615 3.845785 -5.279376
v 3.644816 3.881396 -5.279376
v 3.357990 3.995532 -5.279376
v 3.376969 4.033557 -5.279376
v 3.072737 4.119246 -5.279376
v 3.087695 4.159025 -5.279376
v 2.768975 4.216413 -5.279376
v 2.780048 4.257448 -5.279376
v 2.451782 4.286401 -5.279376
v 2.459081 4.328257 -5.279376
v 2.196850 4.319317 -5.279376
v 2.128187 4.370977 -5.279376
v 1.792373 4.342755 -5.279376
v 1.792373 4.385240 -5.279376
v 1.460131 4.328650 -5.279376
v 1.456492 4.370977 -5.279376
v 1.202099 4.295284 -5.279376
v 1.126182 4.328279 -5.279376
v 0.990473 4.252249 -5.279286
v -3.402213 4.370977 -5.278141
v -3.071319 4.328257 -5.278141
v -3.738026 4.385240 -5.278141
v -4.073907 4.370977 -5.278141
v -4.533077 3.901027 -5.277220
v 2.128187 4.370977 -5.279376
v 1.782063 4.833594 -5.275468
v 2.459081 4.328257 -5.279376
v 1.792373 4.385240 -5.279376
v 1.456492 4.370977 -5.279376
v 1.126182 4.328279 -5.279376
v 8.000001 0.736000 -5.275468
v 4.127479 0.735978 -5.275468
v 4.504397 2.356872 -5.279376
v 4.101491 2.353648 -5.275468
v 4.461878 2.356748 -5.278388
v 0.888590 3.906115 -5.275468
v -1.846254 3.327555 -5.919467
v -1.997865 3.457637 -5.919467
v -1.846254 3.327555 -5.322793
v -1.997865 3.457637 -5.322793
v -1.969834 3.494102 -5.278118
v -1.816403 3.362695 -5.278118
v -1.997865 3.457637 -5.322793
v -1.846254 3.327555 -5.322793
v -1.774200 3.748461 -5.278141
v -1.608236 3.607710 -5.278141
v -1.969834 3.494102 -5.278118
v -1.816403 3.362695 -5.278118
v -2.321079 3.657966 -5.919467
v -2.502158 3.743284 -5.919467
v -2.321079 3.657966 -5.322793
v -2.502158 3.743284 -5.322793
v -2.502158 3.743284 -5.322793
v -2.493623 3.763982 -5.278096
v -2.321079 3.657966 -5.322793
v -2.309534 3.677350 -5.278096
v -2.362137 4.082590 -5.278141
v -2.157024 3.986806 -5.278141
v -2.493623 3.763982 -5.278096
v -2.309534 3.677350 -5.278096
v 1.254704 3.933315 -5.919467
v 1.054014 3.897456 -5.919467
v 1.254704 3.933315 -5.321468
v 1.054014 3.897456 -5.321468
v 1.054014 3.897456 -5.321468
v 1.048287 3.942310 -5.277130
v 1.254704 3.933315 -5.321468
v 1.255309 3.963974 -5.279331
v 0.990473 4.252249 -5.279286
v 1.202099 4.295284 -5.279376
v 1.048287 3.942310 -5.277130
v 1.255309 3.963974 -5.279331
v 0.829809 4.219591 -5.279241
v 0.820982 4.261390 -5.279376
v 8.000001 4.833594 -5.275468
v 4.504083 2.502452 -5.279376
v 4.477779 2.757968 -5.279376
v 4.396090 3.024074 -5.279376
v -6.087554 2.356501 -5.275468
v -6.083914 0.735978 -5.275468
v -6.005122 2.885849 -5.275468
vn -0.0000 -0.0000 -1.0000
vn 1.0000 -0.0000 -0.0000
vn -0.0000 -0.0000 1.0000
vn -1.0000 -0.0000 0.0002
vn 0.0921 0.9957 0.0002
vn 0.1646 0.9862 0.0159
vn 0.1704 0.9322 0.3192
vn 0.0941 0.6901 0.7176
vn 0.1861 0.6778 0.7113
vn 0.0001 -0.0000 1.0000
vn -0.0000 0.0019 1.0000
vn -0.0001 -0.0000 1.0000
vn 0.0137 0.9999 -0.0000
vn 0.0842 0.9965 -0.0000
vn 0.1765 0.9843 -0.0000
vn 0.0842 0.9964 -0.0000
vn 0.2133 0.9769 0.0117
vn 0.2586 0.9659 0.0098
vn 0.3506 0.9363 0.0176
vn 0.3511 0.9364 -0.0000
vn 0.4449 0.8955 0.0097
vn 0.5035 0.8639 0.0117
vn 0.5445 0.8388 -0.0000
vn 0.6605 0.7508 -0.0000
vn 0.6606 0.7508 -0.0000
vn 0.7349 0.6781 -0.0000
vn 0.7442 0.6679 0.0039
vn 0.7443 0.6678 0.0039
vn 0.8851 0.4643 0.0332
vn 0.8379 0.5424 0.0607
vn 0.9286 0.3683 0.0450
vn 0.8381 0.5422 0.0606
vn 0.8852 0.4640 0.0333
vn 0.9565 0.2902 0.0294
vn 0.9822 0.1843 0.0372
vn 0.9566 0.2899 0.0293
vn 0.9983 0.0587 -0.0000
vn 0.9822 0.1841 0.0372
vn -0.9799 0.1997 -0.0000
vn -0.9980 0.0627 -0.0000
vn -0.9980 0.0628 -0.0000
vn -1.0000 -0.0000 -0.0000
vn -0.9798 0.2000 -0.0000
vn -0.9251 0.3797 -0.0000
vn -0.9249 0.3803 -0.0000
vn -0.8434 0.5373 -0.0000
vn -0.8433 0.5375 -0.0000
vn -0.7471 0.6647 -0.0000
vn -0.7470 0.6648 -0.0000
vn -0.6447 0.7644 -0.0000
vn -0.6446 0.7645 -0.0000
vn -0.5280 0.8492 0.0093
vn -0.5601 0.8285 -0.0000
vn -0.4449 0.8955 0.0097
vn -0.3663 0.9304 0.0157
vn -0.3504 0.9366 -0.0000
vn -0.2743 0.9616 0.0039
vn -0.2411 0.9705 0.0078
vn -0.1980 0.9802 -0.0000
vn -0.1507 0.9886 -0.0000
vn -0.0784 0.9969 -0.0000
vn -0.0783 0.9969 -0.0000
vn 0.9997 -0.0000 0.0255
vn 0.9976 0.0040 0.0687
vn 0.9997 -0.0000 0.0256
vn 0.9322 -0.0019 0.3620
vn 0.7022 0.0098 0.7120
vn -1.0000 -0.0002 -0.0000
vn -0.0000 -0.0019 1.0000
vn -0.0000 -0.0059 1.0000
vn 0.0020 -0.0000 1.0000
vn 0.0020 0.0001 1.0000
vn -0.0000 0.0020 1.0000
vn -0.0020 -0.0037 1.0000
vn -0.0019 -0.0058 1.0000
vn 0.0002 -0.0117 0.9999
vn -0.0000 0.0059 1.0000
vn -0.0000 0.0060 1.0000
vn -0.0020 0.0077 1.0000
vn -0.0000 0.0078 1.0000
vn -0.0000 0.0073 1.0000
vn 0.0020 0.0079 1.0000
vn 0.0003 0.0063 1.0000
vn 0.0001 0.0022 1.0000
vn 0.0001 0.0020 1.0000
vn -0.0001 0.0019 1.0000
vn -0.0003 0.0019 1.0000
vn 0.0018 0.0019 1.0000
vn -0.0000 0.0025 1.0000
vn 0.0001 -0.0040 1.0000
vn -0.1961 0.6785 0.7079
vn -0.2469 0.6623 0.7074
vn -0.2471 0.6622 0.7074
vn -0.3137 0.6331 0.7076
vn -0.3136 0.6332 0.7076
vn -0.3848 0.5922 0.7079
vn -0.3842 0.5924 0.7081
vn -0.4551 0.5396 0.7083
vn -0.5272 0.4705 0.7076
vn -0.5273 0.4704 0.7076
vn -0.5945 0.3806 0.7083
vn -0.6523 0.2683 0.7089
vn -0.6523 0.2682 0.7089
vn -0.6902 0.1412 0.7098
vn -0.7016 0.1352 0.6996
vn -0.7609 0.0471 0.6472
vn -0.7100 -0.0000 0.7042
vn -0.7071 -0.0000 0.7071
vn -0.7149 0.0001 0.6992
vn 0.0921 0.9957 -0.0000
vn 0.0333 0.9983 0.0469
vn 0.0098 0.9999 0.0059
vn -0.1037 0.9943 0.0235
vn -0.1392 0.9903 0.0039
vn -0.2194 0.9755 0.0137
vn -0.2937 0.9559 0.0078
vn -0.3349 0.9400 0.0646
vn -0.4448 0.8954 0.0196
vn -0.4450 0.8955 -0.0000
vn -0.5447 0.8386 0.0098
vn -0.6275 0.7786 0.0098
vn -0.6626 0.7489 -0.0000
vn -0.8434 0.5374 -0.0000
vn -0.9729 0.2310 -0.0000
vn 0.0922 0.9957 -0.0000
vn 0.2078 0.9781 0.0118
vn 0.1647 0.9862 0.0157
vn 0.2723 0.9618 0.0273
vn 0.2079 0.9781 0.0118
vn 0.3466 0.9380 0.0098
vn 0.3744 0.9273 -0.0000
vn 0.4605 0.8877 -0.0000
vn 0.5268 0.8500 -0.0000
vn 0.5269 0.8500 -0.0000
vn 0.6112 0.7915 -0.0000
vn 0.6923 0.7216 -0.0000
vn 0.7580 0.6522 -0.0001
vn 0.7580 0.6522 -0.0000
vn 0.6923 0.7216 0.0001
vn 0.7580 0.6522 -0.0002
vn 0.8514 0.5245 -0.0000
vn 0.8522 0.5231 -0.0000
vn 0.9249 0.3802 -0.0000
vn 0.9251 0.3797 -0.0000
vn 0.9729 0.2310 -0.0000
vn 0.9730 0.2308 -0.0000
vn 1.0000 -0.0008 -0.0000
vn 1.0000 -0.0001 -0.0000
vn -1.0000 0.0099 -0.0000
vn -0.9730 0.2308 -0.0000
vn -0.0001 -0.0002 1.0000
vn -0.0000 0.0039 1.0000
vn -0.0000 0.0040 1.0000
vn -0.0000 0.0058 1.0000
vn -0.0000 0.0037 1.0000
vn -0.0000 0.0041 1.0000
vn -0.0003 0.0001 1.0000
vn -0.0020 -0.0019 1.0000
vn -0.0020 -0.0022 1.0000
vn -0.0000 -0.0020 1.0000
vn -0.0039 -0.0017 1.0000
vn -0.3348 0.9401 0.0645
vn -0.2195 0.9755 0.0139
vn -0.2333 0.8725 0.4294
vn -0.2099 0.6745 0.7078
vn -0.3135 0.6332 0.7076
vn -0.3847 0.5923 0.7080
vn -0.4553 0.5395 0.7083
vn -0.4552 0.5395 0.7083
vn -0.5945 0.3807 0.7083
vn -0.6901 0.1412 0.7098
vn -0.7609 0.0470 0.6472
vn -0.7101 -0.0000 0.7041
vn -0.7071 -0.0001 0.7071
vn -0.7150 0.0003 0.6991
vn -0.7149 -0.0000 0.6992
vn 0.7051 -0.0000 0.7091
vn 0.7061 -0.0000 0.7081
vn 0.7582 0.0431 0.6506
vn 0.7016 0.1352 0.6997
vn 0.6912 0.1410 0.7088
vn 0.6525 0.2665 0.7094
vn 0.6526 0.2664 0.7093
vn 0.6026 0.3671 0.7086
vn 0.6018 0.3666 0.7096
vn 0.0332 0.9984 0.0468
vn -0.0098 0.6962 0.7178
vn -0.0784 0.8959 0.4372
vn -0.1037 0.9943 0.0236
vn -0.1352 0.8250 0.5486
vn -0.2194 0.9755 0.0138
vn 0.1704 0.9323 0.3189
vn 0.1647 0.9862 0.0158
vn 0.2722 0.9618 0.0276
vn 0.2411 0.9157 0.3216
vn 0.2801 0.8424 0.4604
vn 0.3351 0.8252 0.4547
vn 0.3548 0.8212 0.4469
vn 0.3943 0.7808 0.4846
vn 0.4098 0.7940 0.4490
vn 0.3411 0.6254 0.7018
vn 0.3311 0.6133 0.7171
vn 0.3312 0.6132 0.7171
vn 0.4256 0.5511 0.7178
vn 0.4840 0.5015 0.7171
vn 0.5271 0.4527 0.7192
vn 0.5288 0.4544 0.7168
vn 0.4825 0.5020 0.7178
vn 0.5272 0.4527 0.7192
vn -0.0001 -0.0019 1.0000
vn -0.0038 -0.0029 1.0000
vn 0.0006 -0.0002 1.0000
vn -0.0000 -0.0001 1.0000
vn 0.0001 -0.0001 1.0000
vn -0.0001 -0.0001 1.0000
vn 0.0017 -0.0018 1.0000
vn 0.0002 -0.0018 1.0000
vn 0.0002 -0.0002 1.0000
vn 0.0001 -0.0023 1.0000
vn 0.0020 -0.0021 1.0000
vn -0.0000 -0.0039 1.0000
vn -0.0000 0.0001 1.0000
vn 0.0003 0.0005 1.0000
vn -0.0000 -0.0003 1.0000
vn -0.0020 -0.0020 1.0000
vn 0.0157 0.8057 0.5921
vn 0.0059 0.8016 0.5978
vn 0.0881 0.8894 0.4486
vn 0.0941 0.8936 0.4390
vn 0.0941 0.8936 0.4389
vn 0.0882 0.8894 0.4486
vn 0.1508 0.8799 0.4507
vn 0.1625 0.8778 0.4506
vn 0.1998 0.8053 0.5582
vn 0.1998 0.7898 0.5799
vn 0.2333 0.6586 0.7155
vn 0.2275 0.6767 0.7003
vn 0.2861 0.5702 0.7701
vn 0.2823 0.5743 0.7685
vn 0.3608 0.5393 0.7609
vn 0.3531 0.5414 0.7630
vn 0.4761 0.5172 0.7112
vn 0.4687 0.5177 0.7158
vn 0.6080 0.5218 0.5983
vn 0.5962 0.5197 0.6119
vn 0.9822 0.1843 0.0373
vn 0.8645 0.0529 0.4999
vn 0.8730 0.0470 0.4854
vn 0.8459 0.1820 0.5013
vn 0.8802 0.3724 0.2941
vn 0.9286 0.3683 0.0453
vn 0.8380 0.5423 0.0609
vn 0.7901 0.4900 0.3684
vn -0.1961 0.6788 0.7077
vn -0.1409 0.6872 0.7127
vn -0.1373 0.6965 0.7043
vn -0.0980 0.8057 0.5842
vn -0.1000 0.7939 0.5998
vn -0.0667 0.8059 0.5883
vn -0.0607 0.8053 0.5898
vn 0.8730 0.0469 0.4854
vn 0.9997 -0.0000 0.0257
vn 0.9321 -0.0020 0.3623
vn 0.7899 0.4902 0.3685
vn 0.6082 0.5217 0.5983
vn 0.5963 0.5197 0.6119
vn 0.8379 0.5424 0.0609
vn -0.0020 -0.0057 1.0000
vn -0.0000 -0.0118 0.9999
vn -0.0039 -0.0059 1.0000
vn -0.0039 -0.0000 1.0000
vn -0.0020 -0.0059 1.0000
vn -0.0059 -0.0020 1.0000
vn -0.0078 -0.0020 1.0000
vn 0.0020 0.0020 1.0000
vn -0.0000 0.0079 1.0000
vn -0.0020 0.0078 1.0000
vn -0.0059 -0.0019 1.0000
vn -0.0002 -0.0000 1.0000
vn 0.6112 0.7914 -0.0000
vn 0.6922 0.7217 -0.0000
vn 0.4824 0.5021 0.7178
vn 0.4839 0.5016 0.7171
vn 0.3466 0.9379 0.0098
vn 0.3352 0.8252 0.4547
vn -0.1410 0.6872 0.7127
vn -0.0001 -0.0058 1.0000
vn -0.0038 -0.0060 1.0000
vn 0.1704 0.9322 -0.3192
vn 0.1782 0.9837 -0.0237
vn 0.0921 0.9957 -0.0002
vn 0.1861 0.6781 -0.7110
vn 0.0941 0.6901 -0.7176
vn 0.0941 0.6901 -0.7175
vn 0.2134 0.9769 -0.0117
vn 0.2586 0.9659 -0.0099
vn 0.3508 0.9363 -0.0176
vn 0.3509 0.9364 -0.0000
vn 0.4449 0.8955 -0.0097
vn 0.5036 0.8639 -0.0117
vn 0.5447 0.8387 -0.0000
vn 0.7442 0.6679 -0.0039
vn 0.8390 0.5432 -0.0313
vn 0.8851 0.4643 -0.0333
vn 0.7443 0.6678 -0.0039
vn 0.8852 0.4641 -0.0333
vn 0.8392 0.5429 -0.0313
vn 0.9305 0.3644 -0.0372
vn 0.9565 0.2902 -0.0294
vn 0.9822 0.1843 -0.0373
vn 0.9566 0.2899 -0.0293
vn 0.9822 0.1843 -0.0372
vn -0.5448 0.8386 -0.0000
vn -0.5035 0.8639 -0.0117
vn -0.4449 0.8955 -0.0097
vn -0.3663 0.9304 -0.0157
vn -0.3510 0.9364 -0.0000
vn -0.2743 0.9616 -0.0039
vn -0.2411 0.9705 -0.0078
vn 0.9997 -0.0000 -0.0255
vn 0.9976 -0.0000 -0.0687
vn 0.9997 -0.0018 -0.0256
vn 0.9321 -0.0019 -0.3621
vn 0.7022 0.0098 -0.7120
vn -1.0000 0.0001 -0.0000
vn -0.0000 -0.0018 -1.0000
vn -0.0000 -0.0059 -1.0000
vn -0.0000 -0.0039 -1.0000
vn 0.0020 -0.0000 -1.0000
vn 0.0020 0.0001 -1.0000
vn 0.0001 0.0019 -1.0000
vn -0.0001 -0.0002 -1.0000
vn -0.0000 0.0001 -1.0000
vn -0.0000 0.0020 -1.0000
vn -0.0000 0.0040 -1.0000
vn -0.0001 0.0058 -1.0000
vn -0.0000 0.0037 -1.0000
vn -0.0001 0.0041 -1.0000
vn 0.0001 0.0036 -1.0000
vn -0.0003 0.0001 -1.0000
vn -0.0019 -0.0020 -1.0000
vn -0.0020 -0.0022 -1.0000
vn -0.0000 -0.0020 -1.0000
vn -0.0039 -0.0017 -1.0000
vn -0.0020 -0.0038 -1.0000
vn -0.0019 -0.0058 -1.0000
vn -0.0000 0.0059 -1.0000
vn -0.0000 0.0060 -1.0000
vn -0.0020 0.0078 -1.0000
vn 0.0001 0.0077 -1.0000
vn -0.0000 0.0081 -1.0000
vn -0.0000 0.0078 -1.0000
vn 0.0020 0.0080 -1.0000
vn -0.0000 0.0058 -1.0000
vn 0.0001 0.0020 -1.0000
vn -0.0001 0.0019 -1.0000
vn -0.0002 0.0019 -1.0000
vn 0.0018 0.0019 -1.0000
vn 0.0001 -0.0000 -1.0000
vn -0.0002 -0.0002 -1.0000
vn -0.0078 -0.0000 -1.0000
vn -0.0078 -0.0020 -1.0000
vn -0.0000 -0.0118 -0.9999
vn -0.2586 0.6581 -0.7071
vn -0.1961 0.6785 -0.7079
vn -0.3137 0.6331 -0.7076
vn -0.3136 0.6332 -0.7076
vn -0.3842 0.5924 -0.7082
vn -0.3844 0.5923 -0.7081
vn -0.4553 0.5395 -0.7083
vn -0.4551 0.5396 -0.7083
vn -0.5277 0.4690 -0.7083
vn -0.5273 0.4704 -0.7076
vn -0.5962 0.3783 -0.7081
vn -0.5962 0.3782 -0.7082
vn -0.6526 0.2681 -0.7087
vn -0.6523 0.2683 -0.7089
vn -0.6932 0.1586 -0.7030
vn -0.6856 0.1645 -0.7091
vn -0.7609 0.0471 -0.6472
vn -0.7130 -0.0000 -0.7012
vn -0.7110 -0.0000 -0.7032
vn -0.0137 0.9999 -0.0098
vn 0.0157 0.9974 -0.0705
vn -0.1037 0.9943 -0.0234
vn -0.1392 0.9903 -0.0039
vn -0.2194 0.9755 -0.0137
vn -0.2939 0.9558 -0.0078
vn -0.3373 0.9373 -0.0882
vn -0.4705 0.8823 -0.0157
vn -0.4448 0.8956 -0.0000
vn -0.5506 0.8347 -0.0138
vn -0.6146 0.7887 -0.0098
vn -0.6146 0.7888 -0.0098
vn -0.7475 0.6643 -0.0000
vn -0.9249 0.3801 -0.0000
vn -0.9798 0.1999 -0.0000
vn 0.1783 0.9837 -0.0235
vn 0.2272 0.9737 -0.0157
vn 0.2273 0.9737 -0.0157
vn 0.2723 0.9618 -0.0274
vn 0.3232 0.9462 -0.0137
vn 0.3548 0.9350 -0.0000
vn 0.7580 0.6522 0.0001
vn 0.6923 0.7216 -0.0001
vn 0.7580 0.6522 0.0002
vn 0.8522 0.5232 0.0001
vn 0.8513 0.5246 -0.0000
vn 0.9249 0.3803 -0.0000
vn 0.9248 0.3805 -0.0000
vn 0.9802 0.1981 -0.0000
vn 0.9802 0.1982 -0.0000
vn 0.9802 0.1978 -0.0000
vn 1.0000 -0.0005 -0.0000
vn -0.9971 0.0764 -0.0000
vn -1.0000 0.0098 -0.0001
vn -1.0000 0.0002 0.0001
vn -1.0000 -0.0001 -0.0000
vn -0.2333 0.8725 -0.4294
vn -0.2194 0.9755 -0.0139
vn -0.3372 0.9373 -0.0881
vn -0.2311 0.6681 -0.7073
vn -0.3138 0.6331 -0.7076
vn -0.3845 0.5923 -0.7080
vn -0.4554 0.5395 -0.7082
vn -0.4552 0.5395 -0.7083
vn -0.5276 0.4691 -0.7083
vn -0.5273 0.4703 -0.7076
vn -0.5962 0.3785 -0.7080
vn -0.5962 0.3787 -0.7079
vn -0.6525 0.2682 -0.7088
vn 0.7051 -0.0000 -0.7091
vn 0.7052 -0.0000 -0.7090
vn 0.7062 -0.0000 -0.7081
vn 0.7582 0.0431 -0.6505
vn 0.7016 0.1352 -0.6997
vn 0.6912 0.1410 -0.7088
vn 0.6529 0.2663 -0.7091
vn 0.6524 0.2665 -0.7094
vn 0.6026 0.3670 -0.7086
vn 0.6018 0.3665 -0.7096
vn 0.0157 0.9974 -0.0704
vn -0.0098 0.6962 -0.7178
vn -0.0784 0.8960 -0.4372
vn -0.1037 0.9943 -0.0237
vn -0.1352 0.8250 -0.5487
vn -0.2194 0.9755 -0.0138
vn 0.2722 0.9618 -0.0276
vn 0.1784 0.9837 -0.0237
vn 0.2411 0.9157 -0.3216
vn 0.2803 0.8424 -0.4602
vn 0.3351 0.8252 -0.4547
vn 0.3548 0.8215 -0.4464
vn 0.3410 0.6254 -0.7018
vn 0.4098 0.7940 -0.4490
vn 0.3943 0.7808 -0.4846
vn 0.3311 0.6133 -0.7171
vn 0.4255 0.5511 -0.7178
vn 0.3411 0.6254 -0.7018
vn 0.3312 0.6132 -0.7171
vn 0.4256 0.5511 -0.7178
vn 0.5288 0.4544 -0.7168
vn 0.5271 0.4527 -0.7192
vn 0.4840 0.5015 -0.7171
vn 0.4824 0.5021 -0.7178
vn 0.6018 0.3666 -0.7096
vn 0.5272 0.4527 -0.7192
vn 0.6026 0.3671 -0.7086
vn -0.0040 -0.0013 -1.0000
vn -0.0001 -0.0019 -1.0000
vn 0.0007 -0.0002 -1.0000
vn -0.0000 -0.0001 -1.0000
vn 0.0001 -0.0001 -1.0000
vn -0.0001 -0.0001 -1.0000
vn -0.0002 -0.0001 -1.0000
vn 0.0004 -0.0017 -1.0000
vn 0.0012 -0.0014 -1.0000
vn 0.0002 -0.0002 -1.0000
vn -0.0001 -0.0039 -1.0000
vn 0.0020 -0.0020 -1.0000
vn 0.0002 -0.0024 -1.0000
vn 0.0003 0.0005 -1.0000
vn -0.0000 0.0039 -1.0000
vn -0.0000 0.0041 -1.0000
vn -0.0000 -0.0003 -1.0000
vn -0.0020 -0.0020 -1.0000
vn 0.0881 0.8894 -0.4486
vn 0.0059 0.8016 -0.5978
vn 0.0158 0.8057 -0.5920
vn 0.0941 0.8936 -0.4390
vn 0.1508 0.8799 -0.4507
vn 0.0941 0.8936 -0.4389
vn 0.1627 0.8778 -0.4506
vn 0.2330 0.8737 -0.4270
vn 0.2332 0.8564 -0.4606
vn 0.1961 0.6332 -0.7487
vn 0.2034 0.6172 -0.7601
vn 0.2824 0.5740 -0.7686
vn 0.2859 0.5702 -0.7701
vn 0.3409 0.5309 -0.7758
vn 0.3505 0.5307 -0.7717
vn 0.4602 0.5131 -0.7246
vn 0.4744 0.5155 -0.7136
vn 0.5783 0.5215 -0.6274
vn 0.6024 0.5259 -0.6005
vn 0.8730 0.0470 -0.4854
vn 0.8645 0.0529 -0.4999
vn 0.9822 0.1844 -0.0372
vn 0.8459 0.1822 -0.5013
vn 0.8913 0.3368 -0.3036
vn 0.9305 0.3644 -0.0374
vn 0.8314 0.4843 -0.2725
vn 0.8391 0.5430 -0.0315
vn -0.1410 0.6872 -0.7127
vn -0.1373 0.6965 -0.7043
vn -0.0667 0.8059 -0.5883
vn -0.1000 0.7939 -0.5998
vn -0.0980 0.8057 -0.5842
vn -0.0607 0.8053 -0.5898
vn -0.0666 0.8059 -0.5883
vn 0.0157 0.8057 -0.5921
vn 0.9997 -0.0000 -0.0256
vn 0.8730 0.0469 -0.4854
vn 0.9321 -0.0020 -0.3623
vn 0.8391 0.5431 -0.0315
vn 0.6025 0.5259 -0.6004
vn -0.0039 -0.0059 -1.0000
vn -0.0020 -0.0059 -1.0000
vn -0.0001 -0.0058 -1.0000
vn -0.0039 -0.0000 -1.0000
vn -0.0001 -0.0000 -1.0000
vn -0.0020 -0.0079 -1.0000
vn -0.0076 -0.0020 -1.0000
vn -0.0002 -0.0019 -1.0000
vn 0.0020 0.0020 -1.0000
vn 0.0020 0.0079 -1.0000
vn -0.0000 0.0079 -1.0000
vn -0.0019 -0.0059 -1.0000
vn 0.4839 0.5016 -0.7171
vn 0.3234 0.9462 -0.0137
vn 0.3548 0.9349 -0.0000
vn 0.4098 0.7941 -0.4490
vn 0.3352 0.8252 -0.4547
vn 0.3548 0.8212 -0.4469
vn -0.1000 0.7938 -0.5999
vn -0.1374 0.6965 -0.7043
vn -0.0038 -0.0060 -1.0000
vt 1.324219 1.640625
vt 2.669922 1.641113
vt 2.669922 1.030655
vt 1.324219 1.030670
vt -0.078186 1.655762
vt 0.916504 1.655273
vt 0.916504 1.046906
vt -0.078186 1.046936
vt 1.270508 1.655273
vt 1.270508 1.046906
vt 1.085938 1.639648
vt 1.085938 1.030670
vt 0.040161 0.655518
vt 0.040161 0.671631
vt 0.037018 0.671631
vt 0.037018 0.655518
vt 1.599609 -0.752930
vt 1.601562 -0.774414
vt 1.873047 -0.573242
vt 1.591797 -0.731445
vt 1.580078 -0.709961
vt 0.065247 0.785522
vt 0.065247 0.812500
vt 0.024292 0.812500
vt 0.024292 0.785522
vt -0.157104 0.325684
vt -0.157104 0.343262
vt -0.199829 0.343262
vt -0.199829 0.325684
vt -0.157104 0.306641
vt -0.199829 0.285645
vt -0.157104 0.285645
vt -0.157104 0.265137
vt -0.199829 0.244141
vt -0.157104 0.244141
vt -0.157104 0.224121
vt -0.199829 0.224121
vt -0.157104 0.202637
vt -0.199829 0.202637
vt 0.256592 0.546387
vt 0.256592 0.562500
vt 0.211914 0.562500
vt 0.211914 0.546387
vt -0.157349 0.169434
vt -0.157349 0.187988
vt -0.203979 0.187988
vt -0.203979 0.151855
vt -0.157349 0.151855
vt -0.203979 0.139160
vt -0.157349 0.139160
vt 0.261719 0.037598
vt 0.230225 0.037598
vt 0.230225 0.024414
vt 0.261719 0.024414
vt 0.261719 0.016113
vt 0.230225 0.016113
vt 0.261719 0.048828
vt 0.230225 0.048828
vt 0.261719 0.060059
vt 0.230225 0.060059
vt 0.261719 0.067871
vt 0.230225 0.067871
vt 0.261719 0.077637
vt 0.230225 0.077637
vt 0.261719 0.089355
vt 0.230225 0.089355
vt 0.230225 0.102539
vt 0.261719 0.117188
vt 0.230225 0.117188
vt 0.230225 0.132812
vt 0.261719 0.142090
vt 0.230225 0.142090
vt -0.203369 0.406250
vt -0.203491 0.390137
vt -0.163696 0.390137
vt -0.163696 0.406250
vt 0.043213 0.733398
vt 0.043213 0.761108
vt -0.005383 0.761108
vt -0.005383 0.733398
vt 0.041565 0.687256
vt 0.092896 0.687256
vt 0.092896 0.702148
vt 0.041565 0.702148
vt 1.539062 -0.785156
vt 1.539062 -0.923828
vt 1.564453 -0.923828
vt 1.564453 -0.785156
vt 1.570312 -0.785156
vt 1.570312 -0.923828
vt 1.158203 -0.923828
vt 1.158203 -0.785156
vt 1.133789 -0.785156
vt 1.133789 -0.923828
vt 1.068359 -0.785156
vt 1.068359 -0.923828
vt 1.127930 -0.923828
vt 1.127930 -0.785156
vt 1.129883 -0.758789
vt 1.066406 -0.758789
vt 1.135742 -0.742188
vt 1.060547 -0.742188
vt 1.071289 -0.711914
vt 1.073242 -0.709961
vt 1.144531 -0.726562
vt 1.097656 -0.573242
vt 1.157227 -0.711914
vt 1.173828 -0.698242
vt 1.192383 -0.686523
vt 1.214844 -0.675781
vt 1.238281 -0.666016
vt 1.260742 -0.630859
vt 1.264648 -0.659180
vt 1.259766 -0.626953
vt 1.349609 -0.573242
vt 1.288086 -0.620117
vt 1.319336 -0.616211
vt 1.350586 -0.615234
vt 1.381836 -0.616211
vt 1.413086 -0.620117
vt 1.442383 -0.626953
vt 1.600586 -0.573242
vt 1.470703 -0.635742
vt 1.498047 -0.646484
vt 1.523438 -0.659180
vt 1.545898 -0.673828
vt 1.564453 -0.690430
vt 1.051758 -0.726562
vt 1.266602 -0.664062
vt 1.241211 -0.670898
vt 1.217773 -0.679688
vt 1.197266 -0.690430
vt 1.178711 -0.702148
vt 1.162109 -0.714844
vt 1.150391 -0.728516
vt 1.141602 -0.744141
vt 1.135742 -0.759766
vt 1.133789 -0.775391
vt -0.378418 0.342773
vt -0.339111 0.342773
vt -0.339111 0.373047
vt -0.378418 0.373047
vt -0.339111 0.391602
vt -0.378418 0.412109
vt -0.339111 0.426270
vt -0.378418 0.432129
vt -0.339111 0.448730
vt -0.378418 0.463867
vt -0.339111 0.463867
vt -0.339111 0.478027
vt -0.378418 0.489746
vt -0.339111 0.489746
vt -0.339111 0.500244
vt -0.378418 0.500244
vt -0.339111 0.508301
vt -0.378418 0.508301
vt -0.339111 0.519775
vt -0.378418 0.519775
vt -0.339111 0.531494
vt -0.378418 0.531494
vt 0.081970 0.655518
vt 0.081970 0.671631
vt -0.319580 0.199219
vt -0.319580 0.217285
vt -0.358887 0.217285
vt -0.358887 0.171387
vt -0.319580 0.171387
vt -0.319580 0.155762
vt -0.358887 0.155762
vt -0.359131 0.138672
vt -0.319580 0.138672
vt 0.056183 0.577148
vt 0.130249 0.577148
vt 0.130249 0.593994
vt 0.056335 0.593994
vt 0.091370 0.624268
vt 0.091370 0.640625
vt 0.038849 0.640625
vt 0.038849 0.624268
vt -0.319580 0.093262
vt -0.358887 0.093262
vt -0.358887 0.080566
vt -0.319580 0.080566
vt -0.319580 0.062500
vt -0.358887 0.062500
vt -0.358887 0.046387
vt -0.319580 0.046387
vt 1.065430 -0.776367
vt 1.063477 -0.759766
vt 1.036133 -0.758789
vt 1.036133 -0.774414
vt 1.036133 -0.785156
vt 1.065430 -0.787109
vt 1.036133 -0.923828
vt 1.065430 -0.923828
vt 0.655762 -0.774414
vt 0.655762 -0.758789
vt 0.630371 -0.759766
vt 0.628418 -0.776367
vt 0.628418 -0.787109
vt 0.655762 -0.923828
vt 0.628418 -0.923828
vt 1.060547 -0.690430
vt 1.041992 -0.673828
vt 1.019531 -0.659180
vt 0.994629 -0.645508
vt 0.967773 -0.634766
vt 0.938965 -0.626953
vt 0.847168 -0.573242
vt 0.909180 -0.620117
vt 0.877930 -0.616211
vt 0.846191 -0.615234
vt 0.815430 -0.616211
vt 0.785156 -0.620117
vt 0.595703 -0.573242
vt 0.755859 -0.627930
vt 0.736328 -0.666016
vt 0.712402 -0.675781
vt 0.690430 -0.686523
vt 0.671387 -0.698242
vt 0.655273 -0.711914
vt 0.642578 -0.726562
vt 0.633301 -0.742188
vt 0.437500 -0.573242
vt 0.627930 -0.758789
vt 0.437500 -0.923828
vt 0.625977 -0.785156
vt 0.625488 -0.923828
vt 0.757324 -0.630859
vt 0.770996 -0.657227
vt 0.737793 -0.668945
vt 0.771973 -0.660156
vt 0.713867 -0.678711
vt 0.692383 -0.689453
vt 0.673828 -0.701172
vt 0.657715 -0.714844
vt 0.645020 -0.729492
vt 0.636230 -0.744141
vt 1.057617 -0.744141
vt 1.048828 -0.729492
vt -0.334717 0.342773
vt -0.334961 0.373047
vt -0.334961 0.391602
vt -0.334961 0.412109
vt -0.334961 0.426270
vt -0.315186 0.217285
vt -0.315430 0.199219
vt -0.315430 0.178223
vt -0.315430 0.171387
vt -0.315186 0.155762
vt -0.315186 0.138672
vt 0.052979 0.577148
vt 0.053192 0.593994
vt 0.035248 0.640625
vt 0.035248 0.624268
vt -0.315430 0.093262
vt -0.315430 0.080566
vt -0.305664 0.433105
vt -0.305664 0.391602
vt -0.305664 0.373047
vt -0.305420 0.342773
vt 0.007275 0.671631
vt 0.007290 0.655518
vt -0.289551 0.199219
vt -0.289551 0.217773
vt -0.289551 0.171387
vt -0.289062 0.155762
vt -0.289062 0.138672
vt 0.023849 0.577148
vt 0.024216 0.593994
vt 0.006626 0.640625
vt 0.006626 0.624268
vt -0.297119 0.093750
vt -0.297119 0.080566
vt -0.365479 0.014648
vt -0.353271 0.014160
vt -0.353760 0.015137
vt -0.369629 0.016113
vt -0.380615 0.014648
vt -0.385742 0.016113
vt -0.392822 0.014648
vt -0.402100 0.016113
vt -0.403809 0.014648
vt -0.418457 0.016113
vt -0.417480 0.014648
vt -0.429443 0.014648
vt -0.434814 0.016113
vt -0.451172 0.016113
vt -0.451172 0.014160
vt -0.465576 0.014648
vt -0.467529 0.016113
vt -0.478760 0.014648
vt -0.483643 0.016113
vt -0.500000 0.014160
vt -0.500000 0.016113
vt -0.516602 0.016113
vt -0.516602 0.014160
vt -0.532715 0.016113
vt -0.548828 0.014160
vt -0.549805 0.015625
vt 0.023056 0.785645
vt 0.024094 0.812256
vt -0.154419 0.343262
vt -0.154419 0.325684
vt -0.154419 0.306641
vt -0.154419 0.285645
vt -0.154419 0.265137
vt -0.154419 0.244141
vt -0.154419 0.224121
vt -0.154419 0.202637
vt -0.155151 0.139160
vt -0.155151 0.151855
vt -0.155151 0.169434
vt -0.155151 0.187988
vt 0.226440 0.132812
vt 0.226440 0.142090
vt -0.160400 0.406250
vt -0.160400 0.390137
vt -0.006443 0.733398
vt -0.006443 0.760620
vt 0.037933 0.687256
vt 0.037933 0.702148
vt 0.210815 0.561768
vt 0.209595 0.547119
vt 0.208496 0.132812
vt 0.208496 0.142090
vt -0.132324 0.406250
vt -0.132324 0.390137
vt -0.039093 0.733398
vt -0.039093 0.761108
vt -0.006573 0.812500
vt -0.006546 0.785522
vt -0.134399 0.343262
vt -0.134399 0.325684
vt -0.134399 0.306641
vt -0.134399 0.285645
vt -0.134399 0.265137
vt -0.134399 0.244141
vt -0.134399 0.224121
vt -0.134399 0.202637
vt 0.181763 0.546387
vt 0.181763 0.562500
vt -0.135132 0.187988
vt -0.135132 0.169434
vt -0.135132 0.151855
vt -0.135010 0.139160
vt 0.006683 0.687256
vt 0.006683 0.702148
vt 0.981934 0.217285
vt 0.981934 0.218750
vt 0.966797 0.218750
vt 0.965332 0.217285
vt 0.951660 0.218750
vt 0.951660 0.217285
vt 0.936523 0.218750
vt 0.936523 0.217285
vt 0.921387 0.218750
vt 0.921387 0.217285
vt 0.908691 0.217773
vt 0.906250 0.218750
vt 0.891113 0.217285
vt 0.891113 0.218750
vt 0.875977 0.218750
vt 0.875977 0.217285
vt 0.860840 0.218750
vt 0.860840 0.217285
vt 0.845703 0.218750
vt 0.845703 0.217285
vt 0.830566 0.218750
vt 0.830566 0.217285
vt 0.815430 0.218750
vt 0.815430 0.217285
vt 0.803223 0.217773
vt 0.799805 0.218750
vt 0.784668 0.217285
vt 0.784668 0.218750
vt 0.769531 0.218750
vt 0.769531 0.217285
vt 0.757324 0.217285
vt 0.754395 0.218750
vt 0.747070 0.217285
vt 0.739258 0.218750
vt 0.739258 0.217285
vt 1.597656 -0.786133
vt 1.601562 -0.787109
vt 1.873047 -0.923828
vt -0.319580 0.124512
vt -0.358887 0.124512
vt -0.359131 0.108887
vt -0.319580 0.108887
vt -0.315430 0.108887
vt -0.315430 0.124512
vt -0.289307 0.108887
vt -0.289307 0.124512
vt -0.006927 0.546387
vt 0.046906 0.546387
vt 0.046906 0.562500
vt -0.006927 0.562500
vt -0.010880 0.546387
vt -0.010880 0.562500
vt -0.038269 0.562500
vt -0.038239 0.546387
vt -0.000154 0.467773
vt -0.000154 0.484375
vt -0.055634 0.484375
vt -0.055634 0.467773
vt -0.058563 0.467773
vt -0.057220 0.483887
vt -0.085022 0.484375
vt -0.085022 0.467773
s 1
f 3/1/1 1/2/1 2/3/1
f 2/3/1 4/4/1 3/1/1
f 7/5/2 5/6/2 6/7/2
f 6/7/2 8/8/2 7/5/2
f 11/6/3 9/9/3 10/10/3
f 10/10/3 12/7/3 11/6/3
f 15/11/4 13/1/4 14/4/4
f 14/4/4 16/12/4 15/11/4
f 271/13/5 269/14/6 270/15/7
f 274/16/8 272/13/8 273/15/9
f 553/17/3 548/18/3 552/19/3
f 555/20/3 553/17/10 554/19/10
f 112/21/11 555/20/12 556/19/3
f 19/22/13 17/23/14 18/24/14
f 18/24/14 20/25/13 19/22/13
f 22/26/15 24/27/16 23/28/16
f 23/28/16 21/29/17 22/26/15
f 26/30/18 22/26/15 21/29/17
f 21/29/17 25/31/19 26/30/18
f 27/32/20 26/30/18 25/31/19
f 29/33/21 27/32/20 25/31/19
f 25/31/19 28/34/22 29/33/21
f 30/35/23 29/33/21 28/34/22
f 32/36/24 30/35/23 28/34/22
f 28/34/22 31/37/25 32/36/24
f 34/38/26 32/36/24 31/37/25
f 31/37/25 33/39/27 34/38/26
f 37/40/28 35/41/29 36/42/30
f 36/42/30 38/43/26 37/40/28
f 39/44/31 40/45/32 41/46/33
f 41/46/33 43/47/34 39/44/31
f 42/48/35 39/44/31 43/47/34
f 46/47/36 44/49/37 45/50/37
f 45/50/37 47/48/38 46/47/36
f 49/51/39 51/52/39 50/53/40
f 48/54/41 49/51/39 50/53/40
f 82/55/42 48/54/41 50/53/40
f 50/53/40 83/56/42 82/55/42
f 54/52/43 52/51/43 53/57/44
f 55/58/45 54/52/43 53/57/44
f 53/57/44 56/59/46 55/58/45
f 57/60/47 55/58/45 56/59/46
f 56/59/46 58/61/48 57/60/47
f 59/62/49 57/60/47 58/61/48
f 58/61/48 60/63/50 59/62/49
f 61/64/51 59/62/49 60/63/50
f 60/63/50 62/65/52 61/64/51
f 63/66/53 61/64/51 62/65/52
f 65/67/54 63/66/53 62/65/52
f 62/65/52 64/68/55 65/67/54
f 66/69/56 65/67/54 64/68/55
f 68/70/57 66/69/56 64/68/55
f 64/68/55 67/71/58 68/70/57
f 69/72/59 68/70/57 67/71/58
f 72/73/60 70/74/61 71/75/61
f 71/75/61 73/76/60 72/73/60
f 76/77/62 74/78/13 75/79/13
f 75/79/13 77/80/62 76/77/62
f 80/81/37 78/82/37 79/83/2
f 79/83/2 81/84/63 80/81/37
f 85/85/2 87/86/2 86/87/64
f 84/88/65 85/85/2 86/87/64
f 134/89/66 84/88/65 86/87/64
f 86/87/64 135/90/67 134/89/66
f 90/91/42 88/92/42 89/93/68
f 89/93/68 91/94/42 90/91/42
f 101/95/3 110/96/3 111/97/3
f 111/97/3 99/98/3 101/95/3
f 99/98/3 100/99/3 101/95/3
f 102/100/3 101/95/3 100/99/3
f 100/99/3 264/101/3 102/100/3
f 261/102/69 102/100/3 264/101/3
f 262/103/70 261/102/69 264/101/3
f 221/104/71 262/103/70 264/101/3
f 264/101/3 114/105/72 221/104/71
f 105/106/73 221/104/71 114/105/72
f 114/105/72 113/107/3 105/106/73
f 113/107/3 103/108/3 105/106/73
f 103/108/3 104/109/3 105/106/73
f 104/109/3 106/110/3 105/106/73
f 106/110/3 107/111/74 105/106/73
f 109/112/75 105/106/73 107/111/74
f 107/111/74 508/113/76 109/112/75
f 105/106/73 109/112/75 108/114/77
f 499/115/78 105/106/73 108/114/77
f 108/114/77 502/116/79 499/115/78
f 502/116/79 501/117/80 499/115/78
f 501/117/80 500/118/81 499/115/78
f 500/118/81 497/119/80 499/115/78
f 497/119/80 498/120/82 499/115/78
f 498/120/82 92/121/83 499/115/78
f 94/122/84 499/115/78 92/121/83
f 92/121/83 93/123/85 94/122/84
f 93/123/85 95/124/86 94/122/84
f 95/124/86 96/125/85 94/122/84
f 96/125/85 97/126/87 94/122/84
f 97/126/87 98/127/88 94/122/84
f 98/127/88 112/21/11 94/122/84
f 557/19/89 94/122/84 112/21/11
f 263/128/90 261/102/69 262/103/70
f 130/129/91 131/113/91 129/111/92
f 128/130/93 130/129/91 129/111/92
f 126/131/94 128/130/93 129/111/92
f 129/111/92 127/110/95 126/131/94
f 122/132/96 126/131/94 127/110/95
f 127/110/95 123/109/97 122/132/96
f 124/133/98 122/132/96 123/109/97
f 123/109/97 125/108/98 124/133/98
f 138/134/99 124/133/98 125/108/98
f 125/108/98 139/107/100 138/134/99
f 120/135/101 138/134/99 139/107/100
f 139/107/100 121/105/101 120/135/101
f 118/136/102 120/135/101 121/105/101
f 121/105/101 119/101/103 118/136/102
f 116/137/104 118/136/102 119/101/103
f 119/101/103 117/99/105 116/137/104
f 115/138/106 116/137/104 117/99/105
f 117/99/105 133/98/107 115/138/106
f 132/93/108 115/138/106 133/98/107
f 133/98/107 137/97/109 132/93/108
f 136/94/109 132/93/108 137/97/109
f 141/139/110 143/140/110 142/141/111
f 140/142/112 141/139/110 142/141/111
f 142/141/111 197/143/113 140/142/112
f 198/144/114 140/142/112 197/143/113
f 197/143/113 196/145/115 198/144/114
f 194/146/116 198/144/114 196/145/115
f 196/145/115 195/147/117 194/146/116
f 191/148/118 194/146/116 195/147/117
f 195/147/117 193/149/119 191/148/118
f 193/149/119 192/150/120 191/148/118
f 189/151/121 191/148/118 192/150/120
f 192/150/120 190/152/122 189/151/121
f 190/152/122 188/153/48 189/151/121
f 187/154/48 189/151/121 188/153/48
f 188/153/48 186/155/46 187/154/48
f 185/156/123 187/154/48 186/155/46
f 186/155/46 184/157/44 185/156/123
f 182/158/45 185/156/123 184/157/44
f 184/157/44 183/159/124 182/158/45
f 181/160/124 182/158/45 183/159/124
f 146/13/110 144/161/125 145/162/126
f 145/162/126 147/14/127 146/13/110
f 149/163/128 151/164/127 150/165/129
f 150/165/129 148/166/130 149/163/128
f 152/167/131 149/163/128 148/166/130
f 155/168/132 153/169/132 154/170/133
f 154/170/133 156/171/133 155/168/132
f 159/172/134 157/173/133 158/174/135
f 158/174/135 160/175/135 159/172/134
f 163/176/136 161/177/137 162/178/138
f 162/178/138 164/179/139 163/176/136
f 167/180/140 165/181/138 166/182/141
f 168/183/142 167/180/140 166/182/141
f 170/184/143 168/183/142 166/182/141
f 166/182/141 169/185/144 170/184/143
f 169/185/144 171/186/145 170/184/143
f 172/187/145 170/184/143 171/186/145
f 174/188/37 176/189/146 175/190/146
f 175/190/146 173/191/37 174/188/37
f 173/191/37 199/192/147 174/188/37
f 200/193/148 174/188/37 199/192/147
f 199/192/147 204/194/2 200/193/148
f 203/195/2 200/193/148 204/194/2
f 179/196/149 177/197/150 178/198/150
f 178/198/150 180/199/41 179/196/149
f 180/199/41 201/200/42 179/196/149
f 202/201/42 179/196/149 201/200/42
f 201/200/42 205/202/42 202/201/42
f 211/203/3 221/104/71 105/106/73
f 210/204/3 211/203/3 105/106/73
f 209/205/151 210/204/3 105/106/73
f 208/206/3 209/205/151 105/106/73
f 207/207/85 208/206/3 105/106/73
f 206/208/152 207/207/85 105/106/73
f 105/106/73 220/209/153 206/208/152
f 493/210/154 206/208/152 220/209/153
f 492/211/153 493/210/154 220/209/153
f 494/212/155 492/211/153 220/209/153
f 495/213/156 494/212/155 220/209/153
f 219/214/155 495/213/156 220/209/153
f 220/209/153 214/215/157 219/214/155
f 218/216/158 219/214/155 214/215/157
f 216/217/159 218/216/158 214/215/157
f 215/218/3 216/217/159 214/215/157
f 213/219/3 215/218/3 214/215/157
f 212/220/3 213/219/3 214/215/157
f 222/221/3 212/220/3 214/215/157
f 223/222/3 222/221/3 214/215/157
f 551/223/3 223/222/3 214/215/157
f 214/215/157 259/224/3 551/223/3
f 258/225/3 551/223/3 259/224/3
f 259/224/3 260/226/3 258/225/3
f 550/227/3 258/225/3 260/226/3
f 260/226/3 549/228/3 550/227/3
f 217/229/160 218/216/158 216/217/159
f 216/217/159 496/230/161 217/229/160
f 242/231/162 244/232/163 245/230/164
f 245/230/164 243/217/165 242/231/162
f 240/233/166 242/231/162 243/217/165
f 243/217/165 241/218/95 240/233/166
f 236/234/167 240/233/166 241/218/95
f 241/218/95 237/219/167 236/234/167
f 238/235/168 236/234/167 237/219/167
f 237/219/167 239/220/169 238/235/168
f 256/236/100 238/235/168 239/220/169
f 239/220/169 257/221/99 256/236/100
f 234/237/170 256/236/100 257/221/99
f 257/221/99 235/222/170 234/237/170
f 232/238/103 234/237/170 235/222/170
f 235/222/170 233/223/103 232/238/103
f 230/198/171 232/238/103 233/223/103
f 233/223/103 231/225/105 230/198/171
f 229/199/172 230/198/171 231/225/105
f 231/225/105 249/227/173 229/199/172
f 248/200/174 229/199/172 249/227/173
f 249/227/173 253/228/175 248/200/174
f 252/202/176 248/200/174 253/228/175
f 246/193/177 251/195/177 250/96/177
f 250/96/177 247/95/178 246/193/177
f 228/188/179 246/193/177 247/95/178
f 247/95/178 227/100/180 228/188/179
f 225/189/181 228/188/179 227/100/180
f 227/100/180 226/102/182 225/189/181
f 224/239/183 225/189/181 226/102/182
f 226/102/182 255/128/184 224/239/183
f 254/240/185 224/239/183 255/128/184
f 267/141/186 265/140/8 266/241/8
f 266/241/8 268/242/187 267/141/186
f 268/242/187 298/243/188 267/141/186
f 294/143/189 267/141/186 298/243/188
f 298/243/188 295/244/190 294/143/189
f 296/145/191 294/143/189 295/244/190
f 295/244/190 297/245/164 296/145/191
f 277/246/192 275/164/193 276/163/194
f 278/247/195 277/246/192 276/163/194
f 279/248/196 278/247/195 276/163/194
f 276/163/194 280/167/197 279/248/196
f 281/249/198 279/248/196 280/167/197
f 284/250/199 282/168/200 283/171/201
f 283/171/201 285/251/202 284/250/199
f 288/252/203 286/172/201 287/175/204
f 287/175/204 289/253/204 288/252/203
f 292/179/205 290/178/206 291/254/207
f 291/254/207 293/255/208 292/179/205
f 301/256/207 299/180/209 300/183/185
f 300/183/185 302/257/184 301/256/207
f 304/258/210 305/245/211 303/244/12
f 307/259/212 304/258/210 303/244/12
f 303/244/12 306/243/213 307/259/212
f 306/243/213 308/242/213 307/259/212
f 309/260/213 307/259/212 308/242/213
f 311/261/213 309/260/213 308/242/213
f 308/242/213 310/241/213 311/261/213
f 314/16/213 312/15/214 313/262/213
f 313/262/213 315/263/213 314/16/213
f 317/264/213 319/265/213 318/246/213
f 318/246/213 316/247/213 317/264/213
f 316/247/213 320/248/213 317/264/213
f 321/266/213 317/264/213 320/248/213
f 320/248/213 322/249/213 321/266/213
f 325/267/215 323/250/215 324/251/215
f 324/251/215 326/268/213 325/267/215
f 329/269/213 327/252/213 328/253/213
f 328/253/213 330/270/213 329/269/213
f 333/255/3 331/254/216 332/271/217
f 332/271/217 334/272/218 333/255/3
f 337/273/219 335/256/220 336/257/221
f 336/257/221 338/274/70 337/273/219
f 341/275/160 339/276/70 340/277/71
f 340/277/71 342/278/222 341/275/160
f 343/279/223 341/275/160 342/278/222
f 342/278/222 344/280/3 343/279/223
f 346/281/3 343/279/223 344/280/3
f 344/280/3 345/282/3 346/281/3
f 348/283/3 346/281/3 345/282/3
f 345/282/3 349/284/3 348/283/3
f 347/285/3 348/283/3 349/284/3
f 351/286/3 347/285/3 349/284/3
f 349/284/3 350/287/73 351/286/3
f 350/287/73 353/288/152 351/286/3
f 352/289/3 351/286/3 353/288/152
f 354/290/3 352/289/3 353/288/152
f 353/288/152 355/291/77 354/290/3
f 356/292/3 354/290/3 355/291/77
f 355/291/77 357/293/152 356/292/3
f 358/294/3 356/292/3 357/293/152
f 357/293/152 359/295/152 358/294/3
f 359/295/152 361/296/156 358/294/3
f 360/297/224 358/294/3 361/296/156
f 361/296/156 363/298/152 360/297/224
f 362/299/160 360/297/224 363/298/152
f 363/298/152 364/300/225 362/299/160
f 367/301/226 365/25/227 366/24/228
f 366/24/228 368/302/229 367/301/226
f 371/303/230 369/27/231 370/26/232
f 372/304/233 371/303/230 370/26/232
f 370/26/232 373/30/234 372/304/233
f 374/305/235 372/304/233 373/30/234
f 375/306/236 374/305/235 373/30/234
f 373/30/234 376/32/237 375/306/236
f 377/307/238 375/306/236 376/32/237
f 376/32/237 378/33/239 377/307/238
f 379/308/240 377/307/238 378/33/239
f 378/33/239 380/35/241 379/308/240
f 381/309/242 379/308/240 380/35/241
f 380/35/241 382/36/243 381/309/242
f 383/310/244 381/309/242 382/36/243
f 382/36/243 384/38/245 383/310/244
f 47/48/246 388/50/247 389/311/248
f 389/311/248 387/312/249 47/48/246
f 387/312/249 386/313/250 47/48/246
f 385/44/251 47/48/246 386/313/250
f 406/45/252 385/44/251 386/313/250
f 386/313/250 405/314/253 406/45/252
f 392/315/254 390/70/91 391/72/255
f 391/72/255 393/316/256 392/315/254
f 396/317/257 394/76/258 395/75/259
f 395/75/259 397/318/260 396/317/257
f 400/319/260 398/80/259 399/79/227
f 399/79/227 401/320/226 400/319/260
f 403/321/261 402/81/247 81/84/262
f 81/84/262 404/322/263 403/321/261
f 409/323/264 407/324/265 408/43/266
f 408/43/266 410/42/267 409/323/264
f 413/325/268 411/315/269 412/316/270
f 412/316/270 414/326/70 413/325/268
f 417/327/213 415/317/271 416/318/213
f 416/318/213 418/328/213 417/327/213
f 421/329/213 419/319/213 420/320/213
f 420/320/213 422/330/213 421/329/213
f 425/301/213 423/302/213 424/331/213
f 424/331/213 426/332/213 425/301/213
f 429/333/213 427/303/213 428/304/213
f 430/334/213 429/333/213 428/304/213
f 432/335/213 430/334/213 428/304/213
f 428/304/213 431/305/213 432/335/213
f 433/336/213 432/335/213 431/305/213
f 431/305/213 434/306/213 433/336/213
f 435/337/215 433/336/213 434/306/213
f 434/306/213 436/307/215 435/337/215
f 437/338/215 435/337/215 436/307/215
f 436/307/215 438/308/215 437/338/215
f 438/308/215 439/309/215 437/338/215
f 440/339/215 437/338/215 439/309/215
f 439/309/215 441/310/215 440/339/215
f 442/340/215 440/339/215 441/310/215
f 445/341/215 443/324/215 444/323/215
f 444/323/215 446/342/215 445/341/215
f 449/343/215 447/314/215 448/313/12
f 450/344/12 449/343/215 448/313/12
f 448/313/12 451/312/12 450/344/12
f 452/345/12 450/344/12 451/312/12
f 451/312/12 453/311/272 452/345/12
f 454/346/70 452/345/12 453/311/272
f 457/347/70 455/321/272 456/322/273
f 456/322/273 458/348/274 457/347/70
f 460/349/274 462/350/3 461/351/3
f 459/352/70 460/349/274 461/351/3
f 461/351/3 464/353/3 459/352/70
f 463/354/3 459/352/70 464/353/3
f 464/353/3 466/355/3 463/354/3
f 465/356/3 463/354/3 466/355/3
f 466/355/3 468/357/73 465/356/3
f 467/358/3 465/356/3 468/357/73
f 469/359/3 467/358/3 468/357/73
f 468/357/73 470/360/275 469/359/3
f 471/361/3 469/359/3 470/360/275
f 470/360/275 472/362/73 471/361/3
f 472/362/73 474/363/73 471/361/3
f 473/364/3 471/361/3 474/363/73
f 474/363/73 476/365/73 473/364/3
f 475/366/3 473/364/3 476/365/73
f 476/365/73 478/367/73 475/366/3
f 477/368/3 475/366/3 478/367/73
f 478/367/73 480/369/77 477/368/3
f 479/370/3 477/368/3 480/369/77
f 480/369/77 482/371/82 479/370/3
f 481/372/3 479/370/3 482/371/82
f 483/373/3 481/372/3 482/371/82
f 482/371/82 484/374/276 483/373/3
f 485/375/3 483/373/3 484/374/276
f 484/374/276 486/376/276 485/375/3
f 486/376/276 488/377/276 485/375/3
f 487/378/3 485/375/3 488/377/276
f 489/379/215 487/378/3 488/377/276
f 488/377/276 490/380/277 489/379/215
f 491/381/70 489/379/215 490/380/277
f 490/380/277 546/382/77 491/381/70
f 545/383/272 491/381/70 546/382/77
f 506/384/274 507/89/278 505/90/160
f 504/385/3 506/384/274 505/90/160
f 505/90/160 503/386/3 504/385/3
f 503/386/3 547/19/279 504/385/3
f 548/18/3 504/385/3 547/19/279
f 511/387/280 509/388/280 510/389/281
f 510/389/281 512/390/281 511/387/280
f 515/391/282 513/392/204 514/387/204
f 514/387/204 516/390/283 515/391/282
f 519/393/215 517/394/215 518/392/213
f 518/392/213 520/391/213 519/393/215
f 523/395/131 521/396/284 522/397/132
f 522/397/132 524/398/132 523/395/131
f 527/399/198 525/395/285 526/398/200
f 526/398/200 528/400/199 527/399/198
f 531/401/215 529/402/213 530/399/215
f 530/399/215 532/400/215 531/401/215
f 535/403/58 533/404/60 534/405/60
f 534/405/60 536/406/59 535/403/58
f 539/407/256 537/406/286 538/405/258
f 538/405/258 540/408/257 539/407/256
f 543/409/213 541/410/287 542/407/288
f 542/407/288 544/408/271 543/409/213
f 812/15/289 810/14/290 811/13/291
f 815/15/292 813/13/293 814/16/294
f 560/24/14 558/23/14 559/22/13
f 559/22/13 561/25/13 560/24/14
f 563/28/16 565/27/16 564/26/15
f 562/29/295 563/28/16 564/26/15
f 564/26/15 567/30/296 562/29/295
f 566/31/297 562/29/295 567/30/296
f 567/30/296 568/32/298 566/31/297
f 568/32/298 570/33/299 566/31/297
f 569/34/300 566/31/297 570/33/299
f 570/33/299 571/35/301 569/34/300
f 571/35/301 573/36/24 569/34/300
f 572/37/25 569/34/300 573/36/24
f 573/36/24 575/38/26 572/37/25
f 574/39/302 572/37/25 575/38/26
f 578/42/303 576/41/304 577/40/305
f 577/40/305 579/43/26 578/42/303
f 581/46/306 582/45/307 580/44/308
f 584/47/309 581/46/306 580/44/308
f 580/44/308 583/48/310 584/47/309
f 587/50/37 585/49/37 586/47/311
f 586/47/311 588/48/312 587/50/37
f 591/52/39 589/51/39 590/54/41
f 592/53/41 591/52/39 590/54/41
f 623/56/42 592/53/41 590/54/41
f 590/54/41 624/55/42 623/56/42
f 594/51/43 596/52/43 595/58/44
f 593/57/44 594/51/43 595/58/44
f 595/58/44 598/60/46 593/57/44
f 597/59/47 593/57/44 598/60/46
f 598/60/46 600/62/48 597/59/47
f 599/61/49 597/59/47 600/62/48
f 600/62/48 602/64/50 599/61/49
f 601/63/51 599/61/49 602/64/50
f 602/64/50 604/66/313 601/63/51
f 603/65/314 601/63/51 604/66/313
f 604/66/313 606/67/315 603/65/314
f 605/68/316 603/65/314 606/67/315
f 606/67/315 607/69/317 605/68/316
f 607/69/317 609/70/318 605/68/316
f 608/71/319 605/68/316 609/70/318
f 609/70/318 610/72/59 608/71/319
f 613/75/61 611/74/61 612/73/60
f 612/73/60 614/76/60 613/75/61
f 617/79/13 615/78/13 616/77/62
f 616/77/62 618/80/62 617/79/13
f 621/83/2 619/82/37 620/81/37
f 620/81/37 622/84/320 621/83/2
f 626/87/321 628/86/2 627/85/2
f 627/85/2 625/88/322 626/87/321
f 625/88/322 675/89/323 626/87/321
f 676/90/324 626/87/321 675/89/323
f 631/93/325 629/92/68 630/91/42
f 630/91/42 632/94/325 631/93/325
f 652/97/1 651/96/1 641/95/1
f 640/98/1 652/97/1 641/95/1
f 642/99/1 640/98/1 641/95/1
f 641/95/1 643/100/1 642/99/1
f 805/101/1 642/99/1 643/100/1
f 643/100/1 802/102/326 805/101/1
f 804/103/327 805/101/1 802/102/326
f 802/102/326 803/128/328 804/103/327
f 805/101/1 804/103/327 762/104/329
f 655/105/330 805/101/1 762/104/329
f 645/106/331 655/105/330 762/104/329
f 762/104/329 752/203/1 645/106/331
f 752/203/1 751/204/1 645/106/331
f 751/204/1 750/205/332 645/106/331
f 750/205/332 749/206/333 645/106/331
f 749/206/333 748/207/334 645/106/331
f 748/207/334 747/208/335 645/106/331
f 760/209/335 645/106/331 747/208/335
f 747/208/335 1034/210/336 760/209/335
f 1034/210/336 1033/211/335 760/209/335
f 1033/211/335 1035/212/337 760/209/335
f 1035/212/337 1036/213/338 760/209/335
f 1036/213/338 761/214/339 760/209/335
f 754/215/340 760/209/335 761/214/339
f 761/214/339 759/216/341 754/215/340
f 757/217/342 754/215/340 759/216/341
f 759/216/341 758/229/343 757/217/342
f 1037/230/344 757/217/342 758/229/343
f 754/215/340 757/217/342 756/218/1
f 756/218/1 755/219/1 754/215/340
f 755/219/1 753/220/1 754/215/340
f 753/220/1 763/221/1 754/215/340
f 763/221/1 764/222/1 754/215/340
f 764/222/1 1094/223/1 754/215/340
f 801/224/1 754/215/340 1094/223/1
f 1094/223/1 799/225/1 801/224/1
f 800/226/1 801/224/1 799/225/1
f 799/225/1 1092/227/1 800/226/1
f 1093/228/1 800/226/1 1092/227/1
f 654/107/1 655/105/330 645/106/331
f 644/108/1 654/107/1 645/106/331
f 646/109/1 644/108/1 645/106/331
f 647/110/1 646/109/1 645/106/331
f 648/111/345 647/110/1 645/106/331
f 650/112/346 648/111/345 645/106/331
f 649/114/347 650/112/346 645/106/331
f 645/106/331 1039/115/348 649/114/347
f 1043/116/349 649/114/347 1039/115/348
f 1042/117/350 1043/116/349 1039/115/348
f 1041/118/351 1042/117/350 1039/115/348
f 1038/119/352 1041/118/351 1039/115/348
f 1040/120/353 1038/119/352 1039/115/348
f 633/121/354 1040/120/353 1039/115/348
f 1039/115/348 634/122/333 633/121/354
f 635/123/355 633/121/354 634/122/333
f 636/124/356 635/123/355 634/122/333
f 637/125/355 636/124/356 634/122/333
f 638/126/357 637/125/355 634/122/333
f 639/127/358 638/126/357 634/122/333
f 653/21/1 639/127/358 634/122/333
f 1089/18/359 653/21/1 634/122/333
f 1046/385/1 1089/18/359 634/122/333
f 634/122/333 1088/19/360 1046/385/1
f 1088/19/360 1044/386/1 1046/385/1
f 1044/386/1 1045/90/343 1046/385/1
f 1048/384/361 1046/385/1 1045/90/343
f 1045/90/343 1047/89/362 1048/384/361
f 653/21/1 1089/18/359 1090/17/1
f 1090/17/1 1091/20/1 653/21/1
f 1049/113/363 648/111/345 650/112/346
f 670/111/364 672/113/365 671/129/365
f 671/129/365 669/130/364 670/111/364
f 668/110/366 670/111/364 669/130/364
f 669/130/364 667/131/367 668/110/366
f 666/109/368 668/110/366 667/131/367
f 667/131/367 665/132/369 666/109/368
f 664/108/370 666/109/368 665/132/369
f 665/132/369 663/133/371 664/108/370
f 680/107/372 664/108/370 663/133/371
f 663/133/371 679/134/373 680/107/372
f 662/105/374 680/107/372 679/134/373
f 679/134/373 661/135/375 662/105/374
f 660/101/376 662/105/374 661/135/375
f 661/135/375 659/136/377 660/101/376
f 657/99/378 660/101/376 659/136/377
f 659/136/377 658/137/379 657/99/378
f 658/137/379 656/138/380 657/99/378
f 674/98/381 657/99/378 656/138/380
f 656/138/380 673/93/382 674/98/381
f 673/93/382 678/94/382 674/98/381
f 677/97/382 674/98/381 678/94/382
f 683/140/110 681/139/110 682/142/383
f 684/141/384 683/140/110 682/142/383
f 738/143/385 684/141/384 682/142/383
f 682/142/383 739/144/386 738/143/385
f 737/145/387 738/143/385 739/144/386
f 739/144/386 735/146/388 737/145/387
f 736/147/389 737/145/387 735/146/388
f 735/146/388 732/148/390 736/147/389
f 734/149/391 736/147/389 732/148/390
f 733/150/392 734/149/391 732/148/390
f 731/152/393 733/150/392 732/148/390
f 732/148/390 730/151/394 731/152/393
f 729/153/395 731/152/393 730/151/394
f 730/151/394 728/154/48 729/153/395
f 727/155/123 729/153/395 728/154/48
f 728/154/48 726/156/123 727/155/123
f 725/157/396 727/155/123 726/156/123
f 726/156/123 724/158/396 725/157/396
f 723/159/397 725/157/396 724/158/396
f 724/158/396 722/160/43 723/159/397
f 687/14/398 685/162/399 686/161/125
f 686/161/125 688/13/125 687/14/398
f 690/165/400 692/164/398 691/163/401
f 689/166/402 690/165/400 691/163/401
f 691/163/401 693/167/403 689/166/402
f 696/171/133 694/170/133 695/169/132
f 695/169/132 697/168/132 696/171/133
f 700/175/135 698/174/135 699/173/133
f 699/173/133 701/172/133 700/175/135
f 704/179/136 702/178/404 703/177/138
f 703/177/138 705/176/405 704/179/136
f 707/181/406 709/180/138 708/183/407
f 706/182/408 707/181/406 708/183/407
f 711/185/409 706/182/408 708/183/407
f 708/183/407 710/184/410 711/185/409
f 710/184/410 713/187/411 711/185/409
f 712/186/412 711/185/409 713/187/411
f 715/190/413 717/189/413 716/188/37
f 714/191/37 715/190/413 716/188/37
f 740/192/414 714/191/37 716/188/37
f 716/188/37 741/193/148 740/192/414
f 741/193/148 745/195/2 740/192/414
f 746/194/2 740/192/414 745/195/2
f 719/199/415 721/198/39 720/197/39
f 720/197/39 718/196/416 719/199/415
f 742/200/417 719/199/415 718/196/416
f 744/202/418 742/200/417 718/196/416
f 718/196/416 743/201/325 744/202/418
f 786/230/419 785/232/420 783/231/421
f 784/217/422 786/230/419 783/231/421
f 782/218/366 784/217/422 783/231/421
f 783/231/421 781/233/423 782/218/366
f 780/219/424 782/218/366 781/233/423
f 781/233/423 779/234/424 780/219/424
f 778/220/425 780/219/424 779/234/424
f 779/234/424 777/235/426 778/220/425
f 798/221/427 778/220/425 777/235/426
f 777/235/426 797/236/428 798/221/427
f 776/222/429 798/221/427 797/236/428
f 797/236/428 775/237/430 776/222/429
f 774/223/377 776/222/429 775/237/430
f 775/237/430 773/238/431 774/223/377
f 771/225/378 774/223/377 773/238/431
f 773/238/431 772/198/379 771/225/378
f 772/198/379 770/199/380 771/225/378
f 790/227/381 771/225/378 770/199/380
f 770/199/380 789/200/382 790/227/381
f 789/200/382 794/202/382 790/227/381
f 793/228/382 790/227/381 794/202/382
f 791/96/432 792/195/433 787/193/432
f 788/95/434 791/96/432 787/193/432
f 787/193/432 769/188/435 788/95/434
f 768/100/436 788/95/434 769/188/435
f 769/188/435 767/189/437 768/100/436
f 766/102/438 768/100/436 767/189/437
f 767/189/437 765/239/439 766/102/438
f 796/128/440 766/102/438 765/239/439
f 765/239/439 795/240/441 796/128/440
f 808/241/293 806/140/293 807/141/442
f 809/242/443 808/241/293 807/141/442
f 839/243/444 809/242/443 807/141/442
f 807/141/442 835/143/445 839/243/444
f 837/244/446 839/243/444 835/143/445
f 835/143/445 836/145/447 837/244/446
f 838/245/419 837/244/446 836/145/447
f 818/163/448 816/164/449 817/246/289
f 817/246/289 819/247/450 818/163/448
f 819/247/450 820/248/451 818/163/448
f 821/167/452 818/163/448 820/248/451
f 820/248/451 822/249/453 821/167/452
f 825/171/454 823/168/455 824/250/456
f 824/250/456 826/251/457 825/171/454
f 829/175/458 827/172/459 828/252/460
f 828/252/460 830/253/461 829/175/458
f 833/254/462 831/178/463 832/179/464
f 832/179/464 834/255/465 833/254/462
f 842/183/466 840/180/467 841/256/462
f 841/256/462 843/257/468 842/183/466
f 844/244/359 845/245/469 846/258/470
f 846/258/470 848/259/471 844/244/359
f 847/243/472 844/244/359 848/259/471
f 849/242/472 847/243/472 848/259/471
f 848/259/471 850/260/472 849/242/472
f 850/260/472 852/261/472 849/242/472
f 851/241/472 849/242/472 852/261/472
f 855/262/472 853/15/473 854/16/472
f 854/16/472 856/263/472 855/262/472
f 858/246/472 860/265/472 859/264/472
f 857/247/472 858/246/472 859/264/472
f 861/248/472 857/247/472 859/264/472
f 859/264/472 862/266/472 861/248/472
f 863/249/472 861/248/472 862/266/472
f 866/251/474 864/250/475 865/267/474
f 865/267/474 867/268/472 866/251/474
f 870/253/472 868/252/472 869/269/472
f 869/269/472 871/270/472 870/253/472
f 874/271/476 872/254/477 873/255/1
f 873/255/1 875/272/478 874/271/476
f 878/257/479 876/256/480 877/273/481
f 877/273/481 879/274/327 878/257/479
f 882/277/329 880/276/327 881/275/343
f 883/278/1 882/277/329 881/275/343
f 881/275/343 884/279/482 883/278/1
f 885/280/1 883/278/1 884/279/482
f 884/279/482 887/281/1 885/280/1
f 886/282/1 885/280/1 887/281/1
f 887/281/1 890/283/1 886/282/1
f 889/284/1 886/282/1 890/283/1
f 890/283/1 888/285/1 889/284/1
f 888/285/1 891/286/1 889/284/1
f 892/287/334 889/284/1 891/286/1
f 894/288/483 892/287/334 891/286/1
f 891/286/1 893/289/1 894/288/483
f 893/289/1 895/290/1 894/288/483
f 896/291/347 894/288/483 895/290/1
f 895/290/1 897/292/1 896/291/347
f 898/293/483 896/291/347 897/292/1
f 897/292/1 899/294/1 898/293/483
f 900/295/483 898/293/483 899/294/1
f 902/296/484 900/295/483 899/294/1
f 899/294/1 901/297/485 902/296/484
f 904/298/483 902/296/484 901/297/485
f 901/297/485 903/299/343 904/298/483
f 905/300/486 904/298/483 903/299/343
f 908/24/487 906/25/488 907/301/489
f 907/301/489 909/302/490 908/24/487
f 912/26/491 910/27/487 911/303/492
f 911/303/492 913/304/493 912/26/491
f 914/30/494 912/26/491 913/304/493
f 913/304/493 915/305/495 914/30/494
f 916/32/496 914/30/494 915/305/495
f 915/305/495 917/306/497 916/32/496
f 918/33/498 916/32/496 917/306/497
f 917/306/497 919/307/499 918/33/498
f 920/35/500 918/33/498 919/307/499
f 919/307/499 921/308/501 920/35/500
f 922/36/502 920/35/500 921/308/501
f 921/308/501 923/309/503 922/36/502
f 924/38/504 922/36/502 923/309/503
f 923/309/503 925/310/505 924/38/504
f 930/311/506 929/50/507 588/48/508
f 928/312/509 930/311/506 588/48/508
f 927/313/510 928/312/509 588/48/508
f 588/48/508 926/44/511 927/313/510
f 947/314/512 927/313/510 926/44/511
f 926/44/511 946/45/513 947/314/512
f 933/72/514 931/70/365 932/315/365
f 932/315/365 934/316/515 933/72/514
f 937/75/516 935/76/517 936/317/518
f 936/317/518 938/318/519 937/75/516
f 941/79/488 939/80/520 940/319/519
f 940/319/519 942/320/521 941/79/488
f 622/84/522 943/81/507 944/321/523
f 944/321/523 945/322/524 622/84/522
f 950/42/525 948/43/504 949/324/526
f 949/324/526 951/323/512 950/42/525
f 954/316/527 952/315/363 953/325/528
f 953/325/528 955/326/529 954/316/527
f 958/318/472 956/317/530 957/327/472
f 957/327/472 959/328/472 958/318/472
f 962/320/472 960/319/472 961/329/472
f 961/329/472 963/330/472 962/320/472
f 966/331/472 964/302/472 965/301/472
f 965/301/472 967/332/472 966/331/472
f 970/304/472 968/303/472 969/333/472
f 969/333/472 971/334/472 970/304/472
f 971/334/472 973/335/472 970/304/472
f 972/305/472 970/304/472 973/335/472
f 974/306/472 972/305/472 973/335/472
f 973/335/472 975/336/474 974/306/472
f 976/307/474 974/306/472 975/336/474
f 975/336/474 977/337/474 976/307/474
f 978/308/474 976/307/474 977/337/474
f 977/337/474 979/338/474 978/308/474
f 979/338/474 981/339/474 978/308/474
f 980/309/474 978/308/474 981/339/474
f 981/339/474 983/340/474 980/309/474
f 982/310/474 980/309/474 983/340/474
f 986/342/474 984/323/474 985/324/474
f 985/324/474 987/341/474 986/342/474
f 989/314/474 991/343/474 990/344/531
f 988/313/531 989/314/474 990/344/531
f 992/312/531 988/313/531 990/344/531
f 990/344/531 993/345/531 992/312/531
f 993/345/531 995/346/343 992/312/531
f 994/311/532 992/312/531 995/346/343
f 998/348/361 996/322/533 997/321/532
f 997/321/532 999/347/343 998/348/361
f 1001/351/1 1003/350/1 1002/349/361
f 1002/349/361 1000/352/534 1001/351/1
f 1005/353/1 1001/351/1 1000/352/534
f 1000/352/534 1004/354/1 1005/353/1
f 1007/355/1 1005/353/1 1004/354/1
f 1004/354/1 1006/356/1 1007/355/1
f 1009/357/1 1007/355/1 1006/356/1
f 1006/356/1 1008/358/1 1009/357/1
f 1008/358/1 1010/359/1 1009/357/1
f 1011/360/535 1009/357/1 1010/359/1
f 1010/359/1 1012/361/1 1011/360/535
f 1013/362/334 1011/360/535 1012/361/1
f 1015/363/334 1013/362/334 1012/361/1
f 1012/361/1 1014/364/1 1015/363/334
f 1017/365/334 1015/363/334 1014/364/1
f 1014/364/1 1016/366/1 1017/365/334
f 1019/367/334 1017/365/334 1016/366/1
f 1016/366/1 1018/368/1 1019/367/334
f 1021/369/347 1019/367/334 1018/368/1
f 1018/368/1 1020/370/1 1021/369/347
f 1023/371/536 1021/369/347 1020/370/1
f 1020/370/1 1022/372/1 1023/371/536
f 1022/372/1 1024/373/1 1023/371/536
f 1025/374/537 1023/371/536 1024/373/1
f 1024/373/1 1026/375/1 1025/374/537
f 1027/376/537 1025/374/537 1026/375/1
f 1029/377/537 1027/376/537 1026/375/1
f 1026/375/1 1028/378/1 1029/377/537
f 1028/378/1 1030/379/474 1029/377/537
f 1031/380/349 1029/377/537 1030/379/474
f 1030/379/474 1032/381/327 1031/380/349
f 1087/382/347 1031/380/349 1032/381/327
f 1032/381/327 1086/383/538 1087/382/347
f 1052/390/281 1050/389/281 1051/388/280
f 1051/388/280 1053/387/280 1052/390/281
f 1056/387/461 1054/392/461 1055/391/465
f 1055/391/465 1057/390/539 1056/387/461
f 1060/392/472 1058/394/472 1059/393/472
f 1059/393/472 1061/391/472 1060/392/472
f 1064/398/132 1062/397/132 1063/396/540
f 1063/396/540 1065/395/541 1064/398/132
f 1068/398/542 1066/395/543 1067/399/544
f 1067/399/544 1069/400/456 1068/398/542
f 1072/399/474 1070/402/474 1071/401/474
f 1071/401/474 1073/400/474 1072/399/474
f 1076/405/60 1074/404/60 1075/403/319
f 1075/403/319 1077/406/59 1076/405/60
f 1080/405/545 1078/406/514 1079/407/546
f 1079/407/546 1081/408/518 1080/405/545
f 1084/407/547 1082/410/327 1083/409/1
f 1083/409/1 1085/408/530 1084/407/547
