# Blender 4.5.3 LTS
# www.blender.org
o w9a02_metal154
v -0.266596 -0.004194 16.538372
v -0.150540 -0.004194 16.422308
v -0.266596 0.133864 16.538372
v -0.150540 0.133864 16.422308
v -0.150540 -0.004194 16.422308
v 0.571446 -0.004194 16.422308
v -0.150540 0.133864 16.422308
v 0.571446 0.133864 16.422308
v 0.571446 -0.004194 16.422308
v 0.687514 -0.004194 16.538372
v 0.571446 0.133864 16.422308
v 0.687514 0.133864 16.538372
v 0.687514 -0.004194 16.538372
v 0.687514 -0.004194 16.943459
v 0.687514 0.133864 16.538372
v 0.687514 0.133864 16.943459
v -0.266596 -0.004194 16.943459
v -0.266596 -0.004194 16.538372
v -0.266596 0.133864 16.943459
v -0.266596 0.133864 16.538372
v -0.150540 -0.004194 16.422308
v -0.266596 -0.004194 16.538372
v 0.571446 -0.004194 16.422308
v 0.687514 -0.004194 16.538372
v -0.266596 -0.004194 16.943459
v 0.687514 -0.004194 16.943459
v -0.234416 0.279325 16.941675
v -0.234416 0.279325 16.573557
v -0.234416 0.567901 16.941675
v -0.234416 0.567901 16.573557
v -0.126189 0.279325 16.468084
v -0.126183 0.567901 16.468084
v -0.234416 0.279325 16.573557
v -0.234416 0.567901 16.573557
v 0.547097 0.279325 16.468084
v 0.547097 0.567901 16.468084
v -0.126189 0.279325 16.468084
v -0.126183 0.567901 16.468084
v 0.655336 0.279325 16.573557
v 0.655336 0.567901 16.573557
v 0.547097 0.279325 16.468084
v 0.547097 0.567901 16.468084
v 0.655336 0.279325 16.941675
v 0.655336 0.567901 16.941675
v 0.655336 0.279325 16.573557
v 0.655336 0.567901 16.573557
v 0.673157 0.852762 16.551250
v 0.560588 0.852762 16.438847
v 0.687514 0.833952 16.538372
v 0.571452 0.833952 16.422308
v 0.560588 0.852762 16.438847
v -0.139669 0.852762 16.438847
v 0.571452 0.833952 16.422308
v -0.150534 0.833952 16.422308
v -0.139669 0.852762 16.438847
v -0.252238 0.852762 16.551250
v -0.150534 0.833952 16.422308
v -0.266596 0.833952 16.538372
v -0.252238 0.852762 16.551250
v -0.252238 0.852762 16.943563
v -0.266596 0.833952 16.538372
v -0.266596 0.833952 16.943459
v 0.673157 0.852762 16.943563
v 0.673157 0.852762 16.551250
v 0.687514 0.833952 16.943459
v 0.687514 0.833952 16.538372
v 0.560588 0.852762 16.438847
v 0.673157 0.852762 16.551250
v -0.139669 0.852762 16.438847
v -0.252238 0.852762 16.551250
v 0.673157 0.852762 16.943563
v -0.252238 0.852762 16.943563
v -0.266596 0.214439 16.943459
v -0.266596 0.214439 16.538372
v -0.150540 0.133864 16.422308
v -0.150540 0.214439 16.422308
v -0.266596 0.133864 16.538372
v -0.266596 0.214439 16.538372
v 0.571446 0.214439 16.422308
v -0.150540 0.133864 16.422308
v -0.150540 0.214439 16.422308
v 0.687514 0.133864 16.538372
v 0.687514 0.214439 16.538372
v 0.571446 0.133864 16.422308
v 0.571446 0.214439 16.422308
v 0.687514 0.133864 16.943459
v 0.687514 0.214439 16.943459
v 0.687514 0.133864 16.538372
v 0.687514 0.214439 16.538372
v 0.687514 0.712836 16.943459
v 0.687514 0.712836 16.538372
v 0.687514 0.634810 16.943459
v 0.687514 0.634810 16.538372
v 0.571450 0.712836 16.422308
v 0.571448 0.634810 16.422308
v 0.687514 0.712836 16.538372
v 0.687514 0.634810 16.538372
v -0.150534 0.712836 16.422308
v -0.150534 0.634810 16.422308
v 0.571450 0.712836 16.422308
v 0.571448 0.634810 16.422308
v -0.266596 0.712836 16.538372
v -0.266596 0.634810 16.538372
v -0.150534 0.712836 16.422308
v -0.150534 0.634810 16.422308
v -0.266596 0.712836 16.943459
v -0.266596 0.634810 16.943459
v -0.266596 0.712836 16.538372
v -0.266596 0.634810 16.538372
v -0.266596 0.214439 16.943459
v -0.266596 0.214439 16.538372
v -0.234416 0.279325 16.941675
v -0.234416 0.279325 16.573557
v -0.150540 0.214439 16.422308
v -0.126189 0.279325 16.468084
v -0.266596 0.214439 16.538372
v -0.234416 0.279325 16.573557
v 0.571446 0.214439 16.422308
v 0.547097 0.279325 16.468084
v -0.150540 0.214439 16.422308
v -0.126189 0.279325 16.468084
v 0.687514 0.214439 16.538372
v 0.655336 0.279325 16.573557
v 0.571446 0.214439 16.422308
v 0.547097 0.279325 16.468084
v 0.687514 0.214439 16.943459
v 0.655336 0.279325 16.941675
v 0.687514 0.214439 16.538372
v 0.655336 0.279325 16.573557
v 0.687514 0.634810 16.943459
v 0.687514 0.634810 16.538372
v 0.655336 0.567901 16.941675
v 0.655336 0.567901 16.573557
v 0.571448 0.634810 16.422308
v 0.547097 0.567901 16.468084
v 0.687514 0.634810 16.538372
v 0.655336 0.567901 16.573557
v -0.150534 0.634810 16.422308
v -0.126183 0.567901 16.468084
v 0.571448 0.634810 16.422308
v 0.547097 0.567901 16.468084
v -0.266596 0.634810 16.538372
v -0.234416 0.567901 16.573557
v -0.150534 0.634810 16.422308
v -0.126183 0.567901 16.468084
v -0.266596 0.634810 16.943459
v -0.234416 0.567901 16.941675
v -0.266596 0.634810 16.538372
v -0.234416 0.567901 16.573557
v 0.687514 0.833952 16.943459
v 0.687514 0.833952 16.538372
v 0.687514 0.712836 16.943459
v 0.687514 0.712836 16.538372
v 0.571452 0.833952 16.422308
v 0.571450 0.712836 16.422308
v 0.687514 0.833952 16.538372
v 0.687514 0.712836 16.538372
v -0.150534 0.833952 16.422308
v 0.571452 0.833952 16.422308
v -0.266596 0.833952 16.538372
v -0.266596 0.712836 16.538372
v -0.150534 0.833952 16.422308
v -0.150534 0.712836 16.422308
v -0.266596 0.833952 16.943459
v -0.266596 0.712836 16.943459
v -0.266596 0.833952 16.538372
v -0.266596 0.712836 16.538372
v 0.387245 -0.004196 -4.772859
v 0.271190 -0.004196 -4.656795
v 0.387245 0.133863 -4.772859
v 0.271190 0.133863 -4.656795
v 0.271190 -0.004196 -4.656795
v -0.450797 -0.004196 -4.656795
v 0.271190 0.133863 -4.656795
v -0.450797 0.133863 -4.656795
v -0.450797 -0.004196 -4.656795
v -0.566866 -0.004196 -4.772859
v -0.450797 0.133863 -4.656795
v -0.566866 0.133863 -4.772859
v -0.566866 -0.004196 -4.772859
v -0.566866 -0.004196 -5.177946
v -0.566866 0.133863 -4.772859
v -0.566866 0.133863 -5.177946
v 0.387245 -0.004196 -5.177946
v 0.387245 -0.004196 -4.772859
v 0.387245 0.133863 -5.177946
v 0.387245 0.133863 -4.772859
v 0.387245 -0.004196 -4.772859
v 0.387245 -0.004196 -5.177946
v -0.566866 -0.004196 -4.772859
v -0.566866 -0.004196 -5.177946
v 0.355066 0.279324 -5.176162
v 0.355066 0.279324 -4.808044
v 0.355066 0.567899 -5.176162
v 0.355066 0.567899 -4.808044
v 0.246839 0.279324 -4.702571
v 0.246833 0.567899 -4.702571
v 0.355066 0.279324 -4.808044
v 0.355066 0.567899 -4.808044
v -0.426447 0.279324 -4.702571
v -0.426447 0.567899 -4.702571
v 0.246839 0.279324 -4.702571
v 0.246833 0.567899 -4.702571
v -0.534686 0.279324 -4.808044
v -0.534686 0.567899 -4.808044
v -0.426447 0.279324 -4.702571
v -0.426447 0.567899 -4.702571
v -0.534686 0.279324 -5.176162
v -0.534686 0.567899 -5.176162
v -0.534686 0.279324 -4.808044
v -0.534686 0.567899 -4.808044
v -0.552507 0.852760 -4.785738
v -0.439939 0.852760 -4.673333
v -0.566866 0.833951 -4.772859
v -0.450803 0.833951 -4.656795
v -0.439939 0.852760 -4.673333
v 0.260318 0.852760 -4.673333
v -0.450803 0.833951 -4.656795
v 0.271183 0.833951 -4.656795
v 0.260318 0.852760 -4.673333
v 0.372887 0.852760 -4.785738
v 0.271183 0.833951 -4.656795
v 0.387245 0.833951 -4.772859
v 0.372887 0.852760 -4.785738
v 0.372887 0.852760 -5.178051
v 0.387245 0.833951 -4.772859
v 0.387245 0.833951 -5.177946
v -0.552507 0.852760 -5.178051
v -0.552507 0.852760 -4.785738
v -0.566866 0.833951 -5.177946
v -0.566866 0.833951 -4.772859
v -0.552507 0.852760 -4.785738
v -0.552507 0.852760 -5.178051
v 0.372887 0.852760 -4.785738
v 0.372887 0.852760 -5.178051
v 0.387245 0.214437 -5.177946
v 0.387245 0.214438 -4.772859
v 0.271190 0.133863 -4.656795
v 0.271190 0.214438 -4.656794
v 0.387245 0.133863 -4.772859
v 0.387245 0.214438 -4.772859
v -0.450797 0.133863 -4.656795
v -0.450797 0.214438 -4.656794
v 0.271190 0.133863 -4.656795
v 0.271190 0.214438 -4.656794
v -0.566866 0.133863 -4.772859
v -0.566866 0.214438 -4.772859
v -0.450797 0.133863 -4.656795
v -0.450797 0.214438 -4.656794
v -0.566866 0.133863 -5.177946
v -0.566866 0.214437 -5.177946
v -0.566866 0.133863 -4.772859
v -0.566866 0.214438 -4.772859
v -0.566866 0.712834 -5.177946
v -0.566866 0.712834 -4.772859
v -0.566866 0.634808 -5.177946
v -0.566866 0.634808 -4.772859
v -0.450801 0.712834 -4.656795
v -0.450799 0.634808 -4.656795
v -0.566866 0.712834 -4.772859
v -0.566866 0.634808 -4.772859
v 0.271183 0.712834 -4.656795
v 0.271183 0.634808 -4.656795
v -0.450801 0.712834 -4.656795
v -0.450799 0.634808 -4.656795
v 0.387245 0.712834 -4.772859
v 0.387245 0.634808 -4.772859
v 0.271183 0.712834 -4.656795
v 0.271183 0.634808 -4.656795
v 0.387245 0.712834 -5.177946
v 0.387245 0.634808 -5.177946
v 0.387245 0.712834 -4.772859
v 0.387245 0.634808 -4.772859
v 0.387245 0.214437 -5.177946
v 0.387245 0.214438 -4.772859
v 0.355066 0.279324 -5.176162
v 0.355066 0.279324 -4.808044
v 0.271190 0.214438 -4.656794
v 0.246839 0.279324 -4.702571
v 0.387245 0.214438 -4.772859
v 0.355066 0.279324 -4.808044
v -0.450797 0.214438 -4.656794
v -0.426447 0.279324 -4.702571
v 0.271190 0.214438 -4.656794
v 0.246839 0.279324 -4.702571
v -0.566866 0.214438 -4.772859
v -0.534686 0.279324 -4.808044
v -0.450797 0.214438 -4.656794
v -0.426447 0.279324 -4.702571
v -0.566866 0.214437 -5.177946
v -0.534686 0.279324 -5.176162
v -0.566866 0.214438 -4.772859
v -0.534686 0.279324 -4.808044
v -0.566866 0.634808 -5.177946
v -0.566866 0.634808 -4.772859
v -0.534686 0.567899 -5.176162
v -0.534686 0.567899 -4.808044
v -0.450799 0.634808 -4.656795
v -0.426447 0.567899 -4.702571
v -0.566866 0.634808 -4.772859
v -0.534686 0.567899 -4.808044
v 0.271183 0.634808 -4.656795
v 0.246833 0.567899 -4.702571
v -0.450799 0.634808 -4.656795
v -0.426447 0.567899 -4.702571
v 0.387245 0.634808 -4.772859
v 0.355066 0.567899 -4.808044
v 0.271183 0.634808 -4.656795
v 0.246833 0.567899 -4.702571
v 0.387245 0.634808 -5.177946
v 0.355066 0.567899 -5.176162
v 0.387245 0.634808 -4.772859
v 0.355066 0.567899 -4.808044
v -0.566866 0.833951 -5.177946
v -0.566866 0.833951 -4.772859
v -0.566866 0.712834 -5.177946
v -0.566866 0.712834 -4.772859
v -0.450803 0.833951 -4.656795
v -0.450801 0.712834 -4.656795
v -0.566866 0.833951 -4.772859
v -0.566866 0.712834 -4.772859
v 0.271183 0.833951 -4.656795
v 0.271183 0.712834 -4.656795
v -0.450803 0.833951 -4.656795
v 0.387245 0.833951 -4.772859
v 0.387245 0.712834 -4.772859
v 0.271183 0.833951 -4.656795
v 0.271183 0.712834 -4.656795
v 0.387245 0.833951 -5.177946
v 0.387245 0.712834 -5.177946
v 0.387245 0.833951 -4.772859
v 0.387245 0.712834 -4.772859
v 0.271190 -0.004196 -4.656795
v 0.387245 -0.004196 -4.772859
v -0.450797 -0.004196 -4.656795
v -0.566866 -0.004196 -4.772859
v -0.439939 0.852760 -4.673333
v -0.552507 0.852760 -4.785738
v 0.260318 0.852760 -4.673333
v 0.372887 0.852760 -4.785738
vn 0.7071 -0.0000 0.7071
vn -0.0000 -0.0000 1.0000
vn -0.7071 -0.0000 0.7071
vn -1.0000 -0.0000 -0.0000
vn 1.0000 -0.0000 -0.0000
vn -0.0000 1.0000 -0.0000
vn 0.6979 -0.0000 0.7162
vn 0.6983 -0.0000 0.7158
vn -0.6979 -0.0000 0.7162
vn -0.6982 -0.0000 0.7159
vn -0.4918 -0.7172 0.4938
vn -0.4919 -0.7171 0.4938
vn -0.4918 -0.7171 0.4938
vn -0.4918 -0.7171 0.4939
vn -0.0000 -0.6603 0.7510
vn -0.0000 -0.6606 0.7508
vn 0.4919 -0.7172 0.4937
vn 0.4918 -0.7171 0.4939
vn 0.4918 -0.7172 0.4938
vn 0.4919 -0.7171 0.4938
vn 0.7949 -0.6068 -0.0000
vn 0.7946 -0.6071 -0.0000
vn 0.7945 -0.6072 -0.0000
vn -0.7949 -0.6068 -0.0000
vn -0.0000 -1.0000 -0.0000
vn 0.8955 -0.4451 -0.0000
vn 0.8956 -0.4449 -0.0000
vn 0.8956 -0.4448 -0.0000
vn 0.8957 -0.4447 -0.0000
vn 0.5627 -0.6000 0.5686
vn -0.0000 -0.5760 0.8175
vn -0.0000 -0.5765 0.8171
vn -0.0000 -0.5762 0.8173
vn -0.5627 -0.6000 0.5686
vn -0.5628 -0.6000 0.5686
vn -0.8955 -0.4450 -0.0000
vn -0.8957 -0.4447 -0.0000
vn -0.9012 0.4334 -0.0000
vn -0.5682 0.5877 0.5760
vn -0.5682 0.5878 0.5760
vn -0.0000 0.5646 0.8253
vn -0.0000 0.5647 0.8253
vn 0.5681 0.5878 0.5760
vn 0.5682 0.5877 0.5760
vn 0.9012 0.4334 -0.0000
vn 0.9014 0.4330 -0.0000
vn -0.7071 -0.0000 -0.7071
vn -0.0000 -0.0000 -1.0000
vn 0.7071 -0.0000 -0.7071
vn -0.6979 -0.0000 -0.7162
vn 0.6979 -0.0000 -0.7162
vn 0.4918 -0.7172 -0.4938
vn 0.4918 -0.7171 -0.4938
vn -0.0000 -0.6603 -0.7510
vn -0.0000 -0.6607 -0.7507
vn -0.4918 -0.7171 -0.4938
vn -0.4918 -0.7171 -0.4939
vn -0.4918 -0.7172 -0.4938
vn -0.8959 -0.4443 -0.0000
vn -0.8956 -0.4448 -0.0000
vn -0.5627 -0.6000 -0.5686
vn -0.5628 -0.5999 -0.5687
vn -0.0000 -0.5765 -0.8171
vn -0.0000 -0.5761 -0.8174
vn 0.5627 -0.6000 -0.5686
vn 0.5628 -0.6000 -0.5686
vn 0.9014 0.4329 -0.0000
vn 0.5682 0.5877 -0.5760
vn 0.5682 0.5878 -0.5760
vn -0.0000 0.5647 -0.8253
vn -0.5682 0.5877 -0.5760
vn -0.5681 0.5878 -0.5760
vt 0.851074 0.456543
vt 0.851074 0.323730
vt 0.741211 0.323730
vt 0.741211 0.456543
vt 0.258789 0.323730
vt 0.258789 0.456543
vt 0.149048 0.323730
vt 0.149048 0.456543
vt -0.121704 0.323730
vt -0.121704 0.456543
vt 1.122070 0.456543
vt 1.122070 0.323730
vt 1.122070 0.533936
vt 0.851074 0.533936
vt 1.417969 0.088867
vt 1.083008 0.088867
vt 1.029297 0.142578
vt 1.471680 0.142578
vt 1.029297 0.330566
vt 1.471680 0.330566
vt 1.122070 0.872070
vt 1.122070 0.596191
vt 0.851074 0.596191
vt 0.851074 0.872070
vt 0.741211 0.596191
vt 0.741211 0.872070
vt 0.258789 0.596191
vt 0.258789 0.872070
vt 0.149048 0.596191
vt 0.149048 0.872070
vt -0.121704 0.596191
vt -0.121704 0.872070
vt 0.851074 0.341797
vt 0.741211 0.341797
vt 0.258789 0.341797
vt 0.149048 0.341797
vt -0.121704 0.341797
vt 1.122070 0.341797
vt 0.741211 0.533936
vt 0.258789 0.533936
vt 0.149048 0.533936
vt -0.121704 0.533936
vt 1.122070 0.532227
vt 1.122070 0.457520
vt 0.851074 0.457520
vt 0.851074 0.532227
vt 0.741211 0.457520
vt 0.741211 0.532227
vt 0.258789 0.532227
vt 0.258789 0.457520
vt 0.149048 0.457520
vt 0.149048 0.532227
vt -0.121704 0.457520
vt -0.121704 0.532227
s 1
f 3/1/1 1/2/1 2/3/1
f 2/3/1 4/4/1 3/1/1
f 7/4/2 5/3/2 6/5/2
f 6/5/2 8/6/2 7/4/2
f 11/6/3 9/5/3 10/7/3
f 10/7/3 12/8/3 11/6/3
f 15/8/4 13/7/4 14/9/4
f 14/9/4 16/10/4 15/8/4
f 19/11/5 17/12/5 18/2/5
f 18/2/5 20/1/5 19/11/5
f 73/13/5 19/11/5 20/1/5
f 20/1/5 74/14/5 73/13/5
f 23/15/6 21/16/6 22/17/6
f 24/18/6 23/15/6 22/17/6
f 22/17/6 25/19/6 24/18/6
f 26/20/6 24/18/6 25/19/6
f 29/21/5 27/22/5 28/23/5
f 28/23/5 30/24/5 29/21/5
f 33/23/7 31/25/7 32/26/8
f 32/26/8 34/24/8 33/23/7
f 37/25/2 35/27/2 36/28/2
f 36/28/2 38/26/2 37/25/2
f 41/27/9 39/29/10 40/30/10
f 40/30/10 42/28/9 41/27/9
f 45/29/4 43/31/4 44/32/4
f 44/32/4 46/30/4 45/29/4
f 49/33/11 47/2/12 48/3/13
f 48/3/13 50/34/14 49/33/11
f 53/34/15 51/3/15 52/5/15
f 52/5/15 54/35/16 53/34/15
f 57/35/17 55/5/18 56/7/19
f 56/7/19 58/36/20 57/35/17
f 61/36/21 59/7/22 60/9/21
f 60/9/21 62/37/23 61/36/21
f 65/38/24 63/12/24 64/2/24
f 64/2/24 66/33/24 65/38/24
f 69/15/25 67/16/25 68/17/25
f 70/18/25 69/15/25 68/17/25
f 68/17/25 71/19/25 70/18/25
f 72/20/25 70/18/25 71/19/25
f 77/1/1 75/4/1 76/39/1
f 76/39/1 78/14/1 77/1/1
f 80/4/2 8/6/2 79/40/2
f 79/40/2 81/39/2 80/4/2
f 84/6/3 82/8/3 83/41/3
f 83/41/3 85/40/3 84/6/3
f 88/8/4 86/10/4 87/42/4
f 87/42/4 89/41/4 88/8/4
f 92/43/4 90/44/4 91/45/4
f 91/45/4 93/46/4 92/43/4
f 96/45/3 94/47/3 95/48/3
f 95/48/3 97/46/3 96/45/3
f 99/49/2 101/48/2 100/47/2
f 98/50/2 99/49/2 100/47/2
f 100/47/2 159/34/2 98/50/2
f 158/35/2 98/50/2 159/34/2
f 104/50/1 102/51/1 103/52/1
f 103/52/1 105/49/1 104/50/1
f 108/51/5 106/53/5 107/54/5
f 107/54/5 109/52/5 108/51/5
f 112/22/26 110/13/27 111/14/28
f 111/14/28 113/23/29 112/22/26
f 116/14/30 114/39/30 115/25/30
f 115/25/30 117/23/30 116/14/30
f 120/39/31 118/40/32 119/27/32
f 119/27/32 121/25/33 120/39/31
f 124/40/34 122/41/34 123/29/35
f 123/29/35 125/27/34 124/40/34
f 128/41/36 126/42/37 127/31/37
f 127/31/37 129/29/36 128/41/36
f 132/22/38 130/43/38 131/46/38
f 131/46/38 133/23/38 132/22/38
f 136/46/39 134/48/40 135/25/40
f 135/25/40 137/23/39 136/46/39
f 140/48/41 138/49/42 139/27/42
f 139/27/42 141/25/41 140/48/41
f 144/49/43 142/52/44 143/29/43
f 143/29/43 145/27/44 144/49/43
f 148/52/45 146/54/45 147/31/46
f 147/31/46 149/29/46 148/52/45
f 152/44/4 150/38/4 151/33/4
f 151/33/4 153/45/4 152/44/4
f 156/33/3 154/34/3 155/47/3
f 155/47/3 157/45/3 156/33/3
f 162/35/1 160/36/1 161/51/1
f 161/51/1 163/50/1 162/35/1
f 166/36/5 164/37/5 165/53/5
f 165/53/5 167/51/5 166/36/5
f 170/1/47 168/2/47 169/3/47
f 169/3/47 171/4/47 170/1/47
f 174/4/48 172/3/48 173/5/48
f 173/5/48 175/6/48 174/4/48
f 178/6/49 176/5/49 177/7/49
f 177/7/49 179/8/49 178/6/49
f 182/8/5 180/7/5 181/9/5
f 181/9/5 183/10/5 182/8/5
f 186/11/4 184/12/4 185/2/4
f 185/2/4 187/1/4 186/11/4
f 236/13/4 186/11/4 187/1/4
f 187/1/4 237/14/4 236/13/4
f 190/18/6 188/17/6 189/19/6
f 189/19/6 191/20/6 190/18/6
f 194/21/4 192/22/4 193/23/4
f 193/23/4 195/24/4 194/21/4
f 198/23/50 196/25/50 197/26/50
f 197/26/50 199/24/50 198/23/50
f 202/25/48 200/27/48 201/28/48
f 201/28/48 203/26/48 202/25/48
f 206/27/51 204/29/51 205/30/51
f 205/30/51 207/28/51 206/27/51
f 210/29/5 208/31/5 209/32/5
f 209/32/5 211/30/5 210/29/5
f 214/33/52 212/2/52 213/3/53
f 213/3/53 215/34/52 214/33/52
f 218/34/54 216/3/55 217/5/54
f 217/5/54 219/35/54 218/34/54
f 222/35/56 220/5/57 221/7/58
f 221/7/58 223/36/58 222/35/56
f 226/36/24 224/7/24 225/9/24
f 225/9/24 227/37/24 226/36/24
f 230/38/21 228/12/21 229/2/21
f 229/2/21 231/33/21 230/38/21
f 234/18/25 232/17/25 233/19/25
f 233/19/25 235/20/25 234/18/25
f 240/1/47 238/4/47 239/39/47
f 239/39/47 241/14/47 240/1/47
f 244/4/48 242/6/48 243/40/48
f 243/40/48 245/39/48 244/4/48
f 248/6/49 246/8/49 247/41/49
f 247/41/49 249/40/49 248/6/49
f 252/8/5 250/10/5 251/42/5
f 251/42/5 253/41/5 252/8/5
f 256/43/5 254/44/5 255/45/5
f 255/45/5 257/46/5 256/43/5
f 260/45/49 258/47/49 259/48/49
f 259/48/49 261/46/49 260/45/49
f 264/47/48 262/50/48 263/49/48
f 263/49/48 265/48/48 264/47/48
f 268/50/47 266/51/47 267/52/47
f 267/52/47 269/49/47 268/50/47
f 272/51/4 270/53/4 271/54/4
f 271/54/4 273/52/4 272/51/4
f 276/22/59 274/13/60 275/14/36
f 275/14/36 277/23/37 276/22/59
f 280/14/61 278/39/61 279/25/62
f 279/25/62 281/23/61 280/14/61
f 284/39/63 282/40/64 283/27/63
f 283/27/63 285/25/64 284/39/63
f 288/40/65 286/41/65 287/29/65
f 287/29/65 289/27/66 288/40/65
f 292/41/28 290/42/27 291/31/27
f 291/31/27 293/29/29 292/41/28
f 296/22/45 294/43/67 295/46/46
f 295/46/46 297/23/45 296/22/45
f 300/46/68 298/48/69 299/25/68
f 299/25/68 301/23/68 300/46/68
f 304/48/70 302/49/70 303/27/70
f 303/27/70 305/25/70 304/48/70
f 308/49/71 306/52/71 307/29/72
f 307/29/72 309/27/71 308/49/71
f 312/52/38 310/54/38 311/31/38
f 311/31/38 313/29/38 312/52/38
f 316/44/5 314/38/5 315/33/5
f 315/33/5 317/45/5 316/44/5
f 320/33/49 318/34/49 319/47/49
f 319/47/49 321/45/49 320/33/49
f 324/34/48 322/35/48 323/50/48
f 323/50/48 264/47/48 324/34/48
f 327/35/47 325/36/47 326/51/47
f 326/51/47 328/50/47 327/35/47
f 331/36/4 329/37/4 330/53/4
f 330/53/4 332/51/4 331/36/4
f 335/15/6 333/16/6 334/17/6
f 334/17/6 336/18/6 335/15/6
f 339/15/25 337/16/25 338/17/25
f 338/17/25 340/18/25 339/15/25
