# Blender 4.5.3 LTS
# www.blender.org
o w9a02_ym2_iron01
v 7.562023 0.003384 -1.147389
v 7.562018 0.003384 1.504055
v 7.492622 0.003384 -1.147391
v 7.492616 0.003384 1.504054
v 7.468742 -0.028251 -1.147391
v 7.492622 0.003384 -1.147391
v 7.468736 -0.028251 1.504054
v 7.492616 0.003384 1.504054
v 7.786874 -0.028251 1.504063
v 7.786874 0.003384 1.504063
v 7.786880 -0.028251 -1.147382
v 7.786880 0.003384 -1.147382
v 7.595024 -0.016729 -1.147388
v 7.595019 -0.016729 1.504057
v 7.562023 0.003384 -1.147389
v 7.562018 0.003384 1.504055
v 7.684477 -0.016729 -1.147385
v 7.684473 -0.016729 1.504060
v 7.595024 -0.016729 -1.147388
v 7.595019 -0.016729 1.504057
v 7.717478 0.003384 -1.147383
v 7.717473 0.003384 1.504062
v 7.684477 -0.016729 -1.147385
v 7.684473 -0.016729 1.504060
v 7.786880 0.003384 -1.147382
v 7.786874 0.003384 1.504063
v 7.717478 0.003384 -1.147383
v 7.717473 0.003384 1.504062
v -5.041225 0.003383 -5.716351
v -2.351332 0.003383 -5.716346
v -5.041226 0.003383 -5.646949
v -2.351333 0.003383 -5.646944
v -5.041226 -0.028252 -5.623070
v -5.041226 0.003383 -5.646949
v -2.351333 -0.028252 -5.623064
v -2.351333 0.003383 -5.646944
v -2.351324 -0.028252 -5.941202
v -2.351324 0.003383 -5.941202
v -5.041217 -0.028252 -5.941208
v -5.041217 0.003383 -5.941208
v -5.041223 -0.016729 -5.749352
v -2.351331 -0.016729 -5.749347
v -5.041225 0.003383 -5.716351
v -2.351332 0.003383 -5.716346
v -5.041220 -0.016729 -5.838805
v -2.351327 -0.016729 -5.838800
v -5.041223 -0.016729 -5.749352
v -2.351331 -0.016729 -5.749347
v -5.041219 0.003383 -5.871806
v -2.351326 0.003383 -5.871801
v -5.041220 -0.016729 -5.838805
v -2.351327 -0.016729 -5.838800
v -5.041217 0.003383 -5.941208
v -2.351324 0.003383 -5.941202
v -5.041219 0.003383 -5.871806
v -2.351326 0.003383 -5.871801
v 6.325624 0.013537 16.484350
v 6.325624 -0.099480 16.484362
v 6.325624 0.013537 16.977514
v 6.325624 -0.099480 16.977514
v 6.205622 0.013537 16.498857
v 6.205622 0.013537 16.977507
v 5.970002 0.013498 16.511065
v 6.295496 0.013543 16.382336
v 6.295503 -0.099474 16.382341
v 5.242188 0.013525 16.511106
v 5.013502 0.013537 16.977514
v 4.893501 -0.099480 16.484343
v 4.893501 0.013537 16.484331
v 4.893501 -0.099480 16.977507
v 4.893501 0.013537 16.977507
v 5.013502 0.013537 16.498863
v 5.034358 0.013537 16.428606
v 6.237226 0.013549 16.280241
v 6.237220 -0.099468 16.280224
v 6.170936 -0.099456 16.219664
v 6.170918 0.013561 16.219646
v 6.085310 -0.099456 16.167082
v 6.085310 0.013561 16.167082
v 6.170936 -0.099456 16.219664
v 6.170918 0.013561 16.219646
v 6.144813 0.013537 16.358343
v 6.184785 0.013537 16.428631
v 5.985115 0.013549 16.133501
v 5.985115 -0.099468 16.133501
v 6.096992 0.013537 16.314653
v 6.042170 0.013537 16.278496
v 5.876185 0.013574 16.116436
v 5.876154 -0.099444 16.116423
v 5.342872 0.013549 16.116417
v 5.342903 -0.099468 16.116423
v 5.133796 0.013561 16.167095
v 5.133784 -0.099456 16.167095
v 5.234016 0.013543 16.133490
v 5.234010 -0.099474 16.133495
v 4.923652 0.013555 16.382292
v 4.923652 -0.099462 16.382280
v 4.981904 0.013537 16.280230
v 4.981898 -0.099480 16.280235
v 5.176942 0.013537 16.278502
v 5.262067 0.013537 16.250175
v 5.048213 -0.099480 16.219633
v 5.048139 0.013537 16.219683
v 5.048139 0.013537 16.219683
v 5.048213 -0.099480 16.219633
v 5.122120 0.013537 16.314648
v 5.074317 0.013537 16.358335
v 6.205622 0.013537 16.498857
v 6.325624 0.013537 16.484350
v 6.205622 0.013537 16.977507
v 6.325624 0.013537 16.977514
v 5.013502 0.013537 16.977514
v 4.893501 0.013537 16.977507
v 5.013502 0.013537 16.498863
v 4.893501 0.013537 16.484331
v 4.923652 0.013555 16.382292
v 5.034358 0.013537 16.428606
v 6.042170 0.013537 16.278496
v 6.085310 0.013561 16.167082
v 6.096992 0.013537 16.314653
v 6.170918 0.013561 16.219646
v 6.237226 0.013549 16.280241
v 6.295496 0.013543 16.382336
v 6.144813 0.013537 16.358343
v 6.184785 0.013537 16.428631
v 6.096992 0.013537 16.314653
v 6.170918 0.013561 16.219646
v 5.985115 0.013549 16.133501
v 5.957075 0.013537 16.250175
v 5.876185 0.013574 16.116436
v 5.869178 0.013537 16.236443
v 5.349897 0.013537 16.236418
v 5.342872 0.013549 16.116417
v 5.133796 0.013561 16.167095
v 5.234016 0.013543 16.133490
v 5.176942 0.013537 16.278502
v 5.262067 0.013537 16.250175
v 5.122120 0.013537 16.314648
v 5.048139 0.013537 16.219683
v 5.074317 0.013537 16.358335
v 4.981904 0.013537 16.280230
v 5.122120 0.013537 16.314648
v 5.048139 0.013537 16.219683
v 5.349897 0.013537 16.236418
v 5.869178 0.013537 16.236443
v 5.957075 0.013537 16.250175
vn -0.0000 -1.0000 -0.0000
vn 0.7981 -0.6025 -0.0000
vn 0.7982 -0.6025 -0.0000
vn -1.0000 -0.0000 -0.0000
vn -0.5193 -0.8546 -0.0000
vn -0.5195 -0.8545 -0.0000
vn -0.5194 -0.8545 -0.0000
vn 0.5194 -0.8545 -0.0000
vn 0.5195 -0.8545 -0.0000
vn 0.5194 -0.8546 -0.0000
vn -0.0000 -0.6025 -0.7981
vn -0.0000 -0.0000 1.0000
vn -0.0000 -0.8545 0.5195
vn -0.0000 -0.8546 0.5193
vn -0.0000 -0.8546 0.5192
vn -0.0000 -0.8545 -0.5194
vn -0.0000 -0.8546 -0.5192
vn -0.0000 -0.8545 -0.5195
vn -0.9988 -0.0000 0.0490
vn -0.9174 -0.0000 0.3979
vn -0.9174 -0.0000 0.3980
vn -0.7941 -0.0000 0.6078
vn -0.5979 -0.0001 0.8016
vn -0.5978 -0.0000 0.8016
vn 0.9988 -0.0000 0.0490
vn 1.0000 -0.0000 -0.0000
vn 0.9174 -0.0000 0.3979
vn 0.7941 -0.0000 0.6078
vn 0.5978 -0.0000 0.8016
vn 0.5979 -0.0000 0.8016
vn -0.4196 -0.0000 0.9077
vn -0.2351 -0.0000 0.9720
vn -0.2350 -0.0000 0.9720
vn -0.0255 -0.0000 0.9997
vn -0.0255 -0.0001 0.9997
vn 0.0255 -0.0000 0.9997
vn 0.2351 -0.0000 0.9720
vn 0.4196 -0.0000 0.9077
vn -0.0000 -1.0000 -0.0001
vn 0.0001 -1.0000 -0.0001
vn -0.0000 -1.0000 -0.0002
vn 0.0001 -1.0000 -0.0002
vn -0.0001 -1.0000 -0.0000
vn -0.0001 -1.0000 -0.0001
vn -0.0001 -1.0000 0.0001
vn -0.0000 -1.0000 0.0002
vn -0.0000 -1.0000 -0.0003
vn -0.0001 -1.0000 -0.0002
vn 0.0001 -1.0000 -0.0000
vn 0.0002 -1.0000 -0.0000
vn -0.0000 -1.0000 0.0001
vn 0.0002 -1.0000 -0.0001
vt 1.043945 0.023926
vt 1.043945 0.081543
vt 3.044922 0.081543
vt 3.044922 0.023926
vt 3.044922 0.006348
vt 1.043945 0.006348
vt 0.995605 0.006348
vt -1.003906 0.006348
vt -1.003906 0.023926
vt 0.995605 0.023926
vt 1.043945 0.103027
vt 3.044922 0.103027
vt 1.583984 0.793701
vt 1.583984 0.732422
vt -1.570312 0.732422
vt -1.570312 0.793701
vt 0.995605 0.103027
vt 0.995605 0.081543
vt -1.003906 0.081543
vt -1.003906 0.103027
vt 0.206787 0.104980
vt -0.000566 0.104980
vt -0.000566 0.022949
vt 0.206787 0.022949
vt 0.237549 0.022949
vt 0.237549 0.104980
vt 0.268066 0.104980
vt 0.268066 0.022949
vt 0.288574 0.104980
vt 0.288574 0.022949
vt 0.792480 0.022949
vt 0.999512 0.022949
vt 0.999512 0.104980
vt 0.792480 0.104980
vt 0.761719 0.022949
vt 0.761719 0.104980
vt 0.731445 0.104980
vt 0.731445 0.022949
vt 0.710938 0.022949
vt 0.710938 0.104980
vt 0.312500 0.104980
vt 0.312500 0.022949
vt 0.349121 0.022949
vt 0.349121 0.104980
vt 0.387207 0.022949
vt 0.387207 0.104980
vt 0.612305 0.022949
vt 0.612305 0.104980
vt 0.650391 0.104980
vt 0.650391 0.022949
vt 0.687012 0.104980
vt 0.687012 0.022949
vt 0.207031 0.008301
vt -0.000258 0.008301
vt -0.000258 0.104492
vt 0.207031 0.104492
vt 0.237427 0.008301
vt 0.237427 0.104492
vt 0.267822 0.104492
vt 0.267822 0.008301
vt 0.288574 0.008301
vt 0.288574 0.104492
vt 0.792480 0.104492
vt 0.999512 0.104492
vt 0.999512 0.008301
vt 0.792480 0.008301
vt 0.761719 0.008301
vt 0.761719 0.104492
vt 0.731445 0.104492
vt 0.731445 0.008301
vt 0.710938 0.104492
vt 0.710938 0.008301
vt 0.312256 0.008301
vt 0.312256 0.104492
vt 0.349121 0.008301
vt 0.349121 0.104492
vt 0.387207 0.008301
vt 0.387207 0.104492
vt 0.612305 0.008301
vt 0.612305 0.104492
vt 0.650391 0.104492
vt 0.650391 0.008301
vt 0.687012 0.104492
vt 0.687012 0.008301
vt 0.209229 0.459961
vt 0.021027 0.445801
vt 0.021027 0.993675
vt 0.973633 0.993656
vt 0.790527 0.459961
vt 0.973633 0.445801
vt 0.957031 0.365723
vt 0.924805 0.285156
vt 0.886719 0.234863
vt 0.842773 0.193848
vt 0.774902 0.161133
vt 0.704590 0.145508
vt 0.289795 0.145508
vt 0.219604 0.161621
vt 0.151611 0.193848
vt 0.107788 0.235352
vt 0.069641 0.285156
vt 0.037689 0.365723
s 1
f 3/1/1 1/2/1 2/3/1
f 2/3/1 4/4/1 3/1/1
f 7/5/2 5/6/3 6/1/3
f 6/1/3 8/4/2 7/5/2
f 11/7/4 9/8/4 10/9/4
f 10/9/4 12/10/4 11/7/4
f 15/2/5 13/11/6 14/12/7
f 14/12/7 16/3/6 15/2/5
f 19/13/1 17/14/1 18/15/1
f 18/15/1 20/16/1 19/13/1
f 23/17/8 21/18/9 22/19/8
f 22/19/8 24/20/10 23/17/8
f 27/18/1 25/10/1 26/9/1
f 26/9/1 28/19/1 27/18/1
f 31/1/1 29/2/1 30/3/1
f 30/3/1 32/4/1 31/1/1
f 35/5/11 33/6/11 34/1/11
f 34/1/11 36/4/11 35/5/11
f 39/7/12 37/8/12 38/9/12
f 38/9/12 40/10/12 39/7/12
f 43/2/13 41/11/14 42/12/13
f 42/12/13 44/3/15 43/2/13
f 47/13/1 45/14/1 46/15/1
f 46/15/1 48/16/1 47/13/1
f 51/17/16 49/18/17 50/19/18
f 50/19/18 52/20/18 51/17/16
f 55/18/1 53/10/1 54/9/1
f 54/9/1 56/19/1 55/18/1
f 58/21/19 60/22/4 59/23/4
f 59/23/4 57/24/19 58/21/19
f 57/24/19 64/25/20 58/21/19
f 65/26/21 58/21/19 64/25/20
f 75/27/22 65/26/21 64/25/20
f 64/25/20 74/28/22 75/27/22
f 80/29/23 75/27/22 74/28/22
f 74/28/22 81/30/24 80/29/23
f 69/31/25 71/32/26 70/33/26
f 70/33/26 68/34/25 69/31/25
f 96/35/27 69/31/25 68/34/25
f 68/34/25 97/36/27 96/35/27
f 97/36/27 99/37/28 96/35/27
f 98/38/28 96/35/27 99/37/28
f 104/39/29 98/38/28 99/37/28
f 99/37/28 105/40/30 104/39/29
f 78/41/31 76/29/24 77/30/24
f 77/30/24 79/42/31 78/41/31
f 79/42/31 84/43/32 78/41/31
f 85/44/33 78/41/31 84/43/32
f 84/43/32 88/45/34 85/44/33
f 89/46/35 85/44/33 88/45/34
f 88/45/34 90/47/36 89/46/35
f 91/48/36 89/46/35 90/47/36
f 95/49/37 91/48/36 90/47/36
f 90/47/36 94/50/37 95/49/37
f 93/51/38 95/49/37 94/50/37
f 94/50/37 92/52/38 93/51/38
f 92/52/38 103/39/29 93/51/38
f 102/40/29 93/51/38 103/39/29
f 109/53/1 111/54/1 110/55/1
f 110/55/1 108/56/1 109/53/1
f 123/57/39 109/53/1 108/56/1
f 108/56/1 125/58/1 123/57/39
f 125/58/1 124/59/40 123/57/39
f 122/60/39 123/57/39 124/59/40
f 127/61/41 122/60/39 124/59/40
f 124/59/40 126/62/42 127/61/41
f 114/63/39 112/64/1 113/65/1
f 113/65/1 115/66/39 114/63/39
f 115/66/39 116/67/43 114/63/39
f 117/68/44 114/63/39 116/67/43
f 140/69/43 117/68/44 116/67/43
f 116/67/43 141/70/45 140/69/43
f 142/71/1 140/69/43 141/70/45
f 141/70/45 143/72/1 142/71/1
f 119/73/42 121/61/42 120/62/42
f 120/62/42 118/74/40 119/73/42
f 128/75/39 119/73/42 118/74/40
f 118/74/40 129/76/41 128/75/39
f 130/77/46 128/75/39 129/76/41
f 129/76/41 131/78/47 130/77/46
f 133/79/39 130/77/46 131/78/47
f 131/78/47 132/80/39 133/79/39
f 132/80/39 137/81/39 133/79/39
f 135/82/39 133/79/39 137/81/39
f 137/81/39 136/83/39 135/82/39
f 134/84/48 135/82/39 136/83/39
f 139/72/42 134/84/48 136/83/39
f 136/83/39 138/71/1 139/72/42
f 63/85/49 61/86/50 62/87/51
f 62/87/51 67/88/1 63/85/49
f 66/89/1 63/85/49 67/88/1
f 67/88/1 72/90/43 66/89/1
f 72/90/43 73/91/43 66/89/1
f 73/91/43 107/92/1 66/89/1
f 107/92/1 106/93/1 66/89/1
f 106/93/1 100/94/1 66/89/1
f 100/94/1 101/95/1 66/89/1
f 101/95/1 144/96/1 66/89/1
f 144/96/1 145/97/39 66/89/1
f 63/85/49 66/89/1 145/97/39
f 145/97/39 146/98/41 63/85/49
f 146/98/41 87/99/40 63/85/49
f 87/99/40 86/100/40 63/85/49
f 86/100/40 82/101/40 63/85/49
f 82/101/40 83/102/52 63/85/49
f 61/86/50 63/85/49 83/102/52
